G04 Layer_Color=32896*
%FSAX24Y24*%
%MOIN*%
G70*
G01*
G75*
%ADD44C,0.0100*%
%ADD71C,0.0098*%
%ADD73C,0.0080*%
%ADD74C,0.0236*%
%ADD75C,0.0079*%
%ADD136C,0.0039*%
D44*
X032850Y031850D02*
X032450D01*
Y031650D01*
X032517Y031583D01*
X032650D01*
X032717Y031650D01*
Y031850D01*
Y031717D02*
X032850Y031583D01*
X032517Y031450D02*
X032450Y031383D01*
Y031250D01*
X032517Y031184D01*
X032583D01*
X032650Y031250D01*
Y031317D01*
Y031250D01*
X032717Y031184D01*
X032783D01*
X032850Y031250D01*
Y031383D01*
X032783Y031450D01*
X032450Y031050D02*
Y030784D01*
X032517D01*
X032783Y031050D01*
X032850D01*
X033350Y021100D02*
Y020700D01*
X033150D01*
X033083Y020767D01*
Y021033D01*
X033150Y021100D01*
X033350D01*
X032950Y020700D02*
X032817D01*
X032883D01*
Y021100D01*
X032950Y021033D01*
X032617D02*
X032550Y021100D01*
X032417D01*
X032350Y021033D01*
Y020967D01*
X032417Y020900D01*
X032350Y020833D01*
Y020767D01*
X032417Y020700D01*
X032550D01*
X032617Y020767D01*
Y020833D01*
X032550Y020900D01*
X032617Y020967D01*
Y021033D01*
X032550Y020900D02*
X032417D01*
X028950Y033550D02*
Y033150D01*
X028750D01*
X028683Y033217D01*
Y033283D01*
X028750Y033350D01*
X028950D01*
X028750D01*
X028683Y033417D01*
Y033483D01*
X028750Y033550D01*
X028950D01*
X028550Y033150D02*
Y033550D01*
X028417Y033417D01*
X028284Y033550D01*
Y033150D01*
X027884Y033483D02*
X027950Y033550D01*
X028084D01*
X028150Y033483D01*
Y033417D01*
X028084Y033350D01*
X027950D01*
X027884Y033283D01*
Y033217D01*
X027950Y033150D01*
X028084D01*
X028150Y033217D01*
X027351Y033417D02*
X027217Y033150D01*
X027084Y033417D01*
X026951Y033150D02*
X026817D01*
X026884D01*
Y033550D01*
X026951Y033483D01*
X026617Y033150D02*
Y033217D01*
X026551D01*
Y033150D01*
X026617D01*
X026284Y033483D02*
X026218Y033550D01*
X026084D01*
X026018Y033483D01*
Y033217D01*
X026084Y033150D01*
X026218D01*
X026284Y033217D01*
Y033483D01*
X025484Y033350D02*
X025218D01*
X024685Y033150D02*
Y033550D01*
X024485D01*
X024418Y033483D01*
Y033350D01*
X024485Y033283D01*
X024685D01*
X024551D02*
X024418Y033150D01*
X024218Y033417D02*
X024085D01*
X024018Y033350D01*
Y033150D01*
X024218D01*
X024285Y033217D01*
X024218Y033283D01*
X024018D01*
X023885Y033017D02*
Y033417D01*
X023685D01*
X023618Y033350D01*
Y033217D01*
X023685Y033150D01*
X023885D01*
X023485Y033550D02*
Y033150D01*
Y033350D01*
X023418Y033417D01*
X023285D01*
X023219Y033350D01*
Y033150D01*
X023019Y033417D02*
X022885D01*
X022819Y033350D01*
Y033150D01*
X023019D01*
X023085Y033217D01*
X023019Y033283D01*
X022819D01*
X022485Y033150D02*
X022619D01*
X022685Y033217D01*
Y033350D01*
X022619Y033417D01*
X022485D01*
X022419Y033350D01*
Y033283D01*
X022685D01*
X022285Y033150D02*
X022152D01*
X022219D01*
Y033550D01*
X022285D01*
X021286Y033483D02*
X021352Y033550D01*
X021486D01*
X021552Y033483D01*
Y033217D01*
X021486Y033150D01*
X021352D01*
X021286Y033217D01*
X021153Y033550D02*
Y033150D01*
Y033350D01*
X021086Y033417D01*
X020953D01*
X020886Y033350D01*
Y033150D01*
X020686Y033417D02*
X020553D01*
X020486Y033350D01*
Y033150D01*
X020686D01*
X020753Y033217D01*
X020686Y033283D01*
X020486D01*
X020353Y033150D02*
Y033417D01*
X020153D01*
X020086Y033350D01*
Y033150D01*
X019820Y033017D02*
X019753D01*
X019686Y033083D01*
Y033417D01*
X019886D01*
X019953Y033350D01*
Y033217D01*
X019886Y033150D01*
X019686D01*
X039850Y016950D02*
Y016450D01*
X039750Y016350D01*
X039550D01*
X039450Y016450D01*
Y016950D01*
X039250Y016850D02*
X039150Y016950D01*
X038950D01*
X038850Y016850D01*
Y016750D01*
X038950Y016650D01*
X038850Y016550D01*
Y016450D01*
X038950Y016350D01*
X039150D01*
X039250Y016450D01*
Y016550D01*
X039150Y016650D01*
X039250Y016750D01*
Y016850D01*
X039150Y016650D02*
X038950D01*
X018567Y028833D02*
X018500Y028900D01*
Y029033D01*
X018567Y029100D01*
X018833D01*
X018900Y029033D01*
Y028900D01*
X018833Y028833D01*
X018900Y028700D02*
Y028567D01*
Y028633D01*
X018500D01*
X018567Y028700D01*
X018617Y023133D02*
X018550Y023200D01*
Y023333D01*
X018617Y023400D01*
X018883D01*
X018950Y023333D01*
Y023200D01*
X018883Y023133D01*
X018950Y022734D02*
Y023000D01*
X018683Y022734D01*
X018617D01*
X018550Y022800D01*
Y022933D01*
X018617Y023000D01*
X021567Y029933D02*
X021500Y030000D01*
Y030133D01*
X021567Y030200D01*
X021833D01*
X021900Y030133D01*
Y030000D01*
X021833Y029933D01*
X021567Y029800D02*
X021500Y029733D01*
Y029600D01*
X021567Y029534D01*
X021633D01*
X021700Y029600D01*
Y029667D01*
Y029600D01*
X021767Y029534D01*
X021833D01*
X021900Y029600D01*
Y029733D01*
X021833Y029800D01*
X022417Y029933D02*
X022350Y030000D01*
Y030133D01*
X022417Y030200D01*
X022683D01*
X022750Y030133D01*
Y030000D01*
X022683Y029933D01*
X022750Y029600D02*
X022350D01*
X022550Y029800D01*
Y029534D01*
X023117Y029933D02*
X023050Y030000D01*
Y030133D01*
X023117Y030200D01*
X023383D01*
X023450Y030133D01*
Y030000D01*
X023383Y029933D01*
X023050Y029534D02*
Y029800D01*
X023250D01*
X023183Y029667D01*
Y029600D01*
X023250Y029534D01*
X023383D01*
X023450Y029600D01*
Y029733D01*
X023383Y029800D01*
X025883Y025033D02*
X025950Y025100D01*
X026083D01*
X026150Y025033D01*
Y024767D01*
X026083Y024700D01*
X025950D01*
X025883Y024767D01*
X025484Y025100D02*
X025617Y025033D01*
X025750Y024900D01*
Y024767D01*
X025683Y024700D01*
X025550D01*
X025484Y024767D01*
Y024833D01*
X025550Y024900D01*
X025750D01*
X030533Y025133D02*
X030600Y025200D01*
X030733D01*
X030800Y025133D01*
Y024867D01*
X030733Y024800D01*
X030600D01*
X030533Y024867D01*
X030400Y025200D02*
X030134D01*
Y025133D01*
X030400Y024867D01*
Y024800D01*
X035283Y025133D02*
X035350Y025200D01*
X035483D01*
X035550Y025133D01*
Y024867D01*
X035483Y024800D01*
X035350D01*
X035283Y024867D01*
X035150Y025133D02*
X035083Y025200D01*
X034950D01*
X034884Y025133D01*
Y025067D01*
X034950Y025000D01*
X034884Y024933D01*
Y024867D01*
X034950Y024800D01*
X035083D01*
X035150Y024867D01*
Y024933D01*
X035083Y025000D01*
X035150Y025067D01*
Y025133D01*
X035083Y025000D02*
X034950D01*
X040033Y025233D02*
X040100Y025300D01*
X040233D01*
X040300Y025233D01*
Y024967D01*
X040233Y024900D01*
X040100D01*
X040033Y024967D01*
X039900D02*
X039833Y024900D01*
X039700D01*
X039634Y024967D01*
Y025233D01*
X039700Y025300D01*
X039833D01*
X039900Y025233D01*
Y025167D01*
X039833Y025100D01*
X039634D01*
X044883Y025233D02*
X044950Y025300D01*
X045083D01*
X045150Y025233D01*
Y024967D01*
X045083Y024900D01*
X044950D01*
X044883Y024967D01*
X044750Y024900D02*
X044617D01*
X044683D01*
Y025300D01*
X044750Y025233D01*
X044417D02*
X044350Y025300D01*
X044217D01*
X044150Y025233D01*
Y024967D01*
X044217Y024900D01*
X044350D01*
X044417Y024967D01*
Y025233D01*
X030683Y029283D02*
X030750Y029350D01*
X030883D01*
X030950Y029283D01*
Y029017D01*
X030883Y028950D01*
X030750D01*
X030683Y029017D01*
X030550Y028950D02*
X030417D01*
X030483D01*
Y029350D01*
X030550Y029283D01*
X030217Y028950D02*
X030084D01*
X030150D01*
Y029350D01*
X030217Y029283D01*
X035433D02*
X035500Y029350D01*
X035633D01*
X035700Y029283D01*
Y029017D01*
X035633Y028950D01*
X035500D01*
X035433Y029017D01*
X035300Y028950D02*
X035167D01*
X035233D01*
Y029350D01*
X035300Y029283D01*
X034700Y028950D02*
X034967D01*
X034700Y029217D01*
Y029283D01*
X034767Y029350D01*
X034900D01*
X034967Y029283D01*
X040133D02*
X040200Y029350D01*
X040333D01*
X040400Y029283D01*
Y029017D01*
X040333Y028950D01*
X040200D01*
X040133Y029017D01*
X040000Y028950D02*
X039867D01*
X039933D01*
Y029350D01*
X040000Y029283D01*
X039667D02*
X039600Y029350D01*
X039467D01*
X039400Y029283D01*
Y029217D01*
X039467Y029150D01*
X039534D01*
X039467D01*
X039400Y029083D01*
Y029017D01*
X039467Y028950D01*
X039600D01*
X039667Y029017D01*
X044933Y029283D02*
X045000Y029350D01*
X045133D01*
X045200Y029283D01*
Y029017D01*
X045133Y028950D01*
X045000D01*
X044933Y029017D01*
X044800Y028950D02*
X044667D01*
X044733D01*
Y029350D01*
X044800Y029283D01*
X044267Y028950D02*
Y029350D01*
X044467Y029150D01*
X044200D01*
X044933Y032533D02*
X045000Y032600D01*
X045133D01*
X045200Y032533D01*
Y032267D01*
X045133Y032200D01*
X045000D01*
X044933Y032267D01*
X044800Y032200D02*
X044667D01*
X044733D01*
Y032600D01*
X044800Y032533D01*
X044200Y032600D02*
X044467D01*
Y032400D01*
X044334Y032467D01*
X044267D01*
X044200Y032400D01*
Y032267D01*
X044267Y032200D01*
X044400D01*
X044467Y032267D01*
X040233Y032533D02*
X040300Y032600D01*
X040433D01*
X040500Y032533D01*
Y032267D01*
X040433Y032200D01*
X040300D01*
X040233Y032267D01*
X040100Y032200D02*
X039967D01*
X040033D01*
Y032600D01*
X040100Y032533D01*
X039500Y032600D02*
X039634Y032533D01*
X039767Y032400D01*
Y032267D01*
X039700Y032200D01*
X039567D01*
X039500Y032267D01*
Y032333D01*
X039567Y032400D01*
X039767D01*
X035533Y032533D02*
X035600Y032600D01*
X035733D01*
X035800Y032533D01*
Y032267D01*
X035733Y032200D01*
X035600D01*
X035533Y032267D01*
X035400Y032200D02*
X035267D01*
X035333D01*
Y032600D01*
X035400Y032533D01*
X035067Y032600D02*
X034800D01*
Y032533D01*
X035067Y032267D01*
Y032200D01*
X030283Y014433D02*
X030350Y014500D01*
X030483D01*
X030550Y014433D01*
Y014167D01*
X030483Y014100D01*
X030350D01*
X030283Y014167D01*
X029884Y014100D02*
X030150D01*
X029884Y014367D01*
Y014433D01*
X029950Y014500D01*
X030083D01*
X030150Y014433D01*
X029750D02*
X029684Y014500D01*
X029550D01*
X029484Y014433D01*
Y014167D01*
X029550Y014100D01*
X029684D01*
X029750Y014167D01*
Y014433D01*
X023683Y019433D02*
X023750Y019500D01*
X023883D01*
X023950Y019433D01*
Y019167D01*
X023883Y019100D01*
X023750D01*
X023683Y019167D01*
X023284Y019100D02*
X023550D01*
X023284Y019367D01*
Y019433D01*
X023350Y019500D01*
X023483D01*
X023550Y019433D01*
X023150D02*
X023084Y019500D01*
X022950D01*
X022884Y019433D01*
Y019367D01*
X022950Y019300D01*
X023017D01*
X022950D01*
X022884Y019233D01*
Y019167D01*
X022950Y019100D01*
X023084D01*
X023150Y019167D01*
X022883Y021233D02*
X022950Y021300D01*
X023083D01*
X023150Y021233D01*
Y020967D01*
X023083Y020900D01*
X022950D01*
X022883Y020967D01*
X022484Y020900D02*
X022750D01*
X022484Y021167D01*
Y021233D01*
X022550Y021300D01*
X022683D01*
X022750Y021233D01*
X022150Y020900D02*
Y021300D01*
X022350Y021100D01*
X022084D01*
X022033Y019433D02*
X022100Y019500D01*
X022233D01*
X022300Y019433D01*
Y019167D01*
X022233Y019100D01*
X022100D01*
X022033Y019167D01*
X021634Y019100D02*
X021900D01*
X021634Y019367D01*
Y019433D01*
X021700Y019500D01*
X021833D01*
X021900Y019433D01*
X021234Y019500D02*
X021500D01*
Y019300D01*
X021367Y019367D01*
X021300D01*
X021234Y019300D01*
Y019167D01*
X021300Y019100D01*
X021434D01*
X021500Y019167D01*
X021233Y021233D02*
X021300Y021300D01*
X021433D01*
X021500Y021233D01*
Y020967D01*
X021433Y020900D01*
X021300D01*
X021233Y020967D01*
X020834Y020900D02*
X021100D01*
X020834Y021167D01*
Y021233D01*
X020900Y021300D01*
X021033D01*
X021100Y021233D01*
X020434Y021300D02*
X020567Y021233D01*
X020700Y021100D01*
Y020967D01*
X020634Y020900D01*
X020500D01*
X020434Y020967D01*
Y021033D01*
X020500Y021100D01*
X020700D01*
X045933Y016783D02*
X046000Y016850D01*
X046133D01*
X046200Y016783D01*
Y016517D01*
X046133Y016450D01*
X046000D01*
X045933Y016517D01*
X045534Y016450D02*
X045800D01*
X045534Y016717D01*
Y016783D01*
X045600Y016850D01*
X045733D01*
X045800Y016783D01*
X045400D02*
X045334Y016850D01*
X045200D01*
X045134Y016783D01*
Y016717D01*
X045200Y016650D01*
X045134Y016583D01*
Y016517D01*
X045200Y016450D01*
X045334D01*
X045400Y016517D01*
Y016583D01*
X045334Y016650D01*
X045400Y016717D01*
Y016783D01*
X045334Y016650D02*
X045200D01*
X052867Y018383D02*
X052800Y018450D01*
Y018583D01*
X052867Y018650D01*
X053133D01*
X053200Y018583D01*
Y018450D01*
X053133Y018383D01*
X053200Y017984D02*
Y018250D01*
X052933Y017984D01*
X052867D01*
X052800Y018050D01*
Y018183D01*
X052867Y018250D01*
X053133Y017850D02*
X053200Y017784D01*
Y017650D01*
X053133Y017584D01*
X052867D01*
X052800Y017650D01*
Y017784D01*
X052867Y017850D01*
X052933D01*
X053000Y017784D01*
Y017584D01*
X046830Y019533D02*
X046897Y019600D01*
X047030D01*
X047096Y019533D01*
Y019267D01*
X047030Y019200D01*
X046897D01*
X046830Y019267D01*
X046697Y019533D02*
X046630Y019600D01*
X046497D01*
X046430Y019533D01*
Y019467D01*
X046497Y019400D01*
X046563D01*
X046497D01*
X046430Y019333D01*
Y019267D01*
X046497Y019200D01*
X046630D01*
X046697Y019267D01*
X046297Y019533D02*
X046230Y019600D01*
X046097D01*
X046030Y019533D01*
Y019267D01*
X046097Y019200D01*
X046230D01*
X046297Y019267D01*
Y019533D01*
X046680Y017483D02*
X046747Y017550D01*
X046880D01*
X046946Y017483D01*
Y017217D01*
X046880Y017150D01*
X046747D01*
X046680Y017217D01*
X046547Y017483D02*
X046480Y017550D01*
X046347D01*
X046280Y017483D01*
Y017417D01*
X046347Y017350D01*
X046413D01*
X046347D01*
X046280Y017283D01*
Y017217D01*
X046347Y017150D01*
X046480D01*
X046547Y017217D01*
X046147Y017150D02*
X046013D01*
X046080D01*
Y017550D01*
X046147Y017483D01*
X048383Y015933D02*
X048450Y016000D01*
X048583D01*
X048650Y015933D01*
Y015667D01*
X048583Y015600D01*
X048450D01*
X048383Y015667D01*
X048250Y015933D02*
X048183Y016000D01*
X048050D01*
X047984Y015933D01*
Y015867D01*
X048050Y015800D01*
X048117D01*
X048050D01*
X047984Y015733D01*
Y015667D01*
X048050Y015600D01*
X048183D01*
X048250Y015667D01*
X047584Y015600D02*
X047850D01*
X047584Y015867D01*
Y015933D01*
X047650Y016000D01*
X047784D01*
X047850Y015933D01*
X045157Y013552D02*
X045224Y013619D01*
X045357D01*
X045424Y013552D01*
Y013286D01*
X045357Y013219D01*
X045224D01*
X045157Y013286D01*
X045024Y013552D02*
X044957Y013619D01*
X044824D01*
X044757Y013552D01*
Y013485D01*
X044824Y013419D01*
X044891D01*
X044824D01*
X044757Y013352D01*
Y013286D01*
X044824Y013219D01*
X044957D01*
X045024Y013286D01*
X044424Y013219D02*
Y013619D01*
X044624Y013419D01*
X044358D01*
X057300Y027250D02*
X057200Y027350D01*
Y027550D01*
X057300Y027650D01*
X057700D01*
X057800Y027550D01*
Y027350D01*
X057700Y027250D01*
X057300Y027050D02*
X057200Y026950D01*
Y026750D01*
X057300Y026650D01*
X057400D01*
X057500Y026750D01*
Y026850D01*
Y026750D01*
X057600Y026650D01*
X057700D01*
X057800Y026750D01*
Y026950D01*
X057700Y027050D01*
X057200Y026051D02*
X057300Y026250D01*
X057500Y026450D01*
X057700D01*
X057800Y026350D01*
Y026150D01*
X057700Y026051D01*
X057600D01*
X057500Y026150D01*
Y026450D01*
X043257Y014552D02*
X043324Y014619D01*
X043457D01*
X043524Y014552D01*
Y014286D01*
X043457Y014219D01*
X043324D01*
X043257Y014286D01*
X043124Y014552D02*
X043057Y014619D01*
X042924D01*
X042857Y014552D01*
Y014485D01*
X042924Y014419D01*
X042991D01*
X042924D01*
X042857Y014352D01*
Y014286D01*
X042924Y014219D01*
X043057D01*
X043124Y014286D01*
X042724Y014619D02*
X042458D01*
Y014552D01*
X042724Y014286D01*
Y014219D01*
X046633Y013933D02*
X046700Y014000D01*
X046833D01*
X046900Y013933D01*
Y013667D01*
X046833Y013600D01*
X046700D01*
X046633Y013667D01*
X046500Y013933D02*
X046433Y014000D01*
X046300D01*
X046234Y013933D01*
Y013867D01*
X046300Y013800D01*
X046367D01*
X046300D01*
X046234Y013733D01*
Y013667D01*
X046300Y013600D01*
X046433D01*
X046500Y013667D01*
X046100Y013933D02*
X046034Y014000D01*
X045900D01*
X045834Y013933D01*
Y013867D01*
X045900Y013800D01*
X045834Y013733D01*
Y013667D01*
X045900Y013600D01*
X046034D01*
X046100Y013667D01*
Y013733D01*
X046034Y013800D01*
X046100Y013867D01*
Y013933D01*
X046034Y013800D02*
X045900D01*
X057300Y024550D02*
X057200Y024650D01*
Y024850D01*
X057300Y024950D01*
X057700D01*
X057800Y024850D01*
Y024650D01*
X057700Y024550D01*
X057800Y024050D02*
X057200D01*
X057500Y024350D01*
Y023950D01*
X057300Y023750D02*
X057200Y023650D01*
Y023450D01*
X057300Y023351D01*
X057700D01*
X057800Y023450D01*
Y023650D01*
X057700Y023750D01*
X057300D01*
Y021850D02*
X057200Y021950D01*
Y022150D01*
X057300Y022250D01*
X057700D01*
X057800Y022150D01*
Y021950D01*
X057700Y021850D01*
X057800Y021350D02*
X057200D01*
X057500Y021650D01*
Y021250D01*
X057800Y021050D02*
Y020850D01*
Y020950D01*
X057200D01*
X057300Y021050D01*
Y019550D02*
X057200Y019650D01*
Y019850D01*
X057300Y019950D01*
X057700D01*
X057800Y019850D01*
Y019650D01*
X057700Y019550D01*
X057800Y019050D02*
X057200D01*
X057500Y019350D01*
Y018950D01*
X057800Y018351D02*
Y018750D01*
X057400Y018351D01*
X057300D01*
X057200Y018450D01*
Y018650D01*
X057300Y018750D01*
X021670Y025610D02*
Y025010D01*
X021370D01*
X021270Y025110D01*
Y025510D01*
X021370Y025610D01*
X021670D01*
X021070Y025010D02*
X020870D01*
X020970D01*
Y025610D01*
X021070Y025510D01*
X045900Y015400D02*
X046300D01*
Y015200D01*
X046233Y015133D01*
X045967D01*
X045900Y015200D01*
Y015400D01*
X045967Y015000D02*
X045900Y014933D01*
Y014800D01*
X045967Y014734D01*
X046033D01*
X046100Y014800D01*
Y014867D01*
Y014800D01*
X046167Y014734D01*
X046233D01*
X046300Y014800D01*
Y014933D01*
X046233Y015000D01*
X024900Y025050D02*
Y024650D01*
X024700D01*
X024633Y024717D01*
Y024983D01*
X024700Y025050D01*
X024900D01*
X024234D02*
X024500D01*
Y024850D01*
X024367Y024917D01*
X024300D01*
X024234Y024850D01*
Y024717D01*
X024300Y024650D01*
X024433D01*
X024500Y024717D01*
X029600Y025150D02*
Y024750D01*
X029400D01*
X029333Y024817D01*
Y025083D01*
X029400Y025150D01*
X029600D01*
X028934D02*
X029067Y025083D01*
X029200Y024950D01*
Y024817D01*
X029133Y024750D01*
X029000D01*
X028934Y024817D01*
Y024883D01*
X029000Y024950D01*
X029200D01*
X034300Y025150D02*
Y024750D01*
X034100D01*
X034033Y024817D01*
Y025083D01*
X034100Y025150D01*
X034300D01*
X033900D02*
X033634D01*
Y025083D01*
X033900Y024817D01*
Y024750D01*
X039100Y025250D02*
Y024850D01*
X038900D01*
X038833Y024917D01*
Y025183D01*
X038900Y025250D01*
X039100D01*
X038700Y025183D02*
X038633Y025250D01*
X038500D01*
X038434Y025183D01*
Y025117D01*
X038500Y025050D01*
X038434Y024983D01*
Y024917D01*
X038500Y024850D01*
X038633D01*
X038700Y024917D01*
Y024983D01*
X038633Y025050D01*
X038700Y025117D01*
Y025183D01*
X038633Y025050D02*
X038500D01*
X043850Y025250D02*
Y024850D01*
X043650D01*
X043583Y024917D01*
Y025183D01*
X043650Y025250D01*
X043850D01*
X043450Y024917D02*
X043383Y024850D01*
X043250D01*
X043184Y024917D01*
Y025183D01*
X043250Y025250D01*
X043383D01*
X043450Y025183D01*
Y025117D01*
X043383Y025050D01*
X043184D01*
X029650Y029300D02*
Y028900D01*
X029450D01*
X029383Y028967D01*
Y029233D01*
X029450Y029300D01*
X029650D01*
X029250Y028900D02*
X029117D01*
X029183D01*
Y029300D01*
X029250Y029233D01*
X028917D02*
X028850Y029300D01*
X028717D01*
X028650Y029233D01*
Y028967D01*
X028717Y028900D01*
X028850D01*
X028917Y028967D01*
Y029233D01*
X034350Y029300D02*
Y028900D01*
X034150D01*
X034083Y028967D01*
Y029233D01*
X034150Y029300D01*
X034350D01*
X033950Y028900D02*
X033817D01*
X033883D01*
Y029300D01*
X033950Y029233D01*
X033617Y028900D02*
X033484D01*
X033550D01*
Y029300D01*
X033617Y029233D01*
X039100Y029300D02*
Y028900D01*
X038900D01*
X038833Y028967D01*
Y029233D01*
X038900Y029300D01*
X039100D01*
X038700Y028900D02*
X038567D01*
X038633D01*
Y029300D01*
X038700Y029233D01*
X038100Y028900D02*
X038367D01*
X038100Y029167D01*
Y029233D01*
X038167Y029300D01*
X038300D01*
X038367Y029233D01*
X043850Y029300D02*
Y028900D01*
X043650D01*
X043583Y028967D01*
Y029233D01*
X043650Y029300D01*
X043850D01*
X043450Y028900D02*
X043317D01*
X043383D01*
Y029300D01*
X043450Y029233D01*
X043117D02*
X043050Y029300D01*
X042917D01*
X042850Y029233D01*
Y029167D01*
X042917Y029100D01*
X042984D01*
X042917D01*
X042850Y029033D01*
Y028967D01*
X042917Y028900D01*
X043050D01*
X043117Y028967D01*
X043850Y032550D02*
Y032150D01*
X043650D01*
X043583Y032217D01*
Y032483D01*
X043650Y032550D01*
X043850D01*
X043450Y032150D02*
X043317D01*
X043383D01*
Y032550D01*
X043450Y032483D01*
X042917Y032150D02*
Y032550D01*
X043117Y032350D01*
X042850D01*
X039150Y032600D02*
Y032200D01*
X038950D01*
X038883Y032267D01*
Y032533D01*
X038950Y032600D01*
X039150D01*
X038750Y032200D02*
X038617D01*
X038683D01*
Y032600D01*
X038750Y032533D01*
X038150Y032600D02*
X038417D01*
Y032400D01*
X038284Y032467D01*
X038217D01*
X038150Y032400D01*
Y032267D01*
X038217Y032200D01*
X038350D01*
X038417Y032267D01*
X034450Y032600D02*
Y032200D01*
X034250D01*
X034183Y032267D01*
Y032533D01*
X034250Y032600D01*
X034450D01*
X034050Y032200D02*
X033917D01*
X033983D01*
Y032600D01*
X034050Y032533D01*
X033450Y032600D02*
X033584Y032533D01*
X033717Y032400D01*
Y032267D01*
X033650Y032200D01*
X033517D01*
X033450Y032267D01*
Y032333D01*
X033517Y032400D01*
X033717D01*
X050520Y028470D02*
Y028870D01*
X050620Y028970D01*
X050820D01*
X050920Y028870D01*
Y028470D01*
X050820Y028370D01*
X050620D01*
X050720Y028570D02*
X050520Y028370D01*
X050620D02*
X050520Y028470D01*
X050320Y028370D02*
X050120D01*
X050220D01*
Y028970D01*
X050320Y028870D01*
X049420Y028970D02*
X049820D01*
Y028670D01*
X049620Y028770D01*
X049520D01*
X049420Y028670D01*
Y028470D01*
X049520Y028370D01*
X049720D01*
X049820Y028470D01*
X053120D02*
Y028870D01*
X053220Y028970D01*
X053420D01*
X053520Y028870D01*
Y028470D01*
X053420Y028370D01*
X053220D01*
X053320Y028570D02*
X053120Y028370D01*
X053220D02*
X053120Y028470D01*
X052920Y028370D02*
X052720D01*
X052820D01*
Y028970D01*
X052920Y028870D01*
X052020Y028970D02*
X052220Y028870D01*
X052420Y028670D01*
Y028470D01*
X052320Y028370D01*
X052120D01*
X052020Y028470D01*
Y028570D01*
X052120Y028670D01*
X052420D01*
X020650Y026950D02*
X020250D01*
Y026750D01*
X020317Y026683D01*
X020450D01*
X020517Y026750D01*
Y026950D01*
Y026817D02*
X020650Y026683D01*
Y026550D02*
Y026417D01*
Y026483D01*
X020250D01*
X020317Y026550D01*
X019950Y026950D02*
X019550D01*
Y026750D01*
X019617Y026683D01*
X019750D01*
X019817Y026750D01*
Y026950D01*
Y026817D02*
X019950Y026683D01*
Y026284D02*
Y026550D01*
X019683Y026284D01*
X019617D01*
X019550Y026350D01*
Y026483D01*
X019617Y026550D01*
X019250Y026950D02*
X018850D01*
Y026750D01*
X018917Y026683D01*
X019050D01*
X019117Y026750D01*
Y026950D01*
Y026817D02*
X019250Y026683D01*
X018917Y026550D02*
X018850Y026483D01*
Y026350D01*
X018917Y026284D01*
X018983D01*
X019050Y026350D01*
Y026417D01*
Y026350D01*
X019117Y026284D01*
X019183D01*
X019250Y026350D01*
Y026483D01*
X019183Y026550D01*
X023500Y026950D02*
X023100D01*
Y026750D01*
X023167Y026683D01*
X023300D01*
X023367Y026750D01*
Y026950D01*
Y026817D02*
X023500Y026683D01*
Y026350D02*
X023100D01*
X023300Y026550D01*
Y026284D01*
X033400Y017300D02*
Y017700D01*
X033200D01*
X033133Y017633D01*
Y017500D01*
X033200Y017433D01*
X033400D01*
X033267D02*
X033133Y017300D01*
X032734Y017700D02*
X032867Y017633D01*
X033000Y017500D01*
Y017367D01*
X032933Y017300D01*
X032800D01*
X032734Y017367D01*
Y017433D01*
X032800Y017500D01*
X033000D01*
X020000Y030150D02*
X019600D01*
Y029950D01*
X019667Y029883D01*
X019800D01*
X019867Y029950D01*
Y030150D01*
Y030017D02*
X020000Y029883D01*
X019667Y029750D02*
X019600Y029683D01*
Y029550D01*
X019667Y029484D01*
X019733D01*
X019800Y029550D01*
X019867Y029484D01*
X019933D01*
X020000Y029550D01*
Y029683D01*
X019933Y029750D01*
X019867D01*
X019800Y029683D01*
X019733Y029750D01*
X019667D01*
X019800Y029683D02*
Y029550D01*
X021200Y030150D02*
X020800D01*
Y029950D01*
X020867Y029883D01*
X021000D01*
X021067Y029950D01*
Y030150D01*
Y030017D02*
X021200Y029883D01*
X021133Y029750D02*
X021200Y029683D01*
Y029550D01*
X021133Y029484D01*
X020867D01*
X020800Y029550D01*
Y029683D01*
X020867Y029750D01*
X020933D01*
X021000Y029683D01*
Y029484D01*
X018950Y024800D02*
X018550D01*
Y024600D01*
X018617Y024533D01*
X018750D01*
X018817Y024600D01*
Y024800D01*
Y024667D02*
X018950Y024533D01*
Y024400D02*
Y024267D01*
Y024333D01*
X018550D01*
X018617Y024400D01*
Y024067D02*
X018550Y024000D01*
Y023867D01*
X018617Y023800D01*
X018883D01*
X018950Y023867D01*
Y024000D01*
X018883Y024067D01*
X018617D01*
X021350Y026950D02*
X020950D01*
Y026750D01*
X021017Y026683D01*
X021150D01*
X021217Y026750D01*
Y026950D01*
Y026817D02*
X021350Y026683D01*
Y026550D02*
Y026417D01*
Y026483D01*
X020950D01*
X021017Y026550D01*
X021350Y026217D02*
Y026084D01*
Y026150D01*
X020950D01*
X021017Y026217D01*
X022750Y026950D02*
X022350D01*
Y026750D01*
X022417Y026683D01*
X022550D01*
X022617Y026750D01*
Y026950D01*
Y026817D02*
X022750Y026683D01*
Y026550D02*
Y026417D01*
Y026483D01*
X022350D01*
X022417Y026550D01*
X022750Y025950D02*
Y026217D01*
X022483Y025950D01*
X022417D01*
X022350Y026017D01*
Y026150D01*
X022417Y026217D01*
X022050Y026950D02*
X021650D01*
Y026750D01*
X021717Y026683D01*
X021850D01*
X021917Y026750D01*
Y026950D01*
Y026817D02*
X022050Y026683D01*
Y026550D02*
Y026417D01*
Y026483D01*
X021650D01*
X021717Y026550D01*
Y026217D02*
X021650Y026150D01*
Y026017D01*
X021717Y025950D01*
X021783D01*
X021850Y026017D01*
Y026084D01*
Y026017D01*
X021917Y025950D01*
X021983D01*
X022050Y026017D01*
Y026150D01*
X021983Y026217D01*
X025250Y022800D02*
Y023200D01*
X025050D01*
X024983Y023133D01*
Y023000D01*
X025050Y022933D01*
X025250D01*
X025117D02*
X024983Y022800D01*
X024850D02*
X024717D01*
X024783D01*
Y023200D01*
X024850Y023133D01*
X024317Y022800D02*
Y023200D01*
X024517Y023000D01*
X024250D01*
X023350Y024350D02*
X022950D01*
Y024150D01*
X023017Y024083D01*
X023150D01*
X023217Y024150D01*
Y024350D01*
Y024217D02*
X023350Y024083D01*
Y023950D02*
Y023817D01*
Y023883D01*
X022950D01*
X023017Y023950D01*
X022950Y023350D02*
Y023617D01*
X023150D01*
X023083Y023484D01*
Y023417D01*
X023150Y023350D01*
X023283D01*
X023350Y023417D01*
Y023550D01*
X023283Y023617D01*
X030000Y022950D02*
Y023350D01*
X029800D01*
X029733Y023283D01*
Y023150D01*
X029800Y023083D01*
X030000D01*
X029867D02*
X029733Y022950D01*
X029600D02*
X029467D01*
X029533D01*
Y023350D01*
X029600Y023283D01*
X029000Y023350D02*
X029134Y023283D01*
X029267Y023150D01*
Y023017D01*
X029200Y022950D01*
X029067D01*
X029000Y023017D01*
Y023083D01*
X029067Y023150D01*
X029267D01*
X028650Y024650D02*
Y025050D01*
X028450D01*
X028383Y024983D01*
Y024850D01*
X028450Y024783D01*
X028650D01*
X028517D02*
X028383Y024650D01*
X028250D02*
X028117D01*
X028183D01*
Y025050D01*
X028250Y024983D01*
X027917Y025050D02*
X027650D01*
Y024983D01*
X027917Y024717D01*
Y024650D01*
X034700Y022950D02*
Y023350D01*
X034500D01*
X034433Y023283D01*
Y023150D01*
X034500Y023083D01*
X034700D01*
X034567D02*
X034433Y022950D01*
X034300D02*
X034167D01*
X034233D01*
Y023350D01*
X034300Y023283D01*
X033967D02*
X033900Y023350D01*
X033767D01*
X033700Y023283D01*
Y023217D01*
X033767Y023150D01*
X033700Y023083D01*
Y023017D01*
X033767Y022950D01*
X033900D01*
X033967Y023017D01*
Y023083D01*
X033900Y023150D01*
X033967Y023217D01*
Y023283D01*
X033900Y023150D02*
X033767D01*
X033350Y024650D02*
Y025050D01*
X033150D01*
X033083Y024983D01*
Y024850D01*
X033150Y024783D01*
X033350D01*
X033217D02*
X033083Y024650D01*
X032950D02*
X032817D01*
X032883D01*
Y025050D01*
X032950Y024983D01*
X032617Y024717D02*
X032550Y024650D01*
X032417D01*
X032350Y024717D01*
Y024983D01*
X032417Y025050D01*
X032550D01*
X032617Y024983D01*
Y024917D01*
X032550Y024850D01*
X032350D01*
X039500Y023050D02*
Y023450D01*
X039300D01*
X039233Y023383D01*
Y023250D01*
X039300Y023183D01*
X039500D01*
X039367D02*
X039233Y023050D01*
X038834D02*
X039100D01*
X038834Y023317D01*
Y023383D01*
X038900Y023450D01*
X039033D01*
X039100Y023383D01*
X038700D02*
X038634Y023450D01*
X038500D01*
X038434Y023383D01*
Y023117D01*
X038500Y023050D01*
X038634D01*
X038700Y023117D01*
Y023383D01*
X038200Y024750D02*
Y025150D01*
X038000D01*
X037933Y025083D01*
Y024950D01*
X038000Y024883D01*
X038200D01*
X038067D02*
X037933Y024750D01*
X037534D02*
X037800D01*
X037534Y025017D01*
Y025083D01*
X037600Y025150D01*
X037733D01*
X037800Y025083D01*
X037400Y024750D02*
X037267D01*
X037334D01*
Y025150D01*
X037400Y025083D01*
X044250Y023050D02*
Y023450D01*
X044050D01*
X043983Y023383D01*
Y023250D01*
X044050Y023183D01*
X044250D01*
X044117D02*
X043983Y023050D01*
X043584D02*
X043850D01*
X043584Y023317D01*
Y023383D01*
X043650Y023450D01*
X043783D01*
X043850Y023383D01*
X043184Y023050D02*
X043450D01*
X043184Y023317D01*
Y023383D01*
X043250Y023450D01*
X043384D01*
X043450Y023383D01*
X042900Y024750D02*
Y025150D01*
X042700D01*
X042633Y025083D01*
Y024950D01*
X042700Y024883D01*
X042900D01*
X042767D02*
X042633Y024750D01*
X042234D02*
X042500D01*
X042234Y025017D01*
Y025083D01*
X042300Y025150D01*
X042433D01*
X042500Y025083D01*
X042100D02*
X042034Y025150D01*
X041900D01*
X041834Y025083D01*
Y025017D01*
X041900Y024950D01*
X041967D01*
X041900D01*
X041834Y024883D01*
Y024817D01*
X041900Y024750D01*
X042034D01*
X042100Y024817D01*
X030050Y027100D02*
Y027500D01*
X029850D01*
X029783Y027433D01*
Y027300D01*
X029850Y027233D01*
X030050D01*
X029917D02*
X029783Y027100D01*
X029384D02*
X029650D01*
X029384Y027367D01*
Y027433D01*
X029450Y027500D01*
X029583D01*
X029650Y027433D01*
X029050Y027100D02*
Y027500D01*
X029250Y027300D01*
X028984D01*
X028100Y028550D02*
X027700D01*
Y028350D01*
X027767Y028283D01*
X027900D01*
X027967Y028350D01*
Y028550D01*
Y028417D02*
X028100Y028283D01*
Y027884D02*
Y028150D01*
X027833Y027884D01*
X027767D01*
X027700Y027950D01*
Y028083D01*
X027767Y028150D01*
X027700Y027484D02*
Y027750D01*
X027900D01*
X027833Y027617D01*
Y027550D01*
X027900Y027484D01*
X028033D01*
X028100Y027550D01*
Y027684D01*
X028033Y027750D01*
X034800Y027100D02*
Y027500D01*
X034600D01*
X034533Y027433D01*
Y027300D01*
X034600Y027233D01*
X034800D01*
X034667D02*
X034533Y027100D01*
X034134D02*
X034400D01*
X034134Y027367D01*
Y027433D01*
X034200Y027500D01*
X034333D01*
X034400Y027433D01*
X033734Y027500D02*
X033867Y027433D01*
X034000Y027300D01*
Y027167D01*
X033934Y027100D01*
X033800D01*
X033734Y027167D01*
Y027233D01*
X033800Y027300D01*
X034000D01*
X033250Y028800D02*
Y029200D01*
X033050D01*
X032983Y029133D01*
Y029000D01*
X033050Y028933D01*
X033250D01*
X033117D02*
X032983Y028800D01*
X032584D02*
X032850D01*
X032584Y029067D01*
Y029133D01*
X032650Y029200D01*
X032783D01*
X032850Y029133D01*
X032450Y029200D02*
X032184D01*
Y029133D01*
X032450Y028867D01*
Y028800D01*
X039550Y027150D02*
Y027550D01*
X039350D01*
X039283Y027483D01*
Y027350D01*
X039350Y027283D01*
X039550D01*
X039417D02*
X039283Y027150D01*
X038884D02*
X039150D01*
X038884Y027417D01*
Y027483D01*
X038950Y027550D01*
X039083D01*
X039150Y027483D01*
X038750D02*
X038684Y027550D01*
X038550D01*
X038484Y027483D01*
Y027417D01*
X038550Y027350D01*
X038484Y027283D01*
Y027217D01*
X038550Y027150D01*
X038684D01*
X038750Y027217D01*
Y027283D01*
X038684Y027350D01*
X038750Y027417D01*
Y027483D01*
X038684Y027350D02*
X038550D01*
X037850Y028800D02*
Y029200D01*
X037650D01*
X037583Y029133D01*
Y029000D01*
X037650Y028933D01*
X037850D01*
X037717D02*
X037583Y028800D01*
X037184D02*
X037450D01*
X037184Y029067D01*
Y029133D01*
X037250Y029200D01*
X037383D01*
X037450Y029133D01*
X037050Y028867D02*
X036984Y028800D01*
X036850D01*
X036784Y028867D01*
Y029133D01*
X036850Y029200D01*
X036984D01*
X037050Y029133D01*
Y029067D01*
X036984Y029000D01*
X036784D01*
X044250Y027100D02*
Y027500D01*
X044050D01*
X043983Y027433D01*
Y027300D01*
X044050Y027233D01*
X044250D01*
X044117D02*
X043983Y027100D01*
X043850Y027433D02*
X043783Y027500D01*
X043650D01*
X043584Y027433D01*
Y027367D01*
X043650Y027300D01*
X043717D01*
X043650D01*
X043584Y027233D01*
Y027167D01*
X043650Y027100D01*
X043783D01*
X043850Y027167D01*
X043450Y027433D02*
X043384Y027500D01*
X043250D01*
X043184Y027433D01*
Y027167D01*
X043250Y027100D01*
X043384D01*
X043450Y027167D01*
Y027433D01*
X042600Y028800D02*
Y029200D01*
X042400D01*
X042333Y029133D01*
Y029000D01*
X042400Y028933D01*
X042600D01*
X042467D02*
X042333Y028800D01*
X042200Y029133D02*
X042133Y029200D01*
X042000D01*
X041934Y029133D01*
Y029067D01*
X042000Y029000D01*
X042067D01*
X042000D01*
X041934Y028933D01*
Y028867D01*
X042000Y028800D01*
X042133D01*
X042200Y028867D01*
X041800Y028800D02*
X041667D01*
X041734D01*
Y029200D01*
X041800Y029133D01*
X044250Y030350D02*
Y030750D01*
X044050D01*
X043983Y030683D01*
Y030550D01*
X044050Y030483D01*
X044250D01*
X044117D02*
X043983Y030350D01*
X043850Y030683D02*
X043783Y030750D01*
X043650D01*
X043584Y030683D01*
Y030617D01*
X043650Y030550D01*
X043717D01*
X043650D01*
X043584Y030483D01*
Y030417D01*
X043650Y030350D01*
X043783D01*
X043850Y030417D01*
X043184Y030350D02*
X043450D01*
X043184Y030617D01*
Y030683D01*
X043250Y030750D01*
X043384D01*
X043450Y030683D01*
X042250Y031850D02*
X041850D01*
Y031650D01*
X041917Y031583D01*
X042050D01*
X042117Y031650D01*
Y031850D01*
Y031717D02*
X042250Y031583D01*
X041917Y031450D02*
X041850Y031383D01*
Y031250D01*
X041917Y031184D01*
X041983D01*
X042050Y031250D01*
Y031317D01*
Y031250D01*
X042117Y031184D01*
X042183D01*
X042250Y031250D01*
Y031383D01*
X042183Y031450D01*
X041917Y031050D02*
X041850Y030984D01*
Y030850D01*
X041917Y030784D01*
X041983D01*
X042050Y030850D01*
Y030917D01*
Y030850D01*
X042117Y030784D01*
X042183D01*
X042250Y030850D01*
Y030984D01*
X042183Y031050D01*
X039600Y030350D02*
Y030750D01*
X039400D01*
X039333Y030683D01*
Y030550D01*
X039400Y030483D01*
X039600D01*
X039467D02*
X039333Y030350D01*
X039200Y030683D02*
X039133Y030750D01*
X039000D01*
X038934Y030683D01*
Y030617D01*
X039000Y030550D01*
X039067D01*
X039000D01*
X038934Y030483D01*
Y030417D01*
X039000Y030350D01*
X039133D01*
X039200Y030417D01*
X038600Y030350D02*
Y030750D01*
X038800Y030550D01*
X038534D01*
X037600Y031900D02*
X037200D01*
Y031700D01*
X037267Y031633D01*
X037400D01*
X037467Y031700D01*
Y031900D01*
Y031767D02*
X037600Y031633D01*
X037267Y031500D02*
X037200Y031433D01*
Y031300D01*
X037267Y031234D01*
X037333D01*
X037400Y031300D01*
Y031367D01*
Y031300D01*
X037467Y031234D01*
X037533D01*
X037600Y031300D01*
Y031433D01*
X037533Y031500D01*
X037200Y030834D02*
Y031100D01*
X037400D01*
X037333Y030967D01*
Y030900D01*
X037400Y030834D01*
X037533D01*
X037600Y030900D01*
Y031034D01*
X037533Y031100D01*
X034850Y030350D02*
Y030750D01*
X034650D01*
X034583Y030683D01*
Y030550D01*
X034650Y030483D01*
X034850D01*
X034717D02*
X034583Y030350D01*
X034450Y030683D02*
X034383Y030750D01*
X034250D01*
X034184Y030683D01*
Y030617D01*
X034250Y030550D01*
X034317D01*
X034250D01*
X034184Y030483D01*
Y030417D01*
X034250Y030350D01*
X034383D01*
X034450Y030417D01*
X033784Y030750D02*
X033917Y030683D01*
X034050Y030550D01*
Y030417D01*
X033984Y030350D01*
X033850D01*
X033784Y030417D01*
Y030483D01*
X033850Y030550D01*
X034050D01*
X051200Y012000D02*
Y012600D01*
X050900D01*
X050800Y012500D01*
Y012300D01*
X050900Y012200D01*
X051200D01*
X051000D02*
X050800Y012000D01*
X050200Y012600D02*
X050600D01*
Y012300D01*
X050400Y012400D01*
X050300D01*
X050200Y012300D01*
Y012100D01*
X050300Y012000D01*
X050500D01*
X050600Y012100D01*
X049700Y012000D02*
Y012600D01*
X050000Y012300D01*
X049601D01*
X051200Y013200D02*
Y013800D01*
X050900D01*
X050800Y013700D01*
Y013500D01*
X050900Y013400D01*
X051200D01*
X051000D02*
X050800Y013200D01*
X050200Y013800D02*
X050600D01*
Y013500D01*
X050400Y013600D01*
X050300D01*
X050200Y013500D01*
Y013300D01*
X050300Y013200D01*
X050500D01*
X050600Y013300D01*
X049601Y013800D02*
X050000D01*
Y013500D01*
X049800Y013600D01*
X049700D01*
X049601Y013500D01*
Y013300D01*
X049700Y013200D01*
X049900D01*
X050000Y013300D01*
X046900Y013050D02*
Y013450D01*
X046700D01*
X046633Y013383D01*
Y013250D01*
X046700Y013183D01*
X046900D01*
X046767D02*
X046633Y013050D01*
X046234Y013450D02*
X046500D01*
Y013250D01*
X046367Y013317D01*
X046300D01*
X046234Y013250D01*
Y013117D01*
X046300Y013050D01*
X046433D01*
X046500Y013117D01*
X046100Y013450D02*
X045834D01*
Y013383D01*
X046100Y013117D01*
Y013050D01*
X026250Y020100D02*
Y020500D01*
X026050D01*
X025983Y020433D01*
Y020300D01*
X026050Y020233D01*
X026250D01*
X026117D02*
X025983Y020100D01*
X025584Y020500D02*
X025717Y020433D01*
X025850Y020300D01*
Y020167D01*
X025783Y020100D01*
X025650D01*
X025584Y020167D01*
Y020233D01*
X025650Y020300D01*
X025850D01*
X025450Y020433D02*
X025384Y020500D01*
X025250D01*
X025184Y020433D01*
Y020367D01*
X025250Y020300D01*
X025317D01*
X025250D01*
X025184Y020233D01*
Y020167D01*
X025250Y020100D01*
X025384D01*
X025450Y020167D01*
X066783Y016917D02*
Y017183D01*
X066850Y017250D01*
X066983D01*
X067050Y017183D01*
Y016917D01*
X066983Y016850D01*
X066850D01*
X066917Y016983D02*
X066783Y016850D01*
X066850D02*
X066783Y016917D01*
X066384Y016850D02*
X066650D01*
X066384Y017117D01*
Y017183D01*
X066450Y017250D01*
X066583D01*
X066650Y017183D01*
X066250D02*
X066184Y017250D01*
X066050D01*
X065984Y017183D01*
Y017117D01*
X066050Y017050D01*
X066117D01*
X066050D01*
X065984Y016983D01*
Y016917D01*
X066050Y016850D01*
X066184D01*
X066250Y016917D01*
X065650Y014050D02*
X065250D01*
Y013850D01*
X065317Y013783D01*
X065450D01*
X065517Y013850D01*
Y014050D01*
Y013917D02*
X065650Y013783D01*
X065250Y013650D02*
Y013384D01*
X065317D01*
X065583Y013650D01*
X065650D01*
Y013250D02*
Y013117D01*
Y013184D01*
X065250D01*
X065317Y013250D01*
D71*
X032088Y021280D02*
G03*
X032088Y021280I-000049J000000D01*
G01*
X040521Y016135D02*
G03*
X040521Y016135I-000049J000000D01*
G01*
X034688Y028830D02*
G03*
X034688Y028830I-000049J000000D01*
G01*
X039388D02*
G03*
X039388Y028830I-000049J000000D01*
G01*
X044161Y028844D02*
G03*
X044161Y028844I-000049J000000D01*
G01*
Y032094D02*
G03*
X044161Y032094I-000049J000000D01*
G01*
X039461D02*
G03*
X039461Y032094I-000049J000000D01*
G01*
X034761D02*
G03*
X034761Y032094I-000049J000000D01*
G01*
X020306Y023893D02*
G03*
X020306Y023893I-000049J000000D01*
G01*
X025238Y024580D02*
G03*
X025238Y024580I-000049J000000D01*
G01*
X044138Y024780D02*
G03*
X044138Y024780I-000049J000000D01*
G01*
X050799Y026400D02*
G03*
X050799Y026400I-000049J000000D01*
G01*
X053399D02*
G03*
X053399Y026400I-000049J000000D01*
G01*
X029938Y028830D02*
G03*
X029938Y028830I-000049J000000D01*
G01*
Y024680D02*
G03*
X029938Y024680I-000049J000000D01*
G01*
X034638D02*
G03*
X034638Y024680I-000049J000000D01*
G01*
X039388Y024780D02*
G03*
X039388Y024780I-000049J000000D01*
G01*
D73*
X066270Y016415D02*
Y016651D01*
X066589D01*
X066270Y015540D02*
Y015780D01*
Y015540D02*
X066589D01*
D74*
X039645Y015715D02*
G03*
X039645Y015715I-000118J000000D01*
G01*
D75*
X033115Y031394D02*
Y031434D01*
X033430Y031394D02*
Y031434D01*
X031443Y020634D02*
Y021166D01*
X031757Y020634D02*
Y021166D01*
X031443Y020634D02*
X031757D01*
X031443Y021166D02*
X031757D01*
X039920Y010991D02*
Y016109D01*
X037480Y010991D02*
Y016109D01*
X039920D01*
X037480Y010991D02*
X039920D01*
X028293Y028130D02*
Y028170D01*
X028607Y028130D02*
Y028170D01*
X029430Y027693D02*
X029470D01*
X029430Y028007D02*
X029470D01*
X033043Y028130D02*
Y028170D01*
X033357Y028130D02*
Y028170D01*
X034043Y028716D02*
X034357D01*
X034043Y028184D02*
X034357D01*
Y028716D01*
X034043Y028184D02*
Y028716D01*
X037743Y028130D02*
Y028170D01*
X038057Y028130D02*
Y028170D01*
X038743Y028716D02*
X039057D01*
X038743Y028184D02*
X039057D01*
Y028716D01*
X038743Y028184D02*
Y028716D01*
X038880Y027693D02*
X038920D01*
X038880Y028007D02*
X038920D01*
X040177Y028130D02*
Y028170D01*
X039823Y028130D02*
Y028170D01*
X042515Y028144D02*
Y028184D01*
X042830Y028144D02*
Y028184D01*
X043515Y028730D02*
X043830D01*
X043515Y028198D02*
X043830D01*
Y028730D01*
X043515Y028198D02*
Y028730D01*
X044950Y028244D02*
Y028284D01*
X044596Y028244D02*
Y028284D01*
X043653Y027707D02*
X043693D01*
X043653Y028022D02*
X043693D01*
X047480Y013762D02*
X047520D01*
X047480Y014038D02*
X047520D01*
X045838Y015880D02*
Y015920D01*
X045562Y015880D02*
Y015920D01*
X048238Y014980D02*
Y015020D01*
X047962Y014980D02*
Y015020D01*
X046477Y018038D02*
X046516D01*
X046477Y017762D02*
X046516D01*
X044038Y014368D02*
Y014407D01*
X043762Y014368D02*
Y014407D01*
X046502Y018976D02*
X046542D01*
X046502Y018524D02*
X046542D01*
X045126Y014318D02*
Y014357D01*
X044674Y014318D02*
Y014357D01*
X051583Y017855D02*
X052017D01*
X051583Y018445D02*
X052017D01*
X055029Y025846D02*
X056171D01*
X055029Y027854D02*
X056171D01*
X055029Y023246D02*
X056171D01*
X055029Y025254D02*
X056171D01*
X055029Y020646D02*
X056171D01*
X055029Y022654D02*
X056171D01*
X055029Y018146D02*
X056171D01*
X055029Y020154D02*
X056171D01*
X048962Y012280D02*
Y012320D01*
X049238Y012280D02*
Y012320D01*
X048962Y013480D02*
Y013520D01*
X049238Y013480D02*
Y013520D01*
X047480Y013438D02*
X047520D01*
X047480Y013162D02*
X047520D01*
X065850Y012813D02*
Y014387D01*
X067050Y012813D02*
Y014387D01*
X030030Y013543D02*
X030070D01*
X030030Y013857D02*
X030070D01*
X020843Y020180D02*
Y020220D01*
X021157Y020180D02*
Y020220D01*
X032962Y016680D02*
Y016720D01*
X033238Y016680D02*
Y016720D01*
X042515Y031394D02*
Y031434D01*
X042830Y031394D02*
Y031434D01*
X043515Y031980D02*
X043830D01*
X043515Y031448D02*
X043830D01*
Y031980D01*
X043515Y031448D02*
Y031980D01*
X044950Y031394D02*
Y031434D01*
X044596Y031394D02*
Y031434D01*
X043653Y030957D02*
X043693D01*
X043653Y031272D02*
X043693D01*
X037815Y031394D02*
Y031434D01*
X038130Y031394D02*
Y031434D01*
X038815Y031980D02*
X039130D01*
X038815Y031448D02*
X039130D01*
Y031980D01*
X038815Y031448D02*
Y031980D01*
X040250Y031394D02*
Y031434D01*
X039896Y031394D02*
Y031434D01*
X038953Y030957D02*
X038993D01*
X038953Y031272D02*
X038993D01*
X034115Y031980D02*
X034430D01*
X034115Y031448D02*
X034430D01*
Y031980D01*
X034115Y031448D02*
Y031980D01*
X035550Y031394D02*
Y031434D01*
X035196Y031394D02*
Y031434D01*
X034253Y030957D02*
X034293D01*
X034253Y031272D02*
X034293D01*
X021643Y020180D02*
Y020220D01*
X021957Y020180D02*
Y020220D01*
X023243Y020180D02*
Y020220D01*
X023557Y020180D02*
Y020220D01*
X022443Y020180D02*
Y020220D01*
X022757Y020180D02*
Y020220D01*
X046936Y014765D02*
Y015435D01*
X046464Y014765D02*
Y015435D01*
X025680Y021038D02*
X025720D01*
X025680Y020762D02*
X025720D01*
X020593Y024035D02*
Y024665D01*
Y024035D02*
X021207D01*
X020593Y024665D02*
X021207D01*
Y024035D02*
Y024665D01*
X026027Y023880D02*
Y023920D01*
X025673Y023880D02*
Y023920D01*
X024730Y023443D02*
X024770D01*
X024730Y023757D02*
X024770D01*
X024593Y024466D02*
X024907D01*
X024593Y023934D02*
X024907D01*
Y024466D01*
X024593Y023934D02*
Y024466D01*
X030727Y023980D02*
Y024020D01*
X030373Y023980D02*
Y024020D01*
X029430Y023543D02*
X029470D01*
X029430Y023857D02*
X029470D01*
X044927Y024080D02*
Y024120D01*
X044573Y024080D02*
Y024120D01*
X042493Y024080D02*
Y024120D01*
X042807Y024080D02*
Y024120D01*
X043493Y024666D02*
X043807D01*
X043493Y024134D02*
X043807D01*
Y024666D01*
X043493Y024134D02*
Y024666D01*
X043630Y023643D02*
X043670D01*
X043630Y023957D02*
X043670D01*
X030727Y028130D02*
Y028170D01*
X030373Y028130D02*
Y028170D01*
X035477Y028130D02*
Y028170D01*
X035123Y028130D02*
Y028170D01*
X034180Y027693D02*
X034220D01*
X034180Y028007D02*
X034220D01*
X049016Y026170D02*
X050984D01*
X049016Y027430D02*
X050984D01*
Y026170D02*
Y027430D01*
X049016Y026170D02*
Y027430D01*
X051616Y026170D02*
X053584D01*
X051616Y027430D02*
X053584D01*
Y026170D02*
Y027430D01*
X051616Y026170D02*
Y027430D01*
X029293Y028716D02*
X029607D01*
X029293Y028184D02*
X029607D01*
Y028716D01*
X029293Y028184D02*
Y028716D01*
X019162Y023080D02*
Y023120D01*
X019438Y023080D02*
Y023120D01*
Y024280D02*
Y024320D01*
X019162Y024280D02*
Y024320D01*
X023593Y023880D02*
Y023920D01*
X023907Y023880D02*
Y023920D01*
X029293Y024566D02*
X029607D01*
X029293Y024034D02*
X029607D01*
Y024566D01*
X029293Y024034D02*
Y024566D01*
X028293Y023980D02*
Y024020D01*
X028607Y023980D02*
Y024020D01*
X034130Y023543D02*
X034170D01*
X034130Y023857D02*
X034170D01*
X035427Y023980D02*
Y024020D01*
X035073Y023980D02*
Y024020D01*
X033993Y024566D02*
X034307D01*
X033993Y024034D02*
X034307D01*
Y024566D01*
X033993Y024034D02*
Y024566D01*
X032993Y023980D02*
Y024020D01*
X033307Y023980D02*
Y024020D01*
X040177Y024080D02*
Y024120D01*
X039823Y024080D02*
Y024120D01*
X038743Y024666D02*
X039057D01*
X038743Y024134D02*
X039057D01*
Y024666D01*
X038743Y024134D02*
Y024666D01*
X037743Y024080D02*
Y024120D01*
X038057Y024080D02*
Y024120D01*
X038880Y023643D02*
X038920D01*
X038880Y023957D02*
X038920D01*
X023112Y027530D02*
Y027570D01*
X023388Y027530D02*
Y027570D01*
X022638Y027530D02*
Y027570D01*
X022362Y027530D02*
Y027570D01*
X021938Y027530D02*
Y027570D01*
X021662Y027530D02*
Y027570D01*
X021238Y027530D02*
Y027570D01*
X020962Y027530D02*
Y027570D01*
X020538Y027530D02*
Y027570D01*
X020262Y027530D02*
Y027570D01*
X019838Y027530D02*
Y027570D01*
X019562Y027530D02*
Y027570D01*
X019138Y027555D02*
Y027594D01*
X018862Y027555D02*
Y027594D01*
X023093Y028830D02*
Y028870D01*
X023407Y028830D02*
Y028870D01*
X022393Y028830D02*
Y028870D01*
X022707Y028830D02*
Y028870D01*
X021543Y028815D02*
Y028855D01*
X021857Y028815D02*
Y028855D01*
X021057Y028815D02*
Y028855D01*
X020743Y028815D02*
Y028855D01*
X020207Y028815D02*
Y028855D01*
X019893Y028815D02*
Y028855D01*
X019093Y028815D02*
Y028855D01*
X019407Y028815D02*
Y028855D01*
D136*
X046999Y015800D02*
G03*
X046999Y015800I-000020J000000D01*
G01*
M02*
