M48
;Layer_Color=9474304
;FILE_FORMAT=2:4
INCH
;TYPE=PLATED
T1F00S00C0.0100
T2F00S00C0.0315
T3F00S00C0.0394
T4F00S00C0.0787
T5F00S00C0.1220
%
T01
X078900Y054850
Y055150
X079200
X079500
Y054850
X079200
Y056550
Y056850
Y057150
Y057450
Y057750
Y058050
X078900
Y057750
X078600
Y057450
Y057150
Y056850
Y056550
X078900
Y056850
Y057150
Y057450
X079500Y056850
Y056550
X079950Y058300
X080200Y058999
X080200Y059300
X079900
X079600
Y059600
X079300
Y059900
X079000
Y059600
Y059300
Y059000
X079300
Y059300
X079900Y059750
X080200
Y060050
X079900
X079600
Y060350
X079300
Y060650
X079600
X079900
Y060350
X080200
Y060650
X080100Y061700
X079800
X080400
X080700
X081350Y061950
X081600
X081850
X082100
X082350
X082600
X082850
X083100
X083350
X083600
Y062200
X083350
X083100
X082850
X082600
X082350
X082100
X081850
X081600
X081350
Y062450
X081600
X081850
X082100
X082350
X082600
X082850
X083100
X083350
X083600
X083200Y060900
Y060650
X082950
Y060400
X083200
X082700
Y059200
Y058950
X082950
X083200
Y058700
X082950
X082700
X082450
Y058950
Y059200
Y058450
Y058200
X082700
Y058450
X082950
X083760Y058683
X084100Y058850
Y059100
Y059350
X084350
Y059600
Y059850
X084100
Y059600
Y060100
X084350
X084600
Y059850
Y059600
Y059350
Y059100
X084350
Y058850
Y058600
X084600
X084850
X085100
X085350
X085600
X085850
X086100
X086350
Y058850
X086100
X085850
X085600
X085350
Y059100
Y059350
X085600
Y059600
Y059850
X085350
Y059600
X085100
X084850
Y059850
Y060100
X085100
X085350
X085600
X085850
Y059850
Y059600
Y059350
Y059100
X085600
X086100
Y059350
Y059600
Y059850
Y060100
X086350
Y059850
Y059600
Y059350
Y059100
Y058350
X086100
X085850Y057900
X085600
X085350
X085100
Y057650
X084850
X084600
Y057900
X084850
Y057400
X084600
X084350
Y057650
X084100Y057400
Y057150
X084350
Y056900
Y056650
Y056400
X084600
X084850
X085100
X085350
X085600
X085850
Y056650
X085600
X085350
X085100
X084850
X084600
Y056900
Y057150
X084850
X085100
Y057400
X085350
Y057150
Y056900
X085100
X084850
X085600
Y057150
Y057400
Y057650
X085350
X085850
Y057400
Y057150
Y056900
Y055200
X085600
Y054950
X085350
Y054700
Y054450
Y054200
X085600
X085850
X086100
X086350
Y054450
X086100
X085850
X085600
Y054700
X085850
Y054950
X086100
Y055200
X086350
Y054950
Y054700
X086100
X085100
X084850
X084600
X084350
X084100
Y054450
Y054200
X084350
X084600
X084850
X085100
Y054450
X084850
X084600
X084350
Y054950
X084100
Y055200
X084350
X084600
Y054950
X084850
Y055200
X085100
X085350
X085100Y054950
X083600
Y054700
Y054450
Y054200
X083350
Y054450
Y054700
Y054950
Y055200
X083600
X083100
Y054950
Y054700
Y054450
X082850
Y054700
Y054950
Y055200
X082600
X082350
X082100
Y054950
Y054700
Y054450
X081850
Y054700
Y054950
Y055200
X081600
Y054950
Y054700
Y054450
X081350
Y054700
Y054950
Y055200
X080900Y055300
X080600
X080900Y055000
X081350Y054200
X081600
X081850
X082100
X082350
Y054450
X082600
Y054700
X082350
Y054950
X082600
Y054200
X082850
X083100
X084100Y056400
Y056650
Y056900
X084600Y058850
X084850
Y059100
Y059350
X085100
Y059100
Y058850
X085350Y058177
X085100Y059850
Y060350
X084850
X084600
X084350
X084100
X085350
X085600
X085850
X086100
X086350
X079000Y060200
X078850Y061150
X079300Y061300
Y061550
X078400Y059600
X078650Y058450
X078100Y059600
X077100
X076800
X076500
X076200
X075900
Y059300
X075600
Y059000
X076200Y059300
X076500
X076800
X076700Y058450
Y058227
X076300Y058250
X075200Y058450
X074750Y058600
X073950Y058650
X073550Y058950
X072781Y058969
X072550Y059900
X073050Y060300
X072900Y060927
X073100Y061350
X072450
X072200Y061600
X071900
X071750Y061900
X072000Y062150
X072300Y062100
Y062350
X071200Y062450
X070350Y062200
X069900
X069450Y061700
Y061400
X069100Y061627
X068911Y060700
X069350Y060150
X070100Y060200
X070400
X070700
X070960
X071250
X071411Y059850
X071600Y059600
X071200Y059588
X071400Y059350
X070150Y059050
X069800
X069999Y058018
X071989Y057700
X072311
Y057350
X071989
X072650
X073450
X073450Y057647
X073500Y059950
X073800Y060000
Y059700
X074100
X074400
X074700
X074750Y060150
X074500
X074100Y060000
Y060850
X074400
Y061150
Y061450
X074700
X075000
Y061150
X075300
Y060850
Y060550
X075000Y060850
X074700
Y061150
X074100
Y061450
X076050Y061250
X076400
X076750
X077100
X077700Y061200
Y061500
X072211Y061000
X071889
X071391Y061174
X070400Y061700
X068100Y061027
X068150Y059850
X067850
X067550Y060300
X066900Y059850
X066600
X066300Y060300
X065650Y059850
X065350
X065050Y060300
X064400Y059850
X064100
X063800Y060300
X063150Y059850
X062850
X062550Y060300
X063100Y061027
X064350
X065600
X066850
Y058450
X067100Y058690
X066600Y058200
X066350Y057950
X066050
X064550Y056850
X064250
X063623
X063739Y056561
X063327Y056550
X062697Y056250
X062850Y055900
X062827Y057050
X064650Y056400
X065000Y055850
X065350Y054700
X065650
X066500
X066800
X067100
X067400
Y054400
X067100
X066800
X066500
X064950Y054300
X067100Y055550
Y055850
X067400
X067700
Y055550
X067400
Y056400
X067700
Y056700
X067400
X067100Y056400
X067700Y057000
X068300Y055850
X068600
Y055550
X068300
Y054400
X068600
X077050Y055023
X076200Y056077
Y056430
X061627Y056250
X061700Y055900
X062005Y055545
X061850Y054497
X062177Y054500
X061450
Y054150
X061100
X059150Y054500
Y055350
Y056150
X058100Y055750
X057650Y055650
X057450Y055250
X057900Y055100
X058300Y055000
Y054150
X057900Y056850
X057450Y057850
X058600Y058650
Y059000
X058150Y059850
X057850
X057550Y060300
X056900Y059850
X056600
X056300Y060300
X055650Y059850
X055350
X055050Y060300
X054400Y059850
X054100
X053811Y059700
X053873Y059350
X053800Y060300
X054350Y061027
X055600
X056850
X058100
X059350
X059400Y059850
X059100
X058800Y060300
X060050
X060350Y059850
X060650
X061600
X061900
X061300Y060300
X061850Y061027
X060600
X060528Y057256
X061300Y057050
X059850Y057900
X055700Y058950
X055177Y057100
Y056300
X055500Y055550
X070100Y062550
X069927Y063300
X072250Y063050
X081350Y062950
Y062700
X081600
X081850
X082100
X082350
X082600
X082850
X083100
X083350
X083600
Y062950
X083350
X083100
X082850
X082600
X082350
X082100
X081850
X081600
Y063200
X081350
Y063450
Y063700
X081600
X081850
X082100
X082350
X082600
X082850
X083100
X083350
X083600
Y063450
Y063200
X083350
X083100
X082850
X082600
X082350
X082100
X081850
Y063450
X082100
X082350
X082600
X082850
X083100
X083350
X084600
Y063200
X084850
Y062950
X084600
X085100
Y063200
Y063450
X084850
X081600
T02
X068800Y062206
X057100Y056650
X056313
X056306Y054650
X057094
X054300Y054720
Y055510
Y056300
Y057087
Y057875
X068800Y062994
T03
X062618Y062450
X063603
X064587
X065571
X066556
X061634
X060650
X059666
X058682
X057697
X056713
X055729
X054744
T04
X075145Y062650
T05
X087650Y054750
X052400
Y062950
X087650
M30
