M48
;Layer_Color=9474304
;FILE_FORMAT=2:4
INCH
;TYPE=PLATED
T1F00S00C0.0100
T2F00S00C0.0315
T3F00S00C0.0394
T4F00S00C0.0748
T5F00S00C0.1220
%
T01
X078900Y054850
X079200
X079500
Y055150
X079200
X078900
Y056550
X079200
X079500
Y056850
X079200
X078900
Y057150
X079200
Y057450
X078900
Y057750
X079200
Y058050
X078900
X078600
Y057750
Y057450
Y057150
Y056850
Y056550
X078650Y058450
X079000Y059000
Y059300
Y059600
X079300
Y059300
Y059000
X079600Y059300
Y059600
Y060050
X079900
Y060350
Y060650
X080200
Y060350
Y060050
Y059750
X079900
Y059300
X080200
X080200Y058999
X079950Y058300
X079300Y059900
X079000
Y060200
X079300Y060350
Y060650
X079600
Y060350
X079300Y061300
Y061550
X079800Y061700
X080100
X080400
X080700
X081300Y061950
Y062200
Y062450
X081550
X081800
X082050
X082300
X082550
X082800
X083050
X083300
X083550
Y062200
X083300
X083050
X082800
X082550
X082300
X082050
X081800
X081550
Y061950
X081800
X082050
X082300
X082550
X082800
X083050
X083300
X083550
X083250Y061050
Y060800
Y060550
X083000
X082750
Y060300
X083000
Y060800
X082500Y060300
Y059200
X082750
Y058950
X083000
X083250
Y058500
X083000
X083500
X083760Y058683
X084100Y058850
X084350
X084600
X084850
X085100
Y059100
Y059350
Y059600
Y059850
Y060100
Y060350
X085350
X085600
X085850
X086100
X086350
Y060100
Y059850
Y059600
Y059350
Y059100
Y058850
X086100
Y059100
Y059350
Y059600
Y059850
Y060100
X085850
Y059850
Y059600
Y059350
Y059100
Y058850
X085600
Y059100
X085350
Y059350
Y059600
X085600
Y059350
Y059850
Y060100
X085350
Y059850
X084850
Y059600
Y059350
Y059100
X084600
Y059350
Y059600
Y059850
Y060100
Y060350
X084350
X084100
Y060100
X084350
Y059850
Y059600
X084100
Y059850
Y059350
Y059100
X084350
Y059350
Y058600
X084600
X084850
X085100
X085350
Y058850
X085600Y058600
X085850
X086100
Y058350
X086350
Y058600
X085850Y058350
Y057900
Y057650
Y057400
Y057150
Y056900
Y056650
X085600
Y056900
Y057150
Y057400
Y057650
Y057900
X085350
Y057650
Y057400
Y057150
Y056900
Y056650
X085100
Y056900
X084850
Y057150
Y057400
X085100
Y057150
X084600
Y056900
Y056650
X084850
Y056400
X084600
X084350
X084100
Y056650
X084350
Y056900
Y057150
Y057400
X084600
Y057650
X084850
Y057900
X085100
Y057650
X084350
X084600Y057900
X084100Y057400
Y057150
Y056900
X085100Y056400
X085350
X085600
X085850
X085800Y055200
X086050
X086300
Y054950
Y054700
Y054450
X086050
Y054700
Y054950
X085800
Y054700
Y054450
X085550
Y054700
X085300
X085050
Y054950
Y055200
X084800
Y054950
Y054700
Y054450
X085050
Y054200
X084800
X084550
Y054450
Y054700
Y054950
Y055200
X084300
Y054950
Y054700
Y054450
Y054200
X084050
Y054450
Y054700
Y054950
Y055200
X083550
X083300
X083050
X082800
X082550
Y054950
X082300
Y054700
Y054450
Y054200
X082550
X082800
X083050
X083300
Y054450
X083050
X082800
X082550
Y054700
X082800
Y054950
X083050
Y054700
X083300
Y054950
X083550
Y054700
Y054450
Y054200
X082050
X081800
X081550
X081300
Y054450
Y054700
Y054950
X081550
Y054700
Y054450
X081800
Y054700
Y054950
Y055200
X081550
X081300
X080850Y055300
X080550
X080850Y055000
X082050Y054950
Y054700
Y054450
Y055200
X082300
X085300
X085550
Y054950
X085300
Y054450
Y054200
X085550
X085800
X086050
X086300
X085350Y058177
X084850Y060100
Y060350
X082500Y058950
X078400Y059600
X078850Y061150
X077700Y061200
Y061500
X077100Y061300
X076750
X076400
X076050
X075300Y061150
X075000
Y060850
X074700
X074400
X074100
Y061150
X074400
X074700
Y061450
X074400
X074100
X075000
X075300Y060850
Y060550
X074750Y060150
X074500
X074100Y060000
Y059700
X073800
Y060000
X073500Y059950
X073100Y060300
X072900Y060927
X073100Y061350
X072450
X072200Y061600
X071900
X071750Y061900
X072000Y062150
X072300Y062100
Y062350
X072211Y061000
X071889
X071391Y061174
X071250Y060200
X070960
X070700
X070400
X070100
X069350Y060150
X068911Y060700
X069100Y061627
X069403Y061700
X069450Y061400
X069850Y062200
X070300
X070400Y061700
X070150Y059100
X069850
X069550
Y058800
X069850
X070150
X070650
Y059100
X070950
Y058800
X071400Y059350
X071200Y059588
X071600Y059600
X071411Y059850
X072500Y059900
X072750Y059050
X073550Y058950
X073950Y058800
X074750
X075200
X075600Y059000
Y059300
X075900
X076200
X076500
X076800
Y059600
X076500
X076200
X075900
X077100
X078100
X076700Y058450
Y058227
X076400Y058450
X076100Y056400
Y056050
X077050Y055023
X073450Y057350
X073450Y057647
X072650Y057350
X072311
X071989
Y057700
X072311
X069999Y058018
X068067Y057760
X067850Y057550
X067400
X067100
X066800
X067050Y056700
X067350
X067650
Y056400
X067350
X067050
Y055700
Y055400
X067350
Y055700
X067650
X068250
X068550
Y055400
X068250
Y054400
X068550
X067350
Y054700
X067050
X066750
X066450
Y054400
X066750
X067050
X065500Y054900
X065200
X064950Y054300
X063889Y054140
X063739Y056561
X063623Y056850
X063327Y056550
X062697Y056250
X062850Y055900
X062827Y057050
X064250Y056850
X064550
X064650Y056400
X064900Y055850
X065800Y058150
X066100
X066350Y058400
X066600Y058650
X066850Y058900
X066900Y059850
X066600
X066300Y060300
X065650Y059850
X065350
X065050Y060300
X064400Y059850
X064100
X063800Y060300
X063150Y059850
X062850
X062550Y060300
X063100Y061027
X064350
X065600
X066850
X068100
Y059850
X067800
X067550Y060300
X067650Y057150
X074400Y059700
X074700
X061900Y059850
X061600
X061300Y060300
X060650Y059850
X060350
X060050Y060300
X059400Y059850
X059100
X058800Y060300
X058150Y059850
X057850
X057550Y060300
X056900Y059850
X056600
X056300Y060300
X055650Y059850
X055350
X055050Y060300
X054400Y059850
X054100
X053811Y059700
X053873Y059350
X053800Y060300
X054350Y061027
X055600
X056850
X058100
X059350
X060600
X061850
X061300Y057050
X060528Y057256
X059850Y057900
X058600Y058650
Y059000
X057500Y058000
X057450Y057150
Y055900
X057800
Y055250
X057450
X057800Y054600
X058650Y054300
X058655Y054950
X058650Y055600
Y056250
X057200Y056100
X055500Y055550
X054850Y055953
Y056773
X055200Y058950
X061627Y056250
X061700Y055900
X062005Y055545
X061850Y054497
X062177Y054500
X061500Y054600
Y054300
X061200
X070100Y062600
X069927Y063300
X071250Y062700
X071550
X072250Y063050
X081300Y062950
Y063200
Y063450
X081550
X081800
X082050
X082300
X082550
X082800
X083050
X083300
X083550
Y063200
X083300
X083050
X082800
X082550
X082300
X082050
X081800
X081550
Y062950
X081800
X082050
X082300
X082550
X082800
X083050
X083300
X083550
Y062700
X083300
X083050
X082800
X082550
X082300
X082050
X081800
X081550
X081300
Y063700
X081550
X081800
X082050
X082300
X082550
X082800
X083050
X083300
X083550
X085050Y063450
X085300
X085550
Y063200
Y062950
X085300
X085050
Y063200
X085300
T02
X068800Y062206
X056250Y057994
Y057206
Y055524
Y054736
X054300Y054720
Y055510
Y056300
Y057087
Y057875
X068800Y062994
T03
X062618Y062450
X063603
X064587
X065571
X066556
X061634
X060650
X059666
X058682
X057697
X056713
X055729
X054744
T04
X075142Y062650
T05
X087650Y054750
X052400
Y062950
X087650
M30
