M48
;Layer_Color=9474304
;FILE_FORMAT=2:4
INCH
;TYPE=PLATED
T1F00S00C0.0100
T2F00S00C0.0315
T3F00S00C0.0394
T4F00S00C0.0748
T5F00S00C0.1220
%
T01
X078900Y054850
Y055150
X079200
X079500
Y054850
X079200
Y056550
Y056850
Y057150
Y057450
Y057750
Y058050
X078900
X078600
Y057750
Y057450
Y057150
Y056850
Y056550
X078900
Y056850
Y057150
Y057450
Y057750
X078650Y058450
X079000Y059000
X079300
Y059300
X079600
X079900
X080200
X080200Y058999
X080200Y059750
X079900
Y060050
X079600
Y060350
X079300
Y060650
X079600
X079900
Y060350
X080200
Y060050
Y060650
X080100Y061700
X079800
X080400
X080700
X081300Y061950
X081550
X081800
X082050
X082300
X082550
X082800
X083050
X083300
X083550
Y062200
X083300
X083050
X082800
X082550
X082300
X082050
X081800
X081550
X081300
Y062450
X081550
X081800
X082050
X082300
X082550
X082800
X083050
X083300
X083550
X083250Y061050
Y060800
X083000
Y060550
Y060300
X082750
X082500
X082750Y060550
X083250
X084100Y060350
Y060100
Y059850
X084350
Y060100
X084600
Y059850
Y059600
X084350
Y059350
X084100
Y059100
Y058850
X084350
Y058600
X084600
X084850
X085100
X085350
X085600
X085850
Y058350
X086100
Y058600
X086350
Y058850
X086100
X085850
X085600
X085350
Y059100
Y059350
X085600
Y059600
Y059850
X085350
Y059600
X085100
X084850
Y059850
Y060100
X085100
X085350
X085600
X085850
Y059850
Y059600
Y059350
Y059100
X085600
X086100
Y059350
Y059600
Y059850
Y060100
X086350
Y059850
Y059600
Y059350
Y059100
Y058350
X085850Y057900
X085600
X085350
X085100
Y057650
X084850
X084600
Y057900
X084850
Y057400
X084600
X084350
X084100
Y057150
Y056900
Y056650
X084350
Y056900
Y057150
X084600
Y056900
Y056650
Y056400
X084850
X085100
X085350
X085600
X085850
Y056650
X085600
X085350
X085100
X084850
Y056900
Y057150
X085100
Y057400
X085350
Y057150
Y056900
X085100
X085600
Y057150
Y057400
Y057650
X085350
X085850
Y057400
Y057150
Y056900
X085800Y055200
X085550
Y054950
X085300
Y054700
Y054450
Y054200
X085550
X085800
X086050
X086300
Y054450
X086050
X085800
X085550
Y054700
X085800
Y054950
X086050
Y055200
X086300
Y054950
Y054700
X086050
X085050
X084800
X084550
X084300
X084050
Y054450
Y054200
X084300
X084550
X084800
X085050
Y054450
X084800
X084550
X084300
Y054950
X084050
Y055200
X084300
X084550
Y054950
X084800
Y055200
X085050
X085300
X085050Y054950
X083550
Y054700
Y054450
Y054200
X083300
Y054450
Y054700
Y054950
Y055200
X083550
X083050
Y054950
Y054700
Y054450
X082800
Y054700
Y054950
Y055200
X082550
X082300
X082050
Y054950
Y054700
Y054450
X081800
Y054700
Y054950
Y055200
X081550
X081300
Y054950
X081550
Y054700
Y054450
X081300
Y054700
Y054200
X081550
X081800
X082050
X082300
Y054450
X082550
Y054700
X082300
Y054950
X082550
Y054200
X082800
X083050
X080850Y055000
Y055300
X080550
X079500Y056550
Y056850
X079950Y058300
X079600Y059600
X079300
Y059900
X079000
Y059600
Y059300
X078400Y059600
X079000Y060200
X078850Y061150
X079300Y061300
Y061550
X082500Y059200
Y058950
X082750
X083000
X083250
Y058500
X083500
X083760Y058683
X083000Y058500
X082750Y059200
X084350Y059100
X084600
Y058850
X084850
Y059100
Y059350
X084600
X085100
Y059100
Y058850
X085350Y058177
X084350Y057650
Y056400
X084100
Y059600
X084350Y060350
X084600
X084850
X085100
X085350
X085600
X085850
X086100
X086350
X085100Y059850
X078100Y059600
X077100
X076800
X076500
X076200
X075900
Y059300
X075600
Y059000
X075200Y058800
X074750
X073950
X073550Y058950
X072750Y059050
X072500Y059900
X073100Y060300
X073500Y059950
X073800Y060000
Y059700
X074100
X074400
X074700
X074750Y060150
X074500
X074100Y060000
Y060850
X074400
Y061150
Y061450
X074700
X075000
Y061150
X075300
Y060850
Y060550
X075000Y060850
X074700
Y061150
X074100
Y061450
X073100Y061350
X072900Y060927
X072211Y061000
X071889
X071900Y061600
X072200
X072450Y061350
X072300Y062100
Y062350
X072000Y062150
X071750Y061900
X071391Y061174
X071250Y060200
X070960
X070700
X070400
X070100
X069350Y060150
X068911Y060700
X069100Y061627
X069403Y061700
X069450Y061400
X069850Y062200
X070300
X070400Y061700
X070650Y059100
Y058800
X070950
Y059100
X071400Y059350
X071200Y059588
X071600Y059600
X071411Y059850
X070150Y059100
Y058800
X069850
X069550
Y059100
X069850
X069999Y058018
X068067Y057760
X067850Y057550
X067400
X067100
X066800
X067050Y056700
Y056400
X067350
Y056700
X067650
Y056400
Y055700
X067350
X067050
Y055400
X067350
Y054700
Y054400
X067050
X066750
X066450
Y054700
X066750
X067050
X068250Y054400
X068550
Y055400
X068250
Y055700
X068550
X067650Y057150
X066350Y058400
X066600Y058650
X066850Y058900
X066900Y059850
X066600
X066300Y060300
X065650Y059850
X065350
X065050Y060300
X064400Y059850
X064100
X063800Y060300
X063150Y059850
X062850
X062550Y060300
X063100Y061027
X064350
X065600
X066850
X068100
Y059850
X067800
X067550Y060300
X066100Y058150
X065800
X064550Y056850
X064250
X063623
X063739Y056561
X063327Y056550
X062697Y056250
X062850Y055900
X062827Y057050
X064650Y056400
X064900Y055850
X065200Y054900
X065500
X064950Y054300
X063889Y054140
X071989Y057350
X072311
X072650
X072311Y057700
X071989
X073450Y057647
X073450Y057350
X076100Y056400
Y056050
X077050Y055023
X076700Y058227
Y058450
X076400
X076500Y059300
X076200
X076800
X076750Y061300
X076400
X076050
X077100
X077700Y061200
Y061500
X061850Y061027
X061900Y059850
X061600
X061300Y060300
X060650Y059850
X060350
X060050Y060300
X059400Y059850
X059100
X058800Y060300
X058150Y059850
X057850
X057550Y060300
X056900Y059850
X056600
X056300Y060300
X055650Y059850
X055350
X055050Y060300
X054400Y059850
X054100
X053811Y059700
X053873Y059350
X053800Y060300
X054350Y061027
X055600
X056850
X058100
X059350
X060600
X060528Y057256
X061300Y057050
X061627Y056250
X061700Y055900
X062005Y055545
X061850Y054497
X062177Y054500
X061500Y054600
Y054300
X061200
X058650
X058655Y054950
X058650Y055600
Y056250
X057800Y055900
X057450
X057200Y056100
X057450Y055250
X057800
Y054600
X057450Y057150
X057500Y058000
X058600Y058650
Y059000
X059850Y057900
X055200Y058950
X054850Y056773
Y055953
X055500Y055550
X070100Y062600
X069927Y063300
X071250Y062700
X071550
X072250Y063050
X081300Y062950
Y062700
X081550
X081800
X082050
X082300
X082550
X082800
X083050
X083300
X083550
Y062950
X083300
X083050
X082800
X082550
X082300
X082050
X081800
X081550
Y063200
X081300
Y063450
Y063700
X081550
X081800
X082050
X082300
X082550
X082800
X083050
X083300
X083550
Y063450
Y063200
X083300
X083050
X082800
X082550
X082300
X082050
X081800
Y063450
X082050
X082300
X082550
X082800
X083050
X083300
X081550
X085050
Y063200
X085300
Y062950
X085050
X085550
Y063200
Y063450
X085300
T02
X068800Y062206
X056250Y057994
Y057206
Y055524
Y054736
X054300Y054720
Y055510
Y056300
Y057087
Y057875
X068800Y062994
T03
X062618Y062450
X063603
X064587
X065571
X066556
X061634
X060650
X059666
X058682
X057697
X056713
X055729
X054744
T04
X075142Y062650
T05
X087650Y054750
X052400
Y062950
X087650
M30
