M48
;Layer_Color=9474304
;FILE_FORMAT=2:4
INCH
;TYPE=PLATED
T1F00S00C0.0100
T2F00S00C0.0315
T3F00S00C0.0394
T4F00S00C0.0787
T5F00S00C0.1220
%
T01
X078900Y054850
X079200
X079500
Y055150
X079200
X078900
Y056550
X079200
X079500
Y056850
X079200
X078900
Y057150
X079200
Y057450
X078900
Y057750
X079200
Y058050
X078900
X078600Y057750
Y057450
Y057150
Y056850
Y056550
X078650Y058450
X079000Y059000
Y059300
Y059600
X079300
Y059300
Y059000
X079600Y059300
Y059600
Y060050
X079900
Y060350
Y060650
X080200
Y060350
Y060050
Y059750
X079900
Y059300
X080200
X080200Y058999
X079950Y058300
X079300Y059900
X079000
Y060200
X079300Y060350
Y060650
X079600
Y060350
X079300Y061300
Y061550
X079800Y061700
X080100
X080400
X080700
X081350Y061950
Y062200
Y062450
X081600
X081850
X082100
X082350
X082600
X082850
X083100
X083350
X083600
Y062200
X083350
X083100
X082850
X082600
X082350
X082100
X081850
X081600
Y061950
X081850
X082100
X082350
X082600
X082850
X083100
X083350
X083600
X083200Y060900
Y060650
Y060400
X082950
X082700
X082950Y060650
X084100Y060350
X084350
X084600
X084850
X085100
X085350
X085600
X085850
X086100
X086350
Y060100
Y059850
Y059600
Y059350
Y059100
Y058850
X086100
Y059100
Y059350
Y059600
Y059850
Y060100
X085850
Y059850
Y059600
Y059350
Y059100
Y058850
X085600
Y059100
X085350
X085100
Y059350
Y059600
Y059850
Y060100
X084850
Y059850
Y059600
Y059350
Y059100
Y058850
X085100
Y058600
X084850
X084600
Y058850
Y059100
Y059350
Y059600
Y059850
Y060100
X084350
X084100
Y059850
Y059600
X084350
Y059350
Y059100
Y058850
X084100
Y059100
Y059350
X084350Y059850
X085350
Y060100
X085600
Y059850
Y059600
X085350
Y059350
X085600
X085350Y058850
Y058600
X085600
X085850
X086100
Y058350
X086350
Y058600
X085850Y057900
Y057650
Y057400
Y057150
Y056900
Y056650
X085600
Y056900
Y057150
Y057400
Y057650
Y057900
X085350
Y057650
Y057400
Y057150
Y056900
Y056650
X085100
Y056900
X084850
Y057150
Y057400
X085100
Y057150
X084600
Y056900
Y056650
X084850
Y056400
X084600
X084350
X084100
Y056650
Y056900
Y057150
X084350
Y057400
X084600
Y057650
X084850
Y057900
X085100
Y057650
X084350
X084100Y057400
X084350Y056900
Y056650
X085100Y056400
X085350
X085600
X085850
Y055200
X086100
X086350
Y054950
Y054700
Y054450
X086100
Y054700
Y054950
X085850
Y054700
Y054450
X085600
Y054700
X085350
X085100
Y054950
Y055200
X084850
Y054950
Y054700
Y054450
X085100
Y054200
X084850
X084600
Y054450
Y054700
Y054950
Y055200
X084350
Y054950
Y054700
Y054450
Y054200
X084100
Y054450
Y054700
Y054950
Y055200
X083600
X083350
X083100
X082850
X082600
Y054950
X082350
Y054700
Y054450
Y054200
X082600
X082850
X083100
X083350
Y054450
X083100
X082850
X082600
Y054700
X082850
Y054950
X083100
Y054700
X083350
Y054950
X083600
Y054700
Y054450
Y054200
X082100
X081850
X081600
X081350
Y054450
Y054700
Y054950
Y055200
X081600
Y054950
Y054700
Y054450
X081850
Y054700
Y054950
Y055200
X082100
X082350
X082100Y054950
Y054700
Y054450
X080900Y055000
Y055300
X080600
X082450Y058200
X082700
Y058450
X082450
Y058700
Y058950
Y059200
X082700
Y058950
Y058700
X082950
Y058450
Y058950
X083200
Y058700
X083760Y058683
X084350Y058600
X084600Y057900
X085350Y058177
Y055200
X085600
Y054950
X085350
Y054450
Y054200
X085600
X085850
X086100
X086350
X078400Y059600
X078850Y061150
X077700Y061200
Y061500
X077100Y061250
X076750
X076400
X076050
X075300Y061150
X075000
Y060850
X074700
X074400
X074100
Y061150
X074400
X074700
Y061450
X074400
X074100
X075000
X075300Y060850
Y060550
X074750Y060150
X074500
X074100Y060000
Y059700
X073800
Y060000
X073500Y059950
X073050Y060300
X072900Y060927
X073100Y061350
X072450
X072200Y061600
X071900
X071750Y061900
X072000Y062150
X072300Y062100
Y062350
X071200Y062450
X070300Y062200
X069850
X069403Y061700
X069450Y061400
X069100Y061627
X068911Y060700
X069350Y060150
X070100Y060200
X070400
X070700
X070960
X071250
X071411Y059850
X071600Y059600
X071200Y059588
X071400Y059350
X070150Y059050
X069800
X069999Y058018
X071989Y057700
X072311
Y057350
X071989
X072650
X073450
X073450Y057647
X073550Y058950
X073950Y058650
X074750Y058600
X075200Y058450
X075600Y059000
Y059300
X075900
X076200
X076500
X076800
Y059600
X076500
X076200
X075900
X077100
X078100
X076700Y058450
Y058227
X076300Y058250
X076200Y056430
Y056077
X077050Y055023
X074700Y059700
X074400
X072550Y059900
X072781Y058969
X072211Y061000
X071889
X071391Y061174
X070400Y061700
X068100Y061027
X068150Y059850
X067850
X067550Y060300
X066900Y059850
X066600
X066300Y060300
X065650Y059850
X065350
X065050Y060300
X064400Y059850
X064100
X063800Y060300
X063150Y059850
X062850
X062550Y060300
X063100Y061027
X064350
X065600
X066850
Y058450
X067100Y058690
X066600Y058200
X066350Y057950
X066050
X067700Y057000
Y056700
X067400
Y056400
X067100
Y055850
Y055550
X067400
Y055850
X067700
Y055550
X068300
X068600
Y055850
X068300
X067700Y056400
X067400Y054700
Y054400
X067100
X066800
X066500
Y054700
X066800
X067100
X065650
X065350
X064950Y054300
X065000Y055850
X064650Y056400
X064550Y056850
X064250
X063623
X063739Y056561
X063327Y056550
X062697Y056250
X062850Y055900
X062827Y057050
X068300Y054400
X068600
X062177Y054500
X061850Y054497
X061450Y054500
Y054150
X061100
X062005Y055545
X061700Y055900
X061627Y056250
X061300Y057050
X060528Y057256
X059850Y057900
X058600Y058650
Y059000
X058150Y059850
X057850
X057550Y060300
X056900Y059850
X056600
X056300Y060300
X055650Y059850
X055350
X055050Y060300
X054400Y059850
X054100
X053811Y059700
X053873Y059350
X053800Y060300
X054350Y061027
X055600
X056850
X058100
X059350
X059400Y059850
X059100
X058800Y060300
X060050
X060350Y059850
X060650
X061600
X061900
X061300Y060300
X061850Y061027
X060600
X057450Y057850
X057900Y056850
X058100Y055750
X057650Y055650
X057450Y055250
X057900Y055100
X058300Y055000
Y054150
X059150Y054500
Y055350
Y056150
X055177Y056300
Y057100
X055500Y055550
X055700Y058950
X070100Y062600
X069927Y063300
X072250Y063050
X081350Y062950
Y063200
Y063450
X081600
X081850
X082100
X082350
X082600
X082850
X083100
X083350
X083600
Y063200
X083350
X083100
X082850
X082600
X082350
X082100
X081850
X081600
Y062950
X081850
X082100
X082350
X082600
X082850
X083100
X083350
X083600
Y062700
X083350
X083100
X082850
X082600
X082350
X082100
X081850
X081600
X081350
Y063700
X081600
X081850
X082100
X082350
X082600
X082850
X083100
X083350
X083600
X084600Y063450
X084850
X085100
Y063200
Y062950
X084850
X084600
Y063200
X084850
T02
X068800Y062206
X057100Y056650
X056313
X056306Y054650
X057094
X054300Y054720
Y055510
Y056300
Y057087
Y057875
X068800Y062994
T03
X062618Y062450
X063603
X064587
X065571
X066556
X061634
X060650
X059666
X058682
X057697
X056713
X055729
X054744
T04
X075145Y062650
T05
X087650Y054750
X052400
Y062950
X087650
M30
