M48
;Layer_Color=9474304
;FILE_FORMAT=2:4
INCH
;TYPE=PLATED
T1F00S00C0.0100
T2F00S00C0.0315
T3F00S00C0.0748
T4F00S00C0.1220
%
T01
X079750Y054800
Y055100
X080050
X080350
Y054800
X080050
X081350Y054700
X081600
X081850
X082100
Y054950
Y055200
X081850
Y054950
X081600
Y055200
X081350
Y054950
Y054450
X081600
X081850
X082100
Y054200
X081850
X081600
X081350
X082350
Y054450
X082600
X082850
X083100
X083350
X083600
Y054200
X083350
X083100
X082850
X082600
Y054700
X082850
X083100
X083350
X083600
Y054950
Y055200
X083350
Y054950
X083100
Y055200
X082850
Y054950
X082600
Y055200
X082350
Y054950
Y054700
X084050
X084300
X084550
X084800
X085050
Y054950
Y055200
X084800
Y054950
X084550
Y055200
X084300
Y054950
X084050
Y055200
Y054450
X084300
X084550
X084800
X085050
Y054200
X084800
X084550
X084300
X084050
X085300
Y054450
X085550
X085800
X086050
X086300
Y054700
Y054950
Y055200
X086050
Y054950
Y054700
X085800
Y054950
Y055200
X085550
X085300
Y054950
Y054700
X085550
Y054950
Y054200
X085800
X086050
X086300
X085850Y056400
X085600
X085350
X085100
X084850
X084600
X084350
Y056650
Y056900
Y057150
Y057400
Y057650
X084600
Y057900
X084850
Y057650
X085100
Y057900
X085350
Y057650
Y057400
X085100
Y057150
X084850
X084600
Y057400
X084850
Y056900
X084600
Y056650
X084850
X085100
Y056900
X085350
Y056650
X085600
Y056900
Y057150
X085350
X085600Y057400
Y057650
Y057900
X085850
Y057650
Y057400
Y057150
Y056900
Y056650
X084100
Y056900
Y057150
Y057400
Y056400
X084350Y058600
X084600
X084850
X085100
X085350
X085600
X085850
X086100
X086350
Y058850
X086100
X085850
X085600
X085350
Y059100
Y059350
X085600
Y059600
Y059850
X085350
Y059600
X085100
X084850
X084600
X084350
Y059850
X084100
Y059600
Y059350
X084350
Y059100
X084100
Y058850
X084350
X084600
Y059100
Y059350
X084850
Y059100
Y058850
X085100
Y059100
Y059350
Y059850
X084850
X084600
Y060100
X084350
X084100
Y060350
X084350
X084600
X084850
Y060100
X085100
X085350
X085600
X085850
Y059850
Y059600
Y059350
Y059100
X085600
X086100
Y059350
Y059600
Y059850
Y060100
X086350
Y059850
Y059600
Y059350
Y059100
Y058350
X086100
Y060350
X086350
X085850
X085600
X085350
X085100
X083350
Y060600
X083100
Y060350
Y060100
X083350
X082850
X082600
Y060350
X082850
Y060600
Y061600
X083100
Y061950
X082850
X082600
X082350
X082100
X081850
X081600
X081350
Y062200
X081600
X081850
X082100
X082350
X082600
X082850
X083100
X083350
Y061950
X083600
Y062200
Y062450
X083350
X083100
X082850
X082600
X082350
X082100
X081850
X081600
X081350
X080800Y061800
X080500
X080200
X079900
X079300Y061550
Y061300
X078850Y061150
X079300Y060650
Y060350
X079600
Y060050
X079900
Y059750
X080200
Y060050
Y060350
X079900
Y060650
X079600
X080200
Y059300
X079900
X079600
Y059600
X079300
Y059900
X079000
Y059600
Y059300
Y059000
Y058700
X079300
Y059000
Y059300
X078400Y059600
Y058400
X078650Y058100
Y057800
Y057500
Y057200
Y056900
Y056600
X078350
X078950
X079250
X079550
Y056900
X079250
X078950
Y057200
X079250
Y057500
X078950
Y057800
X079250
Y058100
X078950
X080290
Y058440
X082600Y058400
Y058150
X082850
Y058400
X083100
Y058650
X082850
X082600
Y058900
X082850
X083100
X083760Y058683
X081060Y055450
X080800
X076200Y055823
Y056430
X075900Y055100
X076400Y058250
X076800Y058227
Y058450
Y059300
X076500
X076200
X075900
X075600
X075900Y059600
X076200
X076500
X076800
X077100
Y059300
X077400Y059600
X078100
X077350Y061250
X077000
X076650
X076300
X075300Y061100
Y060800
Y060500
X075000Y060800
Y061100
X074700
Y061400
X074400
X074100
Y061100
X074400
Y060800
X074700
X074100
Y059950
X073800
Y059650
X074100
X074400
X074700
X074750Y060100
X074500
X073500Y059900
X073050Y060300
X072900Y060927
X073150Y061300
X072400Y061450
X072100
X071800
X071750Y061850
X072000Y062150
X072300Y062100
Y062350
X071250Y062400
X070511Y061550
X069489
X069606Y061288
X068861Y060700
X069350Y060150
X070100Y060200
X070400
X070700
X070960
X071250
X071361Y059850
X071200Y059588
X071600Y059600
X071400Y059350
X072554Y058985
X072550Y059900
X072211Y061000
X071889
X071989Y057700
X072311
Y057350
X071989
X073250
X073250Y057647
X073650Y058750
X073950
X069900Y059100
X069999Y058018
X067700Y057000
Y056700
X067400
Y056400
X067100
Y055850
Y055550
X067400
Y055250
X067100
X066800
X066500
Y054750
Y054450
X066800
X067100
X067400
Y054750
X067100
X066800
X065750Y054550
X065450
X064886Y054475
X064400Y056400
Y056850
X064100
X063739Y056561
X062846Y056250
X062850Y055900
X062927Y057000
X063085Y060200
X062650Y060224
X063900
X064335Y060200
X065150Y060224
X065585Y060200
X066400Y060224
X066835Y060200
X067650Y060224
X068085Y060200
X066850Y058450
X066600Y058200
X066350Y057950
X066050
X067700Y056400
Y055850
Y055550
X067400Y055850
X068550
X068800
Y055600
X068550
X062005Y055545
X061700Y055900
X061627Y056250
X061350Y054450
X061973Y054500
X062327
X059150Y054550
Y055350
X058100Y055750
X057750Y055100
X058200Y054600
X057750Y056850
X059850Y057089
Y057411
X058450Y059000
X057550
X057650Y060224
X058085Y060200
X058900Y060224
X059335Y060200
X060150Y060224
X060585Y060200
X061400Y060224
X061835Y060200
X056835
X056400Y060224
X055585Y060200
X055150Y060224
X054335Y060200
X053900Y060224
X053811Y059700
X055177Y057200
Y056400
X055500Y055550
X070170Y063200
X072250
X073400
X081350
Y062950
Y062700
X081600
X081850
X082100
X082350
X082600
X082850
X083100
X083350
X083600
Y062950
X083350
X083100
X082850
X082600
X082350
X082100
X081850
X081600
Y063200
X081850
X082100
X082350
X082600
X082850
X083100
X083350
X083600
Y063450
X083350
X083100
X082850
X082600
X082350
X082100
X081850
X081600
X081350
X083950Y063300
X084200
X084450
X084700
Y063050
X084450
X084200
X083950
T02
X062618Y062350
X063603
X064587
X065571
X066556
X068850Y062106
X061634Y062350
X060650
X059666
X058682
X057697
X056713
X055729
X054744
X054300Y057975
Y057187
Y056400
Y055610
Y054820
X056306Y054750
X057094
X057100Y056750
X056313
X068850Y062894
T03
X075150Y062650
T04
X087650Y054750
X052400
Y062950
X087650
M30
