G04 Layer_Color=8388736*
%FSAX24Y24*%
%MOIN*%
G70*
G01*
G75*
%ADD82R,0.0400X0.0440*%
%ADD83R,0.0395X0.0986*%
%ADD84R,0.6830X0.1580*%
%ADD85R,0.0438X0.0560*%
%ADD86R,0.0710X0.0552*%
%ADD87R,0.1025X0.1104*%
%ADD88R,0.1064X0.0474*%
%ADD89R,0.1064X0.1379*%
%ADD90R,0.0572X0.1399*%
%ADD91R,0.0434X0.0356*%
%ADD92R,0.0356X0.0434*%
%ADD93R,0.4253X0.3545*%
%ADD94R,0.0453X0.1674*%
%ADD95R,0.0867X0.0867*%
%ADD96R,0.3230X0.4174*%
%ADD97R,0.1222X0.0474*%
%ADD98R,0.0434X0.0474*%
%ADD99R,0.0220X0.0660*%
G04:AMPARAMS|DCode=100|XSize=195mil|YSize=559.2mil|CornerRadius=97.5mil|HoleSize=0mil|Usage=FLASHONLY|Rotation=0.000|XOffset=0mil|YOffset=0mil|HoleType=Round|Shape=RoundedRectangle|*
%AMROUNDEDRECTD100*
21,1,0.1950,0.3642,0,0,0.0*
21,1,0.0000,0.5592,0,0,0.0*
1,1,0.1950,0.0000,-0.1821*
1,1,0.1950,0.0000,-0.1821*
1,1,0.1950,0.0000,0.1821*
1,1,0.1950,0.0000,0.1821*
%
%ADD100ROUNDEDRECTD100*%
%ADD101R,0.3420X0.2130*%
%ADD102R,0.0474X0.1340*%
%ADD103R,0.1030X0.1190*%
%ADD104R,0.0440X0.0400*%
%ADD105O,0.0178X0.0828*%
%ADD106O,0.0356X0.1064*%
%ADD107R,0.1104X0.0493*%
%ADD108R,0.0493X0.0257*%
%ADD109R,0.1159X0.2470*%
%ADD110R,0.1340X0.0474*%
%ADD111R,0.3545X0.4253*%
%ADD112R,0.1674X0.0453*%
%ADD113R,0.1202X0.0572*%
%ADD114R,0.2560X0.2265*%
%ADD115R,0.0710X0.0730*%
%ADD116R,0.1180X0.3680*%
%ADD117R,0.1280X0.2430*%
%ADD118C,0.0710*%
%ADD119C,0.0671*%
%ADD120R,0.0671X0.0671*%
%ADD121C,0.0880*%
%ADD122C,0.0650*%
%ADD123C,0.0280*%
%ADD124C,0.0360*%
G36*
X037569Y016146D02*
X037575Y016145D01*
X037580Y016143D01*
X037584Y016141D01*
X037589Y016138D01*
X037593Y016134D01*
X037596Y016130D01*
X037599Y016126D01*
X037601Y016121D01*
X037603Y016116D01*
X037604Y016111D01*
X037604Y016106D01*
Y010594D01*
X037604Y010589D01*
X037603Y010584D01*
X037601Y010579D01*
X037599Y010574D01*
X037596Y010570D01*
X037593Y010566D01*
X037589Y010562D01*
X037584Y010559D01*
X037580Y010557D01*
X037575Y010555D01*
X037569Y010554D01*
X037564Y010554D01*
X036062D01*
X036057Y010554D01*
X035980Y010564D01*
X035975Y010566D01*
X035970Y010567D01*
X035874Y010607D01*
X035869Y010609D01*
X035865Y010612D01*
X035783Y010675D01*
X035779Y010679D01*
Y010679D01*
X035779D01*
X035775Y010683D01*
X035712Y010765D01*
X035709Y010769D01*
X035707Y010774D01*
X035667Y010870D01*
X035666Y010875D01*
X035664Y010880D01*
X035654Y010957D01*
X035654Y010962D01*
Y010962D01*
D01*
Y010988D01*
Y015712D01*
Y015738D01*
X035654Y015743D01*
X035664Y015820D01*
X035666Y015825D01*
X035667Y015830D01*
X035707Y015926D01*
X035709Y015931D01*
X035712Y015935D01*
X035775Y016017D01*
X035779Y016021D01*
X035783Y016025D01*
X035783Y016025D01*
X035865Y016088D01*
X035867Y016089D01*
X035869Y016091D01*
X035874Y016093D01*
X035970Y016133D01*
X035975Y016134D01*
X035980Y016136D01*
X036057Y016146D01*
X036062Y016146D01*
X036062D01*
D01*
X037564D01*
X037569Y016146D01*
D02*
G37*
G36*
X067255Y012740D02*
X067260Y012739D01*
X067265Y012737D01*
X067270Y012735D01*
X067274Y012732D01*
X067278Y012728D01*
X067282Y012724D01*
X067285Y012720D01*
X067287Y012715D01*
X067289Y012710D01*
X067290Y012705D01*
X067290Y012700D01*
X067290Y010650D01*
X067290Y010645D01*
X067289Y010640D01*
X067287Y010635D01*
X067285Y010630D01*
X067282Y010626D01*
X067278Y010622D01*
X066828Y010172D01*
X066824Y010168D01*
X066820Y010165D01*
X066815Y010163D01*
X066810Y010161D01*
X066805Y010160D01*
X066800Y010160D01*
X059350Y010160D01*
X059345Y010160D01*
X059340Y010161D01*
X059335Y010163D01*
X059330Y010165D01*
X059326Y010168D01*
X059322Y010172D01*
X058872Y010622D01*
X058868Y010626D01*
X058865Y010630D01*
X058863Y010635D01*
X058861Y010640D01*
X058860Y010645D01*
X058860Y010650D01*
X058860Y012700D01*
X058860Y012705D01*
X058861Y012710D01*
X058863Y012715D01*
X058865Y012720D01*
X058868Y012724D01*
X058872Y012728D01*
X058876Y012732D01*
X058880Y012735D01*
X058885Y012737D01*
X058890Y012739D01*
X058895Y012740D01*
X058900Y012740D01*
X063200D01*
X063205Y012740D01*
X063210Y012739D01*
X063215Y012737D01*
X063220Y012735D01*
X063224Y012732D01*
X063228Y012728D01*
X063232Y012724D01*
X063235Y012720D01*
X063237Y012715D01*
X063239Y012710D01*
X063240Y012705D01*
X063240Y012700D01*
Y010990D01*
X063760D01*
X063760Y012700D01*
X063760Y012705D01*
X063761Y012710D01*
X063763Y012715D01*
X063765Y012720D01*
X063768Y012724D01*
X063772Y012728D01*
X063776Y012732D01*
X063780Y012735D01*
X063785Y012737D01*
X063790Y012739D01*
X063795Y012740D01*
X063800Y012740D01*
X067250Y012740D01*
X067255Y012740D01*
D02*
G37*
G36*
X056005Y014990D02*
X056010Y014989D01*
X056015Y014987D01*
X056020Y014985D01*
X056024Y014982D01*
X056028Y014978D01*
X057828Y013178D01*
X057832Y013174D01*
X057835Y013170D01*
X057837Y013165D01*
X057839Y013160D01*
X057840Y013155D01*
X057840Y013150D01*
X057840Y010500D01*
X057840Y010495D01*
X057839Y010490D01*
X057837Y010485D01*
X057835Y010480D01*
X057832Y010476D01*
X057828Y010472D01*
X057578Y010222D01*
X057574Y010218D01*
X057570Y010215D01*
X057565Y010213D01*
X057560Y010211D01*
X057555Y010210D01*
X057550Y010210D01*
X054850Y010210D01*
X054845Y010210D01*
X054840Y010211D01*
X054835Y010213D01*
X054830Y010215D01*
X054826Y010218D01*
X054822Y010222D01*
X054422Y010622D01*
X054418Y010626D01*
X054415Y010630D01*
X054413Y010635D01*
X054411Y010640D01*
X054410Y010645D01*
X054410Y010650D01*
Y014950D01*
X054410Y014955D01*
X054411Y014960D01*
X054413Y014965D01*
X054415Y014970D01*
X054418Y014974D01*
X054422Y014978D01*
X054426Y014982D01*
X054430Y014985D01*
X054435Y014987D01*
X054440Y014989D01*
X054445Y014990D01*
X054450Y014990D01*
X056000D01*
X056005Y014990D01*
D02*
G37*
G36*
X040843Y016146D02*
X040920Y016136D01*
X040925Y016134D01*
X040930Y016133D01*
X041026Y016093D01*
X041031Y016091D01*
X041035Y016088D01*
X041117Y016025D01*
X041121Y016021D01*
Y016021D01*
X041121D01*
X041125Y016017D01*
X041188Y015935D01*
X041191Y015931D01*
X041193Y015926D01*
X041233Y015830D01*
X041234Y015825D01*
X041236Y015820D01*
X041246Y015743D01*
X041246Y015738D01*
Y015712D01*
Y010988D01*
Y010962D01*
D01*
Y010962D01*
X041246Y010957D01*
X041236Y010880D01*
X041234Y010875D01*
X041233Y010870D01*
X041193Y010774D01*
X041191Y010769D01*
X041188Y010765D01*
X041125Y010683D01*
X041121Y010679D01*
X041121D01*
Y010679D01*
X041117Y010675D01*
X041035Y010612D01*
X041031Y010609D01*
X041026Y010607D01*
X040930Y010567D01*
X040925Y010566D01*
X040920Y010564D01*
X040843Y010554D01*
X040838Y010554D01*
X039336D01*
X039331Y010554D01*
X039325Y010555D01*
X039320Y010557D01*
X039316Y010559D01*
X039311Y010562D01*
X039307Y010566D01*
X039304Y010570D01*
X039301Y010574D01*
X039299Y010579D01*
X039297Y010584D01*
X039296Y010589D01*
X039296Y010594D01*
Y016106D01*
X039296Y016111D01*
X039297Y016116D01*
X039299Y016121D01*
X039301Y016126D01*
X039304Y016130D01*
X039307Y016134D01*
X039311Y016138D01*
X039316Y016141D01*
X039320Y016143D01*
X039325Y016145D01*
X039331Y016146D01*
X039336Y016146D01*
X040838D01*
D01*
X040838D01*
X040843Y016146D01*
D02*
G37*
G36*
X064305Y032940D02*
X064310Y032939D01*
X064315Y032937D01*
X064320Y032935D01*
X064324Y032932D01*
X064328Y032928D01*
X064728Y032528D01*
X064732Y032524D01*
X064735Y032520D01*
X064737Y032515D01*
X064739Y032510D01*
X064740Y032505D01*
X064740Y032500D01*
X064740Y030150D01*
X064740Y030145D01*
X064739Y030140D01*
X064737Y030135D01*
X064735Y030130D01*
X064732Y030126D01*
X064728Y030122D01*
X064724Y030118D01*
X064720Y030115D01*
X064715Y030113D01*
X064710Y030111D01*
X064705Y030110D01*
X064700Y030110D01*
X058426Y030110D01*
X058425Y030110D01*
X058424Y030110D01*
X058422Y030110D01*
X058420Y030110D01*
X058420Y030110D01*
X058419Y030110D01*
X058417Y030111D01*
X058415Y030111D01*
X058415Y030111D01*
X058414Y030112D01*
X058412Y030112D01*
X058410Y030113D01*
X058410Y030113D01*
X058409Y030113D01*
X058407Y030114D01*
X058406Y030115D01*
X058405Y030116D01*
X058405Y030116D01*
X058403Y030117D01*
X058401Y030118D01*
X058401Y030119D01*
X058400Y030119D01*
X058286Y030212D01*
X058286Y030212D01*
X058286Y030212D01*
X058284Y030214D01*
X058282Y030216D01*
X058282Y030216D01*
X058282Y030216D01*
X057978Y030539D01*
X057978Y030539D01*
X057978Y030539D01*
X057977Y030541D01*
X057975Y030543D01*
X057975Y030543D01*
X057975Y030543D01*
X057795Y030796D01*
X057794Y030798D01*
X057793Y030800D01*
X057643Y031071D01*
X057642Y031073D01*
X057641Y031075D01*
X057522Y031362D01*
D01*
Y031362D01*
X057522Y031362D01*
X057521Y031365D01*
X057521Y031367D01*
X057521Y031367D01*
X057521Y031367D01*
X057521Y031367D01*
X057422Y031733D01*
X057421Y031735D01*
X057421Y031737D01*
X057401Y031862D01*
X057401Y031863D01*
X057401Y031863D01*
X057401Y031865D01*
X057401Y031867D01*
X057401Y031867D01*
X057401Y031867D01*
X057401Y031868D01*
X057401Y031868D01*
X057401Y031870D01*
X057401Y031872D01*
X057401Y031872D01*
X057401Y031873D01*
X057401Y031873D01*
X057401Y031873D01*
X057402Y031875D01*
X057402Y031877D01*
X057402Y031877D01*
X057402Y031878D01*
X057402Y031878D01*
X057402Y031879D01*
X057403Y031880D01*
X057403Y031882D01*
X057404Y031882D01*
X057404Y031883D01*
X057404Y031883D01*
X057404Y031884D01*
X057405Y031885D01*
X057406Y031887D01*
X057406Y031887D01*
X057406Y031887D01*
X057406Y031888D01*
X057406Y031888D01*
X057407Y031890D01*
X057408Y031892D01*
X058146Y032923D01*
X058147Y032924D01*
X058147Y032924D01*
X058148Y032926D01*
X058149Y032927D01*
X058150Y032928D01*
X058150Y032928D01*
X058152Y032930D01*
X058153Y032931D01*
X058154Y032931D01*
X058154Y032932D01*
X058156Y032933D01*
X058158Y032934D01*
X058158Y032934D01*
X058159Y032935D01*
X058160Y032936D01*
X058162Y032936D01*
X058163Y032937D01*
X058163Y032937D01*
X058165Y032938D01*
X058167Y032938D01*
X058168Y032938D01*
X058168Y032939D01*
X058170Y032939D01*
X058172Y032940D01*
X058173Y032940D01*
X058174Y032940D01*
X058175Y032940D01*
X058177Y032940D01*
X058178Y032940D01*
X058179Y032940D01*
X064300Y032940D01*
X064305Y032940D01*
D02*
G37*
G36*
X056205Y032940D02*
X056210Y032939D01*
X056215Y032937D01*
X056220Y032935D01*
X056224Y032932D01*
X056228Y032928D01*
X056828Y032328D01*
X056832Y032324D01*
X056835Y032320D01*
X056837Y032315D01*
X056839Y032310D01*
X056840Y032305D01*
X056840Y032300D01*
X056840Y030150D01*
X056840Y030145D01*
X056839Y030140D01*
X056837Y030135D01*
X056835Y030130D01*
X056832Y030126D01*
X056828Y030122D01*
X056824Y030118D01*
X056820Y030115D01*
X056815Y030113D01*
X056810Y030111D01*
X056805Y030110D01*
X056800Y030110D01*
X053350D01*
X053345Y030110D01*
X053340Y030111D01*
X053335Y030113D01*
X053330Y030115D01*
X053326Y030118D01*
X053322Y030122D01*
X051872Y031572D01*
X051868Y031576D01*
X051865Y031580D01*
X051863Y031585D01*
X051861Y031590D01*
X051860Y031595D01*
X051860Y031600D01*
X051860Y032900D01*
X051860Y032905D01*
X051861Y032910D01*
X051863Y032915D01*
X051865Y032920D01*
X051868Y032924D01*
X051872Y032928D01*
X051876Y032932D01*
X051880Y032935D01*
X051885Y032937D01*
X051890Y032939D01*
X051895Y032940D01*
X051900Y032940D01*
X056200D01*
X056205Y032940D01*
D02*
G37*
G36*
X062555Y022240D02*
X062560Y022239D01*
X062565Y022237D01*
X062570Y022235D01*
X062574Y022232D01*
X062578Y022228D01*
X062582Y022224D01*
X062585Y022220D01*
X062587Y022215D01*
X062589Y022210D01*
X062590Y022205D01*
X062590Y022200D01*
Y018900D01*
X062590Y018895D01*
X062589Y018890D01*
X062587Y018885D01*
X062585Y018880D01*
X062582Y018876D01*
X062578Y018872D01*
X062574Y018868D01*
X062570Y018865D01*
X062565Y018863D01*
X062560Y018861D01*
X062555Y018860D01*
X062550Y018860D01*
X060850D01*
X060845Y018860D01*
X060840Y018861D01*
X060835Y018863D01*
X060830Y018865D01*
X060826Y018868D01*
X060822Y018872D01*
X060818Y018876D01*
X060815Y018880D01*
X060813Y018885D01*
X060811Y018890D01*
X060810Y018895D01*
X060810Y018900D01*
Y022200D01*
X060810Y022205D01*
X060811Y022210D01*
X060813Y022215D01*
X060815Y022220D01*
X060818Y022224D01*
X060822Y022228D01*
X060826Y022232D01*
X060830Y022235D01*
X060835Y022237D01*
X060840Y022239D01*
X060845Y022240D01*
X060850Y022240D01*
X062550D01*
X062555Y022240D01*
D02*
G37*
D82*
X028250Y028590D02*
D03*
X028630Y027756D02*
D03*
X027876D02*
D03*
X032626D02*
D03*
X033380D02*
D03*
X033000Y028590D02*
D03*
X042076Y023706D02*
D03*
X042830D02*
D03*
X042450Y024540D02*
D03*
X037700D02*
D03*
X038080Y023706D02*
D03*
X037326D02*
D03*
X028250Y024540D02*
D03*
X028630Y023706D02*
D03*
X027876D02*
D03*
X023176Y023606D02*
D03*
X023930D02*
D03*
X023550Y024440D02*
D03*
X032576Y023706D02*
D03*
X033330D02*
D03*
X032950Y024540D02*
D03*
X037399Y031020D02*
D03*
X038153D02*
D03*
X037773Y031854D02*
D03*
X042473D02*
D03*
X042853Y031020D02*
D03*
X042099D02*
D03*
X033073Y031854D02*
D03*
X033453Y031020D02*
D03*
X032699D02*
D03*
X042099Y027770D02*
D03*
X042853D02*
D03*
X042473Y028604D02*
D03*
X037700Y028590D02*
D03*
X038080Y027756D02*
D03*
X037326D02*
D03*
D83*
X043300Y010425D02*
D03*
Y012275D02*
D03*
Y014200D02*
D03*
Y016050D02*
D03*
D84*
X050250Y022600D02*
D03*
Y029000D02*
D03*
D85*
X053994Y017850D02*
D03*
X052706D02*
D03*
D86*
X020809Y024350D02*
D03*
X019391D02*
D03*
D87*
X032453Y013311D02*
D03*
Y010791D02*
D03*
D88*
X028049Y013306D02*
D03*
Y012400D02*
D03*
Y011494D02*
D03*
D89*
X030451Y012400D02*
D03*
D90*
X031631Y028250D02*
D03*
X029269D02*
D03*
X036454Y031514D02*
D03*
X034092D02*
D03*
X041154D02*
D03*
X038792D02*
D03*
X045854D02*
D03*
X043492D02*
D03*
X045854Y028264D02*
D03*
X043492D02*
D03*
X041081Y028250D02*
D03*
X038719D02*
D03*
X036381D02*
D03*
X034019D02*
D03*
X045831Y024200D02*
D03*
X043469D02*
D03*
X041081D02*
D03*
X038719D02*
D03*
X026931Y024000D02*
D03*
X024569D02*
D03*
X031631Y024100D02*
D03*
X029269D02*
D03*
X036331D02*
D03*
X033969D02*
D03*
D91*
X066050Y026176D02*
D03*
Y025624D02*
D03*
X066650Y026176D02*
D03*
Y025624D02*
D03*
X048100Y012976D02*
D03*
Y012424D02*
D03*
X049100Y012300D02*
D03*
Y012851D02*
D03*
X047400Y012976D02*
D03*
Y012424D02*
D03*
X046700Y012976D02*
D03*
Y012424D02*
D03*
X049100Y011751D02*
D03*
Y011200D02*
D03*
D92*
X045524Y013550D02*
D03*
X046076D02*
D03*
D93*
X060100Y015855D02*
D03*
X065000D02*
D03*
D94*
X061600Y011839D02*
D03*
X061100D02*
D03*
X060600D02*
D03*
X059600D02*
D03*
X059100D02*
D03*
X058600D02*
D03*
X066500D02*
D03*
X066000D02*
D03*
X065500D02*
D03*
X064500D02*
D03*
X064000D02*
D03*
X063500D02*
D03*
D95*
X034550Y012987D02*
D03*
Y011413D02*
D03*
D96*
X036661Y019650D02*
D03*
D97*
X040343Y020989D02*
D03*
Y020319D02*
D03*
Y019650D02*
D03*
Y018981D02*
D03*
Y018311D02*
D03*
D98*
X065885Y031600D02*
D03*
X066515D02*
D03*
D99*
X046604Y017940D02*
D03*
X046860D02*
D03*
X047116D02*
D03*
X047372D02*
D03*
X047628D02*
D03*
X047884D02*
D03*
X048140D02*
D03*
X048396D02*
D03*
Y020160D02*
D03*
X048140D02*
D03*
X047884D02*
D03*
X047628D02*
D03*
X047372D02*
D03*
X047116D02*
D03*
X046860D02*
D03*
X046604D02*
D03*
D100*
X036629Y013350D02*
D03*
X040271D02*
D03*
D101*
X062650Y031575D02*
D03*
Y027325D02*
D03*
D102*
X043450Y018415D02*
D03*
Y021485D02*
D03*
D103*
X050550Y011900D02*
D03*
X055044D02*
D03*
X050550Y014310D02*
D03*
X055044D02*
D03*
D104*
X019794Y017726D02*
D03*
Y018480D02*
D03*
X018960Y018100D02*
D03*
D105*
X019883Y026571D02*
D03*
X020080D02*
D03*
X020277D02*
D03*
X020474D02*
D03*
X020670D02*
D03*
X020867D02*
D03*
X021064D02*
D03*
X021261D02*
D03*
X021458D02*
D03*
X021655D02*
D03*
X021852D02*
D03*
X022048D02*
D03*
X022245D02*
D03*
X022442D02*
D03*
X022639D02*
D03*
X022836D02*
D03*
X023033D02*
D03*
X023230D02*
D03*
X023426D02*
D03*
X023623D02*
D03*
X023820D02*
D03*
X024017D02*
D03*
X019883Y029229D02*
D03*
X020080D02*
D03*
X020277D02*
D03*
X020474D02*
D03*
X020670D02*
D03*
X020867D02*
D03*
X021064D02*
D03*
X021261D02*
D03*
X021458D02*
D03*
X021655D02*
D03*
X021852D02*
D03*
X022048D02*
D03*
X022245D02*
D03*
X022442D02*
D03*
X022639D02*
D03*
X022836D02*
D03*
X023033D02*
D03*
X023230D02*
D03*
X023426D02*
D03*
X023623D02*
D03*
X023820D02*
D03*
X024017D02*
D03*
D106*
X065450Y028335D02*
D03*
X065950D02*
D03*
X066450D02*
D03*
X066950D02*
D03*
X065450Y030265D02*
D03*
X065950D02*
D03*
X066450D02*
D03*
X066950D02*
D03*
D107*
X050550Y018064D02*
D03*
Y019836D02*
D03*
D108*
X046239Y016552D02*
D03*
Y016296D02*
D03*
Y016040D02*
D03*
Y015784D02*
D03*
Y015528D02*
D03*
Y015272D02*
D03*
Y015016D02*
D03*
Y014760D02*
D03*
Y014504D02*
D03*
Y014248D02*
D03*
X048561Y016552D02*
D03*
Y016296D02*
D03*
Y016040D02*
D03*
Y015784D02*
D03*
Y015528D02*
D03*
Y015272D02*
D03*
Y015016D02*
D03*
Y014760D02*
D03*
Y014504D02*
D03*
Y014248D02*
D03*
D109*
X047400Y015400D02*
D03*
D110*
X059685Y027550D02*
D03*
X056615D02*
D03*
D111*
X057645Y020100D02*
D03*
D112*
X061661Y021600D02*
D03*
Y021100D02*
D03*
Y020600D02*
D03*
Y019600D02*
D03*
Y019100D02*
D03*
Y018600D02*
D03*
D113*
X056566Y024802D02*
D03*
Y022998D02*
D03*
D114*
X059145Y023900D02*
D03*
D115*
X020809Y024350D02*
D03*
X019391D02*
D03*
D116*
X050550Y013100D02*
D03*
D117*
X056550Y023875D02*
D03*
D118*
X031131Y031300D02*
D03*
X027194D02*
D03*
X027981D02*
D03*
X028768D02*
D03*
X029558D02*
D03*
X030348D02*
D03*
X025624D02*
D03*
X024834D02*
D03*
X024044D02*
D03*
X023257D02*
D03*
X022469D02*
D03*
X026406D02*
D03*
X021140Y012900D02*
D03*
X021928D02*
D03*
X025865D02*
D03*
X025077D02*
D03*
X024290D02*
D03*
X023500D02*
D03*
X022710D02*
D03*
D119*
X020650Y031800D02*
D03*
X019300D02*
D03*
X019200Y011200D02*
D03*
Y015600D02*
D03*
D120*
X020650Y030800D02*
D03*
X019300D02*
D03*
X019200Y012200D02*
D03*
Y014600D02*
D03*
D121*
X052800Y011900D02*
D03*
Y013700D02*
D03*
D122*
X020950Y015700D02*
D03*
X021950D02*
D03*
X022950D02*
D03*
X023950D02*
D03*
X024950D02*
D03*
X025950D02*
D03*
X026950D02*
D03*
X027950D02*
D03*
X028950D02*
D03*
X029950D02*
D03*
X030950D02*
D03*
X031950D02*
D03*
X032950D02*
D03*
X033950D02*
D03*
Y016700D02*
D03*
Y017700D02*
D03*
Y018700D02*
D03*
Y019700D02*
D03*
Y020700D02*
D03*
Y021700D02*
D03*
X032950D02*
D03*
X031950D02*
D03*
X030950D02*
D03*
X029950D02*
D03*
X028950D02*
D03*
X027950D02*
D03*
X026950D02*
D03*
X025950D02*
D03*
X024950D02*
D03*
X023950D02*
D03*
X022950D02*
D03*
X021950D02*
D03*
X020950D02*
D03*
D123*
X020400Y028050D02*
D03*
X022400Y024200D02*
D03*
X022850Y024550D02*
D03*
X028650Y028950D02*
D03*
X028850Y027350D02*
D03*
X042544Y027199D02*
D03*
X026950Y027450D02*
D03*
X031450Y027200D02*
D03*
X032150Y027150D02*
D03*
X027800Y027250D02*
D03*
X033100Y027150D02*
D03*
X033600Y027300D02*
D03*
X032550Y028250D02*
D03*
X021638Y023845D02*
D03*
X033600Y013150D02*
D03*
X029200Y012800D02*
D03*
X027250Y012700D02*
D03*
X033450Y010750D02*
D03*
X037250Y028250D02*
D03*
Y024200D02*
D03*
X042023Y028264D02*
D03*
X043000Y023300D02*
D03*
X038300D02*
D03*
X043023Y027364D02*
D03*
X038323Y030664D02*
D03*
X033623Y030614D02*
D03*
X038300Y027300D02*
D03*
X024100Y023150D02*
D03*
X023600Y023100D02*
D03*
X028900Y023150D02*
D03*
X036550Y025050D02*
D03*
X036903Y024531D02*
D03*
X041200Y025150D02*
D03*
X028814Y024931D02*
D03*
X042100Y024100D02*
D03*
X041650Y024450D02*
D03*
X041500Y027250D02*
D03*
X037700Y027050D02*
D03*
X036850Y026950D02*
D03*
X027446Y024412D02*
D03*
X027900Y024150D02*
D03*
X027807Y024729D02*
D03*
X045500Y029200D02*
D03*
X044773Y030556D02*
D03*
X042500Y030500D02*
D03*
X039300Y029750D02*
D03*
X037650Y030250D02*
D03*
X019950Y025200D02*
D03*
X020700Y030050D02*
D03*
X019000Y028050D02*
D03*
X019750D02*
D03*
X021601Y030400D02*
D03*
X023750Y028550D02*
D03*
X022500Y028050D02*
D03*
X021100D02*
D03*
X021750D02*
D03*
X019100Y029650D02*
D03*
X020119Y029918D02*
D03*
X020100Y023600D02*
D03*
X023150Y030300D02*
D03*
X022049Y029899D02*
D03*
X022500Y030350D02*
D03*
X026900Y024000D02*
D03*
X033500Y023250D02*
D03*
X032500Y024200D02*
D03*
X032200Y024600D02*
D03*
X031300Y024900D02*
D03*
X035800Y025200D02*
D03*
X040550Y025250D02*
D03*
X027550Y028200D02*
D03*
X027821Y028700D02*
D03*
X031450Y028750D02*
D03*
X036100D02*
D03*
X040750Y028900D02*
D03*
X033050Y030550D02*
D03*
X034400Y030300D02*
D03*
X032269Y031450D02*
D03*
X037000Y031419D02*
D03*
X043023Y030614D02*
D03*
X041900Y032300D02*
D03*
X041700Y031600D02*
D03*
X056350Y027050D02*
D03*
X056900D02*
D03*
Y026500D02*
D03*
X056350D02*
D03*
X045700Y015350D02*
D03*
X045450Y014450D02*
D03*
X048350Y011350D02*
D03*
X046150Y012450D02*
D03*
X066900Y027200D02*
D03*
X066350Y027100D02*
D03*
X065850Y026900D02*
D03*
X045350Y025150D02*
D03*
X022900Y024050D02*
D03*
X046500Y013850D02*
D03*
X049174Y015326D02*
D03*
X048800Y016950D02*
D03*
X063500Y011850D02*
D03*
X048200Y013850D02*
D03*
X049300Y014600D02*
D03*
X049700Y015800D02*
D03*
Y016300D02*
D03*
X049150Y016200D02*
D03*
X019300Y025100D02*
D03*
X018960Y018560D02*
D03*
X058600Y011850D02*
D03*
D124*
X050550Y031250D02*
D03*
X027400Y032750D02*
D03*
X033050Y019950D02*
D03*
X019300Y020200D02*
D03*
X044450Y021450D02*
D03*
X042100Y011450D02*
D03*
X026541Y013100D02*
D03*
X030361Y012714D02*
D03*
X041800Y012600D02*
D03*
X055250Y017800D02*
D03*
X064850Y018950D02*
D03*
X065750Y018050D02*
D03*
X049436Y031736D02*
D03*
Y031200D02*
D03*
X049900Y020750D02*
D03*
X041850Y013850D02*
D03*
X038100Y016950D02*
D03*
X030150Y017800D02*
D03*
X049436Y030648D02*
D03*
X047050Y011300D02*
D03*
X053700Y016200D02*
D03*
X052050Y020000D02*
D03*
X049000Y019100D02*
D03*
X046100Y020200D02*
D03*
X044000Y022200D02*
D03*
X056500Y015750D02*
D03*
X051750Y017350D02*
D03*
X050650Y017400D02*
D03*
X065300Y018500D02*
D03*
X066750Y010950D02*
D03*
X066150D02*
D03*
X066750Y011550D02*
D03*
X066150D02*
D03*
X020100Y015100D02*
D03*
X024850Y019650D02*
D03*
X042500Y025900D02*
D03*
X042050Y020450D02*
D03*
X026300Y028550D02*
D03*
X047400Y014600D02*
D03*
X045550Y026850D02*
D03*
X031350Y030450D02*
D03*
X036350Y031150D02*
D03*
X062550Y013400D02*
D03*
X061650Y018550D02*
D03*
X026950Y011300D02*
D03*
X025100Y017300D02*
D03*
X021450Y018450D02*
D03*
X029250Y011950D02*
D03*
X027800Y014100D02*
D03*
X029900Y016650D02*
D03*
X045750Y022550D02*
D03*
X044800Y022350D02*
D03*
X045250Y021450D02*
D03*
X031600Y022950D02*
D03*
X031800Y020150D02*
D03*
X044950Y010900D02*
D03*
X066700Y024650D02*
D03*
X028050Y010250D02*
D03*
X041000Y016700D02*
D03*
M02*
