G04 Layer_Color=8388736*
%FSAX24Y24*%
%MOIN*%
G70*
G01*
G75*
%ADD62C,0.1220*%
%ADD100R,0.0414X0.0454*%
%ADD101R,0.1674X0.0453*%
%ADD102R,0.3525X0.4233*%
%ADD103R,0.0513X0.1123*%
%ADD104R,0.0158X0.0572*%
%ADD105R,0.0572X0.0158*%
%ADD106R,0.2088X0.1300*%
%ADD107R,0.0336X0.0414*%
%ADD108R,0.0414X0.0336*%
%ADD109R,0.0454X0.0414*%
%ADD110R,0.6810X0.1560*%
%ADD111R,0.0414X0.0375*%
%ADD112R,0.0540X0.0418*%
%ADD113R,0.0454X0.1320*%
%ADD114R,0.0178X0.0336*%
%ADD115R,0.0879X0.0375*%
%ADD116R,0.0217X0.0395*%
%ADD117R,0.1123X0.0513*%
%ADD118O,0.0690X0.0237*%
%ADD119R,0.0810X0.0810*%
%ADD120R,0.0810X0.0770*%
%ADD121R,0.0620X0.0200*%
%ADD122O,0.0158X0.0808*%
%ADD123R,0.0375X0.0375*%
%ADD124R,0.0308X0.0387*%
%ADD125R,0.0418X0.0540*%
%ADD126R,0.0690X0.0532*%
%ADD127R,0.1021X0.2265*%
%ADD128R,0.1021X0.0410*%
%ADD129R,0.0552X0.1379*%
%ADD130R,0.0414X0.0454*%
%ADD131R,0.0454X0.0414*%
%ADD132R,0.0457X0.0240*%
%ADD133O,0.0662X0.0202*%
%ADD134O,0.0662X0.0186*%
%ADD135R,0.0610X0.0690*%
%ADD136O,0.0158X0.0670*%
%ADD137O,0.0670X0.0158*%
G04:AMPARAMS|DCode=138|XSize=88.7mil|YSize=234.3mil|CornerRadius=44.3mil|HoleSize=0mil|Usage=FLASHONLY|Rotation=0.000|XOffset=0mil|YOffset=0mil|HoleType=Round|Shape=RoundedRectangle|*
%AMROUNDEDRECTD138*
21,1,0.0887,0.1457,0,0,0.0*
21,1,0.0000,0.2343,0,0,0.0*
1,1,0.0887,0.0000,-0.0728*
1,1,0.0887,0.0000,-0.0728*
1,1,0.0887,0.0000,0.0728*
1,1,0.0887,0.0000,0.0728*
%
%ADD138ROUNDEDRECTD138*%
%ADD139R,0.0532X0.1320*%
%ADD140R,0.0380X0.0420*%
%ADD141R,0.0847X0.0532*%
%ADD142R,0.2460X0.2560*%
%ADD143R,0.0690X0.0710*%
%ADD144C,0.0690*%
%ADD145C,0.0210*%
%ADD146C,0.0230*%
%ADD147C,0.0198*%
G36*
X063387Y061972D02*
X063387D01*
X063426Y061972D01*
X063427Y061972D01*
X063427Y061972D01*
X063429Y061972D01*
X063431Y061971D01*
X063432Y061971D01*
X063432Y061971D01*
X063508Y061956D01*
X063509Y061956D01*
X063509Y061956D01*
X063511Y061955D01*
X063513Y061955D01*
X063513Y061955D01*
X063514Y061954D01*
X063585Y061925D01*
X063586Y061924D01*
X063587Y061924D01*
X063588Y061923D01*
X063590Y061923D01*
X063590Y061922D01*
X063591Y061922D01*
X063655Y061879D01*
X063656Y061878D01*
X063656Y061878D01*
X063657Y061877D01*
X063659Y061876D01*
X063659Y061875D01*
X063660Y061875D01*
X063715Y061820D01*
X063715Y061820D01*
X063715Y061819D01*
X063716Y061818D01*
X063718Y061817D01*
X063718Y061816D01*
X063718Y061816D01*
X063761Y061751D01*
X063762Y061751D01*
X063762Y061750D01*
X063763Y061749D01*
X063764Y061747D01*
X063764Y061747D01*
X063764Y061746D01*
X063794Y061674D01*
X063794Y061674D01*
X063794Y061673D01*
X063795Y061672D01*
X063795Y061670D01*
X063795Y061669D01*
X063795Y061669D01*
X063811Y061593D01*
X063811Y061592D01*
X063811Y061591D01*
X063811Y061590D01*
X063811Y061588D01*
X063811Y061587D01*
X063811Y061587D01*
Y061548D01*
X063811Y060052D01*
X063811Y060052D01*
X063811Y060013D01*
X063811Y060013D01*
X063811Y060012D01*
X063811Y060010D01*
X063811Y060009D01*
X063811Y060008D01*
X063811Y060007D01*
X063795Y059931D01*
X063795Y059931D01*
X063795Y059930D01*
X063795Y059928D01*
X063794Y059927D01*
X063794Y059926D01*
X063794Y059926D01*
X063764Y059854D01*
X063764Y059853D01*
X063764Y059853D01*
X063763Y059851D01*
X063762Y059850D01*
X063762Y059849D01*
X063761Y059849D01*
X063718Y059784D01*
X063718Y059784D01*
X063718Y059783D01*
X063716Y059782D01*
X063715Y059781D01*
X063715Y059780D01*
X063714Y059780D01*
X063660Y059725D01*
X063659Y059725D01*
X063659Y059724D01*
X063657Y059723D01*
X063656Y059722D01*
X063656Y059722D01*
X063655Y059721D01*
X063591Y059678D01*
X063590Y059678D01*
X063590Y059677D01*
X063588Y059677D01*
X063586Y059676D01*
X063586Y059676D01*
X063585Y059675D01*
X063514Y059646D01*
X063513Y059645D01*
X063513Y059645D01*
X063511Y059645D01*
X063509Y059644D01*
X063509Y059644D01*
X063508Y059644D01*
X063432Y059629D01*
X063431Y059629D01*
X063431Y059629D01*
X063429Y059628D01*
X063427Y059628D01*
X063427Y059628D01*
X063426Y059628D01*
X063387Y059628D01*
X063387D01*
D01*
X062954Y059628D01*
X062954D01*
D01*
X062950Y059629D01*
X062945Y059630D01*
X062941Y059631D01*
X062938Y059633D01*
X062937Y059634D01*
X062933Y059637D01*
Y059637D01*
X062933D01*
X062930Y059641D01*
X062929Y059642D01*
X062928Y059645D01*
X062926Y059649D01*
X062925Y059654D01*
X062924Y059658D01*
Y059658D01*
D01*
Y061942D01*
X062924Y061943D01*
X062925Y061946D01*
X062926Y061951D01*
X062926Y061951D01*
Y061951D01*
X062928Y061955D01*
X062930Y061959D01*
X062930Y061959D01*
X062930Y061959D01*
X062930Y061959D01*
X062932Y061962D01*
X062933Y061963D01*
X062933Y061963D01*
X062933Y061963D01*
X062934Y061964D01*
X062937Y061966D01*
X062937Y061966D01*
X062937Y061966D01*
X062937Y061966D01*
X062941Y061969D01*
X062945Y061970D01*
X062945D01*
X062945Y061970D01*
X062950Y061971D01*
X062953Y061972D01*
X062954Y061972D01*
X063387Y061972D01*
X063387Y061972D01*
D02*
G37*
G36*
X062250Y061971D02*
X062255Y061970D01*
X062259Y061969D01*
X062263Y061966D01*
X062267Y061963D01*
X062270Y061959D01*
X062272Y061955D01*
X062274Y061951D01*
X062275Y061946D01*
X062276Y061942D01*
Y059658D01*
Y059658D01*
D01*
X062275Y059654D01*
X062274Y059649D01*
X062274Y059647D01*
X062272Y059645D01*
X062270Y059641D01*
X062267Y059637D01*
X062267D01*
Y059637D01*
X062263Y059634D01*
X062259Y059631D01*
X062257Y059630D01*
X062255Y059630D01*
X062250Y059629D01*
X062246Y059628D01*
X062246D01*
D01*
X061813Y059628D01*
X061774Y059628D01*
X061773Y059628D01*
X061773Y059628D01*
X061771Y059628D01*
X061769Y059629D01*
X061769Y059629D01*
X061768Y059629D01*
X061692Y059644D01*
X061691Y059644D01*
X061691Y059644D01*
X061689Y059645D01*
X061687Y059645D01*
X061687Y059645D01*
X061686Y059646D01*
X061615Y059675D01*
X061614Y059676D01*
X061614Y059676D01*
X061612Y059677D01*
X061610Y059677D01*
X061610Y059678D01*
X061609Y059678D01*
X061545Y059721D01*
X061544Y059722D01*
X061544Y059722D01*
X061543Y059723D01*
X061541Y059724D01*
X061541Y059724D01*
X061540Y059725D01*
X061486Y059780D01*
X061485Y059780D01*
X061485Y059781D01*
X061484Y059782D01*
X061482Y059783D01*
X061482Y059784D01*
X061482Y059784D01*
X061439Y059849D01*
X061438Y059849D01*
X061438Y059850D01*
X061437Y059851D01*
X061436Y059853D01*
X061436Y059853D01*
X061436Y059854D01*
X061406Y059926D01*
X061406Y059926D01*
X061406Y059927D01*
X061405Y059928D01*
X061405Y059930D01*
X061405Y059931D01*
X061405Y059931D01*
X061389Y060007D01*
X061389Y060008D01*
X061389Y060008D01*
X061389Y060010D01*
X061389Y060012D01*
X061389Y060013D01*
X061389Y060013D01*
X061389Y060052D01*
X061389Y060052D01*
X061389Y061548D01*
D01*
Y061548D01*
X061389Y061587D01*
X061389Y061587D01*
X061389Y061588D01*
X061389Y061590D01*
X061389Y061592D01*
X061389Y061592D01*
X061389Y061593D01*
X061405Y061669D01*
X061405Y061669D01*
X061405Y061670D01*
X061405Y061672D01*
X061406Y061673D01*
X061406Y061674D01*
X061406Y061674D01*
X061436Y061746D01*
X061436Y061747D01*
X061436Y061747D01*
X061437Y061749D01*
X061438Y061750D01*
X061438Y061751D01*
X061439Y061751D01*
X061482Y061816D01*
X061482Y061816D01*
X061482Y061817D01*
X061484Y061818D01*
X061485Y061819D01*
X061485Y061820D01*
X061486Y061820D01*
X061540Y061875D01*
X061541Y061875D01*
X061541Y061876D01*
X061543Y061877D01*
X061544Y061878D01*
X061544Y061878D01*
X061545Y061879D01*
X061609Y061922D01*
X061610Y061922D01*
X061610Y061923D01*
X061612Y061923D01*
X061614Y061924D01*
X061614Y061924D01*
X061615Y061925D01*
X061686Y061954D01*
X061687Y061955D01*
X061687Y061955D01*
X061689Y061955D01*
X061691Y061956D01*
X061691Y061956D01*
X061692Y061956D01*
X061768Y061971D01*
X061769Y061971D01*
X061769Y061971D01*
X061771Y061972D01*
X061773Y061972D01*
X061773Y061972D01*
X061774Y061972D01*
X061813D01*
X061813Y061972D01*
X062246Y061972D01*
X062250Y061971D01*
D02*
G37*
D62*
X062600Y068000D02*
D03*
X045800D02*
D03*
X045650Y041650D02*
D03*
X062700Y041500D02*
D03*
D100*
X047385Y059600D02*
D03*
X048015D02*
D03*
X061185Y058000D02*
D03*
X061815D02*
D03*
X047185Y057500D02*
D03*
X047815D02*
D03*
X047185Y058300D02*
D03*
X047815D02*
D03*
X062465Y063306D02*
D03*
X063095D02*
D03*
X060985Y063300D02*
D03*
X061615D02*
D03*
X059545D02*
D03*
X060175D02*
D03*
X058045D02*
D03*
X058675D02*
D03*
X056560Y063285D02*
D03*
X057190D02*
D03*
X055060D02*
D03*
X055690D02*
D03*
X053560D02*
D03*
X054190D02*
D03*
X052060D02*
D03*
X052690D02*
D03*
X050560D02*
D03*
X051190D02*
D03*
X049060D02*
D03*
X049690D02*
D03*
X047560D02*
D03*
X048190D02*
D03*
X046160D02*
D03*
X046790D02*
D03*
X056215Y056100D02*
D03*
X055585D02*
D03*
X057715Y055200D02*
D03*
X057085D02*
D03*
X060415D02*
D03*
X059785D02*
D03*
X059015D02*
D03*
X058385D02*
D03*
X049785Y053900D02*
D03*
X050415D02*
D03*
X047385Y056400D02*
D03*
X048015D02*
D03*
X057715Y056000D02*
D03*
X057085D02*
D03*
X057715Y056800D02*
D03*
X057085D02*
D03*
X047385Y055700D02*
D03*
X048015D02*
D03*
X045285Y052600D02*
D03*
X045915D02*
D03*
D101*
X059661Y041300D02*
D03*
Y041800D02*
D03*
Y042300D02*
D03*
Y043300D02*
D03*
Y043800D02*
D03*
Y044300D02*
D03*
D102*
X055645Y042800D02*
D03*
D103*
X062309Y057100D02*
D03*
X063491D02*
D03*
D104*
X048927Y051560D02*
D03*
X048730D02*
D03*
X048533D02*
D03*
X048336D02*
D03*
X048140D02*
D03*
X047943D02*
D03*
X047746D02*
D03*
X047549D02*
D03*
X047352D02*
D03*
X047155D02*
D03*
X046958D02*
D03*
X046762D02*
D03*
Y049395D02*
D03*
X046958D02*
D03*
X047155D02*
D03*
X047352D02*
D03*
X047549D02*
D03*
X047746D02*
D03*
X047943D02*
D03*
X048140D02*
D03*
X048336D02*
D03*
X048533D02*
D03*
X048730D02*
D03*
X048927D02*
D03*
D105*
X046368Y051068D02*
D03*
Y050871D02*
D03*
Y050674D02*
D03*
Y050478D02*
D03*
Y050281D02*
D03*
Y050084D02*
D03*
Y049887D02*
D03*
X049321D02*
D03*
Y050084D02*
D03*
Y050281D02*
D03*
Y050478D02*
D03*
Y050674D02*
D03*
Y050871D02*
D03*
Y051068D02*
D03*
D106*
X047844Y050478D02*
D03*
D107*
X045676Y048800D02*
D03*
X045124D02*
D03*
X046287Y046939D02*
D03*
X046838D02*
D03*
X046080Y046155D02*
D03*
X046631D02*
D03*
X049581Y048374D02*
D03*
X049030D02*
D03*
X047787Y047024D02*
D03*
X048338D02*
D03*
X055624Y056600D02*
D03*
X056176D02*
D03*
D108*
X046191Y047660D02*
D03*
Y048211D02*
D03*
X045800Y050076D02*
D03*
Y049524D02*
D03*
X045200Y050076D02*
D03*
Y049524D02*
D03*
X047463Y053099D02*
D03*
Y052548D02*
D03*
X046863Y052524D02*
D03*
Y053075D02*
D03*
X045363Y046924D02*
D03*
Y046373D02*
D03*
X046891Y048211D02*
D03*
Y047660D02*
D03*
X047591D02*
D03*
Y048211D02*
D03*
X051191Y048611D02*
D03*
Y048060D02*
D03*
X048163Y052566D02*
D03*
Y053117D02*
D03*
X051056Y051104D02*
D03*
Y051655D02*
D03*
X060500Y060924D02*
D03*
Y061476D02*
D03*
X060200Y055997D02*
D03*
Y056548D02*
D03*
X060800Y055997D02*
D03*
Y056548D02*
D03*
X061500Y055997D02*
D03*
Y056548D02*
D03*
X061100Y061476D02*
D03*
Y060924D02*
D03*
X059600Y056024D02*
D03*
Y056576D02*
D03*
X058400Y056024D02*
D03*
Y056576D02*
D03*
X059000Y056024D02*
D03*
Y056576D02*
D03*
D109*
X048391Y048251D02*
D03*
Y047621D02*
D03*
X045363Y047524D02*
D03*
Y048154D02*
D03*
X062680Y063991D02*
D03*
Y064621D02*
D03*
X061200Y063985D02*
D03*
Y064615D02*
D03*
X059760Y063985D02*
D03*
Y064615D02*
D03*
X058260Y063985D02*
D03*
Y064615D02*
D03*
X056775Y063970D02*
D03*
Y064600D02*
D03*
X055275Y063970D02*
D03*
Y064600D02*
D03*
X053775Y063970D02*
D03*
Y064600D02*
D03*
X052275Y063970D02*
D03*
Y064600D02*
D03*
X050775Y063970D02*
D03*
Y064600D02*
D03*
X049275Y063970D02*
D03*
Y064600D02*
D03*
X047775Y063970D02*
D03*
Y064600D02*
D03*
X046375Y063970D02*
D03*
Y064600D02*
D03*
X052600Y056415D02*
D03*
Y055785D02*
D03*
Y057715D02*
D03*
Y057085D02*
D03*
X053200Y059215D02*
D03*
Y058585D02*
D03*
X051400Y054685D02*
D03*
Y055315D02*
D03*
X052500Y059215D02*
D03*
Y058585D02*
D03*
X051900Y055800D02*
D03*
Y056430D02*
D03*
D110*
X059756Y053455D02*
D03*
Y047055D02*
D03*
D111*
X049012Y047274D02*
D03*
X049799Y047648D02*
D03*
Y046900D02*
D03*
D112*
X050306Y049818D02*
D03*
Y048531D02*
D03*
X051121Y049220D02*
D03*
Y050507D02*
D03*
X050306Y050431D02*
D03*
Y051718D02*
D03*
D113*
X054000Y046565D02*
D03*
Y049635D02*
D03*
D114*
X061409Y058520D02*
D03*
X061606D02*
D03*
X061803D02*
D03*
X062000D02*
D03*
Y059300D02*
D03*
X061803D02*
D03*
X061606D02*
D03*
X061409D02*
D03*
X061213D02*
D03*
Y058520D02*
D03*
D115*
X061606Y058910D02*
D03*
D116*
X063500Y062137D02*
D03*
Y063063D02*
D03*
D117*
X063200Y059291D02*
D03*
Y058109D02*
D03*
D118*
X053446Y044716D02*
D03*
Y044972D02*
D03*
Y045228D02*
D03*
Y045484D02*
D03*
X051754Y044716D02*
D03*
Y044972D02*
D03*
Y045228D02*
D03*
Y045484D02*
D03*
D119*
X045300Y057400D02*
D03*
Y058400D02*
D03*
D120*
Y056320D02*
D03*
Y059475D02*
D03*
D121*
X046350Y057640D02*
D03*
Y057900D02*
D03*
Y058156D02*
D03*
Y057380D02*
D03*
Y058412D02*
D03*
D122*
X055922Y058143D02*
D03*
X056119D02*
D03*
X056316D02*
D03*
X056513D02*
D03*
X056710D02*
D03*
X056906D02*
D03*
X057103D02*
D03*
X057300D02*
D03*
X057497D02*
D03*
X057694D02*
D03*
X057891D02*
D03*
X058088D02*
D03*
X058284D02*
D03*
X058481D02*
D03*
X058678D02*
D03*
X058875D02*
D03*
X059072D02*
D03*
X059269D02*
D03*
X059466D02*
D03*
X059662D02*
D03*
X059859D02*
D03*
X060056D02*
D03*
X055922Y060800D02*
D03*
X056119D02*
D03*
X056316D02*
D03*
X056513D02*
D03*
X056710D02*
D03*
X056906D02*
D03*
X057103D02*
D03*
X057300D02*
D03*
X057497D02*
D03*
X057694D02*
D03*
X057891D02*
D03*
X058088D02*
D03*
X058284D02*
D03*
X058481D02*
D03*
X058678D02*
D03*
X058875D02*
D03*
X059072D02*
D03*
X059269D02*
D03*
X059466D02*
D03*
X059662D02*
D03*
X059859D02*
D03*
X060056D02*
D03*
D123*
X063380Y063991D02*
D03*
Y064621D02*
D03*
X061900Y063985D02*
D03*
Y064615D02*
D03*
X060460Y063985D02*
D03*
Y064615D02*
D03*
X058960Y063985D02*
D03*
Y064615D02*
D03*
X057475Y063970D02*
D03*
Y064600D02*
D03*
X055975Y063970D02*
D03*
Y064600D02*
D03*
X054475Y063970D02*
D03*
Y064600D02*
D03*
X052975Y063970D02*
D03*
Y064600D02*
D03*
X051475Y063970D02*
D03*
Y064600D02*
D03*
X049975Y063970D02*
D03*
Y064600D02*
D03*
X048475Y063970D02*
D03*
Y064600D02*
D03*
X047075Y063970D02*
D03*
Y064600D02*
D03*
D124*
X062619Y062706D02*
D03*
X061741D02*
D03*
X061139Y062700D02*
D03*
X060261D02*
D03*
X059699D02*
D03*
X058821D02*
D03*
X058199D02*
D03*
X057321D02*
D03*
X056714Y062685D02*
D03*
X055836D02*
D03*
X055214Y062685D02*
D03*
X054336D02*
D03*
X053714Y062685D02*
D03*
X052836D02*
D03*
X052214D02*
D03*
X051336D02*
D03*
X050714D02*
D03*
X049836D02*
D03*
X049214Y062685D02*
D03*
X048336D02*
D03*
X047714Y062685D02*
D03*
X046836D02*
D03*
X046314Y062685D02*
D03*
X045436D02*
D03*
D125*
X063444Y056000D02*
D03*
X062156D02*
D03*
D126*
X061891Y055100D02*
D03*
X063309D02*
D03*
D127*
X053076Y042450D02*
D03*
X051124D02*
D03*
D128*
Y044078D02*
D03*
X053076D02*
D03*
D129*
X060581Y045400D02*
D03*
X058219D02*
D03*
D130*
X048707Y054085D02*
D03*
Y054715D02*
D03*
X047093Y054085D02*
D03*
Y054715D02*
D03*
D131*
X054600Y060100D02*
D03*
X053970D02*
D03*
X054600Y058486D02*
D03*
X053970D02*
D03*
D132*
X050412Y054516D02*
D03*
Y054772D02*
D03*
Y055028D02*
D03*
X049388D02*
D03*
Y054772D02*
D03*
Y054516D02*
D03*
Y055284D02*
D03*
X050412D02*
D03*
D133*
X051026Y044698D02*
D03*
Y045502D02*
D03*
X049174D02*
D03*
Y044698D02*
D03*
D134*
X051026Y044903D02*
D03*
Y045100D02*
D03*
Y045297D02*
D03*
X049174D02*
D03*
Y045100D02*
D03*
Y044903D02*
D03*
D135*
X054275Y055985D02*
D03*
Y057615D02*
D03*
X053325D02*
D03*
Y055985D02*
D03*
D136*
X051283Y056415D02*
D03*
X051086D02*
D03*
X050889D02*
D03*
X050692D02*
D03*
X050495D02*
D03*
X050298D02*
D03*
X050102D02*
D03*
X049905D02*
D03*
X049708D02*
D03*
X049511D02*
D03*
X049314D02*
D03*
X049117D02*
D03*
Y059585D02*
D03*
X049314D02*
D03*
X049511D02*
D03*
X049708D02*
D03*
X049905D02*
D03*
X050102D02*
D03*
X050298D02*
D03*
X050495D02*
D03*
X050692D02*
D03*
X050889D02*
D03*
X051086D02*
D03*
X051283D02*
D03*
D137*
X048615Y056917D02*
D03*
Y057114D02*
D03*
Y057311D02*
D03*
Y057508D02*
D03*
Y057705D02*
D03*
Y057902D02*
D03*
Y058098D02*
D03*
Y058295D02*
D03*
Y058492D02*
D03*
Y058689D02*
D03*
Y058886D02*
D03*
Y059083D02*
D03*
X051785D02*
D03*
Y058886D02*
D03*
Y058689D02*
D03*
Y058492D02*
D03*
Y058295D02*
D03*
Y058098D02*
D03*
Y057902D02*
D03*
Y057705D02*
D03*
Y057508D02*
D03*
Y057311D02*
D03*
Y057114D02*
D03*
Y056917D02*
D03*
D138*
X063368Y060800D02*
D03*
X061832D02*
D03*
D139*
X053956Y053936D02*
D03*
Y051574D02*
D03*
D140*
X062980Y065066D02*
D03*
X062600Y065900D02*
D03*
X063354D02*
D03*
X061874Y065894D02*
D03*
X061120D02*
D03*
X061500Y065060D02*
D03*
X060060Y065060D02*
D03*
X059680Y065894D02*
D03*
X060434D02*
D03*
X058934D02*
D03*
X058180D02*
D03*
X058560Y065060D02*
D03*
X057075Y065045D02*
D03*
X056695Y065879D02*
D03*
X057449D02*
D03*
X055949D02*
D03*
X055195D02*
D03*
X055575Y065045D02*
D03*
X054075D02*
D03*
X053695Y065879D02*
D03*
X054449D02*
D03*
X052949Y065879D02*
D03*
X052195D02*
D03*
X052575Y065045D02*
D03*
X051075D02*
D03*
X050695Y065879D02*
D03*
X051449D02*
D03*
X049949Y065879D02*
D03*
X049195D02*
D03*
X049575Y065045D02*
D03*
X048075Y065045D02*
D03*
X047695Y065879D02*
D03*
X048449D02*
D03*
X047049Y065879D02*
D03*
X046295D02*
D03*
X046675Y065045D02*
D03*
D141*
X050000Y043912D02*
D03*
Y042888D02*
D03*
Y041912D02*
D03*
Y040888D02*
D03*
D142*
X048000Y041950D02*
D03*
X062200Y043950D02*
D03*
D143*
X061891Y055100D02*
D03*
X063309D02*
D03*
D144*
X049800Y060700D02*
D03*
X049013D02*
D03*
X052287D02*
D03*
X051500D02*
D03*
X045500Y054100D02*
D03*
Y054887D02*
D03*
X045400Y044100D02*
D03*
Y044887D02*
D03*
X060111Y067700D02*
D03*
X059127D02*
D03*
X058143D02*
D03*
X057158D02*
D03*
X056174D02*
D03*
X055190D02*
D03*
X054206D02*
D03*
X053221D02*
D03*
X052237D02*
D03*
X051253D02*
D03*
X050269D02*
D03*
X049284D02*
D03*
X048300D02*
D03*
X047300Y060700D02*
D03*
X045725D02*
D03*
X046513D02*
D03*
X047700Y044900D02*
D03*
Y045687D02*
D03*
Y044113D02*
D03*
D145*
X049100Y058333D02*
D03*
X049856Y051355D02*
D03*
X045800Y051100D02*
D03*
X047963Y052024D02*
D03*
X059400Y054000D02*
D03*
Y052800D02*
D03*
Y053100D02*
D03*
Y053700D02*
D03*
Y053400D02*
D03*
X059700Y057600D02*
D03*
X050456Y046755D02*
D03*
X061900Y047600D02*
D03*
Y047300D02*
D03*
Y047000D02*
D03*
Y046700D02*
D03*
Y046400D02*
D03*
X061400D02*
D03*
Y046700D02*
D03*
Y047300D02*
D03*
Y047600D02*
D03*
Y047000D02*
D03*
X060363Y047586D02*
D03*
X059900Y046400D02*
D03*
Y046700D02*
D03*
Y047000D02*
D03*
X059400Y046400D02*
D03*
Y046700D02*
D03*
Y047000D02*
D03*
Y047300D02*
D03*
Y047600D02*
D03*
X058900D02*
D03*
Y047300D02*
D03*
Y046400D02*
D03*
Y046700D02*
D03*
Y047000D02*
D03*
X058400Y046400D02*
D03*
Y047600D02*
D03*
Y047300D02*
D03*
Y046700D02*
D03*
X057900Y046400D02*
D03*
Y046700D02*
D03*
Y047000D02*
D03*
Y047300D02*
D03*
Y047600D02*
D03*
X057400Y046700D02*
D03*
Y047000D02*
D03*
Y047300D02*
D03*
Y047600D02*
D03*
X058400Y047000D02*
D03*
X053900Y050700D02*
D03*
X054863Y049486D02*
D03*
X054400Y049500D02*
D03*
Y049800D02*
D03*
Y048900D02*
D03*
Y049200D02*
D03*
Y048600D02*
D03*
X054863Y048886D02*
D03*
Y049186D02*
D03*
Y048586D02*
D03*
X055572Y047555D02*
D03*
X047256Y052155D02*
D03*
X046756Y051955D02*
D03*
X059400Y049100D02*
D03*
X053400Y054500D02*
D03*
X051000Y057000D02*
D03*
X054400Y050700D02*
D03*
Y050400D02*
D03*
Y050100D02*
D03*
X053900Y050400D02*
D03*
Y050100D02*
D03*
Y049800D02*
D03*
Y049500D02*
D03*
Y048600D02*
D03*
Y049200D02*
D03*
Y048900D02*
D03*
X049793Y050069D02*
D03*
X059500Y059100D02*
D03*
X051400Y053800D02*
D03*
X046956Y048955D02*
D03*
X047385Y055700D02*
D03*
X058700Y066400D02*
D03*
X049063Y049239D02*
D03*
X062863Y052786D02*
D03*
Y053086D02*
D03*
Y053386D02*
D03*
Y053686D02*
D03*
Y053986D02*
D03*
X062363D02*
D03*
Y053686D02*
D03*
Y053386D02*
D03*
Y053086D02*
D03*
Y052786D02*
D03*
X061863Y053986D02*
D03*
Y053686D02*
D03*
Y053386D02*
D03*
Y053086D02*
D03*
Y052786D02*
D03*
X061363Y053986D02*
D03*
Y053686D02*
D03*
Y053386D02*
D03*
Y053086D02*
D03*
Y052786D02*
D03*
X060863Y053986D02*
D03*
Y053686D02*
D03*
Y053386D02*
D03*
Y053086D02*
D03*
Y052786D02*
D03*
X060363Y053986D02*
D03*
Y053686D02*
D03*
Y053386D02*
D03*
Y053086D02*
D03*
Y052786D02*
D03*
X059863Y053986D02*
D03*
Y053686D02*
D03*
Y053386D02*
D03*
Y053086D02*
D03*
Y052786D02*
D03*
X058863Y053986D02*
D03*
Y053686D02*
D03*
Y053386D02*
D03*
Y053086D02*
D03*
Y052786D02*
D03*
X058363Y053986D02*
D03*
Y053686D02*
D03*
Y053386D02*
D03*
Y053086D02*
D03*
Y052786D02*
D03*
X057863Y053986D02*
D03*
Y053686D02*
D03*
Y053386D02*
D03*
Y053086D02*
D03*
Y052786D02*
D03*
X057363Y053986D02*
D03*
Y053686D02*
D03*
X060363Y046386D02*
D03*
Y046686D02*
D03*
Y046986D02*
D03*
Y047286D02*
D03*
X060863Y046386D02*
D03*
Y046686D02*
D03*
Y046986D02*
D03*
Y047286D02*
D03*
Y047586D02*
D03*
X062363Y046386D02*
D03*
Y046686D02*
D03*
Y046986D02*
D03*
Y047286D02*
D03*
Y047586D02*
D03*
X062863D02*
D03*
Y047286D02*
D03*
Y046986D02*
D03*
Y046686D02*
D03*
Y046386D02*
D03*
X055972Y047155D02*
D03*
Y046755D02*
D03*
X055128Y046710D02*
D03*
Y046310D02*
D03*
X055572Y046755D02*
D03*
Y047155D02*
D03*
X055128Y047510D02*
D03*
Y047110D02*
D03*
X060260Y063700D02*
D03*
X063180Y063706D02*
D03*
X061700Y063700D02*
D03*
X061400Y062700D02*
D03*
X058760Y063700D02*
D03*
X052775Y063685D02*
D03*
X052675Y066385D02*
D03*
X059960Y062700D02*
D03*
X046775Y066385D02*
D03*
X046875Y063685D02*
D03*
X048275D02*
D03*
X047975Y062685D02*
D03*
X049675Y066385D02*
D03*
X049775Y063685D02*
D03*
X049475Y062685D02*
D03*
X051175Y066385D02*
D03*
X051275Y063685D02*
D03*
X050975Y062685D02*
D03*
X054175Y066385D02*
D03*
X054275Y063685D02*
D03*
X055775D02*
D03*
X057175Y066385D02*
D03*
X057275Y063685D02*
D03*
X056975Y062685D02*
D03*
X055475D02*
D03*
X052475D02*
D03*
X046575D02*
D03*
X055675Y066385D02*
D03*
X063080Y066406D02*
D03*
X060200Y066400D02*
D03*
X061600D02*
D03*
X053975Y062685D02*
D03*
X058460Y062700D02*
D03*
X049863Y050924D02*
D03*
X054163Y053986D02*
D03*
X053863D02*
D03*
X054156Y054255D02*
D03*
X053856D02*
D03*
X051100Y049800D02*
D03*
X060415Y055200D02*
D03*
X059015D02*
D03*
X057715D02*
D03*
X056215Y056100D02*
D03*
X057900Y060000D02*
D03*
Y059100D02*
D03*
X054600Y060000D02*
D03*
X052500Y059300D02*
D03*
X053500Y056800D02*
D03*
X048100Y057100D02*
D03*
X062500Y062700D02*
D03*
X051456Y053055D02*
D03*
X048363Y052024D02*
D03*
X052200Y054300D02*
D03*
X049600Y058900D02*
D03*
X050300Y058100D02*
D03*
X049900Y058000D02*
D03*
X051800Y055400D02*
D03*
X059900Y058700D02*
D03*
X060176Y058000D02*
D03*
X055928Y047510D02*
D03*
X059763Y051224D02*
D03*
X049000Y060100D02*
D03*
X052000Y054800D02*
D03*
X048175Y066385D02*
D03*
X059763Y050545D02*
D03*
X051100Y059122D02*
D03*
X050700Y059100D02*
D03*
X050200Y059000D02*
D03*
X050900Y060100D02*
D03*
X050600Y060300D02*
D03*
X049856Y051755D02*
D03*
D146*
X048500Y056300D02*
D03*
X046300Y044800D02*
D03*
X051400Y045000D02*
D03*
X057400Y045400D02*
D03*
X059900Y047600D02*
D03*
Y047300D02*
D03*
X044900Y042700D02*
D03*
Y043100D02*
D03*
X049340Y060022D02*
D03*
X046400Y056700D02*
D03*
X052900Y044800D02*
D03*
Y045100D02*
D03*
X058000Y041400D02*
D03*
X053100Y046600D02*
D03*
X053400Y049800D02*
D03*
X051800Y048200D02*
D03*
X051700Y049800D02*
D03*
X057700Y045841D02*
D03*
X063500Y057400D02*
D03*
Y056800D02*
D03*
X063200Y058109D02*
D03*
X062900Y058100D02*
D03*
X063500D02*
D03*
Y057100D02*
D03*
X063200Y059300D02*
D03*
X063500D02*
D03*
X062900D02*
D03*
X058500Y059700D02*
D03*
X052500Y058700D02*
D03*
X063300Y054900D02*
D03*
X062100Y059300D02*
D03*
X046656Y049355D02*
D03*
X045800Y045500D02*
D03*
X047100Y046400D02*
D03*
X049700Y053000D02*
D03*
X048500Y044100D02*
D03*
Y045700D02*
D03*
Y043700D02*
D03*
Y044500D02*
D03*
X053300Y053100D02*
D03*
X049500Y053800D02*
D03*
X051000Y055700D02*
D03*
X048008Y060750D02*
D03*
X054700Y056800D02*
D03*
X053700Y041000D02*
D03*
X050000Y054500D02*
D03*
X053538Y058266D02*
D03*
X048500Y045300D02*
D03*
Y044900D02*
D03*
X060700Y045500D02*
D03*
X050090Y060008D02*
D03*
X047556Y046555D02*
D03*
D147*
X048710Y050911D02*
D03*
Y050478D02*
D03*
Y050044D02*
D03*
X048277Y050911D02*
D03*
Y050478D02*
D03*
Y050044D02*
D03*
X047844Y050911D02*
D03*
Y050478D02*
D03*
Y050044D02*
D03*
X047411Y050911D02*
D03*
Y050478D02*
D03*
Y050044D02*
D03*
X046978Y050911D02*
D03*
Y050478D02*
D03*
Y050044D02*
D03*
M02*
