G04 Layer_Color=8421504*
%FSAX24Y24*%
%MOIN*%
G70*
G01*
G75*
%ADD10R,0.0354X0.0394*%
%ADD11R,0.1634X0.0413*%
%ADD12R,0.3465X0.4173*%
%ADD13R,0.0453X0.1063*%
%ADD14R,0.0098X0.0512*%
%ADD15R,0.0512X0.0098*%
%ADD16R,0.2028X0.1240*%
%ADD17R,0.0276X0.0354*%
%ADD18R,0.0354X0.0276*%
%ADD19R,0.0394X0.0354*%
%ADD20R,0.6750X0.1500*%
%ADD21R,0.0354X0.0315*%
%ADD22R,0.0480X0.0358*%
%ADD23R,0.0394X0.1260*%
%ADD24R,0.0118X0.0276*%
%ADD25R,0.0819X0.0315*%
%ADD26R,0.0157X0.0335*%
%ADD27R,0.1063X0.0453*%
%ADD28O,0.0630X0.0177*%
%ADD29R,0.0750X0.0750*%
%ADD30R,0.0750X0.0710*%
%ADD31R,0.0560X0.0140*%
%ADD32O,0.0098X0.0748*%
%ADD33R,0.0315X0.0315*%
%ADD34R,0.0248X0.0327*%
%ADD35R,0.0358X0.0480*%
%ADD36R,0.0630X0.0472*%
%ADD37R,0.0961X0.2205*%
%ADD38R,0.0961X0.0350*%
%ADD39R,0.0492X0.1319*%
%ADD40R,0.0354X0.0394*%
%ADD41R,0.0394X0.0354*%
%ADD42R,0.0394X0.0177*%
%ADD43O,0.0602X0.0142*%
%ADD44O,0.0602X0.0126*%
%ADD45R,0.0550X0.0630*%
%ADD46O,0.0098X0.0610*%
%ADD47O,0.0610X0.0098*%
G04:AMPARAMS|DCode=48|XSize=82.7mil|YSize=228.3mil|CornerRadius=41.3mil|HoleSize=0mil|Usage=FLASHONLY|Rotation=0.000|XOffset=0mil|YOffset=0mil|HoleType=Round|Shape=RoundedRectangle|*
%AMROUNDEDRECTD48*
21,1,0.0827,0.1457,0,0,0.0*
21,1,0.0000,0.2283,0,0,0.0*
1,1,0.0827,0.0000,-0.0728*
1,1,0.0827,0.0000,-0.0728*
1,1,0.0827,0.0000,0.0728*
1,1,0.0827,0.0000,0.0728*
%
%ADD48ROUNDEDRECTD48*%
%ADD49R,0.0472X0.1260*%
%ADD50R,0.0320X0.0360*%
%ADD51R,0.0787X0.0472*%
%ADD61R,0.0630X0.0650*%
G36*
X063387Y061942D02*
X063426Y061942D01*
X063502Y061927D01*
X063574Y061897D01*
X063638Y061854D01*
X063693Y061799D01*
X063736Y061734D01*
X063766Y061663D01*
X063781Y061587D01*
Y061548D01*
X063781Y060052D01*
X063781Y060052D01*
X063781Y060013D01*
X063766Y059937D01*
X063736Y059865D01*
X063693Y059801D01*
X063638Y059746D01*
X063574Y059703D01*
X063502Y059673D01*
X063426Y059658D01*
X063387Y059658D01*
X062954Y059658D01*
Y061942D01*
X063387Y061942D01*
X063387Y061942D01*
D02*
G37*
G36*
X062246Y059658D02*
X061813Y059658D01*
X061774Y059658D01*
X061698Y059673D01*
X061626Y059703D01*
X061562Y059746D01*
X061507Y059801D01*
X061464Y059865D01*
X061434Y059937D01*
X061419Y060013D01*
X061419Y060052D01*
X061419Y060052D01*
X061419Y061548D01*
X061419Y061587D01*
X061434Y061663D01*
X061464Y061735D01*
X061507Y061799D01*
X061562Y061854D01*
X061626Y061897D01*
X061698Y061927D01*
X061774Y061942D01*
X061813D01*
X061813Y061942D01*
X062246Y061942D01*
Y059658D01*
D02*
G37*
D10*
X047385Y059600D02*
D03*
X048015D02*
D03*
X061185Y058000D02*
D03*
X061815D02*
D03*
X047185Y057500D02*
D03*
X047815D02*
D03*
X047185Y058300D02*
D03*
X047815D02*
D03*
X062465Y063306D02*
D03*
X063095D02*
D03*
X060985Y063300D02*
D03*
X061615D02*
D03*
X059545D02*
D03*
X060175D02*
D03*
X058045D02*
D03*
X058675D02*
D03*
X056560Y063285D02*
D03*
X057190D02*
D03*
X055060D02*
D03*
X055690D02*
D03*
X053560D02*
D03*
X054190D02*
D03*
X052060D02*
D03*
X052690D02*
D03*
X050560D02*
D03*
X051190D02*
D03*
X049060D02*
D03*
X049690D02*
D03*
X047560D02*
D03*
X048190D02*
D03*
X046160D02*
D03*
X046790D02*
D03*
X056215Y056100D02*
D03*
X055585D02*
D03*
X057715Y055200D02*
D03*
X057085D02*
D03*
X060415D02*
D03*
X059785D02*
D03*
X059015D02*
D03*
X058385D02*
D03*
X049785Y053900D02*
D03*
X050415D02*
D03*
X047385Y056400D02*
D03*
X048015D02*
D03*
X057715Y056000D02*
D03*
X057085D02*
D03*
X057715Y056800D02*
D03*
X057085D02*
D03*
X047385Y055700D02*
D03*
X048015D02*
D03*
X045285Y052600D02*
D03*
X045915D02*
D03*
D11*
X059661Y041300D02*
D03*
Y041800D02*
D03*
Y042300D02*
D03*
Y043300D02*
D03*
Y043800D02*
D03*
Y044300D02*
D03*
D12*
X055645Y042800D02*
D03*
D13*
X062309Y057100D02*
D03*
X063491D02*
D03*
D14*
X048927Y051560D02*
D03*
X048730D02*
D03*
X048533D02*
D03*
X048336D02*
D03*
X048140D02*
D03*
X047943D02*
D03*
X047746D02*
D03*
X047549D02*
D03*
X047352D02*
D03*
X047155D02*
D03*
X046958D02*
D03*
X046762D02*
D03*
Y049395D02*
D03*
X046958D02*
D03*
X047155D02*
D03*
X047352D02*
D03*
X047549D02*
D03*
X047746D02*
D03*
X047943D02*
D03*
X048140D02*
D03*
X048336D02*
D03*
X048533D02*
D03*
X048730D02*
D03*
X048927D02*
D03*
D15*
X046368Y051068D02*
D03*
Y050871D02*
D03*
Y050674D02*
D03*
Y050478D02*
D03*
Y050281D02*
D03*
Y050084D02*
D03*
Y049887D02*
D03*
X049321D02*
D03*
Y050084D02*
D03*
Y050281D02*
D03*
Y050478D02*
D03*
Y050674D02*
D03*
Y050871D02*
D03*
Y051068D02*
D03*
D16*
X047844Y050478D02*
D03*
D17*
X045676Y048800D02*
D03*
X045124D02*
D03*
X046287Y046939D02*
D03*
X046838D02*
D03*
X046080Y046155D02*
D03*
X046631D02*
D03*
X049581Y048374D02*
D03*
X049030D02*
D03*
X047787Y047024D02*
D03*
X048338D02*
D03*
X055624Y056600D02*
D03*
X056176D02*
D03*
D18*
X046191Y047660D02*
D03*
Y048211D02*
D03*
X045800Y050076D02*
D03*
Y049524D02*
D03*
X045200Y050076D02*
D03*
Y049524D02*
D03*
X047463Y053099D02*
D03*
Y052548D02*
D03*
X046863Y052524D02*
D03*
Y053075D02*
D03*
X045363Y046924D02*
D03*
Y046373D02*
D03*
X046891Y048211D02*
D03*
Y047660D02*
D03*
X047591D02*
D03*
Y048211D02*
D03*
X051191Y048611D02*
D03*
Y048060D02*
D03*
X048163Y052566D02*
D03*
Y053117D02*
D03*
X051056Y051104D02*
D03*
Y051655D02*
D03*
X060500Y060924D02*
D03*
Y061476D02*
D03*
X060200Y055997D02*
D03*
Y056548D02*
D03*
X060800Y055997D02*
D03*
Y056548D02*
D03*
X061500Y055997D02*
D03*
Y056548D02*
D03*
X061100Y061476D02*
D03*
Y060924D02*
D03*
X059600Y056024D02*
D03*
Y056576D02*
D03*
X058400Y056024D02*
D03*
Y056576D02*
D03*
X059000Y056024D02*
D03*
Y056576D02*
D03*
D19*
X048391Y048251D02*
D03*
Y047621D02*
D03*
X045363Y047524D02*
D03*
Y048154D02*
D03*
X062680Y063991D02*
D03*
Y064621D02*
D03*
X061200Y063985D02*
D03*
Y064615D02*
D03*
X059760Y063985D02*
D03*
Y064615D02*
D03*
X058260Y063985D02*
D03*
Y064615D02*
D03*
X056775Y063970D02*
D03*
Y064600D02*
D03*
X055275Y063970D02*
D03*
Y064600D02*
D03*
X053775Y063970D02*
D03*
Y064600D02*
D03*
X052275Y063970D02*
D03*
Y064600D02*
D03*
X050775Y063970D02*
D03*
Y064600D02*
D03*
X049275Y063970D02*
D03*
Y064600D02*
D03*
X047775Y063970D02*
D03*
Y064600D02*
D03*
X046375Y063970D02*
D03*
Y064600D02*
D03*
X052600Y056415D02*
D03*
Y055785D02*
D03*
Y057715D02*
D03*
Y057085D02*
D03*
X053200Y059215D02*
D03*
Y058585D02*
D03*
X051400Y054685D02*
D03*
Y055315D02*
D03*
X052500Y059215D02*
D03*
Y058585D02*
D03*
X051900Y055800D02*
D03*
Y056430D02*
D03*
D20*
X059756Y053455D02*
D03*
Y047055D02*
D03*
D21*
X049012Y047274D02*
D03*
X049799Y047648D02*
D03*
Y046900D02*
D03*
D22*
X050306Y049818D02*
D03*
Y048531D02*
D03*
X051121Y049220D02*
D03*
Y050507D02*
D03*
X050306Y050431D02*
D03*
Y051718D02*
D03*
D23*
X054000Y046565D02*
D03*
Y049635D02*
D03*
D24*
X061409Y058520D02*
D03*
X061606D02*
D03*
X061803D02*
D03*
X062000D02*
D03*
Y059300D02*
D03*
X061803D02*
D03*
X061606D02*
D03*
X061409D02*
D03*
X061213D02*
D03*
Y058520D02*
D03*
D25*
X061606Y058910D02*
D03*
D26*
X063500Y062137D02*
D03*
Y063063D02*
D03*
D27*
X063200Y059291D02*
D03*
Y058109D02*
D03*
D28*
X053446Y044716D02*
D03*
Y044972D02*
D03*
Y045228D02*
D03*
Y045484D02*
D03*
X051754Y044716D02*
D03*
Y044972D02*
D03*
Y045228D02*
D03*
Y045484D02*
D03*
D29*
X045300Y057400D02*
D03*
Y058400D02*
D03*
D30*
Y056320D02*
D03*
Y059475D02*
D03*
D31*
X046350Y057640D02*
D03*
Y057900D02*
D03*
Y058156D02*
D03*
Y057380D02*
D03*
Y058412D02*
D03*
D32*
X055922Y058143D02*
D03*
X056119D02*
D03*
X056316D02*
D03*
X056513D02*
D03*
X056710D02*
D03*
X056906D02*
D03*
X057103D02*
D03*
X057300D02*
D03*
X057497D02*
D03*
X057694D02*
D03*
X057891D02*
D03*
X058088D02*
D03*
X058284D02*
D03*
X058481D02*
D03*
X058678D02*
D03*
X058875D02*
D03*
X059072D02*
D03*
X059269D02*
D03*
X059466D02*
D03*
X059662D02*
D03*
X059859D02*
D03*
X060056D02*
D03*
X055922Y060800D02*
D03*
X056119D02*
D03*
X056316D02*
D03*
X056513D02*
D03*
X056710D02*
D03*
X056906D02*
D03*
X057103D02*
D03*
X057300D02*
D03*
X057497D02*
D03*
X057694D02*
D03*
X057891D02*
D03*
X058088D02*
D03*
X058284D02*
D03*
X058481D02*
D03*
X058678D02*
D03*
X058875D02*
D03*
X059072D02*
D03*
X059269D02*
D03*
X059466D02*
D03*
X059662D02*
D03*
X059859D02*
D03*
X060056D02*
D03*
D33*
X063380Y063991D02*
D03*
Y064621D02*
D03*
X061900Y063985D02*
D03*
Y064615D02*
D03*
X060460Y063985D02*
D03*
Y064615D02*
D03*
X058960Y063985D02*
D03*
Y064615D02*
D03*
X057475Y063970D02*
D03*
Y064600D02*
D03*
X055975Y063970D02*
D03*
Y064600D02*
D03*
X054475Y063970D02*
D03*
Y064600D02*
D03*
X052975Y063970D02*
D03*
Y064600D02*
D03*
X051475Y063970D02*
D03*
Y064600D02*
D03*
X049975Y063970D02*
D03*
Y064600D02*
D03*
X048475Y063970D02*
D03*
Y064600D02*
D03*
X047075Y063970D02*
D03*
Y064600D02*
D03*
D34*
X062619Y062706D02*
D03*
X061741D02*
D03*
X061139Y062700D02*
D03*
X060261D02*
D03*
X059699D02*
D03*
X058821D02*
D03*
X058199D02*
D03*
X057321D02*
D03*
X056714Y062685D02*
D03*
X055836D02*
D03*
X055214Y062685D02*
D03*
X054336D02*
D03*
X053714Y062685D02*
D03*
X052836D02*
D03*
X052214D02*
D03*
X051336D02*
D03*
X050714D02*
D03*
X049836D02*
D03*
X049214Y062685D02*
D03*
X048336D02*
D03*
X047714Y062685D02*
D03*
X046836D02*
D03*
X046314Y062685D02*
D03*
X045436D02*
D03*
D35*
X063444Y056000D02*
D03*
X062156D02*
D03*
D36*
X061891Y055100D02*
D03*
X063309D02*
D03*
D37*
X053076Y042450D02*
D03*
X051124D02*
D03*
D38*
Y044078D02*
D03*
X053076D02*
D03*
D39*
X060581Y045400D02*
D03*
X058219D02*
D03*
D40*
X048707Y054085D02*
D03*
Y054715D02*
D03*
X047093Y054085D02*
D03*
Y054715D02*
D03*
D41*
X054600Y060100D02*
D03*
X053970D02*
D03*
X054600Y058486D02*
D03*
X053970D02*
D03*
D42*
X050412Y054516D02*
D03*
Y054772D02*
D03*
Y055028D02*
D03*
X049388D02*
D03*
Y054772D02*
D03*
Y054516D02*
D03*
Y055284D02*
D03*
X050412D02*
D03*
D43*
X051026Y044698D02*
D03*
Y045502D02*
D03*
X049174D02*
D03*
Y044698D02*
D03*
D44*
X051026Y044903D02*
D03*
Y045100D02*
D03*
Y045297D02*
D03*
X049174D02*
D03*
Y045100D02*
D03*
Y044903D02*
D03*
D45*
X054275Y055985D02*
D03*
Y057615D02*
D03*
X053325D02*
D03*
Y055985D02*
D03*
D46*
X051283Y056415D02*
D03*
X051086D02*
D03*
X050889D02*
D03*
X050692D02*
D03*
X050495D02*
D03*
X050298D02*
D03*
X050102D02*
D03*
X049905D02*
D03*
X049708D02*
D03*
X049511D02*
D03*
X049314D02*
D03*
X049117D02*
D03*
Y059585D02*
D03*
X049314D02*
D03*
X049511D02*
D03*
X049708D02*
D03*
X049905D02*
D03*
X050102D02*
D03*
X050298D02*
D03*
X050495D02*
D03*
X050692D02*
D03*
X050889D02*
D03*
X051086D02*
D03*
X051283D02*
D03*
D47*
X048615Y056917D02*
D03*
Y057114D02*
D03*
Y057311D02*
D03*
Y057508D02*
D03*
Y057705D02*
D03*
Y057902D02*
D03*
Y058098D02*
D03*
Y058295D02*
D03*
Y058492D02*
D03*
Y058689D02*
D03*
Y058886D02*
D03*
Y059083D02*
D03*
X051785D02*
D03*
Y058886D02*
D03*
Y058689D02*
D03*
Y058492D02*
D03*
Y058295D02*
D03*
Y058098D02*
D03*
Y057902D02*
D03*
Y057705D02*
D03*
Y057508D02*
D03*
Y057311D02*
D03*
Y057114D02*
D03*
Y056917D02*
D03*
D48*
X063368Y060800D02*
D03*
X061832D02*
D03*
D49*
X053956Y053936D02*
D03*
Y051574D02*
D03*
D50*
X062980Y065066D02*
D03*
X062600Y065900D02*
D03*
X063354D02*
D03*
X061874Y065894D02*
D03*
X061120D02*
D03*
X061500Y065060D02*
D03*
X060060Y065060D02*
D03*
X059680Y065894D02*
D03*
X060434D02*
D03*
X058934D02*
D03*
X058180D02*
D03*
X058560Y065060D02*
D03*
X057075Y065045D02*
D03*
X056695Y065879D02*
D03*
X057449D02*
D03*
X055949D02*
D03*
X055195D02*
D03*
X055575Y065045D02*
D03*
X054075D02*
D03*
X053695Y065879D02*
D03*
X054449D02*
D03*
X052949Y065879D02*
D03*
X052195D02*
D03*
X052575Y065045D02*
D03*
X051075D02*
D03*
X050695Y065879D02*
D03*
X051449D02*
D03*
X049949Y065879D02*
D03*
X049195D02*
D03*
X049575Y065045D02*
D03*
X048075Y065045D02*
D03*
X047695Y065879D02*
D03*
X048449D02*
D03*
X047049Y065879D02*
D03*
X046295D02*
D03*
X046675Y065045D02*
D03*
D51*
X050000Y043912D02*
D03*
Y042888D02*
D03*
Y041912D02*
D03*
Y040888D02*
D03*
D61*
X061891Y055100D02*
D03*
X063309D02*
D03*
M02*
