M48
;Layer_Color=9474304
;FILE_FORMAT=2:4
INCH
;TYPE=PLATED
T1F00S00C0.0118
T2F00S00C0.0200
T3F00S00C0.0280
T4F00S00C0.0315
T5F00S00C0.0354
T6F00S00C0.0380
T7F00S00C0.2010
%
T01
X053467Y015634
Y016067
X053900
Y015634
X054333
Y016067
Y016500
X053900
X053467
Y016933
X053900
X054333
Y017366
X053900
X053467
T02
X048700Y011800
X049200
X049600Y012600
X048600
X051900Y014500
X051850Y015000
X052297Y015252
X052400Y014700
X052900
X053400Y014500
X054000Y014469
X054500
X055000Y015100
X055508Y015321
X058102Y014680
X058100Y013900
X058600Y014250
X063500
X066400Y023000
X067300Y022907
X066200Y024100
X065700Y024400
X065200Y024600
X066300Y025000
X066800Y025500
X066500Y026100
X065800Y025900
X059700Y024700
X059765Y022819
X057500Y026700
X056800
X054600
X051816Y025136
X047666
X047016Y025236
X048116Y024436
X048566Y024086
X049466Y023286
X049489Y027350
X049009Y027185
X047966Y027236
X048489Y028250
X047216Y028886
X048966Y030486
X049489Y030600
X051239Y030542
X051966Y029186
X052081Y017600
X052100Y017100
X051900Y016600
X051800Y016100
X052833Y018200
X053433Y018600
X055300Y019700
X056200Y018800
Y017700
X055700Y017300
X056400Y016299
X056300Y015724
X057700Y016200
X040000Y017300
X040200Y018700
X039966Y023236
X038966Y024186
X038666Y024586
X037766Y024886
X037916Y027186
X038616Y027136
X039566
X040066Y027286
X039016Y028236
X037916Y028736
X035116Y028936
X034287Y028686
X034016Y028186
X034266Y027236
X033416Y027436
X035316Y027336
X035279Y024917
X034272Y024715
X034366Y024136
X033912Y024398
X033366Y023986
X035366Y023136
X042266Y025186
X043016Y025036
X043369Y024517
X043716Y024186
X044766Y023286
Y027286
X044166Y027036
X043316Y026936
X043716Y028236
X042566Y028736
X044116Y030236
X044789Y030650
X045766Y029736
X040866Y030286
X040089Y030600
X039516Y030536
X029616Y030286
X028966Y030336
X028514Y029885
X028067Y030386
X027166Y030036
X026584Y029903
X025566Y029636
X025466Y028036
X026216
X026866Y028036
X027566Y028036
X028216
X028966
X030216Y028536
X029316Y024536
X029366Y024036
X028866Y024186
X028104Y023831
X026566Y023586
X026416Y025186
X025766Y025086
X025381Y025700
X025300Y022200
X030066Y023086
X030566Y023136
X038735Y031436
X043466Y031405
X048166Y031586
X048366Y032286
X057000Y033719
T03
X026000Y014200
X034900Y014600
X034200Y013100
X035700Y011800
X041900Y012100
X041898Y014863
X042647Y014974
X044000Y015300
X043900Y014200
X045000Y013700
X046000Y014000
X045000Y012000
X040900Y014300
X050400Y013500
X051000
Y012900
X050400
Y012300
X051000
X053300Y013500
X055300Y012800
Y012200
Y011600
X056000
Y012200
Y012800
Y013400
X056700
Y012800
Y012200
Y011600
X057400Y012200
Y012800
Y013400
X066150Y013350
X066750
Y013950
X066150
X067100Y015900
X062600
X065705Y020495
X066110Y020090
X065300Y020900
X066700Y022350
X066200Y027500
X067000Y030763
X060200Y031100
X059600
X059000
X058000Y030900
X057000Y027900
X056400
X055800
Y028500
X055200
Y027900
Y027300
X055800
X056400
X057000
X061600Y026700
X061500Y024500
X062000
Y024000
X061500
X061000
Y024500
Y023500
X061500
X062000
X061800Y021300
X058000Y021400
X057400
X056800
X056200
Y022000
X056800
X057400
X058000
X057400Y020800
X056800
X054550Y019400
X052733Y019100
X052400Y020600
X051300Y021500
X047200Y022400
X047700Y018300
X046900Y017400
X048200Y015900
X049600Y016200
X050100Y016600
X048966Y025886
X052016Y026836
X054600Y024400
X044200Y021500
X044000Y019900
X043500Y018900
X042500Y017695
X043500Y015900
X045000Y016200
X041100
X035500Y016600
X035900Y017500
X033119Y017501
X032900Y020800
X037300Y020700
X038066Y022936
X040200Y021800
X037816Y030436
X042816Y031136
X032766Y028536
X030000Y019800
Y018400
X027100Y017400
X026000Y019600
X025100Y020300
Y020982
X028935Y031286
X029722
X030510
X031300
X032090
X032872
X033659
X034447
X035234
X036024
X036814
X037596
X033300Y032100
X053800Y032300
X057600Y031300
X059000Y031700
Y032300
X059600
X060200
X060800
X061400
X060800Y031700
X060200
X059600
X063300Y033600
T04
X028340Y014100
X029128
X029910
X030700
X031490
X032277
X033065
T05
X038100Y012600
X039100
Y014100
X038100
X037100
X027116Y030786
X025766
Y031786
X027116
T06
X032100Y015700
X033100
X034100
X035100
X036100
X037100
X038100
X039100
Y016700
Y017700
Y018700
Y019700
Y020700
Y021700
X038100
X037100
X036100
X035100
X034100
X033100
X032100
X031100
X030100
X029100
X028100
X027100
X026100
Y015700
X027100
X028100
X029100
X030100
X031100
T07
X025800Y012400
M30
