G04 Layer_Color=128*
%FSAX24Y24*%
%MOIN*%
G70*
G01*
G75*
%ADD14R,0.0354X0.0276*%
%ADD34R,0.0276X0.0354*%
%ADD50R,0.0470X0.0220*%
%ADD51R,0.1319X0.0492*%
%ADD52R,0.0394X0.0354*%
%ADD53R,0.0906X0.0906*%
%ADD54R,0.0354X0.0394*%
%ADD55R,0.0453X0.1063*%
%ADD56R,0.0748X0.0532*%
%ADD57R,0.0571X0.0453*%
%ADD58R,0.0360X0.0320*%
%ADD59R,0.0394X0.0984*%
%ADD60R,0.1299X0.0984*%
%ADD61R,0.0374X0.0669*%
%ADD62R,0.0850X0.1080*%
%ADD63R,0.1024X0.0413*%
%ADD64R,0.0248X0.0327*%
%ADD65R,0.0433X0.0433*%
%ADD66R,0.0358X0.0480*%
D14*
X035000Y013524D02*
D03*
Y014076D02*
D03*
X035800Y014076D02*
D03*
Y013524D02*
D03*
X038000Y016524D02*
D03*
Y017076D02*
D03*
X049200Y014500D02*
D03*
Y013949D02*
D03*
Y013500D02*
D03*
Y012949D02*
D03*
X052900Y016924D02*
D03*
Y017476D02*
D03*
X055800Y015724D02*
D03*
Y016276D02*
D03*
X048500Y014476D02*
D03*
Y013924D02*
D03*
X025766Y023361D02*
D03*
Y022810D02*
D03*
Y024561D02*
D03*
Y024010D02*
D03*
X029716Y027260D02*
D03*
Y027811D02*
D03*
X028966Y027811D02*
D03*
Y027260D02*
D03*
X028266Y027811D02*
D03*
Y027260D02*
D03*
X027566Y027811D02*
D03*
Y027260D02*
D03*
X026866Y027811D02*
D03*
Y027260D02*
D03*
X026166Y027811D02*
D03*
Y027260D02*
D03*
X025466Y027836D02*
D03*
Y027285D02*
D03*
D34*
X032276Y020800D02*
D03*
X031724D02*
D03*
X054476Y014300D02*
D03*
X053924D02*
D03*
X054476Y013800D02*
D03*
X053924D02*
D03*
X056876Y016276D02*
D03*
X056324D02*
D03*
X056876Y015776D02*
D03*
X056324D02*
D03*
X055624Y017200D02*
D03*
X056176D02*
D03*
X057276D02*
D03*
X056724D02*
D03*
X058376Y030100D02*
D03*
X057824D02*
D03*
D50*
X046005Y011750D02*
D03*
Y012250D02*
D03*
Y012750D02*
D03*
Y013250D02*
D03*
X047995Y011750D02*
D03*
Y012250D02*
D03*
Y012750D02*
D03*
Y013250D02*
D03*
X056162Y021950D02*
D03*
Y021450D02*
D03*
Y020950D02*
D03*
Y020450D02*
D03*
X054172Y021950D02*
D03*
Y021450D02*
D03*
Y020950D02*
D03*
Y020450D02*
D03*
X056972D02*
D03*
Y020950D02*
D03*
Y021450D02*
D03*
Y021950D02*
D03*
X058962Y020450D02*
D03*
Y020950D02*
D03*
Y021450D02*
D03*
Y021950D02*
D03*
X054105Y027150D02*
D03*
Y027650D02*
D03*
Y028150D02*
D03*
Y028650D02*
D03*
X056095Y027150D02*
D03*
Y027650D02*
D03*
Y028150D02*
D03*
Y028650D02*
D03*
X057005Y027150D02*
D03*
Y027650D02*
D03*
Y028150D02*
D03*
Y028650D02*
D03*
X058995Y027150D02*
D03*
Y027650D02*
D03*
Y028150D02*
D03*
Y028650D02*
D03*
X061995Y024750D02*
D03*
Y024250D02*
D03*
Y023750D02*
D03*
Y023250D02*
D03*
X060005Y024750D02*
D03*
Y024250D02*
D03*
Y023750D02*
D03*
Y023250D02*
D03*
D51*
X066450Y017181D02*
D03*
Y014819D02*
D03*
D52*
X027200Y020815D02*
D03*
Y020185D02*
D03*
X027900Y020815D02*
D03*
Y020185D02*
D03*
X028600Y020815D02*
D03*
Y020185D02*
D03*
X029300Y020815D02*
D03*
Y020185D02*
D03*
X065100Y024115D02*
D03*
Y023485D02*
D03*
X065700Y024115D02*
D03*
Y023485D02*
D03*
X039739Y031085D02*
D03*
Y031715D02*
D03*
X034916Y027821D02*
D03*
Y028451D02*
D03*
X039666Y027821D02*
D03*
Y028451D02*
D03*
X044366Y027821D02*
D03*
Y028451D02*
D03*
X049139Y027835D02*
D03*
Y028465D02*
D03*
Y031085D02*
D03*
Y031715D02*
D03*
X044439Y031085D02*
D03*
Y031715D02*
D03*
X049116Y023771D02*
D03*
Y024401D02*
D03*
X030216Y023571D02*
D03*
Y024201D02*
D03*
X034916Y023671D02*
D03*
Y024301D02*
D03*
X039616Y023671D02*
D03*
Y024301D02*
D03*
X044366Y023771D02*
D03*
Y024401D02*
D03*
X029716Y029151D02*
D03*
Y028521D02*
D03*
X029016Y029151D02*
D03*
Y028521D02*
D03*
X028166Y029136D02*
D03*
Y028506D02*
D03*
X027366Y029136D02*
D03*
Y028506D02*
D03*
X026516Y029136D02*
D03*
Y028506D02*
D03*
X025716Y029136D02*
D03*
Y028506D02*
D03*
X066950Y024115D02*
D03*
Y023485D02*
D03*
X066350Y024115D02*
D03*
Y023485D02*
D03*
X066200Y026585D02*
D03*
Y027215D02*
D03*
D53*
X040800Y012414D02*
D03*
Y014186D02*
D03*
D54*
X042585Y015600D02*
D03*
X043215D02*
D03*
X036231Y027836D02*
D03*
X035601D02*
D03*
X045681D02*
D03*
X045051D02*
D03*
X050453Y027850D02*
D03*
X049824D02*
D03*
X050453Y031100D02*
D03*
X049824D02*
D03*
X045753D02*
D03*
X045124D02*
D03*
X041053D02*
D03*
X040424D02*
D03*
X031531Y023586D02*
D03*
X030901D02*
D03*
X036231Y023686D02*
D03*
X035601D02*
D03*
X050431Y023786D02*
D03*
X049801D02*
D03*
X040981Y027836D02*
D03*
X040351D02*
D03*
X040931Y023686D02*
D03*
X040301D02*
D03*
X045681Y023786D02*
D03*
X045051D02*
D03*
D55*
X040509Y017500D02*
D03*
X041691D02*
D03*
X040509Y015900D02*
D03*
X041691D02*
D03*
D56*
X042800Y017830D02*
D03*
Y016570D02*
D03*
D57*
X044000Y017146D02*
D03*
Y017854D02*
D03*
D58*
X047494Y015774D02*
D03*
Y015020D02*
D03*
X046660Y015400D02*
D03*
X049394Y015774D02*
D03*
Y015020D02*
D03*
X048560Y015400D02*
D03*
X066944Y018874D02*
D03*
Y018120D02*
D03*
X066110Y018500D02*
D03*
D59*
X042194Y014301D02*
D03*
X043100D02*
D03*
X044006D02*
D03*
D60*
X043100Y011899D02*
D03*
D61*
X053665Y019700D02*
D03*
X052602D02*
D03*
X055202Y019500D02*
D03*
X056265D02*
D03*
D62*
X058370Y025900D02*
D03*
X056630D02*
D03*
D63*
X060200Y025514D02*
D03*
Y027286D02*
D03*
D64*
X041105Y028436D02*
D03*
X040227D02*
D03*
X045805D02*
D03*
X044927D02*
D03*
X050578Y028450D02*
D03*
X049700D02*
D03*
X050578Y031700D02*
D03*
X049700D02*
D03*
X045878D02*
D03*
X045000D02*
D03*
X041178D02*
D03*
X040300D02*
D03*
X031655Y024186D02*
D03*
X030777D02*
D03*
X050555Y024386D02*
D03*
X049677D02*
D03*
X036355Y028436D02*
D03*
X035477D02*
D03*
X036355Y024286D02*
D03*
X035477D02*
D03*
X041055D02*
D03*
X040177D02*
D03*
X045805Y024386D02*
D03*
X044927D02*
D03*
D65*
X046466Y027782D02*
D03*
Y028490D02*
D03*
X051239Y027896D02*
D03*
Y028604D02*
D03*
Y031046D02*
D03*
Y031754D02*
D03*
X046539Y031046D02*
D03*
Y031754D02*
D03*
X041839Y031046D02*
D03*
Y031754D02*
D03*
X032316Y023531D02*
D03*
Y024240D02*
D03*
X037016Y023631D02*
D03*
Y024340D02*
D03*
X051216Y023732D02*
D03*
Y024440D02*
D03*
X037016Y027782D02*
D03*
Y028490D02*
D03*
X041766Y027782D02*
D03*
Y028490D02*
D03*
X041716Y023631D02*
D03*
Y024340D02*
D03*
X046466Y023732D02*
D03*
Y024440D02*
D03*
D66*
X028009Y024336D02*
D03*
X026722D02*
D03*
M02*
