G04 Layer_Color=128*
%FSAX25Y25*%
%MOIN*%
G70*
G01*
G75*
%ADD10R,0.01772X0.03347*%
%ADD18R,0.01969X0.02047*%
%ADD19R,0.01772X0.02165*%
%ADD20R,0.02165X0.01772*%
%ADD22R,0.02047X0.01969*%
%ADD43R,0.02756X0.05118*%
%ADD58R,0.05512X0.03150*%
%ADD59R,0.07874X0.04331*%
%ADD60R,0.01181X0.01772*%
%ADD62R,0.01575X0.03347*%
%ADD63O,0.01181X0.05512*%
%ADD64R,0.09449X0.06102*%
%ADD65R,0.03347X0.01575*%
%ADD66R,0.03347X0.01772*%
%ADD67R,0.02756X0.03543*%
%ADD68R,0.03583X0.04803*%
%ADD69R,0.05800X0.01400*%
%ADD70R,0.03937X0.01772*%
%ADD71O,0.06102X0.00984*%
%ADD72O,0.00984X0.06102*%
%ADD73R,0.06300X0.05500*%
%ADD74R,0.06693X0.04331*%
%ADD75R,0.03347X0.04331*%
%ADD76R,0.05118X0.02756*%
%ADD77R,0.03543X0.02756*%
G04:AMPARAMS|DCode=147|XSize=39.37mil|YSize=27.56mil|CornerRadius=1.93mil|HoleSize=0mil|Usage=FLASHONLY|Rotation=270.000|XOffset=0mil|YOffset=0mil|HoleType=Round|Shape=RoundedRectangle|*
%AMROUNDEDRECTD147*
21,1,0.03937,0.02370,0,0,270.0*
21,1,0.03551,0.02756,0,0,270.0*
1,1,0.00386,-0.01185,-0.01776*
1,1,0.00386,-0.01185,0.01776*
1,1,0.00386,0.01185,0.01776*
1,1,0.00386,0.01185,-0.01776*
%
%ADD147ROUNDEDRECTD147*%
D10*
X0626000Y0549847D02*
D03*
X0628559Y0558153D02*
D03*
X0623441D02*
D03*
X0614500Y0549847D02*
D03*
X0617059Y0558153D02*
D03*
X0611941D02*
D03*
X0637500Y0549847D02*
D03*
X0640059Y0558153D02*
D03*
X0634941D02*
D03*
D18*
X0694886Y0615500D02*
D03*
X0698114D02*
D03*
X0705114D02*
D03*
X0701886D02*
D03*
X0735886Y0568500D02*
D03*
X0739114D02*
D03*
X0723114Y0573500D02*
D03*
X0719886D02*
D03*
X0723114Y0577000D02*
D03*
X0719886D02*
D03*
X0702614Y0571000D02*
D03*
X0699386D02*
D03*
X0685386Y0607000D02*
D03*
X0688614D02*
D03*
X0722114Y0610000D02*
D03*
X0718886D02*
D03*
D19*
X0714272Y0614000D02*
D03*
X0710728D02*
D03*
X0735772Y0629500D02*
D03*
X0732228D02*
D03*
X0735772Y0623500D02*
D03*
X0732228D02*
D03*
X0760043Y0618500D02*
D03*
X0756500D02*
D03*
X0750728Y0566500D02*
D03*
X0754272D02*
D03*
X0625728Y0570000D02*
D03*
X0629272D02*
D03*
X0590272Y0545500D02*
D03*
X0586728D02*
D03*
X0551772Y0564000D02*
D03*
X0548228D02*
D03*
X0551772Y0572000D02*
D03*
X0548228D02*
D03*
X0755272Y0555500D02*
D03*
X0751728D02*
D03*
X0632000Y0562500D02*
D03*
X0628457D02*
D03*
X0638772D02*
D03*
X0635228D02*
D03*
X0623272Y0545000D02*
D03*
X0619728D02*
D03*
X0565228Y0561500D02*
D03*
X0568772D02*
D03*
X0717772Y0618000D02*
D03*
X0714228D02*
D03*
X0717772Y0621500D02*
D03*
X0714228D02*
D03*
X0744228Y0566500D02*
D03*
X0747772D02*
D03*
X0616272Y0562500D02*
D03*
X0612728D02*
D03*
X0609772D02*
D03*
X0606228D02*
D03*
D20*
X0725500Y0609272D02*
D03*
Y0605728D02*
D03*
X0729000Y0609272D02*
D03*
Y0605728D02*
D03*
X0801000Y0634772D02*
D03*
Y0631228D02*
D03*
X0805500Y0634772D02*
D03*
Y0631228D02*
D03*
X0768000Y0578728D02*
D03*
Y0582272D02*
D03*
X0759000Y0551728D02*
D03*
Y0555272D02*
D03*
D22*
X0744500Y0607614D02*
D03*
Y0604386D02*
D03*
X0732500Y0576114D02*
D03*
Y0572886D02*
D03*
X0764000Y0582114D02*
D03*
Y0578886D02*
D03*
X0598500Y0574114D02*
D03*
Y0570886D02*
D03*
X0696586Y0559135D02*
D03*
Y0562364D02*
D03*
X0724586D02*
D03*
Y0559135D02*
D03*
X0744500Y0597386D02*
D03*
Y0600614D02*
D03*
D43*
X0735760Y0613000D02*
D03*
X0743240D02*
D03*
D58*
X0741264Y0623646D02*
D03*
Y0629354D02*
D03*
X0761736Y0623646D02*
D03*
Y0629354D02*
D03*
D59*
X0814500Y0622118D02*
D03*
Y0611882D02*
D03*
X0823500Y0622118D02*
D03*
Y0611882D02*
D03*
X0832500D02*
D03*
Y0622118D02*
D03*
D60*
X0734941Y0607339D02*
D03*
X0737500D02*
D03*
X0740059D02*
D03*
Y0599661D02*
D03*
X0737500D02*
D03*
X0734941D02*
D03*
D62*
X0723000Y0622374D02*
D03*
Y0631626D02*
D03*
X0750000Y0611626D02*
D03*
Y0602374D02*
D03*
D63*
X0745437Y0573142D02*
D03*
X0743469D02*
D03*
X0741500D02*
D03*
X0739532D02*
D03*
X0737563D02*
D03*
X0745437Y0590858D02*
D03*
X0743469D02*
D03*
X0741500D02*
D03*
X0739532D02*
D03*
X0737563D02*
D03*
D64*
X0812504Y0549500D02*
D03*
X0800496D02*
D03*
X0843504Y0632000D02*
D03*
X0831496D02*
D03*
D65*
X0782374Y0596000D02*
D03*
X0791626D02*
D03*
D66*
X0621153Y0570500D02*
D03*
X0612847Y0573059D02*
D03*
Y0567941D02*
D03*
D67*
X0591256Y0553500D02*
D03*
X0585744D02*
D03*
X0774756Y0568500D02*
D03*
X0769244D02*
D03*
D68*
X0673563Y0557500D02*
D03*
X0686437D02*
D03*
D69*
X0775900Y0572543D02*
D03*
Y0575102D02*
D03*
Y0577661D02*
D03*
Y0580221D02*
D03*
Y0582780D02*
D03*
Y0585339D02*
D03*
Y0587898D02*
D03*
Y0590457D02*
D03*
X0798100D02*
D03*
Y0587898D02*
D03*
Y0585339D02*
D03*
Y0582780D02*
D03*
Y0580221D02*
D03*
Y0577661D02*
D03*
Y0575102D02*
D03*
Y0572543D02*
D03*
D70*
X0593118Y0576339D02*
D03*
Y0573779D02*
D03*
Y0571220D02*
D03*
X0582882D02*
D03*
Y0573779D02*
D03*
Y0576339D02*
D03*
Y0568661D02*
D03*
X0593118D02*
D03*
D71*
X0720894Y0581520D02*
D03*
Y0583488D02*
D03*
Y0585457D02*
D03*
Y0587425D02*
D03*
Y0589394D02*
D03*
Y0591362D02*
D03*
Y0593331D02*
D03*
Y0595299D02*
D03*
Y0597268D02*
D03*
Y0599236D02*
D03*
Y0601205D02*
D03*
Y0603173D02*
D03*
X0689201D02*
D03*
Y0601205D02*
D03*
Y0599236D02*
D03*
Y0597268D02*
D03*
Y0595299D02*
D03*
Y0593331D02*
D03*
Y0591362D02*
D03*
Y0589394D02*
D03*
Y0587425D02*
D03*
Y0585457D02*
D03*
Y0583488D02*
D03*
Y0581520D02*
D03*
D72*
X0715874Y0608193D02*
D03*
X0713906D02*
D03*
X0711937D02*
D03*
X0709969D02*
D03*
X0708000D02*
D03*
X0706032D02*
D03*
X0704063D02*
D03*
X0702095D02*
D03*
X0700126D02*
D03*
X0698158D02*
D03*
X0696189D02*
D03*
X0694221D02*
D03*
Y0576500D02*
D03*
X0696189D02*
D03*
X0698158D02*
D03*
X0700126D02*
D03*
X0702095D02*
D03*
X0704063D02*
D03*
X0706032D02*
D03*
X0708000D02*
D03*
X0709969D02*
D03*
X0711937D02*
D03*
X0713906D02*
D03*
X0715874D02*
D03*
D73*
X0718736Y0555850D02*
D03*
X0702436D02*
D03*
Y0565350D02*
D03*
X0718736D02*
D03*
D74*
X0840839Y0556284D02*
D03*
X0849500D02*
D03*
X0858161D02*
D03*
Y0591716D02*
D03*
X0849500D02*
D03*
X0840839D02*
D03*
D75*
X0856291Y0566323D02*
D03*
X0851764D02*
D03*
X0847236D02*
D03*
X0842709D02*
D03*
Y0577347D02*
D03*
X0847236D02*
D03*
X0851764D02*
D03*
X0856291D02*
D03*
D76*
X0849500Y0582858D02*
D03*
D77*
X0539000Y0607756D02*
D03*
Y0602244D02*
D03*
X0551500Y0607756D02*
D03*
Y0602244D02*
D03*
X0564000Y0607756D02*
D03*
Y0602244D02*
D03*
X0576500Y0607756D02*
D03*
Y0602244D02*
D03*
X0589000Y0607756D02*
D03*
Y0602244D02*
D03*
X0601500Y0607756D02*
D03*
Y0602244D02*
D03*
X0614000Y0607756D02*
D03*
Y0602244D02*
D03*
X0626500Y0607756D02*
D03*
Y0602244D02*
D03*
X0639000Y0607756D02*
D03*
Y0602244D02*
D03*
X0651500Y0607756D02*
D03*
Y0602244D02*
D03*
X0664000Y0607756D02*
D03*
Y0602244D02*
D03*
X0676500Y0607756D02*
D03*
Y0602244D02*
D03*
D147*
X0735728Y0603500D02*
D03*
X0739272D02*
D03*
M02*
