G04 Layer_Color=65535*
%FSAX25Y25*%
%MOIN*%
G70*
G01*
G75*
%ADD46C,0.01000*%
%ADD79C,0.00984*%
%ADD80C,0.02362*%
%ADD81C,0.01575*%
%ADD82C,0.00787*%
%ADD83C,0.00800*%
%ADD84C,0.00500*%
%ADD85C,0.00799*%
%ADD86C,0.00394*%
%ADD87C,0.00300*%
G36*
X0802217Y0628739D02*
X0802296D01*
X0802392Y0628721D01*
X0802506Y0628704D01*
X0802637Y0628686D01*
X0802769Y0628651D01*
X0802917Y0628616D01*
X0803066Y0628564D01*
X0803215Y0628503D01*
X0803372Y0628433D01*
X0803521Y0628345D01*
X0803670Y0628240D01*
X0803801Y0628126D01*
X0803932Y0627995D01*
X0803941Y0627986D01*
X0803959Y0627960D01*
X0803994Y0627916D01*
X0804037Y0627855D01*
X0804090Y0627785D01*
X0804142Y0627689D01*
X0804204Y0627584D01*
X0804265Y0627461D01*
X0804326Y0627321D01*
X0804387Y0627173D01*
X0804440Y0626998D01*
X0804492Y0626814D01*
X0804536Y0626621D01*
X0804571Y0626411D01*
X0804589Y0626184D01*
X0804597Y0625948D01*
Y0623200D01*
X0803696D01*
Y0625948D01*
Y0625956D01*
Y0625991D01*
Y0626035D01*
X0803687Y0626105D01*
Y0626184D01*
X0803679Y0626271D01*
X0803661Y0626368D01*
X0803644Y0626473D01*
X0803600Y0626709D01*
X0803521Y0626945D01*
X0803425Y0627164D01*
X0803355Y0627269D01*
X0803285Y0627365D01*
X0803276Y0627374D01*
X0803267Y0627383D01*
X0803241Y0627409D01*
X0803206Y0627444D01*
X0803171Y0627479D01*
X0803119Y0627523D01*
X0803057Y0627566D01*
X0802987Y0627610D01*
X0802909Y0627654D01*
X0802821Y0627698D01*
X0802725Y0627741D01*
X0802620Y0627776D01*
X0802506Y0627811D01*
X0802375Y0627838D01*
X0802244Y0627846D01*
X0802104Y0627855D01*
X0802034D01*
X0801972Y0627846D01*
X0801911Y0627838D01*
X0801832Y0627829D01*
X0801666Y0627794D01*
X0801474Y0627733D01*
X0801272Y0627645D01*
X0801176Y0627593D01*
X0801080Y0627531D01*
X0800992Y0627453D01*
X0800914Y0627365D01*
Y0627356D01*
X0800896Y0627339D01*
X0800879Y0627313D01*
X0800852Y0627278D01*
X0800817Y0627225D01*
X0800782Y0627164D01*
X0800747Y0627094D01*
X0800712Y0627006D01*
X0800677Y0626910D01*
X0800642Y0626805D01*
X0800607Y0626691D01*
X0800572Y0626560D01*
X0800546Y0626429D01*
X0800529Y0626280D01*
X0800520Y0626114D01*
X0800511Y0625948D01*
Y0623200D01*
X0799610D01*
Y0625948D01*
Y0625965D01*
Y0626009D01*
X0799619Y0626070D01*
Y0626166D01*
X0799627Y0626271D01*
X0799645Y0626403D01*
X0799662Y0626543D01*
X0799689Y0626700D01*
X0799724Y0626858D01*
X0799767Y0627024D01*
X0799820Y0627199D01*
X0799881Y0627365D01*
X0799960Y0627540D01*
X0800047Y0627706D01*
X0800144Y0627855D01*
X0800257Y0628004D01*
X0800266Y0628013D01*
X0800292Y0628039D01*
X0800327Y0628074D01*
X0800380Y0628118D01*
X0800450Y0628179D01*
X0800529Y0628240D01*
X0800625Y0628310D01*
X0800739Y0628380D01*
X0800861Y0628441D01*
X0801001Y0628511D01*
X0801150Y0628573D01*
X0801316Y0628634D01*
X0801491Y0628678D01*
X0801684Y0628713D01*
X0801885Y0628739D01*
X0802104Y0628748D01*
X0802156D01*
X0802217Y0628739D01*
D02*
G37*
G36*
X0795848Y0628756D02*
X0795935D01*
X0796049Y0628739D01*
X0796180Y0628721D01*
X0796320Y0628704D01*
X0796478Y0628669D01*
X0796635Y0628634D01*
X0796810Y0628581D01*
X0796976Y0628520D01*
X0797151Y0628450D01*
X0797326Y0628363D01*
X0797484Y0628258D01*
X0797641Y0628144D01*
X0797790Y0628013D01*
X0797799Y0628004D01*
X0797825Y0627978D01*
X0797860Y0627934D01*
X0797904Y0627873D01*
X0797965Y0627803D01*
X0798026Y0627706D01*
X0798096Y0627601D01*
X0798166Y0627479D01*
X0798228Y0627339D01*
X0798298Y0627181D01*
X0798359Y0627015D01*
X0798420Y0626831D01*
X0798464Y0626630D01*
X0798499Y0626420D01*
X0798525Y0626193D01*
X0798534Y0625956D01*
Y0624775D01*
Y0624766D01*
Y0624740D01*
Y0624705D01*
X0798525Y0624644D01*
X0798516Y0624582D01*
X0798499Y0624495D01*
X0798472Y0624407D01*
X0798446Y0624302D01*
Y0624294D01*
X0798429Y0624259D01*
X0798403Y0624197D01*
X0798368Y0624127D01*
X0798315Y0624049D01*
X0798245Y0623952D01*
X0798158Y0623856D01*
X0798053Y0623760D01*
X0798035Y0623751D01*
X0798000Y0623716D01*
X0797930Y0623672D01*
X0797834Y0623611D01*
X0797711Y0623541D01*
X0797571Y0623471D01*
X0797396Y0623401D01*
X0797204Y0623331D01*
X0797195D01*
X0797178Y0623322D01*
X0797151Y0623314D01*
X0797108Y0623305D01*
X0797046Y0623287D01*
X0796976Y0623279D01*
X0796898Y0623261D01*
X0796810Y0623244D01*
X0796714Y0623226D01*
X0796600Y0623209D01*
X0796478Y0623200D01*
X0796346Y0623182D01*
X0796198Y0623174D01*
X0796049Y0623165D01*
X0795891Y0623156D01*
X0795559D01*
X0795480Y0623165D01*
X0795393D01*
X0795288Y0623174D01*
X0795183Y0623182D01*
X0794946Y0623200D01*
X0794693Y0623226D01*
X0794448Y0623270D01*
X0794334Y0623305D01*
X0794229Y0623331D01*
X0794220D01*
X0794203Y0623340D01*
X0794176Y0623349D01*
X0794141Y0623366D01*
X0794036Y0623401D01*
X0793914Y0623454D01*
X0793783Y0623515D01*
X0793643Y0623585D01*
X0793503Y0623672D01*
X0793380Y0623760D01*
X0793371Y0623769D01*
X0793336Y0623804D01*
X0793284Y0623856D01*
X0793223Y0623926D01*
X0793153Y0624005D01*
X0793091Y0624101D01*
X0793039Y0624197D01*
X0792995Y0624302D01*
Y0624311D01*
X0792978Y0624346D01*
X0792969Y0624399D01*
X0792951Y0624469D01*
X0792934Y0624539D01*
X0792925Y0624617D01*
X0792907Y0624775D01*
Y0624784D01*
Y0624801D01*
Y0624836D01*
Y0624880D01*
X0792916Y0624932D01*
Y0624994D01*
X0792934Y0625134D01*
X0792960Y0625291D01*
X0792995Y0625457D01*
X0793039Y0625615D01*
X0793109Y0625764D01*
X0793118Y0625781D01*
X0793144Y0625825D01*
X0793188Y0625886D01*
X0793249Y0625974D01*
X0793328Y0626061D01*
X0793415Y0626149D01*
X0793529Y0626236D01*
X0793643Y0626315D01*
X0793660Y0626324D01*
X0793704Y0626350D01*
X0793774Y0626376D01*
X0793870Y0626420D01*
X0793984Y0626455D01*
X0794115Y0626499D01*
X0794273Y0626525D01*
X0794430Y0626551D01*
X0794448D01*
X0794474Y0626560D01*
X0794509D01*
X0794596Y0626569D01*
X0794719Y0626578D01*
X0794859Y0626586D01*
X0795025Y0626595D01*
X0795191Y0626604D01*
X0797580D01*
Y0626613D01*
X0797571Y0626630D01*
X0797563Y0626656D01*
X0797554Y0626700D01*
X0797510Y0626796D01*
X0797458Y0626928D01*
X0797379Y0627076D01*
X0797274Y0627225D01*
X0797143Y0627374D01*
X0796985Y0627514D01*
X0796976D01*
X0796968Y0627531D01*
X0796941Y0627549D01*
X0796898Y0627566D01*
X0796854Y0627601D01*
X0796793Y0627628D01*
X0796731Y0627663D01*
X0796653Y0627698D01*
X0796565Y0627724D01*
X0796469Y0627759D01*
X0796364Y0627794D01*
X0796259Y0627820D01*
X0796005Y0627855D01*
X0795716Y0627873D01*
X0795638D01*
X0795585Y0627864D01*
X0795515D01*
X0795428Y0627855D01*
X0795340Y0627838D01*
X0795244Y0627820D01*
X0795025Y0627776D01*
X0794789Y0627698D01*
X0794553Y0627601D01*
X0794439Y0627531D01*
X0794325Y0627461D01*
X0793818Y0628126D01*
X0793826Y0628135D01*
X0793853Y0628153D01*
X0793896Y0628188D01*
X0793958Y0628223D01*
X0794028Y0628275D01*
X0794124Y0628328D01*
X0794229Y0628389D01*
X0794343Y0628450D01*
X0794474Y0628503D01*
X0794623Y0628564D01*
X0794780Y0628616D01*
X0794946Y0628669D01*
X0795121Y0628704D01*
X0795314Y0628739D01*
X0795506Y0628756D01*
X0795716Y0628765D01*
X0795778D01*
X0795848Y0628756D01*
D02*
G37*
G36*
X0777700Y0628695D02*
X0779152D01*
Y0628599D01*
Y0627803D01*
X0777700D01*
Y0623200D01*
X0776799D01*
Y0627803D01*
X0775364D01*
Y0628695D01*
X0776799D01*
Y0631093D01*
X0777700D01*
Y0628695D01*
D02*
G37*
G36*
X0781935D02*
X0783388D01*
Y0628599D01*
Y0627803D01*
X0781935D01*
Y0623200D01*
X0781034D01*
Y0627803D01*
X0779599D01*
Y0628695D01*
X0781034D01*
Y0631093D01*
X0781935D01*
Y0628695D01*
D02*
G37*
G36*
X0771986Y0628756D02*
X0772074D01*
X0772188Y0628739D01*
X0772319Y0628721D01*
X0772459Y0628704D01*
X0772616Y0628669D01*
X0772774Y0628634D01*
X0772949Y0628581D01*
X0773115Y0628520D01*
X0773290Y0628450D01*
X0773465Y0628363D01*
X0773623Y0628258D01*
X0773780Y0628144D01*
X0773929Y0628013D01*
X0773938Y0628004D01*
X0773964Y0627978D01*
X0773999Y0627934D01*
X0774043Y0627873D01*
X0774104Y0627803D01*
X0774165Y0627706D01*
X0774235Y0627601D01*
X0774305Y0627479D01*
X0774366Y0627339D01*
X0774436Y0627181D01*
X0774498Y0627015D01*
X0774559Y0626831D01*
X0774603Y0626630D01*
X0774638Y0626420D01*
X0774664Y0626193D01*
X0774673Y0625956D01*
Y0624775D01*
Y0624766D01*
Y0624740D01*
Y0624705D01*
X0774664Y0624644D01*
X0774655Y0624582D01*
X0774638Y0624495D01*
X0774611Y0624407D01*
X0774585Y0624302D01*
Y0624294D01*
X0774568Y0624259D01*
X0774541Y0624197D01*
X0774506Y0624127D01*
X0774454Y0624049D01*
X0774384Y0623952D01*
X0774296Y0623856D01*
X0774191Y0623760D01*
X0774174Y0623751D01*
X0774139Y0623716D01*
X0774069Y0623672D01*
X0773973Y0623611D01*
X0773850Y0623541D01*
X0773710Y0623471D01*
X0773535Y0623401D01*
X0773343Y0623331D01*
X0773334D01*
X0773316Y0623322D01*
X0773290Y0623314D01*
X0773246Y0623305D01*
X0773185Y0623287D01*
X0773115Y0623279D01*
X0773036Y0623261D01*
X0772949Y0623244D01*
X0772853Y0623226D01*
X0772739Y0623209D01*
X0772616Y0623200D01*
X0772485Y0623182D01*
X0772336Y0623174D01*
X0772188Y0623165D01*
X0772030Y0623156D01*
X0771698D01*
X0771619Y0623165D01*
X0771531D01*
X0771426Y0623174D01*
X0771321Y0623182D01*
X0771085Y0623200D01*
X0770831Y0623226D01*
X0770586Y0623270D01*
X0770472Y0623305D01*
X0770367Y0623331D01*
X0770359D01*
X0770341Y0623340D01*
X0770315Y0623349D01*
X0770280Y0623366D01*
X0770175Y0623401D01*
X0770052Y0623454D01*
X0769921Y0623515D01*
X0769781Y0623585D01*
X0769641Y0623672D01*
X0769519Y0623760D01*
X0769510Y0623769D01*
X0769475Y0623804D01*
X0769422Y0623856D01*
X0769361Y0623926D01*
X0769291Y0624005D01*
X0769230Y0624101D01*
X0769177Y0624197D01*
X0769134Y0624302D01*
Y0624311D01*
X0769116Y0624346D01*
X0769107Y0624399D01*
X0769090Y0624469D01*
X0769072Y0624539D01*
X0769064Y0624617D01*
X0769046Y0624775D01*
Y0624784D01*
Y0624801D01*
Y0624836D01*
Y0624880D01*
X0769055Y0624932D01*
Y0624994D01*
X0769072Y0625134D01*
X0769099Y0625291D01*
X0769134Y0625457D01*
X0769177Y0625615D01*
X0769247Y0625764D01*
X0769256Y0625781D01*
X0769282Y0625825D01*
X0769326Y0625886D01*
X0769387Y0625974D01*
X0769466Y0626061D01*
X0769554Y0626149D01*
X0769667Y0626236D01*
X0769781Y0626315D01*
X0769799Y0626324D01*
X0769842Y0626350D01*
X0769912Y0626376D01*
X0770009Y0626420D01*
X0770122Y0626455D01*
X0770254Y0626499D01*
X0770411Y0626525D01*
X0770569Y0626551D01*
X0770586D01*
X0770612Y0626560D01*
X0770647D01*
X0770735Y0626569D01*
X0770857Y0626578D01*
X0770997Y0626586D01*
X0771164Y0626595D01*
X0771330Y0626604D01*
X0773719D01*
Y0626613D01*
X0773710Y0626630D01*
X0773701Y0626656D01*
X0773693Y0626700D01*
X0773649Y0626796D01*
X0773596Y0626928D01*
X0773518Y0627076D01*
X0773413Y0627225D01*
X0773281Y0627374D01*
X0773124Y0627514D01*
X0773115D01*
X0773106Y0627531D01*
X0773080Y0627549D01*
X0773036Y0627566D01*
X0772993Y0627601D01*
X0772931Y0627628D01*
X0772870Y0627663D01*
X0772791Y0627698D01*
X0772704Y0627724D01*
X0772608Y0627759D01*
X0772503Y0627794D01*
X0772398Y0627820D01*
X0772144Y0627855D01*
X0771855Y0627873D01*
X0771776D01*
X0771724Y0627864D01*
X0771654D01*
X0771566Y0627855D01*
X0771479Y0627838D01*
X0771383Y0627820D01*
X0771164Y0627776D01*
X0770927Y0627698D01*
X0770691Y0627601D01*
X0770577Y0627531D01*
X0770464Y0627461D01*
X0769956Y0628126D01*
X0769965Y0628135D01*
X0769991Y0628153D01*
X0770035Y0628188D01*
X0770096Y0628223D01*
X0770166Y0628275D01*
X0770262Y0628328D01*
X0770367Y0628389D01*
X0770481Y0628450D01*
X0770612Y0628503D01*
X0770761Y0628564D01*
X0770919Y0628616D01*
X0771085Y0628669D01*
X0771260Y0628704D01*
X0771453Y0628739D01*
X0771645Y0628756D01*
X0771855Y0628765D01*
X0771916D01*
X0771986Y0628756D01*
D02*
G37*
G36*
X0747391Y0633889D02*
X0747380Y0633878D01*
X0747369Y0633845D01*
X0747347Y0633802D01*
X0747326Y0633747D01*
X0747293Y0633671D01*
X0747216Y0633517D01*
X0747140Y0633310D01*
X0747041Y0633080D01*
X0746932Y0632818D01*
X0746823Y0632534D01*
X0746702Y0632239D01*
X0746582Y0631922D01*
X0746342Y0631255D01*
X0746123Y0630588D01*
X0746025Y0630271D01*
X0745948Y0629954D01*
Y0629932D01*
X0745927Y0629878D01*
X0745916Y0629790D01*
X0745883Y0629670D01*
X0745861Y0629517D01*
X0745828Y0629342D01*
X0745784Y0629145D01*
X0745752Y0628916D01*
X0745719Y0628664D01*
X0745675Y0628402D01*
X0745642Y0628118D01*
X0745620Y0627812D01*
X0745588Y0627506D01*
X0745577Y0627178D01*
X0745555Y0626511D01*
Y0626500D01*
Y0626457D01*
Y0626391D01*
Y0626293D01*
X0745566Y0626183D01*
Y0626041D01*
X0745577Y0625888D01*
X0745588Y0625724D01*
X0745599Y0625528D01*
X0745610Y0625331D01*
X0745631Y0625123D01*
X0745653Y0624894D01*
X0745708Y0624435D01*
X0745784Y0623943D01*
Y0623932D01*
X0745795Y0623888D01*
X0745806Y0623812D01*
X0745828Y0623724D01*
X0745850Y0623604D01*
X0745883Y0623462D01*
X0745916Y0623309D01*
X0745948Y0623145D01*
X0745992Y0622959D01*
X0746036Y0622762D01*
X0746145Y0622336D01*
X0746276Y0621899D01*
X0746418Y0621451D01*
Y0621440D01*
X0746429Y0621418D01*
X0746451Y0621374D01*
X0746473Y0621309D01*
X0746506Y0621221D01*
X0746538Y0621134D01*
X0746582Y0621013D01*
X0746637Y0620882D01*
X0746702Y0620729D01*
X0746768Y0620565D01*
X0746845Y0620380D01*
X0746932Y0620183D01*
X0747030Y0619964D01*
X0747129Y0619724D01*
X0747249Y0619472D01*
X0747369Y0619210D01*
X0745894D01*
X0745883Y0619232D01*
X0745839Y0619287D01*
X0745784Y0619385D01*
X0745697Y0619516D01*
X0745599Y0619680D01*
X0745489Y0619866D01*
X0745358Y0620084D01*
X0745227Y0620336D01*
X0745085Y0620598D01*
X0744943Y0620882D01*
X0744790Y0621188D01*
X0744637Y0621505D01*
X0744495Y0621833D01*
X0744352Y0622172D01*
X0744221Y0622522D01*
X0744101Y0622872D01*
Y0622883D01*
X0744090Y0622893D01*
X0744079Y0622959D01*
X0744046Y0623057D01*
X0744003Y0623200D01*
X0743959Y0623363D01*
X0743915Y0623571D01*
X0743861Y0623790D01*
X0743806Y0624041D01*
X0743741Y0624314D01*
X0743686Y0624610D01*
X0743642Y0624916D01*
X0743598Y0625233D01*
X0743522Y0625888D01*
X0743511Y0626216D01*
X0743500Y0626555D01*
Y0626566D01*
Y0626577D01*
Y0626610D01*
Y0626653D01*
Y0626708D01*
Y0626774D01*
X0743511Y0626927D01*
X0743522Y0627123D01*
X0743544Y0627353D01*
X0743566Y0627615D01*
X0743598Y0627910D01*
X0743631Y0628216D01*
X0743686Y0628544D01*
X0743741Y0628894D01*
X0743817Y0629255D01*
X0743904Y0629615D01*
X0744003Y0629998D01*
X0744123Y0630370D01*
X0744254Y0630741D01*
X0744265Y0630763D01*
X0744287Y0630818D01*
X0744320Y0630905D01*
X0744374Y0631025D01*
X0744440Y0631178D01*
X0744517Y0631353D01*
X0744604Y0631561D01*
X0744713Y0631780D01*
X0744823Y0632009D01*
X0744954Y0632261D01*
X0745085Y0632523D01*
X0745238Y0632796D01*
X0745566Y0633343D01*
X0745927Y0633900D01*
X0747391D01*
Y0633889D01*
D02*
G37*
G36*
X0756976Y0633878D02*
X0757019Y0633823D01*
X0757074Y0633736D01*
X0757150Y0633616D01*
X0757249Y0633463D01*
X0757358Y0633277D01*
X0757489Y0633069D01*
X0757620Y0632840D01*
X0757762Y0632588D01*
X0757905Y0632326D01*
X0758058Y0632031D01*
X0758200Y0631725D01*
X0758342Y0631408D01*
X0758484Y0631080D01*
X0758626Y0630741D01*
X0758746Y0630402D01*
X0758757Y0630380D01*
X0758779Y0630315D01*
X0758801Y0630217D01*
X0758845Y0630085D01*
X0758899Y0629921D01*
X0758954Y0629725D01*
X0759009Y0629495D01*
X0759074Y0629244D01*
X0759129Y0628981D01*
X0759183Y0628686D01*
X0759238Y0628380D01*
X0759293Y0628052D01*
X0759336Y0627725D01*
X0759358Y0627375D01*
X0759380Y0627025D01*
X0759391Y0626675D01*
Y0626653D01*
Y0626599D01*
Y0626511D01*
X0759380Y0626402D01*
Y0626249D01*
X0759369Y0626074D01*
X0759347Y0625877D01*
X0759326Y0625648D01*
X0759304Y0625407D01*
X0759271Y0625134D01*
X0759227Y0624850D01*
X0759183Y0624555D01*
X0759118Y0624238D01*
X0759052Y0623921D01*
X0758976Y0623582D01*
X0758888Y0623243D01*
Y0623232D01*
X0758877Y0623221D01*
Y0623189D01*
X0758866Y0623156D01*
X0758823Y0623046D01*
X0758779Y0622893D01*
X0758713Y0622708D01*
X0758637Y0622500D01*
X0758549Y0622249D01*
X0758440Y0621975D01*
X0758309Y0621680D01*
X0758178Y0621363D01*
X0758025Y0621035D01*
X0757850Y0620686D01*
X0757664Y0620325D01*
X0757467Y0619953D01*
X0757249Y0619582D01*
X0757008Y0619210D01*
X0755522D01*
X0755533Y0619221D01*
X0755555Y0619276D01*
X0755577Y0619341D01*
X0755620Y0619440D01*
X0755675Y0619549D01*
X0755729Y0619680D01*
X0755795Y0619822D01*
X0755872Y0619986D01*
X0756014Y0620325D01*
X0756156Y0620675D01*
X0756298Y0621013D01*
X0756353Y0621167D01*
X0756407Y0621309D01*
Y0621320D01*
X0756418Y0621341D01*
X0756429Y0621385D01*
X0756451Y0621440D01*
X0756473Y0621505D01*
X0756506Y0621582D01*
X0756527Y0621680D01*
X0756571Y0621790D01*
X0756604Y0621899D01*
X0756637Y0622030D01*
X0756724Y0622314D01*
X0756801Y0622631D01*
X0756888Y0622970D01*
Y0622981D01*
X0756899Y0623014D01*
X0756910Y0623057D01*
X0756921Y0623134D01*
X0756943Y0623210D01*
X0756965Y0623309D01*
X0756987Y0623429D01*
X0757008Y0623549D01*
X0757063Y0623822D01*
X0757118Y0624129D01*
X0757172Y0624445D01*
X0757216Y0624762D01*
Y0624773D01*
Y0624806D01*
X0757227Y0624850D01*
X0757238Y0624916D01*
Y0624992D01*
X0757249Y0625079D01*
X0757260Y0625189D01*
X0757271Y0625298D01*
X0757293Y0625560D01*
X0757303Y0625855D01*
X0757325Y0626183D01*
Y0626511D01*
Y0626533D01*
Y0626588D01*
Y0626686D01*
X0757314Y0626817D01*
Y0626981D01*
X0757303Y0627167D01*
X0757293Y0627386D01*
X0757282Y0627626D01*
X0757260Y0627878D01*
X0757227Y0628151D01*
X0757194Y0628435D01*
X0757161Y0628730D01*
X0757063Y0629342D01*
X0756932Y0629954D01*
Y0629976D01*
X0756910Y0630031D01*
X0756888Y0630118D01*
X0756855Y0630249D01*
X0756812Y0630402D01*
X0756757Y0630588D01*
X0756680Y0630807D01*
X0756604Y0631058D01*
X0756517Y0631331D01*
X0756407Y0631637D01*
X0756298Y0631954D01*
X0756167Y0632304D01*
X0756014Y0632676D01*
X0755861Y0633069D01*
X0755686Y0633474D01*
X0755500Y0633900D01*
X0756965D01*
X0756976Y0633878D01*
D02*
G37*
G36*
X0763901Y0628021D02*
X0763910Y0628039D01*
X0763936Y0628074D01*
X0763989Y0628135D01*
X0764059Y0628205D01*
X0764146Y0628293D01*
X0764269Y0628380D01*
X0764418Y0628468D01*
X0764601Y0628546D01*
X0764610D01*
X0764628Y0628555D01*
X0764654Y0628564D01*
X0764698Y0628581D01*
X0764750Y0628590D01*
X0764803Y0628608D01*
X0764873Y0628625D01*
X0764951Y0628651D01*
X0765135Y0628686D01*
X0765336Y0628713D01*
X0765564Y0628739D01*
X0765809Y0628748D01*
X0765870D01*
X0765940Y0628739D01*
X0766027D01*
X0766141Y0628721D01*
X0766264Y0628713D01*
X0766404Y0628686D01*
X0766561Y0628651D01*
X0766727Y0628616D01*
X0766894Y0628564D01*
X0767060Y0628503D01*
X0767235Y0628433D01*
X0767401Y0628345D01*
X0767567Y0628249D01*
X0767725Y0628135D01*
X0767865Y0628004D01*
X0767874Y0627995D01*
X0767900Y0627969D01*
X0767935Y0627925D01*
X0767979Y0627873D01*
X0768040Y0627794D01*
X0768101Y0627698D01*
X0768171Y0627593D01*
X0768241Y0627470D01*
X0768302Y0627330D01*
X0768372Y0627181D01*
X0768434Y0627006D01*
X0768495Y0626823D01*
X0768539Y0626630D01*
X0768574Y0626411D01*
X0768600Y0626193D01*
X0768609Y0625948D01*
Y0625930D01*
Y0625886D01*
X0768600Y0625825D01*
Y0625729D01*
X0768582Y0625615D01*
X0768574Y0625492D01*
X0768547Y0625352D01*
X0768512Y0625195D01*
X0768477Y0625029D01*
X0768425Y0624862D01*
X0768364Y0624696D01*
X0768294Y0624521D01*
X0768206Y0624355D01*
X0768110Y0624189D01*
X0767996Y0624040D01*
X0767865Y0623891D01*
X0767856Y0623882D01*
X0767830Y0623856D01*
X0767786Y0623821D01*
X0767734Y0623777D01*
X0767655Y0623725D01*
X0767559Y0623655D01*
X0767454Y0623594D01*
X0767331Y0623524D01*
X0767191Y0623454D01*
X0767042Y0623392D01*
X0766867Y0623331D01*
X0766684Y0623270D01*
X0766491Y0623226D01*
X0766272Y0623191D01*
X0766054Y0623165D01*
X0765809Y0623156D01*
X0765747D01*
X0765677Y0623165D01*
X0765590D01*
X0765476Y0623182D01*
X0765345Y0623191D01*
X0765205Y0623217D01*
X0765048Y0623252D01*
X0764890Y0623287D01*
X0764715Y0623340D01*
X0764549Y0623392D01*
X0764374Y0623462D01*
X0764199Y0623550D01*
X0764041Y0623646D01*
X0763884Y0623760D01*
X0763735Y0623891D01*
X0763726Y0623900D01*
X0763700Y0623926D01*
X0763665Y0623970D01*
X0763621Y0624031D01*
X0763569Y0624101D01*
X0763499Y0624197D01*
X0763438Y0624302D01*
X0763368Y0624425D01*
X0763298Y0624565D01*
X0763236Y0624714D01*
X0763175Y0624889D01*
X0763114Y0625072D01*
X0763070Y0625265D01*
X0763035Y0625484D01*
X0763009Y0625711D01*
X0763000Y0625948D01*
Y0631084D01*
X0763901D01*
Y0628021D01*
D02*
G37*
G36*
X0790099Y0628739D02*
X0790169D01*
X0790256Y0628721D01*
X0790352Y0628704D01*
X0790466Y0628686D01*
X0790589Y0628651D01*
X0790720Y0628616D01*
X0790851Y0628564D01*
X0790991Y0628503D01*
X0791122Y0628433D01*
X0791254Y0628345D01*
X0791385Y0628240D01*
X0791507Y0628126D01*
X0791621Y0627995D01*
X0791630Y0627986D01*
X0791647Y0627960D01*
X0791674Y0627916D01*
X0791717Y0627855D01*
X0791761Y0627785D01*
X0791805Y0627689D01*
X0791857Y0627584D01*
X0791919Y0627461D01*
X0791971Y0627321D01*
X0792024Y0627173D01*
X0792067Y0626998D01*
X0792120Y0626814D01*
X0792155Y0626621D01*
X0792181Y0626411D01*
X0792199Y0626184D01*
X0792207Y0625948D01*
Y0623200D01*
X0791315D01*
Y0625948D01*
Y0625956D01*
Y0625991D01*
Y0626053D01*
X0791306Y0626123D01*
Y0626210D01*
X0791297Y0626315D01*
X0791280Y0626429D01*
X0791262Y0626551D01*
Y0626569D01*
X0791254Y0626613D01*
X0791245Y0626674D01*
X0791219Y0626761D01*
X0791192Y0626858D01*
X0791166Y0626963D01*
X0791122Y0627068D01*
X0791070Y0627181D01*
X0791061Y0627199D01*
X0791044Y0627234D01*
X0791009Y0627286D01*
X0790965Y0627356D01*
X0790912Y0627426D01*
X0790842Y0627514D01*
X0790764Y0627593D01*
X0790676Y0627663D01*
X0790667Y0627671D01*
X0790632Y0627689D01*
X0790571Y0627724D01*
X0790492Y0627759D01*
X0790396Y0627794D01*
X0790282Y0627829D01*
X0790142Y0627846D01*
X0789994Y0627855D01*
X0789924D01*
X0789845Y0627846D01*
X0789740Y0627829D01*
X0789635Y0627811D01*
X0789521Y0627776D01*
X0789407Y0627724D01*
X0789302Y0627663D01*
X0789294Y0627654D01*
X0789259Y0627628D01*
X0789215Y0627593D01*
X0789154Y0627531D01*
X0789092Y0627461D01*
X0789022Y0627383D01*
X0788961Y0627286D01*
X0788900Y0627181D01*
X0788891Y0627173D01*
X0788874Y0627129D01*
X0788856Y0627076D01*
X0788821Y0626998D01*
X0788795Y0626901D01*
X0788760Y0626796D01*
X0788734Y0626674D01*
X0788707Y0626551D01*
Y0626534D01*
X0788699Y0626499D01*
X0788690Y0626429D01*
Y0626350D01*
X0788681Y0626254D01*
X0788672Y0626158D01*
X0788664Y0625948D01*
Y0623200D01*
X0787762D01*
Y0625948D01*
Y0625956D01*
Y0625991D01*
Y0626053D01*
X0787754Y0626123D01*
Y0626210D01*
X0787745Y0626315D01*
X0787727Y0626429D01*
X0787710Y0626551D01*
Y0626569D01*
X0787701Y0626613D01*
X0787692Y0626674D01*
X0787675Y0626761D01*
X0787649Y0626858D01*
X0787614Y0626963D01*
X0787579Y0627068D01*
X0787526Y0627181D01*
X0787517Y0627199D01*
X0787500Y0627234D01*
X0787465Y0627286D01*
X0787421Y0627356D01*
X0787369Y0627426D01*
X0787299Y0627514D01*
X0787220Y0627593D01*
X0787124Y0627663D01*
X0787115Y0627671D01*
X0787080Y0627689D01*
X0787019Y0627724D01*
X0786940Y0627759D01*
X0786844Y0627794D01*
X0786730Y0627829D01*
X0786590Y0627846D01*
X0786441Y0627855D01*
X0786371D01*
X0786293Y0627846D01*
X0786196Y0627829D01*
X0786083Y0627811D01*
X0785969Y0627776D01*
X0785855Y0627724D01*
X0785750Y0627663D01*
X0785741Y0627654D01*
X0785706Y0627628D01*
X0785663Y0627593D01*
X0785601Y0627531D01*
X0785540Y0627461D01*
X0785470Y0627383D01*
X0785409Y0627286D01*
X0785348Y0627181D01*
X0785339Y0627173D01*
X0785321Y0627129D01*
X0785304Y0627076D01*
X0785269Y0626998D01*
X0785243Y0626901D01*
X0785208Y0626796D01*
X0785181Y0626674D01*
X0785164Y0626551D01*
Y0626534D01*
X0785155Y0626499D01*
X0785146Y0626429D01*
Y0626350D01*
X0785138Y0626254D01*
X0785129Y0626158D01*
X0785120Y0625948D01*
Y0623200D01*
X0784219D01*
Y0625948D01*
Y0625965D01*
Y0626009D01*
Y0626070D01*
X0784228Y0626166D01*
X0784236Y0626271D01*
X0784254Y0626403D01*
X0784271Y0626543D01*
X0784289Y0626691D01*
X0784359Y0627024D01*
X0784403Y0627190D01*
X0784464Y0627365D01*
X0784525Y0627531D01*
X0784604Y0627698D01*
X0784691Y0627846D01*
X0784796Y0627995D01*
X0784805Y0628004D01*
X0784823Y0628030D01*
X0784858Y0628065D01*
X0784901Y0628109D01*
X0784963Y0628170D01*
X0785041Y0628231D01*
X0785120Y0628301D01*
X0785225Y0628371D01*
X0785330Y0628441D01*
X0785453Y0628511D01*
X0785593Y0628573D01*
X0785741Y0628634D01*
X0785899Y0628678D01*
X0786065Y0628713D01*
X0786249Y0628739D01*
X0786441Y0628748D01*
X0786546D01*
X0786608Y0628739D01*
X0786669Y0628730D01*
X0786826Y0628713D01*
X0787001Y0628678D01*
X0787185Y0628625D01*
X0787369Y0628555D01*
X0787552Y0628459D01*
X0787561D01*
X0787570Y0628450D01*
X0787596Y0628433D01*
X0787631Y0628406D01*
X0787710Y0628345D01*
X0787815Y0628258D01*
X0787920Y0628153D01*
X0788025Y0628021D01*
X0788130Y0627873D01*
X0788209Y0627706D01*
Y0627715D01*
X0788217Y0627724D01*
X0788226Y0627750D01*
X0788244Y0627785D01*
X0788296Y0627873D01*
X0788357Y0627978D01*
X0788454Y0628100D01*
X0788567Y0628223D01*
X0788699Y0628345D01*
X0788865Y0628459D01*
X0788874D01*
X0788891Y0628468D01*
X0788917Y0628485D01*
X0788952Y0628503D01*
X0788996Y0628529D01*
X0789049Y0628546D01*
X0789189Y0628608D01*
X0789355Y0628660D01*
X0789547Y0628704D01*
X0789757Y0628739D01*
X0789994Y0628748D01*
X0790037D01*
X0790099Y0628739D01*
D02*
G37*
%LPC*%
G36*
X0797633Y0625711D02*
X0795340D01*
X0795174Y0625702D01*
X0795008Y0625694D01*
X0794833Y0625685D01*
X0794675Y0625676D01*
X0794658D01*
X0794614Y0625667D01*
X0794544D01*
X0794456Y0625650D01*
X0794273Y0625615D01*
X0794185Y0625589D01*
X0794106Y0625554D01*
X0794098D01*
X0794080Y0625536D01*
X0794045Y0625510D01*
X0794010Y0625484D01*
X0793923Y0625396D01*
X0793888Y0625335D01*
X0793861Y0625274D01*
Y0625265D01*
X0793853Y0625239D01*
X0793844Y0625204D01*
X0793835Y0625142D01*
X0793826Y0625072D01*
X0793818Y0624994D01*
X0793809Y0624889D01*
Y0624775D01*
Y0624766D01*
Y0624740D01*
X0793818Y0624705D01*
X0793826Y0624661D01*
X0793844Y0624609D01*
X0793870Y0624556D01*
X0793905Y0624495D01*
X0793958Y0624442D01*
X0793966Y0624434D01*
X0793984Y0624425D01*
X0794019Y0624399D01*
X0794071Y0624364D01*
X0794133Y0624329D01*
X0794203Y0624294D01*
X0794290Y0624250D01*
X0794386Y0624215D01*
X0794395D01*
X0794439Y0624197D01*
X0794491Y0624189D01*
X0794570Y0624162D01*
X0794658Y0624145D01*
X0794763Y0624119D01*
X0794876Y0624101D01*
X0795008Y0624084D01*
X0795025D01*
X0795069Y0624075D01*
X0795139Y0624066D01*
X0795226D01*
X0795331Y0624057D01*
X0795454Y0624049D01*
X0795585Y0624040D01*
X0795848D01*
X0795944Y0624049D01*
X0796058D01*
X0796171Y0624057D01*
X0796434Y0624084D01*
X0796451D01*
X0796495Y0624092D01*
X0796556Y0624101D01*
X0796644Y0624119D01*
X0796740Y0624136D01*
X0796845Y0624154D01*
X0797055Y0624215D01*
X0797064Y0624224D01*
X0797099Y0624232D01*
X0797151Y0624250D01*
X0797213Y0624276D01*
X0797344Y0624355D01*
X0797414Y0624399D01*
X0797475Y0624442D01*
X0797484Y0624451D01*
X0797501Y0624469D01*
X0797528Y0624495D01*
X0797554Y0624539D01*
X0797580Y0624582D01*
X0797606Y0624644D01*
X0797624Y0624705D01*
X0797633Y0624775D01*
Y0625711D01*
D02*
G37*
G36*
X0773771D02*
X0771479D01*
X0771313Y0625702D01*
X0771146Y0625694D01*
X0770971Y0625685D01*
X0770814Y0625676D01*
X0770796D01*
X0770752Y0625667D01*
X0770682D01*
X0770595Y0625650D01*
X0770411Y0625615D01*
X0770324Y0625589D01*
X0770245Y0625554D01*
X0770236D01*
X0770219Y0625536D01*
X0770184Y0625510D01*
X0770149Y0625484D01*
X0770061Y0625396D01*
X0770026Y0625335D01*
X0770000Y0625274D01*
Y0625265D01*
X0769991Y0625239D01*
X0769982Y0625204D01*
X0769974Y0625142D01*
X0769965Y0625072D01*
X0769956Y0624994D01*
X0769947Y0624889D01*
Y0624775D01*
Y0624766D01*
Y0624740D01*
X0769956Y0624705D01*
X0769965Y0624661D01*
X0769982Y0624609D01*
X0770009Y0624556D01*
X0770044Y0624495D01*
X0770096Y0624442D01*
X0770105Y0624434D01*
X0770122Y0624425D01*
X0770157Y0624399D01*
X0770210Y0624364D01*
X0770271Y0624329D01*
X0770341Y0624294D01*
X0770429Y0624250D01*
X0770525Y0624215D01*
X0770534D01*
X0770577Y0624197D01*
X0770630Y0624189D01*
X0770709Y0624162D01*
X0770796Y0624145D01*
X0770901Y0624119D01*
X0771015Y0624101D01*
X0771146Y0624084D01*
X0771164D01*
X0771208Y0624075D01*
X0771278Y0624066D01*
X0771365D01*
X0771470Y0624057D01*
X0771593Y0624049D01*
X0771724Y0624040D01*
X0771986D01*
X0772083Y0624049D01*
X0772196D01*
X0772310Y0624057D01*
X0772573Y0624084D01*
X0772590D01*
X0772634Y0624092D01*
X0772695Y0624101D01*
X0772783Y0624119D01*
X0772879Y0624136D01*
X0772984Y0624154D01*
X0773194Y0624215D01*
X0773203Y0624224D01*
X0773238Y0624232D01*
X0773290Y0624250D01*
X0773351Y0624276D01*
X0773483Y0624355D01*
X0773553Y0624399D01*
X0773614Y0624442D01*
X0773623Y0624451D01*
X0773640Y0624469D01*
X0773666Y0624495D01*
X0773693Y0624539D01*
X0773719Y0624582D01*
X0773745Y0624644D01*
X0773763Y0624705D01*
X0773771Y0624775D01*
Y0625711D01*
D02*
G37*
G36*
X0765809Y0627855D02*
X0765721D01*
X0765651Y0627846D01*
X0765573Y0627838D01*
X0765485Y0627829D01*
X0765380Y0627811D01*
X0765275Y0627794D01*
X0765048Y0627741D01*
X0764811Y0627654D01*
X0764689Y0627601D01*
X0764584Y0627531D01*
X0764479Y0627461D01*
X0764383Y0627374D01*
X0764374Y0627365D01*
X0764365Y0627348D01*
X0764339Y0627321D01*
X0764304Y0627286D01*
X0764269Y0627234D01*
X0764234Y0627173D01*
X0764190Y0627103D01*
X0764146Y0627015D01*
X0764094Y0626919D01*
X0764050Y0626814D01*
X0764015Y0626700D01*
X0763980Y0626569D01*
X0763945Y0626429D01*
X0763919Y0626280D01*
X0763910Y0626123D01*
X0763901Y0625948D01*
Y0625939D01*
Y0625904D01*
Y0625860D01*
X0763910Y0625790D01*
X0763919Y0625711D01*
X0763928Y0625624D01*
X0763945Y0625519D01*
X0763963Y0625414D01*
X0764015Y0625186D01*
X0764103Y0624941D01*
X0764164Y0624827D01*
X0764225Y0624714D01*
X0764295Y0624609D01*
X0764383Y0624512D01*
X0764391Y0624504D01*
X0764409Y0624495D01*
X0764435Y0624469D01*
X0764470Y0624434D01*
X0764523Y0624399D01*
X0764584Y0624364D01*
X0764654Y0624320D01*
X0764741Y0624276D01*
X0764838Y0624224D01*
X0764943Y0624180D01*
X0765056Y0624145D01*
X0765188Y0624110D01*
X0765328Y0624075D01*
X0765476Y0624049D01*
X0765634Y0624040D01*
X0765809Y0624031D01*
X0765896D01*
X0765957Y0624040D01*
X0766036Y0624049D01*
X0766132Y0624057D01*
X0766229Y0624075D01*
X0766334Y0624092D01*
X0766561Y0624154D01*
X0766797Y0624241D01*
X0766911Y0624294D01*
X0767025Y0624364D01*
X0767130Y0624434D01*
X0767226Y0624521D01*
X0767235Y0624530D01*
X0767244Y0624547D01*
X0767270Y0624574D01*
X0767305Y0624609D01*
X0767340Y0624661D01*
X0767384Y0624722D01*
X0767427Y0624801D01*
X0767471Y0624880D01*
X0767515Y0624976D01*
X0767559Y0625081D01*
X0767602Y0625204D01*
X0767637Y0625326D01*
X0767672Y0625466D01*
X0767699Y0625615D01*
X0767707Y0625781D01*
X0767716Y0625948D01*
Y0625956D01*
Y0625991D01*
Y0626035D01*
X0767707Y0626105D01*
X0767699Y0626184D01*
X0767690Y0626271D01*
X0767672Y0626376D01*
X0767655Y0626481D01*
X0767594Y0626709D01*
X0767506Y0626945D01*
X0767454Y0627068D01*
X0767392Y0627173D01*
X0767314Y0627278D01*
X0767226Y0627374D01*
X0767217Y0627383D01*
X0767200Y0627391D01*
X0767174Y0627418D01*
X0767139Y0627453D01*
X0767086Y0627488D01*
X0767025Y0627523D01*
X0766946Y0627566D01*
X0766867Y0627619D01*
X0766771Y0627663D01*
X0766666Y0627706D01*
X0766552Y0627741D01*
X0766421Y0627776D01*
X0766281Y0627811D01*
X0766132Y0627838D01*
X0765975Y0627846D01*
X0765809Y0627855D01*
D02*
G37*
%LPD*%
D46*
X0770028Y0545752D02*
Y0581972D01*
Y0545752D02*
X0774752Y0541028D01*
X0810972Y0545752D02*
Y0581972D01*
X0806248Y0541028D02*
X0810972Y0545752D01*
X0794437Y0581972D02*
X0810972D01*
X0794437Y0541028D02*
X0806248D01*
X0774752D02*
X0786563D01*
X0770028Y0581972D02*
X0786563D01*
X0789500Y0588000D02*
Y0598000D01*
X0784500Y0588000D02*
Y0598000D01*
X0789500D01*
X0784500Y0588000D02*
X0789500D01*
X0777917Y0596138D02*
Y0600862D01*
X0755083Y0596138D02*
Y0600862D01*
X0730500Y0591213D02*
Y0592787D01*
X0698213Y0589000D02*
X0699787D01*
X0678000Y0558500D02*
Y0564500D01*
X0683000Y0558500D02*
Y0564500D01*
X0678000Y0558500D02*
X0683000D01*
X0678000Y0564500D02*
X0683000D01*
X0680213Y0608500D02*
X0681787D01*
X0667713D02*
X0669287D01*
X0655213D02*
X0656787D01*
X0642713D02*
X0644287D01*
X0630213D02*
X0631787D01*
X0617713D02*
X0619287D01*
X0605213D02*
X0606787D01*
X0592713D02*
X0594287D01*
X0580213D02*
X0581787D01*
X0567713D02*
X0569287D01*
X0555213D02*
X0556787D01*
X0542713D02*
X0544287D01*
X0630599Y0543173D02*
X0632173D01*
X0615573Y0543172D02*
X0617147D01*
X0627099Y0543173D02*
X0628674D01*
X0634101Y0543173D02*
X0635676D01*
X0655213Y0571500D02*
X0656787D01*
X0644573Y0543173D02*
X0646147D01*
X0641099D02*
X0642673D01*
X0637599Y0543172D02*
X0639174D01*
X0678000Y0567500D02*
Y0573500D01*
X0683000Y0567500D02*
Y0573500D01*
X0678000Y0567500D02*
X0683000D01*
X0678000Y0573500D02*
X0683000D01*
X0719000Y0597713D02*
Y0599287D01*
X0816500Y0608713D02*
Y0610287D01*
Y0612213D02*
Y0613787D01*
X0796000Y0593000D02*
X0806000D01*
X0796000Y0598000D02*
X0806000D01*
Y0593000D02*
Y0598000D01*
X0796000Y0593000D02*
Y0598000D01*
X0695070Y0569095D02*
Y0580512D01*
Y0541142D02*
Y0552559D01*
Y0541142D02*
X0734440D01*
Y0552559D01*
X0695070Y0580512D02*
X0734440D01*
Y0569095D02*
Y0580512D01*
X0683713Y0608500D02*
X0685287D01*
X0671213D02*
X0672787D01*
X0658713D02*
X0660287D01*
X0646213D02*
X0647787D01*
X0633713D02*
X0635287D01*
X0621213D02*
X0622787D01*
X0608713D02*
X0610287D01*
X0596213D02*
X0597787D01*
X0583713D02*
X0585287D01*
X0571213D02*
X0572787D01*
X0558713D02*
X0560287D01*
X0546213D02*
X0547787D01*
X0842500Y0555500D02*
Y0560500D01*
X0840500Y0555500D02*
Y0560500D01*
X0842500D01*
X0840500Y0555500D02*
X0842500D01*
X0761500Y0569000D02*
X0767500D01*
X0761500Y0574000D02*
X0767500D01*
Y0569000D02*
Y0574000D01*
X0761500Y0569000D02*
Y0574000D01*
D79*
X0840602Y0568653D02*
G03*
X0840602Y0568653I-0000492J0000000D01*
G01*
X0740055Y0597067D02*
G03*
X0740055Y0597067I-0000492J0000000D01*
G01*
Y0605067D02*
G03*
X0740055Y0605067I-0000492J0000000D01*
G01*
X0659925Y0559563D02*
G03*
X0659925Y0559563I-0000492J0000000D01*
G01*
X0646819Y0577787D02*
G03*
X0646819Y0577787I-0000492J0000000D01*
G01*
X0834382Y0610965D02*
G03*
X0834382Y0610965I-0000492J0000000D01*
G01*
X0792933Y0603063D02*
G03*
X0792933Y0603063I-0000492J0000000D01*
G01*
X0722957Y0581610D02*
G03*
X0722957Y0581610I-0000492J0000000D01*
G01*
X0684882Y0593201D02*
G03*
X0684882Y0593201I-0000492J0000000D01*
G01*
X0672382D02*
G03*
X0672382Y0593201I-0000492J0000000D01*
G01*
X0659882D02*
G03*
X0659882Y0593201I-0000492J0000000D01*
G01*
X0647382D02*
G03*
X0647382Y0593201I-0000492J0000000D01*
G01*
X0634882D02*
G03*
X0634882Y0593201I-0000492J0000000D01*
G01*
X0622382D02*
G03*
X0622382Y0593201I-0000492J0000000D01*
G01*
X0609882D02*
G03*
X0609882Y0593201I-0000492J0000000D01*
G01*
X0597382D02*
G03*
X0597382Y0593201I-0000492J0000000D01*
G01*
X0584882D02*
G03*
X0584882Y0593201I-0000492J0000000D01*
G01*
X0572382D02*
G03*
X0572382Y0593201I-0000492J0000000D01*
G01*
X0559882D02*
G03*
X0559882Y0593201I-0000492J0000000D01*
G01*
X0547382D02*
G03*
X0547382Y0593201I-0000492J0000000D01*
G01*
X0757492Y0571500D02*
G03*
X0757492Y0571500I-0000492J0000000D01*
G01*
D80*
X0646032Y0568535D02*
G03*
X0646032Y0568535I-0001181J0000000D01*
G01*
D81*
X0830740Y0603090D02*
G03*
X0830740Y0603090I-0000787J0000000D01*
G01*
D82*
X0838831Y0562020D02*
Y0565563D01*
X0836961Y0562020D02*
X0838831D01*
X0830169D02*
Y0565563D01*
Y0562020D02*
X0832039D01*
X0743638Y0589350D02*
X0748362D01*
X0743638Y0595650D02*
X0748362D01*
X0744425Y0590531D02*
Y0594468D01*
X0744819Y0592500D02*
X0747968Y0594468D01*
X0744819Y0592500D02*
X0747968Y0590531D01*
Y0594468D01*
X0743638Y0597350D02*
X0748362D01*
X0743638Y0603650D02*
X0748362D01*
X0744425Y0598531D02*
Y0602468D01*
X0744819Y0600500D02*
X0747968Y0602468D01*
X0744819Y0600500D02*
X0747968Y0598531D01*
Y0602468D01*
X0699882Y0600488D02*
X0710118D01*
Y0611512D01*
X0699882Y0600488D02*
Y0611512D01*
X0710118D01*
X0720882Y0600488D02*
X0731118D01*
Y0611512D01*
X0720882Y0600488D02*
Y0611512D01*
X0731118D01*
X0835221Y0599457D02*
Y0606543D01*
X0862780Y0599457D02*
Y0606543D01*
X0660850Y0569071D02*
X0667150D01*
Y0562929D02*
Y0569071D01*
X0660850Y0562929D02*
Y0569071D01*
Y0562929D02*
X0667150D01*
X0597213Y0556528D02*
Y0572472D01*
X0648787Y0556528D02*
Y0572472D01*
X0597213Y0556528D02*
X0648787D01*
X0597213Y0572472D02*
X0648787D01*
X0820898Y0606240D02*
X0833102D01*
X0820898Y0598760D02*
X0833102D01*
Y0606240D01*
X0820898Y0598760D02*
Y0606240D01*
X0783240Y0601094D02*
X0786760D01*
X0783240Y0612906D02*
X0786760D01*
X0711047Y0594602D02*
X0716953D01*
X0711047Y0582398D02*
X0716953D01*
X0711047D02*
Y0594602D01*
X0716953Y0582398D02*
Y0594602D01*
X0678425Y0594343D02*
X0681575D01*
X0678425Y0599657D02*
X0681575D01*
Y0594343D02*
Y0599657D01*
X0678425Y0594343D02*
Y0599657D01*
X0665925Y0594343D02*
X0669075D01*
X0665925Y0599657D02*
X0669075D01*
Y0594343D02*
Y0599657D01*
X0665925Y0594343D02*
Y0599657D01*
X0653425Y0594343D02*
X0656575D01*
X0653425Y0599657D02*
X0656575D01*
Y0594343D02*
Y0599657D01*
X0653425Y0594343D02*
Y0599657D01*
X0640925Y0594343D02*
X0644075D01*
X0640925Y0599657D02*
X0644075D01*
Y0594343D02*
Y0599657D01*
X0640925Y0594343D02*
Y0599657D01*
X0628425Y0594343D02*
X0631575D01*
X0628425Y0599657D02*
X0631575D01*
Y0594343D02*
Y0599657D01*
X0628425Y0594343D02*
Y0599657D01*
X0615925Y0594343D02*
X0619075D01*
X0615925Y0599657D02*
X0619075D01*
Y0594343D02*
Y0599657D01*
X0615925Y0594343D02*
Y0599657D01*
X0603425Y0594343D02*
X0606575D01*
X0603425Y0599657D02*
X0606575D01*
Y0594343D02*
Y0599657D01*
X0603425Y0594343D02*
Y0599657D01*
X0590925Y0594343D02*
X0594075D01*
X0590925Y0599657D02*
X0594075D01*
Y0594343D02*
Y0599657D01*
X0590925Y0594343D02*
Y0599657D01*
X0578425Y0594343D02*
X0581575D01*
X0578425Y0599657D02*
X0581575D01*
Y0594343D02*
Y0599657D01*
X0578425Y0594343D02*
Y0599657D01*
X0565925Y0594343D02*
X0569075D01*
X0565925Y0599657D02*
X0569075D01*
Y0594343D02*
Y0599657D01*
X0565925Y0594343D02*
Y0599657D01*
X0553425Y0594343D02*
X0556575D01*
X0553425Y0599657D02*
X0556575D01*
Y0594343D02*
Y0599657D01*
X0553425Y0594343D02*
Y0599657D01*
X0540925Y0594343D02*
X0544075D01*
X0540925Y0599657D02*
X0544075D01*
Y0594343D02*
Y0599657D01*
X0540925Y0594343D02*
Y0599657D01*
X0737039Y0540898D02*
Y0553102D01*
X0766370Y0540898D02*
X0768142Y0542669D01*
X0766370Y0553102D02*
X0768142Y0551331D01*
Y0542669D02*
Y0551331D01*
X0737039Y0540898D02*
X0747276D01*
X0737039Y0553102D02*
X0747276D01*
X0756724D02*
X0766370D01*
X0756724Y0540898D02*
X0766370D01*
X0749244Y0543063D02*
Y0550937D01*
X0754756Y0547000D01*
X0749244Y0543063D02*
X0754756Y0547000D01*
Y0543063D02*
Y0550937D01*
X0739657Y0561201D02*
Y0573799D01*
X0759342Y0561201D02*
Y0573799D01*
X0739657Y0561201D02*
X0759342D01*
X0739657Y0573799D02*
X0759342D01*
D83*
X0820200Y0569600D02*
X0823394D01*
X0820200Y0567200D02*
Y0569600D01*
Y0558488D02*
X0823394D01*
X0820200D02*
Y0560850D01*
X0675398Y0614445D02*
Y0636492D01*
X0675201Y0614248D02*
X0675398Y0614445D01*
X0610445Y0614248D02*
X0675201D01*
X0537602Y0636886D02*
X0675398D01*
X0537602Y0614248D02*
X0602445D01*
X0537602Y0614248D02*
Y0636886D01*
X0602508Y0616184D02*
X0610445D01*
Y0614216D02*
Y0616184D01*
X0602508Y0614216D02*
Y0616184D01*
X0536216Y0587425D02*
X0554000D01*
Y0540500D02*
Y0587425D01*
X0536216Y0540500D02*
Y0560000D01*
Y0567937D02*
Y0587425D01*
X0538184Y0560000D02*
Y0567937D01*
X0536216Y0560000D02*
X0538184D01*
X0536216Y0567937D02*
X0538184D01*
X0536216Y0540500D02*
X0554000D01*
X0555386Y0540716D02*
Y0558500D01*
X0578811D01*
X0570937Y0540716D02*
X0578811D01*
X0563063Y0542684D02*
X0570937D01*
Y0540716D02*
Y0542684D01*
X0563063Y0540716D02*
Y0542684D01*
X0578811Y0540716D02*
Y0558500D01*
X0677500Y0636811D02*
X0695284D01*
X0693316Y0621063D02*
X0695284D01*
X0693316Y0628937D02*
X0695284D01*
X0693316Y0621063D02*
Y0628937D01*
X0695284D02*
Y0636811D01*
X0677500Y0613386D02*
Y0636811D01*
Y0613386D02*
X0695284D01*
X0824100Y0577106D02*
Y0580300D01*
X0821700D02*
X0824100D01*
X0812988Y0577106D02*
Y0580300D01*
X0815350D01*
X0555449Y0560716D02*
Y0578500D01*
X0578874D01*
X0571000Y0560716D02*
X0578874D01*
X0563126Y0562684D02*
X0571000D01*
Y0560716D02*
Y0562684D01*
X0563126Y0560716D02*
Y0562684D01*
X0578874Y0560716D02*
Y0578500D01*
X0708800Y0620700D02*
Y0626200D01*
X0726161D01*
Y0620700D02*
Y0626200D01*
X0704100Y0637709D02*
X0730886D01*
X0704100Y0620700D02*
Y0627000D01*
Y0620700D02*
X0708800D01*
X0726161D02*
X0730886D01*
Y0627000D01*
D84*
X0730500Y0586500D02*
Y0588500D01*
X0622360Y0543098D02*
X0624360D01*
X0647860Y0543172D02*
X0649860D01*
X0618860Y0543098D02*
X0620860D01*
X0817500Y0601968D02*
X0819500D01*
X0682425Y0601000D02*
Y0603000D01*
X0669925Y0601000D02*
Y0603000D01*
X0657425Y0601000D02*
Y0603000D01*
X0644925Y0601000D02*
Y0603000D01*
X0632425Y0601000D02*
Y0603000D01*
X0619925Y0601000D02*
Y0603000D01*
X0607425Y0601000D02*
Y0603000D01*
X0594925Y0601000D02*
Y0603000D01*
X0582425Y0601000D02*
Y0603000D01*
X0570000Y0601000D02*
Y0603000D01*
X0557500Y0601000D02*
Y0603000D01*
X0545000Y0601000D02*
Y0603000D01*
X0651000Y0571500D02*
X0653000D01*
X0712000Y0597500D02*
Y0599500D01*
X0792000Y0611500D02*
X0794000D01*
X0783000Y0614500D02*
Y0616500D01*
X0694500Y0586000D02*
X0696500D01*
X0691834Y0584833D02*
X0691501Y0584500D01*
Y0583833D01*
X0691834Y0583500D01*
X0693167D01*
X0693500Y0583833D01*
Y0584500D01*
X0693167Y0584833D01*
X0693500Y0585499D02*
Y0586166D01*
Y0585833D01*
X0691501D01*
X0691834Y0585499D01*
X0691501Y0588498D02*
X0691834Y0587832D01*
X0692500Y0587165D01*
X0693167D01*
X0693500Y0587499D01*
Y0588165D01*
X0693167Y0588498D01*
X0692834D01*
X0692500Y0588165D01*
Y0587165D01*
X0807500Y0608500D02*
Y0610499D01*
X0808500D01*
X0808833Y0610166D01*
Y0609500D01*
X0808500Y0609166D01*
X0807500D01*
X0808166D02*
X0808833Y0608500D01*
X0810832D02*
X0809499D01*
X0810832Y0609833D01*
Y0610166D01*
X0810499Y0610499D01*
X0809833D01*
X0809499Y0610166D01*
X0812498Y0608500D02*
Y0610499D01*
X0811499Y0609500D01*
X0812832D01*
X0807500Y0612000D02*
Y0613999D01*
X0808500D01*
X0808833Y0613666D01*
Y0613000D01*
X0808500Y0612666D01*
X0807500D01*
X0808166D02*
X0808833Y0612000D01*
X0810832D02*
X0809499D01*
X0810832Y0613333D01*
Y0613666D01*
X0810499Y0613999D01*
X0809833D01*
X0809499Y0613666D01*
X0811499D02*
X0811832Y0613999D01*
X0812498D01*
X0812832Y0613666D01*
Y0613333D01*
X0812498Y0613000D01*
X0812165D01*
X0812498D01*
X0812832Y0612666D01*
Y0612333D01*
X0812498Y0612000D01*
X0811832D01*
X0811499Y0612333D01*
X0728000Y0594000D02*
Y0595999D01*
X0729000D01*
X0729333Y0595666D01*
Y0595000D01*
X0729000Y0594666D01*
X0728000D01*
X0728666D02*
X0729333Y0594000D01*
X0731332D02*
X0729999D01*
X0731332Y0595333D01*
Y0595666D01*
X0730999Y0595999D01*
X0730333D01*
X0729999Y0595666D01*
X0733332Y0595999D02*
X0732665Y0595666D01*
X0731999Y0595000D01*
Y0594333D01*
X0732332Y0594000D01*
X0732998D01*
X0733332Y0594333D01*
Y0594666D01*
X0732998Y0595000D01*
X0731999D01*
X0729333Y0585166D02*
X0729000Y0585499D01*
X0728333D01*
X0728000Y0585166D01*
Y0583833D01*
X0728333Y0583500D01*
X0729000D01*
X0729333Y0583833D01*
X0729999Y0583500D02*
X0730666D01*
X0730333D01*
Y0585499D01*
X0729999Y0585166D01*
X0732998Y0585499D02*
X0731666D01*
Y0584500D01*
X0732332Y0584833D01*
X0732665D01*
X0732998Y0584500D01*
Y0583833D01*
X0732665Y0583500D01*
X0731999D01*
X0731666Y0583833D01*
X0696500Y0592500D02*
Y0594499D01*
X0697500D01*
X0697833Y0594166D01*
Y0593500D01*
X0697500Y0593166D01*
X0696500D01*
X0697166D02*
X0697833Y0592500D01*
X0699832D02*
X0698499D01*
X0699832Y0593833D01*
Y0594166D01*
X0699499Y0594499D01*
X0698833D01*
X0698499Y0594166D01*
X0700499Y0594499D02*
X0701832D01*
Y0594166D01*
X0700499Y0592833D01*
Y0592500D01*
X0670334Y0559833D02*
X0670001Y0559500D01*
Y0558833D01*
X0670334Y0558500D01*
X0671667D01*
X0672000Y0558833D01*
Y0559500D01*
X0671667Y0559833D01*
X0672000Y0561832D02*
Y0560499D01*
X0670667Y0561832D01*
X0670334D01*
X0670001Y0561499D01*
Y0560833D01*
X0670334Y0560499D01*
Y0562499D02*
X0670001Y0562832D01*
Y0563498D01*
X0670334Y0563832D01*
X0671667D01*
X0672000Y0563498D01*
Y0562832D01*
X0671667Y0562499D01*
X0670334D01*
X0816833Y0567333D02*
Y0568666D01*
X0816500Y0568999D01*
X0815833D01*
X0815500Y0568666D01*
Y0567333D01*
X0815833Y0567000D01*
X0816500D01*
X0816166Y0567666D02*
X0816833Y0567000D01*
X0816500D02*
X0816833Y0567333D01*
X0818832Y0568999D02*
X0817499D01*
Y0568000D01*
X0818166Y0568333D01*
X0818499D01*
X0818832Y0568000D01*
Y0567333D01*
X0818499Y0567000D01*
X0817833D01*
X0817499Y0567333D01*
X0831333Y0571833D02*
Y0573166D01*
X0831000Y0573499D01*
X0830333D01*
X0830000Y0573166D01*
Y0571833D01*
X0830333Y0571500D01*
X0831000D01*
X0830667Y0572166D02*
X0831333Y0571500D01*
X0831000D02*
X0831333Y0571833D01*
X0833332Y0573499D02*
X0832666Y0573166D01*
X0831999Y0572500D01*
Y0571833D01*
X0832333Y0571500D01*
X0832999D01*
X0833332Y0571833D01*
Y0572166D01*
X0832999Y0572500D01*
X0831999D01*
X0814834Y0600333D02*
X0814501Y0600000D01*
Y0599333D01*
X0814834Y0599000D01*
X0816167D01*
X0816500Y0599333D01*
Y0600000D01*
X0816167Y0600333D01*
X0814834Y0600999D02*
X0814501Y0601333D01*
Y0601999D01*
X0814834Y0602332D01*
X0815167D01*
X0815500Y0601999D01*
Y0601666D01*
Y0601999D01*
X0815834Y0602332D01*
X0816167D01*
X0816500Y0601999D01*
Y0601333D01*
X0816167Y0600999D01*
X0816500Y0604332D02*
Y0602999D01*
X0815167Y0604332D01*
X0814834D01*
X0814501Y0603998D01*
Y0603332D01*
X0814834Y0602999D01*
X0797833Y0605666D02*
X0797500Y0605999D01*
X0796833D01*
X0796500Y0605666D01*
Y0604333D01*
X0796833Y0604000D01*
X0797500D01*
X0797833Y0604333D01*
X0799832Y0604000D02*
X0798499D01*
X0799832Y0605333D01*
Y0605666D01*
X0799499Y0605999D01*
X0798833D01*
X0798499Y0605666D01*
X0800499D02*
X0800832Y0605999D01*
X0801498D01*
X0801832Y0605666D01*
Y0605333D01*
X0801498Y0605000D01*
X0801165D01*
X0801498D01*
X0801832Y0604666D01*
Y0604333D01*
X0801498Y0604000D01*
X0800832D01*
X0800499Y0604333D01*
X0742333Y0581451D02*
Y0582784D01*
X0742000Y0583117D01*
X0741333D01*
X0741000Y0582784D01*
Y0581451D01*
X0741333Y0581118D01*
X0742000D01*
X0741666Y0581785D02*
X0742333Y0581118D01*
X0742000D02*
X0742333Y0581451D01*
X0744332Y0581118D02*
X0742999D01*
X0744332Y0582451D01*
Y0582784D01*
X0743999Y0583117D01*
X0743333D01*
X0742999Y0582784D01*
X0813593Y0581896D02*
Y0583229D01*
X0813260Y0583562D01*
X0812593D01*
X0812260Y0583229D01*
Y0581896D01*
X0812593Y0581563D01*
X0813260D01*
X0812926Y0582229D02*
X0813593Y0581563D01*
X0813260D02*
X0813593Y0581896D01*
X0814259D02*
X0814592Y0581563D01*
X0815259D01*
X0815592Y0581896D01*
Y0583229D01*
X0815259Y0583562D01*
X0814592D01*
X0814259Y0583229D01*
Y0582896D01*
X0814592Y0582563D01*
X0815592D01*
X0761500Y0580000D02*
Y0581999D01*
X0762500D01*
X0762833Y0581666D01*
Y0581000D01*
X0762500Y0580666D01*
X0761500D01*
X0762166D02*
X0762833Y0580000D01*
X0764832D02*
X0763499D01*
X0764832Y0581333D01*
Y0581666D01*
X0764499Y0581999D01*
X0763833D01*
X0763499Y0581666D01*
X0765499Y0580333D02*
X0765832Y0580000D01*
X0766498D01*
X0766832Y0580333D01*
Y0581666D01*
X0766498Y0581999D01*
X0765832D01*
X0765499Y0581666D01*
Y0581333D01*
X0765832Y0581000D01*
X0766832D01*
X0670334Y0568833D02*
X0670001Y0568500D01*
Y0567833D01*
X0670334Y0567500D01*
X0671667D01*
X0672000Y0567833D01*
Y0568500D01*
X0671667Y0568833D01*
X0672000Y0569499D02*
Y0570166D01*
Y0569833D01*
X0670001D01*
X0670334Y0569499D01*
X0671667Y0571166D02*
X0672000Y0571499D01*
Y0572165D01*
X0671667Y0572498D01*
X0670334D01*
X0670001Y0572165D01*
Y0571499D01*
X0670334Y0571166D01*
X0670667D01*
X0671000Y0571499D01*
Y0572498D01*
X0534501Y0623500D02*
X0536500D01*
Y0624500D01*
X0536167Y0624833D01*
X0535834D01*
X0535500Y0624500D01*
Y0623500D01*
Y0624500D01*
X0535167Y0624833D01*
X0534834D01*
X0534501Y0624500D01*
Y0623500D01*
X0536500Y0625499D02*
X0535167D01*
X0534501Y0626166D01*
X0535167Y0626832D01*
X0536500D01*
X0535500D01*
Y0625499D01*
X0534501Y0627499D02*
X0536500D01*
Y0628832D01*
Y0629498D02*
X0535167D01*
X0534501Y0630164D01*
X0535167Y0630831D01*
X0536500D01*
X0535500D01*
Y0629498D01*
X0536500Y0631497D02*
X0534501D01*
X0536500Y0632830D01*
X0534501D01*
X0534834Y0634830D02*
X0534501Y0634496D01*
Y0633830D01*
X0534834Y0633497D01*
X0536167D01*
X0536500Y0633830D01*
Y0634496D01*
X0536167Y0634830D01*
X0534501Y0636829D02*
Y0635496D01*
X0536500D01*
Y0636829D01*
X0535500Y0635496D02*
Y0636163D01*
X0700500Y0612500D02*
Y0614499D01*
X0701500D01*
X0701833Y0614166D01*
Y0613500D01*
X0701500Y0613166D01*
X0700500D01*
X0701166D02*
X0701833Y0612500D01*
X0703832Y0614499D02*
X0702499D01*
Y0612500D01*
X0703832D01*
X0702499Y0613500D02*
X0703166D01*
X0705832Y0614166D02*
X0705498Y0614499D01*
X0704832D01*
X0704499Y0614166D01*
Y0613833D01*
X0704832Y0613500D01*
X0705498D01*
X0705832Y0613166D01*
Y0612833D01*
X0705498Y0612500D01*
X0704832D01*
X0704499Y0612833D01*
X0707831Y0614499D02*
X0706498D01*
Y0612500D01*
X0707831D01*
X0706498Y0613500D02*
X0707164D01*
X0708497Y0614499D02*
X0709830D01*
X0709164D01*
Y0612500D01*
X0722500Y0614499D02*
Y0612500D01*
X0723500D01*
X0723833Y0612833D01*
Y0613166D01*
X0723500Y0613500D01*
X0722500D01*
X0723500D01*
X0723833Y0613833D01*
Y0614166D01*
X0723500Y0614499D01*
X0722500D01*
X0725499D02*
X0724833D01*
X0724499Y0614166D01*
Y0612833D01*
X0724833Y0612500D01*
X0725499D01*
X0725832Y0612833D01*
Y0614166D01*
X0725499Y0614499D01*
X0727498D02*
X0726832D01*
X0726499Y0614166D01*
Y0612833D01*
X0726832Y0612500D01*
X0727498D01*
X0727832Y0612833D01*
Y0614166D01*
X0727498Y0614499D01*
X0728498D02*
X0729831D01*
X0729165D01*
Y0612500D01*
X0848153Y0557000D02*
Y0558999D01*
X0849153D01*
X0849486Y0558666D01*
Y0558000D01*
X0849153Y0557666D01*
X0848153D01*
X0848820D02*
X0849486Y0557000D01*
X0850153Y0558666D02*
X0850486Y0558999D01*
X0851153D01*
X0851486Y0558666D01*
Y0558333D01*
X0851153Y0558000D01*
X0850819D01*
X0851153D01*
X0851486Y0557666D01*
Y0557333D01*
X0851153Y0557000D01*
X0850486D01*
X0850153Y0557333D01*
X0852152Y0558666D02*
X0852485Y0558999D01*
X0853152D01*
X0853485Y0558666D01*
Y0558333D01*
X0853152Y0558000D01*
X0853485Y0557666D01*
Y0557333D01*
X0853152Y0557000D01*
X0852485D01*
X0852152Y0557333D01*
Y0557666D01*
X0852485Y0558000D01*
X0852152Y0558333D01*
Y0558666D01*
X0852485Y0558000D02*
X0853152D01*
X0722500Y0597500D02*
Y0599499D01*
X0723500D01*
X0723833Y0599166D01*
Y0598500D01*
X0723500Y0598166D01*
X0722500D01*
X0723166D02*
X0723833Y0597500D01*
X0724499D02*
X0725166D01*
X0724833D01*
Y0599499D01*
X0724499Y0599166D01*
X0726165D02*
X0726499Y0599499D01*
X0727165D01*
X0727498Y0599166D01*
Y0598833D01*
X0727165Y0598500D01*
X0727498Y0598166D01*
Y0597833D01*
X0727165Y0597500D01*
X0726499D01*
X0726165Y0597833D01*
Y0598166D01*
X0726499Y0598500D01*
X0726165Y0598833D01*
Y0599166D01*
X0726499Y0598500D02*
X0727165D01*
X0655000Y0575000D02*
Y0576999D01*
X0656000D01*
X0656333Y0576666D01*
Y0576000D01*
X0656000Y0575666D01*
X0655000D01*
X0655666D02*
X0656333Y0575000D01*
X0658332Y0576999D02*
X0656999D01*
Y0576000D01*
X0657666Y0576333D01*
X0657999D01*
X0658332Y0576000D01*
Y0575333D01*
X0657999Y0575000D01*
X0657333D01*
X0656999Y0575333D01*
X0834500Y0584500D02*
Y0586499D01*
X0835500D01*
X0835833Y0586166D01*
Y0585500D01*
X0835500Y0585166D01*
X0834500D01*
X0835166D02*
X0835833Y0584500D01*
X0837499D02*
Y0586499D01*
X0836499Y0585500D01*
X0837832D01*
X0839832Y0586499D02*
X0838499D01*
Y0585500D01*
X0839165Y0585833D01*
X0839498D01*
X0839832Y0585500D01*
Y0584833D01*
X0839498Y0584500D01*
X0838832D01*
X0838499Y0584833D01*
X0653000Y0565999D02*
Y0564000D01*
X0654333D01*
X0654999D02*
X0655666D01*
X0655333D01*
Y0565999D01*
X0654999Y0565666D01*
X0580334Y0561833D02*
X0580001Y0561500D01*
Y0560833D01*
X0580334Y0560500D01*
X0581667D01*
X0582000Y0560833D01*
Y0561500D01*
X0581667Y0561833D01*
X0582000Y0562499D02*
X0580667D01*
X0580001Y0563166D01*
X0580667Y0563832D01*
X0582000D01*
X0581000D01*
Y0562499D01*
X0582000Y0564499D02*
X0580001D01*
X0582000Y0565832D01*
X0580001D01*
X0662000Y0576999D02*
Y0575000D01*
X0663000D01*
X0663333Y0575333D01*
Y0576666D01*
X0663000Y0576999D01*
X0662000D01*
X0663999Y0575000D02*
X0664666D01*
X0664333D01*
Y0576999D01*
X0663999Y0576666D01*
X0704833Y0599166D02*
X0704500Y0599499D01*
X0703833D01*
X0703500Y0599166D01*
Y0597833D01*
X0703833Y0597500D01*
X0704500D01*
X0704833Y0597833D01*
X0705499Y0597500D02*
X0706166D01*
X0705833D01*
Y0599499D01*
X0705499Y0599166D01*
X0708498Y0597500D02*
X0707165D01*
X0708498Y0598833D01*
Y0599166D01*
X0708165Y0599499D01*
X0707499D01*
X0707165Y0599166D01*
X0651333Y0576666D02*
X0651000Y0576999D01*
X0650333D01*
X0650000Y0576666D01*
Y0575333D01*
X0650333Y0575000D01*
X0651000D01*
X0651333Y0575333D01*
X0653332Y0575000D02*
X0651999D01*
X0653332Y0576333D01*
Y0576666D01*
X0652999Y0576999D01*
X0652333D01*
X0651999Y0576666D01*
X0594109Y0569787D02*
X0595537D01*
X0595823Y0569883D01*
X0596013Y0570073D01*
X0596109Y0570359D01*
Y0570549D01*
X0596013Y0570835D01*
X0595823Y0571025D01*
X0595537Y0571120D01*
X0594109D01*
X0594490Y0571673D02*
X0594395Y0571863D01*
X0594109Y0572149D01*
X0596109D01*
X0696501Y0613500D02*
Y0614833D01*
Y0614166D01*
X0698500D01*
X0696501Y0616832D02*
Y0615499D01*
X0698500D01*
Y0616832D01*
X0697500Y0615499D02*
Y0616166D01*
X0698500Y0617499D02*
X0696501D01*
X0697167Y0618165D01*
X0696501Y0618832D01*
X0698500D01*
Y0619498D02*
X0696501D01*
Y0620498D01*
X0696834Y0620831D01*
X0697500D01*
X0697834Y0620498D01*
Y0619498D01*
X0819001Y0592500D02*
X0820667D01*
X0821000Y0592833D01*
Y0593500D01*
X0820667Y0593833D01*
X0819001D01*
X0820667Y0594499D02*
X0821000Y0594833D01*
Y0595499D01*
X0820667Y0595832D01*
X0819334D01*
X0819001Y0595499D01*
Y0594833D01*
X0819334Y0594499D01*
X0819667D01*
X0820000Y0594833D01*
Y0595832D01*
X0795334Y0610333D02*
X0795001Y0610000D01*
Y0609333D01*
X0795334Y0609000D01*
X0796667D01*
X0797000Y0609333D01*
Y0610000D01*
X0796667Y0610333D01*
X0797000Y0612332D02*
Y0610999D01*
X0795667Y0612332D01*
X0795334D01*
X0795001Y0611999D01*
Y0611333D01*
X0795334Y0610999D01*
X0795001Y0614332D02*
Y0612999D01*
X0796000D01*
X0795667Y0613665D01*
Y0613998D01*
X0796000Y0614332D01*
X0796667D01*
X0797000Y0613998D01*
Y0613332D01*
X0796667Y0612999D01*
X0788000Y0601499D02*
Y0599833D01*
X0788333Y0599500D01*
X0789000D01*
X0789333Y0599833D01*
Y0601499D01*
X0791332D02*
X0789999D01*
Y0600500D01*
X0790666Y0600833D01*
X0790999D01*
X0791332Y0600500D01*
Y0599833D01*
X0790999Y0599500D01*
X0790333D01*
X0789999Y0599833D01*
X0771333Y0585166D02*
X0771000Y0585499D01*
X0770333D01*
X0770000Y0585166D01*
Y0583833D01*
X0770333Y0583500D01*
X0771000D01*
X0771333Y0583833D01*
X0773332Y0583500D02*
X0771999D01*
X0773332Y0584833D01*
Y0585166D01*
X0772999Y0585499D01*
X0772333D01*
X0771999Y0585166D01*
X0773999Y0583500D02*
X0774665D01*
X0774332D01*
Y0585499D01*
X0773999Y0585166D01*
X0764000Y0556499D02*
Y0554500D01*
X0765000D01*
X0765333Y0554833D01*
Y0556166D01*
X0765000Y0556499D01*
X0764000D01*
X0766999Y0554500D02*
Y0556499D01*
X0765999Y0555500D01*
X0767332D01*
X0691501Y0541500D02*
X0693500D01*
Y0542833D01*
Y0544832D02*
Y0543499D01*
X0692167Y0544832D01*
X0691834D01*
X0691501Y0544499D01*
Y0543833D01*
X0691834Y0543499D01*
X0703500Y0595999D02*
Y0594333D01*
X0703833Y0594000D01*
X0704500D01*
X0704833Y0594333D01*
Y0595999D01*
X0705499Y0595666D02*
X0705833Y0595999D01*
X0706499D01*
X0706832Y0595666D01*
Y0595333D01*
X0706499Y0595000D01*
X0706166D01*
X0706499D01*
X0706832Y0594666D01*
Y0594333D01*
X0706499Y0594000D01*
X0705833D01*
X0705499Y0594333D01*
X0787833Y0616166D02*
X0787500Y0616499D01*
X0786833D01*
X0786500Y0616166D01*
Y0614833D01*
X0786833Y0614500D01*
X0787500D01*
X0787833Y0614833D01*
X0789832Y0614500D02*
X0788499D01*
X0789832Y0615833D01*
Y0616166D01*
X0789499Y0616499D01*
X0788833D01*
X0788499Y0616166D01*
X0791498Y0614500D02*
Y0616499D01*
X0790499Y0615500D01*
X0791832D01*
X0535000Y0540500D02*
X0533001D01*
Y0541500D01*
X0533334Y0541833D01*
X0534000D01*
X0534334Y0541500D01*
Y0540500D01*
X0533001Y0542499D02*
X0535000D01*
X0534334Y0543166D01*
X0535000Y0543832D01*
X0533001D01*
X0535000Y0544499D02*
X0533001D01*
Y0545498D01*
X0533334Y0545832D01*
X0534000D01*
X0534334Y0545498D01*
Y0544499D01*
Y0545165D02*
X0535000Y0545832D01*
Y0546498D02*
X0533667Y0547831D01*
X0535000Y0548497D02*
X0533667D01*
X0533001Y0549164D01*
X0533667Y0549830D01*
X0535000D01*
X0534000D01*
Y0548497D01*
X0533334Y0551830D02*
X0533001Y0551496D01*
Y0550830D01*
X0533334Y0550497D01*
X0534667D01*
X0535000Y0550830D01*
Y0551496D01*
X0534667Y0551830D01*
X0533334Y0553829D02*
X0533001Y0553496D01*
Y0552829D01*
X0533334Y0552496D01*
X0534667D01*
X0535000Y0552829D01*
Y0553496D01*
X0534667Y0553829D01*
X0580334Y0541833D02*
X0580001Y0541500D01*
Y0540833D01*
X0580334Y0540500D01*
X0580667D01*
X0581000Y0540833D01*
Y0541500D01*
X0581334Y0541833D01*
X0581667D01*
X0582000Y0541500D01*
Y0540833D01*
X0581667Y0540500D01*
X0580001Y0542499D02*
X0582000D01*
X0581334Y0543166D01*
X0582000Y0543832D01*
X0580001D01*
Y0544499D02*
Y0545165D01*
Y0544832D01*
X0582000D01*
Y0544499D01*
Y0545165D01*
X0580001Y0546165D02*
Y0547498D01*
Y0546831D01*
X0582000D01*
X0580334Y0549497D02*
X0580001Y0549164D01*
Y0548497D01*
X0580334Y0548164D01*
X0581667D01*
X0582000Y0548497D01*
Y0549164D01*
X0581667Y0549497D01*
X0580001Y0550164D02*
X0582000D01*
X0581000D01*
Y0551496D01*
X0580001D01*
X0582000D01*
X0674564Y0592968D02*
Y0590969D01*
Y0592968D02*
X0675230D01*
X0675516Y0592873D01*
X0675706Y0592682D01*
X0675802Y0592492D01*
X0675897Y0592206D01*
Y0591730D01*
X0675802Y0591445D01*
X0675706Y0591254D01*
X0675516Y0591064D01*
X0675230Y0590969D01*
X0674564D01*
X0677677Y0592968D02*
X0676725Y0590969D01*
X0676344Y0592968D02*
X0677677D01*
X0678125Y0590302D02*
X0679648D01*
X0679906Y0592587D02*
X0680096Y0592682D01*
X0680382Y0592968D01*
Y0590969D01*
X0681467Y0592492D02*
Y0592587D01*
X0681562Y0592778D01*
X0681658Y0592873D01*
X0681848Y0592968D01*
X0682229D01*
X0682419Y0592873D01*
X0682515Y0592778D01*
X0682610Y0592587D01*
Y0592397D01*
X0682515Y0592206D01*
X0682324Y0591921D01*
X0681372Y0590969D01*
X0682705D01*
X0662064Y0592968D02*
Y0590969D01*
Y0592968D02*
X0662730D01*
X0663016Y0592873D01*
X0663206Y0592682D01*
X0663302Y0592492D01*
X0663397Y0592206D01*
Y0591730D01*
X0663302Y0591445D01*
X0663206Y0591254D01*
X0663016Y0591064D01*
X0662730Y0590969D01*
X0662064D01*
X0665177Y0592968D02*
X0664225Y0590969D01*
X0663844Y0592968D02*
X0665177D01*
X0665625Y0590302D02*
X0667148D01*
X0667406Y0592587D02*
X0667596Y0592682D01*
X0667882Y0592968D01*
Y0590969D01*
X0668872Y0592587D02*
X0669062Y0592682D01*
X0669348Y0592968D01*
Y0590969D01*
X0649564Y0592968D02*
Y0590969D01*
Y0592968D02*
X0650230D01*
X0650516Y0592873D01*
X0650706Y0592682D01*
X0650802Y0592492D01*
X0650897Y0592206D01*
Y0591730D01*
X0650802Y0591445D01*
X0650706Y0591254D01*
X0650516Y0591064D01*
X0650230Y0590969D01*
X0649564D01*
X0652677Y0592968D02*
X0651725Y0590969D01*
X0651344Y0592968D02*
X0652677D01*
X0653125Y0590302D02*
X0654648D01*
X0654906Y0592587D02*
X0655096Y0592682D01*
X0655382Y0592968D01*
Y0590969D01*
X0656943Y0592968D02*
X0656658Y0592873D01*
X0656467Y0592587D01*
X0656372Y0592111D01*
Y0591825D01*
X0656467Y0591349D01*
X0656658Y0591064D01*
X0656943Y0590969D01*
X0657134D01*
X0657419Y0591064D01*
X0657610Y0591349D01*
X0657705Y0591825D01*
Y0592111D01*
X0657610Y0592587D01*
X0657419Y0592873D01*
X0657134Y0592968D01*
X0656943D01*
X0637064D02*
Y0590969D01*
Y0592968D02*
X0637730D01*
X0638016Y0592873D01*
X0638206Y0592682D01*
X0638302Y0592492D01*
X0638397Y0592206D01*
Y0591730D01*
X0638302Y0591445D01*
X0638206Y0591254D01*
X0638016Y0591064D01*
X0637730Y0590969D01*
X0637064D01*
X0640177Y0592968D02*
X0639225Y0590969D01*
X0638844Y0592968D02*
X0640177D01*
X0640625Y0590302D02*
X0642148D01*
X0643643Y0592302D02*
X0643548Y0592016D01*
X0643358Y0591825D01*
X0643072Y0591730D01*
X0642977D01*
X0642691Y0591825D01*
X0642501Y0592016D01*
X0642406Y0592302D01*
Y0592397D01*
X0642501Y0592682D01*
X0642691Y0592873D01*
X0642977Y0592968D01*
X0643072D01*
X0643358Y0592873D01*
X0643548Y0592682D01*
X0643643Y0592302D01*
Y0591825D01*
X0643548Y0591349D01*
X0643358Y0591064D01*
X0643072Y0590969D01*
X0642882D01*
X0642596Y0591064D01*
X0642501Y0591254D01*
X0624564Y0592968D02*
Y0590969D01*
Y0592968D02*
X0625230D01*
X0625516Y0592873D01*
X0625706Y0592682D01*
X0625802Y0592492D01*
X0625897Y0592206D01*
Y0591730D01*
X0625802Y0591445D01*
X0625706Y0591254D01*
X0625516Y0591064D01*
X0625230Y0590969D01*
X0624564D01*
X0627677Y0592968D02*
X0626725Y0590969D01*
X0626344Y0592968D02*
X0627677D01*
X0628125Y0590302D02*
X0629648D01*
X0630382Y0592968D02*
X0630096Y0592873D01*
X0630001Y0592682D01*
Y0592492D01*
X0630096Y0592302D01*
X0630287Y0592206D01*
X0630667Y0592111D01*
X0630953Y0592016D01*
X0631143Y0591825D01*
X0631239Y0591635D01*
Y0591349D01*
X0631143Y0591159D01*
X0631048Y0591064D01*
X0630763Y0590969D01*
X0630382D01*
X0630096Y0591064D01*
X0630001Y0591159D01*
X0629906Y0591349D01*
Y0591635D01*
X0630001Y0591825D01*
X0630191Y0592016D01*
X0630477Y0592111D01*
X0630858Y0592206D01*
X0631048Y0592302D01*
X0631143Y0592492D01*
Y0592682D01*
X0631048Y0592873D01*
X0630763Y0592968D01*
X0630382D01*
X0612064D02*
Y0590969D01*
Y0592968D02*
X0612730D01*
X0613016Y0592873D01*
X0613206Y0592682D01*
X0613302Y0592492D01*
X0613397Y0592206D01*
Y0591730D01*
X0613302Y0591445D01*
X0613206Y0591254D01*
X0613016Y0591064D01*
X0612730Y0590969D01*
X0612064D01*
X0615177Y0592968D02*
X0614225Y0590969D01*
X0613844Y0592968D02*
X0615177D01*
X0615625Y0590302D02*
X0617148D01*
X0618739Y0592968D02*
X0617787Y0590969D01*
X0617406Y0592968D02*
X0618739D01*
X0599564Y0592968D02*
Y0590969D01*
Y0592968D02*
X0600230D01*
X0600516Y0592873D01*
X0600706Y0592682D01*
X0600802Y0592492D01*
X0600897Y0592206D01*
Y0591730D01*
X0600802Y0591445D01*
X0600706Y0591254D01*
X0600516Y0591064D01*
X0600230Y0590969D01*
X0599564D01*
X0602677Y0592968D02*
X0601725Y0590969D01*
X0601344Y0592968D02*
X0602677D01*
X0603125Y0590302D02*
X0604648D01*
X0606048Y0592682D02*
X0605953Y0592873D01*
X0605667Y0592968D01*
X0605477D01*
X0605191Y0592873D01*
X0605001Y0592587D01*
X0604906Y0592111D01*
Y0591635D01*
X0605001Y0591254D01*
X0605191Y0591064D01*
X0605477Y0590969D01*
X0605572D01*
X0605858Y0591064D01*
X0606048Y0591254D01*
X0606143Y0591540D01*
Y0591635D01*
X0606048Y0591921D01*
X0605858Y0592111D01*
X0605572Y0592206D01*
X0605477D01*
X0605191Y0592111D01*
X0605001Y0591921D01*
X0604906Y0591635D01*
X0587064Y0592968D02*
Y0590969D01*
Y0592968D02*
X0587730D01*
X0588016Y0592873D01*
X0588206Y0592682D01*
X0588302Y0592492D01*
X0588397Y0592206D01*
Y0591730D01*
X0588302Y0591445D01*
X0588206Y0591254D01*
X0588016Y0591064D01*
X0587730Y0590969D01*
X0587064D01*
X0590177Y0592968D02*
X0589225Y0590969D01*
X0588844Y0592968D02*
X0590177D01*
X0590625Y0590302D02*
X0592148D01*
X0593548Y0592968D02*
X0592596D01*
X0592501Y0592111D01*
X0592596Y0592206D01*
X0592882Y0592302D01*
X0593167D01*
X0593453Y0592206D01*
X0593643Y0592016D01*
X0593739Y0591730D01*
Y0591540D01*
X0593643Y0591254D01*
X0593453Y0591064D01*
X0593167Y0590969D01*
X0592882D01*
X0592596Y0591064D01*
X0592501Y0591159D01*
X0592406Y0591349D01*
X0574564Y0592968D02*
Y0590969D01*
Y0592968D02*
X0575230D01*
X0575516Y0592873D01*
X0575706Y0592682D01*
X0575802Y0592492D01*
X0575897Y0592206D01*
Y0591730D01*
X0575802Y0591445D01*
X0575706Y0591254D01*
X0575516Y0591064D01*
X0575230Y0590969D01*
X0574564D01*
X0577677Y0592968D02*
X0576725Y0590969D01*
X0576344Y0592968D02*
X0577677D01*
X0578125Y0590302D02*
X0579648D01*
X0580858Y0592968D02*
X0579906Y0591635D01*
X0581334D01*
X0580858Y0592968D02*
Y0590969D01*
X0562064Y0592968D02*
Y0590969D01*
Y0592968D02*
X0562730D01*
X0563016Y0592873D01*
X0563206Y0592682D01*
X0563302Y0592492D01*
X0563397Y0592206D01*
Y0591730D01*
X0563302Y0591445D01*
X0563206Y0591254D01*
X0563016Y0591064D01*
X0562730Y0590969D01*
X0562064D01*
X0565177Y0592968D02*
X0564225Y0590969D01*
X0563844Y0592968D02*
X0565177D01*
X0565625Y0590302D02*
X0567148D01*
X0567596Y0592968D02*
X0568643D01*
X0568072Y0592206D01*
X0568358D01*
X0568548Y0592111D01*
X0568643Y0592016D01*
X0568739Y0591730D01*
Y0591540D01*
X0568643Y0591254D01*
X0568453Y0591064D01*
X0568167Y0590969D01*
X0567882D01*
X0567596Y0591064D01*
X0567501Y0591159D01*
X0567406Y0591349D01*
X0549564Y0592968D02*
Y0590969D01*
Y0592968D02*
X0550230D01*
X0550516Y0592873D01*
X0550706Y0592682D01*
X0550802Y0592492D01*
X0550897Y0592206D01*
Y0591730D01*
X0550802Y0591445D01*
X0550706Y0591254D01*
X0550516Y0591064D01*
X0550230Y0590969D01*
X0549564D01*
X0552677Y0592968D02*
X0551725Y0590969D01*
X0551344Y0592968D02*
X0552677D01*
X0553125Y0590302D02*
X0554648D01*
X0555001Y0592492D02*
Y0592587D01*
X0555096Y0592778D01*
X0555191Y0592873D01*
X0555382Y0592968D01*
X0555763D01*
X0555953Y0592873D01*
X0556048Y0592778D01*
X0556143Y0592587D01*
Y0592397D01*
X0556048Y0592206D01*
X0555858Y0591921D01*
X0554906Y0590969D01*
X0556239D01*
X0537064Y0592968D02*
Y0590969D01*
Y0592968D02*
X0537731D01*
X0538016Y0592873D01*
X0538207Y0592682D01*
X0538302Y0592492D01*
X0538397Y0592206D01*
Y0591730D01*
X0538302Y0591445D01*
X0538207Y0591254D01*
X0538016Y0591064D01*
X0537731Y0590969D01*
X0537064D01*
X0540178Y0592968D02*
X0539225Y0590969D01*
X0538845Y0592968D02*
X0540178D01*
X0540625Y0590302D02*
X0542149D01*
X0542406Y0592587D02*
X0542596Y0592682D01*
X0542882Y0592968D01*
Y0590969D01*
X0781333Y0586666D02*
X0781000Y0586999D01*
X0780333D01*
X0780000Y0586666D01*
Y0585333D01*
X0780333Y0585000D01*
X0781000D01*
X0781333Y0585333D01*
X0783332Y0585000D02*
X0781999D01*
X0783332Y0586333D01*
Y0586666D01*
X0782999Y0586999D01*
X0782333D01*
X0781999Y0586666D01*
X0785332Y0586999D02*
X0784665Y0586666D01*
X0783999Y0586000D01*
Y0585333D01*
X0784332Y0585000D01*
X0784998D01*
X0785332Y0585333D01*
Y0585666D01*
X0784998Y0586000D01*
X0783999D01*
X0755500Y0613499D02*
Y0611500D01*
X0756833D01*
X0757499Y0613166D02*
X0757833Y0613499D01*
X0758499D01*
X0758832Y0613166D01*
Y0612833D01*
X0758499Y0612500D01*
X0758166D01*
X0758499D01*
X0758832Y0612166D01*
Y0611833D01*
X0758499Y0611500D01*
X0757833D01*
X0757499Y0611833D01*
X0744000Y0587999D02*
Y0586000D01*
X0745000D01*
X0745333Y0586333D01*
Y0587666D01*
X0745000Y0587999D01*
X0744000D01*
X0745999Y0586333D02*
X0746333Y0586000D01*
X0746999D01*
X0747332Y0586333D01*
Y0587666D01*
X0746999Y0587999D01*
X0746333D01*
X0745999Y0587666D01*
Y0587333D01*
X0746333Y0587000D01*
X0747332D01*
X0743500Y0606999D02*
Y0605000D01*
X0744500D01*
X0744833Y0605333D01*
Y0606666D01*
X0744500Y0606999D01*
X0743500D01*
X0745499Y0605000D02*
X0746166D01*
X0745833D01*
Y0606999D01*
X0745499Y0606666D01*
X0747165D02*
X0747499Y0606999D01*
X0748165D01*
X0748498Y0606666D01*
Y0605333D01*
X0748165Y0605000D01*
X0747499D01*
X0747165Y0605333D01*
Y0606666D01*
X0586000Y0542166D02*
X0586333Y0542499D01*
X0587000D01*
X0587333Y0542166D01*
Y0541833D01*
X0587000Y0541500D01*
X0586666D01*
X0587000D01*
X0587333Y0541166D01*
Y0540833D01*
X0587000Y0540500D01*
X0586333D01*
X0586000Y0540833D01*
X0587999Y0542499D02*
Y0541166D01*
X0588666Y0540500D01*
X0589332Y0541166D01*
Y0542499D01*
X0589999Y0542166D02*
X0590332Y0542499D01*
X0590998D01*
X0591332Y0542166D01*
Y0541833D01*
X0590998Y0541500D01*
X0590665D01*
X0590998D01*
X0591332Y0541166D01*
Y0540833D01*
X0590998Y0540500D01*
X0590332D01*
X0589999Y0540833D01*
X0586000Y0549000D02*
Y0550999D01*
X0587000D01*
X0587333Y0550666D01*
Y0550000D01*
X0587000Y0549666D01*
X0586000D01*
X0587999Y0550999D02*
Y0549000D01*
X0588666Y0549666D01*
X0589332Y0549000D01*
Y0550999D01*
X0589999Y0549000D02*
Y0550999D01*
X0590998D01*
X0591332Y0550666D01*
Y0550000D01*
X0590998Y0549666D01*
X0589999D01*
X0590665D02*
X0591332Y0549000D01*
X0813000Y0556000D02*
X0814333D01*
X0862000Y0556500D02*
X0863333D01*
X0862667Y0557166D02*
Y0555833D01*
X0839500Y0616500D02*
Y0617833D01*
X0838834Y0617166D02*
X0840167D01*
X0812500Y0617500D02*
X0813833D01*
X0688000Y0555500D02*
X0689333D01*
X0688666Y0556166D02*
Y0554833D01*
X0664500Y0555000D02*
X0665833D01*
X0865001Y0541000D02*
Y0540333D01*
X0865334Y0540000D01*
X0866667D01*
X0867000Y0540333D01*
Y0541000D01*
X0866667Y0541333D01*
X0865334D01*
X0865001Y0541000D01*
Y0541999D02*
X0866667D01*
X0867000Y0542333D01*
Y0542999D01*
X0866667Y0543332D01*
X0865001D01*
Y0543999D02*
Y0545332D01*
Y0544665D01*
X0867000D01*
Y0545998D02*
X0865001D01*
Y0546998D01*
X0865334Y0547331D01*
X0866000D01*
X0866333Y0546998D01*
Y0545998D01*
X0865001Y0547997D02*
X0866667D01*
X0867000Y0548331D01*
Y0548997D01*
X0866667Y0549330D01*
X0865001D01*
Y0549997D02*
Y0551330D01*
Y0550663D01*
X0867000D01*
X0864501Y0624000D02*
X0866500D01*
Y0625000D01*
X0866167Y0625333D01*
X0865833D01*
X0865500Y0625000D01*
Y0624000D01*
Y0625000D01*
X0865167Y0625333D01*
X0864834D01*
X0864501Y0625000D01*
Y0624000D01*
X0866500Y0625999D02*
X0865167D01*
X0864501Y0626666D01*
X0865167Y0627332D01*
X0866500D01*
X0865500D01*
Y0625999D01*
X0864501Y0627999D02*
Y0629332D01*
Y0628665D01*
X0866500D01*
X0864501Y0629998D02*
Y0631331D01*
Y0630664D01*
X0866500D01*
X0864501Y0633330D02*
Y0631997D01*
X0866500D01*
Y0633330D01*
X0865500Y0631997D02*
Y0632664D01*
X0866500Y0633997D02*
X0864501D01*
Y0634996D01*
X0864834Y0635330D01*
X0865500D01*
X0865833Y0634996D01*
Y0633997D01*
Y0634663D02*
X0866500Y0635330D01*
X0864501Y0635996D02*
X0864834D01*
X0865500Y0636663D01*
X0864834Y0637329D01*
X0864501D01*
X0865500Y0636663D02*
X0866500D01*
X0661334Y0540833D02*
X0661001Y0540500D01*
Y0539833D01*
X0661334Y0539500D01*
X0662667D01*
X0663000Y0539833D01*
Y0540500D01*
X0662667Y0540833D01*
X0661001Y0541499D02*
X0663000D01*
X0662000D01*
Y0542832D01*
X0661001D01*
X0663000D01*
Y0543499D02*
X0661667D01*
X0661001Y0544165D01*
X0661667Y0544832D01*
X0663000D01*
X0662000D01*
Y0543499D01*
X0663000Y0545498D02*
X0661001D01*
Y0546498D01*
X0661334Y0546831D01*
X0662000D01*
X0662334Y0546498D01*
Y0545498D01*
Y0546165D02*
X0663000Y0546831D01*
X0661334Y0548830D02*
X0661001Y0548497D01*
Y0547831D01*
X0661334Y0547497D01*
X0662667D01*
X0663000Y0547831D01*
Y0548497D01*
X0662667Y0548830D01*
X0662000D01*
Y0548164D01*
X0661001Y0550830D02*
Y0549497D01*
X0663000D01*
Y0550830D01*
X0662000Y0549497D02*
Y0550163D01*
X0663000Y0551496D02*
X0661001D01*
Y0552496D01*
X0661334Y0552829D01*
X0662000D01*
X0662334Y0552496D01*
Y0551496D01*
Y0552163D02*
X0663000Y0552829D01*
D85*
X0555386Y0540716D02*
X0563063D01*
X0695284Y0613386D02*
Y0621063D01*
X0555449Y0560716D02*
X0563126D01*
D86*
X0583185Y0556362D02*
X0586039D01*
X0583185Y0551638D02*
X0586039D01*
X0590961D02*
X0593815D01*
Y0556362D01*
X0590961D02*
X0593815D01*
X0583185Y0551638D02*
Y0556362D01*
X0587694Y0552327D02*
Y0555673D01*
Y0554000D02*
X0589287Y0552406D01*
X0587694Y0554000D02*
X0589287Y0555594D01*
Y0552425D02*
Y0555575D01*
X0583185Y0547862D02*
X0586039D01*
X0583185Y0543138D02*
X0586039D01*
X0590961D02*
X0593815D01*
Y0547862D01*
X0590961D02*
X0593815D01*
X0583185Y0543138D02*
Y0547862D01*
X0587694Y0543827D02*
Y0547173D01*
Y0545500D02*
X0589287Y0543906D01*
X0587694Y0545500D02*
X0589287Y0547094D01*
Y0543925D02*
Y0547075D01*
X0536638Y0600685D02*
Y0603539D01*
X0541362Y0600685D02*
Y0603539D01*
Y0608461D02*
Y0611315D01*
X0536638D02*
X0541362D01*
X0536638Y0608461D02*
Y0611315D01*
Y0600685D02*
X0541362D01*
X0537327Y0605194D02*
X0540673D01*
X0539000D02*
X0540594Y0606787D01*
X0537406D02*
X0539000Y0605194D01*
X0537425Y0606787D02*
X0540575D01*
X0549138Y0600685D02*
Y0603539D01*
X0553862Y0600685D02*
Y0603539D01*
Y0608461D02*
Y0611315D01*
X0549138D02*
X0553862D01*
X0549138Y0608461D02*
Y0611315D01*
Y0600685D02*
X0553862D01*
X0549827Y0605194D02*
X0553173D01*
X0551500D02*
X0553094Y0606787D01*
X0549906D02*
X0551500Y0605194D01*
X0549925Y0606787D02*
X0553075D01*
X0561638Y0600685D02*
Y0603539D01*
X0566362Y0600685D02*
Y0603539D01*
Y0608461D02*
Y0611315D01*
X0561638D02*
X0566362D01*
X0561638Y0608461D02*
Y0611315D01*
Y0600685D02*
X0566362D01*
X0562327Y0605194D02*
X0565673D01*
X0564000D02*
X0565594Y0606787D01*
X0562406D02*
X0564000Y0605194D01*
X0562425Y0606787D02*
X0565575D01*
X0574138Y0600685D02*
Y0603539D01*
X0578862Y0600685D02*
Y0603539D01*
Y0608461D02*
Y0611315D01*
X0574138D02*
X0578862D01*
X0574138Y0608461D02*
Y0611315D01*
Y0600685D02*
X0578862D01*
X0574827Y0605194D02*
X0578173D01*
X0576500D02*
X0578094Y0606787D01*
X0574906D02*
X0576500Y0605194D01*
X0574925Y0606787D02*
X0578075D01*
X0586638Y0600685D02*
Y0603539D01*
X0591362Y0600685D02*
Y0603539D01*
Y0608461D02*
Y0611315D01*
X0586638D02*
X0591362D01*
X0586638Y0608461D02*
Y0611315D01*
Y0600685D02*
X0591362D01*
X0587327Y0605194D02*
X0590673D01*
X0589000D02*
X0590594Y0606787D01*
X0587406D02*
X0589000Y0605194D01*
X0587425Y0606787D02*
X0590575D01*
X0599138Y0600685D02*
Y0603539D01*
X0603862Y0600685D02*
Y0603539D01*
Y0608461D02*
Y0611315D01*
X0599138D02*
X0603862D01*
X0599138Y0608461D02*
Y0611315D01*
Y0600685D02*
X0603862D01*
X0599827Y0605194D02*
X0603173D01*
X0601500D02*
X0603094Y0606787D01*
X0599906D02*
X0601500Y0605194D01*
X0599925Y0606787D02*
X0603075D01*
X0611638Y0600685D02*
Y0603539D01*
X0616362Y0600685D02*
Y0603539D01*
Y0608461D02*
Y0611315D01*
X0611638D02*
X0616362D01*
X0611638Y0608461D02*
Y0611315D01*
Y0600685D02*
X0616362D01*
X0612327Y0605194D02*
X0615673D01*
X0614000D02*
X0615594Y0606787D01*
X0612406D02*
X0614000Y0605194D01*
X0612425Y0606787D02*
X0615575D01*
X0624138Y0600685D02*
Y0603539D01*
X0628862Y0600685D02*
Y0603539D01*
Y0608461D02*
Y0611315D01*
X0624138D02*
X0628862D01*
X0624138Y0608461D02*
Y0611315D01*
Y0600685D02*
X0628862D01*
X0624827Y0605194D02*
X0628173D01*
X0626500D02*
X0628094Y0606787D01*
X0624906D02*
X0626500Y0605194D01*
X0624925Y0606787D02*
X0628075D01*
X0636638Y0600685D02*
Y0603539D01*
X0641362Y0600685D02*
Y0603539D01*
Y0608461D02*
Y0611315D01*
X0636638D02*
X0641362D01*
X0636638Y0608461D02*
Y0611315D01*
Y0600685D02*
X0641362D01*
X0637327Y0605194D02*
X0640673D01*
X0639000D02*
X0640594Y0606787D01*
X0637406D02*
X0639000Y0605194D01*
X0637425Y0606787D02*
X0640575D01*
X0649138Y0600685D02*
Y0603539D01*
X0653862Y0600685D02*
Y0603539D01*
Y0608461D02*
Y0611315D01*
X0649138D02*
X0653862D01*
X0649138Y0608461D02*
Y0611315D01*
Y0600685D02*
X0653862D01*
X0649827Y0605194D02*
X0653173D01*
X0651500D02*
X0653094Y0606787D01*
X0649906D02*
X0651500Y0605194D01*
X0649925Y0606787D02*
X0653075D01*
X0661638Y0600685D02*
Y0603539D01*
X0666362Y0600685D02*
Y0603539D01*
Y0608461D02*
Y0611315D01*
X0661638D02*
X0666362D01*
X0661638Y0608461D02*
Y0611315D01*
Y0600685D02*
X0666362D01*
X0662327Y0605194D02*
X0665673D01*
X0664000D02*
X0665594Y0606787D01*
X0662406D02*
X0664000Y0605194D01*
X0662425Y0606787D02*
X0665575D01*
X0674138Y0600685D02*
Y0603539D01*
X0678862Y0600685D02*
Y0603539D01*
Y0608461D02*
Y0611315D01*
X0674138D02*
X0678862D01*
X0674138Y0608461D02*
Y0611315D01*
Y0600685D02*
X0678862D01*
X0674827Y0605194D02*
X0678173D01*
X0676500D02*
X0678094Y0606787D01*
X0674906D02*
X0676500Y0605194D01*
X0674925Y0606787D02*
X0678075D01*
D87*
X0630500Y0539000D02*
Y0540000D01*
X0631000D01*
X0631166Y0539833D01*
Y0539500D01*
X0631000Y0539333D01*
X0630500D01*
X0630833D02*
X0631166Y0539000D01*
X0631500Y0539167D02*
X0631666Y0539000D01*
X0631999D01*
X0632166Y0539167D01*
Y0539833D01*
X0631999Y0540000D01*
X0631666D01*
X0631500Y0539833D01*
Y0539666D01*
X0631666Y0539500D01*
X0632166D01*
X0615500Y0539000D02*
Y0540000D01*
X0616000D01*
X0616166Y0539833D01*
Y0539500D01*
X0616000Y0539333D01*
X0615500D01*
X0615833D02*
X0616166Y0539000D01*
X0616500Y0539833D02*
X0616666Y0540000D01*
X0616999D01*
X0617166Y0539833D01*
Y0539666D01*
X0616999Y0539500D01*
X0617166Y0539333D01*
Y0539167D01*
X0616999Y0539000D01*
X0616666D01*
X0616500Y0539167D01*
Y0539333D01*
X0616666Y0539500D01*
X0616500Y0539666D01*
Y0539833D01*
X0616666Y0539500D02*
X0616999D01*
X0627000Y0539000D02*
Y0540000D01*
X0627500D01*
X0627666Y0539833D01*
Y0539500D01*
X0627500Y0539333D01*
X0627000D01*
X0627333D02*
X0627666Y0539000D01*
X0628000Y0540000D02*
X0628666D01*
Y0539833D01*
X0628000Y0539167D01*
Y0539000D01*
X0634000D02*
Y0540000D01*
X0634500D01*
X0634666Y0539833D01*
Y0539500D01*
X0634500Y0539333D01*
X0634000D01*
X0634333D02*
X0634666Y0539000D01*
X0635666Y0540000D02*
X0635333Y0539833D01*
X0635000Y0539500D01*
Y0539167D01*
X0635166Y0539000D01*
X0635499D01*
X0635666Y0539167D01*
Y0539333D01*
X0635499Y0539500D01*
X0635000D01*
X0644500Y0539000D02*
Y0540000D01*
X0645000D01*
X0645166Y0539833D01*
Y0539500D01*
X0645000Y0539333D01*
X0644500D01*
X0644833D02*
X0645166Y0539000D01*
X0645500Y0539833D02*
X0645666Y0540000D01*
X0645999D01*
X0646166Y0539833D01*
Y0539666D01*
X0645999Y0539500D01*
X0645833D01*
X0645999D01*
X0646166Y0539333D01*
Y0539167D01*
X0645999Y0539000D01*
X0645666D01*
X0645500Y0539167D01*
X0641000Y0539000D02*
Y0540000D01*
X0641500D01*
X0641666Y0539833D01*
Y0539500D01*
X0641500Y0539333D01*
X0641000D01*
X0641333D02*
X0641666Y0539000D01*
X0642666D02*
X0642000D01*
X0642666Y0539666D01*
Y0539833D01*
X0642499Y0540000D01*
X0642166D01*
X0642000Y0539833D01*
X0637500Y0539000D02*
Y0540000D01*
X0638000D01*
X0638166Y0539833D01*
Y0539500D01*
X0638000Y0539333D01*
X0637500D01*
X0637833D02*
X0638166Y0539000D01*
X0638500D02*
X0638833D01*
X0638666D01*
Y0540000D01*
X0638500Y0539833D01*
X0623166D02*
X0623000Y0540000D01*
X0622667D01*
X0622500Y0539833D01*
Y0539167D01*
X0622667Y0539000D01*
X0623000D01*
X0623166Y0539167D01*
X0624000Y0539000D02*
Y0540000D01*
X0623500Y0539500D01*
X0624166D01*
X0648666Y0539833D02*
X0648500Y0540000D01*
X0648167D01*
X0648000Y0539833D01*
Y0539167D01*
X0648167Y0539000D01*
X0648500D01*
X0648666Y0539167D01*
X0649000Y0539833D02*
X0649166Y0540000D01*
X0649500D01*
X0649666Y0539833D01*
Y0539666D01*
X0649500Y0539500D01*
X0649333D01*
X0649500D01*
X0649666Y0539333D01*
Y0539167D01*
X0649500Y0539000D01*
X0649166D01*
X0649000Y0539167D01*
X0619666Y0539833D02*
X0619500Y0540000D01*
X0619167D01*
X0619000Y0539833D01*
Y0539167D01*
X0619167Y0539000D01*
X0619500D01*
X0619666Y0539167D01*
X0620000Y0539000D02*
X0620333D01*
X0620166D01*
Y0540000D01*
X0620000Y0539833D01*
X0686500Y0606000D02*
X0687500D01*
X0686500D02*
Y0606428D01*
X0686548Y0606571D01*
X0686595Y0606619D01*
X0686691Y0606667D01*
X0686786D01*
X0686881Y0606619D01*
X0686929Y0606571D01*
X0686976Y0606428D01*
Y0606000D01*
Y0606333D02*
X0687500Y0606667D01*
X0686500Y0606986D02*
Y0607509D01*
X0686881Y0607224D01*
Y0607366D01*
X0686929Y0607462D01*
X0686976Y0607509D01*
X0687119Y0607557D01*
X0687214D01*
X0687357Y0607509D01*
X0687452Y0607414D01*
X0687500Y0607271D01*
Y0607128D01*
X0687452Y0606986D01*
X0687405Y0606938D01*
X0687310Y0606890D01*
X0686738Y0607828D02*
X0686691D01*
X0686595Y0607876D01*
X0686548Y0607923D01*
X0686500Y0608019D01*
Y0608209D01*
X0686548Y0608304D01*
X0686595Y0608352D01*
X0686691Y0608399D01*
X0686786D01*
X0686881Y0608352D01*
X0687024Y0608257D01*
X0687500Y0607781D01*
Y0608447D01*
X0687833Y0608671D02*
Y0609433D01*
X0686691Y0609561D02*
X0686643Y0609656D01*
X0686500Y0609799D01*
X0687500D01*
X0686738Y0610342D02*
X0686691D01*
X0686595Y0610390D01*
X0686548Y0610437D01*
X0686500Y0610532D01*
Y0610723D01*
X0686548Y0610818D01*
X0686595Y0610866D01*
X0686691Y0610913D01*
X0686786D01*
X0686881Y0610866D01*
X0687024Y0610770D01*
X0687500Y0610294D01*
Y0610961D01*
X0670500Y0613000D02*
Y0612000D01*
Y0613000D02*
X0670928D01*
X0671071Y0612952D01*
X0671119Y0612905D01*
X0671167Y0612809D01*
Y0612714D01*
X0671119Y0612619D01*
X0671071Y0612571D01*
X0670928Y0612524D01*
X0670500D01*
X0670833D02*
X0671167Y0612000D01*
X0671486Y0613000D02*
X0672009D01*
X0671724Y0612619D01*
X0671866D01*
X0671962Y0612571D01*
X0672009Y0612524D01*
X0672057Y0612381D01*
Y0612286D01*
X0672009Y0612143D01*
X0671914Y0612048D01*
X0671771Y0612000D01*
X0671628D01*
X0671486Y0612048D01*
X0671438Y0612095D01*
X0671390Y0612190D01*
X0672328Y0612762D02*
Y0612809D01*
X0672376Y0612905D01*
X0672423Y0612952D01*
X0672519Y0613000D01*
X0672709D01*
X0672804Y0612952D01*
X0672852Y0612905D01*
X0672899Y0612809D01*
Y0612714D01*
X0672852Y0612619D01*
X0672757Y0612476D01*
X0672281Y0612000D01*
X0672947D01*
X0673171Y0611667D02*
X0673933D01*
X0674061Y0612809D02*
X0674156Y0612857D01*
X0674299Y0613000D01*
Y0612000D01*
X0674794Y0612809D02*
X0674890Y0612857D01*
X0675032Y0613000D01*
Y0612000D01*
X0658500Y0613000D02*
Y0612000D01*
Y0613000D02*
X0658928D01*
X0659071Y0612952D01*
X0659119Y0612905D01*
X0659166Y0612809D01*
Y0612714D01*
X0659119Y0612619D01*
X0659071Y0612571D01*
X0658928Y0612524D01*
X0658500D01*
X0658833D02*
X0659166Y0612000D01*
X0659485Y0613000D02*
X0660009D01*
X0659724Y0612619D01*
X0659866D01*
X0659962Y0612571D01*
X0660009Y0612524D01*
X0660057Y0612381D01*
Y0612286D01*
X0660009Y0612143D01*
X0659914Y0612048D01*
X0659771Y0612000D01*
X0659628D01*
X0659485Y0612048D01*
X0659438Y0612095D01*
X0659390Y0612190D01*
X0660328Y0612762D02*
Y0612809D01*
X0660376Y0612905D01*
X0660423Y0612952D01*
X0660519Y0613000D01*
X0660709D01*
X0660804Y0612952D01*
X0660852Y0612905D01*
X0660899Y0612809D01*
Y0612714D01*
X0660852Y0612619D01*
X0660757Y0612476D01*
X0660281Y0612000D01*
X0660947D01*
X0661171Y0611667D02*
X0661933D01*
X0662061Y0612809D02*
X0662156Y0612857D01*
X0662299Y0613000D01*
Y0612000D01*
X0663080Y0613000D02*
X0662937Y0612952D01*
X0662842Y0612809D01*
X0662794Y0612571D01*
Y0612429D01*
X0662842Y0612190D01*
X0662937Y0612048D01*
X0663080Y0612000D01*
X0663175D01*
X0663318Y0612048D01*
X0663413Y0612190D01*
X0663461Y0612429D01*
Y0612571D01*
X0663413Y0612809D01*
X0663318Y0612952D01*
X0663175Y0613000D01*
X0663080D01*
X0646000D02*
Y0612000D01*
Y0613000D02*
X0646428D01*
X0646571Y0612952D01*
X0646619Y0612905D01*
X0646666Y0612809D01*
Y0612714D01*
X0646619Y0612619D01*
X0646571Y0612571D01*
X0646428Y0612524D01*
X0646000D01*
X0646333D02*
X0646666Y0612000D01*
X0646985Y0613000D02*
X0647509D01*
X0647224Y0612619D01*
X0647366D01*
X0647462Y0612571D01*
X0647509Y0612524D01*
X0647557Y0612381D01*
Y0612286D01*
X0647509Y0612143D01*
X0647414Y0612048D01*
X0647271Y0612000D01*
X0647128D01*
X0646985Y0612048D01*
X0646938Y0612095D01*
X0646890Y0612190D01*
X0647828Y0612762D02*
Y0612809D01*
X0647876Y0612905D01*
X0647923Y0612952D01*
X0648019Y0613000D01*
X0648209D01*
X0648304Y0612952D01*
X0648352Y0612905D01*
X0648399Y0612809D01*
Y0612714D01*
X0648352Y0612619D01*
X0648257Y0612476D01*
X0647781Y0612000D01*
X0648447D01*
X0648671Y0611667D02*
X0649433D01*
X0650180Y0612667D02*
X0650133Y0612524D01*
X0650037Y0612429D01*
X0649894Y0612381D01*
X0649847D01*
X0649704Y0612429D01*
X0649609Y0612524D01*
X0649561Y0612667D01*
Y0612714D01*
X0649609Y0612857D01*
X0649704Y0612952D01*
X0649847Y0613000D01*
X0649894D01*
X0650037Y0612952D01*
X0650133Y0612857D01*
X0650180Y0612667D01*
Y0612429D01*
X0650133Y0612190D01*
X0650037Y0612048D01*
X0649894Y0612000D01*
X0649799D01*
X0649656Y0612048D01*
X0649609Y0612143D01*
X0633500Y0613000D02*
Y0612000D01*
Y0613000D02*
X0633928D01*
X0634071Y0612952D01*
X0634119Y0612905D01*
X0634166Y0612809D01*
Y0612714D01*
X0634119Y0612619D01*
X0634071Y0612571D01*
X0633928Y0612524D01*
X0633500D01*
X0633833D02*
X0634166Y0612000D01*
X0634485Y0613000D02*
X0635009D01*
X0634724Y0612619D01*
X0634866D01*
X0634962Y0612571D01*
X0635009Y0612524D01*
X0635057Y0612381D01*
Y0612286D01*
X0635009Y0612143D01*
X0634914Y0612048D01*
X0634771Y0612000D01*
X0634628D01*
X0634485Y0612048D01*
X0634438Y0612095D01*
X0634390Y0612190D01*
X0635328Y0612762D02*
Y0612809D01*
X0635376Y0612905D01*
X0635423Y0612952D01*
X0635519Y0613000D01*
X0635709D01*
X0635804Y0612952D01*
X0635852Y0612905D01*
X0635899Y0612809D01*
Y0612714D01*
X0635852Y0612619D01*
X0635757Y0612476D01*
X0635281Y0612000D01*
X0635947D01*
X0636171Y0611667D02*
X0636933D01*
X0637299Y0613000D02*
X0637156Y0612952D01*
X0637109Y0612857D01*
Y0612762D01*
X0637156Y0612667D01*
X0637252Y0612619D01*
X0637442Y0612571D01*
X0637585Y0612524D01*
X0637680Y0612429D01*
X0637728Y0612333D01*
Y0612190D01*
X0637680Y0612095D01*
X0637633Y0612048D01*
X0637490Y0612000D01*
X0637299D01*
X0637156Y0612048D01*
X0637109Y0612095D01*
X0637061Y0612190D01*
Y0612333D01*
X0637109Y0612429D01*
X0637204Y0612524D01*
X0637347Y0612571D01*
X0637537Y0612619D01*
X0637633Y0612667D01*
X0637680Y0612762D01*
Y0612857D01*
X0637633Y0612952D01*
X0637490Y0613000D01*
X0637299D01*
X0621000D02*
Y0612000D01*
Y0613000D02*
X0621428D01*
X0621571Y0612952D01*
X0621619Y0612905D01*
X0621666Y0612809D01*
Y0612714D01*
X0621619Y0612619D01*
X0621571Y0612571D01*
X0621428Y0612524D01*
X0621000D01*
X0621333D02*
X0621666Y0612000D01*
X0621985Y0613000D02*
X0622509D01*
X0622224Y0612619D01*
X0622366D01*
X0622462Y0612571D01*
X0622509Y0612524D01*
X0622557Y0612381D01*
Y0612286D01*
X0622509Y0612143D01*
X0622414Y0612048D01*
X0622271Y0612000D01*
X0622128D01*
X0621985Y0612048D01*
X0621938Y0612095D01*
X0621890Y0612190D01*
X0622828Y0612762D02*
Y0612809D01*
X0622876Y0612905D01*
X0622923Y0612952D01*
X0623019Y0613000D01*
X0623209D01*
X0623304Y0612952D01*
X0623352Y0612905D01*
X0623399Y0612809D01*
Y0612714D01*
X0623352Y0612619D01*
X0623257Y0612476D01*
X0622781Y0612000D01*
X0623447D01*
X0623671Y0611667D02*
X0624433D01*
X0625228Y0613000D02*
X0624752Y0612000D01*
X0624561Y0613000D02*
X0625228D01*
X0608500D02*
Y0612000D01*
Y0613000D02*
X0608928D01*
X0609071Y0612952D01*
X0609119Y0612905D01*
X0609166Y0612809D01*
Y0612714D01*
X0609119Y0612619D01*
X0609071Y0612571D01*
X0608928Y0612524D01*
X0608500D01*
X0608833D02*
X0609166Y0612000D01*
X0609485Y0613000D02*
X0610009D01*
X0609724Y0612619D01*
X0609866D01*
X0609962Y0612571D01*
X0610009Y0612524D01*
X0610057Y0612381D01*
Y0612286D01*
X0610009Y0612143D01*
X0609914Y0612048D01*
X0609771Y0612000D01*
X0609628D01*
X0609485Y0612048D01*
X0609438Y0612095D01*
X0609390Y0612190D01*
X0610328Y0612762D02*
Y0612809D01*
X0610376Y0612905D01*
X0610423Y0612952D01*
X0610519Y0613000D01*
X0610709D01*
X0610804Y0612952D01*
X0610852Y0612905D01*
X0610899Y0612809D01*
Y0612714D01*
X0610852Y0612619D01*
X0610757Y0612476D01*
X0610281Y0612000D01*
X0610947D01*
X0611171Y0611667D02*
X0611933D01*
X0612633Y0612857D02*
X0612585Y0612952D01*
X0612442Y0613000D01*
X0612347D01*
X0612204Y0612952D01*
X0612109Y0612809D01*
X0612061Y0612571D01*
Y0612333D01*
X0612109Y0612143D01*
X0612204Y0612048D01*
X0612347Y0612000D01*
X0612394D01*
X0612537Y0612048D01*
X0612633Y0612143D01*
X0612680Y0612286D01*
Y0612333D01*
X0612633Y0612476D01*
X0612537Y0612571D01*
X0612394Y0612619D01*
X0612347D01*
X0612204Y0612571D01*
X0612109Y0612476D01*
X0612061Y0612333D01*
X0596000Y0613000D02*
Y0612000D01*
Y0613000D02*
X0596428D01*
X0596571Y0612952D01*
X0596619Y0612905D01*
X0596666Y0612809D01*
Y0612714D01*
X0596619Y0612619D01*
X0596571Y0612571D01*
X0596428Y0612524D01*
X0596000D01*
X0596333D02*
X0596666Y0612000D01*
X0596985Y0613000D02*
X0597509D01*
X0597224Y0612619D01*
X0597366D01*
X0597462Y0612571D01*
X0597509Y0612524D01*
X0597557Y0612381D01*
Y0612286D01*
X0597509Y0612143D01*
X0597414Y0612048D01*
X0597271Y0612000D01*
X0597128D01*
X0596985Y0612048D01*
X0596938Y0612095D01*
X0596890Y0612190D01*
X0597828Y0612762D02*
Y0612809D01*
X0597876Y0612905D01*
X0597923Y0612952D01*
X0598019Y0613000D01*
X0598209D01*
X0598304Y0612952D01*
X0598352Y0612905D01*
X0598399Y0612809D01*
Y0612714D01*
X0598352Y0612619D01*
X0598257Y0612476D01*
X0597781Y0612000D01*
X0598447D01*
X0598671Y0611667D02*
X0599433D01*
X0600133Y0613000D02*
X0599656D01*
X0599609Y0612571D01*
X0599656Y0612619D01*
X0599799Y0612667D01*
X0599942D01*
X0600085Y0612619D01*
X0600180Y0612524D01*
X0600228Y0612381D01*
Y0612286D01*
X0600180Y0612143D01*
X0600085Y0612048D01*
X0599942Y0612000D01*
X0599799D01*
X0599656Y0612048D01*
X0599609Y0612095D01*
X0599561Y0612190D01*
X0583500Y0613000D02*
Y0612000D01*
Y0613000D02*
X0583928D01*
X0584071Y0612952D01*
X0584119Y0612905D01*
X0584166Y0612809D01*
Y0612714D01*
X0584119Y0612619D01*
X0584071Y0612571D01*
X0583928Y0612524D01*
X0583500D01*
X0583833D02*
X0584166Y0612000D01*
X0584485Y0613000D02*
X0585009D01*
X0584724Y0612619D01*
X0584866D01*
X0584962Y0612571D01*
X0585009Y0612524D01*
X0585057Y0612381D01*
Y0612286D01*
X0585009Y0612143D01*
X0584914Y0612048D01*
X0584771Y0612000D01*
X0584628D01*
X0584485Y0612048D01*
X0584438Y0612095D01*
X0584390Y0612190D01*
X0585328Y0612762D02*
Y0612809D01*
X0585376Y0612905D01*
X0585423Y0612952D01*
X0585519Y0613000D01*
X0585709D01*
X0585804Y0612952D01*
X0585852Y0612905D01*
X0585899Y0612809D01*
Y0612714D01*
X0585852Y0612619D01*
X0585757Y0612476D01*
X0585281Y0612000D01*
X0585947D01*
X0586171Y0611667D02*
X0586933D01*
X0587537Y0613000D02*
X0587061Y0612333D01*
X0587775D01*
X0587537Y0613000D02*
Y0612000D01*
X0571000Y0613000D02*
Y0612000D01*
Y0613000D02*
X0571428D01*
X0571571Y0612952D01*
X0571619Y0612905D01*
X0571666Y0612809D01*
Y0612714D01*
X0571619Y0612619D01*
X0571571Y0612571D01*
X0571428Y0612524D01*
X0571000D01*
X0571333D02*
X0571666Y0612000D01*
X0571985Y0613000D02*
X0572509D01*
X0572224Y0612619D01*
X0572366D01*
X0572462Y0612571D01*
X0572509Y0612524D01*
X0572557Y0612381D01*
Y0612286D01*
X0572509Y0612143D01*
X0572414Y0612048D01*
X0572271Y0612000D01*
X0572128D01*
X0571985Y0612048D01*
X0571938Y0612095D01*
X0571890Y0612190D01*
X0572828Y0612762D02*
Y0612809D01*
X0572876Y0612905D01*
X0572923Y0612952D01*
X0573019Y0613000D01*
X0573209D01*
X0573304Y0612952D01*
X0573352Y0612905D01*
X0573399Y0612809D01*
Y0612714D01*
X0573352Y0612619D01*
X0573257Y0612476D01*
X0572781Y0612000D01*
X0573447D01*
X0573671Y0611667D02*
X0574433D01*
X0574656Y0613000D02*
X0575180D01*
X0574894Y0612619D01*
X0575037D01*
X0575133Y0612571D01*
X0575180Y0612524D01*
X0575228Y0612381D01*
Y0612286D01*
X0575180Y0612143D01*
X0575085Y0612048D01*
X0574942Y0612000D01*
X0574799D01*
X0574656Y0612048D01*
X0574609Y0612095D01*
X0574561Y0612190D01*
X0558500Y0613000D02*
Y0612000D01*
Y0613000D02*
X0558928D01*
X0559071Y0612952D01*
X0559119Y0612905D01*
X0559166Y0612809D01*
Y0612714D01*
X0559119Y0612619D01*
X0559071Y0612571D01*
X0558928Y0612524D01*
X0558500D01*
X0558833D02*
X0559166Y0612000D01*
X0559485Y0613000D02*
X0560009D01*
X0559724Y0612619D01*
X0559866D01*
X0559962Y0612571D01*
X0560009Y0612524D01*
X0560057Y0612381D01*
Y0612286D01*
X0560009Y0612143D01*
X0559914Y0612048D01*
X0559771Y0612000D01*
X0559628D01*
X0559485Y0612048D01*
X0559438Y0612095D01*
X0559390Y0612190D01*
X0560328Y0612762D02*
Y0612809D01*
X0560376Y0612905D01*
X0560423Y0612952D01*
X0560519Y0613000D01*
X0560709D01*
X0560804Y0612952D01*
X0560852Y0612905D01*
X0560899Y0612809D01*
Y0612714D01*
X0560852Y0612619D01*
X0560757Y0612476D01*
X0560281Y0612000D01*
X0560947D01*
X0561171Y0611667D02*
X0561933D01*
X0562109Y0612762D02*
Y0612809D01*
X0562156Y0612905D01*
X0562204Y0612952D01*
X0562299Y0613000D01*
X0562490D01*
X0562585Y0612952D01*
X0562633Y0612905D01*
X0562680Y0612809D01*
Y0612714D01*
X0562633Y0612619D01*
X0562537Y0612476D01*
X0562061Y0612000D01*
X0562728D01*
X0546000Y0613000D02*
Y0612000D01*
Y0613000D02*
X0546428D01*
X0546571Y0612952D01*
X0546619Y0612905D01*
X0546666Y0612809D01*
Y0612714D01*
X0546619Y0612619D01*
X0546571Y0612571D01*
X0546428Y0612524D01*
X0546000D01*
X0546333D02*
X0546666Y0612000D01*
X0546985Y0613000D02*
X0547509D01*
X0547224Y0612619D01*
X0547366D01*
X0547462Y0612571D01*
X0547509Y0612524D01*
X0547557Y0612381D01*
Y0612286D01*
X0547509Y0612143D01*
X0547414Y0612048D01*
X0547271Y0612000D01*
X0547128D01*
X0546985Y0612048D01*
X0546938Y0612095D01*
X0546890Y0612190D01*
X0547828Y0612762D02*
Y0612809D01*
X0547876Y0612905D01*
X0547923Y0612952D01*
X0548019Y0613000D01*
X0548209D01*
X0548304Y0612952D01*
X0548352Y0612905D01*
X0548399Y0612809D01*
Y0612714D01*
X0548352Y0612619D01*
X0548257Y0612476D01*
X0547781Y0612000D01*
X0548447D01*
X0548671Y0611667D02*
X0549433D01*
X0549561Y0612809D02*
X0549656Y0612857D01*
X0549799Y0613000D01*
Y0612000D01*
X0680714Y0604762D02*
X0680666Y0604857D01*
X0680571Y0604952D01*
X0680476Y0605000D01*
X0680286D01*
X0680190Y0604952D01*
X0680095Y0604857D01*
X0680048Y0604762D01*
X0680000Y0604619D01*
Y0604381D01*
X0680048Y0604238D01*
X0680095Y0604143D01*
X0680190Y0604048D01*
X0680286Y0604000D01*
X0680476D01*
X0680571Y0604048D01*
X0680666Y0604143D01*
X0680714Y0604238D01*
X0681043Y0604762D02*
Y0604809D01*
X0681090Y0604905D01*
X0681138Y0604952D01*
X0681233Y0605000D01*
X0681424D01*
X0681519Y0604952D01*
X0681566Y0604905D01*
X0681614Y0604809D01*
Y0604714D01*
X0681566Y0604619D01*
X0681471Y0604476D01*
X0680995Y0604000D01*
X0681662D01*
X0681933Y0604762D02*
Y0604809D01*
X0681981Y0604905D01*
X0682028Y0604952D01*
X0682123Y0605000D01*
X0682314D01*
X0682409Y0604952D01*
X0682457Y0604905D01*
X0682504Y0604809D01*
Y0604714D01*
X0682457Y0604619D01*
X0682361Y0604476D01*
X0681885Y0604000D01*
X0682552D01*
X0682776Y0603667D02*
X0683537D01*
X0683666Y0604809D02*
X0683761Y0604857D01*
X0683904Y0605000D01*
Y0604000D01*
X0684447Y0604762D02*
Y0604809D01*
X0684494Y0604905D01*
X0684542Y0604952D01*
X0684637Y0605000D01*
X0684828D01*
X0684923Y0604952D01*
X0684970Y0604905D01*
X0685018Y0604809D01*
Y0604714D01*
X0684970Y0604619D01*
X0684875Y0604476D01*
X0684399Y0604000D01*
X0685066D01*
X0668214Y0604762D02*
X0668166Y0604857D01*
X0668071Y0604952D01*
X0667976Y0605000D01*
X0667786D01*
X0667690Y0604952D01*
X0667595Y0604857D01*
X0667548Y0604762D01*
X0667500Y0604619D01*
Y0604381D01*
X0667548Y0604238D01*
X0667595Y0604143D01*
X0667690Y0604048D01*
X0667786Y0604000D01*
X0667976D01*
X0668071Y0604048D01*
X0668166Y0604143D01*
X0668214Y0604238D01*
X0668543Y0604762D02*
Y0604809D01*
X0668590Y0604905D01*
X0668638Y0604952D01*
X0668733Y0605000D01*
X0668924D01*
X0669019Y0604952D01*
X0669066Y0604905D01*
X0669114Y0604809D01*
Y0604714D01*
X0669066Y0604619D01*
X0668971Y0604476D01*
X0668495Y0604000D01*
X0669162D01*
X0669433Y0604762D02*
Y0604809D01*
X0669481Y0604905D01*
X0669528Y0604952D01*
X0669623Y0605000D01*
X0669814D01*
X0669909Y0604952D01*
X0669957Y0604905D01*
X0670004Y0604809D01*
Y0604714D01*
X0669957Y0604619D01*
X0669861Y0604476D01*
X0669385Y0604000D01*
X0670052D01*
X0670276Y0603667D02*
X0671037D01*
X0671166Y0604809D02*
X0671261Y0604857D01*
X0671404Y0605000D01*
Y0604000D01*
X0671899Y0604809D02*
X0671994Y0604857D01*
X0672137Y0605000D01*
Y0604000D01*
X0655714Y0604762D02*
X0655666Y0604857D01*
X0655571Y0604952D01*
X0655476Y0605000D01*
X0655286D01*
X0655190Y0604952D01*
X0655095Y0604857D01*
X0655048Y0604762D01*
X0655000Y0604619D01*
Y0604381D01*
X0655048Y0604238D01*
X0655095Y0604143D01*
X0655190Y0604048D01*
X0655286Y0604000D01*
X0655476D01*
X0655571Y0604048D01*
X0655666Y0604143D01*
X0655714Y0604238D01*
X0656043Y0604762D02*
Y0604809D01*
X0656090Y0604905D01*
X0656138Y0604952D01*
X0656233Y0605000D01*
X0656424D01*
X0656519Y0604952D01*
X0656566Y0604905D01*
X0656614Y0604809D01*
Y0604714D01*
X0656566Y0604619D01*
X0656471Y0604476D01*
X0655995Y0604000D01*
X0656662D01*
X0656933Y0604762D02*
Y0604809D01*
X0656981Y0604905D01*
X0657028Y0604952D01*
X0657123Y0605000D01*
X0657314D01*
X0657409Y0604952D01*
X0657457Y0604905D01*
X0657504Y0604809D01*
Y0604714D01*
X0657457Y0604619D01*
X0657361Y0604476D01*
X0656885Y0604000D01*
X0657552D01*
X0657776Y0603667D02*
X0658537D01*
X0658666Y0604809D02*
X0658761Y0604857D01*
X0658904Y0605000D01*
Y0604000D01*
X0659685Y0605000D02*
X0659542Y0604952D01*
X0659447Y0604809D01*
X0659399Y0604571D01*
Y0604428D01*
X0659447Y0604190D01*
X0659542Y0604048D01*
X0659685Y0604000D01*
X0659780D01*
X0659923Y0604048D01*
X0660018Y0604190D01*
X0660066Y0604428D01*
Y0604571D01*
X0660018Y0604809D01*
X0659923Y0604952D01*
X0659780Y0605000D01*
X0659685D01*
X0643714Y0604762D02*
X0643667Y0604857D01*
X0643571Y0604952D01*
X0643476Y0605000D01*
X0643286D01*
X0643190Y0604952D01*
X0643095Y0604857D01*
X0643048Y0604762D01*
X0643000Y0604619D01*
Y0604381D01*
X0643048Y0604238D01*
X0643095Y0604143D01*
X0643190Y0604048D01*
X0643286Y0604000D01*
X0643476D01*
X0643571Y0604048D01*
X0643667Y0604143D01*
X0643714Y0604238D01*
X0644043Y0604762D02*
Y0604809D01*
X0644090Y0604905D01*
X0644138Y0604952D01*
X0644233Y0605000D01*
X0644423D01*
X0644519Y0604952D01*
X0644566Y0604905D01*
X0644614Y0604809D01*
Y0604714D01*
X0644566Y0604619D01*
X0644471Y0604476D01*
X0643995Y0604000D01*
X0644662D01*
X0644933Y0604762D02*
Y0604809D01*
X0644980Y0604905D01*
X0645028Y0604952D01*
X0645123Y0605000D01*
X0645314D01*
X0645409Y0604952D01*
X0645457Y0604905D01*
X0645504Y0604809D01*
Y0604714D01*
X0645457Y0604619D01*
X0645361Y0604476D01*
X0644885Y0604000D01*
X0645552D01*
X0645776Y0603667D02*
X0646537D01*
X0647285Y0604667D02*
X0647237Y0604524D01*
X0647142Y0604428D01*
X0646999Y0604381D01*
X0646951D01*
X0646809Y0604428D01*
X0646713Y0604524D01*
X0646666Y0604667D01*
Y0604714D01*
X0646713Y0604857D01*
X0646809Y0604952D01*
X0646951Y0605000D01*
X0646999D01*
X0647142Y0604952D01*
X0647237Y0604857D01*
X0647285Y0604667D01*
Y0604428D01*
X0647237Y0604190D01*
X0647142Y0604048D01*
X0646999Y0604000D01*
X0646904D01*
X0646761Y0604048D01*
X0646713Y0604143D01*
X0631214Y0604762D02*
X0631167Y0604857D01*
X0631071Y0604952D01*
X0630976Y0605000D01*
X0630786D01*
X0630690Y0604952D01*
X0630595Y0604857D01*
X0630548Y0604762D01*
X0630500Y0604619D01*
Y0604381D01*
X0630548Y0604238D01*
X0630595Y0604143D01*
X0630690Y0604048D01*
X0630786Y0604000D01*
X0630976D01*
X0631071Y0604048D01*
X0631167Y0604143D01*
X0631214Y0604238D01*
X0631543Y0604762D02*
Y0604809D01*
X0631590Y0604905D01*
X0631638Y0604952D01*
X0631733Y0605000D01*
X0631923D01*
X0632019Y0604952D01*
X0632066Y0604905D01*
X0632114Y0604809D01*
Y0604714D01*
X0632066Y0604619D01*
X0631971Y0604476D01*
X0631495Y0604000D01*
X0632162D01*
X0632433Y0604762D02*
Y0604809D01*
X0632480Y0604905D01*
X0632528Y0604952D01*
X0632623Y0605000D01*
X0632814D01*
X0632909Y0604952D01*
X0632957Y0604905D01*
X0633004Y0604809D01*
Y0604714D01*
X0632957Y0604619D01*
X0632861Y0604476D01*
X0632385Y0604000D01*
X0633052D01*
X0633276Y0603667D02*
X0634037D01*
X0634404Y0605000D02*
X0634261Y0604952D01*
X0634213Y0604857D01*
Y0604762D01*
X0634261Y0604667D01*
X0634356Y0604619D01*
X0634547Y0604571D01*
X0634690Y0604524D01*
X0634785Y0604428D01*
X0634832Y0604333D01*
Y0604190D01*
X0634785Y0604095D01*
X0634737Y0604048D01*
X0634594Y0604000D01*
X0634404D01*
X0634261Y0604048D01*
X0634213Y0604095D01*
X0634166Y0604190D01*
Y0604333D01*
X0634213Y0604428D01*
X0634309Y0604524D01*
X0634451Y0604571D01*
X0634642Y0604619D01*
X0634737Y0604667D01*
X0634785Y0604762D01*
Y0604857D01*
X0634737Y0604952D01*
X0634594Y0605000D01*
X0634404D01*
X0618714Y0604762D02*
X0618667Y0604857D01*
X0618571Y0604952D01*
X0618476Y0605000D01*
X0618286D01*
X0618190Y0604952D01*
X0618095Y0604857D01*
X0618048Y0604762D01*
X0618000Y0604619D01*
Y0604381D01*
X0618048Y0604238D01*
X0618095Y0604143D01*
X0618190Y0604048D01*
X0618286Y0604000D01*
X0618476D01*
X0618571Y0604048D01*
X0618667Y0604143D01*
X0618714Y0604238D01*
X0619043Y0604762D02*
Y0604809D01*
X0619090Y0604905D01*
X0619138Y0604952D01*
X0619233Y0605000D01*
X0619423D01*
X0619519Y0604952D01*
X0619566Y0604905D01*
X0619614Y0604809D01*
Y0604714D01*
X0619566Y0604619D01*
X0619471Y0604476D01*
X0618995Y0604000D01*
X0619662D01*
X0619933Y0604762D02*
Y0604809D01*
X0619980Y0604905D01*
X0620028Y0604952D01*
X0620123Y0605000D01*
X0620314D01*
X0620409Y0604952D01*
X0620457Y0604905D01*
X0620504Y0604809D01*
Y0604714D01*
X0620457Y0604619D01*
X0620361Y0604476D01*
X0619885Y0604000D01*
X0620552D01*
X0620776Y0603667D02*
X0621537D01*
X0622332Y0605000D02*
X0621856Y0604000D01*
X0621666Y0605000D02*
X0622332D01*
X0606214Y0604762D02*
X0606167Y0604857D01*
X0606071Y0604952D01*
X0605976Y0605000D01*
X0605786D01*
X0605690Y0604952D01*
X0605595Y0604857D01*
X0605548Y0604762D01*
X0605500Y0604619D01*
Y0604381D01*
X0605548Y0604238D01*
X0605595Y0604143D01*
X0605690Y0604048D01*
X0605786Y0604000D01*
X0605976D01*
X0606071Y0604048D01*
X0606167Y0604143D01*
X0606214Y0604238D01*
X0606543Y0604762D02*
Y0604809D01*
X0606590Y0604905D01*
X0606638Y0604952D01*
X0606733Y0605000D01*
X0606923D01*
X0607019Y0604952D01*
X0607066Y0604905D01*
X0607114Y0604809D01*
Y0604714D01*
X0607066Y0604619D01*
X0606971Y0604476D01*
X0606495Y0604000D01*
X0607162D01*
X0607433Y0604762D02*
Y0604809D01*
X0607480Y0604905D01*
X0607528Y0604952D01*
X0607623Y0605000D01*
X0607814D01*
X0607909Y0604952D01*
X0607957Y0604905D01*
X0608004Y0604809D01*
Y0604714D01*
X0607957Y0604619D01*
X0607861Y0604476D01*
X0607385Y0604000D01*
X0608052D01*
X0608276Y0603667D02*
X0609037D01*
X0609737Y0604857D02*
X0609690Y0604952D01*
X0609547Y0605000D01*
X0609451D01*
X0609309Y0604952D01*
X0609213Y0604809D01*
X0609166Y0604571D01*
Y0604333D01*
X0609213Y0604143D01*
X0609309Y0604048D01*
X0609451Y0604000D01*
X0609499D01*
X0609642Y0604048D01*
X0609737Y0604143D01*
X0609785Y0604286D01*
Y0604333D01*
X0609737Y0604476D01*
X0609642Y0604571D01*
X0609499Y0604619D01*
X0609451D01*
X0609309Y0604571D01*
X0609213Y0604476D01*
X0609166Y0604333D01*
X0593714Y0604762D02*
X0593667Y0604857D01*
X0593571Y0604952D01*
X0593476Y0605000D01*
X0593286D01*
X0593190Y0604952D01*
X0593095Y0604857D01*
X0593048Y0604762D01*
X0593000Y0604619D01*
Y0604381D01*
X0593048Y0604238D01*
X0593095Y0604143D01*
X0593190Y0604048D01*
X0593286Y0604000D01*
X0593476D01*
X0593571Y0604048D01*
X0593667Y0604143D01*
X0593714Y0604238D01*
X0594043Y0604762D02*
Y0604809D01*
X0594090Y0604905D01*
X0594138Y0604952D01*
X0594233Y0605000D01*
X0594423D01*
X0594519Y0604952D01*
X0594566Y0604905D01*
X0594614Y0604809D01*
Y0604714D01*
X0594566Y0604619D01*
X0594471Y0604476D01*
X0593995Y0604000D01*
X0594662D01*
X0594933Y0604762D02*
Y0604809D01*
X0594980Y0604905D01*
X0595028Y0604952D01*
X0595123Y0605000D01*
X0595314D01*
X0595409Y0604952D01*
X0595457Y0604905D01*
X0595504Y0604809D01*
Y0604714D01*
X0595457Y0604619D01*
X0595361Y0604476D01*
X0594885Y0604000D01*
X0595552D01*
X0595776Y0603667D02*
X0596537D01*
X0597237Y0605000D02*
X0596761D01*
X0596713Y0604571D01*
X0596761Y0604619D01*
X0596904Y0604667D01*
X0597047D01*
X0597190Y0604619D01*
X0597285Y0604524D01*
X0597332Y0604381D01*
Y0604286D01*
X0597285Y0604143D01*
X0597190Y0604048D01*
X0597047Y0604000D01*
X0596904D01*
X0596761Y0604048D01*
X0596713Y0604095D01*
X0596666Y0604190D01*
X0581214Y0604762D02*
X0581167Y0604857D01*
X0581071Y0604952D01*
X0580976Y0605000D01*
X0580786D01*
X0580690Y0604952D01*
X0580595Y0604857D01*
X0580548Y0604762D01*
X0580500Y0604619D01*
Y0604381D01*
X0580548Y0604238D01*
X0580595Y0604143D01*
X0580690Y0604048D01*
X0580786Y0604000D01*
X0580976D01*
X0581071Y0604048D01*
X0581167Y0604143D01*
X0581214Y0604238D01*
X0581543Y0604762D02*
Y0604809D01*
X0581590Y0604905D01*
X0581638Y0604952D01*
X0581733Y0605000D01*
X0581923D01*
X0582019Y0604952D01*
X0582066Y0604905D01*
X0582114Y0604809D01*
Y0604714D01*
X0582066Y0604619D01*
X0581971Y0604476D01*
X0581495Y0604000D01*
X0582162D01*
X0582433Y0604762D02*
Y0604809D01*
X0582480Y0604905D01*
X0582528Y0604952D01*
X0582623Y0605000D01*
X0582814D01*
X0582909Y0604952D01*
X0582957Y0604905D01*
X0583004Y0604809D01*
Y0604714D01*
X0582957Y0604619D01*
X0582861Y0604476D01*
X0582385Y0604000D01*
X0583052D01*
X0583276Y0603667D02*
X0584037D01*
X0584642Y0605000D02*
X0584166Y0604333D01*
X0584880D01*
X0584642Y0605000D02*
Y0604000D01*
X0568714Y0604762D02*
X0568667Y0604857D01*
X0568571Y0604952D01*
X0568476Y0605000D01*
X0568286D01*
X0568190Y0604952D01*
X0568095Y0604857D01*
X0568048Y0604762D01*
X0568000Y0604619D01*
Y0604381D01*
X0568048Y0604238D01*
X0568095Y0604143D01*
X0568190Y0604048D01*
X0568286Y0604000D01*
X0568476D01*
X0568571Y0604048D01*
X0568667Y0604143D01*
X0568714Y0604238D01*
X0569043Y0604762D02*
Y0604809D01*
X0569090Y0604905D01*
X0569138Y0604952D01*
X0569233Y0605000D01*
X0569423D01*
X0569519Y0604952D01*
X0569566Y0604905D01*
X0569614Y0604809D01*
Y0604714D01*
X0569566Y0604619D01*
X0569471Y0604476D01*
X0568995Y0604000D01*
X0569662D01*
X0569933Y0604762D02*
Y0604809D01*
X0569980Y0604905D01*
X0570028Y0604952D01*
X0570123Y0605000D01*
X0570314D01*
X0570409Y0604952D01*
X0570457Y0604905D01*
X0570504Y0604809D01*
Y0604714D01*
X0570457Y0604619D01*
X0570361Y0604476D01*
X0569885Y0604000D01*
X0570552D01*
X0570776Y0603667D02*
X0571537D01*
X0571761Y0605000D02*
X0572285D01*
X0571999Y0604619D01*
X0572142D01*
X0572237Y0604571D01*
X0572285Y0604524D01*
X0572332Y0604381D01*
Y0604286D01*
X0572285Y0604143D01*
X0572190Y0604048D01*
X0572047Y0604000D01*
X0571904D01*
X0571761Y0604048D01*
X0571713Y0604095D01*
X0571666Y0604190D01*
X0556214Y0604762D02*
X0556167Y0604857D01*
X0556071Y0604952D01*
X0555976Y0605000D01*
X0555786D01*
X0555690Y0604952D01*
X0555595Y0604857D01*
X0555548Y0604762D01*
X0555500Y0604619D01*
Y0604381D01*
X0555548Y0604238D01*
X0555595Y0604143D01*
X0555690Y0604048D01*
X0555786Y0604000D01*
X0555976D01*
X0556071Y0604048D01*
X0556167Y0604143D01*
X0556214Y0604238D01*
X0556543Y0604762D02*
Y0604809D01*
X0556590Y0604905D01*
X0556638Y0604952D01*
X0556733Y0605000D01*
X0556923D01*
X0557019Y0604952D01*
X0557066Y0604905D01*
X0557114Y0604809D01*
Y0604714D01*
X0557066Y0604619D01*
X0556971Y0604476D01*
X0556495Y0604000D01*
X0557162D01*
X0557433Y0604762D02*
Y0604809D01*
X0557480Y0604905D01*
X0557528Y0604952D01*
X0557623Y0605000D01*
X0557814D01*
X0557909Y0604952D01*
X0557957Y0604905D01*
X0558004Y0604809D01*
Y0604714D01*
X0557957Y0604619D01*
X0557861Y0604476D01*
X0557385Y0604000D01*
X0558052D01*
X0558276Y0603667D02*
X0559037D01*
X0559213Y0604762D02*
Y0604809D01*
X0559261Y0604905D01*
X0559309Y0604952D01*
X0559404Y0605000D01*
X0559594D01*
X0559690Y0604952D01*
X0559737Y0604905D01*
X0559785Y0604809D01*
Y0604714D01*
X0559737Y0604619D01*
X0559642Y0604476D01*
X0559166Y0604000D01*
X0559832D01*
X0543714Y0604762D02*
X0543667Y0604857D01*
X0543571Y0604952D01*
X0543476Y0605000D01*
X0543286D01*
X0543190Y0604952D01*
X0543095Y0604857D01*
X0543048Y0604762D01*
X0543000Y0604619D01*
Y0604381D01*
X0543048Y0604238D01*
X0543095Y0604143D01*
X0543190Y0604048D01*
X0543286Y0604000D01*
X0543476D01*
X0543571Y0604048D01*
X0543667Y0604143D01*
X0543714Y0604238D01*
X0544043Y0604762D02*
Y0604809D01*
X0544090Y0604905D01*
X0544138Y0604952D01*
X0544233Y0605000D01*
X0544423D01*
X0544519Y0604952D01*
X0544566Y0604905D01*
X0544614Y0604809D01*
Y0604714D01*
X0544566Y0604619D01*
X0544471Y0604476D01*
X0543995Y0604000D01*
X0544662D01*
X0544933Y0604762D02*
Y0604809D01*
X0544980Y0604905D01*
X0545028Y0604952D01*
X0545123Y0605000D01*
X0545314D01*
X0545409Y0604952D01*
X0545457Y0604905D01*
X0545504Y0604809D01*
Y0604714D01*
X0545457Y0604619D01*
X0545361Y0604476D01*
X0544885Y0604000D01*
X0545552D01*
X0545776Y0603667D02*
X0546537D01*
X0546666Y0604809D02*
X0546761Y0604857D01*
X0546904Y0605000D01*
Y0604000D01*
X0540500Y0612000D02*
Y0613000D01*
X0541000D01*
X0541166Y0612833D01*
Y0612500D01*
X0541000Y0612333D01*
X0540500D01*
X0540833D02*
X0541166Y0612000D01*
X0541500Y0612833D02*
X0541666Y0613000D01*
X0541999D01*
X0542166Y0612833D01*
Y0612666D01*
X0541999Y0612500D01*
X0541833D01*
X0541999D01*
X0542166Y0612333D01*
Y0612167D01*
X0541999Y0612000D01*
X0541666D01*
X0541500Y0612167D01*
X0542999Y0612000D02*
Y0613000D01*
X0542499Y0612500D01*
X0543166D01*
X0543499Y0611833D02*
X0544166D01*
X0544499Y0612000D02*
X0544832D01*
X0544665D01*
Y0613000D01*
X0544499Y0612833D01*
X0553000Y0612000D02*
Y0613000D01*
X0553500D01*
X0553666Y0612833D01*
Y0612500D01*
X0553500Y0612333D01*
X0553000D01*
X0553333D02*
X0553666Y0612000D01*
X0554000Y0612833D02*
X0554166Y0613000D01*
X0554499D01*
X0554666Y0612833D01*
Y0612666D01*
X0554499Y0612500D01*
X0554333D01*
X0554499D01*
X0554666Y0612333D01*
Y0612167D01*
X0554499Y0612000D01*
X0554166D01*
X0554000Y0612167D01*
X0555499Y0612000D02*
Y0613000D01*
X0554999Y0612500D01*
X0555666D01*
X0555999Y0611833D02*
X0556666D01*
X0557665Y0612000D02*
X0556999D01*
X0557665Y0612666D01*
Y0612833D01*
X0557499Y0613000D01*
X0557165D01*
X0556999Y0612833D01*
X0565500Y0612000D02*
Y0613000D01*
X0566000D01*
X0566166Y0612833D01*
Y0612500D01*
X0566000Y0612333D01*
X0565500D01*
X0565833D02*
X0566166Y0612000D01*
X0566500Y0612833D02*
X0566666Y0613000D01*
X0566999D01*
X0567166Y0612833D01*
Y0612666D01*
X0566999Y0612500D01*
X0566833D01*
X0566999D01*
X0567166Y0612333D01*
Y0612167D01*
X0566999Y0612000D01*
X0566666D01*
X0566500Y0612167D01*
X0567999Y0612000D02*
Y0613000D01*
X0567499Y0612500D01*
X0568166D01*
X0568499Y0611833D02*
X0569166D01*
X0569499Y0612833D02*
X0569665Y0613000D01*
X0569999D01*
X0570165Y0612833D01*
Y0612666D01*
X0569999Y0612500D01*
X0569832D01*
X0569999D01*
X0570165Y0612333D01*
Y0612167D01*
X0569999Y0612000D01*
X0569665D01*
X0569499Y0612167D01*
X0578000Y0612000D02*
Y0613000D01*
X0578500D01*
X0578666Y0612833D01*
Y0612500D01*
X0578500Y0612333D01*
X0578000D01*
X0578333D02*
X0578666Y0612000D01*
X0579000Y0612833D02*
X0579166Y0613000D01*
X0579499D01*
X0579666Y0612833D01*
Y0612666D01*
X0579499Y0612500D01*
X0579333D01*
X0579499D01*
X0579666Y0612333D01*
Y0612167D01*
X0579499Y0612000D01*
X0579166D01*
X0579000Y0612167D01*
X0580499Y0612000D02*
Y0613000D01*
X0579999Y0612500D01*
X0580666D01*
X0580999Y0611833D02*
X0581666D01*
X0582499Y0612000D02*
Y0613000D01*
X0581999Y0612500D01*
X0582665D01*
X0590500Y0612000D02*
Y0613000D01*
X0591000D01*
X0591166Y0612833D01*
Y0612500D01*
X0591000Y0612333D01*
X0590500D01*
X0590833D02*
X0591166Y0612000D01*
X0591500Y0612833D02*
X0591666Y0613000D01*
X0591999D01*
X0592166Y0612833D01*
Y0612666D01*
X0591999Y0612500D01*
X0591833D01*
X0591999D01*
X0592166Y0612333D01*
Y0612167D01*
X0591999Y0612000D01*
X0591666D01*
X0591500Y0612167D01*
X0592999Y0612000D02*
Y0613000D01*
X0592499Y0612500D01*
X0593166D01*
X0593499Y0611833D02*
X0594166D01*
X0595165Y0613000D02*
X0594499D01*
Y0612500D01*
X0594832Y0612666D01*
X0594999D01*
X0595165Y0612500D01*
Y0612167D01*
X0594999Y0612000D01*
X0594665D01*
X0594499Y0612167D01*
X0603000Y0612000D02*
Y0613000D01*
X0603500D01*
X0603666Y0612833D01*
Y0612500D01*
X0603500Y0612333D01*
X0603000D01*
X0603333D02*
X0603666Y0612000D01*
X0604000Y0612833D02*
X0604166Y0613000D01*
X0604499D01*
X0604666Y0612833D01*
Y0612666D01*
X0604499Y0612500D01*
X0604333D01*
X0604499D01*
X0604666Y0612333D01*
Y0612167D01*
X0604499Y0612000D01*
X0604166D01*
X0604000Y0612167D01*
X0605499Y0612000D02*
Y0613000D01*
X0604999Y0612500D01*
X0605666D01*
X0605999Y0611833D02*
X0606666D01*
X0607665Y0613000D02*
X0607332Y0612833D01*
X0606999Y0612500D01*
Y0612167D01*
X0607165Y0612000D01*
X0607499D01*
X0607665Y0612167D01*
Y0612333D01*
X0607499Y0612500D01*
X0606999D01*
X0615500Y0612000D02*
Y0613000D01*
X0616000D01*
X0616166Y0612833D01*
Y0612500D01*
X0616000Y0612333D01*
X0615500D01*
X0615833D02*
X0616166Y0612000D01*
X0616500Y0612833D02*
X0616666Y0613000D01*
X0616999D01*
X0617166Y0612833D01*
Y0612666D01*
X0616999Y0612500D01*
X0616833D01*
X0616999D01*
X0617166Y0612333D01*
Y0612167D01*
X0616999Y0612000D01*
X0616666D01*
X0616500Y0612167D01*
X0617999Y0612000D02*
Y0613000D01*
X0617499Y0612500D01*
X0618166D01*
X0618499Y0611833D02*
X0619166D01*
X0619499Y0613000D02*
X0620165D01*
Y0612833D01*
X0619499Y0612167D01*
Y0612000D01*
X0628000D02*
Y0613000D01*
X0628500D01*
X0628666Y0612833D01*
Y0612500D01*
X0628500Y0612333D01*
X0628000D01*
X0628333D02*
X0628666Y0612000D01*
X0629000Y0612833D02*
X0629166Y0613000D01*
X0629499D01*
X0629666Y0612833D01*
Y0612666D01*
X0629499Y0612500D01*
X0629333D01*
X0629499D01*
X0629666Y0612333D01*
Y0612167D01*
X0629499Y0612000D01*
X0629166D01*
X0629000Y0612167D01*
X0630499Y0612000D02*
Y0613000D01*
X0629999Y0612500D01*
X0630666D01*
X0630999Y0611833D02*
X0631666D01*
X0631999Y0612833D02*
X0632165Y0613000D01*
X0632499D01*
X0632665Y0612833D01*
Y0612666D01*
X0632499Y0612500D01*
X0632665Y0612333D01*
Y0612167D01*
X0632499Y0612000D01*
X0632165D01*
X0631999Y0612167D01*
Y0612333D01*
X0632165Y0612500D01*
X0631999Y0612666D01*
Y0612833D01*
X0632165Y0612500D02*
X0632499D01*
X0640500Y0612000D02*
Y0613000D01*
X0641000D01*
X0641166Y0612833D01*
Y0612500D01*
X0641000Y0612333D01*
X0640500D01*
X0640833D02*
X0641166Y0612000D01*
X0641500Y0612833D02*
X0641666Y0613000D01*
X0641999D01*
X0642166Y0612833D01*
Y0612666D01*
X0641999Y0612500D01*
X0641833D01*
X0641999D01*
X0642166Y0612333D01*
Y0612167D01*
X0641999Y0612000D01*
X0641666D01*
X0641500Y0612167D01*
X0642999Y0612000D02*
Y0613000D01*
X0642499Y0612500D01*
X0643166D01*
X0643499Y0611833D02*
X0644166D01*
X0644499Y0612167D02*
X0644665Y0612000D01*
X0644999D01*
X0645165Y0612167D01*
Y0612833D01*
X0644999Y0613000D01*
X0644665D01*
X0644499Y0612833D01*
Y0612666D01*
X0644665Y0612500D01*
X0645165D01*
X0652000Y0612000D02*
Y0613000D01*
X0652500D01*
X0652666Y0612833D01*
Y0612500D01*
X0652500Y0612333D01*
X0652000D01*
X0652333D02*
X0652666Y0612000D01*
X0653000Y0612833D02*
X0653166Y0613000D01*
X0653500D01*
X0653666Y0612833D01*
Y0612666D01*
X0653500Y0612500D01*
X0653333D01*
X0653500D01*
X0653666Y0612333D01*
Y0612167D01*
X0653500Y0612000D01*
X0653166D01*
X0653000Y0612167D01*
X0654499Y0612000D02*
Y0613000D01*
X0653999Y0612500D01*
X0654666D01*
X0654999Y0611833D02*
X0655665D01*
X0655999Y0612000D02*
X0656332D01*
X0656165D01*
Y0613000D01*
X0655999Y0612833D01*
X0656832D02*
X0656998Y0613000D01*
X0657332D01*
X0657498Y0612833D01*
Y0612167D01*
X0657332Y0612000D01*
X0656998D01*
X0656832Y0612167D01*
Y0612833D01*
X0664500Y0612000D02*
Y0613000D01*
X0665000D01*
X0665166Y0612833D01*
Y0612500D01*
X0665000Y0612333D01*
X0664500D01*
X0664833D02*
X0665166Y0612000D01*
X0665500Y0612833D02*
X0665666Y0613000D01*
X0666000D01*
X0666166Y0612833D01*
Y0612666D01*
X0666000Y0612500D01*
X0665833D01*
X0666000D01*
X0666166Y0612333D01*
Y0612167D01*
X0666000Y0612000D01*
X0665666D01*
X0665500Y0612167D01*
X0666999Y0612000D02*
Y0613000D01*
X0666499Y0612500D01*
X0667166D01*
X0667499Y0611833D02*
X0668165D01*
X0668499Y0612000D02*
X0668832D01*
X0668665D01*
Y0613000D01*
X0668499Y0612833D01*
X0669332Y0612000D02*
X0669665D01*
X0669498D01*
Y0613000D01*
X0669332Y0612833D01*
X0679500Y0611500D02*
Y0612500D01*
X0680000D01*
X0680166Y0612333D01*
Y0612000D01*
X0680000Y0611833D01*
X0679500D01*
X0679833D02*
X0680166Y0611500D01*
X0680500Y0612333D02*
X0680666Y0612500D01*
X0681000D01*
X0681166Y0612333D01*
Y0612166D01*
X0681000Y0612000D01*
X0680833D01*
X0681000D01*
X0681166Y0611833D01*
Y0611667D01*
X0681000Y0611500D01*
X0680666D01*
X0680500Y0611667D01*
X0681999Y0611500D02*
Y0612500D01*
X0681499Y0612000D01*
X0682166D01*
X0682499Y0611333D02*
X0683166D01*
X0683499Y0611500D02*
X0683832D01*
X0683665D01*
Y0612500D01*
X0683499Y0612333D01*
X0684998Y0611500D02*
X0684332D01*
X0684998Y0612166D01*
Y0612333D01*
X0684832Y0612500D01*
X0684498D01*
X0684332Y0612333D01*
M02*
