G04 Layer_Physical_Order=3*
G04 Layer_Color=128*
%FSAX25Y25*%
%MOIN*%
G70*
G01*
G75*
%ADD46C,0.01000*%
%ADD47C,0.02000*%
%ADD53C,0.04000*%
%ADD54C,0.04750*%
%ADD55C,0.02600*%
%ADD56C,0.09080*%
%ADD57C,0.13805*%
D46*
X0581000Y0548000D02*
X0729000D01*
X0579500Y0546500D02*
X0581000Y0548000D01*
X0579500Y0539000D02*
Y0546500D01*
X0763000Y0582000D02*
X0789500Y0608500D01*
X0729000Y0548000D02*
X0742000D01*
X0763000Y0569000D02*
Y0582000D01*
X0742000Y0548000D02*
X0763000Y0569000D01*
X0757500Y0598500D02*
X0779500D01*
X0806500Y0608500D02*
X0834000Y0581000D01*
X0789500Y0608500D02*
X0806500D01*
X0834000Y0581000D02*
X0838490D01*
X0534000Y0537500D02*
Y0546500D01*
X0540000Y0552500D01*
X0551500D01*
X0565500Y0566500D01*
X0725500D01*
X0757500Y0598500D01*
X0839000Y0581000D02*
X0866217D01*
X0838490Y0537500D02*
Y0581000D01*
X0578000Y0537500D02*
X0579500Y0539000D01*
D47*
X0823500Y0537500D02*
X0838490D01*
X0866217Y0581000D02*
Y0616261D01*
D53*
X0524000Y0557500D02*
G03*
X0524000Y0537500I0000000J-0010000D01*
G01*
X0876500D02*
G03*
X0876500Y0557500I0000000J0010000D01*
G01*
X0866500Y0562500D02*
G03*
X0871500Y0557500I0005000J0000000D01*
G01*
Y0619500D02*
G03*
X0866500Y0614500I0000000J-0005000D01*
G01*
X0876500Y0619500D02*
G03*
X0876500Y0639500I0000000J0010000D01*
G01*
X0524000D02*
G03*
X0524000Y0619500I0000000J-0010000D01*
G01*
X0534000Y0614500D02*
G03*
X0529000Y0619500I-0005000J0000000D01*
G01*
Y0557500D02*
G03*
X0534000Y0562500I0000000J0005000D01*
G01*
X0871500Y0557500D02*
X0876500D01*
X0871500Y0557500D02*
Y0557500D01*
X0866500Y0562500D02*
Y0614500D01*
X0871500Y0619500D02*
Y0619500D01*
Y0619500D02*
X0876500D01*
X0524000D02*
X0529000D01*
X0534000Y0614500D02*
X0534000D01*
Y0562500D02*
Y0614500D01*
X0529000Y0557500D02*
Y0557500D01*
X0524000D02*
X0529000D01*
X0524000Y0639500D02*
X0876500D01*
X0524000Y0537500D02*
X0876500D01*
D54*
X0665555Y0623500D02*
D03*
X0655713D02*
D03*
X0645870D02*
D03*
X0636028D02*
D03*
X0626185D02*
D03*
X0616342D02*
D03*
X0606500D02*
D03*
X0596658D02*
D03*
X0586815D02*
D03*
X0576972D02*
D03*
X0567130D02*
D03*
X0557287D02*
D03*
X0547445D02*
D03*
X0543000Y0579748D02*
D03*
Y0571874D02*
D03*
Y0564000D02*
D03*
X0563063Y0547500D02*
D03*
X0570937D02*
D03*
X0688500Y0628937D02*
D03*
Y0621063D02*
D03*
X0563126Y0567500D02*
D03*
X0571000D02*
D03*
D55*
X0671000Y0555500D02*
D03*
X0674000D02*
D03*
X0671000Y0552500D02*
D03*
X0677000Y0570000D02*
D03*
X0671000Y0564000D02*
D03*
X0674000Y0567000D02*
D03*
X0660500Y0579500D02*
D03*
X0668500Y0584500D02*
D03*
X0666000Y0582000D02*
D03*
X0663500Y0579500D02*
D03*
X0797500Y0551000D02*
D03*
X0800500D02*
D03*
X0803500D02*
D03*
X0800500Y0548000D02*
D03*
X0803500D02*
D03*
X0797500D02*
D03*
X0674000Y0564000D02*
D03*
X0677000Y0567000D02*
D03*
Y0564000D02*
D03*
X0734000Y0632000D02*
D03*
X0723000Y0621000D02*
D03*
Y0623500D02*
D03*
X0783500Y0566000D02*
D03*
X0555000Y0555500D02*
D03*
X0584500Y0590000D02*
D03*
X0745000Y0601000D02*
D03*
X0735000Y0599000D02*
D03*
X0738000Y0599500D02*
D03*
X0747000Y0596500D02*
D03*
X0747500Y0601000D02*
D03*
X0773500Y0612500D02*
D03*
X0770000D02*
D03*
X0766500D02*
D03*
X0763000D02*
D03*
X0753000Y0605000D02*
D03*
Y0608000D02*
D03*
Y0611000D02*
D03*
X0693500Y0601500D02*
D03*
X0723114Y0573500D02*
D03*
Y0577000D02*
D03*
X0732500Y0573500D02*
D03*
X0762000Y0558228D02*
D03*
X0628457Y0562500D02*
D03*
X0628500Y0559000D02*
D03*
X0616272Y0562500D02*
D03*
X0617000Y0559000D02*
D03*
X0674000Y0544500D02*
D03*
X0671000D02*
D03*
X0668000D02*
D03*
X0665000D02*
D03*
Y0547500D02*
D03*
Y0552500D02*
D03*
X0674000Y0547500D02*
D03*
X0671000D02*
D03*
X0668000D02*
D03*
Y0552500D02*
D03*
X0674000D02*
D03*
X0677000Y0555500D02*
D03*
Y0558500D02*
D03*
X0674000D02*
D03*
X0671000D02*
D03*
X0802000Y0593000D02*
D03*
X0799000D02*
D03*
X0796000D02*
D03*
Y0596000D02*
D03*
X0793000Y0599000D02*
D03*
X0790000D02*
D03*
X0793000Y0587000D02*
D03*
X0790000D02*
D03*
X0793000Y0590000D02*
D03*
X0790000D02*
D03*
X0793000Y0593000D02*
D03*
X0790000D02*
D03*
X0786500Y0566000D02*
D03*
X0789500D02*
D03*
X0792500D02*
D03*
X0795500D02*
D03*
Y0569000D02*
D03*
X0792500D02*
D03*
X0789500D02*
D03*
X0786500D02*
D03*
Y0572000D02*
D03*
X0789500D02*
D03*
X0792500D02*
D03*
Y0575000D02*
D03*
X0789500D02*
D03*
X0786500D02*
D03*
X0789500Y0578000D02*
D03*
X0786500D02*
D03*
X0792500D02*
D03*
Y0581000D02*
D03*
X0789500D02*
D03*
X0786500D02*
D03*
X0863500Y0586000D02*
D03*
X0861000D02*
D03*
X0858500D02*
D03*
X0856000D02*
D03*
X0853500D02*
D03*
X0856000Y0598500D02*
D03*
Y0593500D02*
D03*
X0853500Y0588500D02*
D03*
Y0591000D02*
D03*
Y0593500D02*
D03*
Y0596000D02*
D03*
Y0598500D02*
D03*
Y0601000D02*
D03*
X0856000D02*
D03*
Y0596000D02*
D03*
Y0591000D02*
D03*
Y0588500D02*
D03*
X0858500D02*
D03*
Y0591000D02*
D03*
Y0593500D02*
D03*
Y0596000D02*
D03*
Y0598500D02*
D03*
Y0601000D02*
D03*
X0861000D02*
D03*
Y0598500D02*
D03*
Y0596000D02*
D03*
Y0593500D02*
D03*
Y0591000D02*
D03*
Y0588500D02*
D03*
X0863500D02*
D03*
Y0591000D02*
D03*
Y0593500D02*
D03*
Y0596000D02*
D03*
Y0598500D02*
D03*
Y0601000D02*
D03*
X0851000Y0586000D02*
D03*
X0848500D02*
D03*
X0846000D02*
D03*
X0843500D02*
D03*
Y0598500D02*
D03*
Y0593500D02*
D03*
X0841000Y0588500D02*
D03*
Y0591000D02*
D03*
Y0593500D02*
D03*
Y0596000D02*
D03*
Y0598500D02*
D03*
Y0601000D02*
D03*
X0843500D02*
D03*
Y0596000D02*
D03*
Y0591000D02*
D03*
Y0588500D02*
D03*
X0846000D02*
D03*
Y0591000D02*
D03*
Y0593500D02*
D03*
Y0596000D02*
D03*
Y0598500D02*
D03*
Y0601000D02*
D03*
X0848500D02*
D03*
Y0598500D02*
D03*
Y0596000D02*
D03*
Y0593500D02*
D03*
Y0591000D02*
D03*
Y0588500D02*
D03*
X0851000D02*
D03*
Y0591000D02*
D03*
Y0593500D02*
D03*
Y0596000D02*
D03*
Y0598500D02*
D03*
Y0601000D02*
D03*
Y0603500D02*
D03*
X0848500D02*
D03*
X0846000D02*
D03*
X0843500D02*
D03*
X0841000D02*
D03*
X0863500D02*
D03*
X0861000D02*
D03*
X0858500D02*
D03*
X0856000D02*
D03*
X0853500D02*
D03*
X0863500Y0583500D02*
D03*
X0861000D02*
D03*
X0828500Y0581500D02*
D03*
X0826000D02*
D03*
Y0584000D02*
D03*
X0828500D02*
D03*
X0831000D02*
D03*
X0826000Y0601000D02*
D03*
X0833500Y0606000D02*
D03*
X0826000Y0586500D02*
D03*
Y0589000D02*
D03*
X0828500Y0586500D02*
D03*
X0831000D02*
D03*
Y0589000D02*
D03*
X0828500D02*
D03*
X0833500Y0603500D02*
D03*
Y0601000D02*
D03*
X0826000Y0603500D02*
D03*
X0828500Y0601000D02*
D03*
X0831000D02*
D03*
Y0603500D02*
D03*
X0828500D02*
D03*
Y0606000D02*
D03*
X0831000D02*
D03*
X0828500Y0616000D02*
D03*
X0831000D02*
D03*
X0836000Y0542000D02*
D03*
Y0544500D02*
D03*
Y0547000D02*
D03*
Y0549500D02*
D03*
Y0552000D02*
D03*
X0821000D02*
D03*
Y0549500D02*
D03*
Y0547000D02*
D03*
Y0544500D02*
D03*
X0818500D02*
D03*
Y0547000D02*
D03*
Y0549500D02*
D03*
Y0552000D02*
D03*
X0816000D02*
D03*
Y0549500D02*
D03*
Y0547000D02*
D03*
Y0544500D02*
D03*
X0813500D02*
D03*
Y0547000D02*
D03*
Y0552000D02*
D03*
Y0549500D02*
D03*
Y0542000D02*
D03*
X0816000D02*
D03*
X0818500D02*
D03*
X0821000D02*
D03*
X0833500Y0552000D02*
D03*
Y0549500D02*
D03*
Y0547000D02*
D03*
Y0544500D02*
D03*
X0831000D02*
D03*
Y0547000D02*
D03*
Y0549500D02*
D03*
Y0552000D02*
D03*
X0828500D02*
D03*
Y0549500D02*
D03*
Y0547000D02*
D03*
Y0544500D02*
D03*
X0826000D02*
D03*
Y0547000D02*
D03*
Y0552000D02*
D03*
X0823500D02*
D03*
Y0549500D02*
D03*
Y0547000D02*
D03*
Y0544500D02*
D03*
X0826000Y0549500D02*
D03*
X0823500Y0542000D02*
D03*
X0826000D02*
D03*
X0828500D02*
D03*
X0831000D02*
D03*
X0833500D02*
D03*
X0598500Y0574114D02*
D03*
X0539000Y0602244D02*
D03*
X0543350Y0602000D02*
D03*
X0551500Y0602244D02*
D03*
X0555850Y0602000D02*
D03*
X0564000Y0602244D02*
D03*
X0568350Y0602000D02*
D03*
X0576500Y0602244D02*
D03*
X0580850Y0602000D02*
D03*
X0589000Y0602244D02*
D03*
X0593350Y0602000D02*
D03*
X0601500Y0602244D02*
D03*
X0605850Y0602000D02*
D03*
X0614000Y0602244D02*
D03*
X0618350Y0602000D02*
D03*
X0626500Y0602244D02*
D03*
X0630850Y0602000D02*
D03*
X0639000Y0602244D02*
D03*
X0643350Y0602000D02*
D03*
X0651500Y0602244D02*
D03*
X0655850Y0602000D02*
D03*
X0664000Y0602244D02*
D03*
X0668350Y0602000D02*
D03*
X0680850D02*
D03*
X0676500Y0602244D02*
D03*
X0648860Y0544747D02*
D03*
X0813500Y0619500D02*
D03*
X0816000D02*
D03*
X0818500D02*
D03*
X0821000D02*
D03*
X0823500D02*
D03*
X0826000D02*
D03*
X0828500D02*
D03*
X0831000D02*
D03*
X0833500D02*
D03*
X0836000D02*
D03*
X0813500Y0622000D02*
D03*
X0816000D02*
D03*
X0818500D02*
D03*
X0821000D02*
D03*
X0823500D02*
D03*
X0826000D02*
D03*
X0828500D02*
D03*
X0831000D02*
D03*
X0833500D02*
D03*
X0836000D02*
D03*
X0813500Y0624500D02*
D03*
X0816000D02*
D03*
X0818500D02*
D03*
X0821000D02*
D03*
X0823500D02*
D03*
X0826000D02*
D03*
X0828500D02*
D03*
X0831000D02*
D03*
X0833500D02*
D03*
X0836000D02*
D03*
X0813500Y0627000D02*
D03*
X0816000D02*
D03*
X0818500D02*
D03*
X0821000D02*
D03*
X0823500D02*
D03*
X0826000D02*
D03*
X0828500D02*
D03*
X0831000D02*
D03*
X0833500D02*
D03*
X0836000D02*
D03*
X0813500Y0629500D02*
D03*
X0816000D02*
D03*
X0818500D02*
D03*
X0821000D02*
D03*
X0823500D02*
D03*
X0826000D02*
D03*
X0828500D02*
D03*
X0831000D02*
D03*
X0833500D02*
D03*
X0836000D02*
D03*
X0813500Y0632000D02*
D03*
X0816000D02*
D03*
X0818500D02*
D03*
X0821000D02*
D03*
X0823500D02*
D03*
X0826000D02*
D03*
X0828500D02*
D03*
X0831000D02*
D03*
X0833500D02*
D03*
X0836000D02*
D03*
Y0634500D02*
D03*
X0833500D02*
D03*
X0831000D02*
D03*
X0828500D02*
D03*
X0826000D02*
D03*
X0823500D02*
D03*
X0821000D02*
D03*
X0818500D02*
D03*
X0816000D02*
D03*
X0813500D02*
D03*
X0620047Y0555451D02*
D03*
X0637387Y0565613D02*
D03*
X0641000Y0568500D02*
D03*
X0644000D02*
D03*
Y0564000D02*
D03*
X0577500Y0551000D02*
D03*
X0722114Y0610000D02*
D03*
X0713614Y0598500D02*
D03*
X0716000Y0596000D02*
D03*
X0714000Y0593500D02*
D03*
X0712000Y0595876D02*
D03*
X0704000Y0602000D02*
D03*
X0725545Y0589853D02*
D03*
X0736500Y0587500D02*
D03*
X0724000Y0614500D02*
D03*
X0721000D02*
D03*
X0718000D02*
D03*
X0717500Y0618500D02*
D03*
X0696058Y0612876D02*
D03*
X0701000Y0602000D02*
D03*
X0709600D02*
D03*
X0712500D02*
D03*
X0793000Y0613000D02*
D03*
Y0615500D02*
D03*
X0788500Y0611500D02*
D03*
X0725500Y0599000D02*
D03*
X0802900Y0581000D02*
D03*
X0705114Y0615500D02*
D03*
X0694886D02*
D03*
X0808000Y0618000D02*
D03*
X0805000D02*
D03*
X0802000D02*
D03*
X0722500Y0632000D02*
D03*
X0720000Y0621500D02*
D03*
X0793000Y0596000D02*
D03*
X0790000D02*
D03*
X0781000D02*
D03*
X0784000D02*
D03*
Y0584000D02*
D03*
X0744000Y0596500D02*
D03*
X0741000D02*
D03*
X0738000D02*
D03*
X0762000Y0564300D02*
D03*
X0764000Y0582500D02*
D03*
X0759000Y0551000D02*
D03*
X0741000Y0599500D02*
D03*
X0810600Y0554500D02*
D03*
X0808000D02*
D03*
X0837600Y0586833D02*
D03*
X0731500Y0613000D02*
D03*
X0730500Y0603000D02*
D03*
X0688000Y0558500D02*
D03*
X0685500D02*
D03*
Y0556000D02*
D03*
X0688000D02*
D03*
X0699000Y0591000D02*
D03*
X0707000Y0602000D02*
D03*
X0619728Y0545000D02*
D03*
X0623272D02*
D03*
X0613500Y0544500D02*
D03*
X0701700Y0632000D02*
D03*
X0712500Y0624000D02*
D03*
X0839500Y0633000D02*
D03*
X0842000D02*
D03*
X0844500D02*
D03*
X0847000D02*
D03*
Y0630500D02*
D03*
X0844500D02*
D03*
X0842000D02*
D03*
X0839500D02*
D03*
X0581000Y0557500D02*
D03*
X0538110Y0597000D02*
D03*
X0575500Y0590000D02*
D03*
X0591500Y0545500D02*
D03*
Y0553500D02*
D03*
D56*
X0751500Y0626500D02*
D03*
D57*
X0876500Y0547500D02*
D03*
Y0629500D02*
D03*
X0524000D02*
D03*
Y0547500D02*
D03*
M02*
