G04 Layer_Color=128*
%FSAX24Y24*%
%MOIN*%
G70*
G01*
G75*
%ADD10R,0.0354X0.0394*%
%ADD17R,0.0276X0.0354*%
%ADD18R,0.0354X0.0276*%
%ADD19R,0.0394X0.0354*%
%ADD27R,0.1063X0.0453*%
%ADD50R,0.0320X0.0360*%
%ADD66R,0.0571X0.1102*%
%ADD67R,0.0669X0.0374*%
%ADD68R,0.0470X0.0220*%
%ADD69R,0.0850X0.1080*%
%ADD70R,0.1319X0.0492*%
%ADD71R,0.0433X0.0433*%
%ADD72O,0.0276X0.1024*%
%ADD73R,0.0360X0.0320*%
D10*
X061902Y049005D02*
D03*
X062532D02*
D03*
X062532Y049705D02*
D03*
X061902D02*
D03*
X061132Y050320D02*
D03*
X060502D02*
D03*
X060502Y051005D02*
D03*
X061132D02*
D03*
X062665Y066406D02*
D03*
X063295D02*
D03*
X061185Y066400D02*
D03*
X061815D02*
D03*
X059745D02*
D03*
X060375D02*
D03*
X058245D02*
D03*
X058875D02*
D03*
X056760Y066385D02*
D03*
X057390D02*
D03*
X055260D02*
D03*
X055890D02*
D03*
X053760D02*
D03*
X054390D02*
D03*
X052260D02*
D03*
X052890D02*
D03*
X050760D02*
D03*
X051390D02*
D03*
X049260D02*
D03*
X049890D02*
D03*
X047760D02*
D03*
X048390D02*
D03*
X046360D02*
D03*
X046990D02*
D03*
D17*
X045976Y043400D02*
D03*
X045424D02*
D03*
X046000Y042800D02*
D03*
X045449D02*
D03*
D18*
X059763Y049996D02*
D03*
Y049445D02*
D03*
Y051096D02*
D03*
Y050545D02*
D03*
X046300Y048200D02*
D03*
Y047649D02*
D03*
D19*
X062000Y058685D02*
D03*
Y059315D02*
D03*
X051000Y044585D02*
D03*
Y045215D02*
D03*
X052200Y044585D02*
D03*
Y045215D02*
D03*
X050400Y044585D02*
D03*
Y045215D02*
D03*
X051600Y044600D02*
D03*
Y045230D02*
D03*
D27*
X059800Y040909D02*
D03*
Y042091D02*
D03*
X058500Y040900D02*
D03*
Y042081D02*
D03*
D50*
X062197Y051139D02*
D03*
X061817Y050305D02*
D03*
X062571D02*
D03*
X060443Y049714D02*
D03*
X061197D02*
D03*
X060817Y048880D02*
D03*
D66*
X054520Y047155D02*
D03*
X052591D02*
D03*
D67*
X054063Y050654D02*
D03*
Y051717D02*
D03*
X053963Y053039D02*
D03*
Y054102D02*
D03*
D68*
X049766Y047355D02*
D03*
Y047855D02*
D03*
Y048355D02*
D03*
Y048855D02*
D03*
X051756Y047355D02*
D03*
Y047855D02*
D03*
Y048355D02*
D03*
Y048855D02*
D03*
X057051Y049805D02*
D03*
Y049305D02*
D03*
Y048805D02*
D03*
Y048305D02*
D03*
X055061Y049805D02*
D03*
Y049305D02*
D03*
Y048805D02*
D03*
Y048305D02*
D03*
X057046Y052055D02*
D03*
Y051555D02*
D03*
Y051055D02*
D03*
Y050555D02*
D03*
X055056Y052055D02*
D03*
Y051555D02*
D03*
Y051055D02*
D03*
Y050555D02*
D03*
X055061Y052805D02*
D03*
Y053305D02*
D03*
Y053805D02*
D03*
Y054305D02*
D03*
X057051Y052805D02*
D03*
Y053305D02*
D03*
Y053805D02*
D03*
Y054305D02*
D03*
X050005Y040950D02*
D03*
Y041450D02*
D03*
Y041950D02*
D03*
Y042450D02*
D03*
X051995Y040950D02*
D03*
Y041450D02*
D03*
Y041950D02*
D03*
Y042450D02*
D03*
X055066Y046055D02*
D03*
Y046555D02*
D03*
Y047055D02*
D03*
Y047555D02*
D03*
X057056Y046055D02*
D03*
Y046555D02*
D03*
Y047055D02*
D03*
Y047555D02*
D03*
D69*
X058286Y045255D02*
D03*
X060026D02*
D03*
D70*
X062980Y063425D02*
D03*
Y065787D02*
D03*
X060060Y063419D02*
D03*
Y065781D02*
D03*
X058560Y063419D02*
D03*
Y065781D02*
D03*
X057075Y063404D02*
D03*
Y065766D02*
D03*
X055575Y063404D02*
D03*
Y065766D02*
D03*
X054075Y063404D02*
D03*
Y065766D02*
D03*
X052575Y063404D02*
D03*
Y065766D02*
D03*
X051075Y063404D02*
D03*
Y065766D02*
D03*
X049575Y063404D02*
D03*
Y065766D02*
D03*
X048075Y063404D02*
D03*
Y065766D02*
D03*
X046600Y063419D02*
D03*
Y065781D02*
D03*
X061500Y065781D02*
D03*
Y063419D02*
D03*
D71*
X063280Y061952D02*
D03*
Y062661D02*
D03*
X061800Y061946D02*
D03*
Y062654D02*
D03*
X060360Y061946D02*
D03*
Y062654D02*
D03*
X058860Y061946D02*
D03*
Y062654D02*
D03*
X057375Y061931D02*
D03*
Y062639D02*
D03*
X055875Y061931D02*
D03*
Y062639D02*
D03*
X054375Y061931D02*
D03*
Y062639D02*
D03*
X052875Y061931D02*
D03*
Y062639D02*
D03*
X051375Y061931D02*
D03*
Y062639D02*
D03*
X049875Y061931D02*
D03*
Y062639D02*
D03*
X048375Y061931D02*
D03*
Y062639D02*
D03*
X046975Y061931D02*
D03*
Y062639D02*
D03*
D72*
X052850Y044911D02*
D03*
X053350D02*
D03*
X053850D02*
D03*
X054350D02*
D03*
X054850D02*
D03*
X055350D02*
D03*
X055850D02*
D03*
X056350D02*
D03*
X056850D02*
D03*
X057350D02*
D03*
X052850Y041289D02*
D03*
X053350D02*
D03*
X053850D02*
D03*
X054350D02*
D03*
X054850D02*
D03*
X055350D02*
D03*
X055850D02*
D03*
X056350D02*
D03*
X056850D02*
D03*
X057350D02*
D03*
D73*
X045460Y046800D02*
D03*
X046294Y046420D02*
D03*
Y047174D02*
D03*
X061594Y042074D02*
D03*
Y041320D02*
D03*
X060760Y041700D02*
D03*
M02*
