G04 Layer_Color=32896*
%FSAX24Y24*%
%MOIN*%
G70*
G01*
G75*
%ADD52C,0.0100*%
%ADD91C,0.0098*%
%ADD94C,0.0236*%
%ADD95C,0.0079*%
%ADD96C,0.0050*%
%ADD97C,0.0080*%
%ADD99C,0.0060*%
D52*
X059500Y059100D02*
Y058200D01*
X059050D01*
X058900Y058350D01*
Y058500D01*
Y058650D01*
X059050Y058800D01*
X059500D01*
X058450D02*
X058150D01*
X058000Y058650D01*
Y058200D01*
X058450D01*
X058600Y058350D01*
X058450Y058500D01*
X058000D01*
X057551Y058950D02*
Y058800D01*
X057701D01*
X057401D01*
X057551D01*
Y058350D01*
X057401Y058200D01*
X056801Y058950D02*
Y058800D01*
X056951D01*
X056651D01*
X056801D01*
Y058350D01*
X056651Y058200D01*
X056201D02*
Y058800D01*
X056051D01*
X055901Y058650D01*
Y058200D01*
Y058650D01*
X055751Y058800D01*
X055601Y058650D01*
Y058200D01*
X055151Y058800D02*
X054851D01*
X054702Y058650D01*
Y058200D01*
X055151D01*
X055301Y058350D01*
X055151Y058500D01*
X054702D01*
X054402Y058200D02*
Y058800D01*
X053952D01*
X053802Y058650D01*
Y058200D01*
X052602Y058800D02*
X052302Y058200D01*
X052002Y058800D01*
X051703Y058950D02*
X051553Y059100D01*
X051253D01*
X051103Y058950D01*
Y058800D01*
X051253Y058650D01*
X051403D01*
X051253D01*
X051103Y058500D01*
Y058350D01*
X051253Y058200D01*
X051553D01*
X051703Y058350D01*
X050803Y058200D02*
Y058350D01*
X050653D01*
Y058200D01*
X050803D01*
X050053Y058950D02*
X049903Y059100D01*
X049603D01*
X049453Y058950D01*
Y058350D01*
X049603Y058200D01*
X049903D01*
X050053Y058350D01*
Y058950D01*
D91*
X051210Y048855D02*
G03*
X051210Y048855I-000049J000000D01*
G01*
X055705Y048305D02*
G03*
X055705Y048305I-000049J000000D01*
G01*
X055700Y050555D02*
G03*
X055700Y050555I-000049J000000D01*
G01*
X056505Y054305D02*
G03*
X056505Y054305I-000049J000000D01*
G01*
X058008Y044498D02*
G03*
X058008Y044498I-000049J000000D01*
G01*
X051449Y042450D02*
G03*
X051449Y042450I-000049J000000D01*
G01*
X052545Y044911D02*
G03*
X052545Y044911I-000049J000000D01*
G01*
X056510Y047555D02*
G03*
X056510Y047555I-000049J000000D01*
G01*
D94*
X053053Y043848D02*
G03*
X053053Y043848I-000118J000000D01*
G01*
D95*
X060292Y041283D02*
Y041717D01*
X059308Y041283D02*
Y041717D01*
X058992Y041274D02*
Y041707D01*
X058008Y041274D02*
Y041707D01*
X062197Y049163D02*
X062237D01*
X062197Y048848D02*
X062237D01*
X062197Y049548D02*
X062237D01*
X062197Y049863D02*
X062237D01*
X060797Y050163D02*
X060837D01*
X060797Y050478D02*
X060837D01*
X060797Y051163D02*
X060837D01*
X060797Y050848D02*
X060837D01*
X053024Y047667D02*
X054087D01*
X053024Y046643D02*
X054087D01*
X054358Y050989D02*
Y051383D01*
X053767Y050989D02*
Y051383D01*
X054258Y053373D02*
Y053767D01*
X053667Y053373D02*
Y053767D01*
X059900Y049700D02*
Y049740D01*
X059625Y049700D02*
Y049740D01*
X059900Y050800D02*
Y050840D01*
X059625Y050800D02*
Y050840D01*
X050131Y047121D02*
X051391D01*
X050131Y049089D02*
X051391D01*
X050131Y047121D02*
Y049089D01*
X051391Y047121D02*
Y049089D01*
X055426Y050039D02*
X056686D01*
X055426Y048071D02*
X056686D01*
Y050039D01*
X055426Y048071D02*
Y050039D01*
X055421Y052289D02*
X056681D01*
X055421Y050321D02*
X056681D01*
Y052289D01*
X055421Y050321D02*
Y052289D01*
X055426Y052571D02*
X056686D01*
X055426Y054539D02*
X056686D01*
X055426Y052571D02*
Y054539D01*
X056686Y052571D02*
Y054539D01*
X058250Y044468D02*
X060061D01*
X058250Y046042D02*
X060061D01*
X058250Y044468D02*
Y044557D01*
X060061Y044468D02*
Y044557D01*
X058250Y045952D02*
Y046042D01*
X060061Y045952D02*
Y046042D01*
X062157Y058980D02*
Y059020D01*
X061843Y058980D02*
Y059020D01*
X051157Y044880D02*
Y044920D01*
X050843Y044880D02*
Y044920D01*
X052357Y044880D02*
Y044920D01*
X052043Y044880D02*
Y044920D01*
X062960Y066564D02*
X063000D01*
X062960Y066249D02*
X063000D01*
X061480Y066557D02*
X061520D01*
X061480Y066243D02*
X061520D01*
X060040Y066557D02*
X060080D01*
X060040Y066243D02*
X060080D01*
X058540Y066557D02*
X058580D01*
X058540Y066243D02*
X058580D01*
X057055Y066543D02*
X057095D01*
X057055Y066228D02*
X057095D01*
X055555Y066543D02*
X055595D01*
X055555Y066228D02*
X055595D01*
X054055Y066543D02*
X054095D01*
X054055Y066228D02*
X054095D01*
X052555Y066543D02*
X052595D01*
X052555Y066228D02*
X052595D01*
X051055Y066543D02*
X051095D01*
X051055Y066228D02*
X051095D01*
X049555Y066543D02*
X049595D01*
X049555Y066228D02*
X049595D01*
X048055Y066543D02*
X048095D01*
X048055Y066228D02*
X048095D01*
X046655Y066543D02*
X046695D01*
X046655Y066228D02*
X046695D01*
X063600Y063819D02*
Y065394D01*
X062360Y063819D02*
Y065394D01*
X060680Y063813D02*
Y065387D01*
X059440Y063813D02*
Y065387D01*
X059180Y063813D02*
Y065387D01*
X057940Y063813D02*
Y065387D01*
X057695Y063798D02*
Y065372D01*
X056455Y063798D02*
Y065372D01*
X056195Y063798D02*
Y065372D01*
X054955Y063798D02*
Y065372D01*
X054695Y063798D02*
Y065372D01*
X053455Y063798D02*
Y065372D01*
X053195Y063798D02*
Y065372D01*
X051955Y063798D02*
Y065372D01*
X051695Y063798D02*
Y065372D01*
X050455Y063798D02*
Y065372D01*
X050195Y063798D02*
Y065372D01*
X048955Y063798D02*
Y065372D01*
X048695Y063798D02*
Y065372D01*
X047455Y063798D02*
Y065372D01*
X047220Y063813D02*
Y065387D01*
X045980Y063813D02*
Y065387D01*
X063457Y062287D02*
Y062326D01*
X063103Y062287D02*
Y062326D01*
X061977Y062280D02*
Y062320D01*
X061623Y062280D02*
Y062320D01*
X060537Y062280D02*
Y062320D01*
X060183Y062280D02*
Y062320D01*
X059037Y062280D02*
Y062320D01*
X058683Y062280D02*
Y062320D01*
X057552Y062265D02*
Y062305D01*
X057198Y062265D02*
Y062305D01*
X056052Y062265D02*
Y062305D01*
X055698Y062265D02*
Y062305D01*
X054552Y062265D02*
Y062305D01*
X054198Y062265D02*
Y062305D01*
X053052Y062265D02*
Y062305D01*
X052698Y062265D02*
Y062305D01*
X051552Y062265D02*
Y062305D01*
X051198Y062265D02*
Y062305D01*
X050052Y062265D02*
Y062305D01*
X049698Y062265D02*
Y062305D01*
X048552Y062265D02*
Y062305D01*
X048198Y062265D02*
Y062305D01*
X047152Y062265D02*
Y062305D01*
X046798Y062265D02*
Y062305D01*
X060880Y063813D02*
Y065387D01*
X062120Y063813D02*
Y065387D01*
X050557Y044880D02*
Y044920D01*
X050243Y044880D02*
Y044920D01*
X051757Y044895D02*
Y044935D01*
X051443Y044895D02*
Y044935D01*
X050370Y040716D02*
X051630D01*
X050370Y042684D02*
X051630D01*
X050370Y040716D02*
Y042684D01*
X051630Y040716D02*
Y042684D01*
X045680Y043262D02*
X045720D01*
X045680Y043538D02*
X045720D01*
X045705Y042662D02*
X045744D01*
X045705Y042938D02*
X045744D01*
X046438Y047905D02*
Y047944D01*
X046162Y047905D02*
Y047944D01*
X052541Y044242D02*
X057659D01*
X052541Y041958D02*
X057659D01*
X052541D02*
Y044242D01*
X057659Y041958D02*
Y044242D01*
X055431Y045821D02*
X056691D01*
X055431Y047789D02*
X056691D01*
X055431Y045821D02*
Y047789D01*
X056691Y045821D02*
Y047789D01*
D96*
X057522Y047788D02*
Y047922D01*
X057556Y047955D01*
X057622D01*
X057656Y047922D01*
Y047788D01*
X057622Y047755D01*
X057556D01*
X057589Y047822D02*
X057522Y047755D01*
X057556D02*
X057522Y047788D01*
X057456Y047755D02*
X057389D01*
X057422D01*
Y047955D01*
X057456Y047922D01*
X057289Y047955D02*
X057156D01*
Y047922D01*
X057289Y047788D01*
Y047755D01*
X058100Y043800D02*
X057933D01*
X057900Y043833D01*
Y043900D01*
X057933Y043933D01*
X058100D01*
X058067Y044000D02*
X058100Y044033D01*
Y044100D01*
X058067Y044133D01*
X058033D01*
X058000Y044100D01*
X057967Y044133D01*
X057933D01*
X057900Y044100D01*
Y044033D01*
X057933Y044000D01*
X057967D01*
X058000Y044033D01*
X058033Y044000D01*
X058067D01*
X058000Y044033D02*
Y044100D01*
X045900Y047800D02*
Y048000D01*
X045800D01*
X045767Y047967D01*
Y047900D01*
X045800Y047867D01*
X045900D01*
X045833D02*
X045767Y047800D01*
X045700Y048000D02*
X045567D01*
Y047967D01*
X045700Y047833D01*
Y047800D01*
X045500Y047967D02*
X045467Y048000D01*
X045400D01*
X045367Y047967D01*
Y047833D01*
X045400Y047800D01*
X045467D01*
X045500Y047833D01*
Y047967D01*
X046700Y042700D02*
Y042900D01*
X046600D01*
X046567Y042867D01*
Y042800D01*
X046600Y042767D01*
X046700D01*
X046633D02*
X046567Y042700D01*
X046367Y042900D02*
X046433Y042867D01*
X046500Y042800D01*
Y042733D01*
X046467Y042700D01*
X046400D01*
X046367Y042733D01*
Y042767D01*
X046400Y042800D01*
X046500D01*
X046200Y042700D02*
Y042900D01*
X046300Y042800D01*
X046167D01*
X046700Y043200D02*
Y043400D01*
X046600D01*
X046567Y043367D01*
Y043300D01*
X046600Y043267D01*
X046700D01*
X046633D02*
X046567Y043200D01*
X046367Y043400D02*
X046433Y043367D01*
X046500Y043300D01*
Y043233D01*
X046467Y043200D01*
X046400D01*
X046367Y043233D01*
Y043267D01*
X046400Y043300D01*
X046500D01*
X046167Y043200D02*
X046300D01*
X046167Y043333D01*
Y043367D01*
X046200Y043400D01*
X046267D01*
X046300Y043367D01*
X061267Y042433D02*
Y042567D01*
X061300Y042600D01*
X061367D01*
X061400Y042567D01*
Y042433D01*
X061367Y042400D01*
X061300D01*
X061333Y042467D02*
X061267Y042400D01*
X061300D02*
X061267Y042433D01*
X061067Y042400D02*
X061200D01*
X061067Y042533D01*
Y042567D01*
X061100Y042600D01*
X061167D01*
X061200Y042567D01*
X061000D02*
X060967Y042600D01*
X060900D01*
X060867Y042567D01*
Y042533D01*
X060900Y042500D01*
X060933D01*
X060900D01*
X060867Y042467D01*
Y042433D01*
X060900Y042400D01*
X060967D01*
X061000Y042433D01*
X050667Y042833D02*
Y042967D01*
X050700Y043000D01*
X050767D01*
X050800Y042967D01*
Y042833D01*
X050767Y042800D01*
X050700D01*
X050733Y042867D02*
X050667Y042800D01*
X050700D02*
X050667Y042833D01*
X050467Y042800D02*
X050600D01*
X050467Y042933D01*
Y042967D01*
X050500Y043000D01*
X050567D01*
X050600Y042967D01*
X050400Y042800D02*
X050333D01*
X050367D01*
Y043000D01*
X050400Y042967D01*
X045267Y046233D02*
Y046367D01*
X045300Y046400D01*
X045367D01*
X045400Y046367D01*
Y046233D01*
X045367Y046200D01*
X045300D01*
X045333Y046267D02*
X045267Y046200D01*
X045300D02*
X045267Y046233D01*
X045200Y046200D02*
X045133D01*
X045167D01*
Y046400D01*
X045200Y046367D01*
X044933Y046200D02*
Y046400D01*
X045033Y046300D01*
X044900D01*
X051667Y044282D02*
X051700Y044315D01*
X051767D01*
X051800Y044282D01*
Y044148D01*
X051767Y044115D01*
X051700D01*
X051667Y044148D01*
X051500Y044115D02*
Y044315D01*
X051600Y044215D01*
X051467D01*
X051400Y044282D02*
X051367Y044315D01*
X051300D01*
X051267Y044282D01*
Y044248D01*
X051300Y044215D01*
X051333D01*
X051300D01*
X051267Y044182D01*
Y044148D01*
X051300Y044115D01*
X051367D01*
X051400Y044148D01*
X050467Y044267D02*
X050500Y044300D01*
X050567D01*
X050600Y044267D01*
Y044133D01*
X050567Y044100D01*
X050500D01*
X050467Y044133D01*
X050267Y044100D02*
X050400D01*
X050267Y044233D01*
Y044267D01*
X050300Y044300D01*
X050367D01*
X050400Y044267D01*
X050067Y044100D02*
X050200D01*
X050067Y044233D01*
Y044267D01*
X050100Y044300D01*
X050167D01*
X050200Y044267D01*
X062100Y066800D02*
Y066600D01*
Y066800D02*
X062014D01*
X061986Y066790D01*
X061976Y066781D01*
X061967Y066762D01*
Y066743D01*
X061976Y066724D01*
X061986Y066714D01*
X062014Y066705D01*
X062100D01*
X062033D02*
X061967Y066600D01*
X061922Y066762D02*
X061903Y066771D01*
X061874Y066800D01*
Y066600D01*
X061756Y066800D02*
X061652D01*
X061709Y066724D01*
X061680D01*
X061661Y066714D01*
X061652Y066705D01*
X061642Y066676D01*
Y066657D01*
X061652Y066629D01*
X061671Y066610D01*
X061699Y066600D01*
X061728D01*
X061756Y066610D01*
X061766Y066619D01*
X061775Y066638D01*
X061597Y066533D02*
X061445D01*
X061286Y066771D02*
X061305Y066790D01*
X061333Y066800D01*
X061372D01*
X061400Y066790D01*
X061419Y066771D01*
Y066752D01*
X061410Y066733D01*
X061400Y066724D01*
X061381Y066714D01*
X061324Y066695D01*
X061305Y066686D01*
X061295Y066676D01*
X061286Y066657D01*
Y066629D01*
X061305Y066610D01*
X061333Y066600D01*
X061372D01*
X061400Y066610D01*
X061419Y066629D01*
X061241Y066762D02*
X061222Y066771D01*
X061194Y066800D01*
Y066600D01*
X061094Y066762D02*
X061075Y066771D01*
X061047Y066800D01*
Y066600D01*
X046627Y061828D02*
X046646Y061818D01*
X046665Y061799D01*
X046675Y061780D01*
Y061742D01*
X046665Y061723D01*
X046646Y061704D01*
X046627Y061695D01*
X046599Y061685D01*
X046551D01*
X046523Y061695D01*
X046504Y061704D01*
X046484Y061723D01*
X046475Y061742D01*
Y061780D01*
X046484Y061799D01*
X046504Y061818D01*
X046523Y061828D01*
X046637Y061884D02*
X046646Y061903D01*
X046675Y061932D01*
X046475D01*
X046408Y062031D02*
Y062183D01*
X046646Y062342D02*
X046665Y062323D01*
X046675Y062294D01*
Y062256D01*
X046665Y062228D01*
X046646Y062209D01*
X046627D01*
X046608Y062218D01*
X046599Y062228D01*
X046589Y062247D01*
X046570Y062304D01*
X046561Y062323D01*
X046551Y062333D01*
X046532Y062342D01*
X046504D01*
X046484Y062323D01*
X046475Y062294D01*
Y062256D01*
X046484Y062228D01*
X046504Y062209D01*
X046637Y062387D02*
X046646Y062406D01*
X046675Y062434D01*
X046475D01*
X048027Y061828D02*
X048046Y061818D01*
X048065Y061799D01*
X048075Y061780D01*
Y061742D01*
X048065Y061723D01*
X048046Y061704D01*
X048027Y061695D01*
X047999Y061685D01*
X047951D01*
X047923Y061695D01*
X047904Y061704D01*
X047884Y061723D01*
X047875Y061742D01*
Y061780D01*
X047884Y061799D01*
X047904Y061818D01*
X047923Y061828D01*
X048037Y061884D02*
X048046Y061903D01*
X048075Y061932D01*
X047875D01*
X047808Y062031D02*
Y062183D01*
X048046Y062342D02*
X048065Y062323D01*
X048075Y062294D01*
Y062256D01*
X048065Y062228D01*
X048046Y062209D01*
X048027D01*
X048008Y062218D01*
X047999Y062228D01*
X047989Y062247D01*
X047970Y062304D01*
X047961Y062323D01*
X047951Y062333D01*
X047932Y062342D01*
X047904D01*
X047884Y062323D01*
X047875Y062294D01*
Y062256D01*
X047884Y062228D01*
X047904Y062209D01*
X048027Y062396D02*
X048037D01*
X048056Y062406D01*
X048065Y062415D01*
X048075Y062434D01*
Y062472D01*
X048065Y062492D01*
X048056Y062501D01*
X048037Y062511D01*
X048018D01*
X047999Y062501D01*
X047970Y062482D01*
X047875Y062387D01*
Y062520D01*
X049527Y061828D02*
X049546Y061818D01*
X049565Y061799D01*
X049575Y061780D01*
Y061742D01*
X049565Y061723D01*
X049546Y061704D01*
X049527Y061695D01*
X049499Y061685D01*
X049451D01*
X049423Y061695D01*
X049404Y061704D01*
X049384Y061723D01*
X049375Y061742D01*
Y061780D01*
X049384Y061799D01*
X049404Y061818D01*
X049423Y061828D01*
X049537Y061884D02*
X049546Y061903D01*
X049575Y061932D01*
X049375D01*
X049308Y062031D02*
Y062183D01*
X049546Y062342D02*
X049565Y062323D01*
X049575Y062294D01*
Y062256D01*
X049565Y062228D01*
X049546Y062209D01*
X049527D01*
X049508Y062218D01*
X049499Y062228D01*
X049489Y062247D01*
X049470Y062304D01*
X049461Y062323D01*
X049451Y062333D01*
X049432Y062342D01*
X049404D01*
X049384Y062323D01*
X049375Y062294D01*
Y062256D01*
X049384Y062228D01*
X049404Y062209D01*
X049575Y062406D02*
Y062511D01*
X049499Y062453D01*
Y062482D01*
X049489Y062501D01*
X049480Y062511D01*
X049451Y062520D01*
X049432D01*
X049404Y062511D01*
X049384Y062492D01*
X049375Y062463D01*
Y062434D01*
X049384Y062406D01*
X049394Y062396D01*
X049413Y062387D01*
X051027Y061828D02*
X051046Y061818D01*
X051065Y061799D01*
X051075Y061780D01*
Y061742D01*
X051065Y061723D01*
X051046Y061704D01*
X051027Y061695D01*
X050999Y061685D01*
X050951D01*
X050923Y061695D01*
X050904Y061704D01*
X050884Y061723D01*
X050875Y061742D01*
Y061780D01*
X050884Y061799D01*
X050904Y061818D01*
X050923Y061828D01*
X051037Y061884D02*
X051046Y061903D01*
X051075Y061932D01*
X050875D01*
X050808Y062031D02*
Y062183D01*
X051046Y062342D02*
X051065Y062323D01*
X051075Y062294D01*
Y062256D01*
X051065Y062228D01*
X051046Y062209D01*
X051027D01*
X051008Y062218D01*
X050999Y062228D01*
X050989Y062247D01*
X050970Y062304D01*
X050961Y062323D01*
X050951Y062333D01*
X050932Y062342D01*
X050904D01*
X050884Y062323D01*
X050875Y062294D01*
Y062256D01*
X050884Y062228D01*
X050904Y062209D01*
X051075Y062482D02*
X050942Y062387D01*
Y062530D01*
X051075Y062482D02*
X050875D01*
X052527Y061828D02*
X052546Y061818D01*
X052565Y061799D01*
X052575Y061780D01*
Y061742D01*
X052565Y061723D01*
X052546Y061704D01*
X052527Y061695D01*
X052499Y061685D01*
X052451D01*
X052423Y061695D01*
X052404Y061704D01*
X052384Y061723D01*
X052375Y061742D01*
Y061780D01*
X052384Y061799D01*
X052404Y061818D01*
X052423Y061828D01*
X052537Y061884D02*
X052546Y061903D01*
X052575Y061932D01*
X052375D01*
X052308Y062031D02*
Y062183D01*
X052546Y062342D02*
X052565Y062323D01*
X052575Y062294D01*
Y062256D01*
X052565Y062228D01*
X052546Y062209D01*
X052527D01*
X052508Y062218D01*
X052499Y062228D01*
X052489Y062247D01*
X052470Y062304D01*
X052461Y062323D01*
X052451Y062333D01*
X052432Y062342D01*
X052404D01*
X052384Y062323D01*
X052375Y062294D01*
Y062256D01*
X052384Y062228D01*
X052404Y062209D01*
X052575Y062501D02*
Y062406D01*
X052489Y062396D01*
X052499Y062406D01*
X052508Y062434D01*
Y062463D01*
X052499Y062492D01*
X052480Y062511D01*
X052451Y062520D01*
X052432D01*
X052404Y062511D01*
X052384Y062492D01*
X052375Y062463D01*
Y062434D01*
X052384Y062406D01*
X052394Y062396D01*
X052413Y062387D01*
X054027Y061828D02*
X054046Y061818D01*
X054065Y061799D01*
X054075Y061780D01*
Y061742D01*
X054065Y061723D01*
X054046Y061704D01*
X054027Y061695D01*
X053999Y061685D01*
X053951D01*
X053923Y061695D01*
X053904Y061704D01*
X053884Y061723D01*
X053875Y061742D01*
Y061780D01*
X053884Y061799D01*
X053904Y061818D01*
X053923Y061828D01*
X054037Y061884D02*
X054046Y061903D01*
X054075Y061932D01*
X053875D01*
X053808Y062031D02*
Y062183D01*
X054046Y062342D02*
X054065Y062323D01*
X054075Y062294D01*
Y062256D01*
X054065Y062228D01*
X054046Y062209D01*
X054027D01*
X054008Y062218D01*
X053999Y062228D01*
X053989Y062247D01*
X053970Y062304D01*
X053961Y062323D01*
X053951Y062333D01*
X053932Y062342D01*
X053904D01*
X053884Y062323D01*
X053875Y062294D01*
Y062256D01*
X053884Y062228D01*
X053904Y062209D01*
X054046Y062501D02*
X054065Y062492D01*
X054075Y062463D01*
Y062444D01*
X054065Y062415D01*
X054037Y062396D01*
X053989Y062387D01*
X053942D01*
X053904Y062396D01*
X053884Y062415D01*
X053875Y062444D01*
Y062453D01*
X053884Y062482D01*
X053904Y062501D01*
X053932Y062511D01*
X053942D01*
X053970Y062501D01*
X053989Y062482D01*
X053999Y062453D01*
Y062444D01*
X053989Y062415D01*
X053970Y062396D01*
X053942Y062387D01*
X055527Y061828D02*
X055546Y061818D01*
X055565Y061799D01*
X055575Y061780D01*
Y061742D01*
X055565Y061723D01*
X055546Y061704D01*
X055527Y061695D01*
X055499Y061685D01*
X055451D01*
X055423Y061695D01*
X055404Y061704D01*
X055384Y061723D01*
X055375Y061742D01*
Y061780D01*
X055384Y061799D01*
X055404Y061818D01*
X055423Y061828D01*
X055537Y061884D02*
X055546Y061903D01*
X055575Y061932D01*
X055375D01*
X055308Y062031D02*
Y062183D01*
X055546Y062342D02*
X055565Y062323D01*
X055575Y062294D01*
Y062256D01*
X055565Y062228D01*
X055546Y062209D01*
X055527D01*
X055508Y062218D01*
X055499Y062228D01*
X055489Y062247D01*
X055470Y062304D01*
X055461Y062323D01*
X055451Y062333D01*
X055432Y062342D01*
X055404D01*
X055384Y062323D01*
X055375Y062294D01*
Y062256D01*
X055384Y062228D01*
X055404Y062209D01*
X055575Y062520D02*
X055375Y062425D01*
X055575Y062387D02*
Y062520D01*
X057027Y061828D02*
X057046Y061818D01*
X057065Y061799D01*
X057075Y061780D01*
Y061742D01*
X057065Y061723D01*
X057046Y061704D01*
X057027Y061695D01*
X056999Y061685D01*
X056951D01*
X056923Y061695D01*
X056904Y061704D01*
X056884Y061723D01*
X056875Y061742D01*
Y061780D01*
X056884Y061799D01*
X056904Y061818D01*
X056923Y061828D01*
X057037Y061884D02*
X057046Y061903D01*
X057075Y061932D01*
X056875D01*
X056808Y062031D02*
Y062183D01*
X057046Y062342D02*
X057065Y062323D01*
X057075Y062294D01*
Y062256D01*
X057065Y062228D01*
X057046Y062209D01*
X057027D01*
X057008Y062218D01*
X056999Y062228D01*
X056989Y062247D01*
X056970Y062304D01*
X056961Y062323D01*
X056951Y062333D01*
X056932Y062342D01*
X056904D01*
X056884Y062323D01*
X056875Y062294D01*
Y062256D01*
X056884Y062228D01*
X056904Y062209D01*
X057075Y062434D02*
X057065Y062406D01*
X057046Y062396D01*
X057027D01*
X057008Y062406D01*
X056999Y062425D01*
X056989Y062463D01*
X056980Y062492D01*
X056961Y062511D01*
X056942Y062520D01*
X056913D01*
X056894Y062511D01*
X056884Y062501D01*
X056875Y062472D01*
Y062434D01*
X056884Y062406D01*
X056894Y062396D01*
X056913Y062387D01*
X056942D01*
X056961Y062396D01*
X056980Y062415D01*
X056989Y062444D01*
X056999Y062482D01*
X057008Y062501D01*
X057027Y062511D01*
X057046D01*
X057065Y062501D01*
X057075Y062472D01*
Y062434D01*
X058512Y061843D02*
X058531Y061833D01*
X058550Y061814D01*
X058560Y061795D01*
Y061757D01*
X058550Y061738D01*
X058531Y061719D01*
X058512Y061710D01*
X058484Y061700D01*
X058436D01*
X058408Y061710D01*
X058389Y061719D01*
X058370Y061738D01*
X058360Y061757D01*
Y061795D01*
X058370Y061814D01*
X058389Y061833D01*
X058408Y061843D01*
X058522Y061899D02*
X058531Y061918D01*
X058560Y061947D01*
X058360D01*
X058293Y062046D02*
Y062198D01*
X058531Y062357D02*
X058550Y062338D01*
X058560Y062309D01*
Y062271D01*
X058550Y062243D01*
X058531Y062224D01*
X058512D01*
X058493Y062233D01*
X058484Y062243D01*
X058474Y062262D01*
X058455Y062319D01*
X058446Y062338D01*
X058436Y062347D01*
X058417Y062357D01*
X058389D01*
X058370Y062338D01*
X058360Y062309D01*
Y062271D01*
X058370Y062243D01*
X058389Y062224D01*
X058493Y062526D02*
X058465Y062516D01*
X058446Y062497D01*
X058436Y062468D01*
Y062459D01*
X058446Y062430D01*
X058465Y062411D01*
X058493Y062402D01*
X058503D01*
X058531Y062411D01*
X058550Y062430D01*
X058560Y062459D01*
Y062468D01*
X058550Y062497D01*
X058531Y062516D01*
X058493Y062526D01*
X058446D01*
X058398Y062516D01*
X058370Y062497D01*
X058360Y062468D01*
Y062449D01*
X058370Y062421D01*
X058389Y062411D01*
X060012Y061843D02*
X060031Y061833D01*
X060050Y061814D01*
X060060Y061795D01*
Y061757D01*
X060050Y061738D01*
X060031Y061719D01*
X060012Y061710D01*
X059984Y061700D01*
X059936D01*
X059908Y061710D01*
X059889Y061719D01*
X059870Y061738D01*
X059860Y061757D01*
Y061795D01*
X059870Y061814D01*
X059889Y061833D01*
X059908Y061843D01*
X060022Y061899D02*
X060031Y061918D01*
X060060Y061947D01*
X059860D01*
X059793Y062046D02*
Y062198D01*
X060031Y062357D02*
X060050Y062338D01*
X060060Y062309D01*
Y062271D01*
X060050Y062243D01*
X060031Y062224D01*
X060012D01*
X059993Y062233D01*
X059984Y062243D01*
X059974Y062262D01*
X059955Y062319D01*
X059946Y062338D01*
X059936Y062347D01*
X059917Y062357D01*
X059889D01*
X059870Y062338D01*
X059860Y062309D01*
Y062271D01*
X059870Y062243D01*
X059889Y062224D01*
X060022Y062402D02*
X060031Y062421D01*
X060060Y062449D01*
X059860D01*
X060060Y062606D02*
X060050Y062577D01*
X060022Y062558D01*
X059974Y062548D01*
X059946D01*
X059898Y062558D01*
X059870Y062577D01*
X059860Y062606D01*
Y062625D01*
X059870Y062653D01*
X059898Y062672D01*
X059946Y062682D01*
X059974D01*
X060022Y062672D01*
X060050Y062653D01*
X060060Y062625D01*
Y062606D01*
X061452Y061843D02*
X061471Y061833D01*
X061490Y061814D01*
X061500Y061795D01*
Y061757D01*
X061490Y061738D01*
X061471Y061719D01*
X061452Y061710D01*
X061424Y061700D01*
X061376D01*
X061348Y061710D01*
X061329Y061719D01*
X061310Y061738D01*
X061300Y061757D01*
Y061795D01*
X061310Y061814D01*
X061329Y061833D01*
X061348Y061843D01*
X061462Y061899D02*
X061471Y061918D01*
X061500Y061947D01*
X061300D01*
X061233Y062046D02*
Y062198D01*
X061471Y062357D02*
X061490Y062338D01*
X061500Y062309D01*
Y062271D01*
X061490Y062243D01*
X061471Y062224D01*
X061452D01*
X061433Y062233D01*
X061424Y062243D01*
X061414Y062262D01*
X061395Y062319D01*
X061386Y062338D01*
X061376Y062347D01*
X061357Y062357D01*
X061329D01*
X061310Y062338D01*
X061300Y062309D01*
Y062271D01*
X061310Y062243D01*
X061329Y062224D01*
X061462Y062402D02*
X061471Y062421D01*
X061500Y062449D01*
X061300D01*
X061462Y062548D02*
X061471Y062567D01*
X061500Y062596D01*
X061300D01*
X062932Y061849D02*
X062951Y061840D01*
X062970Y061821D01*
X062980Y061802D01*
Y061763D01*
X062970Y061744D01*
X062951Y061725D01*
X062932Y061716D01*
X062904Y061706D01*
X062856D01*
X062828Y061716D01*
X062809Y061725D01*
X062790Y061744D01*
X062780Y061763D01*
Y061802D01*
X062790Y061821D01*
X062809Y061840D01*
X062828Y061849D01*
X062942Y061905D02*
X062951Y061924D01*
X062980Y061953D01*
X062780D01*
X062713Y062052D02*
Y062204D01*
X062951Y062363D02*
X062970Y062344D01*
X062980Y062316D01*
Y062278D01*
X062970Y062249D01*
X062951Y062230D01*
X062932D01*
X062913Y062240D01*
X062904Y062249D01*
X062894Y062268D01*
X062875Y062325D01*
X062866Y062344D01*
X062856Y062354D01*
X062837Y062363D01*
X062809D01*
X062790Y062344D01*
X062780Y062316D01*
Y062278D01*
X062790Y062249D01*
X062809Y062230D01*
X062942Y062408D02*
X062951Y062427D01*
X062980Y062456D01*
X062780D01*
X062932Y062564D02*
X062942D01*
X062961Y062574D01*
X062970Y062583D01*
X062980Y062602D01*
Y062640D01*
X062970Y062659D01*
X062961Y062669D01*
X062942Y062678D01*
X062923D01*
X062904Y062669D01*
X062875Y062650D01*
X062780Y062555D01*
Y062688D01*
X047017Y066800D02*
Y066600D01*
Y066800D02*
X046931D01*
X046902Y066790D01*
X046893Y066781D01*
X046883Y066762D01*
Y066743D01*
X046893Y066724D01*
X046902Y066714D01*
X046931Y066705D01*
X047017D01*
X046950D02*
X046883Y066600D01*
X046839Y066762D02*
X046820Y066771D01*
X046791Y066800D01*
Y066600D01*
X046673Y066800D02*
X046568D01*
X046625Y066724D01*
X046597D01*
X046578Y066714D01*
X046568Y066705D01*
X046559Y066676D01*
Y066657D01*
X046568Y066629D01*
X046587Y066610D01*
X046616Y066600D01*
X046644D01*
X046673Y066610D01*
X046683Y066619D01*
X046692Y066638D01*
X046514Y066533D02*
X046362D01*
X046203Y066771D02*
X046222Y066790D01*
X046250Y066800D01*
X046288D01*
X046317Y066790D01*
X046336Y066771D01*
Y066752D01*
X046326Y066733D01*
X046317Y066724D01*
X046298Y066714D01*
X046241Y066695D01*
X046222Y066686D01*
X046212Y066676D01*
X046203Y066657D01*
Y066629D01*
X046222Y066610D01*
X046250Y066600D01*
X046288D01*
X046317Y066610D01*
X046336Y066629D01*
X046158Y066762D02*
X046139Y066771D01*
X046110Y066800D01*
Y066600D01*
X048599Y066785D02*
Y066585D01*
Y066785D02*
X048513D01*
X048485Y066775D01*
X048475Y066766D01*
X048465Y066747D01*
Y066728D01*
X048475Y066709D01*
X048485Y066699D01*
X048513Y066690D01*
X048599D01*
X048532D02*
X048465Y066585D01*
X048421Y066747D02*
X048402Y066756D01*
X048373Y066785D01*
Y066585D01*
X048255Y066785D02*
X048150D01*
X048207Y066709D01*
X048179D01*
X048160Y066699D01*
X048150Y066690D01*
X048141Y066661D01*
Y066642D01*
X048150Y066614D01*
X048169Y066595D01*
X048198Y066585D01*
X048226D01*
X048255Y066595D01*
X048265Y066604D01*
X048274Y066623D01*
X048096Y066518D02*
X047944D01*
X047785Y066756D02*
X047804Y066775D01*
X047832Y066785D01*
X047870D01*
X047899Y066775D01*
X047918Y066756D01*
Y066737D01*
X047908Y066718D01*
X047899Y066709D01*
X047880Y066699D01*
X047823Y066680D01*
X047804Y066671D01*
X047794Y066661D01*
X047785Y066642D01*
Y066614D01*
X047804Y066595D01*
X047832Y066585D01*
X047870D01*
X047899Y066595D01*
X047918Y066614D01*
X047730Y066737D02*
Y066747D01*
X047721Y066766D01*
X047711Y066775D01*
X047692Y066785D01*
X047654D01*
X047635Y066775D01*
X047626Y066766D01*
X047616Y066747D01*
Y066728D01*
X047626Y066709D01*
X047645Y066680D01*
X047740Y066585D01*
X047607D01*
X050099Y066785D02*
Y066585D01*
Y066785D02*
X050013D01*
X049985Y066775D01*
X049975Y066766D01*
X049965Y066747D01*
Y066728D01*
X049975Y066709D01*
X049985Y066699D01*
X050013Y066690D01*
X050099D01*
X050032D02*
X049965Y066585D01*
X049921Y066747D02*
X049902Y066756D01*
X049873Y066785D01*
Y066585D01*
X049755Y066785D02*
X049650D01*
X049707Y066709D01*
X049679D01*
X049660Y066699D01*
X049650Y066690D01*
X049641Y066661D01*
Y066642D01*
X049650Y066614D01*
X049669Y066595D01*
X049698Y066585D01*
X049726D01*
X049755Y066595D01*
X049765Y066604D01*
X049774Y066623D01*
X049596Y066518D02*
X049444D01*
X049285Y066756D02*
X049304Y066775D01*
X049332Y066785D01*
X049370D01*
X049399Y066775D01*
X049418Y066756D01*
Y066737D01*
X049408Y066718D01*
X049399Y066709D01*
X049380Y066699D01*
X049323Y066680D01*
X049304Y066671D01*
X049294Y066661D01*
X049285Y066642D01*
Y066614D01*
X049304Y066595D01*
X049332Y066585D01*
X049370D01*
X049399Y066595D01*
X049418Y066614D01*
X049221Y066785D02*
X049116D01*
X049173Y066709D01*
X049145D01*
X049126Y066699D01*
X049116Y066690D01*
X049107Y066661D01*
Y066642D01*
X049116Y066614D01*
X049135Y066595D01*
X049164Y066585D01*
X049192D01*
X049221Y066595D01*
X049230Y066604D01*
X049240Y066623D01*
X051611Y066785D02*
Y066585D01*
Y066785D02*
X051525D01*
X051496Y066775D01*
X051487Y066766D01*
X051477Y066747D01*
Y066728D01*
X051487Y066709D01*
X051496Y066699D01*
X051525Y066690D01*
X051611D01*
X051544D02*
X051477Y066585D01*
X051433Y066747D02*
X051414Y066756D01*
X051385Y066785D01*
Y066585D01*
X051267Y066785D02*
X051162D01*
X051219Y066709D01*
X051191D01*
X051172Y066699D01*
X051162Y066690D01*
X051153Y066661D01*
Y066642D01*
X051162Y066614D01*
X051181Y066595D01*
X051210Y066585D01*
X051238D01*
X051267Y066595D01*
X051276Y066604D01*
X051286Y066623D01*
X051108Y066518D02*
X050956D01*
X050797Y066756D02*
X050816Y066775D01*
X050844Y066785D01*
X050882D01*
X050911Y066775D01*
X050930Y066756D01*
Y066737D01*
X050920Y066718D01*
X050911Y066709D01*
X050892Y066699D01*
X050835Y066680D01*
X050816Y066671D01*
X050806Y066661D01*
X050797Y066642D01*
Y066614D01*
X050816Y066595D01*
X050844Y066585D01*
X050882D01*
X050911Y066595D01*
X050930Y066614D01*
X050657Y066785D02*
X050752Y066652D01*
X050609D01*
X050657Y066785D02*
Y066585D01*
X053099Y066785D02*
Y066585D01*
Y066785D02*
X053013D01*
X052985Y066775D01*
X052975Y066766D01*
X052965Y066747D01*
Y066728D01*
X052975Y066709D01*
X052985Y066699D01*
X053013Y066690D01*
X053099D01*
X053032D02*
X052965Y066585D01*
X052921Y066747D02*
X052902Y066756D01*
X052873Y066785D01*
Y066585D01*
X052755Y066785D02*
X052650D01*
X052707Y066709D01*
X052679D01*
X052660Y066699D01*
X052650Y066690D01*
X052641Y066661D01*
Y066642D01*
X052650Y066614D01*
X052669Y066595D01*
X052698Y066585D01*
X052726D01*
X052755Y066595D01*
X052765Y066604D01*
X052774Y066623D01*
X052596Y066518D02*
X052444D01*
X052285Y066756D02*
X052304Y066775D01*
X052332Y066785D01*
X052370D01*
X052399Y066775D01*
X052418Y066756D01*
Y066737D01*
X052408Y066718D01*
X052399Y066709D01*
X052380Y066699D01*
X052323Y066680D01*
X052304Y066671D01*
X052294Y066661D01*
X052285Y066642D01*
Y066614D01*
X052304Y066595D01*
X052332Y066585D01*
X052370D01*
X052399Y066595D01*
X052418Y066614D01*
X052126Y066785D02*
X052221D01*
X052230Y066699D01*
X052221Y066709D01*
X052192Y066718D01*
X052164D01*
X052135Y066709D01*
X052116Y066690D01*
X052107Y066661D01*
Y066642D01*
X052116Y066614D01*
X052135Y066595D01*
X052164Y066585D01*
X052192D01*
X052221Y066595D01*
X052230Y066604D01*
X052240Y066623D01*
X054587Y066785D02*
Y066585D01*
Y066785D02*
X054501D01*
X054473Y066775D01*
X054463Y066766D01*
X054454Y066747D01*
Y066728D01*
X054463Y066709D01*
X054473Y066699D01*
X054501Y066690D01*
X054587D01*
X054520D02*
X054454Y066585D01*
X054409Y066747D02*
X054390Y066756D01*
X054361Y066785D01*
Y066585D01*
X054243Y066785D02*
X054138D01*
X054196Y066709D01*
X054167D01*
X054148Y066699D01*
X054138Y066690D01*
X054129Y066661D01*
Y066642D01*
X054138Y066614D01*
X054157Y066595D01*
X054186Y066585D01*
X054215D01*
X054243Y066595D01*
X054253Y066604D01*
X054262Y066623D01*
X054084Y066518D02*
X053932D01*
X053773Y066756D02*
X053792Y066775D01*
X053820Y066785D01*
X053858D01*
X053887Y066775D01*
X053906Y066756D01*
Y066737D01*
X053897Y066718D01*
X053887Y066709D01*
X053868Y066699D01*
X053811Y066680D01*
X053792Y066671D01*
X053782Y066661D01*
X053773Y066642D01*
Y066614D01*
X053792Y066595D01*
X053820Y066585D01*
X053858D01*
X053887Y066595D01*
X053906Y066614D01*
X053614Y066756D02*
X053623Y066775D01*
X053652Y066785D01*
X053671D01*
X053699Y066775D01*
X053719Y066747D01*
X053728Y066699D01*
Y066652D01*
X053719Y066614D01*
X053699Y066595D01*
X053671Y066585D01*
X053661D01*
X053633Y066595D01*
X053614Y066614D01*
X053604Y066642D01*
Y066652D01*
X053614Y066680D01*
X053633Y066699D01*
X053661Y066709D01*
X053671D01*
X053699Y066699D01*
X053719Y066680D01*
X053728Y066652D01*
X056099Y066785D02*
Y066585D01*
Y066785D02*
X056013D01*
X055985Y066775D01*
X055975Y066766D01*
X055965Y066747D01*
Y066728D01*
X055975Y066709D01*
X055985Y066699D01*
X056013Y066690D01*
X056099D01*
X056032D02*
X055965Y066585D01*
X055921Y066747D02*
X055902Y066756D01*
X055873Y066785D01*
Y066585D01*
X055755Y066785D02*
X055650D01*
X055707Y066709D01*
X055679D01*
X055660Y066699D01*
X055650Y066690D01*
X055641Y066661D01*
Y066642D01*
X055650Y066614D01*
X055669Y066595D01*
X055698Y066585D01*
X055726D01*
X055755Y066595D01*
X055765Y066604D01*
X055774Y066623D01*
X055596Y066518D02*
X055444D01*
X055285Y066756D02*
X055304Y066775D01*
X055332Y066785D01*
X055370D01*
X055399Y066775D01*
X055418Y066756D01*
Y066737D01*
X055408Y066718D01*
X055399Y066709D01*
X055380Y066699D01*
X055323Y066680D01*
X055304Y066671D01*
X055294Y066661D01*
X055285Y066642D01*
Y066614D01*
X055304Y066595D01*
X055332Y066585D01*
X055370D01*
X055399Y066595D01*
X055418Y066614D01*
X055107Y066785D02*
X055202Y066585D01*
X055240Y066785D02*
X055107D01*
X057599D02*
Y066585D01*
Y066785D02*
X057513D01*
X057485Y066775D01*
X057475Y066766D01*
X057465Y066747D01*
Y066728D01*
X057475Y066709D01*
X057485Y066699D01*
X057513Y066690D01*
X057599D01*
X057532D02*
X057465Y066585D01*
X057421Y066747D02*
X057402Y066756D01*
X057373Y066785D01*
Y066585D01*
X057255Y066785D02*
X057150D01*
X057207Y066709D01*
X057179D01*
X057160Y066699D01*
X057150Y066690D01*
X057141Y066661D01*
Y066642D01*
X057150Y066614D01*
X057169Y066595D01*
X057198Y066585D01*
X057226D01*
X057255Y066595D01*
X057265Y066604D01*
X057274Y066623D01*
X057096Y066518D02*
X056944D01*
X056785Y066756D02*
X056804Y066775D01*
X056832Y066785D01*
X056870D01*
X056899Y066775D01*
X056918Y066756D01*
Y066737D01*
X056908Y066718D01*
X056899Y066709D01*
X056880Y066699D01*
X056823Y066680D01*
X056804Y066671D01*
X056794Y066661D01*
X056785Y066642D01*
Y066614D01*
X056804Y066595D01*
X056832Y066585D01*
X056870D01*
X056899Y066595D01*
X056918Y066614D01*
X056692Y066785D02*
X056721Y066775D01*
X056730Y066756D01*
Y066737D01*
X056721Y066718D01*
X056702Y066709D01*
X056664Y066699D01*
X056635Y066690D01*
X056616Y066671D01*
X056607Y066652D01*
Y066623D01*
X056616Y066604D01*
X056626Y066595D01*
X056654Y066585D01*
X056692D01*
X056721Y066595D01*
X056730Y066604D01*
X056740Y066623D01*
Y066652D01*
X056730Y066671D01*
X056711Y066690D01*
X056683Y066699D01*
X056645Y066709D01*
X056626Y066718D01*
X056616Y066737D01*
Y066756D01*
X056626Y066775D01*
X056654Y066785D01*
X056692D01*
X059072Y066800D02*
Y066600D01*
Y066800D02*
X058986D01*
X058958Y066790D01*
X058948Y066781D01*
X058939Y066762D01*
Y066743D01*
X058948Y066724D01*
X058958Y066714D01*
X058986Y066705D01*
X059072D01*
X059005D02*
X058939Y066600D01*
X058894Y066762D02*
X058875Y066771D01*
X058846Y066800D01*
Y066600D01*
X058728Y066800D02*
X058623D01*
X058681Y066724D01*
X058652D01*
X058633Y066714D01*
X058623Y066705D01*
X058614Y066676D01*
Y066657D01*
X058623Y066629D01*
X058642Y066610D01*
X058671Y066600D01*
X058700D01*
X058728Y066610D01*
X058738Y066619D01*
X058747Y066638D01*
X058569Y066533D02*
X058417D01*
X058258Y066771D02*
X058277Y066790D01*
X058305Y066800D01*
X058344D01*
X058372Y066790D01*
X058391Y066771D01*
Y066752D01*
X058382Y066733D01*
X058372Y066724D01*
X058353Y066714D01*
X058296Y066695D01*
X058277Y066686D01*
X058267Y066676D01*
X058258Y066657D01*
Y066629D01*
X058277Y066610D01*
X058305Y066600D01*
X058344D01*
X058372Y066610D01*
X058391Y066629D01*
X058089Y066733D02*
X058099Y066705D01*
X058118Y066686D01*
X058146Y066676D01*
X058156D01*
X058184Y066686D01*
X058204Y066705D01*
X058213Y066733D01*
Y066743D01*
X058204Y066771D01*
X058184Y066790D01*
X058156Y066800D01*
X058146D01*
X058118Y066790D01*
X058099Y066771D01*
X058089Y066733D01*
Y066686D01*
X058099Y066638D01*
X058118Y066610D01*
X058146Y066600D01*
X058165D01*
X058194Y066610D01*
X058204Y066629D01*
X060767Y066800D02*
Y066600D01*
Y066800D02*
X060681D01*
X060653Y066790D01*
X060643Y066781D01*
X060634Y066762D01*
Y066743D01*
X060643Y066724D01*
X060653Y066714D01*
X060681Y066705D01*
X060767D01*
X060700D02*
X060634Y066600D01*
X060589Y066762D02*
X060570Y066771D01*
X060541Y066800D01*
Y066600D01*
X060423Y066800D02*
X060319D01*
X060376Y066724D01*
X060347D01*
X060328Y066714D01*
X060319Y066705D01*
X060309Y066676D01*
Y066657D01*
X060319Y066629D01*
X060338Y066610D01*
X060366Y066600D01*
X060395D01*
X060423Y066610D01*
X060433Y066619D01*
X060442Y066638D01*
X060264Y066533D02*
X060112D01*
X059953Y066771D02*
X059972Y066790D01*
X060001Y066800D01*
X060039D01*
X060067Y066790D01*
X060086Y066771D01*
Y066752D01*
X060077Y066733D01*
X060067Y066724D01*
X060048Y066714D01*
X059991Y066695D01*
X059972Y066686D01*
X059963Y066676D01*
X059953Y066657D01*
Y066629D01*
X059972Y066610D01*
X060001Y066600D01*
X060039D01*
X060067Y066610D01*
X060086Y066629D01*
X059908Y066762D02*
X059889Y066771D01*
X059861Y066800D01*
Y066600D01*
X059704Y066800D02*
X059733Y066790D01*
X059752Y066762D01*
X059762Y066714D01*
Y066686D01*
X059752Y066638D01*
X059733Y066610D01*
X059704Y066600D01*
X059685D01*
X059657Y066610D01*
X059638Y066638D01*
X059628Y066686D01*
Y066714D01*
X059638Y066762D01*
X059657Y066790D01*
X059685Y066800D01*
X059704D01*
X063687Y066806D02*
Y066606D01*
Y066806D02*
X063601D01*
X063573Y066797D01*
X063563Y066787D01*
X063554Y066768D01*
Y066749D01*
X063563Y066730D01*
X063573Y066721D01*
X063601Y066711D01*
X063687D01*
X063620D02*
X063554Y066606D01*
X063509Y066768D02*
X063490Y066778D01*
X063461Y066806D01*
Y066606D01*
X063343Y066806D02*
X063239D01*
X063296Y066730D01*
X063267D01*
X063248Y066721D01*
X063239Y066711D01*
X063229Y066682D01*
Y066663D01*
X063239Y066635D01*
X063258Y066616D01*
X063286Y066606D01*
X063315D01*
X063343Y066616D01*
X063353Y066625D01*
X063362Y066644D01*
X063184Y066540D02*
X063032D01*
X062873Y066778D02*
X062892Y066797D01*
X062921Y066806D01*
X062959D01*
X062987Y066797D01*
X063006Y066778D01*
Y066759D01*
X062997Y066740D01*
X062987Y066730D01*
X062968Y066721D01*
X062911Y066702D01*
X062892Y066692D01*
X062883Y066682D01*
X062873Y066663D01*
Y066635D01*
X062892Y066616D01*
X062921Y066606D01*
X062959D01*
X062987Y066616D01*
X063006Y066635D01*
X062828Y066768D02*
X062809Y066778D01*
X062781Y066806D01*
Y066606D01*
X062672Y066759D02*
Y066768D01*
X062663Y066787D01*
X062653Y066797D01*
X062634Y066806D01*
X062596D01*
X062577Y066797D01*
X062567Y066787D01*
X062558Y066768D01*
Y066749D01*
X062567Y066730D01*
X062586Y066702D01*
X062682Y066606D01*
X062548D01*
X046900Y063100D02*
Y062900D01*
Y063100D02*
X046814D01*
X046786Y063090D01*
X046776Y063081D01*
X046767Y063062D01*
Y063043D01*
X046776Y063024D01*
X046786Y063014D01*
X046814Y063005D01*
X046900D01*
X046833D02*
X046767Y062900D01*
X046722Y063062D02*
X046703Y063071D01*
X046674Y063100D01*
Y062900D01*
X046480Y063100D02*
X046575Y062967D01*
X046432D01*
X046480Y063100D02*
Y062900D01*
X046397Y062833D02*
X046245D01*
X046086Y063071D02*
X046105Y063090D01*
X046133Y063100D01*
X046172D01*
X046200Y063090D01*
X046219Y063071D01*
Y063052D01*
X046210Y063033D01*
X046200Y063024D01*
X046181Y063014D01*
X046124Y062995D01*
X046105Y062986D01*
X046095Y062976D01*
X046086Y062957D01*
Y062929D01*
X046105Y062910D01*
X046133Y062900D01*
X046172D01*
X046200Y062910D01*
X046219Y062929D01*
X046041Y063062D02*
X046022Y063071D01*
X045994Y063100D01*
Y062900D01*
X048400Y063100D02*
Y062900D01*
Y063100D02*
X048314D01*
X048286Y063090D01*
X048276Y063081D01*
X048267Y063062D01*
Y063043D01*
X048276Y063024D01*
X048286Y063014D01*
X048314Y063005D01*
X048400D01*
X048333D02*
X048267Y062900D01*
X048222Y063062D02*
X048203Y063071D01*
X048174Y063100D01*
Y062900D01*
X047980Y063100D02*
X048075Y062967D01*
X047932D01*
X047980Y063100D02*
Y062900D01*
X047897Y062833D02*
X047745D01*
X047586Y063071D02*
X047605Y063090D01*
X047634Y063100D01*
X047672D01*
X047700Y063090D01*
X047719Y063071D01*
Y063052D01*
X047710Y063033D01*
X047700Y063024D01*
X047681Y063014D01*
X047624Y062995D01*
X047605Y062986D01*
X047595Y062976D01*
X047586Y062957D01*
Y062929D01*
X047605Y062910D01*
X047634Y062900D01*
X047672D01*
X047700Y062910D01*
X047719Y062929D01*
X047532Y063052D02*
Y063062D01*
X047522Y063081D01*
X047513Y063090D01*
X047494Y063100D01*
X047455D01*
X047436Y063090D01*
X047427Y063081D01*
X047417Y063062D01*
Y063043D01*
X047427Y063024D01*
X047446Y062995D01*
X047541Y062900D01*
X047408D01*
X049900Y063100D02*
Y062900D01*
Y063100D02*
X049814D01*
X049786Y063090D01*
X049776Y063081D01*
X049767Y063062D01*
Y063043D01*
X049776Y063024D01*
X049786Y063014D01*
X049814Y063005D01*
X049900D01*
X049833D02*
X049767Y062900D01*
X049722Y063062D02*
X049703Y063071D01*
X049674Y063100D01*
Y062900D01*
X049480Y063100D02*
X049575Y062967D01*
X049432D01*
X049480Y063100D02*
Y062900D01*
X049397Y062833D02*
X049245D01*
X049086Y063071D02*
X049105Y063090D01*
X049134Y063100D01*
X049172D01*
X049200Y063090D01*
X049219Y063071D01*
Y063052D01*
X049210Y063033D01*
X049200Y063024D01*
X049181Y063014D01*
X049124Y062995D01*
X049105Y062986D01*
X049095Y062976D01*
X049086Y062957D01*
Y062929D01*
X049105Y062910D01*
X049134Y062900D01*
X049172D01*
X049200Y062910D01*
X049219Y062929D01*
X049022Y063100D02*
X048917D01*
X048974Y063024D01*
X048946D01*
X048927Y063014D01*
X048917Y063005D01*
X048908Y062976D01*
Y062957D01*
X048917Y062929D01*
X048936Y062910D01*
X048965Y062900D01*
X048994D01*
X049022Y062910D01*
X049032Y062919D01*
X049041Y062938D01*
X051400Y063100D02*
Y062900D01*
Y063100D02*
X051314D01*
X051286Y063090D01*
X051276Y063081D01*
X051267Y063062D01*
Y063043D01*
X051276Y063024D01*
X051286Y063014D01*
X051314Y063005D01*
X051400D01*
X051333D02*
X051267Y062900D01*
X051222Y063062D02*
X051203Y063071D01*
X051174Y063100D01*
Y062900D01*
X050980Y063100D02*
X051075Y062967D01*
X050932D01*
X050980Y063100D02*
Y062900D01*
X050897Y062833D02*
X050745D01*
X050586Y063071D02*
X050605Y063090D01*
X050634Y063100D01*
X050672D01*
X050700Y063090D01*
X050719Y063071D01*
Y063052D01*
X050710Y063033D01*
X050700Y063024D01*
X050681Y063014D01*
X050624Y062995D01*
X050605Y062986D01*
X050595Y062976D01*
X050586Y062957D01*
Y062929D01*
X050605Y062910D01*
X050634Y062900D01*
X050672D01*
X050700Y062910D01*
X050719Y062929D01*
X050446Y063100D02*
X050541Y062967D01*
X050398D01*
X050446Y063100D02*
Y062900D01*
X052900Y063100D02*
Y062900D01*
Y063100D02*
X052814D01*
X052786Y063090D01*
X052776Y063081D01*
X052767Y063062D01*
Y063043D01*
X052776Y063024D01*
X052786Y063014D01*
X052814Y063005D01*
X052900D01*
X052833D02*
X052767Y062900D01*
X052722Y063062D02*
X052703Y063071D01*
X052674Y063100D01*
Y062900D01*
X052480Y063100D02*
X052575Y062967D01*
X052432D01*
X052480Y063100D02*
Y062900D01*
X052397Y062833D02*
X052245D01*
X052086Y063071D02*
X052105Y063090D01*
X052133Y063100D01*
X052172D01*
X052200Y063090D01*
X052219Y063071D01*
Y063052D01*
X052210Y063033D01*
X052200Y063024D01*
X052181Y063014D01*
X052124Y062995D01*
X052105Y062986D01*
X052095Y062976D01*
X052086Y062957D01*
Y062929D01*
X052105Y062910D01*
X052133Y062900D01*
X052172D01*
X052200Y062910D01*
X052219Y062929D01*
X051927Y063100D02*
X052022D01*
X052032Y063014D01*
X052022Y063024D01*
X051994Y063033D01*
X051965D01*
X051936Y063024D01*
X051917Y063005D01*
X051908Y062976D01*
Y062957D01*
X051917Y062929D01*
X051936Y062910D01*
X051965Y062900D01*
X051994D01*
X052022Y062910D01*
X052032Y062919D01*
X052041Y062938D01*
X054300Y063100D02*
Y062900D01*
Y063100D02*
X054214D01*
X054186Y063090D01*
X054176Y063081D01*
X054167Y063062D01*
Y063043D01*
X054176Y063024D01*
X054186Y063014D01*
X054214Y063005D01*
X054300D01*
X054233D02*
X054167Y062900D01*
X054122Y063062D02*
X054103Y063071D01*
X054074Y063100D01*
Y062900D01*
X053880Y063100D02*
X053975Y062967D01*
X053832D01*
X053880Y063100D02*
Y062900D01*
X053797Y062833D02*
X053645D01*
X053486Y063071D02*
X053505Y063090D01*
X053534Y063100D01*
X053572D01*
X053600Y063090D01*
X053619Y063071D01*
Y063052D01*
X053610Y063033D01*
X053600Y063024D01*
X053581Y063014D01*
X053524Y062995D01*
X053505Y062986D01*
X053495Y062976D01*
X053486Y062957D01*
Y062929D01*
X053505Y062910D01*
X053534Y062900D01*
X053572D01*
X053600Y062910D01*
X053619Y062929D01*
X053327Y063071D02*
X053336Y063090D01*
X053365Y063100D01*
X053384D01*
X053413Y063090D01*
X053432Y063062D01*
X053441Y063014D01*
Y062967D01*
X053432Y062929D01*
X053413Y062910D01*
X053384Y062900D01*
X053374D01*
X053346Y062910D01*
X053327Y062929D01*
X053317Y062957D01*
Y062967D01*
X053327Y062995D01*
X053346Y063014D01*
X053374Y063024D01*
X053384D01*
X053413Y063014D01*
X053432Y062995D01*
X053441Y062967D01*
X055900Y063100D02*
Y062900D01*
Y063100D02*
X055814D01*
X055786Y063090D01*
X055776Y063081D01*
X055767Y063062D01*
Y063043D01*
X055776Y063024D01*
X055786Y063014D01*
X055814Y063005D01*
X055900D01*
X055833D02*
X055767Y062900D01*
X055722Y063062D02*
X055703Y063071D01*
X055674Y063100D01*
Y062900D01*
X055480Y063100D02*
X055575Y062967D01*
X055432D01*
X055480Y063100D02*
Y062900D01*
X055397Y062833D02*
X055245D01*
X055086Y063071D02*
X055105Y063090D01*
X055134Y063100D01*
X055172D01*
X055200Y063090D01*
X055219Y063071D01*
Y063052D01*
X055210Y063033D01*
X055200Y063024D01*
X055181Y063014D01*
X055124Y062995D01*
X055105Y062986D01*
X055095Y062976D01*
X055086Y062957D01*
Y062929D01*
X055105Y062910D01*
X055134Y062900D01*
X055172D01*
X055200Y062910D01*
X055219Y062929D01*
X054908Y063100D02*
X055003Y062900D01*
X055041Y063100D02*
X054908D01*
X057400D02*
Y062900D01*
Y063100D02*
X057314D01*
X057286Y063090D01*
X057276Y063081D01*
X057267Y063062D01*
Y063043D01*
X057276Y063024D01*
X057286Y063014D01*
X057314Y063005D01*
X057400D01*
X057333D02*
X057267Y062900D01*
X057222Y063062D02*
X057203Y063071D01*
X057174Y063100D01*
Y062900D01*
X056980Y063100D02*
X057075Y062967D01*
X056932D01*
X056980Y063100D02*
Y062900D01*
X056897Y062833D02*
X056745D01*
X056586Y063071D02*
X056605Y063090D01*
X056634Y063100D01*
X056672D01*
X056700Y063090D01*
X056719Y063071D01*
Y063052D01*
X056710Y063033D01*
X056700Y063024D01*
X056681Y063014D01*
X056624Y062995D01*
X056605Y062986D01*
X056595Y062976D01*
X056586Y062957D01*
Y062929D01*
X056605Y062910D01*
X056634Y062900D01*
X056672D01*
X056700Y062910D01*
X056719Y062929D01*
X056494Y063100D02*
X056522Y063090D01*
X056532Y063071D01*
Y063052D01*
X056522Y063033D01*
X056503Y063024D01*
X056465Y063014D01*
X056436Y063005D01*
X056417Y062986D01*
X056408Y062967D01*
Y062938D01*
X056417Y062919D01*
X056427Y062910D01*
X056455Y062900D01*
X056494D01*
X056522Y062910D01*
X056532Y062919D01*
X056541Y062938D01*
Y062967D01*
X056532Y062986D01*
X056513Y063005D01*
X056484Y063014D01*
X056446Y063024D01*
X056427Y063033D01*
X056417Y063052D01*
Y063071D01*
X056427Y063090D01*
X056455Y063100D01*
X056494D01*
X058900D02*
Y062900D01*
Y063100D02*
X058814D01*
X058786Y063090D01*
X058776Y063081D01*
X058767Y063062D01*
Y063043D01*
X058776Y063024D01*
X058786Y063014D01*
X058814Y063005D01*
X058900D01*
X058833D02*
X058767Y062900D01*
X058722Y063062D02*
X058703Y063071D01*
X058674Y063100D01*
Y062900D01*
X058480Y063100D02*
X058575Y062967D01*
X058432D01*
X058480Y063100D02*
Y062900D01*
X058397Y062833D02*
X058245D01*
X058086Y063071D02*
X058105Y063090D01*
X058134Y063100D01*
X058172D01*
X058200Y063090D01*
X058219Y063071D01*
Y063052D01*
X058210Y063033D01*
X058200Y063024D01*
X058181Y063014D01*
X058124Y062995D01*
X058105Y062986D01*
X058095Y062976D01*
X058086Y062957D01*
Y062929D01*
X058105Y062910D01*
X058134Y062900D01*
X058172D01*
X058200Y062910D01*
X058219Y062929D01*
X057917Y063033D02*
X057927Y063005D01*
X057946Y062986D01*
X057974Y062976D01*
X057984D01*
X058013Y062986D01*
X058032Y063005D01*
X058041Y063033D01*
Y063043D01*
X058032Y063071D01*
X058013Y063090D01*
X057984Y063100D01*
X057974D01*
X057946Y063090D01*
X057927Y063071D01*
X057917Y063033D01*
Y062986D01*
X057927Y062938D01*
X057946Y062910D01*
X057974Y062900D01*
X057994D01*
X058022Y062910D01*
X058032Y062929D01*
X060400Y063100D02*
Y062900D01*
Y063100D02*
X060314D01*
X060286Y063090D01*
X060276Y063081D01*
X060267Y063062D01*
Y063043D01*
X060276Y063024D01*
X060286Y063014D01*
X060314Y063005D01*
X060400D01*
X060333D02*
X060267Y062900D01*
X060222Y063062D02*
X060203Y063071D01*
X060174Y063100D01*
Y062900D01*
X059980Y063100D02*
X060075Y062967D01*
X059932D01*
X059980Y063100D02*
Y062900D01*
X059897Y062833D02*
X059745D01*
X059586Y063071D02*
X059605Y063090D01*
X059633Y063100D01*
X059672D01*
X059700Y063090D01*
X059719Y063071D01*
Y063052D01*
X059710Y063033D01*
X059700Y063024D01*
X059681Y063014D01*
X059624Y062995D01*
X059605Y062986D01*
X059595Y062976D01*
X059586Y062957D01*
Y062929D01*
X059605Y062910D01*
X059633Y062900D01*
X059672D01*
X059700Y062910D01*
X059719Y062929D01*
X059541Y063062D02*
X059522Y063071D01*
X059494Y063100D01*
Y062900D01*
X059337Y063100D02*
X059366Y063090D01*
X059385Y063062D01*
X059394Y063014D01*
Y062986D01*
X059385Y062938D01*
X059366Y062910D01*
X059337Y062900D01*
X059318D01*
X059290Y062910D01*
X059271Y062938D01*
X059261Y062986D01*
Y063014D01*
X059271Y063062D01*
X059290Y063090D01*
X059318Y063100D01*
X059337D01*
X061900D02*
Y062900D01*
Y063100D02*
X061814D01*
X061786Y063090D01*
X061776Y063081D01*
X061767Y063062D01*
Y063043D01*
X061776Y063024D01*
X061786Y063014D01*
X061814Y063005D01*
X061900D01*
X061833D02*
X061767Y062900D01*
X061722Y063062D02*
X061703Y063071D01*
X061674Y063100D01*
Y062900D01*
X061480Y063100D02*
X061575Y062967D01*
X061432D01*
X061480Y063100D02*
Y062900D01*
X061397Y062833D02*
X061245D01*
X061086Y063071D02*
X061105Y063090D01*
X061133Y063100D01*
X061172D01*
X061200Y063090D01*
X061219Y063071D01*
Y063052D01*
X061210Y063033D01*
X061200Y063024D01*
X061181Y063014D01*
X061124Y062995D01*
X061105Y062986D01*
X061095Y062976D01*
X061086Y062957D01*
Y062929D01*
X061105Y062910D01*
X061133Y062900D01*
X061172D01*
X061200Y062910D01*
X061219Y062929D01*
X061041Y063062D02*
X061022Y063071D01*
X060994Y063100D01*
Y062900D01*
X060894Y063062D02*
X060875Y063071D01*
X060847Y063100D01*
Y062900D01*
X063300Y063100D02*
Y062900D01*
Y063100D02*
X063214D01*
X063186Y063090D01*
X063176Y063081D01*
X063167Y063062D01*
Y063043D01*
X063176Y063024D01*
X063186Y063014D01*
X063214Y063005D01*
X063300D01*
X063233D02*
X063167Y062900D01*
X063122Y063062D02*
X063103Y063071D01*
X063074Y063100D01*
Y062900D01*
X062880Y063100D02*
X062975Y062967D01*
X062832D01*
X062880Y063100D02*
Y062900D01*
X062797Y062833D02*
X062645D01*
X062486Y063071D02*
X062505Y063090D01*
X062533Y063100D01*
X062572D01*
X062600Y063090D01*
X062619Y063071D01*
Y063052D01*
X062610Y063033D01*
X062600Y063024D01*
X062581Y063014D01*
X062524Y062995D01*
X062505Y062986D01*
X062495Y062976D01*
X062486Y062957D01*
Y062929D01*
X062505Y062910D01*
X062533Y062900D01*
X062572D01*
X062600Y062910D01*
X062619Y062929D01*
X062441Y063062D02*
X062422Y063071D01*
X062394Y063100D01*
Y062900D01*
X062285Y063052D02*
Y063062D01*
X062275Y063081D01*
X062266Y063090D01*
X062247Y063100D01*
X062209D01*
X062190Y063090D01*
X062180Y063081D01*
X062171Y063062D01*
Y063043D01*
X062180Y063024D01*
X062199Y062995D01*
X062295Y062900D01*
X062161D01*
X052267Y044267D02*
X052300Y044300D01*
X052367D01*
X052400Y044267D01*
Y044133D01*
X052367Y044100D01*
X052300D01*
X052267Y044133D01*
X052200Y044300D02*
X052067D01*
Y044267D01*
X052200Y044133D01*
Y044100D01*
X050967Y044267D02*
X051000Y044300D01*
X051067D01*
X051100Y044267D01*
Y044133D01*
X051067Y044100D01*
X051000D01*
X050967Y044133D01*
X050767Y044300D02*
X050833Y044267D01*
X050900Y044200D01*
Y044133D01*
X050867Y044100D01*
X050800D01*
X050767Y044133D01*
Y044167D01*
X050800Y044200D01*
X050900D01*
X062067Y059767D02*
X062100Y059800D01*
X062167D01*
X062200Y059767D01*
Y059633D01*
X062167Y059600D01*
X062100D01*
X062067Y059633D01*
X062000Y059767D02*
X061967Y059800D01*
X061900D01*
X061867Y059767D01*
Y059733D01*
X061900Y059700D01*
X061867Y059667D01*
Y059633D01*
X061900Y059600D01*
X061967D01*
X062000Y059633D01*
Y059667D01*
X061967Y059700D01*
X062000Y059733D01*
Y059767D01*
X061967Y059700D02*
X061900D01*
X058656Y044255D02*
Y044055D01*
X058556D01*
X058522Y044088D01*
Y044222D01*
X058556Y044255D01*
X058656D01*
X058356Y044055D02*
Y044255D01*
X058456Y044155D01*
X058323D01*
X057522Y054588D02*
Y054722D01*
X057556Y054755D01*
X057622D01*
X057656Y054722D01*
Y054588D01*
X057622Y054555D01*
X057556D01*
X057589Y054622D02*
X057522Y054555D01*
X057556D02*
X057522Y054588D01*
X057456Y054555D02*
X057389D01*
X057422D01*
Y054755D01*
X057456Y054722D01*
X057156Y054755D02*
X057289D01*
Y054655D01*
X057223Y054688D01*
X057189D01*
X057156Y054655D01*
Y054588D01*
X057189Y054555D01*
X057256D01*
X057289Y054588D01*
X057522Y052288D02*
Y052422D01*
X057556Y052455D01*
X057622D01*
X057656Y052422D01*
Y052288D01*
X057622Y052255D01*
X057556D01*
X057589Y052322D02*
X057522Y052255D01*
X057556D02*
X057522Y052288D01*
X057456Y052255D02*
X057389D01*
X057422D01*
Y052455D01*
X057456Y052422D01*
X057156Y052455D02*
X057223Y052422D01*
X057289Y052355D01*
Y052288D01*
X057256Y052255D01*
X057189D01*
X057156Y052288D01*
Y052322D01*
X057189Y052355D01*
X057289D01*
X057522Y050088D02*
Y050222D01*
X057556Y050255D01*
X057622D01*
X057656Y050222D01*
Y050088D01*
X057622Y050055D01*
X057556D01*
X057589Y050122D02*
X057522Y050055D01*
X057556D02*
X057522Y050088D01*
X057456Y050055D02*
X057389D01*
X057422D01*
Y050255D01*
X057456Y050222D01*
X057289D02*
X057256Y050255D01*
X057189D01*
X057156Y050222D01*
Y050188D01*
X057189Y050155D01*
X057156Y050122D01*
Y050088D01*
X057189Y050055D01*
X057256D01*
X057289Y050088D01*
Y050122D01*
X057256Y050155D01*
X057289Y050188D01*
Y050222D01*
X057256Y050155D02*
X057189D01*
X051122Y049288D02*
Y049422D01*
X051156Y049455D01*
X051222D01*
X051256Y049422D01*
Y049288D01*
X051222Y049255D01*
X051156D01*
X051189Y049322D02*
X051122Y049255D01*
X051156D02*
X051122Y049288D01*
X051056Y049255D02*
X050989D01*
X051022D01*
Y049455D01*
X051056Y049422D01*
X050889Y049288D02*
X050856Y049255D01*
X050789D01*
X050756Y049288D01*
Y049422D01*
X050789Y049455D01*
X050856D01*
X050889Y049422D01*
Y049388D01*
X050856Y049355D01*
X050756D01*
X059989Y048788D02*
X060122D01*
X060156Y048755D01*
Y048688D01*
X060122Y048655D01*
X059989D01*
X059956Y048688D01*
Y048755D01*
X060022Y048722D02*
X059956Y048788D01*
Y048755D02*
X059989Y048788D01*
X059956Y048988D02*
Y048855D01*
X060089Y048988D01*
X060122D01*
X060156Y048955D01*
Y048888D01*
X060122Y048855D01*
X059956Y049188D02*
Y049055D01*
X060089Y049188D01*
X060122D01*
X060156Y049155D01*
Y049088D01*
X060122Y049055D01*
X062322Y051488D02*
Y051622D01*
X062356Y051655D01*
X062422D01*
X062456Y051622D01*
Y051488D01*
X062422Y051455D01*
X062356D01*
X062389Y051522D02*
X062322Y051455D01*
X062356D02*
X062322Y051488D01*
X062123Y051455D02*
X062256D01*
X062123Y051588D01*
Y051622D01*
X062156Y051655D01*
X062222D01*
X062256Y051622D01*
X061956Y051455D02*
Y051655D01*
X062056Y051555D01*
X061923D01*
X059256Y050555D02*
X059456D01*
Y050655D01*
X059422Y050688D01*
X059356D01*
X059322Y050655D01*
Y050555D01*
Y050622D02*
X059256Y050688D01*
X059456Y050888D02*
Y050755D01*
X059356D01*
X059389Y050821D01*
Y050855D01*
X059356Y050888D01*
X059289D01*
X059256Y050855D01*
Y050788D01*
X059289Y050755D01*
X059422Y050955D02*
X059456Y050988D01*
Y051055D01*
X059422Y051088D01*
X059289D01*
X059256Y051055D01*
Y050988D01*
X059289Y050955D01*
X059422D01*
X059256Y049455D02*
X059456D01*
Y049555D01*
X059422Y049588D01*
X059356D01*
X059322Y049555D01*
Y049455D01*
Y049522D02*
X059256Y049588D01*
X059456Y049788D02*
Y049655D01*
X059356D01*
X059389Y049721D01*
Y049755D01*
X059356Y049788D01*
X059289D01*
X059256Y049755D01*
Y049688D01*
X059289Y049655D01*
X059256Y049855D02*
Y049921D01*
Y049888D01*
X059456D01*
X059422Y049855D01*
X054256Y054455D02*
Y054655D01*
X054156D01*
X054122Y054622D01*
Y054555D01*
X054156Y054522D01*
X054256D01*
X054189D02*
X054122Y054455D01*
X053923Y054655D02*
X054056D01*
Y054555D01*
X053989Y054588D01*
X053956D01*
X053923Y054555D01*
Y054488D01*
X053956Y054455D01*
X054022D01*
X054056Y054488D01*
X053723Y054455D02*
X053856D01*
X053723Y054588D01*
Y054622D01*
X053756Y054655D01*
X053823D01*
X053856Y054622D01*
X054256Y052055D02*
Y052255D01*
X054156D01*
X054122Y052222D01*
Y052155D01*
X054156Y052122D01*
X054256D01*
X054189D02*
X054122Y052055D01*
X053923Y052255D02*
X054056D01*
Y052155D01*
X053989Y052188D01*
X053956D01*
X053923Y052155D01*
Y052088D01*
X053956Y052055D01*
X054022D01*
X054056Y052088D01*
X053856Y052222D02*
X053823Y052255D01*
X053756D01*
X053723Y052222D01*
Y052188D01*
X053756Y052155D01*
X053789D01*
X053756D01*
X053723Y052122D01*
Y052088D01*
X053756Y052055D01*
X053823D01*
X053856Y052088D01*
X055321Y046500D02*
X055521D01*
Y046600D01*
X055487Y046633D01*
X055421D01*
X055387Y046600D01*
Y046500D01*
Y046567D02*
X055321Y046633D01*
X055521Y046833D02*
X055487Y046767D01*
X055421Y046700D01*
X055354D01*
X055321Y046733D01*
Y046800D01*
X055354Y046833D01*
X055387D01*
X055421Y046800D01*
Y046700D01*
X055321Y046900D02*
Y046966D01*
Y046933D01*
X055521D01*
X055487Y046900D01*
X060056Y050755D02*
X060256D01*
Y050855D01*
X060222Y050888D01*
X060156D01*
X060122Y050855D01*
Y050755D01*
Y050822D02*
X060056Y050888D01*
X060256Y051088D02*
X060222Y051021D01*
X060156Y050955D01*
X060089D01*
X060056Y050988D01*
Y051055D01*
X060089Y051088D01*
X060122D01*
X060156Y051055D01*
Y050955D01*
X060256Y051288D02*
Y051155D01*
X060156D01*
X060189Y051221D01*
Y051255D01*
X060156Y051288D01*
X060089D01*
X060056Y051255D01*
Y051188D01*
X060089Y051155D01*
X060056Y050055D02*
X060256D01*
Y050155D01*
X060222Y050188D01*
X060156D01*
X060122Y050155D01*
Y050055D01*
Y050122D02*
X060056Y050188D01*
X060256Y050388D02*
X060222Y050321D01*
X060156Y050255D01*
X060089D01*
X060056Y050288D01*
Y050355D01*
X060089Y050388D01*
X060122D01*
X060156Y050355D01*
Y050255D01*
X060256Y050588D02*
X060222Y050521D01*
X060156Y050455D01*
X060089D01*
X060056Y050488D01*
Y050555D01*
X060089Y050588D01*
X060122D01*
X060156Y050555D01*
Y050455D01*
X062856Y049555D02*
X063056D01*
Y049655D01*
X063022Y049688D01*
X062956D01*
X062922Y049655D01*
Y049555D01*
Y049622D02*
X062856Y049688D01*
X063056Y049888D02*
X063022Y049822D01*
X062956Y049755D01*
X062889D01*
X062856Y049788D01*
Y049855D01*
X062889Y049888D01*
X062922D01*
X062956Y049855D01*
Y049755D01*
X063056Y049955D02*
Y050088D01*
X063022D01*
X062889Y049955D01*
X062856D01*
Y048755D02*
X063056D01*
Y048855D01*
X063022Y048888D01*
X062956D01*
X062922Y048855D01*
Y048755D01*
Y048822D02*
X062856Y048888D01*
X063056Y049088D02*
X063022Y049022D01*
X062956Y048955D01*
X062889D01*
X062856Y048988D01*
Y049055D01*
X062889Y049088D01*
X062922D01*
X062956Y049055D01*
Y048955D01*
X062889Y049155D02*
X062856Y049188D01*
Y049255D01*
X062889Y049288D01*
X063022D01*
X063056Y049255D01*
Y049188D01*
X063022Y049155D01*
X062989D01*
X062956Y049188D01*
Y049288D01*
X058567Y042667D02*
X058600Y042700D01*
X058667D01*
X058700Y042667D01*
Y042533D01*
X058667Y042500D01*
X058600D01*
X058567Y042533D01*
X058500Y042500D02*
X058433D01*
X058467D01*
Y042700D01*
X058500Y042667D01*
X058200Y042500D02*
X058333D01*
X058200Y042633D01*
Y042667D01*
X058233Y042700D01*
X058300D01*
X058333Y042667D01*
X059867D02*
X059900Y042700D01*
X059967D01*
X060000Y042667D01*
Y042533D01*
X059967Y042500D01*
X059900D01*
X059867Y042533D01*
X059800Y042500D02*
X059733D01*
X059767D01*
Y042700D01*
X059800Y042667D01*
X059633D02*
X059600Y042700D01*
X059533D01*
X059500Y042667D01*
Y042633D01*
X059533Y042600D01*
X059567D01*
X059533D01*
X059500Y042567D01*
Y042533D01*
X059533Y042500D01*
X059600D01*
X059633Y042533D01*
D97*
X061637Y050660D02*
Y050979D01*
X061877D01*
X062748Y050660D02*
Y050979D01*
X062512D02*
X062748D01*
X060266Y049040D02*
X060502D01*
X060266D02*
Y049360D01*
X061137Y049040D02*
X061377D01*
Y049360D01*
X045620Y046240D02*
X045939D01*
X045620D02*
Y046480D01*
Y047351D02*
X045939D01*
X045620Y047115D02*
Y047351D01*
X060920Y042015D02*
Y042251D01*
X061239D01*
X060920Y041140D02*
Y041380D01*
Y041140D02*
X061239D01*
X059520Y057680D02*
Y057413D01*
Y057566D02*
X059501Y057623D01*
X059463Y057661D01*
X059425Y057680D01*
X059368D01*
X059103D02*
Y057413D01*
Y057623D02*
X059141Y057661D01*
X059179Y057680D01*
X059236D01*
X059274Y057661D01*
X059312Y057623D01*
X059331Y057566D01*
Y057528D01*
X059312Y057470D01*
X059274Y057432D01*
X059236Y057413D01*
X059179D01*
X059141Y057432D01*
X059103Y057470D01*
X058996Y057680D02*
Y057280D01*
Y057623D02*
X058958Y057661D01*
X058920Y057680D01*
X058863D01*
X058825Y057661D01*
X058787Y057623D01*
X058768Y057566D01*
Y057528D01*
X058787Y057470D01*
X058825Y057432D01*
X058863Y057413D01*
X058920D01*
X058958Y057432D01*
X058996Y057470D01*
X058682Y057813D02*
Y057413D01*
Y057604D02*
X058625Y057661D01*
X058587Y057680D01*
X058530D01*
X058492Y057661D01*
X058473Y057604D01*
Y057413D01*
X058139Y057680D02*
Y057413D01*
Y057623D02*
X058177Y057661D01*
X058216Y057680D01*
X058273D01*
X058311Y057661D01*
X058349Y057623D01*
X058368Y057566D01*
Y057528D01*
X058349Y057470D01*
X058311Y057432D01*
X058273Y057413D01*
X058216D01*
X058177Y057432D01*
X058139Y057470D01*
X058033Y057566D02*
X057804D01*
Y057604D01*
X057823Y057642D01*
X057842Y057661D01*
X057880Y057680D01*
X057937D01*
X057976Y057661D01*
X058014Y057623D01*
X058033Y057566D01*
Y057528D01*
X058014Y057470D01*
X057976Y057432D01*
X057937Y057413D01*
X057880D01*
X057842Y057432D01*
X057804Y057470D01*
X057718Y057813D02*
Y057413D01*
X057092Y057623D02*
X057130Y057661D01*
X057168Y057680D01*
X057225D01*
X057263Y057661D01*
X057301Y057623D01*
X057320Y057566D01*
Y057528D01*
X057301Y057470D01*
X057263Y057432D01*
X057225Y057413D01*
X057168D01*
X057130Y057432D01*
X057092Y057470D01*
X057006Y057813D02*
Y057413D01*
Y057604D02*
X056949Y057661D01*
X056911Y057680D01*
X056854D01*
X056816Y057661D01*
X056797Y057604D01*
Y057413D01*
X056464Y057680D02*
Y057413D01*
Y057623D02*
X056502Y057661D01*
X056540Y057680D01*
X056597D01*
X056635Y057661D01*
X056673Y057623D01*
X056692Y057566D01*
Y057528D01*
X056673Y057470D01*
X056635Y057432D01*
X056597Y057413D01*
X056540D01*
X056502Y057432D01*
X056464Y057470D01*
X056357Y057680D02*
Y057413D01*
Y057604D02*
X056300Y057661D01*
X056262Y057680D01*
X056205D01*
X056166Y057661D01*
X056147Y057604D01*
Y057413D01*
X055814Y057680D02*
Y057375D01*
X055833Y057318D01*
X055852Y057299D01*
X055890Y057280D01*
X055947D01*
X055986Y057299D01*
X055814Y057623D02*
X055852Y057661D01*
X055890Y057680D01*
X055947D01*
X055986Y057661D01*
X056024Y057623D01*
X056043Y057566D01*
Y057528D01*
X056024Y057470D01*
X055986Y057432D01*
X055947Y057413D01*
X055890D01*
X055852Y057432D01*
X055814Y057470D01*
X055050Y057661D02*
X055070Y057642D01*
X055050Y057623D01*
X055031Y057642D01*
Y057661D01*
X055050Y057680D01*
X055070D01*
X055089Y057661D01*
X055108Y057623D01*
X055146Y057528D01*
X055184Y057470D01*
X055222Y057432D01*
X055260Y057413D01*
X055317D01*
X055374Y057432D01*
X055393Y057470D01*
Y057528D01*
X055374Y057566D01*
X055260Y057642D01*
X055222Y057680D01*
X055203Y057718D01*
Y057756D01*
X055222Y057794D01*
X055260Y057813D01*
X055298Y057794D01*
X055317Y057756D01*
Y057718D01*
X055298Y057661D01*
X055260Y057604D01*
X055165Y057470D01*
X055127Y057432D01*
X055070Y057413D01*
X055050D01*
X055031Y057432D01*
Y057451D01*
X055317Y057413D02*
X055355Y057432D01*
X055374Y057470D01*
Y057528D01*
X055355Y057566D01*
X055317Y057604D01*
Y057718D02*
X055298Y057680D01*
X055146Y057470D01*
X055108Y057432D01*
X055070Y057413D01*
X054618Y057813D02*
Y057413D01*
Y057623D02*
X054580Y057661D01*
X054542Y057680D01*
X054485D01*
X054447Y057661D01*
X054409Y057623D01*
X054390Y057566D01*
Y057528D01*
X054409Y057470D01*
X054447Y057432D01*
X054485Y057413D01*
X054542D01*
X054580Y057432D01*
X054618Y057470D01*
X054304Y057680D02*
Y057413D01*
Y057566D02*
X054285Y057623D01*
X054247Y057661D01*
X054209Y057680D01*
X054152D01*
X054115Y057566D02*
X053887D01*
Y057604D01*
X053906Y057642D01*
X053925Y057661D01*
X053963Y057680D01*
X054020D01*
X054058Y057661D01*
X054096Y057623D01*
X054115Y057566D01*
Y057528D01*
X054096Y057470D01*
X054058Y057432D01*
X054020Y057413D01*
X053963D01*
X053925Y057432D01*
X053887Y057470D01*
X053801Y057680D02*
Y057413D01*
Y057604D02*
X053744Y057661D01*
X053706Y057680D01*
X053649D01*
X053611Y057661D01*
X053592Y057604D01*
Y057413D01*
X053430Y057813D02*
Y057489D01*
X053411Y057432D01*
X053373Y057413D01*
X053335D01*
X053487Y057680D02*
X053354D01*
X052944D02*
X052830Y057413D01*
X052716Y057680D02*
X052830Y057413D01*
X052868Y057337D01*
X052906Y057299D01*
X052944Y057280D01*
X052963D01*
X052611Y057813D02*
X052592Y057794D01*
X052573Y057813D01*
X052592Y057832D01*
X052611Y057813D01*
X052592Y057680D02*
Y057413D01*
D99*
X047500Y041000D02*
Y040700D01*
X047350D01*
X047300Y040750D01*
Y040800D01*
X047350Y040850D01*
X047500D01*
X047350D01*
X047300Y040900D01*
Y040950D01*
X047350Y041000D01*
X047500D01*
X047200Y040850D02*
X047000D01*
X062200Y045700D02*
Y045400D01*
X062000D01*
X061900Y045550D02*
X061700D01*
X062800Y058650D02*
X062850Y058700D01*
X062950D01*
X063000Y058650D01*
Y058450D01*
X062950Y058400D01*
X062850D01*
X062800Y058450D01*
X062700Y058550D02*
X062500D01*
X062800Y054850D02*
X062850Y054900D01*
X062950D01*
X063000Y054850D01*
Y054650D01*
X062950Y054600D01*
X062850D01*
X062800Y054650D01*
X062700Y054750D02*
X062500D01*
X062600Y054850D02*
Y054650D01*
M02*
