G04 Layer_Color=8388736*
%FSAX24Y24*%
%MOIN*%
G70*
G01*
G75*
%ADD75R,0.1320X0.2108*%
%ADD76R,0.0178X0.0592*%
%ADD77R,0.0592X0.0178*%
%ADD78R,0.0434X0.0395*%
%ADD79R,0.0434X0.0356*%
%ADD80O,0.1104X0.0356*%
%ADD81R,0.0572X0.1399*%
%ADD82R,0.4253X0.3545*%
%ADD83R,0.0453X0.1674*%
%ADD84O,0.0178X0.0828*%
%ADD85R,0.0400X0.0440*%
%ADD86R,0.0710X0.0552*%
%ADD87O,0.0662X0.0202*%
%ADD88O,0.0662X0.0186*%
%ADD89R,0.1340X0.0474*%
%ADD90R,0.6830X0.1580*%
%ADD91R,0.3420X0.2130*%
%ADD92O,0.0710X0.0257*%
G04:AMPARAMS|DCode=93|XSize=114.3mil|YSize=323mil|CornerRadius=57.2mil|HoleSize=0mil|Usage=FLASHONLY|Rotation=0.000|XOffset=0mil|YOffset=0mil|HoleType=Round|Shape=RoundedRectangle|*
%AMROUNDEDRECTD93*
21,1,0.1143,0.2087,0,0,0.0*
21,1,0.0000,0.3230,0,0,0.0*
1,1,0.1143,0.0000,-0.1043*
1,1,0.1143,0.0000,-0.1043*
1,1,0.1143,0.0000,0.1043*
1,1,0.1143,0.0000,0.1043*
%
%ADD93ROUNDEDRECTD93*%
%ADD94R,0.0647X0.1792*%
%ADD95R,0.0414X0.0158*%
%ADD96R,0.0986X0.0395*%
%ADD97R,0.1005X0.0592*%
%ADD98R,0.0552X0.1340*%
%ADD99R,0.0356X0.0434*%
%ADD100R,0.0560X0.0438*%
%ADD101R,0.0710X0.0730*%
%ADD102C,0.0650*%
%ADD103C,0.0671*%
%ADD104R,0.0671X0.0671*%
%ADD105C,0.0710*%
%ADD106R,0.0671X0.0671*%
%ADD107C,0.2090*%
%ADD108C,0.0360*%
%ADD109C,0.0280*%
%ADD110C,0.0198*%
G36*
X043304Y015015D02*
X043362Y015007D01*
X043367Y015006D01*
X043372Y015004D01*
X043444Y014974D01*
X043448Y014972D01*
X043451Y014971D01*
X043453Y014969D01*
X043515Y014922D01*
X043518Y014918D01*
X043522Y014915D01*
X043569Y014853D01*
X043572Y014848D01*
X043574Y014844D01*
X043604Y014772D01*
X043606Y014767D01*
X043607Y014762D01*
X043615Y014704D01*
X043615Y014699D01*
Y014680D01*
Y012120D01*
Y012101D01*
X043615Y012096D01*
X043607Y012038D01*
X043606Y012033D01*
X043604Y012028D01*
X043574Y011956D01*
X043572Y011952D01*
X043571Y011949D01*
X043569Y011947D01*
X043522Y011885D01*
X043518Y011882D01*
X043515Y011878D01*
X043453Y011831D01*
X043448Y011828D01*
X043444Y011826D01*
X043372Y011796D01*
X043367Y011794D01*
X043362Y011793D01*
X043304Y011785D01*
X043299Y011785D01*
X042512D01*
X042507Y011785D01*
X042501Y011786D01*
X042496Y011788D01*
X042492Y011790D01*
X042487Y011793D01*
X042483Y011797D01*
X042480Y011801D01*
X042477Y011805D01*
X042475Y011810D01*
X042473Y011815D01*
X042472Y011820D01*
X042472Y011825D01*
Y014975D01*
X042472Y014980D01*
X042473Y014985D01*
X042475Y014990D01*
X042477Y014995D01*
X042480Y014999D01*
X042483Y015003D01*
X042487Y015007D01*
X042492Y015010D01*
X042496Y015012D01*
X042501Y015014D01*
X042507Y015015D01*
X042512Y015015D01*
X043299D01*
X043304Y015015D01*
D02*
G37*
G36*
X057805Y013840D02*
X057810Y013839D01*
X057815Y013837D01*
X057820Y013835D01*
X057824Y013832D01*
X057828Y013828D01*
X057832Y013824D01*
X057835Y013820D01*
X057837Y013815D01*
X057839Y013810D01*
X057840Y013805D01*
X057840Y013800D01*
X057840Y011800D01*
X057840Y011795D01*
X057839Y011790D01*
X057837Y011785D01*
X057835Y011780D01*
X057832Y011776D01*
X057828Y011772D01*
X057328Y011272D01*
X057324Y011268D01*
X057320Y011265D01*
X057315Y011263D01*
X057310Y011261D01*
X057305Y011260D01*
X057300Y011260D01*
X053500D01*
X053495Y011260D01*
X053490Y011261D01*
X053485Y011263D01*
X053480Y011265D01*
X053476Y011268D01*
X053472Y011272D01*
X052972Y011772D01*
X052968Y011776D01*
X052965Y011780D01*
X052963Y011785D01*
X052961Y011790D01*
X052960Y011795D01*
X052960Y011800D01*
X052960Y013800D01*
X052960Y013805D01*
X052961Y013810D01*
X052963Y013815D01*
X052965Y013820D01*
X052968Y013824D01*
X052972Y013828D01*
X052976Y013832D01*
X052980Y013835D01*
X052985Y013837D01*
X052990Y013839D01*
X052995Y013840D01*
X053000Y013840D01*
X057800D01*
X057805Y013840D01*
D02*
G37*
G36*
X052700Y013840D02*
X052705Y013840D01*
X052710Y013839D01*
X052715Y013837D01*
X052720Y013835D01*
X052724Y013832D01*
X052728Y013828D01*
X052732Y013824D01*
X052735Y013820D01*
X052737Y013815D01*
X052739Y013810D01*
X052740Y013805D01*
X052740Y013800D01*
X052740Y011800D01*
X052740Y011795D01*
X052739Y011790D01*
X052737Y011785D01*
X052735Y011780D01*
X052732Y011776D01*
X052728Y011772D01*
X052228Y011272D01*
X052224Y011268D01*
X052220Y011265D01*
X052215Y011263D01*
X052210Y011261D01*
X052205Y011260D01*
X052200Y011260D01*
X050500Y011260D01*
X050495Y011260D01*
X050490Y011261D01*
X050485Y011263D01*
X050480Y011265D01*
X050476Y011268D01*
X050472Y011272D01*
X049972Y011772D01*
X049968Y011776D01*
X049965Y011780D01*
X049963Y011785D01*
X049961Y011790D01*
X049960Y011795D01*
X049960Y011800D01*
X049960Y013800D01*
X049960Y013805D01*
X049961Y013810D01*
X049963Y013815D01*
X049965Y013820D01*
X049968Y013824D01*
X049972Y013828D01*
X049976Y013832D01*
X049980Y013835D01*
X049985Y013837D01*
X049990Y013839D01*
X049995Y013840D01*
X050000Y013840D01*
X052700Y013840D01*
D02*
G37*
G36*
X067255Y015140D02*
X067260Y015139D01*
X067265Y015137D01*
X067270Y015135D01*
X067274Y015132D01*
X067278Y015128D01*
X067282Y015124D01*
X067285Y015120D01*
X067287Y015115D01*
X067289Y015110D01*
X067290Y015105D01*
X067290Y015100D01*
X067290Y012450D01*
X067290Y012445D01*
X067289Y012440D01*
X067287Y012435D01*
X067285Y012430D01*
X067282Y012426D01*
X067278Y012422D01*
X066128Y011272D01*
X066124Y011268D01*
X066120Y011265D01*
X066115Y011263D01*
X066110Y011261D01*
X066105Y011260D01*
X066100Y011260D01*
X059816Y011260D01*
X059811Y011260D01*
X059806Y011261D01*
X059801Y011263D01*
X059796Y011265D01*
X059792Y011268D01*
X059788Y011272D01*
X058872Y012188D01*
X058868Y012192D01*
X058865Y012196D01*
X058863Y012201D01*
X058861Y012206D01*
X058860Y012211D01*
X058860Y012216D01*
X058860Y015100D01*
X058860Y015105D01*
X058861Y015110D01*
X058863Y015115D01*
X058865Y015120D01*
X058868Y015124D01*
X058872Y015128D01*
X058876Y015132D01*
X058880Y015135D01*
X058885Y015137D01*
X058890Y015139D01*
X058895Y015140D01*
X058900Y015140D01*
X063200D01*
X063205Y015140D01*
X063210Y015139D01*
X063215Y015137D01*
X063220Y015135D01*
X063224Y015132D01*
X063228Y015128D01*
X063232Y015124D01*
X063235Y015120D01*
X063237Y015115D01*
X063239Y015110D01*
X063240Y015105D01*
X063240Y015100D01*
Y013390D01*
X063760D01*
X063760Y015100D01*
X063760Y015105D01*
X063761Y015110D01*
X063763Y015115D01*
X063765Y015120D01*
X063768Y015124D01*
X063772Y015128D01*
X063776Y015132D01*
X063780Y015135D01*
X063785Y015137D01*
X063790Y015139D01*
X063795Y015140D01*
X063800Y015140D01*
X067250Y015140D01*
X067255Y015140D01*
D02*
G37*
G36*
X062000Y033740D02*
X062000D01*
D01*
X062005Y033740D01*
X062010Y033739D01*
X062015Y033737D01*
X062020Y033735D01*
X062024Y033732D01*
X062028Y033728D01*
X062428Y033328D01*
X062432Y033324D01*
X062435Y033320D01*
X062437Y033315D01*
X062439Y033310D01*
X062440Y033305D01*
X062440Y033300D01*
X062440Y032200D01*
X062440Y032195D01*
X062439Y032190D01*
X062437Y032185D01*
X062435Y032180D01*
X062432Y032176D01*
X062428Y032172D01*
X060628Y030372D01*
X060624Y030368D01*
X060620Y030365D01*
X060615Y030363D01*
X060610Y030361D01*
X060605Y030360D01*
X060600Y030360D01*
X058900Y030360D01*
X058895Y030360D01*
X058890Y030361D01*
X058885Y030363D01*
X058880Y030365D01*
X058876Y030368D01*
X058872Y030372D01*
X058472Y030772D01*
X058468Y030776D01*
X058465Y030780D01*
X058463Y030785D01*
X058461Y030790D01*
X058460Y030795D01*
X058460Y030800D01*
Y030800D01*
D01*
X058460Y032800D01*
X058460Y032805D01*
X058461Y032810D01*
X058463Y032815D01*
X058465Y032820D01*
X058468Y032824D01*
X058472Y032828D01*
X059372Y033728D01*
X059376Y033732D01*
X059380Y033735D01*
X059385Y033737D01*
X059390Y033739D01*
X059395Y033740D01*
X059400Y033740D01*
X062000Y033740D01*
D02*
G37*
G36*
X066005Y033740D02*
X066010Y033739D01*
X066015Y033737D01*
X066020Y033735D01*
X066024Y033732D01*
X066028Y033728D01*
X066828Y032928D01*
X066832Y032924D01*
X066835Y032920D01*
X066837Y032915D01*
X066839Y032910D01*
X066840Y032905D01*
X066840Y032900D01*
X066840Y031500D01*
X066840Y031495D01*
X066839Y031490D01*
X066837Y031485D01*
X066835Y031480D01*
X066832Y031476D01*
X066828Y031472D01*
X064640Y029283D01*
X064640Y027900D01*
X064640Y027895D01*
X064639Y027890D01*
X064637Y027885D01*
X064635Y027880D01*
X064632Y027876D01*
X064628Y027872D01*
X064328Y027572D01*
X064324Y027568D01*
X064320Y027565D01*
X064315Y027563D01*
X064310Y027561D01*
X064305Y027560D01*
X064300Y027560D01*
X061000D01*
X060995Y027560D01*
X060990Y027561D01*
X060985Y027563D01*
X060980Y027565D01*
X060976Y027568D01*
X060972Y027572D01*
X060672Y027872D01*
X060668Y027876D01*
X060665Y027880D01*
X060663Y027885D01*
X060661Y027890D01*
X060660Y027895D01*
X060660Y027900D01*
Y030100D01*
X060660Y030105D01*
X060661Y030110D01*
X060663Y030115D01*
X060665Y030120D01*
X060668Y030124D01*
X060672Y030128D01*
X064272Y033728D01*
X064276Y033732D01*
X064280Y033735D01*
X064285Y033737D01*
X064290Y033739D01*
X064295Y033740D01*
X064300Y033740D01*
X066000Y033740D01*
X066005Y033740D01*
D02*
G37*
G36*
X041493Y015015D02*
X041499Y015014D01*
X041504Y015012D01*
X041508Y015010D01*
X041513Y015007D01*
X041517Y015003D01*
X041520Y014999D01*
X041523Y014995D01*
X041525Y014990D01*
X041527Y014985D01*
X041528Y014980D01*
X041528Y014975D01*
Y011825D01*
X041528Y011820D01*
X041527Y011815D01*
X041525Y011810D01*
X041523Y011805D01*
X041520Y011801D01*
X041517Y011797D01*
X041513Y011793D01*
X041508Y011790D01*
X041504Y011788D01*
X041499Y011786D01*
X041493Y011785D01*
X041488Y011785D01*
X040701D01*
X040696Y011785D01*
X040638Y011793D01*
X040633Y011794D01*
X040628Y011796D01*
X040556Y011826D01*
X040552Y011828D01*
X040547Y011831D01*
X040485Y011878D01*
X040482Y011882D01*
X040478Y011885D01*
X040431Y011947D01*
X040429Y011949D01*
X040428Y011952D01*
X040426Y011956D01*
X040396Y012028D01*
X040394Y012033D01*
X040393Y012038D01*
X040385Y012096D01*
X040385Y012101D01*
Y012120D01*
Y014680D01*
Y014699D01*
X040385Y014704D01*
X040393Y014762D01*
X040394Y014767D01*
X040396Y014772D01*
X040426Y014844D01*
X040428Y014848D01*
X040431Y014853D01*
X040478Y014915D01*
X040482Y014918D01*
X040485Y014922D01*
X040485Y014922D01*
X040547Y014969D01*
X040549Y014971D01*
X040552Y014972D01*
X040556Y014974D01*
X040628Y015004D01*
X040633Y015006D01*
X040638Y015007D01*
X040696Y015015D01*
X040701Y015015D01*
X040701D01*
X040701D01*
X040720Y015015D01*
X040720Y015015D01*
X041488D01*
X041493Y015015D01*
D02*
G37*
D75*
X053900Y016500D02*
D03*
D76*
X053309Y017976D02*
D03*
X053506D02*
D03*
X053703D02*
D03*
X053900D02*
D03*
X054097D02*
D03*
X054294D02*
D03*
X054491D02*
D03*
Y015024D02*
D03*
X054294D02*
D03*
X054097D02*
D03*
X053900D02*
D03*
X053703D02*
D03*
X053506D02*
D03*
X053309D02*
D03*
D77*
X054983Y017583D02*
D03*
Y017386D02*
D03*
Y017189D02*
D03*
Y016992D02*
D03*
Y016795D02*
D03*
Y016598D02*
D03*
Y016402D02*
D03*
Y016205D02*
D03*
Y016008D02*
D03*
Y015811D02*
D03*
Y015614D02*
D03*
Y015417D02*
D03*
X052817D02*
D03*
Y015614D02*
D03*
Y015811D02*
D03*
Y016008D02*
D03*
Y016205D02*
D03*
Y016402D02*
D03*
Y016598D02*
D03*
Y016795D02*
D03*
Y016992D02*
D03*
Y017189D02*
D03*
Y017386D02*
D03*
Y017583D02*
D03*
D78*
X057594Y017100D02*
D03*
X056806Y016726D02*
D03*
Y017474D02*
D03*
D79*
X055800Y016876D02*
D03*
Y016324D02*
D03*
X052133Y018776D02*
D03*
Y018224D02*
D03*
X055733Y018776D02*
D03*
Y018224D02*
D03*
X050100Y014924D02*
D03*
Y015476D02*
D03*
Y015924D02*
D03*
Y016476D02*
D03*
X051800Y015124D02*
D03*
Y015676D02*
D03*
X056067Y014649D02*
D03*
Y015200D02*
D03*
X057267Y015200D02*
D03*
Y014649D02*
D03*
X056700D02*
D03*
Y015200D02*
D03*
D80*
X049011Y017050D02*
D03*
Y017550D02*
D03*
Y018050D02*
D03*
Y018550D02*
D03*
Y019050D02*
D03*
Y019550D02*
D03*
Y020050D02*
D03*
Y020550D02*
D03*
Y021050D02*
D03*
Y021550D02*
D03*
X045389Y017050D02*
D03*
Y017550D02*
D03*
Y018050D02*
D03*
Y018550D02*
D03*
Y019050D02*
D03*
Y019550D02*
D03*
Y020050D02*
D03*
Y020550D02*
D03*
Y021050D02*
D03*
Y021550D02*
D03*
D81*
X038097Y028236D02*
D03*
X035735D02*
D03*
X042920Y031500D02*
D03*
X040557D02*
D03*
X047620D02*
D03*
X045257D02*
D03*
X052320D02*
D03*
X049957D02*
D03*
X052320Y028250D02*
D03*
X049957D02*
D03*
X047547Y028236D02*
D03*
X045185D02*
D03*
X042847D02*
D03*
X040485D02*
D03*
X052297Y024186D02*
D03*
X049935D02*
D03*
X047547D02*
D03*
X045185D02*
D03*
X033397Y023986D02*
D03*
X031035D02*
D03*
X038097Y024086D02*
D03*
X035735D02*
D03*
X042797D02*
D03*
X040435D02*
D03*
D82*
X060100Y018255D02*
D03*
X065000D02*
D03*
D83*
X061600Y014239D02*
D03*
X061100D02*
D03*
X060600D02*
D03*
X059600D02*
D03*
X059100D02*
D03*
X058600D02*
D03*
X066500D02*
D03*
X066000D02*
D03*
X065500D02*
D03*
X064500D02*
D03*
X064000D02*
D03*
X063500D02*
D03*
D84*
X026349Y026557D02*
D03*
X026546D02*
D03*
X026742D02*
D03*
X026939D02*
D03*
X027136D02*
D03*
X027333D02*
D03*
X027530D02*
D03*
X027727D02*
D03*
X027924D02*
D03*
X028120D02*
D03*
X028317D02*
D03*
X028514D02*
D03*
X028711D02*
D03*
X028908D02*
D03*
X029105D02*
D03*
X029302D02*
D03*
X029498D02*
D03*
X029695D02*
D03*
X029892D02*
D03*
X030089D02*
D03*
X030286D02*
D03*
X030483D02*
D03*
X026349Y029215D02*
D03*
X026546D02*
D03*
X026742D02*
D03*
X026939D02*
D03*
X027136D02*
D03*
X027333D02*
D03*
X027530D02*
D03*
X027727D02*
D03*
X027924D02*
D03*
X028120D02*
D03*
X028317D02*
D03*
X028514D02*
D03*
X028711D02*
D03*
X028908D02*
D03*
X029105D02*
D03*
X029302D02*
D03*
X029498D02*
D03*
X029695D02*
D03*
X029892D02*
D03*
X030089D02*
D03*
X030286D02*
D03*
X030483D02*
D03*
D85*
X035574Y012694D02*
D03*
X034820D02*
D03*
X035200Y011860D02*
D03*
X039165Y031006D02*
D03*
X039919D02*
D03*
X039539Y031840D02*
D03*
X043865Y031006D02*
D03*
X044619D02*
D03*
X044239Y031840D02*
D03*
X048565Y031006D02*
D03*
X049319D02*
D03*
X048939Y031840D02*
D03*
X048565Y027756D02*
D03*
X049319D02*
D03*
X048939Y028590D02*
D03*
X043792Y027742D02*
D03*
X044546D02*
D03*
X044166Y028576D02*
D03*
X039092Y027742D02*
D03*
X039846D02*
D03*
X039466Y028576D02*
D03*
X034342Y027742D02*
D03*
X035096D02*
D03*
X034716Y028576D02*
D03*
X048542Y023692D02*
D03*
X049296D02*
D03*
X048916Y024526D02*
D03*
X043792Y023692D02*
D03*
X044546D02*
D03*
X044166Y024526D02*
D03*
X039042Y023692D02*
D03*
X039796D02*
D03*
X039416Y024526D02*
D03*
X034342Y023692D02*
D03*
X035096D02*
D03*
X034716Y024526D02*
D03*
X029642Y023592D02*
D03*
X030396D02*
D03*
X030016Y024426D02*
D03*
D86*
X025857Y024336D02*
D03*
X027274D02*
D03*
D87*
X065274Y024102D02*
D03*
Y023298D02*
D03*
X067126D02*
D03*
Y024102D02*
D03*
D88*
X065274Y023897D02*
D03*
Y023700D02*
D03*
Y023503D02*
D03*
X067126D02*
D03*
Y023700D02*
D03*
Y023897D02*
D03*
D89*
X053565Y031300D02*
D03*
X056635D02*
D03*
D90*
X056600Y021600D02*
D03*
Y028000D02*
D03*
D91*
X062650Y024625D02*
D03*
Y028875D02*
D03*
D92*
X067046Y026366D02*
D03*
Y026622D02*
D03*
Y026878D02*
D03*
Y027134D02*
D03*
X065354Y026366D02*
D03*
Y026622D02*
D03*
Y026878D02*
D03*
Y027134D02*
D03*
D93*
X043043Y013400D02*
D03*
X040957D02*
D03*
D94*
X041400Y017400D02*
D03*
D95*
X041949Y016711D02*
D03*
Y016908D02*
D03*
Y017105D02*
D03*
Y017302D02*
D03*
Y017498D02*
D03*
Y017695D02*
D03*
Y017892D02*
D03*
Y018089D02*
D03*
X040851Y016711D02*
D03*
Y016908D02*
D03*
Y017105D02*
D03*
Y017302D02*
D03*
Y017498D02*
D03*
Y017695D02*
D03*
Y017892D02*
D03*
Y018089D02*
D03*
D96*
X043025Y020900D02*
D03*
X041175D02*
D03*
D97*
X043500Y017296D02*
D03*
Y016096D02*
D03*
D98*
X046800Y012119D02*
D03*
Y014481D02*
D03*
D99*
X053024Y019700D02*
D03*
X053576D02*
D03*
X054609Y018900D02*
D03*
X054057D02*
D03*
D100*
X049200Y015544D02*
D03*
Y014256D02*
D03*
X051233Y019544D02*
D03*
Y018256D02*
D03*
X056900Y019544D02*
D03*
Y018256D02*
D03*
D101*
X025857Y024336D02*
D03*
X027274D02*
D03*
D102*
X026100Y015700D02*
D03*
X027100D02*
D03*
X028100D02*
D03*
X029100D02*
D03*
X030100D02*
D03*
X031100D02*
D03*
X032100D02*
D03*
X033100D02*
D03*
X034100D02*
D03*
X035100D02*
D03*
X036100D02*
D03*
X037100D02*
D03*
X038100D02*
D03*
X039100D02*
D03*
Y016700D02*
D03*
Y017700D02*
D03*
Y018700D02*
D03*
Y019700D02*
D03*
Y020700D02*
D03*
Y021700D02*
D03*
X038100D02*
D03*
X037100D02*
D03*
X036100D02*
D03*
X035100D02*
D03*
X034100D02*
D03*
X033100D02*
D03*
X032100D02*
D03*
X031100D02*
D03*
X030100D02*
D03*
X029100D02*
D03*
X028100D02*
D03*
X027100D02*
D03*
X026100D02*
D03*
D103*
X027116Y031786D02*
D03*
X025766D02*
D03*
X039100Y012600D02*
D03*
Y014100D02*
D03*
X038100D02*
D03*
D104*
X027116Y030786D02*
D03*
X025766D02*
D03*
D105*
X029910Y014100D02*
D03*
X030700D02*
D03*
X031490D02*
D03*
X032277D02*
D03*
X033065D02*
D03*
X029128D02*
D03*
X028340D02*
D03*
X032872Y031286D02*
D03*
X028935D02*
D03*
X029722D02*
D03*
X030510D02*
D03*
X031300D02*
D03*
X032090D02*
D03*
X036814D02*
D03*
X036024D02*
D03*
X035234D02*
D03*
X034447D02*
D03*
X033659D02*
D03*
X037596D02*
D03*
D106*
X038100Y012600D02*
D03*
X037100Y014100D02*
D03*
D107*
X025800Y012400D02*
D03*
D108*
X065705Y020495D02*
D03*
X066110Y020090D02*
D03*
X061800Y021300D02*
D03*
X045000Y013700D02*
D03*
X046000Y014000D02*
D03*
X061600Y026700D02*
D03*
X049600Y016200D02*
D03*
X053800Y032300D02*
D03*
X026000Y014200D02*
D03*
X040200Y021800D02*
D03*
X054600Y024400D02*
D03*
X044200Y021500D02*
D03*
X047200Y022400D02*
D03*
X043500Y018900D02*
D03*
X037300Y020700D02*
D03*
X030000Y018400D02*
D03*
X027100Y017400D02*
D03*
X034900Y014600D02*
D03*
X025100Y020982D02*
D03*
Y020300D02*
D03*
X026000Y019600D02*
D03*
X033119Y017501D02*
D03*
X035900Y017500D02*
D03*
X030000Y019800D02*
D03*
X063300Y033600D02*
D03*
X067000Y030763D02*
D03*
X035700Y011800D02*
D03*
X042500Y017695D02*
D03*
X045000Y012000D02*
D03*
X055300Y012800D02*
D03*
Y012200D02*
D03*
Y011600D02*
D03*
X056000Y013400D02*
D03*
Y011600D02*
D03*
Y012200D02*
D03*
Y012800D02*
D03*
X061400Y032300D02*
D03*
X060800D02*
D03*
X060200D02*
D03*
X059600D02*
D03*
X059000D02*
D03*
X062600Y015900D02*
D03*
X067100D02*
D03*
X056700Y011600D02*
D03*
X060800Y031700D02*
D03*
X060200D02*
D03*
X059000D02*
D03*
X059600D02*
D03*
X060200Y031100D02*
D03*
X059600D02*
D03*
X056700Y012200D02*
D03*
X057400D02*
D03*
Y012800D02*
D03*
X056700D02*
D03*
Y013400D02*
D03*
X057400D02*
D03*
X032900Y020800D02*
D03*
X044000Y019900D02*
D03*
X045000Y016200D02*
D03*
X041898Y014863D02*
D03*
X041900Y012100D02*
D03*
X051000Y013500D02*
D03*
X050400D02*
D03*
X051000Y012900D02*
D03*
X050400D02*
D03*
Y012300D02*
D03*
X051000D02*
D03*
X050100Y016600D02*
D03*
X040900Y014300D02*
D03*
X043500Y015900D02*
D03*
X043900Y014200D02*
D03*
X042647Y014974D02*
D03*
X041100Y016200D02*
D03*
X051300Y021500D02*
D03*
X052400Y020600D02*
D03*
X054550Y019400D02*
D03*
X057600Y031300D02*
D03*
X062000Y024500D02*
D03*
X061500D02*
D03*
X061000D02*
D03*
X062000Y024000D02*
D03*
X061500D02*
D03*
X061000D02*
D03*
X062000Y023500D02*
D03*
X061500D02*
D03*
X061000D02*
D03*
X052733Y019100D02*
D03*
X055800Y028500D02*
D03*
X055200D02*
D03*
X056400Y027900D02*
D03*
X055800D02*
D03*
X055200D02*
D03*
X056400Y027300D02*
D03*
X055800D02*
D03*
X055200D02*
D03*
X033300Y032100D02*
D03*
X065300Y020900D02*
D03*
X066750Y013350D02*
D03*
X066150D02*
D03*
X066750Y013950D02*
D03*
X066150D02*
D03*
X048966Y025886D02*
D03*
X032766Y028536D02*
D03*
X052016Y026836D02*
D03*
X037816Y030436D02*
D03*
X042816Y031136D02*
D03*
X038066Y022936D02*
D03*
X066700Y022350D02*
D03*
X053300Y013500D02*
D03*
X066200Y027500D02*
D03*
X057000Y027900D02*
D03*
Y027300D02*
D03*
X056200Y021400D02*
D03*
Y022000D02*
D03*
X056800D02*
D03*
Y021400D02*
D03*
Y020800D02*
D03*
X057400D02*
D03*
Y021400D02*
D03*
Y022000D02*
D03*
X058000D02*
D03*
Y021400D02*
D03*
X034200Y013100D02*
D03*
X048200Y015900D02*
D03*
X047700Y018300D02*
D03*
X046900Y017400D02*
D03*
X035500Y016600D02*
D03*
X044000Y015300D02*
D03*
X058000Y030900D02*
D03*
X059000Y031100D02*
D03*
D109*
X053400Y014500D02*
D03*
X049600Y012600D02*
D03*
X067300Y022907D02*
D03*
X057000Y033719D02*
D03*
X025381Y025700D02*
D03*
X025766Y025086D02*
D03*
X026416Y025186D02*
D03*
X026566Y023586D02*
D03*
X025300Y022200D02*
D03*
X040200Y018700D02*
D03*
X058102Y014680D02*
D03*
X058100Y013900D02*
D03*
X059700Y024700D02*
D03*
X055300Y019700D02*
D03*
X057700Y016200D02*
D03*
X056200Y018800D02*
D03*
X054000Y014469D02*
D03*
X054500D02*
D03*
X055000Y015100D02*
D03*
X055508Y015321D02*
D03*
X056400Y016299D02*
D03*
X055700Y017300D02*
D03*
X059765Y022819D02*
D03*
X056200Y017700D02*
D03*
X052081Y017600D02*
D03*
X053433Y018600D02*
D03*
X052833Y018200D02*
D03*
X056800Y026700D02*
D03*
X054600D02*
D03*
X057500D02*
D03*
X052100Y017100D02*
D03*
X051900Y016600D02*
D03*
X026866Y028036D02*
D03*
X028866Y024186D02*
D03*
X029316Y024536D02*
D03*
X035116Y028936D02*
D03*
X035316Y027336D02*
D03*
X049009Y027185D02*
D03*
X033416Y027436D02*
D03*
X037916Y027186D02*
D03*
X038616Y027136D02*
D03*
X034266Y027236D02*
D03*
X039566Y027136D02*
D03*
X040066Y027286D02*
D03*
X039016Y028236D02*
D03*
X028104Y023831D02*
D03*
X043716Y028236D02*
D03*
Y024186D02*
D03*
X048489Y028250D02*
D03*
X049466Y023286D02*
D03*
X044766D02*
D03*
X049489Y027350D02*
D03*
X044789Y030650D02*
D03*
X040089Y030600D02*
D03*
X044766Y027286D02*
D03*
X030566Y023136D02*
D03*
X030066Y023086D02*
D03*
X035366Y023136D02*
D03*
X043016Y025036D02*
D03*
X043369Y024517D02*
D03*
X047666Y025136D02*
D03*
X035279Y024917D02*
D03*
X048566Y024086D02*
D03*
X048116Y024436D02*
D03*
X047966Y027236D02*
D03*
X044166Y027036D02*
D03*
X043316Y026936D02*
D03*
X033912Y024398D02*
D03*
X034366Y024136D02*
D03*
X034272Y024715D02*
D03*
X051966Y029186D02*
D03*
X051239Y030542D02*
D03*
X048966Y030486D02*
D03*
X045766Y029736D02*
D03*
X044116Y030236D02*
D03*
X027166Y030036D02*
D03*
X025466Y028036D02*
D03*
X026216D02*
D03*
X028067Y030386D02*
D03*
X030216Y028536D02*
D03*
X028966Y028036D02*
D03*
X027566D02*
D03*
X028216D02*
D03*
X025566Y029636D02*
D03*
X026584Y029903D02*
D03*
X029616Y030286D02*
D03*
X028514Y029885D02*
D03*
X028966Y030336D02*
D03*
X033366Y023986D02*
D03*
X039966Y023236D02*
D03*
X038966Y024186D02*
D03*
X038666Y024586D02*
D03*
X037766Y024886D02*
D03*
X042266Y025186D02*
D03*
X047016Y025236D02*
D03*
X034016Y028186D02*
D03*
X034287Y028686D02*
D03*
X037916Y028736D02*
D03*
X042566D02*
D03*
X047216Y028886D02*
D03*
X039516Y030536D02*
D03*
X040866Y030286D02*
D03*
X038735Y031436D02*
D03*
X043466Y031405D02*
D03*
X049489Y030600D02*
D03*
X048366Y032286D02*
D03*
X048166Y031586D02*
D03*
X051816Y025136D02*
D03*
X029366Y024036D02*
D03*
X063500Y014250D02*
D03*
X058600D02*
D03*
X052400Y014700D02*
D03*
X052900D02*
D03*
X051900Y014500D02*
D03*
X040000Y017300D02*
D03*
X051800Y016100D02*
D03*
X052297Y015252D02*
D03*
X051850Y015000D02*
D03*
X066400Y023000D02*
D03*
X065200Y024600D02*
D03*
X066200Y024100D02*
D03*
X065700Y024400D02*
D03*
X066300Y025000D02*
D03*
X065800Y025900D02*
D03*
X066500Y026100D02*
D03*
X066800Y025500D02*
D03*
X056300Y015724D02*
D03*
X048600Y012600D02*
D03*
X049200Y011800D02*
D03*
X048700D02*
D03*
D110*
X054333Y015634D02*
D03*
X053900D02*
D03*
X053467D02*
D03*
X054333Y016067D02*
D03*
X053900D02*
D03*
X053467D02*
D03*
X054333Y016500D02*
D03*
X053900D02*
D03*
X053467D02*
D03*
X054333Y016933D02*
D03*
X053900D02*
D03*
X053467D02*
D03*
X054333Y017366D02*
D03*
X053900D02*
D03*
X053467D02*
D03*
M02*
