G04 Layer_Physical_Order=1*
G04 Layer_Color=255*
%FSAX24Y24*%
%MOIN*%
G70*
G01*
G75*
%ADD10R,0.1240X0.2028*%
%ADD11R,0.0098X0.0512*%
%ADD12R,0.0512X0.0098*%
%ADD13R,0.0354X0.0315*%
%ADD14R,0.0354X0.0276*%
%ADD15O,0.1024X0.0276*%
%ADD16R,0.0492X0.1319*%
%ADD17R,0.4173X0.3465*%
%ADD18R,0.0413X0.1634*%
%ADD19O,0.0098X0.0748*%
%ADD20R,0.0320X0.0360*%
%ADD21R,0.0630X0.0472*%
%ADD22O,0.0602X0.0142*%
%ADD23O,0.0602X0.0126*%
%ADD24R,0.1260X0.0394*%
%ADD25R,0.6750X0.1500*%
%ADD26R,0.3340X0.2050*%
%ADD27O,0.0630X0.0177*%
G04:AMPARAMS|DCode=28|XSize=106.3mil|YSize=315mil|CornerRadius=53.2mil|HoleSize=0mil|Usage=FLASHONLY|Rotation=0.000|XOffset=0mil|YOffset=0mil|HoleType=Round|Shape=RoundedRectangle|*
%AMROUNDEDRECTD28*
21,1,0.1063,0.2087,0,0,0.0*
21,1,0.0000,0.3150,0,0,0.0*
1,1,0.1063,0.0000,-0.1043*
1,1,0.1063,0.0000,-0.1043*
1,1,0.1063,0.0000,0.1043*
1,1,0.1063,0.0000,0.1043*
%
%ADD28ROUNDEDRECTD28*%
%ADD29R,0.0587X0.1732*%
%ADD30R,0.0354X0.0098*%
%ADD31R,0.0906X0.0315*%
%ADD32R,0.0925X0.0512*%
%ADD33R,0.0472X0.1260*%
%ADD34R,0.0276X0.0354*%
%ADD35R,0.0480X0.0358*%
%ADD36C,0.0100*%
%ADD37C,0.0200*%
%ADD38C,0.0150*%
%ADD39C,0.0500*%
%ADD40R,0.0630X0.0650*%
%ADD41C,0.0570*%
%ADD42C,0.0591*%
%ADD43R,0.0591X0.0591*%
%ADD44C,0.0630*%
%ADD45R,0.0591X0.0591*%
%ADD46C,0.2010*%
%ADD47C,0.0500*%
%ADD48C,0.0420*%
%ADD49C,0.0236*%
G36*
X053166Y020791D02*
X056489D01*
X056499Y020719D01*
X056530Y020644D01*
X056580Y020580D01*
X056644Y020530D01*
X056719Y020499D01*
X056800Y020488D01*
X056881Y020499D01*
X056956Y020530D01*
X057020Y020580D01*
X057070Y020644D01*
X057075Y020656D01*
X057125D01*
X057130Y020644D01*
X057180Y020580D01*
X057244Y020530D01*
X057319Y020499D01*
X057400Y020488D01*
X057481Y020499D01*
X057556Y020530D01*
X057620Y020580D01*
X057670Y020644D01*
X057701Y020719D01*
X057711Y020791D01*
X059848D01*
X059867Y020745D01*
X059833Y020711D01*
X057908D01*
X057865Y020703D01*
X057829Y020679D01*
X057829Y020679D01*
X057403Y020253D01*
X057379Y020217D01*
X057371Y020174D01*
X057371Y020174D01*
Y019428D01*
X057249Y019306D01*
X057199Y019327D01*
Y019782D01*
X056601D01*
Y019455D01*
X055566D01*
X055541Y019505D01*
X055571Y019544D01*
X055594Y019600D01*
X055300D01*
Y019700D01*
X055200D01*
Y019994D01*
X055144Y019971D01*
X055079Y019921D01*
X055029Y019856D01*
X054998Y019781D01*
X054994Y019749D01*
X054941Y019731D01*
X054594Y020079D01*
X054558Y020103D01*
X054515Y020111D01*
X054515Y020111D01*
X051689D01*
X051647Y020103D01*
X051611Y020079D01*
X051611Y020079D01*
X051314Y019782D01*
X050995D01*
Y019838D01*
X052646Y021489D01*
X053166D01*
Y020791D01*
D02*
G37*
G36*
X037708Y028907D02*
X037681Y028872D01*
X037654Y028806D01*
X037644Y028736D01*
X037654Y028666D01*
X037681Y028600D01*
X037724Y028544D01*
X037780Y028501D01*
X037792Y028496D01*
Y027517D01*
X037792Y027517D01*
X037792D01*
X037788Y027469D01*
X037759Y027457D01*
X037695Y027407D01*
X037645Y027342D01*
X037622Y027286D01*
X037916D01*
Y027086D01*
X037622D01*
X037645Y027029D01*
X037670Y026997D01*
X037645Y026947D01*
X034481D01*
X034464Y026997D01*
X034487Y027015D01*
X034536Y027079D01*
X034560Y027136D01*
X033972D01*
X033995Y027079D01*
X034045Y027015D01*
X034068Y026997D01*
X034051Y026947D01*
X033155D01*
X033134Y026997D01*
X033321Y027184D01*
X033345Y027174D01*
X033416Y027164D01*
X033486Y027174D01*
X033551Y027201D01*
X033608Y027244D01*
X033651Y027300D01*
X033678Y027366D01*
X033687Y027436D01*
X033678Y027506D01*
X033651Y027572D01*
X033608Y027628D01*
X033551Y027671D01*
X033486Y027698D01*
X033416Y027707D01*
X033345Y027698D01*
X033280Y027671D01*
X033224Y027628D01*
X033181Y027572D01*
X033154Y027506D01*
X033144Y027436D01*
X033154Y027366D01*
X033164Y027341D01*
X032970Y027147D01*
X031723D01*
X031042Y027828D01*
X031061Y027875D01*
X033116D01*
X033116Y027875D01*
X033158Y027883D01*
X033194Y027907D01*
X033966Y028679D01*
X034019Y028661D01*
X034025Y028616D01*
X034052Y028550D01*
X034092Y028498D01*
X034089Y028483D01*
X034070Y028450D01*
X034016Y028457D01*
X033945Y028448D01*
X033880Y028421D01*
X033824Y028378D01*
X033781Y028322D01*
X033754Y028256D01*
X033744Y028186D01*
X033754Y028116D01*
X033781Y028050D01*
X033824Y027994D01*
X033880Y027951D01*
X033945Y027924D01*
X034016Y027914D01*
X034073Y027922D01*
X034108Y027901D01*
X034123Y027885D01*
Y027512D01*
X034109Y027507D01*
X034045Y027457D01*
X033995Y027392D01*
X033972Y027336D01*
X034560D01*
X034536Y027392D01*
X034490Y027453D01*
X034495Y027482D01*
X034502Y027503D01*
X034561D01*
Y027937D01*
X034611Y027958D01*
X034877Y027692D01*
Y027503D01*
X034960D01*
X034969Y027454D01*
X034999Y027409D01*
X035048Y027361D01*
X035044Y027336D01*
X035054Y027266D01*
X035081Y027200D01*
X035124Y027144D01*
X035180Y027101D01*
X035245Y027074D01*
X035316Y027064D01*
X035386Y027074D01*
X035451Y027101D01*
X035508Y027144D01*
X035551Y027200D01*
X035578Y027266D01*
X035587Y027336D01*
X035578Y027406D01*
X035552Y027467D01*
X035565Y027504D01*
X035572Y027517D01*
X036040D01*
Y028954D01*
X036089Y028957D01*
X037683D01*
X037708Y028907D01*
D02*
G37*
G36*
X048700Y013800D02*
X050100D01*
D01*
X052700Y013800D01*
X052700Y011800D01*
X052200Y011300D01*
X050500Y011300D01*
X050000Y011800D01*
X050000Y013100D01*
X048300D01*
X047550Y013850D01*
X046596Y013850D01*
X046604Y015100D01*
X047400D01*
X048700Y013800D01*
D02*
G37*
G36*
X067556Y032399D02*
Y024201D01*
X067506Y024185D01*
X067480Y024225D01*
X067423Y024263D01*
X067357Y024276D01*
X067226D01*
Y024102D01*
X067026D01*
Y024276D01*
X066896D01*
X066877Y024272D01*
X066827Y024313D01*
Y024584D01*
X066827Y024584D01*
X066819Y024627D01*
X066795Y024663D01*
X066552Y024905D01*
X066562Y024930D01*
X066571Y025000D01*
X066562Y025070D01*
X066535Y025136D01*
X066492Y025192D01*
X066436Y025235D01*
X066370Y025262D01*
X066300Y025271D01*
X066230Y025262D01*
X066164Y025235D01*
X066142Y025218D01*
X066092Y025243D01*
Y025335D01*
X066579Y025821D01*
X066579Y025821D01*
X066597Y025849D01*
X066636Y025865D01*
X066692Y025908D01*
X066735Y025964D01*
X066762Y026030D01*
X066771Y026100D01*
X066767Y026133D01*
X066812Y026175D01*
X066820Y026174D01*
X066946D01*
Y026366D01*
X067046D01*
Y026466D01*
X067433D01*
X067409Y026502D01*
X067382Y026520D01*
X067412Y026564D01*
X067423Y026622D01*
X067412Y026680D01*
X067387Y026717D01*
X067382Y026750D01*
X067387Y026783D01*
X067412Y026820D01*
X067423Y026878D01*
X067412Y026936D01*
X067387Y026973D01*
X067382Y027006D01*
X067387Y027039D01*
X067412Y027076D01*
X067423Y027134D01*
X067412Y027191D01*
X067379Y027240D01*
X067330Y027273D01*
X067273Y027284D01*
X066820D01*
X066762Y027273D01*
X066714Y027240D01*
X066681Y027191D01*
X066670Y027134D01*
X066681Y027076D01*
X066706Y027039D01*
X066691Y026999D01*
X066684Y026989D01*
X066610D01*
X066610Y026989D01*
X066568Y026981D01*
X066532Y026957D01*
X066040Y026465D01*
X066016Y026429D01*
X066008Y026387D01*
X066008Y026387D01*
Y026143D01*
X065958Y026118D01*
X065936Y026135D01*
X065911Y026145D01*
Y026350D01*
Y027000D01*
X065911Y027000D01*
X065903Y027043D01*
X065879Y027079D01*
X065879Y027079D01*
X065745Y027212D01*
X065709Y027237D01*
X065685Y027241D01*
X065638Y027273D01*
X065580Y027284D01*
X065127D01*
X065070Y027273D01*
X065021Y027240D01*
X064988Y027191D01*
X064977Y027134D01*
X064973Y027130D01*
X062902D01*
Y027399D01*
X064300D01*
X064377Y027415D01*
X064442Y027458D01*
X064742Y027758D01*
X064785Y027823D01*
X064801Y027900D01*
X064801Y029217D01*
X066942Y031358D01*
X066985Y031423D01*
X067001Y031500D01*
X067001Y032883D01*
X067048Y032907D01*
X067556Y032399D01*
D02*
G37*
G36*
X028994Y029191D02*
X028993Y029186D01*
Y028863D01*
X029002Y028820D01*
X029008Y028811D01*
Y028777D01*
X029015Y028782D01*
X029056Y028754D01*
X029353Y028457D01*
X029389Y028433D01*
X029432Y028425D01*
X029432Y028425D01*
X029971D01*
X029981Y028400D01*
X030024Y028344D01*
X030080Y028301D01*
X030145Y028274D01*
X030216Y028264D01*
X030286Y028274D01*
X030351Y028301D01*
X030408Y028344D01*
X030451Y028400D01*
X030478Y028466D01*
X030487Y028536D01*
X030478Y028606D01*
X030451Y028672D01*
X030408Y028728D01*
X030406Y028729D01*
X030404Y028793D01*
X030415Y028803D01*
X030418Y028803D01*
X030440Y028788D01*
X030483Y028779D01*
X030525Y028788D01*
X030561Y028812D01*
X030585Y028848D01*
X030593Y028890D01*
Y029144D01*
X034046D01*
X034066Y029094D01*
X033070Y028097D01*
X030986D01*
X030986Y028097D01*
X030943Y028106D01*
X030943Y028106D01*
X029928D01*
X029886Y028097D01*
X029883Y028096D01*
X029848Y028089D01*
X029812Y028064D01*
X029253Y027505D01*
X029229Y027469D01*
X029224Y027448D01*
X029026Y027250D01*
X029002Y027213D01*
X028993Y027171D01*
X028993Y027171D01*
Y027015D01*
X028960Y026991D01*
X028943Y026985D01*
X028908Y026992D01*
X028866Y026984D01*
X028830Y026960D01*
X028789D01*
X028753Y026984D01*
X028711Y026992D01*
X028669Y026984D01*
X028633Y026960D01*
X028592D01*
X028556Y026984D01*
X028514Y026992D01*
X028472Y026984D01*
X028436Y026960D01*
X028395D01*
X028360Y026984D01*
X028317Y026992D01*
X028275Y026984D01*
X028239Y026960D01*
X028198D01*
X028163Y026984D01*
X028120Y026992D01*
X028078Y026984D01*
X028042Y026960D01*
X028002D01*
X027966Y026984D01*
X027924Y026992D01*
X027881Y026984D01*
X027846Y026960D01*
X027805D01*
X027769Y026984D01*
X027727Y026992D01*
X027684Y026984D01*
X027649Y026960D01*
X027608D01*
X027572Y026984D01*
X027530Y026992D01*
X027488Y026984D01*
X027465Y026969D01*
X027431Y026963D01*
X027398Y026969D01*
X027375Y026984D01*
X027333Y026992D01*
X027291Y026984D01*
X027268Y026969D01*
X027235Y026963D01*
X027201Y026969D01*
X027178Y026984D01*
X027136Y026992D01*
X027094Y026984D01*
X027058Y026960D01*
X027017D01*
X026982Y026984D01*
X026939Y026992D01*
X026897Y026984D01*
X026875Y026969D01*
X026841Y026963D01*
X026807Y026969D01*
X026785Y026984D01*
X026742Y026992D01*
X026700Y026984D01*
X026678Y026969D01*
X026644Y026963D01*
X026610Y026969D01*
X026588Y026984D01*
X026546Y026992D01*
X026503Y026984D01*
X026481Y026969D01*
X026476Y026968D01*
X026452Y026985D01*
X026446Y027046D01*
X026944Y027544D01*
X026944Y027544D01*
X026968Y027580D01*
X026977Y027623D01*
X026977Y027623D01*
Y027791D01*
X027001Y027801D01*
X027058Y027844D01*
X027101Y027900D01*
X027128Y027966D01*
X027137Y028036D01*
X027128Y028106D01*
X027101Y028172D01*
X027058Y028228D01*
X027051Y028233D01*
Y028757D01*
X027084Y028781D01*
X027101Y028786D01*
X027136Y028779D01*
X027172Y028786D01*
X027188Y028781D01*
X027222Y028757D01*
Y028269D01*
X027222Y028269D01*
X027230Y028226D01*
X027254Y028190D01*
X027314Y028131D01*
X027304Y028106D01*
X027294Y028036D01*
X027304Y027966D01*
X027331Y027900D01*
X027374Y027844D01*
X027430Y027801D01*
X027495Y027774D01*
X027566Y027764D01*
X027636Y027774D01*
X027701Y027801D01*
X027758Y027844D01*
X027801Y027900D01*
X027828Y027966D01*
X027837Y028036D01*
X027828Y028106D01*
X027801Y028172D01*
X027758Y028228D01*
X027701Y028271D01*
X027636Y028298D01*
X027566Y028307D01*
X027495Y028298D01*
X027486Y028294D01*
X027444Y028326D01*
Y028579D01*
X027494Y028600D01*
X027964Y028131D01*
X027954Y028106D01*
X027944Y028036D01*
X027954Y027966D01*
X027981Y027900D01*
X028024Y027844D01*
X028080Y027801D01*
X028145Y027774D01*
X028216Y027764D01*
X028286Y027774D01*
X028351Y027801D01*
X028408Y027844D01*
X028451Y027900D01*
X028478Y027966D01*
X028481Y027993D01*
X028534Y028011D01*
X028588Y027957D01*
X028624Y027933D01*
X028667Y027925D01*
X028667Y027925D01*
X028721D01*
X028731Y027900D01*
X028774Y027844D01*
X028830Y027801D01*
X028895Y027774D01*
X028966Y027764D01*
X029036Y027774D01*
X029101Y027801D01*
X029158Y027844D01*
X029201Y027900D01*
X029228Y027966D01*
X029237Y028036D01*
X029228Y028106D01*
X029201Y028172D01*
X029158Y028228D01*
X029101Y028271D01*
X029036Y028298D01*
X028966Y028307D01*
X028895Y028298D01*
X028830Y028271D01*
X028774Y028228D01*
X028743Y028188D01*
X028693Y028178D01*
X028680Y028180D01*
X028426Y028434D01*
X028390Y028458D01*
X028348Y028466D01*
X028348Y028466D01*
X028168D01*
X027969Y028665D01*
Y028731D01*
X027969Y028732D01*
X027968Y028737D01*
X027966Y028788D01*
X027988Y028803D01*
X028022Y028808D01*
X028056Y028803D01*
X028078Y028788D01*
X028120Y028779D01*
X028163Y028788D01*
X028185Y028803D01*
X028219Y028808D01*
X028253Y028803D01*
X028275Y028788D01*
X028317Y028779D01*
X028360Y028788D01*
X028382Y028803D01*
X028416Y028808D01*
X028449Y028803D01*
X028472Y028788D01*
X028514Y028779D01*
X028556Y028788D01*
X028579Y028803D01*
X028613Y028808D01*
X028646Y028803D01*
X028669Y028788D01*
X028711Y028779D01*
X028753Y028788D01*
X028758Y028791D01*
X028800Y028782D01*
X028808Y028777D01*
Y028840D01*
X028813Y028848D01*
X028821Y028890D01*
Y029211D01*
X028822Y029215D01*
X028994D01*
Y029191D01*
D02*
G37*
G36*
X067250Y012450D02*
X066100Y011300D01*
X059816Y011300D01*
X058900Y012216D01*
X058900Y015100D01*
X063200D01*
Y013350D01*
X063800D01*
X063800Y015100D01*
X067250Y015100D01*
X067250Y012450D01*
D02*
G37*
G36*
X051121Y018721D02*
X051121Y018721D01*
X051157Y018697D01*
X051200Y018689D01*
X051897D01*
Y018579D01*
X052369D01*
Y018630D01*
X052646D01*
X052768Y018508D01*
X052749Y018456D01*
X052697Y018435D01*
X052641Y018392D01*
X052598Y018336D01*
X052571Y018270D01*
X052562Y018200D01*
X052571Y018130D01*
X052598Y018064D01*
X052641Y018008D01*
X052697Y017965D01*
X052722Y017955D01*
Y017691D01*
X052511D01*
Y017957D01*
X052511Y017957D01*
X052503Y018000D01*
X052479Y018036D01*
X052369Y018145D01*
Y018421D01*
X051897D01*
Y018367D01*
X051532D01*
Y018494D01*
X050934D01*
Y018018D01*
X051532D01*
Y018145D01*
X051897D01*
Y018028D01*
X052173D01*
X052268Y017933D01*
X052265Y017911D01*
X052263Y017908D01*
X052210Y017882D01*
X052181Y017894D01*
Y017600D01*
X052081D01*
Y017500D01*
X051787D01*
X051810Y017444D01*
X051860Y017379D01*
X051900Y017348D01*
X051908Y017295D01*
X051903Y017285D01*
X051865Y017236D01*
X051838Y017170D01*
X051829Y017100D01*
X051838Y017030D01*
X051865Y016964D01*
X051899Y016919D01*
X051887Y016880D01*
X051878Y016868D01*
X051830Y016862D01*
X051764Y016835D01*
X051708Y016792D01*
X051665Y016736D01*
X051638Y016670D01*
X051629Y016600D01*
X051638Y016530D01*
X051665Y016464D01*
X051708Y016408D01*
X051709Y016408D01*
X051701Y016350D01*
X051664Y016335D01*
X051608Y016292D01*
X051565Y016236D01*
X051538Y016170D01*
X051529Y016100D01*
X051538Y016030D01*
X051565Y015964D01*
X051597Y015922D01*
X051578Y015872D01*
X051564D01*
Y015504D01*
X051557Y015503D01*
X051521Y015479D01*
X051521Y015479D01*
X051321Y015279D01*
X051297Y015243D01*
X051289Y015200D01*
X051289Y015200D01*
Y014843D01*
X051289Y014843D01*
X051290Y014838D01*
X051244Y014814D01*
X050811Y015246D01*
Y018966D01*
X050857Y018985D01*
X051121Y018721D01*
D02*
G37*
G36*
X066800Y032900D02*
X066800Y031500D01*
X064600Y029300D01*
X064600Y027900D01*
X064300Y027600D01*
X061000D01*
X060700Y027900D01*
Y030100D01*
X064300Y033700D01*
X066000Y033700D01*
X066800Y032900D01*
D02*
G37*
G36*
X064400Y025900D02*
X064600Y025700D01*
Y023300D01*
X067150Y020750D01*
X067150Y016500D01*
X058000Y016500D01*
X058000Y020000D01*
X060100Y020000D01*
X060700Y020600D01*
X060700Y025600D01*
X061000Y025900D01*
X064400Y025900D01*
D02*
G37*
G36*
X054559Y019798D02*
X054536Y019751D01*
X054459Y019741D01*
X054373Y019706D01*
X054300Y019650D01*
X054244Y019577D01*
X054213Y019500D01*
X054550D01*
Y019300D01*
X054213D01*
X054244Y019223D01*
X054245Y019222D01*
X054223Y019177D01*
X054157D01*
Y018900D01*
X053957D01*
Y019177D01*
X053820D01*
Y018887D01*
X053773Y018868D01*
X053463Y019179D01*
X053427Y019203D01*
X053384Y019211D01*
X053384Y019211D01*
X053022D01*
X053003Y019256D01*
X052953Y019320D01*
X052908Y019355D01*
X052897Y019416D01*
X052945Y019464D01*
X053221D01*
Y019889D01*
X053338D01*
Y019800D01*
X053576D01*
X053813D01*
Y019889D01*
X054469D01*
X054559Y019798D01*
D02*
G37*
G36*
X064122Y033806D02*
X060558Y030242D01*
X060515Y030177D01*
X060499Y030100D01*
Y027900D01*
X060515Y027823D01*
X060558Y027758D01*
X060858Y027458D01*
X060923Y027415D01*
X061000Y027399D01*
X062398D01*
Y026878D01*
X062417Y026782D01*
X062439Y026750D01*
X062417Y026718D01*
X062398Y026622D01*
Y026101D01*
X061000D01*
X060923Y026085D01*
X060858Y026042D01*
X060558Y025742D01*
X060529Y025699D01*
X060496Y025689D01*
X060474Y025688D01*
X060468Y025690D01*
X059379Y026779D01*
X059343Y026803D01*
X059300Y026811D01*
X059300Y026811D01*
X057745D01*
X057735Y026836D01*
X057692Y026892D01*
X057636Y026935D01*
X057570Y026962D01*
X057500Y026971D01*
X057430Y026962D01*
X057364Y026935D01*
X057308Y026892D01*
X057273Y026898D01*
X057276Y026949D01*
X057319Y026981D01*
X057374Y027053D01*
X060172D01*
Y028947D01*
X055829D01*
X055800Y028951D01*
X055771Y028947D01*
X055229D01*
X055200Y028951D01*
X055171Y028947D01*
X053028D01*
Y027053D01*
X054826D01*
X054881Y026981D01*
X054975Y026910D01*
X055083Y026865D01*
X055110Y026861D01*
X055106Y026811D01*
X054845D01*
X054835Y026836D01*
X054792Y026892D01*
X054736Y026935D01*
X054670Y026962D01*
X054600Y026971D01*
X054530Y026962D01*
X054464Y026935D01*
X054408Y026892D01*
X054365Y026836D01*
X054338Y026770D01*
X054329Y026700D01*
X054338Y026630D01*
X054365Y026564D01*
X054408Y026508D01*
X054464Y026465D01*
X054530Y026438D01*
X054600Y026429D01*
X054670Y026438D01*
X054736Y026465D01*
X054792Y026508D01*
X054835Y026564D01*
X054845Y026589D01*
X056303D01*
X056748Y026143D01*
X056748Y026143D01*
X056784Y026119D01*
X056827Y026111D01*
X056827Y026111D01*
X058732D01*
X059874Y024968D01*
X059841Y024931D01*
X059836Y024935D01*
X059770Y024962D01*
X059700Y024971D01*
X059630Y024962D01*
X059564Y024935D01*
X059508Y024892D01*
X059465Y024836D01*
X059438Y024770D01*
X059429Y024700D01*
X059438Y024630D01*
X059465Y024564D01*
X059508Y024508D01*
X059564Y024465D01*
X059589Y024455D01*
Y023023D01*
X059573Y023011D01*
X059530Y022955D01*
X059503Y022889D01*
X059494Y022819D01*
X059503Y022749D01*
X059530Y022683D01*
X059573Y022627D01*
X059629Y022584D01*
X059695Y022557D01*
X059765Y022548D01*
X059835Y022557D01*
X059901Y022584D01*
X059923Y022601D01*
X059973Y022576D01*
Y022409D01*
X053166D01*
Y021711D01*
X052600D01*
X052557Y021703D01*
X052521Y021679D01*
X052521Y021679D01*
X050832Y019989D01*
X050813Y019985D01*
X050767Y019990D01*
X050766Y019992D01*
X050129Y020629D01*
X050093Y020653D01*
X050050Y020661D01*
X050050Y020661D01*
X049547D01*
X049527Y020692D01*
X049462Y020735D01*
X049385Y020751D01*
X048637D01*
X048560Y020735D01*
X048495Y020692D01*
X048452Y020627D01*
X048436Y020550D01*
X048452Y020473D01*
X048495Y020408D01*
X048560Y020365D01*
X048637Y020349D01*
X049385D01*
X049462Y020365D01*
X049527Y020408D01*
X049547Y020439D01*
X050004D01*
X050589Y019854D01*
Y019034D01*
X050543Y019015D01*
X049929Y019629D01*
X049893Y019653D01*
X049850Y019661D01*
X049850Y019661D01*
X049547D01*
X049527Y019692D01*
X049462Y019735D01*
X049385Y019751D01*
X048637D01*
X048560Y019735D01*
X048495Y019692D01*
X048452Y019627D01*
X048436Y019550D01*
X048452Y019473D01*
X048495Y019408D01*
X048560Y019365D01*
X048637Y019349D01*
X049385D01*
X049462Y019365D01*
X049527Y019408D01*
X049547Y019439D01*
X049804D01*
X050430Y018813D01*
Y016742D01*
X050380Y016732D01*
X050370Y016756D01*
X050320Y016820D01*
X050256Y016870D01*
X050181Y016901D01*
X050100Y016912D01*
X050061Y016907D01*
X050011Y016950D01*
Y018200D01*
X050011Y018200D01*
X050003Y018243D01*
X049979Y018279D01*
X049979Y018279D01*
X049629Y018629D01*
X049593Y018653D01*
X049550Y018661D01*
X049550Y018661D01*
X049547D01*
X049527Y018692D01*
X049462Y018735D01*
X049385Y018751D01*
X048637D01*
X048560Y018735D01*
X048495Y018692D01*
X048452Y018627D01*
X048436Y018550D01*
X048452Y018473D01*
X048495Y018408D01*
X048560Y018365D01*
X048637Y018349D01*
X049385D01*
X049462Y018365D01*
X049527Y018408D01*
X049534Y018409D01*
X049789Y018154D01*
Y016954D01*
X049505Y016670D01*
X047558D01*
X047515Y016662D01*
X047479Y016638D01*
X047479Y016638D01*
X046076Y015235D01*
X046073Y015230D01*
X045921Y015079D01*
X045897Y015043D01*
X045889Y015000D01*
X045889Y015000D01*
Y014288D01*
X045844Y014270D01*
X045780Y014220D01*
X045730Y014156D01*
X045699Y014081D01*
X045688Y014000D01*
X045699Y013919D01*
X045730Y013844D01*
X045780Y013780D01*
X045844Y013730D01*
X045919Y013699D01*
X046000Y013688D01*
X046081Y013699D01*
X046156Y013730D01*
X046220Y013780D01*
X046270Y013844D01*
X046301Y013919D01*
X046312Y014000D01*
X046301Y014081D01*
X046270Y014156D01*
X046220Y014220D01*
X046156Y014270D01*
X046111Y014288D01*
Y014954D01*
X046233Y015076D01*
X046233Y015076D01*
X046236Y015081D01*
X047604Y016448D01*
X049338D01*
X049362Y016398D01*
X049330Y016356D01*
X049299Y016281D01*
X049288Y016200D01*
X049299Y016119D01*
X049330Y016044D01*
X049380Y015980D01*
X049444Y015930D01*
X049519Y015899D01*
X049600Y015888D01*
X049681Y015899D01*
X049708Y015910D01*
X049773Y015846D01*
X049773Y015846D01*
X049809Y015822D01*
X049851Y015813D01*
X049864Y015766D01*
Y015728D01*
X049989D01*
Y015672D01*
X049864D01*
Y015279D01*
X050336D01*
Y015672D01*
X050211D01*
Y015728D01*
X050336D01*
Y016121D01*
X049939D01*
X049906Y016159D01*
X049912Y016200D01*
X049906Y016241D01*
X049939Y016279D01*
X050336D01*
Y016400D01*
X050370Y016444D01*
X050380Y016468D01*
X050430Y016458D01*
Y015134D01*
X050430Y015134D01*
X050438Y015092D01*
X050462Y015055D01*
X051604Y013914D01*
X051604Y013907D01*
X051588Y013864D01*
X050511Y013864D01*
Y013944D01*
X050503Y013986D01*
X050479Y014022D01*
X050479Y014022D01*
X049864Y014637D01*
X049885Y014687D01*
X050000D01*
Y014824D01*
X049823D01*
Y014749D01*
X049773Y014728D01*
X049311Y015190D01*
Y015306D01*
X049499D01*
Y015782D01*
X048901D01*
Y015306D01*
X049089D01*
Y015144D01*
X049089Y015144D01*
X049097Y015101D01*
X049121Y015065D01*
X050273Y013914D01*
X050252Y013864D01*
X050100D01*
X048726D01*
X047445Y015145D01*
X047400Y015164D01*
X047095D01*
Y015170D01*
X046505D01*
Y013792D01*
X046581D01*
X046596Y013786D01*
X046596Y013786D01*
X046596Y013786D01*
X047524Y013786D01*
X048255Y013055D01*
X048300Y013036D01*
X049936D01*
Y012729D01*
X049886Y012719D01*
X049871Y012756D01*
X049821Y012821D01*
X049756Y012871D01*
X049700Y012894D01*
Y012600D01*
Y012306D01*
X049756Y012329D01*
X049821Y012379D01*
X049871Y012444D01*
X049886Y012481D01*
X049936Y012471D01*
X049936Y011800D01*
X049955Y011755D01*
X050455Y011255D01*
X050500Y011236D01*
X052200Y011236D01*
X052245Y011255D01*
X052745Y011755D01*
X052764Y011800D01*
X052764Y013800D01*
X052752Y013830D01*
X052776Y013880D01*
X053172D01*
X053182Y013830D01*
X053123Y013806D01*
X053116Y013800D01*
X053484D01*
X053477Y013806D01*
X053418Y013830D01*
X053428Y013880D01*
X057831D01*
X057838Y013830D01*
X057865Y013764D01*
X057908Y013708D01*
X057964Y013665D01*
X058030Y013638D01*
X058100Y013629D01*
X058170Y013638D01*
X058236Y013665D01*
X058284Y013702D01*
X058334Y013689D01*
Y013363D01*
X058696D01*
Y013226D01*
X058699D01*
X058699Y012216D01*
X058715Y012139D01*
X058758Y012074D01*
X059674Y011158D01*
X059739Y011115D01*
X059816Y011099D01*
X066100Y011099D01*
X066177Y011115D01*
X066242Y011158D01*
X067392Y012308D01*
X067435Y012373D01*
X067451Y012450D01*
X067451Y015100D01*
X067435Y015177D01*
X067392Y015242D01*
X067327Y015285D01*
X067250Y015301D01*
X066729D01*
X066708Y015351D01*
X066975Y015617D01*
X067019Y015599D01*
X067100Y015588D01*
X067181Y015599D01*
X067256Y015630D01*
X067320Y015680D01*
X067370Y015744D01*
X067401Y015819D01*
X067412Y015900D01*
X067401Y015981D01*
X067370Y016056D01*
X067320Y016120D01*
X067256Y016170D01*
X067181Y016201D01*
X067100Y016212D01*
X067019Y016201D01*
X066944Y016170D01*
X066880Y016120D01*
X066830Y016056D01*
X066799Y015981D01*
X066788Y015900D01*
X066799Y015819D01*
X066817Y015775D01*
X066554Y015511D01*
X062701D01*
X062691Y015559D01*
X062777Y015594D01*
X062850Y015650D01*
X062906Y015723D01*
X062937Y015800D01*
X062263D01*
X062294Y015723D01*
X062350Y015650D01*
X062423Y015594D01*
X062509Y015559D01*
X062499Y015511D01*
X058583D01*
X058583Y015511D01*
X058540Y015503D01*
X058504Y015479D01*
X058023Y014998D01*
X057999Y014962D01*
X057992Y014926D01*
X057966Y014915D01*
X057924Y014882D01*
X057887Y014917D01*
X057933Y014986D01*
X057952Y015082D01*
Y015880D01*
X057990Y015910D01*
X058055Y015995D01*
X058096Y016094D01*
X058110Y016200D01*
X058102Y016262D01*
X058135Y016299D01*
X062568D01*
X062572Y016249D01*
X062509Y016241D01*
X062423Y016206D01*
X062350Y016150D01*
X062294Y016077D01*
X062263Y016000D01*
X062937D01*
X062906Y016077D01*
X062850Y016150D01*
X062777Y016206D01*
X062691Y016241D01*
X062628Y016249D01*
X062632Y016299D01*
X067150D01*
X067227Y016315D01*
X067244Y016326D01*
X067283D01*
Y016352D01*
X067292Y016358D01*
X067335Y016423D01*
X067351Y016500D01*
X067351Y020750D01*
X067335Y020827D01*
X067292Y020892D01*
X065068Y023116D01*
X065089Y023166D01*
X065504D01*
X065555Y023176D01*
X065572Y023187D01*
X065850D01*
X065850Y023187D01*
X065892Y023196D01*
X065928Y023220D01*
X066598Y023889D01*
X066598Y023889D01*
X066609Y023906D01*
X066618Y023912D01*
X066660Y023917D01*
X066671Y023915D01*
X066767Y023819D01*
X066767Y023819D01*
X066768Y023814D01*
X066759Y023800D01*
X066795D01*
X066803Y023795D01*
X066810Y023793D01*
X066829Y023790D01*
X066840Y023782D01*
X066888Y023772D01*
X067126D01*
Y023628D01*
X066888D01*
X066840Y023618D01*
X066835Y023614D01*
X066803D01*
X066761Y023606D01*
X066752Y023600D01*
X066730D01*
X066727Y023584D01*
X066725Y023582D01*
X066725Y023582D01*
X066412Y023270D01*
X066400Y023271D01*
X066330Y023262D01*
X066264Y023235D01*
X066208Y023192D01*
X066165Y023136D01*
X066138Y023070D01*
X066129Y023000D01*
X066138Y022930D01*
X066165Y022864D01*
X066208Y022808D01*
X066264Y022765D01*
X066330Y022738D01*
X066400Y022729D01*
X066470Y022738D01*
X066536Y022765D01*
X066592Y022808D01*
X066635Y022864D01*
X066662Y022930D01*
X066671Y023000D01*
X066662Y023070D01*
X066635Y023136D01*
X066617Y023159D01*
X066720Y023262D01*
X066773Y023248D01*
X066774Y023246D01*
X066802Y023205D01*
X066845Y023176D01*
X066896Y023166D01*
X067034D01*
Y022951D01*
X067029Y022907D01*
X067038Y022837D01*
X067065Y022771D01*
X067108Y022715D01*
X067164Y022672D01*
X067230Y022645D01*
X067300Y022635D01*
X067370Y022645D01*
X067436Y022672D01*
X067492Y022715D01*
X067506Y022733D01*
X067556Y022716D01*
Y012301D01*
X066199Y010944D01*
X025501D01*
X024344Y012101D01*
Y032299D01*
X025901Y033856D01*
X026338D01*
X026353Y033806D01*
X026340Y033798D01*
X026340Y033798D01*
X024444Y031901D01*
X024420Y031865D01*
X024412Y031823D01*
X024412Y031823D01*
Y020200D01*
X024412Y020200D01*
X024420Y020157D01*
X024444Y020121D01*
X025044Y019521D01*
X025080Y019497D01*
X025123Y019489D01*
X025712D01*
X025730Y019444D01*
X025780Y019380D01*
X025844Y019330D01*
X025919Y019299D01*
X026000Y019288D01*
X026081Y019299D01*
X026156Y019330D01*
X026220Y019380D01*
X026270Y019444D01*
X026301Y019519D01*
X026312Y019600D01*
X026301Y019681D01*
X026270Y019756D01*
X026220Y019820D01*
X026156Y019870D01*
X026081Y019901D01*
X026000Y019912D01*
X025919Y019901D01*
X025844Y019870D01*
X025780Y019820D01*
X025730Y019756D01*
X025712Y019711D01*
X025169D01*
X024634Y020246D01*
Y020425D01*
X024680Y020444D01*
X024793Y020332D01*
X024788Y020300D01*
X024799Y020219D01*
X024830Y020144D01*
X024880Y020080D01*
X024944Y020030D01*
X025019Y019999D01*
X025100Y019988D01*
X025181Y019999D01*
X025256Y020030D01*
X025320Y020080D01*
X025370Y020144D01*
X025401Y020219D01*
X025412Y020300D01*
X025401Y020381D01*
X025370Y020456D01*
X025320Y020520D01*
X025256Y020570D01*
X025181Y020601D01*
X025100Y020612D01*
X025019Y020601D01*
X024944Y020570D01*
X024902Y020537D01*
X024793Y020646D01*
Y020792D01*
X024843Y020809D01*
X024880Y020761D01*
X024944Y020712D01*
X025019Y020681D01*
X025100Y020670D01*
X025181Y020681D01*
X025256Y020712D01*
X025320Y020761D01*
X025370Y020826D01*
X025401Y020901D01*
X025412Y020982D01*
X025401Y021062D01*
X025370Y021137D01*
X025320Y021202D01*
X025256Y021252D01*
X025181Y021283D01*
X025100Y021293D01*
X025019Y021283D01*
X024997Y021273D01*
X024952Y021307D01*
Y022325D01*
X024998Y022344D01*
X025048Y022295D01*
X025038Y022270D01*
X025029Y022200D01*
X025038Y022130D01*
X025065Y022064D01*
X025108Y022008D01*
X025164Y021965D01*
X025189Y021955D01*
Y021943D01*
X025189Y021943D01*
X025197Y021900D01*
X025221Y021864D01*
X029663Y017422D01*
X029663Y017422D01*
X029699Y017398D01*
X029742Y017390D01*
X032831D01*
X032849Y017345D01*
X032899Y017281D01*
X032963Y017231D01*
X033039Y017200D01*
X033119Y017189D01*
X033200Y017200D01*
X033275Y017231D01*
X033340Y017281D01*
X033389Y017345D01*
X033420Y017420D01*
X033431Y017501D01*
X033420Y017582D01*
X033389Y017657D01*
X033340Y017722D01*
X033275Y017771D01*
X033200Y017802D01*
X033119Y017813D01*
X033039Y017802D01*
X032963Y017771D01*
X032899Y017722D01*
X032849Y017657D01*
X032831Y017612D01*
X029788D01*
X026093Y021307D01*
X026116Y021355D01*
X026190Y021365D01*
X026274Y021399D01*
X026345Y021455D01*
X026401Y021526D01*
X026435Y021610D01*
X026447Y021700D01*
X026435Y021790D01*
X026401Y021874D01*
X026345Y021945D01*
X026274Y022001D01*
X026190Y022035D01*
X026100Y022047D01*
X026010Y022035D01*
X025926Y022001D01*
X025855Y021945D01*
X025799Y021874D01*
X025765Y021790D01*
X025755Y021716D01*
X025707Y021693D01*
X025471Y021929D01*
X025475Y021995D01*
X025492Y022008D01*
X025535Y022064D01*
X025562Y022130D01*
X025571Y022200D01*
X025562Y022270D01*
X025535Y022336D01*
X025531Y022341D01*
X025568Y022374D01*
X025754Y022188D01*
X025791Y022164D01*
X025833Y022156D01*
X025833Y022156D01*
X037487D01*
X037791Y021852D01*
X037765Y021790D01*
X037753Y021700D01*
X037765Y021610D01*
X037799Y021526D01*
X037855Y021455D01*
X037926Y021399D01*
X038010Y021365D01*
X038100Y021353D01*
X038190Y021365D01*
X038274Y021399D01*
X038345Y021455D01*
X038401Y021526D01*
X038435Y021610D01*
X038447Y021700D01*
X038435Y021790D01*
X038401Y021874D01*
X038345Y021945D01*
X038274Y022001D01*
X038190Y022035D01*
X038100Y022047D01*
X038010Y022035D01*
X037948Y022009D01*
X037639Y022319D01*
X037659Y022369D01*
X043918D01*
X043937Y022323D01*
X042932Y021318D01*
X042904Y021275D01*
X042894Y021225D01*
Y021136D01*
X042494D01*
Y020664D01*
X043557D01*
Y021136D01*
X043193D01*
X043172Y021186D01*
X044354Y022369D01*
X045546D01*
X046369Y021546D01*
Y021100D01*
Y020050D01*
Y019000D01*
Y017054D01*
X045375Y016061D01*
X045333Y016089D01*
X045337Y016100D01*
X045100D01*
Y015863D01*
X045111Y015867D01*
X045139Y015825D01*
X044907Y015593D01*
X044879Y015550D01*
X044869Y015500D01*
Y014001D01*
X044834Y013987D01*
X044766Y013934D01*
X044713Y013866D01*
X044680Y013786D01*
X044668Y013700D01*
X044680Y013614D01*
X044713Y013534D01*
X044766Y013466D01*
X044834Y013413D01*
X044914Y013380D01*
X045000Y013368D01*
X045086Y013380D01*
X045166Y013413D01*
X045234Y013466D01*
X045287Y013534D01*
X045320Y013614D01*
X045332Y013700D01*
X045320Y013786D01*
X045287Y013866D01*
X045234Y013934D01*
X045166Y013987D01*
X045131Y014001D01*
Y015446D01*
X046554Y016869D01*
X048519D01*
X048553Y016846D01*
X048637Y016829D01*
X049385D01*
X049470Y016846D01*
X049541Y016894D01*
X049589Y016966D01*
X049606Y017050D01*
X049589Y017134D01*
X049541Y017206D01*
X049470Y017254D01*
X049385Y017271D01*
X048637D01*
X048553Y017254D01*
X048481Y017206D01*
X048433Y017134D01*
X048432Y017131D01*
X047198D01*
X047173Y017181D01*
X047206Y017223D01*
X047237Y017300D01*
X046900D01*
Y017400D01*
X046800D01*
Y017737D01*
X046723Y017706D01*
X046681Y017673D01*
X046631Y017698D01*
Y018919D01*
X048464D01*
X048481Y018894D01*
X048553Y018846D01*
X048637Y018829D01*
X049385D01*
X049470Y018846D01*
X049541Y018894D01*
X049589Y018966D01*
X049606Y019050D01*
X049589Y019134D01*
X049541Y019206D01*
X049470Y019254D01*
X049385Y019271D01*
X048637D01*
X048553Y019254D01*
X048481Y019206D01*
X048464Y019181D01*
X046631D01*
Y019919D01*
X048464D01*
X048481Y019894D01*
X048553Y019846D01*
X048637Y019829D01*
X049385D01*
X049470Y019846D01*
X049541Y019894D01*
X049589Y019966D01*
X049606Y020050D01*
X049589Y020134D01*
X049541Y020206D01*
X049470Y020254D01*
X049385Y020271D01*
X048637D01*
X048553Y020254D01*
X048481Y020206D01*
X048464Y020181D01*
X046631D01*
Y020919D01*
X048464D01*
X048481Y020894D01*
X048553Y020846D01*
X048637Y020829D01*
X049385D01*
X049470Y020846D01*
X049541Y020894D01*
X049589Y020966D01*
X049606Y021050D01*
X049589Y021134D01*
X049541Y021206D01*
X049470Y021254D01*
X049385Y021271D01*
X048637D01*
X048553Y021254D01*
X048481Y021206D01*
X048464Y021181D01*
X046631D01*
Y021469D01*
X048432D01*
X048433Y021466D01*
X048481Y021394D01*
X048553Y021346D01*
X048637Y021329D01*
X049385D01*
X049470Y021346D01*
X049541Y021394D01*
X049589Y021466D01*
X049606Y021550D01*
X049589Y021634D01*
X049541Y021706D01*
X049470Y021754D01*
X049385Y021771D01*
X048637D01*
X048553Y021754D01*
X048519Y021731D01*
X046554D01*
X045693Y022593D01*
X045650Y022621D01*
X045600Y022631D01*
X038321D01*
X038305Y022679D01*
X038315Y022686D01*
X038371Y022759D01*
X038403Y022836D01*
X037728D01*
X037760Y022759D01*
X037816Y022686D01*
X037826Y022679D01*
X037810Y022631D01*
X028465D01*
X027406Y023690D01*
Y023931D01*
X027589D01*
X027620Y023937D01*
X027646Y023954D01*
X027663Y023980D01*
X027670Y024011D01*
Y024661D01*
X027663Y024691D01*
X027646Y024717D01*
X027620Y024735D01*
X027589Y024741D01*
X026959D01*
X026929Y024735D01*
X026903Y024717D01*
X026885Y024691D01*
X026879Y024661D01*
Y024011D01*
X026885Y023980D01*
X026903Y023954D01*
X026929Y023937D01*
X026959Y023931D01*
X027143D01*
Y023636D01*
X027153Y023586D01*
X027182Y023543D01*
X028296Y022428D01*
X028276Y022378D01*
X025879D01*
X025311Y022946D01*
Y025400D01*
X025349Y025433D01*
X025381Y025429D01*
X025451Y025438D01*
X025517Y025465D01*
X025573Y025508D01*
X025616Y025564D01*
X025643Y025630D01*
X025652Y025700D01*
X025643Y025770D01*
X025616Y025836D01*
X025573Y025892D01*
X025517Y025935D01*
X025492Y025945D01*
Y026092D01*
X026192Y026792D01*
X026238Y026773D01*
Y026232D01*
X026247Y026190D01*
X026271Y026154D01*
X026307Y026130D01*
X026349Y026122D01*
X026391Y026130D01*
X026413Y026145D01*
X026447Y026151D01*
X026481Y026145D01*
X026503Y026130D01*
X026546Y026122D01*
X026588Y026130D01*
X026610Y026145D01*
X026644Y026151D01*
X026678Y026145D01*
X026700Y026130D01*
X026742Y026122D01*
X026778Y026129D01*
X026794Y026123D01*
X026823Y026103D01*
X026825Y026052D01*
X026337Y025564D01*
X026313Y025528D01*
X026305Y025486D01*
X026305Y025486D01*
Y025431D01*
X026280Y025421D01*
X026224Y025378D01*
X026181Y025322D01*
X026154Y025256D01*
X026144Y025186D01*
X026154Y025116D01*
X026181Y025050D01*
X026224Y024994D01*
X026280Y024951D01*
X026345Y024924D01*
X026416Y024914D01*
X026486Y024924D01*
X026551Y024951D01*
X026608Y024994D01*
X026651Y025050D01*
X026678Y025116D01*
X026687Y025186D01*
X026678Y025256D01*
X026651Y025322D01*
X026608Y025378D01*
X026567Y025409D01*
X026557Y025458D01*
X026559Y025472D01*
X026975Y025888D01*
X027025Y025867D01*
Y025515D01*
X027025Y025515D01*
X027033Y025473D01*
X027058Y025437D01*
X028435Y024059D01*
Y024054D01*
X028435Y024054D01*
X028444Y024011D01*
X028468Y023975D01*
X029386Y023057D01*
X029386Y023057D01*
X029422Y023033D01*
X029464Y023025D01*
X029802D01*
X029804Y023016D01*
X029831Y022950D01*
X029874Y022894D01*
X029930Y022851D01*
X029995Y022824D01*
X030066Y022814D01*
X030136Y022824D01*
X030201Y022851D01*
X030258Y022894D01*
X030301Y022950D01*
X030303Y022955D01*
X030360Y022962D01*
X030374Y022944D01*
X030430Y022901D01*
X030495Y022874D01*
X030566Y022864D01*
X030636Y022874D01*
X030701Y022901D01*
X030758Y022944D01*
X030801Y023000D01*
X030828Y023066D01*
X030837Y023136D01*
X030828Y023206D01*
X030820Y023226D01*
X030847Y023267D01*
X031340D01*
Y024657D01*
X033092D01*
Y023267D01*
X033702D01*
Y023422D01*
X033748Y023441D01*
X033908Y023281D01*
X033952Y023252D01*
X034005Y023241D01*
X034782D01*
X034834Y023252D01*
X034878Y023281D01*
X034982Y023385D01*
X035033Y023365D01*
X035039Y023334D01*
X035069Y023289D01*
X035118Y023240D01*
X035104Y023206D01*
X035094Y023136D01*
X035104Y023066D01*
X035131Y023000D01*
X035174Y022944D01*
X035230Y022901D01*
X035295Y022874D01*
X035366Y022864D01*
X035436Y022874D01*
X035501Y022901D01*
X035558Y022944D01*
X035601Y023000D01*
X035628Y023066D01*
X035637Y023136D01*
X035628Y023206D01*
X035601Y023272D01*
X035566Y023317D01*
X035581Y023367D01*
X036040D01*
Y024804D01*
X035569D01*
X035554Y024828D01*
X035543Y024854D01*
X035551Y024917D01*
X035541Y024987D01*
X035514Y025052D01*
X035490Y025084D01*
X035515Y025134D01*
X037565D01*
X037582Y025084D01*
X037574Y025078D01*
X037531Y025022D01*
X037504Y024956D01*
X037494Y024886D01*
X037504Y024816D01*
X037531Y024750D01*
X037574Y024694D01*
X037630Y024651D01*
X037695Y024624D01*
X037766Y024614D01*
X037792Y024592D01*
Y023367D01*
X038402D01*
Y023544D01*
X038448Y023563D01*
X038730Y023281D01*
X038774Y023252D01*
X038826Y023241D01*
X039482D01*
X039534Y023252D01*
X039578Y023281D01*
X039616Y023319D01*
X039671Y023315D01*
X039700Y023277D01*
X039694Y023236D01*
X039704Y023166D01*
X039731Y023100D01*
X039774Y023044D01*
X039830Y023001D01*
X039895Y022974D01*
X039966Y022964D01*
X040036Y022974D01*
X040101Y023001D01*
X040158Y023044D01*
X040201Y023100D01*
X040228Y023166D01*
X040237Y023236D01*
X040228Y023306D01*
X040220Y023326D01*
X040247Y023367D01*
X040740D01*
Y024804D01*
X040129D01*
Y024223D01*
X039912D01*
X039635Y024500D01*
Y024765D01*
X039197D01*
Y024402D01*
X039147Y024386D01*
X039101Y024421D01*
X039036Y024448D01*
X038966Y024457D01*
X038957Y024456D01*
X038922Y024502D01*
X038928Y024516D01*
X038937Y024586D01*
X038928Y024656D01*
X038901Y024722D01*
X038858Y024778D01*
X038801Y024821D01*
X038736Y024848D01*
X038666Y024857D01*
X038595Y024848D01*
X038571Y024838D01*
X038162Y025247D01*
X038181Y025293D01*
X039565D01*
X039565Y025293D01*
X039607Y025302D01*
X039643Y025326D01*
X039829Y025511D01*
X042383D01*
X042440Y025454D01*
X042407Y025416D01*
X042401Y025421D01*
X042336Y025448D01*
X042266Y025457D01*
X042195Y025448D01*
X042130Y025421D01*
X042074Y025378D01*
X042031Y025322D01*
X042004Y025256D01*
X041994Y025186D01*
X042004Y025116D01*
X042031Y025050D01*
X042074Y024994D01*
X042130Y024951D01*
X042195Y024924D01*
X042266Y024914D01*
X042335Y024924D01*
X042492Y024767D01*
Y023367D01*
X043102D01*
Y023594D01*
X043148Y023613D01*
X043480Y023281D01*
X043524Y023252D01*
X043576Y023241D01*
X044232D01*
X044284Y023252D01*
X044328Y023281D01*
X044453Y023406D01*
X044503Y023355D01*
X044494Y023286D01*
X044504Y023216D01*
X044531Y023150D01*
X044574Y023094D01*
X044630Y023051D01*
X044695Y023024D01*
X044766Y023014D01*
X044836Y023024D01*
X044901Y023051D01*
X044958Y023094D01*
X045001Y023150D01*
X045028Y023216D01*
X045037Y023286D01*
X045028Y023356D01*
X045002Y023417D01*
X045015Y023454D01*
X045022Y023467D01*
X045490D01*
Y024904D01*
X044879D01*
Y024323D01*
X044562D01*
X044385Y024500D01*
Y024765D01*
X043947D01*
Y024402D01*
X043897Y024386D01*
X043851Y024421D01*
X043786Y024448D01*
X043716Y024457D01*
X043683Y024453D01*
X043638Y024497D01*
X043641Y024517D01*
X043631Y024587D01*
X043604Y024652D01*
X043561Y024709D01*
X043505Y024752D01*
X043446Y024776D01*
Y025168D01*
X043437Y025211D01*
X043413Y025247D01*
X043413Y025247D01*
X042877Y025783D01*
X042896Y025829D01*
X046815D01*
X047100Y025544D01*
X047097Y025533D01*
X047074Y025500D01*
X047016Y025507D01*
X046945Y025498D01*
X046880Y025471D01*
X046824Y025428D01*
X046781Y025372D01*
X046754Y025306D01*
X046744Y025236D01*
X046754Y025166D01*
X046781Y025100D01*
X046824Y025044D01*
X046880Y025001D01*
X046945Y024974D01*
X047016Y024964D01*
X047085Y024974D01*
X047242Y024817D01*
Y023467D01*
X047852D01*
Y023594D01*
X047898Y023613D01*
X048230Y023281D01*
X048274Y023252D01*
X048326Y023241D01*
X048982D01*
X049034Y023252D01*
X049078Y023281D01*
X049151Y023354D01*
X049157Y023354D01*
X049201Y023333D01*
X049194Y023286D01*
X049204Y023216D01*
X049231Y023150D01*
X049274Y023094D01*
X049330Y023051D01*
X049395Y023024D01*
X049466Y023014D01*
X049536Y023024D01*
X049601Y023051D01*
X049658Y023094D01*
X049701Y023150D01*
X049728Y023216D01*
X049737Y023286D01*
X049728Y023356D01*
X049702Y023417D01*
X049715Y023454D01*
X049722Y023467D01*
X050240D01*
Y024904D01*
X049629D01*
Y024323D01*
X049312D01*
X049135Y024500D01*
Y024765D01*
X048697D01*
Y024368D01*
X048655Y024340D01*
X048636Y024348D01*
X048566Y024357D01*
X048495Y024348D01*
X048430Y024321D01*
X048406Y024302D01*
X048365Y024334D01*
X048378Y024366D01*
X048387Y024436D01*
X048378Y024506D01*
X048351Y024572D01*
X048308Y024628D01*
X048251Y024671D01*
X048186Y024698D01*
X048116Y024707D01*
X048096Y024725D01*
Y025268D01*
X048096Y025268D01*
X048087Y025311D01*
X048063Y025347D01*
X048063Y025347D01*
X047309Y026101D01*
X047328Y026147D01*
X048083D01*
X048083Y026147D01*
X048126Y026156D01*
X048162Y026180D01*
X048915Y026933D01*
X048939Y026923D01*
X049009Y026914D01*
X049080Y026923D01*
X049145Y026950D01*
X049201Y026993D01*
X049244Y027049D01*
X049272Y027115D01*
X049325Y027136D01*
X049353Y027115D01*
X049418Y027088D01*
X049489Y027079D01*
X049559Y027088D01*
X049624Y027115D01*
X049680Y027158D01*
X049724Y027214D01*
X049751Y027280D01*
X049760Y027350D01*
X049751Y027420D01*
X049725Y027482D01*
X049738Y027518D01*
X049745Y027531D01*
X050263D01*
Y028969D01*
X049652D01*
Y028387D01*
X049335D01*
X049158Y028564D01*
Y028829D01*
X048719D01*
Y028467D01*
X048669Y028450D01*
X048624Y028485D01*
X048559Y028512D01*
X048489Y028521D01*
X048418Y028512D01*
X048353Y028485D01*
X048297Y028442D01*
X048254Y028386D01*
X048226Y028320D01*
X048217Y028250D01*
X048226Y028180D01*
X048254Y028114D01*
X048297Y028058D01*
X048325Y028037D01*
X048345Y027995D01*
Y027704D01*
X048299Y027685D01*
X047852Y028133D01*
Y028954D01*
X047478D01*
X047478Y028956D01*
X047451Y029022D01*
X047408Y029078D01*
X047387Y029094D01*
X047404Y029144D01*
X049952D01*
X049952Y029144D01*
X049994Y029152D01*
X050030Y029176D01*
X051144Y030290D01*
X051168Y030280D01*
X051239Y030271D01*
X051309Y030280D01*
X051374Y030307D01*
X051430Y030350D01*
X051474Y030406D01*
X051501Y030472D01*
X051510Y030542D01*
X051501Y030612D01*
X051474Y030678D01*
X051430Y030734D01*
X051374Y030777D01*
X051309Y030804D01*
X051239Y030813D01*
X051168Y030804D01*
X051103Y030777D01*
X051047Y030734D01*
X051004Y030678D01*
X050976Y030612D01*
X050967Y030542D01*
X050976Y030472D01*
X050987Y030447D01*
X049905Y029366D01*
X048140D01*
X048121Y029412D01*
X048928Y030219D01*
X048966Y030214D01*
X049036Y030224D01*
X049101Y030251D01*
X049158Y030294D01*
X049201Y030350D01*
X049228Y030416D01*
X049228Y030416D01*
X049280Y030430D01*
X049297Y030408D01*
X049353Y030365D01*
X049418Y030338D01*
X049489Y030329D01*
X049559Y030338D01*
X049624Y030365D01*
X049680Y030408D01*
X049724Y030464D01*
X049751Y030530D01*
X049760Y030600D01*
X049751Y030670D01*
X049725Y030731D01*
X049738Y030768D01*
X049745Y030782D01*
X050263D01*
Y032059D01*
X050309Y032078D01*
X050984Y031403D01*
X051028Y031374D01*
X051080Y031363D01*
X052015D01*
Y030782D01*
X052625D01*
Y032218D01*
X052015D01*
Y031637D01*
X051137D01*
X050041Y032732D01*
X049997Y032762D01*
X049945Y032773D01*
X047633D01*
X047580Y032762D01*
X047536Y032732D01*
X045627Y030823D01*
X045563D01*
Y032218D01*
X044952D01*
Y031637D01*
X044635D01*
X044458Y031814D01*
Y032079D01*
X044019D01*
Y031754D01*
X043973Y031735D01*
X043318Y032390D01*
X043274Y032420D01*
X043221Y032430D01*
X040256D01*
X040217Y032423D01*
X037812D01*
X037759Y032412D01*
X037715Y032382D01*
X036962Y031630D01*
X036912Y031650D01*
X036814Y031663D01*
X036717Y031650D01*
X036626Y031613D01*
X036547Y031553D01*
X036487Y031474D01*
X036450Y031383D01*
X036444Y031343D01*
X036394D01*
X036389Y031383D01*
X036351Y031474D01*
X036291Y031553D01*
X036213Y031613D01*
X036122Y031650D01*
X036024Y031663D01*
X035927Y031650D01*
X035836Y031613D01*
X035757Y031553D01*
X035697Y031474D01*
X035660Y031383D01*
X035654Y031343D01*
X035604D01*
X035599Y031383D01*
X035561Y031474D01*
X035501Y031553D01*
X035423Y031613D01*
X035332Y031650D01*
X035234Y031663D01*
X035137Y031650D01*
X035046Y031613D01*
X034967Y031553D01*
X034907Y031474D01*
X034870Y031383D01*
X034866Y031353D01*
X034815D01*
X034811Y031383D01*
X034774Y031474D01*
X034714Y031553D01*
X034635Y031613D01*
X034544Y031650D01*
X034447Y031663D01*
X034349Y031650D01*
X034258Y031613D01*
X034180Y031553D01*
X034120Y031474D01*
X034082Y031383D01*
X034078Y031353D01*
X034028D01*
X034024Y031383D01*
X033986Y031474D01*
X033926Y031553D01*
X033848Y031613D01*
X033757Y031650D01*
X033659Y031663D01*
X033562Y031650D01*
X033471Y031613D01*
X033393Y031553D01*
X033333Y031474D01*
X033295Y031383D01*
X033291Y031353D01*
X033240D01*
X033236Y031383D01*
X033199Y031474D01*
X033139Y031553D01*
X033061Y031613D01*
X032970Y031650D01*
X032872Y031663D01*
X032774Y031650D01*
X032683Y031613D01*
X032605Y031553D01*
X032545Y031474D01*
X032508Y031383D01*
X032506Y031372D01*
X032456D01*
X032454Y031383D01*
X032417Y031474D01*
X032357Y031553D01*
X032278Y031613D01*
X032187Y031650D01*
X032090Y031663D01*
X031992Y031650D01*
X031901Y031613D01*
X031823Y031553D01*
X031763Y031474D01*
X031725Y031383D01*
X031720Y031343D01*
X031670D01*
X031664Y031383D01*
X031627Y031474D01*
X031567Y031553D01*
X031488Y031613D01*
X031397Y031650D01*
X031300Y031663D01*
X031202Y031650D01*
X031111Y031613D01*
X031033Y031553D01*
X030973Y031474D01*
X030935Y031383D01*
X030930Y031343D01*
X030880D01*
X030874Y031383D01*
X030837Y031474D01*
X030777Y031553D01*
X030698Y031613D01*
X030607Y031650D01*
X030510Y031663D01*
X030412Y031650D01*
X030321Y031613D01*
X030243Y031553D01*
X030183Y031474D01*
X030145Y031383D01*
X030141Y031353D01*
X030091D01*
X030087Y031383D01*
X030049Y031474D01*
X029989Y031553D01*
X029911Y031613D01*
X029820Y031650D01*
X029722Y031663D01*
X029625Y031650D01*
X029534Y031613D01*
X029456Y031553D01*
X029396Y031474D01*
X029358Y031383D01*
X029354Y031353D01*
X029303D01*
X029299Y031383D01*
X029262Y031474D01*
X029202Y031553D01*
X029124Y031613D01*
X029033Y031650D01*
X028935Y031663D01*
X028837Y031650D01*
X028746Y031613D01*
X028668Y031553D01*
X028608Y031474D01*
X028571Y031383D01*
X028558Y031286D01*
X028571Y031188D01*
X028608Y031097D01*
X028668Y031019D01*
X028746Y030959D01*
X028837Y030921D01*
X028935Y030909D01*
X029033Y030921D01*
X029124Y030959D01*
X029202Y031019D01*
X029262Y031097D01*
X029299Y031188D01*
X029303Y031219D01*
X029354D01*
X029358Y031188D01*
X029396Y031097D01*
X029456Y031019D01*
X029534Y030959D01*
X029625Y030921D01*
X029722Y030909D01*
X029820Y030921D01*
X029911Y030959D01*
X029989Y031019D01*
X030049Y031097D01*
X030087Y031188D01*
X030091Y031219D01*
X030141D01*
X030145Y031188D01*
X030183Y031097D01*
X030243Y031019D01*
X030321Y030959D01*
X030412Y030921D01*
X030510Y030909D01*
X030607Y030921D01*
X030698Y030959D01*
X030777Y031019D01*
X030837Y031097D01*
X030874Y031188D01*
X030880Y031229D01*
X030930D01*
X030935Y031188D01*
X030973Y031097D01*
X031033Y031019D01*
X031111Y030959D01*
X031202Y030921D01*
X031300Y030909D01*
X031397Y030921D01*
X031488Y030959D01*
X031567Y031019D01*
X031627Y031097D01*
X031664Y031188D01*
X031670Y031229D01*
X031720D01*
X031725Y031188D01*
X031763Y031097D01*
X031823Y031019D01*
X031901Y030959D01*
X031992Y030921D01*
X032090Y030909D01*
X032187Y030921D01*
X032278Y030959D01*
X032357Y031019D01*
X032417Y031097D01*
X032454Y031188D01*
X032456Y031199D01*
X032506D01*
X032508Y031188D01*
X032545Y031097D01*
X032605Y031019D01*
X032683Y030959D01*
X032774Y030921D01*
X032872Y030909D01*
X032970Y030921D01*
X033061Y030959D01*
X033139Y031019D01*
X033199Y031097D01*
X033236Y031188D01*
X033240Y031219D01*
X033291D01*
X033295Y031188D01*
X033333Y031097D01*
X033393Y031019D01*
X033471Y030959D01*
X033562Y030921D01*
X033659Y030909D01*
X033757Y030921D01*
X033848Y030959D01*
X033926Y031019D01*
X033986Y031097D01*
X034024Y031188D01*
X034028Y031219D01*
X034078D01*
X034082Y031188D01*
X034120Y031097D01*
X034180Y031019D01*
X034258Y030959D01*
X034349Y030921D01*
X034447Y030909D01*
X034544Y030921D01*
X034635Y030959D01*
X034714Y031019D01*
X034774Y031097D01*
X034811Y031188D01*
X034815Y031219D01*
X034866D01*
X034870Y031188D01*
X034907Y031097D01*
X034967Y031019D01*
X035046Y030959D01*
X035137Y030921D01*
X035234Y030909D01*
X035332Y030921D01*
X035423Y030959D01*
X035501Y031019D01*
X035561Y031097D01*
X035599Y031188D01*
X035604Y031229D01*
X035654D01*
X035660Y031188D01*
X035697Y031097D01*
X035757Y031019D01*
X035836Y030959D01*
X035927Y030921D01*
X036024Y030909D01*
X036122Y030921D01*
X036213Y030959D01*
X036291Y031019D01*
X036351Y031097D01*
X036389Y031188D01*
X036394Y031229D01*
X036444D01*
X036450Y031188D01*
X036487Y031097D01*
X036547Y031019D01*
X036626Y030959D01*
X036717Y030921D01*
X036814Y030909D01*
X036912Y030921D01*
X037003Y030959D01*
X037081Y031019D01*
X037141Y031097D01*
X037179Y031188D01*
X037180Y031199D01*
X037231D01*
X037232Y031188D01*
X037270Y031097D01*
X037330Y031019D01*
X037408Y030959D01*
X037499Y030921D01*
X037596Y030909D01*
X037694Y030921D01*
X037785Y030959D01*
X037863Y031019D01*
X037923Y031097D01*
X037961Y031188D01*
X037974Y031286D01*
X037961Y031383D01*
X037941Y031432D01*
X038158Y031649D01*
X038242D01*
X038272Y031643D01*
X038492D01*
X038517Y031593D01*
X038500Y031572D01*
X038473Y031506D01*
X038464Y031436D01*
X038473Y031366D01*
X038500Y031300D01*
X038543Y031244D01*
X038599Y031201D01*
X038665Y031174D01*
X038735Y031164D01*
X038805Y031174D01*
X038830Y031184D01*
X038945Y031068D01*
Y030767D01*
X039300D01*
X039316Y030717D01*
X039281Y030672D01*
X039254Y030606D01*
X039244Y030536D01*
X039254Y030466D01*
X039281Y030400D01*
X039299Y030376D01*
X039020Y030097D01*
X038031D01*
X038014Y030147D01*
X038065Y030186D01*
X038121Y030259D01*
X038153Y030336D01*
X037478D01*
X037510Y030259D01*
X037566Y030186D01*
X037617Y030147D01*
X037600Y030097D01*
X035788D01*
X035720Y030164D01*
X035684Y030189D01*
X035642Y030197D01*
X035642Y030197D01*
X031106D01*
X030890Y030412D01*
X030854Y030437D01*
X030812Y030445D01*
X030812Y030445D01*
X030154D01*
X030154Y030445D01*
X030111Y030437D01*
X030075Y030412D01*
X029975Y030313D01*
X029922Y030331D01*
X029918Y030367D01*
X029886Y030442D01*
X029837Y030507D01*
X029772Y030557D01*
X029716Y030580D01*
Y030286D01*
X029516D01*
Y030580D01*
X029459Y030557D01*
X029430Y030534D01*
X029364Y030546D01*
X029363Y030547D01*
X029363Y030547D01*
X029126Y030784D01*
X029090Y030808D01*
X029048Y030816D01*
X029048Y030816D01*
X027935D01*
X027892Y030808D01*
X027856Y030784D01*
X027669Y030597D01*
X027645Y030561D01*
X027637Y030518D01*
X027637Y030518D01*
Y030449D01*
X027549Y030361D01*
X027511Y030394D01*
Y030686D01*
X027116D01*
Y030786D01*
X027016D01*
Y031181D01*
X026739D01*
X026717Y031230D01*
X026956Y031469D01*
X027023Y031441D01*
X027116Y031428D01*
X027208Y031441D01*
X027294Y031476D01*
X027368Y031533D01*
X027425Y031607D01*
X027461Y031693D01*
X027473Y031786D01*
X027461Y031878D01*
X027425Y031965D01*
X027368Y032039D01*
X027294Y032095D01*
X027208Y032131D01*
X027116Y032143D01*
X027023Y032131D01*
X026937Y032095D01*
X026863Y032039D01*
X026806Y031965D01*
X026770Y031878D01*
X026758Y031786D01*
X026770Y031693D01*
X026798Y031626D01*
X026506Y031333D01*
X026482Y031297D01*
X026473Y031255D01*
X026473Y031255D01*
Y030149D01*
X026449Y030138D01*
X026393Y030095D01*
X026349Y030039D01*
X026322Y029974D01*
X026313Y029903D01*
X026322Y029833D01*
X026349Y029768D01*
X026393Y029711D01*
X026423Y029688D01*
X026425Y029679D01*
X026419Y029647D01*
X026394Y029639D01*
X026391Y029641D01*
X026349Y029650D01*
X026307Y029641D01*
X026271Y029617D01*
X026247Y029582D01*
X026238Y029539D01*
Y029219D01*
X026238Y029215D01*
Y028965D01*
X025560Y028288D01*
X025536Y028298D01*
X025466Y028307D01*
X025395Y028298D01*
X025330Y028271D01*
X025274Y028228D01*
X025231Y028172D01*
X025204Y028106D01*
X025194Y028036D01*
X025204Y027966D01*
X025231Y027900D01*
X025274Y027844D01*
X025330Y027801D01*
X025355Y027791D01*
Y026944D01*
X024680Y026269D01*
X024634Y026288D01*
Y031777D01*
X026465Y033608D01*
X056755D01*
X056765Y033583D01*
X056808Y033527D01*
X056864Y033484D01*
X056930Y033457D01*
X057000Y033448D01*
X057070Y033457D01*
X057136Y033484D01*
X057192Y033527D01*
X057235Y033583D01*
X057262Y033649D01*
X057271Y033719D01*
X057262Y033789D01*
X057255Y033806D01*
X057289Y033856D01*
X062992D01*
X063017Y033806D01*
X062994Y033777D01*
X062963Y033700D01*
X063637D01*
X063606Y033777D01*
X063583Y033806D01*
X063608Y033856D01*
X064101D01*
X064122Y033806D01*
D02*
G37*
G36*
X042574Y031600D02*
X042920D01*
Y031400D01*
X042574D01*
Y031391D01*
X042566Y031385D01*
X042510Y031312D01*
X042478Y031236D01*
X042816D01*
Y031036D01*
X042478D01*
X042510Y030959D01*
X042566Y030886D01*
X042574Y030880D01*
Y030767D01*
X040906D01*
X040863Y030782D01*
Y032157D01*
X042574D01*
Y031600D01*
D02*
G37*
%LPC*%
G36*
X027437Y017300D02*
X027200D01*
Y017063D01*
X027277Y017094D01*
X027350Y017150D01*
X027406Y017223D01*
X027437Y017300D01*
D02*
G37*
G36*
X044062Y017196D02*
X043600D01*
Y016941D01*
X044062D01*
Y017196D01*
D02*
G37*
G36*
X027000Y017300D02*
X026763D01*
X026794Y017223D01*
X026850Y017150D01*
X026923Y017094D01*
X027000Y017063D01*
Y017300D01*
D02*
G37*
G36*
X045289Y017292D02*
X045015D01*
X044922Y017274D01*
X044844Y017221D01*
X044796Y017150D01*
X045289D01*
Y017292D01*
D02*
G37*
G36*
X043400Y017652D02*
X042937D01*
Y017396D01*
X043400D01*
Y017652D01*
D02*
G37*
G36*
X044062D02*
X043600D01*
Y017396D01*
X044062D01*
Y017652D01*
D02*
G37*
G36*
X049385Y017751D02*
X048637D01*
X048560Y017735D01*
X048495Y017692D01*
X048452Y017627D01*
X048436Y017550D01*
X048452Y017473D01*
X048495Y017408D01*
X048560Y017365D01*
X048637Y017349D01*
X049385D01*
X049462Y017365D01*
X049527Y017408D01*
X049570Y017473D01*
X049586Y017550D01*
X049570Y017627D01*
X049527Y017692D01*
X049462Y017735D01*
X049385Y017751D01*
D02*
G37*
G36*
X045763Y017292D02*
X045489D01*
Y017150D01*
X045982D01*
X045934Y017221D01*
X045856Y017274D01*
X045763Y017292D01*
D02*
G37*
G36*
Y017751D02*
X045015D01*
X044938Y017735D01*
X044873Y017692D01*
X044830Y017627D01*
X044814Y017550D01*
X044830Y017473D01*
X044873Y017408D01*
X044938Y017365D01*
X045015Y017349D01*
X045763D01*
X045840Y017365D01*
X045905Y017408D01*
X045948Y017473D01*
X045964Y017550D01*
X045948Y017627D01*
X045905Y017692D01*
X045840Y017735D01*
X045763Y017751D01*
D02*
G37*
G36*
X048300Y016237D02*
Y016000D01*
X048537D01*
X048506Y016077D01*
X048450Y016150D01*
X048377Y016206D01*
X048300Y016237D01*
D02*
G37*
G36*
X035400Y016500D02*
X035163D01*
X035194Y016423D01*
X035250Y016350D01*
X035323Y016294D01*
X035400Y016263D01*
Y016500D01*
D02*
G37*
G36*
X035837D02*
X035600D01*
Y016263D01*
X035677Y016294D01*
X035750Y016350D01*
X035806Y016423D01*
X035837Y016500D01*
D02*
G37*
G36*
X048100Y016237D02*
X048023Y016206D01*
X047950Y016150D01*
X047894Y016077D01*
X047863Y016000D01*
X048100D01*
Y016237D01*
D02*
G37*
G36*
X026000Y016075D02*
X026000Y016075D01*
X025906Y016036D01*
X025825Y015975D01*
X025764Y015894D01*
X025725Y015801D01*
X025725Y015800D01*
X026000D01*
Y016075D01*
D02*
G37*
G36*
X026200D02*
Y015800D01*
X026475D01*
X026475Y015801D01*
X026436Y015894D01*
X026375Y015975D01*
X026294Y016036D01*
X026200Y016075D01*
X026200Y016075D01*
D02*
G37*
G36*
X044900Y016100D02*
X044663D01*
X044694Y016023D01*
X044750Y015950D01*
X044823Y015894D01*
X044900Y015863D01*
Y016100D01*
D02*
G37*
G36*
X045289Y016950D02*
X044796D01*
X044844Y016879D01*
X044922Y016826D01*
X045015Y016808D01*
X045289D01*
Y016950D01*
D02*
G37*
G36*
X045982D02*
X045489D01*
Y016808D01*
X045763D01*
X045856Y016826D01*
X045934Y016879D01*
X045982Y016950D01*
D02*
G37*
G36*
X043400Y017196D02*
X042937D01*
Y016941D01*
X043400D01*
Y017196D01*
D02*
G37*
G36*
X035600Y016937D02*
Y016700D01*
X035837D01*
X035806Y016777D01*
X035750Y016850D01*
X035677Y016906D01*
X035600Y016937D01*
D02*
G37*
G36*
X044900Y016537D02*
X044823Y016506D01*
X044750Y016450D01*
X044694Y016377D01*
X044663Y016300D01*
X044900D01*
Y016537D01*
D02*
G37*
G36*
X045100D02*
Y016300D01*
X045337D01*
X045306Y016377D01*
X045250Y016450D01*
X045177Y016506D01*
X045100Y016537D01*
D02*
G37*
G36*
X035400Y016937D02*
X035323Y016906D01*
X035250Y016850D01*
X035194Y016777D01*
X035163Y016700D01*
X035400D01*
Y016937D01*
D02*
G37*
G36*
X043837Y018800D02*
X043600D01*
Y018563D01*
X043677Y018594D01*
X043750Y018650D01*
X043806Y018723D01*
X043837Y018800D01*
D02*
G37*
G36*
X045763Y019251D02*
X045015D01*
X044938Y019235D01*
X044873Y019192D01*
X044830Y019127D01*
X044814Y019050D01*
X044830Y018973D01*
X044873Y018908D01*
X044938Y018865D01*
X045015Y018849D01*
X045763D01*
X045840Y018865D01*
X045905Y018908D01*
X045948Y018973D01*
X045964Y019050D01*
X045948Y019127D01*
X045905Y019192D01*
X045840Y019235D01*
X045763Y019251D01*
D02*
G37*
G36*
X043400Y019237D02*
X043323Y019206D01*
X043250Y019150D01*
X043194Y019077D01*
X043163Y019000D01*
X043400D01*
Y019237D01*
D02*
G37*
G36*
X029900Y018737D02*
X029823Y018706D01*
X029750Y018650D01*
X029694Y018577D01*
X029663Y018500D01*
X029900D01*
Y018737D01*
D02*
G37*
G36*
X030100D02*
Y018500D01*
X030337D01*
X030306Y018577D01*
X030250Y018650D01*
X030177Y018706D01*
X030100Y018737D01*
D02*
G37*
G36*
X043400Y018800D02*
X043163D01*
X043194Y018723D01*
X043250Y018650D01*
X043323Y018594D01*
X043400Y018563D01*
Y018800D01*
D02*
G37*
G36*
X053813Y019600D02*
X053676D01*
Y019423D01*
X053813D01*
Y019600D01*
D02*
G37*
G36*
X055400Y019994D02*
Y019800D01*
X055594D01*
X055571Y019856D01*
X055521Y019921D01*
X055456Y019971D01*
X055400Y019994D01*
D02*
G37*
G36*
X045763Y020251D02*
X045015D01*
X044938Y020235D01*
X044873Y020192D01*
X044830Y020127D01*
X044814Y020050D01*
X044830Y019973D01*
X044873Y019908D01*
X044938Y019865D01*
X045015Y019849D01*
X045763D01*
X045840Y019865D01*
X045905Y019908D01*
X045948Y019973D01*
X045964Y020050D01*
X045948Y020127D01*
X045905Y020192D01*
X045840Y020235D01*
X045763Y020251D01*
D02*
G37*
G36*
X043600Y019237D02*
Y019000D01*
X043837D01*
X043806Y019077D01*
X043750Y019150D01*
X043677Y019206D01*
X043600Y019237D01*
D02*
G37*
G36*
X035100Y022047D02*
X035010Y022035D01*
X034926Y022001D01*
X034855Y021945D01*
X034799Y021874D01*
X034765Y021790D01*
X034753Y021700D01*
X034765Y021610D01*
X034799Y021526D01*
X034855Y021455D01*
X034926Y021399D01*
X035010Y021365D01*
X035100Y021353D01*
X035190Y021365D01*
X035252Y021391D01*
X036521Y020121D01*
X036521Y020121D01*
X036557Y020097D01*
X036600Y020089D01*
X039034D01*
X039038Y020039D01*
X039010Y020035D01*
X038926Y020001D01*
X038855Y019945D01*
X038799Y019874D01*
X038765Y019790D01*
X038753Y019700D01*
X038765Y019610D01*
X038799Y019526D01*
X038845Y019467D01*
X038827Y019417D01*
X036540D01*
X034409Y021548D01*
X034435Y021610D01*
X034447Y021700D01*
X034435Y021790D01*
X034401Y021874D01*
X034345Y021945D01*
X034274Y022001D01*
X034190Y022035D01*
X034100Y022047D01*
X034010Y022035D01*
X033926Y022001D01*
X033855Y021945D01*
X033799Y021874D01*
X033765Y021790D01*
X033753Y021700D01*
X033765Y021610D01*
X033799Y021526D01*
X033855Y021455D01*
X033926Y021399D01*
X034010Y021365D01*
X034100Y021353D01*
X034190Y021365D01*
X034252Y021391D01*
X036415Y019227D01*
X036451Y019203D01*
X036494Y019195D01*
X036494Y019195D01*
X039263D01*
X039263Y019195D01*
X039306Y019203D01*
X039342Y019227D01*
X039503Y019389D01*
X043854D01*
X044771Y018471D01*
X044807Y018447D01*
X044850Y018439D01*
X044850Y018439D01*
X044853D01*
X044873Y018408D01*
X044938Y018365D01*
X045015Y018349D01*
X045763D01*
X045840Y018365D01*
X045905Y018408D01*
X045948Y018473D01*
X045964Y018550D01*
X045948Y018627D01*
X045905Y018692D01*
X045840Y018735D01*
X045763Y018751D01*
X045015D01*
X044938Y018735D01*
X044873Y018692D01*
X044866Y018691D01*
X044017Y019540D01*
X044035Y019593D01*
X044081Y019599D01*
X044156Y019630D01*
X044188Y019655D01*
X044371Y019471D01*
X044371Y019471D01*
X044407Y019447D01*
X044450Y019439D01*
X044450Y019439D01*
X044853D01*
X044873Y019408D01*
X044938Y019365D01*
X045015Y019349D01*
X045763D01*
X045840Y019365D01*
X045905Y019408D01*
X045948Y019473D01*
X045964Y019550D01*
X045948Y019627D01*
X045905Y019692D01*
X045840Y019735D01*
X045763Y019751D01*
X045015D01*
X044938Y019735D01*
X044873Y019692D01*
X044853Y019661D01*
X044496D01*
X044305Y019852D01*
X044312Y019900D01*
X044301Y019981D01*
X044270Y020056D01*
X044220Y020120D01*
X044196Y020139D01*
X044213Y020189D01*
X044450D01*
X044450Y020189D01*
X044493Y020197D01*
X044529Y020221D01*
X044746Y020439D01*
X044853D01*
X044873Y020408D01*
X044938Y020365D01*
X045015Y020349D01*
X045763D01*
X045840Y020365D01*
X045905Y020408D01*
X045948Y020473D01*
X045964Y020550D01*
X045948Y020627D01*
X045905Y020692D01*
X045840Y020735D01*
X045763Y020751D01*
X045015D01*
X044938Y020735D01*
X044873Y020692D01*
X044853Y020661D01*
X044700D01*
X044657Y020653D01*
X044621Y020629D01*
X044621Y020629D01*
X044404Y020411D01*
X039600D01*
X039557Y020403D01*
X039521Y020379D01*
X039521Y020379D01*
X039454Y020311D01*
X039166D01*
X039162Y020361D01*
X039190Y020365D01*
X039274Y020399D01*
X039345Y020455D01*
X039401Y020526D01*
X039435Y020610D01*
X039447Y020700D01*
X039435Y020790D01*
X039401Y020874D01*
X039345Y020945D01*
X039274Y021001D01*
X039190Y021035D01*
X039100Y021047D01*
X039010Y021035D01*
X038926Y021001D01*
X038855Y020945D01*
X038799Y020874D01*
X038765Y020790D01*
X038753Y020700D01*
X038765Y020610D01*
X038799Y020526D01*
X038855Y020455D01*
X038926Y020399D01*
X039010Y020365D01*
X039038Y020361D01*
X039034Y020311D01*
X037401D01*
X037391Y020359D01*
X037477Y020394D01*
X037550Y020450D01*
X037606Y020523D01*
X037637Y020600D01*
X036963D01*
X036994Y020523D01*
X037050Y020450D01*
X037123Y020394D01*
X037209Y020359D01*
X037199Y020311D01*
X036646D01*
X035409Y021548D01*
X035435Y021610D01*
X035447Y021700D01*
X035435Y021790D01*
X035401Y021874D01*
X035345Y021945D01*
X035274Y022001D01*
X035190Y022035D01*
X035100Y022047D01*
D02*
G37*
G36*
X053476Y019600D02*
X053338D01*
Y019423D01*
X053476D01*
Y019600D01*
D02*
G37*
G36*
X047800Y018637D02*
Y018400D01*
X048037D01*
X048006Y018477D01*
X047950Y018550D01*
X047877Y018606D01*
X047800Y018637D01*
D02*
G37*
G36*
X051981Y017894D02*
X051925Y017871D01*
X051860Y017821D01*
X051810Y017756D01*
X051787Y017700D01*
X051981D01*
Y017894D01*
D02*
G37*
G36*
X045763Y018251D02*
X045015D01*
X044938Y018235D01*
X044873Y018192D01*
X044830Y018127D01*
X044814Y018050D01*
X044830Y017973D01*
X044873Y017908D01*
X044938Y017865D01*
X045015Y017849D01*
X045763D01*
X045840Y017865D01*
X045905Y017908D01*
X045948Y017973D01*
X045964Y018050D01*
X045948Y018127D01*
X045905Y018192D01*
X045840Y018235D01*
X045763Y018251D01*
D02*
G37*
G36*
X049385D02*
X048637D01*
X048560Y018235D01*
X048495Y018192D01*
X048452Y018127D01*
X048436Y018050D01*
X048452Y017973D01*
X048495Y017908D01*
X048560Y017865D01*
X048637Y017849D01*
X049385D01*
X049462Y017865D01*
X049527Y017908D01*
X049570Y017973D01*
X049586Y018050D01*
X049570Y018127D01*
X049527Y018192D01*
X049462Y018235D01*
X049385Y018251D01*
D02*
G37*
G36*
X027000Y017737D02*
X026923Y017706D01*
X026850Y017650D01*
X026794Y017577D01*
X026763Y017500D01*
X027000D01*
Y017737D01*
D02*
G37*
G36*
X027200D02*
Y017500D01*
X027437D01*
X027406Y017577D01*
X027350Y017650D01*
X027277Y017706D01*
X027200Y017737D01*
D02*
G37*
G36*
X047000D02*
Y017500D01*
X047237D01*
X047206Y017577D01*
X047150Y017650D01*
X047077Y017706D01*
X047000Y017737D01*
D02*
G37*
G36*
X030337Y018300D02*
X030100D01*
Y018063D01*
X030177Y018094D01*
X030250Y018150D01*
X030306Y018223D01*
X030337Y018300D01*
D02*
G37*
G36*
X039100Y019047D02*
X039010Y019035D01*
X038926Y019001D01*
X038855Y018945D01*
X038799Y018874D01*
X038765Y018790D01*
X038753Y018700D01*
X038765Y018610D01*
X038799Y018526D01*
X038855Y018455D01*
X038926Y018399D01*
X039010Y018365D01*
X039100Y018353D01*
X039190Y018365D01*
X039274Y018399D01*
X039345Y018455D01*
X039401Y018526D01*
X039435Y018610D01*
X039447Y018700D01*
X039435Y018790D01*
X039401Y018874D01*
X039345Y018945D01*
X039274Y019001D01*
X039190Y019035D01*
X039100Y019047D01*
D02*
G37*
G36*
X047600Y018637D02*
X047523Y018606D01*
X047450Y018550D01*
X047394Y018477D01*
X047363Y018400D01*
X047600D01*
Y018637D01*
D02*
G37*
G36*
Y018200D02*
X047363D01*
X047394Y018123D01*
X047450Y018050D01*
X047523Y017994D01*
X047600Y017963D01*
Y018200D01*
D02*
G37*
G36*
X048037D02*
X047800D01*
Y017963D01*
X047877Y017994D01*
X047950Y018050D01*
X048006Y018123D01*
X048037Y018200D01*
D02*
G37*
G36*
X029900Y018300D02*
X029663D01*
X029694Y018223D01*
X029750Y018150D01*
X029823Y018094D01*
X029900Y018063D01*
Y018300D01*
D02*
G37*
G36*
X034720Y012594D02*
X034560D01*
Y012414D01*
X034720D01*
Y012594D01*
D02*
G37*
G36*
X035080D02*
X034920D01*
Y012414D01*
X035080D01*
Y012594D01*
D02*
G37*
G36*
X049500Y012894D02*
X049444Y012871D01*
X049379Y012821D01*
X049329Y012756D01*
X049306Y012700D01*
X049500D01*
Y012894D01*
D02*
G37*
G36*
X047136Y012849D02*
X046900D01*
Y012219D01*
X047136D01*
Y012849D01*
D02*
G37*
G36*
X038454Y012954D02*
X037746D01*
Y012246D01*
X038454D01*
Y012954D01*
D02*
G37*
G36*
X049500Y012500D02*
X049306D01*
X049329Y012444D01*
X049379Y012379D01*
X049444Y012329D01*
X049500Y012306D01*
Y012500D01*
D02*
G37*
G36*
X034100Y013000D02*
X033863D01*
X033894Y012923D01*
X033950Y012850D01*
X034023Y012794D01*
X034100Y012763D01*
Y013000D01*
D02*
G37*
G36*
X053000Y013400D02*
X052963D01*
X052994Y013323D01*
X053000Y013316D01*
Y013400D01*
D02*
G37*
G36*
X053000Y013684D02*
X052994Y013677D01*
X052963Y013600D01*
X053000D01*
X053000Y013684D01*
D02*
G37*
G36*
X037454Y014454D02*
X036746D01*
Y013746D01*
X037454D01*
Y014454D01*
D02*
G37*
G36*
X034554Y013000D02*
X034300D01*
Y012763D01*
X034377Y012794D01*
X034450Y012850D01*
X034506Y012923D01*
X034510Y012934D01*
X034560Y012924D01*
Y012794D01*
X034720D01*
Y012974D01*
X034581D01*
X034561Y012991D01*
X034554Y013000D01*
D02*
G37*
G36*
X034100Y013437D02*
X034023Y013406D01*
X033950Y013350D01*
X033894Y013277D01*
X033863Y013200D01*
X034100D01*
Y013437D01*
D02*
G37*
G36*
X034300D02*
Y013200D01*
X034537D01*
X034506Y013277D01*
X034450Y013350D01*
X034377Y013406D01*
X034300Y013437D01*
D02*
G37*
G36*
X056184Y011300D02*
X056100D01*
Y011263D01*
X056177Y011294D01*
X056184Y011300D01*
D02*
G37*
G36*
X056600D02*
X056516D01*
X056523Y011294D01*
X056600Y011263D01*
Y011300D01*
D02*
G37*
G36*
X056884D02*
X056800D01*
Y011263D01*
X056877Y011294D01*
X056884Y011300D01*
D02*
G37*
G36*
X055200D02*
X055116D01*
X055123Y011294D01*
X055200Y011263D01*
Y011300D01*
D02*
G37*
G36*
X055484D02*
X055400D01*
Y011263D01*
X055477Y011294D01*
X055484Y011300D01*
D02*
G37*
G36*
X055900D02*
X055816D01*
X055823Y011294D01*
X055900Y011263D01*
Y011300D01*
D02*
G37*
G36*
X025800Y013467D02*
X025633Y013454D01*
X025470Y013415D01*
X025315Y013351D01*
X025173Y013263D01*
X025045Y013155D01*
X024936Y013027D01*
X024849Y012885D01*
X024785Y012730D01*
X024746Y012567D01*
X024733Y012400D01*
X024746Y012233D01*
X024785Y012070D01*
X024849Y011915D01*
X024936Y011773D01*
X025045Y011645D01*
X025173Y011537D01*
X025315Y011449D01*
X025470Y011385D01*
X025633Y011346D01*
X025800Y011333D01*
X025967Y011346D01*
X026130Y011385D01*
X026285Y011449D01*
X026427Y011537D01*
X026555Y011645D01*
X026663Y011773D01*
X026751Y011915D01*
X026815Y012070D01*
X026854Y012233D01*
X026867Y012400D01*
X026854Y012567D01*
X026815Y012730D01*
X026751Y012885D01*
X026663Y013027D01*
X026555Y013155D01*
X026427Y013263D01*
X026285Y013351D01*
X026130Y013415D01*
X025967Y013454D01*
X025800Y013467D01*
D02*
G37*
G36*
X044900Y012337D02*
X044823Y012306D01*
X044750Y012250D01*
X044694Y012177D01*
X044663Y012100D01*
X044900D01*
Y012337D01*
D02*
G37*
G36*
X045100D02*
Y012100D01*
X045337D01*
X045306Y012177D01*
X045250Y012250D01*
X045177Y012306D01*
X045100Y012337D01*
D02*
G37*
G36*
X046700Y012849D02*
X046464D01*
Y012219D01*
X046700D01*
Y012849D01*
D02*
G37*
G36*
X044900Y011900D02*
X044663D01*
X044694Y011823D01*
X044750Y011750D01*
X044823Y011694D01*
X044900Y011663D01*
Y011900D01*
D02*
G37*
G36*
X045337D02*
X045100D01*
Y011663D01*
X045177Y011694D01*
X045250Y011750D01*
X045306Y011823D01*
X045337Y011900D01*
D02*
G37*
G36*
X035700Y012112D02*
X035619Y012101D01*
X035544Y012070D01*
X035480Y012020D01*
X035469Y012007D01*
X035419Y012024D01*
Y012099D01*
X034981D01*
Y011621D01*
X035419D01*
X035419Y011621D01*
Y011621D01*
X035462Y011602D01*
X035480Y011580D01*
X035544Y011530D01*
X035619Y011499D01*
X035700Y011488D01*
X035781Y011499D01*
X035856Y011530D01*
X035920Y011580D01*
X035970Y011644D01*
X036001Y011719D01*
X036012Y011800D01*
X036001Y011881D01*
X035970Y011956D01*
X035920Y012020D01*
X035856Y012070D01*
X035781Y012101D01*
X035700Y012112D01*
D02*
G37*
G36*
X026000Y015600D02*
X025725D01*
X025725Y015599D01*
X025764Y015506D01*
X025825Y015425D01*
X025906Y015364D01*
X026000Y015325D01*
X026000Y015325D01*
Y015600D01*
D02*
G37*
G36*
X026475D02*
X026200D01*
Y015325D01*
X026200Y015325D01*
X026294Y015364D01*
X026375Y015425D01*
X026436Y015506D01*
X026475Y015599D01*
X026475Y015600D01*
D02*
G37*
G36*
X037100Y016047D02*
X037010Y016035D01*
X036926Y016001D01*
X036855Y015945D01*
X036799Y015874D01*
X036765Y015790D01*
X036753Y015700D01*
X036765Y015610D01*
X036799Y015526D01*
X036855Y015455D01*
X036926Y015399D01*
X037010Y015365D01*
X037100Y015353D01*
X037190Y015365D01*
X037274Y015399D01*
X037345Y015455D01*
X037401Y015526D01*
X037435Y015610D01*
X037447Y015700D01*
X037435Y015790D01*
X037401Y015874D01*
X037345Y015945D01*
X037274Y016001D01*
X037190Y016035D01*
X037100Y016047D01*
D02*
G37*
G36*
X041998Y015200D02*
Y014963D01*
X042235D01*
X042203Y015039D01*
X042147Y015113D01*
X042074Y015169D01*
X041998Y015200D01*
D02*
G37*
G36*
X050000Y015162D02*
X049823D01*
Y015024D01*
X050000D01*
Y015162D01*
D02*
G37*
G36*
X050377D02*
X050200D01*
Y015024D01*
X050377D01*
Y015162D01*
D02*
G37*
G36*
X035900Y017812D02*
X035819Y017801D01*
X035744Y017770D01*
X035680Y017720D01*
X035630Y017656D01*
X035599Y017581D01*
X035588Y017500D01*
X035599Y017419D01*
X035630Y017344D01*
X035680Y017280D01*
X035744Y017230D01*
X035819Y017199D01*
X035900Y017188D01*
X035981Y017199D01*
X036056Y017230D01*
X036120Y017280D01*
X036170Y017344D01*
X036188Y017389D01*
X036254D01*
X037791Y015852D01*
X037765Y015790D01*
X037753Y015700D01*
X037765Y015610D01*
X037799Y015526D01*
X037855Y015455D01*
X037926Y015399D01*
X038010Y015365D01*
X038100Y015353D01*
X038190Y015365D01*
X038274Y015399D01*
X038345Y015455D01*
X038401Y015526D01*
X038435Y015610D01*
X038447Y015700D01*
X038435Y015790D01*
X038401Y015874D01*
X038345Y015945D01*
X038274Y016001D01*
X038190Y016035D01*
X038100Y016047D01*
X038010Y016035D01*
X037948Y016009D01*
X036379Y017579D01*
X036343Y017603D01*
X036300Y017611D01*
X036300Y017611D01*
X036188D01*
X036170Y017656D01*
X036120Y017720D01*
X036056Y017770D01*
X035981Y017801D01*
X035900Y017812D01*
D02*
G37*
G36*
X048537Y015800D02*
X048300D01*
Y015563D01*
X048377Y015594D01*
X048450Y015650D01*
X048506Y015723D01*
X048537Y015800D01*
D02*
G37*
G36*
X044021Y016411D02*
X042978D01*
Y015781D01*
X043215D01*
X043230Y015744D01*
X043280Y015680D01*
X043344Y015630D01*
X043419Y015599D01*
X043500Y015588D01*
X043581Y015599D01*
X043656Y015630D01*
X043720Y015680D01*
X043770Y015744D01*
X043785Y015781D01*
X044021D01*
Y016411D01*
D02*
G37*
G36*
X033100Y022047D02*
X033010Y022035D01*
X032926Y022001D01*
X032855Y021945D01*
X032799Y021874D01*
X032765Y021790D01*
X032753Y021700D01*
X032765Y021610D01*
X032799Y021526D01*
X032855Y021455D01*
X032926Y021399D01*
X033010Y021365D01*
X033100Y021353D01*
X033190Y021365D01*
X033252Y021391D01*
X034489Y020154D01*
Y015766D01*
X034439Y015762D01*
X034435Y015790D01*
X034401Y015874D01*
X034345Y015945D01*
X034274Y016001D01*
X034190Y016035D01*
X034100Y016047D01*
X034010Y016035D01*
X033926Y016001D01*
X033867Y015955D01*
X033817Y015973D01*
Y019994D01*
X033809Y020037D01*
X033785Y020073D01*
X033785Y020073D01*
X033183Y020675D01*
X033201Y020719D01*
X033212Y020800D01*
X033201Y020881D01*
X033170Y020956D01*
X033120Y021020D01*
X033056Y021070D01*
X032981Y021101D01*
X032900Y021112D01*
X032819Y021101D01*
X032744Y021070D01*
X032680Y021020D01*
X032630Y020956D01*
X032599Y020881D01*
X032588Y020800D01*
X032599Y020719D01*
X032630Y020644D01*
X032680Y020580D01*
X032744Y020530D01*
X032819Y020499D01*
X032900Y020488D01*
X032981Y020499D01*
X033025Y020517D01*
X033595Y019948D01*
Y014562D01*
X033595Y014562D01*
X033603Y014519D01*
X033627Y014483D01*
X035092Y013019D01*
X035066Y012974D01*
X035036Y012974D01*
X034920D01*
Y012794D01*
X035080D01*
Y012926D01*
X035080Y012960D01*
X035125Y012985D01*
X035355Y012756D01*
Y012455D01*
X035793D01*
Y012933D01*
X035492D01*
X033817Y014608D01*
Y015427D01*
X033867Y015445D01*
X033926Y015399D01*
X033989Y015374D01*
Y014892D01*
X033989Y014892D01*
X033997Y014850D01*
X034021Y014814D01*
X037714Y011121D01*
X037714Y011121D01*
X037750Y011097D01*
X037792Y011089D01*
X037792Y011089D01*
X048600D01*
X048600Y011089D01*
X048643Y011097D01*
X048679Y011121D01*
X049105Y011548D01*
X049130Y011538D01*
X049200Y011529D01*
X049270Y011538D01*
X049336Y011565D01*
X049392Y011608D01*
X049435Y011664D01*
X049462Y011730D01*
X049471Y011800D01*
X049462Y011870D01*
X049435Y011936D01*
X049392Y011992D01*
X049336Y012035D01*
X049270Y012062D01*
X049200Y012071D01*
X049130Y012062D01*
X049064Y012035D01*
X049008Y011992D01*
X048980Y011956D01*
X048974Y011953D01*
X048926D01*
X048920Y011956D01*
X048892Y011992D01*
X048836Y012035D01*
X048770Y012062D01*
X048700Y012071D01*
X048630Y012062D01*
X048564Y012035D01*
X048508Y011992D01*
X048465Y011936D01*
X048438Y011870D01*
X048429Y011800D01*
X048438Y011730D01*
X048448Y011705D01*
X048213Y011470D01*
X047136D01*
Y012019D01*
X046464D01*
Y011470D01*
X043793D01*
X043774Y011516D01*
X045246Y012989D01*
X047654D01*
X048121Y012521D01*
X048121Y012521D01*
X048157Y012497D01*
X048200Y012489D01*
X048200Y012489D01*
X048355D01*
X048365Y012464D01*
X048408Y012408D01*
X048464Y012365D01*
X048530Y012338D01*
X048600Y012329D01*
X048670Y012338D01*
X048736Y012365D01*
X048792Y012408D01*
X048835Y012464D01*
X048862Y012530D01*
X048871Y012600D01*
X048862Y012670D01*
X048835Y012736D01*
X048792Y012792D01*
X048736Y012835D01*
X048670Y012862D01*
X048600Y012871D01*
X048530Y012862D01*
X048464Y012835D01*
X048408Y012792D01*
X048365Y012736D01*
X048355Y012711D01*
X048246D01*
X047779Y013179D01*
X047743Y013203D01*
X047700Y013211D01*
X047700Y013211D01*
X045200D01*
X045157Y013203D01*
X045121Y013179D01*
X045121Y013179D01*
X043572Y011629D01*
X042160D01*
X042141Y011675D01*
X042402Y011937D01*
X042448Y011918D01*
Y011825D01*
X042467Y011780D01*
X042512Y011761D01*
X043299D01*
X043303Y011763D01*
X043307Y011762D01*
X043365Y011769D01*
X043372Y011774D01*
X043381D01*
X043453Y011803D01*
X043459Y011810D01*
X043467Y011812D01*
X043529Y011859D01*
X043533Y011867D01*
X043541Y011871D01*
X043588Y011933D01*
X043590Y011941D01*
X043597Y011947D01*
X043626Y012019D01*
Y012028D01*
X043631Y012035D01*
X043638Y012093D01*
X043637Y012097D01*
X043639Y012101D01*
Y013781D01*
X043775Y013917D01*
X043819Y013899D01*
X043900Y013888D01*
X043981Y013899D01*
X044056Y013930D01*
X044120Y013980D01*
X044170Y014044D01*
X044201Y014119D01*
X044212Y014200D01*
X044201Y014281D01*
X044170Y014356D01*
X044120Y014420D01*
X044056Y014470D01*
X043981Y014501D01*
X043900Y014512D01*
X043819Y014501D01*
X043744Y014470D01*
X043689Y014427D01*
X043639Y014442D01*
Y014699D01*
X043637Y014703D01*
X043638Y014707D01*
X043631Y014765D01*
X043626Y014772D01*
Y014781D01*
X043597Y014853D01*
X043590Y014859D01*
X043588Y014867D01*
X043541Y014929D01*
X043533Y014933D01*
X043529Y014941D01*
X043467Y014988D01*
X043459Y014990D01*
X043453Y014997D01*
X043381Y015026D01*
X043372D01*
X043365Y015031D01*
X043307Y015038D01*
X043303Y015037D01*
X043299Y015039D01*
X042950D01*
X042948Y015055D01*
X042917Y015130D01*
X042868Y015194D01*
X042803Y015244D01*
X042728Y015275D01*
X042647Y015286D01*
X042567Y015275D01*
X042491Y015244D01*
X042427Y015194D01*
X042377Y015130D01*
X042346Y015055D01*
X042336Y014974D01*
X042346Y014893D01*
X042377Y014818D01*
X042427Y014754D01*
X042448Y014737D01*
Y012297D01*
X042293Y012142D01*
X042245Y012158D01*
X042241Y012191D01*
X042206Y012277D01*
X042150Y012350D01*
X042077Y012406D01*
X042000Y012437D01*
Y012100D01*
X041800D01*
Y012437D01*
X041723Y012406D01*
X041650Y012350D01*
X041602Y012287D01*
X041558Y012296D01*
X041552Y012300D01*
Y014656D01*
X041602Y014673D01*
X041648Y014613D01*
X041721Y014557D01*
X041798Y014525D01*
Y014863D01*
Y015200D01*
X041721Y015169D01*
X041648Y015113D01*
X041592Y015039D01*
X041586Y015024D01*
X041533Y015020D01*
X041488Y015039D01*
X040720D01*
X040720Y015039D01*
X040701Y015039D01*
X040697Y015037D01*
X040693Y015038D01*
X040635Y015031D01*
X040628Y015026D01*
X040619D01*
X040547Y014997D01*
X040541Y014990D01*
X040533Y014988D01*
X040471Y014941D01*
X040467Y014933D01*
X040459Y014929D01*
X040412Y014867D01*
X040410Y014859D01*
X040403Y014853D01*
X040374Y014781D01*
Y014772D01*
X040369Y014765D01*
X040362Y014707D01*
X040363Y014703D01*
X040361Y014699D01*
Y014218D01*
X040315Y014199D01*
X039792Y014722D01*
Y017033D01*
X039842Y017057D01*
X039854Y017048D01*
X039925Y017019D01*
X040000Y017009D01*
X040075Y017019D01*
X040146Y017048D01*
X040206Y017094D01*
X040252Y017154D01*
X040281Y017225D01*
X040291Y017300D01*
X040281Y017375D01*
X040275Y017390D01*
X040450Y017564D01*
X040615D01*
Y017254D01*
X040574D01*
Y017205D01*
X040615D01*
Y017193D01*
X040851D01*
Y017019D01*
X040574D01*
Y017019D01*
X040565D01*
X040522Y017011D01*
X040486Y016987D01*
X040462Y016950D01*
X040453Y016908D01*
Y016228D01*
X040453Y016228D01*
X040462Y016185D01*
X040486Y016149D01*
X040873Y015762D01*
X040909Y015738D01*
X040951Y015730D01*
X041460D01*
X041460Y015730D01*
X041502Y015738D01*
X041538Y015762D01*
X042314Y016538D01*
X042314Y016538D01*
X042338Y016574D01*
X042347Y016617D01*
X042347Y016617D01*
Y016805D01*
X042338Y016848D01*
X042314Y016884D01*
X042314Y016884D01*
X042249Y016949D01*
X042213Y016973D01*
X042185Y016978D01*
Y017152D01*
X042226D01*
Y017202D01*
X042185D01*
Y017213D01*
X041949D01*
Y017390D01*
X042185D01*
Y017402D01*
X042226D01*
Y017430D01*
X042241Y017441D01*
X042275Y017453D01*
X042334Y017408D01*
X042414Y017375D01*
X042500Y017364D01*
X042586Y017375D01*
X042666Y017408D01*
X042734Y017461D01*
X042787Y017529D01*
X042820Y017609D01*
X042832Y017695D01*
X042820Y017781D01*
X042787Y017861D01*
X042734Y017930D01*
X042666Y017982D01*
X042631Y017997D01*
Y018300D01*
X042621Y018350D01*
X042593Y018393D01*
X042193Y018793D01*
X042150Y018821D01*
X042100Y018831D01*
X040458D01*
X040452Y018846D01*
X040406Y018906D01*
X040346Y018952D01*
X040275Y018981D01*
X040200Y018991D01*
X040125Y018981D01*
X040054Y018952D01*
X039994Y018906D01*
X039948Y018846D01*
X039919Y018775D01*
X039909Y018700D01*
X039919Y018625D01*
X039925Y018610D01*
X039429Y018115D01*
X039401Y018072D01*
X039391Y018022D01*
Y017961D01*
X039381Y017957D01*
X039341Y017949D01*
X039274Y018001D01*
X039190Y018035D01*
X039100Y018047D01*
X039010Y018035D01*
X038926Y018001D01*
X038855Y017945D01*
X038799Y017874D01*
X038765Y017790D01*
X038753Y017700D01*
X038765Y017610D01*
X038799Y017526D01*
X038855Y017455D01*
X038926Y017399D01*
X039010Y017365D01*
X039100Y017353D01*
X039190Y017365D01*
X039274Y017399D01*
X039341Y017451D01*
X039381Y017443D01*
X039391Y017439D01*
Y016961D01*
X039381Y016957D01*
X039341Y016949D01*
X039274Y017001D01*
X039190Y017035D01*
X039100Y017047D01*
X039010Y017035D01*
X038926Y017001D01*
X038855Y016945D01*
X038799Y016874D01*
X038765Y016790D01*
X038753Y016700D01*
X038765Y016610D01*
X038799Y016526D01*
X038855Y016455D01*
X038926Y016399D01*
X039010Y016365D01*
X039100Y016353D01*
X039190Y016365D01*
X039274Y016399D01*
X039341Y016451D01*
X039381Y016443D01*
X039391Y016439D01*
Y015961D01*
X039381Y015957D01*
X039341Y015949D01*
X039274Y016001D01*
X039190Y016035D01*
X039100Y016047D01*
X039010Y016035D01*
X038926Y016001D01*
X038855Y015945D01*
X038799Y015874D01*
X038765Y015790D01*
X038753Y015700D01*
X038765Y015610D01*
X038799Y015526D01*
X038855Y015455D01*
X038926Y015399D01*
X039010Y015365D01*
X039100Y015353D01*
X039190Y015365D01*
X039274Y015399D01*
X039341Y015451D01*
X039381Y015443D01*
X039391Y015439D01*
Y015276D01*
X038443Y014329D01*
X038393Y014332D01*
X038367Y014367D01*
X038289Y014427D01*
X038198Y014464D01*
X038100Y014477D01*
X038002Y014464D01*
X037911Y014427D01*
X037833Y014367D01*
X037773Y014289D01*
X037736Y014198D01*
X037723Y014100D01*
X037736Y014002D01*
X037773Y013911D01*
X037833Y013833D01*
X037911Y013773D01*
X038002Y013736D01*
X038100Y013723D01*
X038198Y013736D01*
X038289Y013773D01*
X038367Y013833D01*
X038427Y013911D01*
X038456Y013983D01*
X038493Y014007D01*
X038557Y014071D01*
X038610Y014053D01*
X038621Y013972D01*
X038670Y013852D01*
X038749Y013749D01*
X038852Y013670D01*
X038972Y013621D01*
X039100Y013604D01*
X039228Y013621D01*
X039348Y013670D01*
X039451Y013749D01*
X039530Y013852D01*
X039579Y013972D01*
X039596Y014100D01*
X039579Y014228D01*
X039530Y014348D01*
X039451Y014451D01*
X039348Y014530D01*
X039228Y014579D01*
X039147Y014590D01*
X039129Y014643D01*
X039524Y015038D01*
X039570Y015019D01*
Y014676D01*
X039570Y014676D01*
X039578Y014633D01*
X039602Y014597D01*
X040361Y013838D01*
Y012101D01*
X040363Y012097D01*
X040362Y012093D01*
X040369Y012035D01*
X040374Y012028D01*
Y012019D01*
X040403Y011947D01*
X040410Y011941D01*
X040412Y011933D01*
X040459Y011871D01*
X040467Y011867D01*
X040470Y011861D01*
X040467Y011849D01*
X040451Y011811D01*
X040046D01*
X039417Y012440D01*
X039445Y012507D01*
X039457Y012600D01*
X039445Y012693D01*
X039410Y012779D01*
X039353Y012853D01*
X039279Y012910D01*
X039193Y012945D01*
X039100Y012957D01*
X039007Y012945D01*
X038921Y012910D01*
X038847Y012853D01*
X038790Y012779D01*
X038755Y012693D01*
X038743Y012600D01*
X038755Y012507D01*
X038790Y012421D01*
X038847Y012347D01*
X038921Y012290D01*
X039007Y012255D01*
X039100Y012243D01*
X039193Y012255D01*
X039260Y012283D01*
X039867Y011675D01*
X039848Y011629D01*
X038228D01*
X036670Y013187D01*
Y015241D01*
X036670Y015241D01*
X036662Y015283D01*
X036638Y015320D01*
X036638Y015320D01*
X036409Y015548D01*
X036435Y015610D01*
X036447Y015700D01*
X036435Y015790D01*
X036401Y015874D01*
X036345Y015945D01*
X036274Y016001D01*
X036190Y016035D01*
X036100Y016047D01*
X036010Y016035D01*
X035926Y016001D01*
X035855Y015945D01*
X035799Y015874D01*
X035765Y015790D01*
X035753Y015700D01*
X035765Y015610D01*
X035799Y015526D01*
X035855Y015455D01*
X035926Y015399D01*
X036010Y015365D01*
X036100Y015353D01*
X036190Y015365D01*
X036252Y015391D01*
X036448Y015195D01*
Y013180D01*
X036398Y013159D01*
X036011Y013546D01*
Y014900D01*
X036011Y014900D01*
X036003Y014943D01*
X035979Y014979D01*
X035409Y015548D01*
X035435Y015610D01*
X035447Y015700D01*
X035435Y015790D01*
X035401Y015874D01*
X035345Y015945D01*
X035274Y016001D01*
X035190Y016035D01*
X035100Y016047D01*
X035010Y016035D01*
X034926Y016001D01*
X034855Y015945D01*
X034799Y015874D01*
X034765Y015790D01*
X034761Y015762D01*
X034711Y015766D01*
Y020200D01*
X034703Y020243D01*
X034679Y020279D01*
X034679Y020279D01*
X033409Y021548D01*
X033435Y021610D01*
X033447Y021700D01*
X033435Y021790D01*
X033401Y021874D01*
X033345Y021945D01*
X033274Y022001D01*
X033190Y022035D01*
X033100Y022047D01*
D02*
G37*
G36*
X043900Y015637D02*
X043823Y015606D01*
X043750Y015550D01*
X043694Y015477D01*
X043663Y015400D01*
X043900D01*
Y015637D01*
D02*
G37*
G36*
X044100D02*
Y015400D01*
X044337D01*
X044306Y015477D01*
X044250Y015550D01*
X044177Y015606D01*
X044100Y015637D01*
D02*
G37*
G36*
X048100Y015800D02*
X047863D01*
X047894Y015723D01*
X047950Y015650D01*
X048023Y015594D01*
X048100Y015563D01*
Y015800D01*
D02*
G37*
G36*
X049540Y014156D02*
X049300D01*
Y013977D01*
X049540D01*
Y014156D01*
D02*
G37*
G36*
X033100Y016047D02*
X033010Y016035D01*
X032926Y016001D01*
X032855Y015945D01*
X032799Y015874D01*
X032765Y015790D01*
X032753Y015700D01*
X032765Y015610D01*
X032799Y015526D01*
X032855Y015455D01*
X032926Y015399D01*
X032954Y015388D01*
Y014459D01*
X032876Y014427D01*
X032798Y014367D01*
X032738Y014289D01*
X032700Y014198D01*
X032696Y014167D01*
X032646D01*
X032642Y014198D01*
X032604Y014289D01*
X032544Y014367D01*
X032466Y014427D01*
X032389Y014459D01*
Y015511D01*
X032401Y015526D01*
X032435Y015610D01*
X032447Y015700D01*
X032435Y015790D01*
X032401Y015874D01*
X032345Y015945D01*
X032274Y016001D01*
X032190Y016035D01*
X032100Y016047D01*
X032010Y016035D01*
X031926Y016001D01*
X031855Y015945D01*
X031799Y015874D01*
X031765Y015790D01*
X031753Y015700D01*
X031765Y015610D01*
X031799Y015526D01*
X031855Y015455D01*
X031926Y015399D01*
X032010Y015365D01*
X032100Y015353D01*
X032129Y015357D01*
X032166Y015324D01*
Y014459D01*
X032089Y014427D01*
X032011Y014367D01*
X031951Y014289D01*
X031913Y014198D01*
X031909Y014167D01*
X031858D01*
X031854Y014198D01*
X031817Y014289D01*
X031757Y014367D01*
X031679Y014427D01*
X031601Y014459D01*
Y015310D01*
X031593Y015353D01*
X031569Y015389D01*
X031569Y015389D01*
X031409Y015548D01*
X031435Y015610D01*
X031447Y015700D01*
X031435Y015790D01*
X031401Y015874D01*
X031345Y015945D01*
X031274Y016001D01*
X031190Y016035D01*
X031100Y016047D01*
X031010Y016035D01*
X030926Y016001D01*
X030855Y015945D01*
X030799Y015874D01*
X030765Y015790D01*
X030753Y015700D01*
X030765Y015610D01*
X030799Y015526D01*
X030855Y015455D01*
X030926Y015399D01*
X031010Y015365D01*
X031100Y015353D01*
X031190Y015365D01*
X031252Y015391D01*
X031379Y015264D01*
Y014459D01*
X031301Y014427D01*
X031223Y014367D01*
X031163Y014289D01*
X031126Y014198D01*
X031120Y014157D01*
X031070D01*
X031064Y014198D01*
X031027Y014289D01*
X030967Y014367D01*
X030889Y014427D01*
X030811Y014459D01*
Y015100D01*
X030803Y015143D01*
X030779Y015179D01*
X030409Y015548D01*
X030435Y015610D01*
X030447Y015700D01*
X030435Y015790D01*
X030401Y015874D01*
X030345Y015945D01*
X030274Y016001D01*
X030190Y016035D01*
X030100Y016047D01*
X030010Y016035D01*
X029926Y016001D01*
X029855Y015945D01*
X029799Y015874D01*
X029765Y015790D01*
X029753Y015700D01*
X029765Y015610D01*
X029799Y015526D01*
X029855Y015455D01*
X029926Y015399D01*
X030010Y015365D01*
X030100Y015353D01*
X030190Y015365D01*
X030252Y015391D01*
X030589Y015054D01*
Y014459D01*
X030511Y014427D01*
X030433Y014367D01*
X030373Y014289D01*
X030336Y014198D01*
X030330Y014157D01*
X030280D01*
X030274Y014198D01*
X030237Y014289D01*
X030177Y014367D01*
X030099Y014427D01*
X030021Y014459D01*
Y014890D01*
X030021Y014890D01*
X030013Y014933D01*
X029989Y014969D01*
X029409Y015548D01*
X029435Y015610D01*
X029447Y015700D01*
X029435Y015790D01*
X029401Y015874D01*
X029345Y015945D01*
X029274Y016001D01*
X029190Y016035D01*
X029100Y016047D01*
X029010Y016035D01*
X028926Y016001D01*
X028855Y015945D01*
X028799Y015874D01*
X028765Y015790D01*
X028753Y015700D01*
X028765Y015610D01*
X028799Y015526D01*
X028855Y015455D01*
X028926Y015399D01*
X029010Y015365D01*
X029100Y015353D01*
X029190Y015365D01*
X029252Y015391D01*
X029799Y014844D01*
Y014459D01*
X029721Y014427D01*
X029643Y014367D01*
X029583Y014289D01*
X029546Y014198D01*
X029544Y014187D01*
X029494D01*
X029492Y014198D01*
X029455Y014289D01*
X029395Y014367D01*
X029316Y014427D01*
X029239Y014459D01*
Y014672D01*
X029239Y014672D01*
X029231Y014715D01*
X029206Y014751D01*
X029206Y014751D01*
X028409Y015548D01*
X028435Y015610D01*
X028447Y015700D01*
X028435Y015790D01*
X028401Y015874D01*
X028345Y015945D01*
X028274Y016001D01*
X028190Y016035D01*
X028100Y016047D01*
X028010Y016035D01*
X027926Y016001D01*
X027855Y015945D01*
X027799Y015874D01*
X027765Y015790D01*
X027753Y015700D01*
X027765Y015610D01*
X027799Y015526D01*
X027855Y015455D01*
X027926Y015399D01*
X028010Y015365D01*
X028100Y015353D01*
X028190Y015365D01*
X028252Y015391D01*
X029017Y014626D01*
Y014459D01*
X028939Y014427D01*
X028861Y014367D01*
X028801Y014289D01*
X028763Y014198D01*
X028759Y014167D01*
X028709D01*
X028705Y014198D01*
X028667Y014289D01*
X028607Y014367D01*
X028529Y014427D01*
X028452Y014459D01*
Y014460D01*
X028452Y014460D01*
X028443Y014502D01*
X028419Y014538D01*
X027409Y015548D01*
X027435Y015610D01*
X027447Y015700D01*
X027435Y015790D01*
X027401Y015874D01*
X027345Y015945D01*
X027274Y016001D01*
X027190Y016035D01*
X027100Y016047D01*
X027010Y016035D01*
X026926Y016001D01*
X026855Y015945D01*
X026799Y015874D01*
X026765Y015790D01*
X026753Y015700D01*
X026765Y015610D01*
X026799Y015526D01*
X026855Y015455D01*
X026926Y015399D01*
X027010Y015365D01*
X027100Y015353D01*
X027190Y015365D01*
X027252Y015391D01*
X028165Y014477D01*
X028157Y014437D01*
X028148Y014424D01*
X028074Y014367D01*
X028014Y014289D01*
X027976Y014198D01*
X027963Y014100D01*
X027976Y014002D01*
X028014Y013911D01*
X028074Y013833D01*
X028152Y013773D01*
X028243Y013736D01*
X028340Y013723D01*
X028438Y013736D01*
X028529Y013773D01*
X028607Y013833D01*
X028667Y013911D01*
X028705Y014002D01*
X028709Y014033D01*
X028759D01*
X028763Y014002D01*
X028801Y013911D01*
X028861Y013833D01*
X028939Y013773D01*
X029030Y013736D01*
X029128Y013723D01*
X029225Y013736D01*
X029316Y013773D01*
X029395Y013833D01*
X029455Y013911D01*
X029492Y014002D01*
X029494Y014013D01*
X029544D01*
X029546Y014002D01*
X029583Y013911D01*
X029643Y013833D01*
X029721Y013773D01*
X029812Y013736D01*
X029910Y013723D01*
X030008Y013736D01*
X030099Y013773D01*
X030177Y013833D01*
X030237Y013911D01*
X030274Y014002D01*
X030280Y014043D01*
X030330D01*
X030336Y014002D01*
X030373Y013911D01*
X030433Y013833D01*
X030511Y013773D01*
X030602Y013736D01*
X030700Y013723D01*
X030798Y013736D01*
X030889Y013773D01*
X030967Y013833D01*
X031027Y013911D01*
X031064Y014002D01*
X031070Y014043D01*
X031120D01*
X031126Y014002D01*
X031163Y013911D01*
X031223Y013833D01*
X031301Y013773D01*
X031392Y013736D01*
X031490Y013723D01*
X031588Y013736D01*
X031679Y013773D01*
X031757Y013833D01*
X031817Y013911D01*
X031854Y014002D01*
X031858Y014033D01*
X031909D01*
X031913Y014002D01*
X031951Y013911D01*
X032011Y013833D01*
X032089Y013773D01*
X032180Y013736D01*
X032277Y013723D01*
X032375Y013736D01*
X032466Y013773D01*
X032544Y013833D01*
X032604Y013911D01*
X032642Y014002D01*
X032646Y014033D01*
X032696D01*
X032700Y014002D01*
X032738Y013911D01*
X032798Y013833D01*
X032876Y013773D01*
X032967Y013736D01*
X033065Y013723D01*
X033162Y013736D01*
X033253Y013773D01*
X033332Y013833D01*
X033392Y013911D01*
X033429Y014002D01*
X033442Y014100D01*
X033429Y014198D01*
X033392Y014289D01*
X033332Y014367D01*
X033253Y014427D01*
X033176Y014459D01*
Y015363D01*
X033190Y015365D01*
X033274Y015399D01*
X033345Y015455D01*
X033401Y015526D01*
X033435Y015610D01*
X033447Y015700D01*
X033435Y015790D01*
X033401Y015874D01*
X033345Y015945D01*
X033274Y016001D01*
X033190Y016035D01*
X033100Y016047D01*
D02*
G37*
G36*
X025900Y014537D02*
X025823Y014506D01*
X025750Y014450D01*
X025694Y014377D01*
X025663Y014300D01*
X025900D01*
Y014537D01*
D02*
G37*
G36*
Y014100D02*
X025663D01*
X025694Y014023D01*
X025750Y013950D01*
X025823Y013894D01*
X025900Y013863D01*
Y014100D01*
D02*
G37*
G36*
X026337D02*
X026100D01*
Y013863D01*
X026177Y013894D01*
X026250Y013950D01*
X026306Y014023D01*
X026337Y014100D01*
D02*
G37*
G36*
X049100Y014156D02*
X048860D01*
Y013977D01*
X049100D01*
Y014156D01*
D02*
G37*
G36*
X026100Y014537D02*
Y014300D01*
X026337D01*
X026306Y014377D01*
X026250Y014450D01*
X026177Y014506D01*
X026100Y014537D01*
D02*
G37*
G36*
X050377Y014824D02*
X050200D01*
Y014687D01*
X050377D01*
Y014824D01*
D02*
G37*
G36*
X043900Y015200D02*
X043663D01*
X043694Y015123D01*
X043750Y015050D01*
X043823Y014994D01*
X043900Y014963D01*
Y015200D01*
D02*
G37*
G36*
X044337D02*
X044100D01*
Y014963D01*
X044177Y014994D01*
X044250Y015050D01*
X044306Y015123D01*
X044337Y015200D01*
D02*
G37*
G36*
X049100Y014535D02*
X048860D01*
Y014356D01*
X049100D01*
Y014535D01*
D02*
G37*
G36*
X049540D02*
X049300D01*
Y014356D01*
X049540D01*
Y014535D01*
D02*
G37*
G36*
X042235Y014763D02*
X041998D01*
Y014525D01*
X042074Y014557D01*
X042147Y014613D01*
X042203Y014686D01*
X042235Y014763D01*
D02*
G37*
G36*
X052300Y020500D02*
X052063D01*
X052094Y020423D01*
X052150Y020350D01*
X052223Y020294D01*
X052300Y020263D01*
Y020500D01*
D02*
G37*
G36*
X061700Y027037D02*
Y026800D01*
X061937D01*
X061906Y026877D01*
X061850Y026950D01*
X061777Y027006D01*
X061700Y027037D01*
D02*
G37*
G36*
X051916Y027173D02*
X051839Y027142D01*
X051766Y027085D01*
X051710Y027012D01*
X051678Y026936D01*
X051916D01*
Y027173D01*
D02*
G37*
G36*
X052116D02*
Y026936D01*
X052353D01*
X052321Y027012D01*
X052265Y027085D01*
X052192Y027142D01*
X052116Y027173D01*
D02*
G37*
G36*
X051916Y026736D02*
X051678D01*
X051710Y026659D01*
X051766Y026586D01*
X051839Y026530D01*
X051916Y026498D01*
Y026736D01*
D02*
G37*
G36*
X052353D02*
X052116D01*
Y026498D01*
X052192Y026530D01*
X052265Y026586D01*
X052321Y026659D01*
X052353Y026736D01*
D02*
G37*
G36*
X061500Y027037D02*
X061423Y027006D01*
X061350Y026950D01*
X061294Y026877D01*
X061263Y026800D01*
X061500D01*
Y027037D01*
D02*
G37*
G36*
X066100Y027400D02*
X065863D01*
X065894Y027323D01*
X065950Y027250D01*
X066023Y027194D01*
X066100Y027163D01*
Y027400D01*
D02*
G37*
G36*
X066300Y027837D02*
Y027600D01*
X066537D01*
X066506Y027677D01*
X066450Y027750D01*
X066377Y027806D01*
X066300Y027837D01*
D02*
G37*
G36*
X032666Y028436D02*
X032428D01*
X032460Y028359D01*
X032516Y028286D01*
X032589Y028230D01*
X032666Y028198D01*
Y028436D01*
D02*
G37*
G36*
X033103D02*
X032866D01*
Y028198D01*
X032942Y028230D01*
X033015Y028286D01*
X033071Y028359D01*
X033103Y028436D01*
D02*
G37*
G36*
X066537Y027400D02*
X066300D01*
Y027163D01*
X066377Y027194D01*
X066450Y027250D01*
X066506Y027323D01*
X066537Y027400D01*
D02*
G37*
G36*
X051966Y029457D02*
X051895Y029448D01*
X051830Y029421D01*
X051774Y029378D01*
X051731Y029322D01*
X051704Y029256D01*
X051694Y029186D01*
X051704Y029116D01*
X051731Y029050D01*
X051774Y028994D01*
X051830Y028951D01*
X051895Y028924D01*
X051966Y028914D01*
X051977Y028916D01*
X052015Y028883D01*
Y027531D01*
X052625D01*
Y028969D01*
X052376D01*
X052228Y029117D01*
X052237Y029186D01*
X052228Y029256D01*
X052201Y029322D01*
X052158Y029378D01*
X052101Y029421D01*
X052036Y029448D01*
X051966Y029457D01*
D02*
G37*
G36*
X066100Y027837D02*
X066023Y027806D01*
X065950Y027750D01*
X065894Y027677D01*
X065863Y027600D01*
X066100D01*
Y027837D01*
D02*
G37*
G36*
X067094Y025400D02*
X066900D01*
Y025206D01*
X066956Y025229D01*
X067021Y025279D01*
X067071Y025344D01*
X067094Y025400D01*
D02*
G37*
G36*
X048866Y025786D02*
X048628D01*
X048660Y025709D01*
X048716Y025636D01*
X048789Y025580D01*
X048866Y025548D01*
Y025786D01*
D02*
G37*
G36*
X049303D02*
X049066D01*
Y025548D01*
X049142Y025580D01*
X049215Y025636D01*
X049271Y025709D01*
X049303Y025786D01*
D02*
G37*
G36*
X054500Y024737D02*
X054423Y024706D01*
X054350Y024650D01*
X054294Y024577D01*
X054263Y024500D01*
X054500D01*
Y024737D01*
D02*
G37*
G36*
X054700D02*
Y024500D01*
X054937D01*
X054906Y024577D01*
X054850Y024650D01*
X054777Y024706D01*
X054700Y024737D01*
D02*
G37*
G36*
X066700Y025400D02*
X066506D01*
X066529Y025344D01*
X066579Y025279D01*
X066644Y025229D01*
X066700Y025206D01*
Y025400D01*
D02*
G37*
G36*
Y025794D02*
X066644Y025771D01*
X066579Y025721D01*
X066529Y025656D01*
X066506Y025600D01*
X066700D01*
Y025794D01*
D02*
G37*
G36*
X067433Y026266D02*
X067146D01*
Y026174D01*
X067273D01*
X067346Y026188D01*
X067409Y026230D01*
X067433Y026266D01*
D02*
G37*
G36*
X061500Y026600D02*
X061263D01*
X061294Y026523D01*
X061350Y026450D01*
X061423Y026394D01*
X061500Y026363D01*
Y026600D01*
D02*
G37*
G36*
X061937D02*
X061700D01*
Y026363D01*
X061777Y026394D01*
X061850Y026450D01*
X061906Y026523D01*
X061937Y026600D01*
D02*
G37*
G36*
X066900Y025794D02*
Y025600D01*
X067094D01*
X067071Y025656D01*
X067021Y025721D01*
X066956Y025771D01*
X066900Y025794D01*
D02*
G37*
G36*
X048866Y026223D02*
X048789Y026192D01*
X048716Y026135D01*
X048660Y026062D01*
X048628Y025986D01*
X048866D01*
Y026223D01*
D02*
G37*
G36*
X049066D02*
Y025986D01*
X049303D01*
X049271Y026062D01*
X049215Y026135D01*
X049142Y026192D01*
X049066Y026223D01*
D02*
G37*
G36*
X032666Y028873D02*
X032589Y028842D01*
X032516Y028785D01*
X032460Y028712D01*
X032428Y028636D01*
X032666D01*
Y028873D01*
D02*
G37*
G36*
X033200Y032000D02*
X032963D01*
X032994Y031923D01*
X033050Y031850D01*
X033123Y031794D01*
X033200Y031763D01*
Y032000D01*
D02*
G37*
G36*
X033637D02*
X033400D01*
Y031763D01*
X033477Y031794D01*
X033550Y031850D01*
X033606Y031923D01*
X033637Y032000D01*
D02*
G37*
G36*
X053700Y032200D02*
X053463D01*
X053494Y032123D01*
X053550Y032050D01*
X053623Y031994D01*
X053700Y031963D01*
Y032200D01*
D02*
G37*
G36*
X053465Y031597D02*
X052835D01*
Y031400D01*
X053465D01*
Y031597D01*
D02*
G37*
G36*
X054294D02*
X053665D01*
Y031400D01*
X054294D01*
Y031597D01*
D02*
G37*
G36*
X025766Y032143D02*
X025673Y032131D01*
X025587Y032095D01*
X025513Y032039D01*
X025456Y031965D01*
X025420Y031878D01*
X025408Y031786D01*
X025420Y031693D01*
X025448Y031626D01*
X025283Y031460D01*
X025259Y031424D01*
X025250Y031381D01*
X025250Y031381D01*
Y030445D01*
X025250Y030445D01*
X025259Y030403D01*
X025283Y030367D01*
X025455Y030195D01*
Y029881D01*
X025430Y029871D01*
X025374Y029828D01*
X025331Y029772D01*
X025304Y029706D01*
X025294Y029636D01*
X025304Y029566D01*
X025331Y029500D01*
X025374Y029444D01*
X025430Y029401D01*
X025495Y029374D01*
X025566Y029364D01*
X025636Y029374D01*
X025701Y029401D01*
X025758Y029444D01*
X025801Y029500D01*
X025828Y029566D01*
X025837Y029636D01*
X025828Y029706D01*
X025801Y029772D01*
X025758Y029828D01*
X025701Y029871D01*
X025677Y029881D01*
Y030241D01*
X025677Y030241D01*
X025668Y030284D01*
X025644Y030320D01*
X025644Y030320D01*
X025620Y030344D01*
X025639Y030391D01*
X025666D01*
Y030786D01*
Y031181D01*
X025473D01*
Y031335D01*
X025606Y031469D01*
X025673Y031441D01*
X025766Y031428D01*
X025858Y031441D01*
X025944Y031476D01*
X026018Y031533D01*
X026075Y031607D01*
X026111Y031693D01*
X026123Y031786D01*
X026111Y031878D01*
X026075Y031965D01*
X026018Y032039D01*
X025944Y032095D01*
X025858Y032131D01*
X025766Y032143D01*
D02*
G37*
G36*
X054137Y032200D02*
X053900D01*
Y031963D01*
X053977Y031994D01*
X054050Y032050D01*
X054106Y032123D01*
X054137Y032200D01*
D02*
G37*
G36*
X053900Y032637D02*
Y032400D01*
X054137D01*
X054106Y032477D01*
X054050Y032550D01*
X053977Y032606D01*
X053900Y032637D01*
D02*
G37*
G36*
X063200Y033500D02*
X062963D01*
X062994Y033423D01*
X063050Y033350D01*
X063123Y033294D01*
X063200Y033263D01*
Y033500D01*
D02*
G37*
G36*
X063637D02*
X063400D01*
Y033263D01*
X063477Y033294D01*
X063550Y033350D01*
X063606Y033423D01*
X063637Y033500D01*
D02*
G37*
G36*
X033200Y032437D02*
X033123Y032406D01*
X033050Y032350D01*
X032994Y032277D01*
X032963Y032200D01*
X033200D01*
Y032437D01*
D02*
G37*
G36*
X033400D02*
Y032200D01*
X033637D01*
X033606Y032277D01*
X033550Y032350D01*
X033477Y032406D01*
X033400Y032437D01*
D02*
G37*
G36*
X053700Y032637D02*
X053623Y032606D01*
X053550Y032550D01*
X053494Y032477D01*
X053463Y032400D01*
X053700D01*
Y032637D01*
D02*
G37*
G36*
X067337Y030663D02*
X067100D01*
Y030425D01*
X067177Y030457D01*
X067250Y030513D01*
X067306Y030586D01*
X067337Y030663D01*
D02*
G37*
G36*
X057600Y031751D02*
X056635D01*
X056519Y031735D01*
X056418Y031694D01*
X055809D01*
Y030906D01*
X056418D01*
X056519Y030865D01*
X056635Y030849D01*
X057413D01*
X057681Y030581D01*
X057775Y030510D01*
X057883Y030465D01*
X058000Y030449D01*
X058117Y030465D01*
X058225Y030510D01*
X058319Y030581D01*
X058390Y030675D01*
X058435Y030783D01*
X058451Y030900D01*
X058435Y031017D01*
X058390Y031125D01*
X058319Y031219D01*
X057919Y031619D01*
X057825Y031690D01*
X057717Y031735D01*
X057600Y031751D01*
D02*
G37*
G36*
X037716Y030773D02*
X037639Y030742D01*
X037566Y030685D01*
X037510Y030612D01*
X037478Y030536D01*
X037716D01*
Y030773D01*
D02*
G37*
G36*
X032866Y028873D02*
Y028636D01*
X033103D01*
X033071Y028712D01*
X033015Y028785D01*
X032942Y028842D01*
X032866Y028873D01*
D02*
G37*
G36*
X026161Y030686D02*
X025866D01*
Y030391D01*
X026161D01*
Y030686D01*
D02*
G37*
G36*
X066900Y030663D02*
X066663D01*
X066694Y030586D01*
X066750Y030513D01*
X066823Y030457D01*
X066900Y030425D01*
Y030663D01*
D02*
G37*
G36*
X037916Y030773D02*
Y030536D01*
X038153D01*
X038121Y030612D01*
X038065Y030685D01*
X037992Y030742D01*
X037916Y030773D01*
D02*
G37*
G36*
X027216Y031181D02*
Y030886D01*
X027511D01*
Y031181D01*
X027216D01*
D02*
G37*
G36*
X053465Y031200D02*
X052835D01*
Y031003D01*
X053465D01*
Y031200D01*
D02*
G37*
G36*
X054294D02*
X053665D01*
Y031003D01*
X054294D01*
Y031200D01*
D02*
G37*
G36*
X066900Y031100D02*
X066823Y031068D01*
X066750Y031012D01*
X066694Y030939D01*
X066663Y030863D01*
X066900D01*
Y031100D01*
D02*
G37*
G36*
X067100D02*
Y030863D01*
X067337D01*
X067306Y030939D01*
X067250Y031012D01*
X067177Y031068D01*
X067100Y031100D01*
D02*
G37*
G36*
X026161Y031181D02*
X025866D01*
Y030886D01*
X026161D01*
Y031181D01*
D02*
G37*
G36*
X054937Y024300D02*
X054700D01*
Y024063D01*
X054777Y024094D01*
X054850Y024150D01*
X054906Y024223D01*
X054937Y024300D01*
D02*
G37*
G36*
X027100Y022047D02*
X027010Y022035D01*
X026926Y022001D01*
X026855Y021945D01*
X026799Y021874D01*
X026765Y021790D01*
X026753Y021700D01*
X026765Y021610D01*
X026799Y021526D01*
X026855Y021455D01*
X026926Y021399D01*
X027010Y021365D01*
X027100Y021353D01*
X027190Y021365D01*
X027274Y021399D01*
X027345Y021455D01*
X027401Y021526D01*
X027435Y021610D01*
X027447Y021700D01*
X027435Y021790D01*
X027401Y021874D01*
X027345Y021945D01*
X027274Y022001D01*
X027190Y022035D01*
X027100Y022047D01*
D02*
G37*
G36*
X028100D02*
X028010Y022035D01*
X027926Y022001D01*
X027855Y021945D01*
X027799Y021874D01*
X027765Y021790D01*
X027753Y021700D01*
X027765Y021610D01*
X027799Y021526D01*
X027855Y021455D01*
X027926Y021399D01*
X028010Y021365D01*
X028100Y021353D01*
X028190Y021365D01*
X028274Y021399D01*
X028345Y021455D01*
X028401Y021526D01*
X028435Y021610D01*
X028447Y021700D01*
X028435Y021790D01*
X028401Y021874D01*
X028345Y021945D01*
X028274Y022001D01*
X028190Y022035D01*
X028100Y022047D01*
D02*
G37*
G36*
X029100D02*
X029010Y022035D01*
X028926Y022001D01*
X028855Y021945D01*
X028799Y021874D01*
X028765Y021790D01*
X028753Y021700D01*
X028765Y021610D01*
X028799Y021526D01*
X028855Y021455D01*
X028926Y021399D01*
X029010Y021365D01*
X029100Y021353D01*
X029190Y021365D01*
X029274Y021399D01*
X029345Y021455D01*
X029401Y021526D01*
X029435Y021610D01*
X029447Y021700D01*
X029435Y021790D01*
X029401Y021874D01*
X029345Y021945D01*
X029274Y022001D01*
X029190Y022035D01*
X029100Y022047D01*
D02*
G37*
G36*
X051637Y021400D02*
X051400D01*
Y021163D01*
X051477Y021194D01*
X051550Y021250D01*
X051606Y021323D01*
X051637Y021400D01*
D02*
G37*
G36*
X045289Y021450D02*
X044796D01*
X044844Y021379D01*
X044922Y021326D01*
X045015Y021308D01*
X045289D01*
Y021450D01*
D02*
G37*
G36*
X045982D02*
X045489D01*
Y021308D01*
X045763D01*
X045856Y021326D01*
X045934Y021379D01*
X045982Y021450D01*
D02*
G37*
G36*
X030100Y022047D02*
X030010Y022035D01*
X029926Y022001D01*
X029855Y021945D01*
X029799Y021874D01*
X029765Y021790D01*
X029753Y021700D01*
X029765Y021610D01*
X029799Y021526D01*
X029855Y021455D01*
X029926Y021399D01*
X030010Y021365D01*
X030100Y021353D01*
X030190Y021365D01*
X030274Y021399D01*
X030345Y021455D01*
X030401Y021526D01*
X030435Y021610D01*
X030447Y021700D01*
X030435Y021790D01*
X030401Y021874D01*
X030345Y021945D01*
X030274Y022001D01*
X030190Y022035D01*
X030100Y022047D01*
D02*
G37*
G36*
X037100D02*
X037010Y022035D01*
X036926Y022001D01*
X036855Y021945D01*
X036799Y021874D01*
X036765Y021790D01*
X036753Y021700D01*
X036765Y021610D01*
X036799Y021526D01*
X036855Y021455D01*
X036926Y021399D01*
X037010Y021365D01*
X037100Y021353D01*
X037190Y021365D01*
X037274Y021399D01*
X037345Y021455D01*
X037401Y021526D01*
X037435Y021610D01*
X037447Y021700D01*
X037435Y021790D01*
X037401Y021874D01*
X037345Y021945D01*
X037274Y022001D01*
X037190Y022035D01*
X037100Y022047D01*
D02*
G37*
G36*
X039100D02*
X039010Y022035D01*
X038926Y022001D01*
X038855Y021945D01*
X038799Y021874D01*
X038765Y021790D01*
X038753Y021700D01*
X038765Y021610D01*
X038799Y021526D01*
X038855Y021455D01*
X038926Y021399D01*
X039010Y021365D01*
X039100Y021353D01*
X039190Y021365D01*
X039274Y021399D01*
X039345Y021455D01*
X039401Y021526D01*
X039435Y021610D01*
X039447Y021700D01*
X039435Y021790D01*
X039401Y021874D01*
X039345Y021945D01*
X039274Y022001D01*
X039190Y022035D01*
X039100Y022047D01*
D02*
G37*
G36*
X040100Y021700D02*
X039863D01*
X039894Y021623D01*
X039950Y021550D01*
X040023Y021494D01*
X040100Y021463D01*
Y021700D01*
D02*
G37*
G36*
X031100Y022047D02*
X031010Y022035D01*
X030926Y022001D01*
X030855Y021945D01*
X030799Y021874D01*
X030765Y021790D01*
X030753Y021700D01*
X030765Y021610D01*
X030799Y021526D01*
X030855Y021455D01*
X030926Y021399D01*
X031010Y021365D01*
X031100Y021353D01*
X031190Y021365D01*
X031274Y021399D01*
X031345Y021455D01*
X031401Y021526D01*
X031435Y021610D01*
X031447Y021700D01*
X031435Y021790D01*
X031401Y021874D01*
X031345Y021945D01*
X031274Y022001D01*
X031190Y022035D01*
X031100Y022047D01*
D02*
G37*
G36*
X032100D02*
X032010Y022035D01*
X031926Y022001D01*
X031855Y021945D01*
X031799Y021874D01*
X031765Y021790D01*
X031755Y021712D01*
X030125Y020083D01*
X030081Y020101D01*
X030000Y020112D01*
X029919Y020101D01*
X029844Y020070D01*
X029780Y020020D01*
X029730Y019956D01*
X029699Y019881D01*
X029688Y019800D01*
X029699Y019719D01*
X029730Y019644D01*
X029780Y019580D01*
X029844Y019530D01*
X029919Y019499D01*
X030000Y019488D01*
X030081Y019499D01*
X030156Y019530D01*
X030220Y019580D01*
X030270Y019644D01*
X030301Y019719D01*
X030312Y019800D01*
X030301Y019881D01*
X030283Y019925D01*
X031814Y021457D01*
X031855Y021455D01*
X031926Y021399D01*
X032010Y021365D01*
X032100Y021353D01*
X032190Y021365D01*
X032274Y021399D01*
X032345Y021455D01*
X032401Y021526D01*
X032435Y021610D01*
X032447Y021700D01*
X032435Y021790D01*
X032401Y021874D01*
X032345Y021945D01*
X032274Y022001D01*
X032190Y022035D01*
X032100Y022047D01*
D02*
G37*
G36*
X036100D02*
X036010Y022035D01*
X035926Y022001D01*
X035855Y021945D01*
X035799Y021874D01*
X035765Y021790D01*
X035753Y021700D01*
X035765Y021610D01*
X035799Y021526D01*
X035855Y021455D01*
X035926Y021399D01*
X036010Y021365D01*
X036100Y021353D01*
X036190Y021365D01*
X036274Y021399D01*
X036345Y021455D01*
X036401Y021526D01*
X036435Y021610D01*
X036447Y021700D01*
X036435Y021790D01*
X036401Y021874D01*
X036345Y021945D01*
X036274Y022001D01*
X036190Y022035D01*
X036100Y022047D01*
D02*
G37*
G36*
X052300Y020937D02*
X052223Y020906D01*
X052150Y020850D01*
X052094Y020777D01*
X052063Y020700D01*
X052300D01*
Y020937D01*
D02*
G37*
G36*
X052500D02*
Y020700D01*
X052737D01*
X052706Y020777D01*
X052650Y020850D01*
X052577Y020906D01*
X052500Y020937D01*
D02*
G37*
G36*
X037200Y021037D02*
X037123Y021006D01*
X037050Y020950D01*
X036994Y020877D01*
X036963Y020800D01*
X037200D01*
Y021037D01*
D02*
G37*
G36*
X052737Y020500D02*
X052500D01*
Y020263D01*
X052577Y020294D01*
X052650Y020350D01*
X052706Y020423D01*
X052737Y020500D01*
D02*
G37*
G36*
X041075Y020800D02*
X040622D01*
Y020643D01*
X041075D01*
Y020800D01*
D02*
G37*
G36*
X041728D02*
X041275D01*
Y020643D01*
X041728D01*
Y020800D01*
D02*
G37*
G36*
X037400Y021037D02*
Y020800D01*
X037637D01*
X037606Y020877D01*
X037550Y020950D01*
X037477Y021006D01*
X037400Y021037D01*
D02*
G37*
G36*
X044100Y021400D02*
X043863D01*
X043894Y021323D01*
X043950Y021250D01*
X044023Y021194D01*
X044100Y021163D01*
Y021400D01*
D02*
G37*
G36*
X044537D02*
X044300D01*
Y021163D01*
X044377Y021194D01*
X044450Y021250D01*
X044506Y021323D01*
X044537Y021400D01*
D02*
G37*
G36*
X051200D02*
X050963D01*
X050994Y021323D01*
X051050Y021250D01*
X051123Y021194D01*
X051200Y021163D01*
Y021400D01*
D02*
G37*
G36*
X045763Y021251D02*
X045015D01*
X044938Y021235D01*
X044873Y021192D01*
X044830Y021127D01*
X044814Y021050D01*
X044830Y020973D01*
X044873Y020908D01*
X044938Y020865D01*
X045015Y020849D01*
X045763D01*
X045840Y020865D01*
X045905Y020908D01*
X045948Y020973D01*
X045964Y021050D01*
X045948Y021127D01*
X045905Y021192D01*
X045840Y021235D01*
X045763Y021251D01*
D02*
G37*
G36*
X041075Y021157D02*
X040622D01*
Y021000D01*
X041075D01*
Y021157D01*
D02*
G37*
G36*
X041728D02*
X041275D01*
Y021000D01*
X041728D01*
Y021157D01*
D02*
G37*
G36*
X040537Y021700D02*
X040300D01*
Y021463D01*
X040377Y021494D01*
X040450Y021550D01*
X040506Y021623D01*
X040537Y021700D01*
D02*
G37*
G36*
X047300Y022737D02*
Y022500D01*
X047537D01*
X047506Y022577D01*
X047450Y022650D01*
X047377Y022706D01*
X047300Y022737D01*
D02*
G37*
G36*
X037966Y023273D02*
X037889Y023242D01*
X037816Y023185D01*
X037760Y023112D01*
X037728Y023036D01*
X037966D01*
Y023273D01*
D02*
G37*
G36*
X038166D02*
Y023036D01*
X038403D01*
X038371Y023112D01*
X038315Y023185D01*
X038242Y023242D01*
X038166Y023273D01*
D02*
G37*
G36*
X066600Y022687D02*
X066523Y022656D01*
X066450Y022600D01*
X066394Y022527D01*
X066363Y022450D01*
X066600D01*
Y022687D01*
D02*
G37*
G36*
X066800D02*
Y022450D01*
X067037D01*
X067006Y022527D01*
X066950Y022600D01*
X066877Y022656D01*
X066800Y022687D01*
D02*
G37*
G36*
X047100Y022737D02*
X047023Y022706D01*
X046950Y022650D01*
X046894Y022577D01*
X046863Y022500D01*
X047100D01*
Y022737D01*
D02*
G37*
G36*
X025766Y025357D02*
X025695Y025348D01*
X025630Y025321D01*
X025574Y025278D01*
X025531Y025222D01*
X025504Y025156D01*
X025494Y025086D01*
X025504Y025016D01*
X025531Y024950D01*
X025574Y024894D01*
X025630Y024851D01*
X025695Y024824D01*
X025746Y024817D01*
Y024725D01*
X025542D01*
X025497Y024706D01*
X025478Y024661D01*
Y024011D01*
X025497Y023966D01*
X025542Y023947D01*
X026047D01*
X026314Y023681D01*
X026304Y023656D01*
X026294Y023586D01*
X026304Y023516D01*
X026331Y023450D01*
X026374Y023394D01*
X026430Y023351D01*
X026495Y023324D01*
X026566Y023314D01*
X026636Y023324D01*
X026701Y023351D01*
X026758Y023394D01*
X026801Y023450D01*
X026828Y023516D01*
X026837Y023586D01*
X026828Y023656D01*
X026801Y023722D01*
X026758Y023778D01*
X026701Y023821D01*
X026636Y023848D01*
X026566Y023857D01*
X026495Y023848D01*
X026471Y023838D01*
X026236Y024073D01*
Y024661D01*
X026217Y024706D01*
X026172Y024725D01*
X025968D01*
Y024908D01*
X026001Y024950D01*
X026028Y025016D01*
X026037Y025086D01*
X026028Y025156D01*
X026001Y025222D01*
X025958Y025278D01*
X025901Y025321D01*
X025836Y025348D01*
X025766Y025357D01*
D02*
G37*
G36*
X028004Y024125D02*
X027947Y024102D01*
X027883Y024052D01*
X027833Y023987D01*
X027810Y023931D01*
X028004D01*
Y024125D01*
D02*
G37*
G36*
X028204D02*
Y023931D01*
X028398D01*
X028374Y023987D01*
X028325Y024052D01*
X028260Y024102D01*
X028204Y024125D01*
D02*
G37*
G36*
X054500Y024300D02*
X054263D01*
X054294Y024223D01*
X054350Y024150D01*
X054423Y024094D01*
X054500Y024063D01*
Y024300D01*
D02*
G37*
G36*
X051816Y025407D02*
X051745Y025398D01*
X051680Y025371D01*
X051624Y025328D01*
X051581Y025272D01*
X051554Y025206D01*
X051544Y025136D01*
X051554Y025066D01*
X051581Y025000D01*
X051624Y024944D01*
X051679Y024902D01*
Y024667D01*
X051689Y024615D01*
X051719Y024570D01*
X051992Y024298D01*
Y023467D01*
X052602D01*
Y024904D01*
X052038D01*
X052027Y024919D01*
X052016Y024954D01*
X052051Y025000D01*
X052078Y025066D01*
X052087Y025136D01*
X052078Y025206D01*
X052051Y025272D01*
X052008Y025328D01*
X051951Y025371D01*
X051886Y025398D01*
X051816Y025407D01*
D02*
G37*
G36*
X028004Y023731D02*
X027810D01*
X027833Y023675D01*
X027883Y023610D01*
X027947Y023560D01*
X028004Y023537D01*
Y023731D01*
D02*
G37*
G36*
X028398D02*
X028204D01*
Y023537D01*
X028260Y023560D01*
X028325Y023610D01*
X028374Y023675D01*
X028398Y023731D01*
D02*
G37*
G36*
X045289Y021792D02*
X045015D01*
X044922Y021774D01*
X044844Y021721D01*
X044796Y021650D01*
X045289D01*
Y021792D01*
D02*
G37*
G36*
X045763D02*
X045489D01*
Y021650D01*
X045982D01*
X045934Y021721D01*
X045856Y021774D01*
X045763Y021792D01*
D02*
G37*
G36*
X040100Y022137D02*
X040023Y022106D01*
X039950Y022050D01*
X039894Y021977D01*
X039863Y021900D01*
X040100D01*
Y022137D01*
D02*
G37*
G36*
X051400Y021837D02*
Y021600D01*
X051637D01*
X051606Y021677D01*
X051550Y021750D01*
X051477Y021806D01*
X051400Y021837D01*
D02*
G37*
G36*
X044100D02*
X044023Y021806D01*
X043950Y021750D01*
X043894Y021677D01*
X043863Y021600D01*
X044100D01*
Y021837D01*
D02*
G37*
G36*
X044300D02*
Y021600D01*
X044537D01*
X044506Y021677D01*
X044450Y021750D01*
X044377Y021806D01*
X044300Y021837D01*
D02*
G37*
G36*
X051200D02*
X051123Y021806D01*
X051050Y021750D01*
X050994Y021677D01*
X050963Y021600D01*
X051200D01*
Y021837D01*
D02*
G37*
G36*
X040300Y022137D02*
Y021900D01*
X040537D01*
X040506Y021977D01*
X040450Y022050D01*
X040377Y022106D01*
X040300Y022137D01*
D02*
G37*
G36*
X047100Y022300D02*
X046863D01*
X046894Y022223D01*
X046950Y022150D01*
X047023Y022094D01*
X047100Y022063D01*
Y022300D01*
D02*
G37*
G36*
X047537D02*
X047300D01*
Y022063D01*
X047377Y022094D01*
X047450Y022150D01*
X047506Y022223D01*
X047537Y022300D01*
D02*
G37*
G36*
X067037Y022250D02*
X066800D01*
Y022013D01*
X066877Y022044D01*
X066950Y022100D01*
X067006Y022173D01*
X067037Y022250D01*
D02*
G37*
G36*
X066600D02*
X066363D01*
X066394Y022173D01*
X066450Y022100D01*
X066523Y022044D01*
X066600Y022013D01*
Y022250D01*
D02*
G37*
%LPD*%
G36*
X042369Y018246D02*
Y017997D01*
X042334Y017982D01*
X042266Y017930D01*
X042235Y017890D01*
X042185Y017907D01*
Y018197D01*
X041793D01*
Y018366D01*
X041500D01*
Y017400D01*
X041300D01*
Y018366D01*
X041007D01*
Y018197D01*
X040865D01*
X040851Y018200D01*
X040294D01*
X040294Y018200D01*
X040252Y018192D01*
X040215Y018168D01*
X040215Y018168D01*
X039699Y017651D01*
X039653Y017671D01*
Y017968D01*
X040110Y018425D01*
X040125Y018419D01*
X040200Y018409D01*
X040275Y018419D01*
X040346Y018448D01*
X040406Y018494D01*
X040452Y018554D01*
X040458Y018569D01*
X042046D01*
X042369Y018246D01*
D02*
G37*
G36*
X043357Y014967D02*
X043428Y014937D01*
X043490Y014890D01*
X043537Y014828D01*
X043567Y014757D01*
X043575Y014699D01*
Y014680D01*
Y012120D01*
Y012101D01*
X043567Y012043D01*
X043537Y011972D01*
X043490Y011910D01*
X043428Y011863D01*
X043357Y011833D01*
X043299Y011825D01*
X042512D01*
Y014975D01*
X043299D01*
X043357Y014967D01*
D02*
G37*
G36*
X041488Y011825D02*
X040701D01*
X040643Y011833D01*
X040572Y011863D01*
X040510Y011910D01*
X040463Y011972D01*
X040433Y012043D01*
X040425Y012101D01*
Y012120D01*
Y014680D01*
Y014699D01*
X040433Y014757D01*
X040463Y014828D01*
X040510Y014890D01*
X040572Y014937D01*
X040643Y014967D01*
X040701Y014975D01*
X040720Y014975D01*
Y014975D01*
X041488D01*
Y011825D01*
D02*
G37*
D10*
X053900Y016500D02*
D03*
D11*
X053309Y017976D02*
D03*
X053506D02*
D03*
X053703D02*
D03*
X053900D02*
D03*
X054097D02*
D03*
X054294D02*
D03*
X054491D02*
D03*
Y015024D02*
D03*
X054294D02*
D03*
X054097D02*
D03*
X053900D02*
D03*
X053703D02*
D03*
X053506D02*
D03*
X053309D02*
D03*
D12*
X054983Y017583D02*
D03*
Y017386D02*
D03*
Y017189D02*
D03*
Y016992D02*
D03*
Y016795D02*
D03*
Y016598D02*
D03*
Y016402D02*
D03*
Y016205D02*
D03*
Y016008D02*
D03*
Y015811D02*
D03*
Y015614D02*
D03*
Y015417D02*
D03*
X052817D02*
D03*
Y015614D02*
D03*
Y015811D02*
D03*
Y016008D02*
D03*
Y016205D02*
D03*
Y016402D02*
D03*
Y016598D02*
D03*
Y016795D02*
D03*
Y016992D02*
D03*
Y017189D02*
D03*
Y017386D02*
D03*
Y017583D02*
D03*
D13*
X057594Y017100D02*
D03*
X056806Y016726D02*
D03*
Y017474D02*
D03*
D14*
X055800Y016876D02*
D03*
Y016324D02*
D03*
X052133Y018776D02*
D03*
Y018224D02*
D03*
X055733Y018776D02*
D03*
Y018224D02*
D03*
X050100Y014924D02*
D03*
Y015476D02*
D03*
Y015924D02*
D03*
Y016476D02*
D03*
X051800Y015124D02*
D03*
Y015676D02*
D03*
X056067Y014649D02*
D03*
Y015200D02*
D03*
X057267Y015200D02*
D03*
Y014649D02*
D03*
X056700D02*
D03*
Y015200D02*
D03*
D15*
X049011Y017050D02*
D03*
Y017550D02*
D03*
Y018050D02*
D03*
Y018550D02*
D03*
Y019050D02*
D03*
Y019550D02*
D03*
Y020050D02*
D03*
Y020550D02*
D03*
Y021050D02*
D03*
Y021550D02*
D03*
X045389Y017050D02*
D03*
Y017550D02*
D03*
Y018050D02*
D03*
Y018550D02*
D03*
Y019050D02*
D03*
Y019550D02*
D03*
Y020050D02*
D03*
Y020550D02*
D03*
Y021050D02*
D03*
Y021550D02*
D03*
D16*
X038097Y028236D02*
D03*
X035735D02*
D03*
X042920Y031500D02*
D03*
X040557D02*
D03*
X047620D02*
D03*
X045257D02*
D03*
X052320D02*
D03*
X049957D02*
D03*
X052320Y028250D02*
D03*
X049957D02*
D03*
X047547Y028236D02*
D03*
X045185D02*
D03*
X042847D02*
D03*
X040485D02*
D03*
X052297Y024186D02*
D03*
X049935D02*
D03*
X047547D02*
D03*
X045185D02*
D03*
X033397Y023986D02*
D03*
X031035D02*
D03*
X038097Y024086D02*
D03*
X035735D02*
D03*
X042797D02*
D03*
X040435D02*
D03*
D17*
X060100Y018255D02*
D03*
X065000D02*
D03*
D18*
X061600Y014239D02*
D03*
X061100D02*
D03*
X060600D02*
D03*
X059600D02*
D03*
X059100D02*
D03*
X058600D02*
D03*
X066500D02*
D03*
X066000D02*
D03*
X065500D02*
D03*
X064500D02*
D03*
X064000D02*
D03*
X063500D02*
D03*
D19*
X026349Y026557D02*
D03*
X026546D02*
D03*
X026742D02*
D03*
X026939D02*
D03*
X027136D02*
D03*
X027333D02*
D03*
X027530D02*
D03*
X027727D02*
D03*
X027924D02*
D03*
X028120D02*
D03*
X028317D02*
D03*
X028514D02*
D03*
X028711D02*
D03*
X028908D02*
D03*
X029105D02*
D03*
X029302D02*
D03*
X029498D02*
D03*
X029695D02*
D03*
X029892D02*
D03*
X030089D02*
D03*
X030286D02*
D03*
X030483D02*
D03*
X026349Y029215D02*
D03*
X026546D02*
D03*
X026742D02*
D03*
X026939D02*
D03*
X027136D02*
D03*
X027333D02*
D03*
X027530D02*
D03*
X027727D02*
D03*
X027924D02*
D03*
X028120D02*
D03*
X028317D02*
D03*
X028514D02*
D03*
X028711D02*
D03*
X028908D02*
D03*
X029105D02*
D03*
X029302D02*
D03*
X029498D02*
D03*
X029695D02*
D03*
X029892D02*
D03*
X030089D02*
D03*
X030286D02*
D03*
X030483D02*
D03*
D20*
X035574Y012694D02*
D03*
X034820D02*
D03*
X035200Y011860D02*
D03*
X039165Y031006D02*
D03*
X039919D02*
D03*
X039539Y031840D02*
D03*
X043865Y031006D02*
D03*
X044619D02*
D03*
X044239Y031840D02*
D03*
X048565Y031006D02*
D03*
X049319D02*
D03*
X048939Y031840D02*
D03*
X048565Y027756D02*
D03*
X049319D02*
D03*
X048939Y028590D02*
D03*
X043792Y027742D02*
D03*
X044546D02*
D03*
X044166Y028576D02*
D03*
X039092Y027742D02*
D03*
X039846D02*
D03*
X039466Y028576D02*
D03*
X034342Y027742D02*
D03*
X035096D02*
D03*
X034716Y028576D02*
D03*
X048542Y023692D02*
D03*
X049296D02*
D03*
X048916Y024526D02*
D03*
X043792Y023692D02*
D03*
X044546D02*
D03*
X044166Y024526D02*
D03*
X039042Y023692D02*
D03*
X039796D02*
D03*
X039416Y024526D02*
D03*
X034342Y023692D02*
D03*
X035096D02*
D03*
X034716Y024526D02*
D03*
X029642Y023592D02*
D03*
X030396D02*
D03*
X030016Y024426D02*
D03*
D21*
X025857Y024336D02*
D03*
X027274D02*
D03*
D22*
X065274Y024102D02*
D03*
Y023298D02*
D03*
X067126D02*
D03*
Y024102D02*
D03*
D23*
X065274Y023897D02*
D03*
Y023700D02*
D03*
Y023503D02*
D03*
X067126D02*
D03*
Y023700D02*
D03*
Y023897D02*
D03*
D24*
X053565Y031300D02*
D03*
X056635D02*
D03*
D25*
X056600Y021600D02*
D03*
Y028000D02*
D03*
D26*
X062650Y024625D02*
D03*
Y028875D02*
D03*
D27*
X067046Y026366D02*
D03*
Y026622D02*
D03*
Y026878D02*
D03*
Y027134D02*
D03*
X065354Y026366D02*
D03*
Y026622D02*
D03*
Y026878D02*
D03*
Y027134D02*
D03*
D28*
X043043Y013400D02*
D03*
X040957D02*
D03*
D29*
X041400Y017400D02*
D03*
D30*
X041949Y016711D02*
D03*
Y016908D02*
D03*
Y017105D02*
D03*
Y017302D02*
D03*
Y017498D02*
D03*
Y017695D02*
D03*
Y017892D02*
D03*
Y018089D02*
D03*
X040851Y016711D02*
D03*
Y016908D02*
D03*
Y017105D02*
D03*
Y017302D02*
D03*
Y017498D02*
D03*
Y017695D02*
D03*
Y017892D02*
D03*
Y018089D02*
D03*
D31*
X043025Y020900D02*
D03*
X041175D02*
D03*
D32*
X043500Y017296D02*
D03*
Y016096D02*
D03*
D33*
X046800Y012119D02*
D03*
Y014481D02*
D03*
D34*
X053024Y019700D02*
D03*
X053576D02*
D03*
X054609Y018900D02*
D03*
X054057D02*
D03*
D35*
X049200Y015544D02*
D03*
Y014256D02*
D03*
X051233Y019544D02*
D03*
Y018256D02*
D03*
X056900Y019544D02*
D03*
Y018256D02*
D03*
D36*
X027274Y023636D02*
X028410Y022500D01*
X027274Y023636D02*
Y024336D01*
X028410Y022500D02*
X045600D01*
X045000Y013700D02*
Y015500D01*
X046500Y017000D01*
X048961D01*
X046500Y019000D02*
Y020050D01*
Y021100D01*
Y017000D02*
Y019000D01*
X046550Y019050D01*
X046500Y021600D02*
X048961D01*
X045600Y022500D02*
X046500Y021600D01*
Y021100D02*
X046550Y021050D01*
X046500Y021100D02*
Y021600D01*
X046550Y019050D02*
X049011D01*
X046500Y020050D02*
X049011D01*
X048961Y017000D02*
X049011Y017050D01*
X046550Y021050D02*
X049011D01*
X048961Y021600D02*
X049011Y021550D01*
X046000Y014000D02*
Y015000D01*
X046155Y015155D01*
Y015156D01*
X047558Y016559D01*
X049551D01*
X049900Y016908D01*
X049011Y018550D02*
X049550D01*
X049900Y016908D02*
Y018200D01*
X049550Y018550D02*
X049900Y018200D01*
X049600Y016176D02*
X049851Y015924D01*
X049600Y016176D02*
Y016200D01*
X049200Y015144D02*
X050400Y013944D01*
X049200Y015144D02*
Y015644D01*
X050400Y013500D02*
Y013944D01*
X051750Y014150D02*
X054632D01*
X050700Y015200D02*
X051750Y014150D01*
X054632D02*
X054801Y014319D01*
X053400Y014500D02*
X053506Y014606D01*
X051684Y013991D02*
X058009D01*
X050541Y015134D02*
X051684Y013991D01*
X041802Y016564D02*
X041949Y016711D01*
X041802Y016489D02*
Y016564D01*
X041460Y015841D02*
X042235Y016617D01*
X040951Y015841D02*
X041460D01*
X042235Y016617D02*
Y016805D01*
X058000Y020200D02*
X060146D01*
X057800Y020000D02*
X058000Y020200D01*
X057800Y019100D02*
Y020000D01*
X060146Y020200D02*
X060500Y020554D01*
X057482Y020174D02*
X057908Y020600D01*
X057641Y020108D02*
X057974Y020441D01*
X057641Y019253D02*
Y020108D01*
X057482Y019382D02*
Y020174D01*
X057219Y019119D02*
X057482Y019382D01*
X057188Y018800D02*
X057641Y019253D01*
X057300Y018600D02*
X057800Y019100D01*
X051689Y020000D02*
X054515D01*
X055008Y019508D01*
X047700Y013100D02*
X048200Y012600D01*
X045200Y013100D02*
X047700D01*
X052733Y019409D02*
X053024Y019700D01*
X052733Y019100D02*
Y019409D01*
X051233Y019544D02*
X051689Y020000D01*
X058009Y013991D02*
X058100Y013900D01*
X065554Y023897D02*
X065684Y024027D01*
X065274Y023897D02*
X065554D01*
X065850Y023298D02*
X066519Y023968D01*
X065274Y023298D02*
X065850D01*
X055800Y016795D02*
Y016876D01*
X054983Y016795D02*
X055800D01*
X029695Y029215D02*
Y029651D01*
X030219Y030175D01*
X035900Y013500D02*
Y014900D01*
Y013500D02*
X038041Y011359D01*
X035100Y015700D02*
X035900Y014900D01*
X056400Y016276D02*
Y016299D01*
X056132Y016008D02*
X056400Y016276D01*
X054983Y016008D02*
X056132D01*
X056426Y017474D02*
X056706D01*
X056200Y017700D02*
X056426Y017474D01*
X056932Y018224D02*
X057600Y017556D01*
Y017200D02*
Y017556D01*
X057500Y017100D02*
X057600Y017200D01*
X057267Y015276D02*
Y016833D01*
X057000Y017100D02*
X057267Y016833D01*
X056500Y017100D02*
X057000D01*
X055998Y016598D02*
X056500Y017100D01*
X054983Y016598D02*
X055998D01*
X052380Y016205D02*
X052817D01*
X052341Y016166D02*
X052380Y016205D01*
X025123Y019600D02*
X026000D01*
X024523Y020200D02*
Y031823D01*
Y020200D02*
X025123Y019600D01*
X067126Y023298D02*
X067146Y023279D01*
Y022907D02*
Y023279D01*
Y022907D02*
X067300D01*
X030100Y015700D02*
X030700Y015100D01*
Y014100D02*
Y015100D01*
X029100Y015700D02*
X029910Y014890D01*
Y014100D02*
Y014890D01*
X028100Y015700D02*
X029128Y014672D01*
Y014100D02*
Y014672D01*
X027100Y015700D02*
X028340Y014460D01*
Y014100D02*
Y014460D01*
X043025Y021225D02*
X044300Y022500D01*
X043025Y020900D02*
Y021225D01*
X039600Y020300D02*
X044450D01*
X039500Y020200D02*
X039600Y020300D01*
X044450D02*
X044700Y020550D01*
X034600Y014900D02*
X034900Y014600D01*
X034100Y014892D02*
X037792Y011200D01*
X034100Y014892D02*
Y015700D01*
X024841Y021241D02*
X025100Y020982D01*
X024841Y021241D02*
Y026048D01*
X024982Y020300D02*
X025100D01*
X024682Y020600D02*
Y026114D01*
Y020600D02*
X024982Y020300D01*
X024682Y026114D02*
X025466Y026897D01*
X024523Y031823D02*
X026419Y033719D01*
X025300Y021943D02*
X029742Y017501D01*
X033119D01*
X025300Y021943D02*
Y022200D01*
X036300Y017500D02*
X038100Y015700D01*
X035900Y017500D02*
X036300D01*
X034600Y014900D02*
Y020200D01*
X031900Y021700D02*
X032100D01*
X030000Y019800D02*
X031900Y021700D01*
X033706Y014562D02*
Y019994D01*
X032900Y020800D02*
X033706Y019994D01*
X026419Y033719D02*
X057000D01*
X066400Y023100D02*
X066803Y023503D01*
X067126D01*
X025381Y025700D02*
Y026138D01*
X025200Y025519D02*
X025381Y025700D01*
X025000Y022500D02*
Y025982D01*
X025381Y026138D02*
X026866Y027623D01*
X025000Y022500D02*
X025300Y022200D01*
X025000Y025982D02*
X026216Y027198D01*
X024841Y026048D02*
X025897Y027103D01*
X025200Y022900D02*
Y025519D01*
X025766Y025086D02*
X025857Y024994D01*
X026416Y025186D02*
Y025486D01*
X025200Y022900D02*
X025833Y022267D01*
X026866Y027623D02*
Y028036D01*
X025857Y024294D02*
X026566Y023586D01*
X065274Y024102D02*
Y024526D01*
X053080Y015614D02*
X053500Y016034D01*
X053506Y015024D02*
Y016106D01*
X054801Y014319D02*
X058600D01*
X052600Y021600D02*
X056600D01*
X034266Y023768D02*
X034366Y023868D01*
X048466Y023768D02*
X048566Y023868D01*
X027334Y025543D02*
Y026557D01*
X027231Y029886D02*
X027748Y030403D01*
X042500Y017500D02*
Y018300D01*
X043043Y013343D02*
X043900Y014200D01*
X043043Y012736D02*
Y013400D01*
X055733Y018224D02*
X056932D01*
X051933Y015651D02*
Y015782D01*
X054500Y014622D02*
X056067D01*
X041802Y016870D02*
X042171D01*
X041802D02*
Y016908D01*
X042008Y011700D02*
X043043Y012736D01*
X043618Y011518D02*
X045200Y013100D01*
X038182Y011518D02*
X043618D01*
X040000Y011700D02*
X042008D01*
X039100Y012600D02*
X040000Y011700D01*
X040957Y013300D02*
Y013400D01*
X035640Y011860D02*
X035700Y011800D01*
X035200Y011860D02*
X035640D01*
X040294Y018089D02*
X040851D01*
X040200Y018700D02*
X042100D01*
X041949Y017695D02*
X042500D01*
X036100Y015700D02*
X036559Y015241D01*
X033706Y014562D02*
X035574Y012694D01*
X066600Y015400D02*
X067100Y015900D01*
X058583Y015400D02*
X066600D01*
X058102Y014919D02*
X058583Y015400D01*
X058102Y014680D02*
X058102Y014680D01*
Y014919D01*
X025833Y022267D02*
X037533D01*
X038100Y021700D01*
X033100D02*
X034600Y020200D01*
X044700Y020550D02*
X045389D01*
X044000Y019900D02*
X044100D01*
X044450Y019550D01*
X043900Y019500D02*
X044850Y018550D01*
X039457Y019500D02*
X043900D01*
X044850Y018550D02*
X045389D01*
X044450Y019550D02*
X045389D01*
X034100Y021700D02*
X036494Y019306D01*
X039263D01*
X039457Y019500D01*
X036600Y020200D02*
X039500D01*
X035100Y021700D02*
X036600Y020200D01*
X050541Y015134D02*
Y018859D01*
X050700Y015200D02*
Y019900D01*
X049011Y019550D02*
X049850D01*
X050541Y018859D01*
X050050Y020550D02*
X050700Y019900D01*
X050884Y019116D02*
X051200Y018800D01*
X050884Y019116D02*
Y019884D01*
X052600Y021600D01*
X049011Y020550D02*
X050050D01*
X058600Y014250D02*
Y014319D01*
X038100Y014100D02*
X038400D01*
X042100Y018700D02*
X042500Y018300D01*
X054294Y018352D02*
X054555Y018614D01*
X054294Y017976D02*
Y018352D01*
X059700Y022884D02*
Y024700D01*
X058778Y026222D02*
X060084Y024916D01*
X041400Y017400D02*
X041498Y017302D01*
X041949D01*
X040565Y016228D02*
X040951Y015841D01*
X042171Y016870D02*
X042235Y016805D01*
X041802Y016908D02*
X041949D01*
X041738Y016425D02*
X041802Y016489D01*
X041325Y016425D02*
X041738D01*
X041100Y016200D02*
X041325Y016425D01*
X041035Y016711D02*
X041137Y016813D01*
X040851Y016711D02*
X041035D01*
X041105Y017105D02*
X041400Y017400D01*
X041066Y017066D02*
X041105Y017105D01*
X041066Y017066D02*
X041137D01*
Y016813D02*
Y017066D01*
X040851Y017105D02*
X041105D01*
X050100Y015476D02*
Y015924D01*
X054057Y018907D02*
X054550Y019400D01*
X055008Y019508D02*
X055008Y019344D01*
X056700D02*
X056900Y019544D01*
X055008Y019344D02*
X056700D01*
X054609Y018945D02*
X055008Y019344D01*
X055297Y019119D02*
X057219D01*
X054792Y018614D02*
X055297Y019119D01*
X054057Y018900D02*
Y018907D01*
X057700Y015082D02*
Y016200D01*
X057267Y014649D02*
X057700Y015082D01*
X056200Y018800D02*
X057188D01*
X056476Y018600D02*
X057300D01*
X056347Y018471D02*
X056476Y018600D01*
X055271Y018471D02*
X056347D01*
X055757Y018800D02*
X056200D01*
X055733Y018776D02*
X055757Y018800D01*
X055000Y018200D02*
X055271Y018471D01*
X054609Y018900D02*
Y018945D01*
X052692Y018741D02*
X052914Y018519D01*
X052168Y018741D02*
X052692D01*
X052914Y018519D02*
X052965D01*
X053309Y018175D01*
Y017976D02*
Y018175D01*
X053703Y018239D02*
X053752Y018288D01*
X053703Y017976D02*
Y018239D01*
X053506Y017976D02*
Y018527D01*
X054000Y014469D02*
Y014499D01*
X054097Y014596D01*
Y015024D01*
X054500Y014469D02*
Y014555D01*
X054294Y014761D02*
Y015024D01*
Y014761D02*
X054500Y014555D01*
X056067Y014622D02*
Y014649D01*
X054491Y015024D02*
X054514Y015000D01*
X054649D01*
X054868Y014781D01*
X055418D01*
X055838Y015200D01*
X056067D01*
X059119Y026381D02*
X060300Y025200D01*
X059300Y026700D02*
X060500Y025500D01*
X055245Y015614D02*
X055508Y015352D01*
X054983Y015614D02*
X055245D01*
X054983Y015117D02*
X055000Y015100D01*
X054983Y015117D02*
Y015417D01*
X055508Y015321D02*
Y015352D01*
X056700Y014649D02*
X057267D01*
X056700Y015200D02*
X057267D01*
X056067D02*
X056700D01*
X056067Y015200D02*
X056067Y015200D01*
X055392Y016992D02*
X055700Y017300D01*
X055245Y017386D02*
X055733Y017874D01*
X054983Y016205D02*
X055795D01*
X054983Y016992D02*
X055392D01*
X059700Y022884D02*
X059765Y022819D01*
X060084Y020805D02*
Y024916D01*
X056827Y026222D02*
X058778D01*
X060300Y020796D02*
Y025200D01*
X057368Y026381D02*
X059119D01*
X060500Y020554D02*
Y025500D01*
X057500Y026700D02*
X059300D01*
X056349D02*
X056827Y026222D01*
X057049Y026700D02*
X057368Y026381D01*
X054600Y026700D02*
X056349D01*
X056800D02*
X057049D01*
X054097Y017976D02*
Y018470D01*
X054527Y018900D01*
X052297Y015553D02*
X052555Y015811D01*
X052817D01*
X052317Y016166D02*
X052341D01*
X052408Y016008D02*
X052817D01*
X052092Y015692D02*
X052408Y016008D01*
X051933Y015782D02*
X051933Y015782D01*
X051933Y015782D02*
X052317Y016166D01*
X053506Y016106D02*
X053900Y016500D01*
X052817Y015614D02*
X053080D01*
X054333Y016933D02*
X054589Y017189D01*
X053900Y016500D02*
X054333Y016933D01*
X054589Y017189D02*
X054983D01*
X055733Y017874D02*
Y018224D01*
X054491Y017976D02*
X055290Y018776D01*
X055000Y017600D02*
Y018200D01*
X057974Y020441D02*
X059945D01*
X060300Y020796D01*
X059879Y020600D02*
X060084Y020805D01*
X057908Y020600D02*
X059879D01*
X053900Y016933D02*
Y017366D01*
Y017976D01*
Y016500D02*
Y016933D01*
X052109Y018800D02*
X052133Y018776D01*
X051200Y018800D02*
X052109D01*
X053911Y018754D02*
X054057Y018900D01*
X053911Y017988D02*
Y018754D01*
X053900Y017976D02*
X053911Y017988D01*
X052081Y017600D02*
X052492Y017189D01*
X052817D01*
X053211D02*
X053467Y016933D01*
X052817Y017189D02*
X053211D01*
X053467Y016933D02*
X053900Y016500D01*
X053384Y019100D02*
X053752Y018732D01*
X052733Y019100D02*
X053384D01*
X053752Y018288D02*
Y018732D01*
X054527Y018900D02*
X054609D01*
X053433Y018600D02*
X053506Y018527D01*
X052833Y017598D02*
Y018200D01*
X052133Y018224D02*
X052400Y017957D01*
Y017541D02*
Y017957D01*
X054555Y018614D02*
X054792D01*
X054983Y017583D02*
X055000Y017600D01*
X055290Y018776D02*
X055733D01*
X052153Y016402D02*
X052817D01*
X051851Y016100D02*
X052153Y016402D01*
X052817Y016992D02*
Y017189D01*
X052400Y017541D02*
X052555Y017386D01*
X052100Y017100D02*
X052405Y016795D01*
X052817D01*
X051900Y016533D02*
X051933Y016500D01*
X051900Y016533D02*
Y016600D01*
X052555Y017386D02*
X052817D01*
X051233Y018256D02*
X052101D01*
X052133Y018224D01*
Y018776D02*
X052168Y018741D01*
X052817Y017583D02*
X052833Y017598D01*
X054983Y017386D02*
X055245D01*
X026866Y028036D02*
X026939Y028109D01*
Y029215D01*
X027530Y025572D02*
Y026557D01*
X027136Y025515D02*
Y026557D01*
X026939Y026009D02*
Y026557D01*
X026416Y025486D02*
X026939Y026009D01*
X027924Y025628D02*
Y026557D01*
X028120Y025656D02*
Y026557D01*
X028317Y025684D02*
Y026557D01*
X027530Y025572D02*
X028197Y024905D01*
X027334Y025543D02*
X028691Y024186D01*
X027136Y025515D02*
X028547Y024105D01*
X028120Y025656D02*
X028395Y025382D01*
X029595D01*
X028317Y025684D02*
X028460Y025541D01*
X029661D01*
X028651Y025700D02*
X029727D01*
X028514Y025837D02*
X028651Y025700D01*
X028514Y025837D02*
Y026557D01*
X028711Y025991D02*
Y026557D01*
Y025991D02*
X028842Y025859D01*
X029793D01*
X028983Y026018D02*
X029859D01*
X028908Y026094D02*
X028983Y026018D01*
X028908Y026094D02*
Y026557D01*
X028197Y024905D02*
X029398D01*
X027727Y025600D02*
X028263Y025064D01*
X029464D01*
X028691Y024186D02*
X028866D01*
X028547Y024054D02*
X029464Y023136D01*
X028547Y024054D02*
Y024105D01*
X035016Y029036D02*
X035116Y028936D01*
X030746Y030175D02*
X031030Y029891D01*
X030964Y029732D02*
X035545D01*
X030680Y030016D02*
X030964Y029732D01*
X030614Y029857D02*
X030898Y029573D01*
X030832Y029414D02*
X035414D01*
X030548Y029698D02*
X030832Y029414D01*
X030523Y029255D02*
X035248D01*
X030483Y029215D02*
X030523Y029255D01*
X030898Y029573D02*
X035480D01*
X031030Y029891D02*
X035611D01*
X031060Y030086D02*
X035642D01*
X030812Y030334D02*
X031060Y030086D01*
X035642D02*
X035742Y029986D01*
X035253Y029250D02*
X035353D01*
X035248Y029255D02*
X035253Y029250D01*
X035353D02*
X035535Y029068D01*
X035414Y029414D02*
X035601Y029227D01*
X035480Y029573D02*
X035667Y029386D01*
X035545Y029732D02*
X035733Y029545D01*
X035611Y029891D02*
X035717Y029786D01*
X030269Y024768D02*
X033674D01*
X030210Y024827D02*
X030269Y024768D01*
X033674D02*
X033912Y024530D01*
X048083Y026259D02*
X049009Y027185D01*
X025857Y024336D02*
Y024994D01*
Y024294D02*
Y024336D01*
X033016Y027036D02*
X033416Y027436D01*
X031677Y027036D02*
X033016D01*
X038316Y026836D02*
X038616Y027136D01*
X031652Y026836D02*
X038316D01*
X039497Y027136D02*
X039566D01*
X039038Y026677D02*
X039497Y027136D01*
X039016Y027818D02*
Y028236D01*
X039519Y026259D02*
X048083D01*
X047153Y026100D02*
X047985Y025268D01*
X039585Y026100D02*
X047153D01*
X046861Y025941D02*
X047666Y025136D01*
X039651Y025941D02*
X046861D01*
X047148Y026418D02*
X047966Y027236D01*
X039453Y026418D02*
X047148D01*
X043707Y026577D02*
X044166Y027036D01*
X027727Y028863D02*
Y029215D01*
Y028863D02*
X027858Y028732D01*
X026546Y028817D02*
Y029215D01*
X025897Y028168D02*
X026546Y028817D01*
X026349Y028919D02*
Y029215D01*
X025466Y028036D02*
X026349Y028919D01*
X026216Y028036D02*
X026742Y028563D01*
Y029215D01*
X029048Y030705D02*
X029285Y030468D01*
X027935Y030705D02*
X029048D01*
X029105Y028863D02*
X029432Y028536D01*
X031586Y026677D02*
X039038D01*
X031521Y026518D02*
X039103D01*
X031455Y026359D02*
X039169D01*
X031389Y026200D02*
X039235D01*
X031323Y026041D02*
X039301D01*
X030730Y025882D02*
X039367D01*
X030664Y025722D02*
X039433D01*
X030598Y025563D02*
X039499D01*
X030532Y025404D02*
X039565D01*
X038006Y025245D02*
X038666Y024586D01*
X030466Y025245D02*
X038006D01*
X042429Y025622D02*
X043016Y025036D01*
X042721Y025782D02*
X043335Y025168D01*
X039717Y025782D02*
X042721D01*
X039387Y026577D02*
X043707D01*
X043116Y026736D02*
X043316Y026936D01*
X039322Y026736D02*
X043116D01*
X029476Y024827D02*
X030210D01*
X030276Y024986D02*
X030335Y024927D01*
X029542Y024986D02*
X030276D01*
X030342Y025145D02*
X030401Y025086D01*
X029608Y025145D02*
X030342D01*
X030408Y025304D02*
X030466Y025245D01*
X029674Y025304D02*
X030408D01*
X030474Y025463D02*
X030532Y025404D01*
X029739Y025463D02*
X030474D01*
X030539Y025622D02*
X030598Y025563D01*
X029805Y025622D02*
X030539D01*
X030605Y025781D02*
X030664Y025722D01*
X029871Y025781D02*
X030605D01*
X030671Y025940D02*
X030730Y025882D01*
X030401Y025086D02*
X034667D01*
X030335Y024927D02*
X034060D01*
X034266Y023768D02*
X034342Y023692D01*
X038966Y023768D02*
X039042Y023692D01*
X043716Y027818D02*
Y028236D01*
Y027818D02*
X043792Y027742D01*
X039016Y027818D02*
X039092Y027742D01*
X043716Y024186D02*
X043792Y024110D01*
Y023692D02*
Y024110D01*
X048489Y027832D02*
Y028250D01*
Y027832D02*
X048565Y027756D01*
X030016Y023136D02*
X030066Y023086D01*
X043335Y024551D02*
X043369Y024517D01*
X043335Y024551D02*
Y025168D01*
X048466Y023768D02*
X048542Y023692D01*
X048566Y023868D02*
Y024086D01*
X047985Y024567D02*
X048116Y024436D01*
X047985Y024567D02*
Y025268D01*
X030483Y026557D02*
X030513Y026527D01*
X030837D01*
X034836Y024917D02*
X035279D01*
X034366Y023868D02*
Y024136D01*
X034060Y024927D02*
X034272Y024715D01*
X034667Y025086D02*
X034836Y024917D01*
X030943Y027994D02*
X030952Y027986D01*
X048966Y030414D02*
Y030486D01*
X047966Y029414D02*
X048966Y030414D01*
X049952Y029255D02*
X051239Y030542D01*
X045735Y029255D02*
X049952D01*
X044116Y030195D02*
Y030236D01*
X027333Y028269D02*
Y029215D01*
X027136D02*
Y029566D01*
X027287Y029717D01*
X027298D01*
X027485Y029904D01*
Y029915D01*
X029302Y029215D02*
Y029566D01*
X027530Y028722D02*
Y029215D01*
X027956Y030386D02*
X028067D01*
X027748Y030403D02*
Y030518D01*
X027935Y030705D01*
X027858Y028618D02*
Y028732D01*
X030408Y027032D02*
X030417Y027040D01*
X030548D01*
X030258Y027199D02*
X030614D01*
X030192Y027358D02*
X030680D01*
X030126Y027517D02*
X030746D01*
X030060Y027676D02*
X030812D01*
X029994Y027835D02*
X030878D01*
X029928Y027994D02*
X030943D01*
X029432Y028536D02*
X030216D01*
X027858Y028618D02*
X028122Y028355D01*
X028667Y028036D02*
X028966D01*
X028122Y028355D02*
X028348D01*
X028667Y028036D01*
X027333Y028269D02*
X027566Y028036D01*
X027530Y028722D02*
X028216Y028036D01*
X025566Y029636D02*
Y030241D01*
X025361Y030445D02*
X025566Y030241D01*
X025361Y030445D02*
Y031381D01*
X025766Y031786D01*
X026584Y029903D02*
Y031255D01*
X027116Y031786D01*
X026216Y027198D02*
Y028036D01*
X025897Y027103D02*
Y028168D01*
X025466Y026897D02*
Y028036D01*
X029105Y026557D02*
Y027171D01*
X029302Y026557D02*
Y027143D01*
X029498Y026557D02*
Y027115D01*
X029695Y026557D02*
Y027087D01*
X029892Y026557D02*
Y027059D01*
X030089Y026557D02*
Y027030D01*
X030286Y026557D02*
Y027032D01*
X030408D01*
X030089Y027030D02*
X030127Y027068D01*
Y027097D01*
X030220Y027191D01*
X030249D01*
X030258Y027199D01*
X029892Y027059D02*
X029968Y027134D01*
Y027163D01*
X030154Y027350D01*
X030183D01*
X030192Y027358D01*
X029695Y027087D02*
X029809Y027200D01*
Y027229D01*
X030088Y027509D01*
X030117D01*
X030126Y027517D01*
X029498Y027115D02*
X029650Y027266D01*
Y027295D01*
X030022Y027668D01*
X030051D01*
X030060Y027676D01*
X029302Y027143D02*
X029490Y027332D01*
Y027361D01*
X029956Y027827D01*
X029985D01*
X029994Y027835D01*
X029105Y027171D02*
X029331Y027398D01*
Y027427D01*
X029890Y027986D01*
X029920D01*
X029928Y027994D01*
X027924Y025628D02*
X028329Y025223D01*
X029464Y023136D02*
X030016D01*
X029366Y023968D02*
X029657Y023677D01*
X028514Y029884D02*
X028514Y029885D01*
X028195Y030017D02*
X028434Y030255D01*
X028885D01*
X027485Y029915D02*
X027956Y030386D01*
X030219Y030175D02*
X030746D01*
X030154Y030334D02*
X030812D01*
X030351Y029857D02*
X030614D01*
X029616Y030236D02*
Y030286D01*
X028514Y029885D02*
X028514D01*
X028885Y030255D02*
X028966Y030336D01*
X030878Y027835D02*
X031677Y027036D01*
X030812Y027676D02*
X031652Y026836D01*
X033912Y024398D02*
Y024530D01*
X038966Y023768D02*
Y024186D01*
X030746Y027517D02*
X031586Y026677D01*
X039103Y026518D02*
X039322Y026736D01*
X039169Y026359D02*
X039387Y026577D01*
X039235Y026200D02*
X039453Y026418D01*
X039301Y026041D02*
X039519Y026259D01*
X039367Y025882D02*
X039585Y026100D01*
X039433Y025722D02*
X039651Y025941D01*
X039499Y025563D02*
X039717Y025782D01*
X039565Y025404D02*
X039783Y025622D01*
X042429D01*
X030680Y027358D02*
X031521Y026518D01*
X030614Y027199D02*
X031455Y026359D01*
X030548Y027040D02*
X031389Y026200D01*
X030837Y026527D02*
X031323Y026041D01*
X030952Y027986D02*
X033116D01*
X034166Y029036D01*
X035016D01*
X034016Y028186D02*
X034342Y027860D01*
Y027742D02*
Y027860D01*
X045416Y029386D02*
X045766Y029736D01*
X043466Y029545D02*
X044116Y030195D01*
X045482Y029227D02*
X045669Y029414D01*
X047966D01*
X045547Y029068D02*
X045735Y029255D01*
X035742Y029986D02*
X039066D01*
X039516Y030436D01*
Y030536D01*
X035717Y029786D02*
X040266D01*
X040766Y030286D01*
X040866D01*
X038735Y031436D02*
X039165Y031006D01*
X035535Y029068D02*
X045547D01*
X035601Y029227D02*
X045482D01*
X035667Y029386D02*
X045416D01*
X035733Y029545D02*
X043466D01*
Y031405D02*
X043865Y031006D01*
X048565D02*
Y031187D01*
X048166Y031586D02*
X048565Y031187D01*
X029937Y025940D02*
X030671D01*
X029859Y026018D02*
X029937Y025940D01*
X029793Y025859D02*
X029871Y025781D01*
X029727Y025700D02*
X029805Y025622D01*
X029661Y025541D02*
X029739Y025463D01*
X029595Y025382D02*
X029674Y025304D01*
X028329Y025223D02*
X029530D01*
X029608Y025145D01*
X029464Y025064D02*
X029542Y024986D01*
X029398Y024905D02*
X029476Y024827D01*
X027727Y025600D02*
Y026557D01*
X030089Y029215D02*
Y029594D01*
X030351Y029857D01*
X029116Y029752D02*
X029302Y029566D01*
X030286Y029215D02*
Y029566D01*
X030417Y029698D01*
X030548D01*
X029892Y029215D02*
Y029623D01*
X030285Y030016D01*
X030680D01*
X029498Y029215D02*
Y029772D01*
X029593Y029867D01*
X029686D01*
X030154Y030334D01*
X029116Y029752D02*
X029132D01*
X029616Y030236D01*
X029050Y029933D02*
X029088D01*
X029285Y030130D01*
Y030468D01*
X027924Y029215D02*
Y030242D01*
X028036Y030355D02*
X028067Y030386D01*
X028195Y029752D02*
Y030017D01*
X028036Y029687D02*
Y030355D01*
X029105Y028863D02*
Y029186D01*
X028908Y029215D02*
Y029566D01*
X029116Y029774D01*
X028711Y029215D02*
Y029594D01*
X029050Y029933D01*
X028514Y029215D02*
Y029884D01*
X028317Y029215D02*
Y029631D01*
X028120Y029215D02*
Y029603D01*
X028036Y029687D02*
X028120Y029603D01*
X028195Y029752D02*
X028317Y029631D01*
X029642Y023592D02*
X029657Y023607D01*
Y023677D01*
X052400Y014700D02*
Y014800D01*
X052986Y014700D02*
X053309Y015024D01*
X052900Y014700D02*
X052986D01*
X051400Y015200D02*
X051600Y015400D01*
X051400Y014843D02*
Y015200D01*
Y014843D02*
X051743Y014500D01*
X051900D01*
X053506Y014606D02*
Y015024D01*
X039522Y018022D02*
X040200Y018700D01*
X039522Y015222D02*
Y018022D01*
X040565Y016228D02*
Y016908D01*
X040851D01*
X038400Y014100D02*
X039522Y015222D01*
X039681Y017476D02*
X040294Y018089D01*
X039681Y014676D02*
X040957Y013400D01*
X039681Y014676D02*
Y017476D01*
X040395Y017695D02*
X040851D01*
X040000Y017300D02*
X040395Y017695D01*
X036559Y013141D02*
Y015241D01*
Y013141D02*
X038182Y011518D01*
X052817Y015217D02*
Y015417D01*
X051800Y016100D02*
X051851D01*
X051600Y015400D02*
X051994D01*
X052092Y015499D01*
Y015692D01*
X052400Y014800D02*
X052817Y015217D01*
X052297Y015252D02*
Y015553D01*
X066882Y023897D02*
X066883Y023898D01*
X066882Y023897D02*
X067126D01*
X065370Y026350D02*
X065800D01*
X065354Y026366D02*
X065370Y026350D01*
X062650Y026878D02*
Y028875D01*
Y026878D02*
X065354D01*
X062650Y024625D02*
Y026622D01*
X065354D01*
X067046Y026878D02*
X067300D01*
X066400Y023000D02*
Y023100D01*
X065274Y023700D02*
X065860D01*
X065200Y024600D02*
X065274Y024526D01*
X066845Y023898D02*
X066883D01*
X066716Y024027D02*
X066845Y023898D01*
X066200Y024040D02*
Y024100D01*
X065860Y023700D02*
X066200Y024040D01*
X065684Y024027D02*
Y024384D01*
X065700Y024400D01*
Y024285D02*
Y024400D01*
X066519Y023968D02*
Y024232D01*
X066610Y026878D02*
X067046D01*
X066300Y025000D02*
X066716Y024584D01*
Y024027D02*
Y024584D01*
X065981Y024770D02*
X066519Y024232D01*
X064864Y023629D02*
X064989Y023503D01*
X065274D01*
X065666Y027134D02*
X065800Y027000D01*
X065354Y027134D02*
X065666D01*
X065800Y025900D02*
Y026350D01*
Y027000D01*
X066500Y026400D02*
X066722Y026622D01*
X067046D01*
X066119Y026387D02*
X066610Y026878D01*
X066500Y026100D02*
Y026400D01*
X064864Y023629D02*
Y024864D01*
X065481Y025481D01*
X065981Y024770D02*
Y025381D01*
X066500Y025900D01*
Y026100D01*
X065481Y025481D02*
X065856D01*
X066119Y025744D01*
Y026387D01*
X031490Y014100D02*
Y015310D01*
X031100Y015700D02*
X031490Y015310D01*
X032277Y014100D02*
Y015523D01*
X032100Y015700D02*
X032277Y015523D01*
X033065Y014100D02*
Y015665D01*
X033100Y015700D01*
X049851Y015924D02*
X050100D01*
X054983Y015811D02*
X056289D01*
X056300Y015800D01*
Y015724D02*
Y015800D01*
X051900Y016600D02*
X051902Y016598D01*
X052817D01*
X048200Y012600D02*
X048600D01*
X038041Y011359D02*
X048259D01*
X048700Y011800D01*
X037792Y011200D02*
X048600D01*
X049200Y011800D01*
D37*
X049224Y012600D02*
X049600D01*
X049200Y012624D02*
X049224Y012600D01*
D38*
X036812Y031286D02*
X037812Y032286D01*
X042526Y028726D02*
Y028736D01*
Y028726D02*
X042847Y028405D01*
X037916Y028786D02*
X038097Y028605D01*
X029722Y024190D02*
X030396Y023516D01*
X030416Y024026D02*
X031035D01*
X029316Y024536D02*
X029366Y024486D01*
X035056Y028236D02*
X035735D01*
X034716Y028576D02*
X035056Y028236D01*
X035316Y027336D02*
X035403Y027423D01*
X035266Y027336D02*
X035316D01*
X049034Y031291D02*
X049319Y031006D01*
X048958Y031291D02*
X049034D01*
X039694Y031006D02*
X039919D01*
X038921Y031780D02*
X039694Y031006D01*
X044508D02*
X044619D01*
X039621Y027742D02*
X039846D01*
X039307Y027428D02*
X039621Y027742D01*
X043576Y027428D02*
X044232D01*
X044546Y027742D01*
X049094Y027756D02*
X049319D01*
X048780Y027442D02*
X049094Y027756D01*
X048326Y023378D02*
X048982D01*
X049296Y023692D01*
X043576Y023378D02*
X044232D01*
X044546Y023692D01*
X034005Y023378D02*
X034782D01*
X035096Y023692D01*
X038826Y023378D02*
X039482D01*
X039796Y023692D01*
X038097Y028207D02*
X038876Y027428D01*
X039307D01*
X035020Y027742D02*
X035096D01*
X034316Y028446D02*
X035020Y027742D01*
X039846Y027506D02*
X040066Y027286D01*
X044546Y027506D02*
Y027742D01*
X039846Y027506D02*
Y027742D01*
X035096Y027506D02*
Y027742D01*
X049296Y023456D02*
X049466Y023286D01*
X049296Y023456D02*
Y023692D01*
X044546Y023506D02*
X044766Y023286D01*
X044546Y023506D02*
Y023692D01*
X049319Y027520D02*
X049489Y027350D01*
X049319Y027520D02*
Y027756D01*
Y030770D02*
Y031006D01*
X044619Y030820D02*
X044789Y030650D01*
X044619Y030820D02*
Y031006D01*
X039919Y030770D02*
X040089Y030600D01*
X039919Y030770D02*
Y031006D01*
X031035Y023986D02*
Y024026D01*
X035156Y024086D02*
X035735D01*
X034716Y024526D02*
X035156Y024086D01*
X039856D02*
X040435D01*
X039416Y024526D02*
X039856Y024086D01*
X044506Y028236D02*
X045185D01*
X044166Y028576D02*
X044506Y028236D01*
X049256Y024186D02*
X049935D01*
X048916Y024526D02*
X049256Y024186D01*
X044506D02*
X045185D01*
X044166Y024526D02*
X044506Y024186D01*
X049279Y028250D02*
X049957D01*
X048939Y028590D02*
X049279Y028250D01*
X044579Y031500D02*
X045257D01*
X044239Y031840D02*
X044579Y031500D01*
X039879D02*
X040557D01*
X039539Y031840D02*
X039879Y031500D01*
X051080D02*
X052320D01*
X044825Y030687D02*
X045684D01*
X044789Y030650D02*
X044825Y030687D01*
X044638Y030286D02*
X046406D01*
X044766Y027286D02*
X044903Y027423D01*
X044546Y027506D02*
X044766Y027286D01*
X038097Y024086D02*
X038118D01*
X042797D02*
X042868D01*
X043576Y023378D01*
X039796Y023406D02*
Y023692D01*
X047547Y024157D02*
Y024186D01*
Y024157D02*
X048326Y023378D01*
X030396Y023306D02*
X030566Y023136D01*
X035096Y023692D02*
X035166Y023622D01*
Y023386D02*
Y023622D01*
Y023386D02*
X035366Y023186D01*
Y023136D02*
Y023186D01*
X038097Y028207D02*
Y028236D01*
X042847Y028157D02*
Y028236D01*
Y028157D02*
X043576Y027428D01*
X047547Y028236D02*
X047555D01*
X048349Y027442D01*
X048780D01*
X051816Y024667D02*
X052297Y024186D01*
X035096Y027506D02*
X035266Y027336D01*
X033397Y023986D02*
X034005Y023378D01*
X051966Y029186D02*
X052320Y028832D01*
Y028250D02*
Y028832D01*
X039796Y023406D02*
X039966Y023236D01*
X038118Y024086D02*
X038826Y023378D01*
X038097Y024086D02*
Y024605D01*
X037816Y024886D02*
X038097Y024605D01*
X037766Y024886D02*
X037816D01*
X042797Y024086D02*
Y024655D01*
X042266Y025186D02*
X042797Y024655D01*
X047547Y024186D02*
Y024705D01*
X047016Y025236D02*
X047547Y024705D01*
X034316Y028446D02*
Y028657D01*
X034287Y028686D02*
X034316Y028657D01*
X038097Y028236D02*
Y028605D01*
X037916Y028736D02*
Y028786D01*
X042847Y028236D02*
Y028405D01*
X042526Y028736D02*
X042566D01*
X047547Y028236D02*
Y028555D01*
X047216Y028886D02*
X047547Y028555D01*
X039466Y028576D02*
X039806Y028236D01*
X040485D01*
X040089Y030600D02*
X040118Y030630D01*
X044294D02*
X044638Y030286D01*
X038272Y031780D02*
X038921D01*
X038266Y031786D02*
X038272Y031780D01*
X038102Y031786D02*
X038266D01*
X037602Y031286D02*
X038102Y031786D01*
X040118Y030630D02*
X044294D01*
X043221Y032294D02*
X044508Y031006D01*
X040256Y032294D02*
X043221D01*
X040248Y032286D02*
X040256Y032294D01*
X037812Y032286D02*
X040248D01*
X046406Y030286D02*
X047620Y031500D01*
X048939Y031840D02*
X049279Y031500D01*
X049957D01*
X049319Y030770D02*
X049489Y030600D01*
X048366Y031883D02*
Y032286D01*
Y031883D02*
X048958Y031291D01*
X045684Y030687D02*
X047633Y032636D01*
X049945D01*
X051080Y031500D01*
X051816Y024667D02*
Y025136D01*
X029366Y024486D02*
X029502D01*
X029722Y024266D01*
Y024190D02*
Y024266D01*
X030016Y024426D02*
Y024526D01*
Y024426D02*
X030416Y024026D01*
X030396Y023306D02*
Y023516D01*
D39*
X056635Y031300D02*
X057600D01*
X058000Y030900D01*
D40*
X025857Y024336D02*
D03*
X027274D02*
D03*
D41*
X026100Y015700D02*
D03*
X027100D02*
D03*
X028100D02*
D03*
X029100D02*
D03*
X030100D02*
D03*
X031100D02*
D03*
X032100D02*
D03*
X033100D02*
D03*
X034100D02*
D03*
X035100D02*
D03*
X036100D02*
D03*
X037100D02*
D03*
X038100D02*
D03*
X039100D02*
D03*
Y016700D02*
D03*
Y017700D02*
D03*
Y018700D02*
D03*
Y019700D02*
D03*
Y020700D02*
D03*
Y021700D02*
D03*
X038100D02*
D03*
X037100D02*
D03*
X036100D02*
D03*
X035100D02*
D03*
X034100D02*
D03*
X033100D02*
D03*
X032100D02*
D03*
X031100D02*
D03*
X030100D02*
D03*
X029100D02*
D03*
X028100D02*
D03*
X027100D02*
D03*
X026100D02*
D03*
D42*
X027116Y031786D02*
D03*
X025766D02*
D03*
X039100Y012600D02*
D03*
Y014100D02*
D03*
X038100D02*
D03*
D43*
X027116Y030786D02*
D03*
X025766D02*
D03*
D44*
X029910Y014100D02*
D03*
X030700D02*
D03*
X031490D02*
D03*
X032277D02*
D03*
X033065D02*
D03*
X029128D02*
D03*
X028340D02*
D03*
X032872Y031286D02*
D03*
X028935D02*
D03*
X029722D02*
D03*
X030510D02*
D03*
X031300D02*
D03*
X032090D02*
D03*
X036814D02*
D03*
X036024D02*
D03*
X035234D02*
D03*
X034447D02*
D03*
X033659D02*
D03*
X037596D02*
D03*
D45*
X038100Y012600D02*
D03*
X037100Y014100D02*
D03*
D46*
X025800Y012400D02*
D03*
D47*
X065705Y020495D02*
D03*
X066110Y020090D02*
D03*
X061800Y021300D02*
D03*
X045000Y013700D02*
D03*
X046000Y014000D02*
D03*
X061600Y026700D02*
D03*
X049600Y016200D02*
D03*
X053800Y032300D02*
D03*
X026000Y014200D02*
D03*
X040200Y021800D02*
D03*
X054600Y024400D02*
D03*
X044200Y021500D02*
D03*
X047200Y022400D02*
D03*
X043500Y018900D02*
D03*
X037300Y020700D02*
D03*
X030000Y018400D02*
D03*
X027100Y017400D02*
D03*
X034900Y014600D02*
D03*
X025100Y020982D02*
D03*
Y020300D02*
D03*
X026000Y019600D02*
D03*
X033119Y017501D02*
D03*
X035900Y017500D02*
D03*
X030000Y019800D02*
D03*
X063300Y033600D02*
D03*
X067000Y030763D02*
D03*
X035700Y011800D02*
D03*
X042500Y017695D02*
D03*
X045000Y012000D02*
D03*
X055300Y012800D02*
D03*
Y012200D02*
D03*
Y011600D02*
D03*
X056000Y013400D02*
D03*
Y011600D02*
D03*
Y012200D02*
D03*
Y012800D02*
D03*
X061400Y032300D02*
D03*
X060800D02*
D03*
X060200D02*
D03*
X059600D02*
D03*
X059000D02*
D03*
X062600Y015900D02*
D03*
X067100D02*
D03*
X056700Y011600D02*
D03*
X060800Y031700D02*
D03*
X060200D02*
D03*
X059000D02*
D03*
X059600D02*
D03*
X060200Y031100D02*
D03*
X059600D02*
D03*
X056700Y012200D02*
D03*
X057400D02*
D03*
Y012800D02*
D03*
X056700D02*
D03*
Y013400D02*
D03*
X057400D02*
D03*
X032900Y020800D02*
D03*
X044000Y019900D02*
D03*
X045000Y016200D02*
D03*
X041898Y014863D02*
D03*
X041900Y012100D02*
D03*
X051000Y013500D02*
D03*
X050400D02*
D03*
X051000Y012900D02*
D03*
X050400D02*
D03*
Y012300D02*
D03*
X051000D02*
D03*
X050100Y016600D02*
D03*
X040900Y014300D02*
D03*
X043500Y015900D02*
D03*
X043900Y014200D02*
D03*
X042647Y014974D02*
D03*
X041100Y016200D02*
D03*
X051300Y021500D02*
D03*
X052400Y020600D02*
D03*
X054550Y019400D02*
D03*
X057600Y031300D02*
D03*
X062000Y024500D02*
D03*
X061500D02*
D03*
X061000D02*
D03*
X062000Y024000D02*
D03*
X061500D02*
D03*
X061000D02*
D03*
X062000Y023500D02*
D03*
X061500D02*
D03*
X061000D02*
D03*
X052733Y019100D02*
D03*
X055800Y028500D02*
D03*
X055200D02*
D03*
X056400Y027900D02*
D03*
X055800D02*
D03*
X055200D02*
D03*
X056400Y027300D02*
D03*
X055800D02*
D03*
X055200D02*
D03*
X033300Y032100D02*
D03*
X065300Y020900D02*
D03*
X066750Y013350D02*
D03*
X066150D02*
D03*
X066750Y013950D02*
D03*
X066150D02*
D03*
X048966Y025886D02*
D03*
X032766Y028536D02*
D03*
X052016Y026836D02*
D03*
X037816Y030436D02*
D03*
X042816Y031136D02*
D03*
X038066Y022936D02*
D03*
X066700Y022350D02*
D03*
X053300Y013500D02*
D03*
X066200Y027500D02*
D03*
X057000Y027900D02*
D03*
Y027300D02*
D03*
X056200Y021400D02*
D03*
Y022000D02*
D03*
X056800D02*
D03*
Y021400D02*
D03*
Y020800D02*
D03*
X057400D02*
D03*
Y021400D02*
D03*
Y022000D02*
D03*
X058000D02*
D03*
Y021400D02*
D03*
X034200Y013100D02*
D03*
X048200Y015900D02*
D03*
X047700Y018300D02*
D03*
X046900Y017400D02*
D03*
X035500Y016600D02*
D03*
X044000Y015300D02*
D03*
X058000Y030900D02*
D03*
X059000Y031100D02*
D03*
D48*
X053400Y014500D02*
D03*
X049600Y012600D02*
D03*
X067300Y022907D02*
D03*
X057000Y033719D02*
D03*
X025381Y025700D02*
D03*
X025766Y025086D02*
D03*
X026416Y025186D02*
D03*
X026566Y023586D02*
D03*
X025300Y022200D02*
D03*
X040200Y018700D02*
D03*
X058102Y014680D02*
D03*
X058100Y013900D02*
D03*
X059700Y024700D02*
D03*
X055300Y019700D02*
D03*
X057700Y016200D02*
D03*
X056200Y018800D02*
D03*
X054000Y014469D02*
D03*
X054500D02*
D03*
X055000Y015100D02*
D03*
X055508Y015321D02*
D03*
X056400Y016299D02*
D03*
X055700Y017300D02*
D03*
X059765Y022819D02*
D03*
X056200Y017700D02*
D03*
X052081Y017600D02*
D03*
X053433Y018600D02*
D03*
X052833Y018200D02*
D03*
X056800Y026700D02*
D03*
X054600D02*
D03*
X057500D02*
D03*
X052100Y017100D02*
D03*
X051900Y016600D02*
D03*
X026866Y028036D02*
D03*
X028866Y024186D02*
D03*
X029316Y024536D02*
D03*
X035116Y028936D02*
D03*
X035316Y027336D02*
D03*
X049009Y027185D02*
D03*
X033416Y027436D02*
D03*
X037916Y027186D02*
D03*
X038616Y027136D02*
D03*
X034266Y027236D02*
D03*
X039566Y027136D02*
D03*
X040066Y027286D02*
D03*
X039016Y028236D02*
D03*
X028104Y023831D02*
D03*
X043716Y028236D02*
D03*
Y024186D02*
D03*
X048489Y028250D02*
D03*
X049466Y023286D02*
D03*
X044766D02*
D03*
X049489Y027350D02*
D03*
X044789Y030650D02*
D03*
X040089Y030600D02*
D03*
X044766Y027286D02*
D03*
X030566Y023136D02*
D03*
X030066Y023086D02*
D03*
X035366Y023136D02*
D03*
X043016Y025036D02*
D03*
X043369Y024517D02*
D03*
X047666Y025136D02*
D03*
X035279Y024917D02*
D03*
X048566Y024086D02*
D03*
X048116Y024436D02*
D03*
X047966Y027236D02*
D03*
X044166Y027036D02*
D03*
X043316Y026936D02*
D03*
X033912Y024398D02*
D03*
X034366Y024136D02*
D03*
X034272Y024715D02*
D03*
X051966Y029186D02*
D03*
X051239Y030542D02*
D03*
X048966Y030486D02*
D03*
X045766Y029736D02*
D03*
X044116Y030236D02*
D03*
X027166Y030036D02*
D03*
X025466Y028036D02*
D03*
X026216D02*
D03*
X028067Y030386D02*
D03*
X030216Y028536D02*
D03*
X028966Y028036D02*
D03*
X027566D02*
D03*
X028216D02*
D03*
X025566Y029636D02*
D03*
X026584Y029903D02*
D03*
X029616Y030286D02*
D03*
X028514Y029885D02*
D03*
X028966Y030336D02*
D03*
X033366Y023986D02*
D03*
X039966Y023236D02*
D03*
X038966Y024186D02*
D03*
X038666Y024586D02*
D03*
X037766Y024886D02*
D03*
X042266Y025186D02*
D03*
X047016Y025236D02*
D03*
X034016Y028186D02*
D03*
X034287Y028686D02*
D03*
X037916Y028736D02*
D03*
X042566D02*
D03*
X047216Y028886D02*
D03*
X039516Y030536D02*
D03*
X040866Y030286D02*
D03*
X038735Y031436D02*
D03*
X043466Y031405D02*
D03*
X049489Y030600D02*
D03*
X048366Y032286D02*
D03*
X048166Y031586D02*
D03*
X051816Y025136D02*
D03*
X029366Y024036D02*
D03*
X063500Y014250D02*
D03*
X058600D02*
D03*
X052400Y014700D02*
D03*
X052900D02*
D03*
X051900Y014500D02*
D03*
X040000Y017300D02*
D03*
X051800Y016100D02*
D03*
X052297Y015252D02*
D03*
X051850Y015000D02*
D03*
X066400Y023000D02*
D03*
X065200Y024600D02*
D03*
X066200Y024100D02*
D03*
X065700Y024400D02*
D03*
X066300Y025000D02*
D03*
X065800Y025900D02*
D03*
X066500Y026100D02*
D03*
X066800Y025500D02*
D03*
X056300Y015724D02*
D03*
X048600Y012600D02*
D03*
X049200Y011800D02*
D03*
X048700D02*
D03*
D49*
X054333Y015634D02*
D03*
X053900D02*
D03*
X053467D02*
D03*
X054333Y016067D02*
D03*
X053900D02*
D03*
X053467D02*
D03*
X054333Y016500D02*
D03*
X053900D02*
D03*
X053467D02*
D03*
X054333Y016933D02*
D03*
X053900D02*
D03*
X053467D02*
D03*
X054333Y017366D02*
D03*
X053900D02*
D03*
X053467D02*
D03*
M02*
