G04 Layer_Color=16711935*
%FSAX25Y25*%
%MOIN*%
G70*
G01*
G75*
%ADD55C,0.07480*%
%ADD58C,0.12205*%
%ADD125R,0.02569X0.02647*%
%ADD126R,0.02647X0.02569*%
%ADD127R,0.02765X0.02372*%
%ADD128R,0.02372X0.02765*%
%ADD131R,0.02569X0.02372*%
%ADD135R,0.03356X0.04143*%
%ADD138C,0.07490*%
%ADD139C,0.06900*%
%ADD140C,0.01200*%
%ADD141R,0.01584X0.04143*%
%ADD142R,0.06899X0.01387*%
%ADD143R,0.06112X0.03750*%
%ADD144R,0.01781X0.02372*%
%ADD145R,0.06899X0.04537*%
%ADD146O,0.05915X0.02372*%
%ADD147O,0.06400X0.02000*%
%ADD148R,0.04931X0.08080*%
%ADD149R,0.03947X0.02372*%
%ADD150R,0.04567X0.02402*%
%ADD151R,0.02372X0.02569*%
%ADD152R,0.04537X0.04931*%
%ADD153R,0.03356X0.05718*%
%ADD154O,0.02372X0.06899*%
%ADD155O,0.06702X0.01584*%
%ADD156O,0.01584X0.06702*%
%ADD157R,0.07214X0.06584*%
%ADD158R,0.07293X0.04931*%
%ADD159R,0.05718X0.03356*%
%ADD160R,0.03947X0.04931*%
%ADD161R,0.08868X0.07293*%
%ADD162R,0.06900X0.06100*%
%ADD163R,0.08474X0.04931*%
%ADD164R,0.06584X0.07214*%
%ADD165R,0.02372X0.03947*%
D55*
X0751415Y0626500D02*
D03*
D58*
X0524000Y0547500D02*
D03*
Y0629500D02*
D03*
X0876500D02*
D03*
Y0547500D02*
D03*
D125*
X0756114Y0546000D02*
D03*
X0752886D02*
D03*
X0548614Y0593500D02*
D03*
X0545386D02*
D03*
X0697614Y0617000D02*
D03*
X0694386D02*
D03*
X0700886D02*
D03*
X0704114D02*
D03*
X0719886Y0573500D02*
D03*
X0723114D02*
D03*
X0719886Y0577000D02*
D03*
X0723114D02*
D03*
X0699386Y0571000D02*
D03*
X0702614D02*
D03*
X0718886Y0610000D02*
D03*
X0722114D02*
D03*
X0689114Y0607000D02*
D03*
X0685886D02*
D03*
D126*
X0691000Y0577114D02*
D03*
Y0573886D02*
D03*
X0802500Y0585386D02*
D03*
Y0588614D02*
D03*
X0735000Y0558614D02*
D03*
Y0555386D02*
D03*
X0763000Y0578886D02*
D03*
Y0582114D02*
D03*
X0598500Y0574386D02*
D03*
Y0577614D02*
D03*
X0694000Y0562114D02*
D03*
Y0558886D02*
D03*
X0722000D02*
D03*
Y0562114D02*
D03*
X0744500Y0601114D02*
D03*
Y0597886D02*
D03*
Y0604886D02*
D03*
Y0608114D02*
D03*
X0735500Y0590114D02*
D03*
Y0586886D02*
D03*
X0734500Y0572886D02*
D03*
Y0576114D02*
D03*
D127*
X0667500Y0550228D02*
D03*
Y0553772D02*
D03*
X0725500Y0605728D02*
D03*
Y0609272D02*
D03*
X0729000Y0605728D02*
D03*
Y0609272D02*
D03*
X0548500Y0563272D02*
D03*
Y0559728D02*
D03*
Y0571272D02*
D03*
Y0567728D02*
D03*
X0770500Y0553772D02*
D03*
Y0550228D02*
D03*
X0767000D02*
D03*
Y0553772D02*
D03*
X0569000Y0574228D02*
D03*
Y0577772D02*
D03*
X0767000Y0582272D02*
D03*
Y0578728D02*
D03*
X0691000Y0616272D02*
D03*
Y0612728D02*
D03*
X0802500Y0578728D02*
D03*
Y0582272D02*
D03*
D128*
X0694272Y0568000D02*
D03*
X0690728D02*
D03*
X0748772Y0566500D02*
D03*
X0745228D02*
D03*
X0770272Y0632500D02*
D03*
X0766728D02*
D03*
X0639772Y0568500D02*
D03*
X0636228D02*
D03*
X0626772Y0562500D02*
D03*
X0623228D02*
D03*
X0667772Y0559000D02*
D03*
X0664228D02*
D03*
X0629728Y0562500D02*
D03*
X0633272D02*
D03*
X0542272Y0593500D02*
D03*
X0538728D02*
D03*
X0699272Y0633000D02*
D03*
X0695728D02*
D03*
X0699272Y0629500D02*
D03*
X0695728D02*
D03*
X0732228D02*
D03*
X0735772D02*
D03*
X0756500Y0618500D02*
D03*
X0760043D02*
D03*
X0732228Y0623500D02*
D03*
X0735772D02*
D03*
X0755772Y0566500D02*
D03*
X0752228D02*
D03*
X0612728Y0562500D02*
D03*
X0616272D02*
D03*
X0606228D02*
D03*
X0609772D02*
D03*
X0636228D02*
D03*
X0639772D02*
D03*
X0633272Y0565500D02*
D03*
X0629728D02*
D03*
X0618228Y0545000D02*
D03*
X0621772D02*
D03*
X0714228Y0622500D02*
D03*
X0717772D02*
D03*
X0714228Y0619000D02*
D03*
X0717772D02*
D03*
X0752228Y0570000D02*
D03*
X0755772D02*
D03*
X0581728Y0556000D02*
D03*
X0585272D02*
D03*
X0711728Y0614500D02*
D03*
X0715272D02*
D03*
X0628272Y0570500D02*
D03*
X0624728D02*
D03*
D131*
X0791626Y0596000D02*
D03*
X0782374D02*
D03*
D135*
X0580744Y0562500D02*
D03*
X0586256D02*
D03*
X0768244Y0568500D02*
D03*
X0773756D02*
D03*
X0580744Y0549500D02*
D03*
X0586256D02*
D03*
Y0543000D02*
D03*
X0580744D02*
D03*
D138*
X0547445Y0624500D02*
D03*
X0557287D02*
D03*
X0567130D02*
D03*
X0576972D02*
D03*
X0586815D02*
D03*
X0596658D02*
D03*
X0606500D02*
D03*
X0616342D02*
D03*
X0626185D02*
D03*
X0636028D02*
D03*
X0645870D02*
D03*
X0655713D02*
D03*
X0665555D02*
D03*
D139*
X0543000Y0547200D02*
D03*
Y0555100D02*
D03*
Y0563000D02*
D03*
Y0570874D02*
D03*
Y0578748D02*
D03*
X0562500Y0547363D02*
D03*
Y0555237D02*
D03*
Y0572063D02*
D03*
Y0579937D02*
D03*
X0688000Y0622063D02*
D03*
Y0629937D02*
D03*
D140*
X0612000Y0543000D02*
D03*
X0615000Y0546000D02*
D03*
Y0543000D02*
D03*
X0638886Y0541401D02*
D03*
X0680673Y0577600D02*
D03*
X0676500Y0567000D02*
D03*
Y0571500D02*
D03*
X0681000Y0598500D02*
D03*
X0678000D02*
D03*
X0681000Y0610272D02*
D03*
X0685500Y0554000D02*
D03*
Y0557000D02*
D03*
X0682500D02*
D03*
Y0554000D02*
D03*
X0664500Y0547000D02*
D03*
X0667500D02*
D03*
X0670500D02*
D03*
X0673500D02*
D03*
Y0544000D02*
D03*
X0670500D02*
D03*
X0667500D02*
D03*
X0664500D02*
D03*
X0676500Y0557000D02*
D03*
X0673500Y0554000D02*
D03*
X0670500D02*
D03*
X0673500Y0557000D02*
D03*
X0670500D02*
D03*
X0676500Y0564000D02*
D03*
X0673500Y0567000D02*
D03*
Y0564000D02*
D03*
X0670500Y0567000D02*
D03*
X0668000Y0575500D02*
D03*
X0671000D02*
D03*
X0674000D02*
D03*
X0678500D02*
D03*
X0661000Y0581500D02*
D03*
X0666000Y0586500D02*
D03*
X0668500Y0589000D02*
D03*
X0663500Y0584000D02*
D03*
X0658000Y0581500D02*
D03*
X0703000Y0622000D02*
D03*
X0698500D02*
D03*
X0701000Y0626000D02*
D03*
X0694500Y0614000D02*
D03*
X0694031Y0617000D02*
D03*
X0741000Y0608500D02*
D03*
Y0611500D02*
D03*
X0850500Y0552000D02*
D03*
Y0549500D02*
D03*
Y0547000D02*
D03*
Y0544500D02*
D03*
X0848000D02*
D03*
Y0547000D02*
D03*
Y0549500D02*
D03*
Y0552000D02*
D03*
X0845500D02*
D03*
Y0549500D02*
D03*
Y0547000D02*
D03*
Y0544500D02*
D03*
X0843000D02*
D03*
Y0547000D02*
D03*
Y0552000D02*
D03*
Y0549500D02*
D03*
Y0542000D02*
D03*
X0845500D02*
D03*
X0848000D02*
D03*
X0850500D02*
D03*
X0863000Y0552000D02*
D03*
Y0549500D02*
D03*
Y0547000D02*
D03*
Y0544500D02*
D03*
X0860500D02*
D03*
Y0547000D02*
D03*
Y0549500D02*
D03*
Y0552000D02*
D03*
X0858000D02*
D03*
Y0549500D02*
D03*
Y0547000D02*
D03*
Y0544500D02*
D03*
X0855500D02*
D03*
Y0547000D02*
D03*
Y0552000D02*
D03*
X0853000D02*
D03*
Y0549500D02*
D03*
Y0547000D02*
D03*
Y0544500D02*
D03*
X0855500Y0549500D02*
D03*
X0853000Y0542000D02*
D03*
X0855500D02*
D03*
X0858000D02*
D03*
X0860500D02*
D03*
X0863000D02*
D03*
X0840500D02*
D03*
Y0549500D02*
D03*
Y0552000D02*
D03*
Y0547000D02*
D03*
Y0544500D02*
D03*
X0575000Y0580000D02*
D03*
X0574500Y0552500D02*
D03*
X0618500Y0544968D02*
D03*
X0649500Y0543000D02*
D03*
X0734500Y0576468D02*
D03*
X0734500Y0573500D02*
D03*
X0799500Y0583000D02*
D03*
X0789000Y0565500D02*
D03*
X0792000D02*
D03*
X0795000D02*
D03*
Y0568500D02*
D03*
X0792000D02*
D03*
X0789000D02*
D03*
Y0571500D02*
D03*
X0792000D02*
D03*
Y0574500D02*
D03*
X0789000D02*
D03*
Y0577500D02*
D03*
X0792000D02*
D03*
Y0580500D02*
D03*
X0789000D02*
D03*
X0786000Y0565500D02*
D03*
Y0571500D02*
D03*
Y0577500D02*
D03*
Y0568500D02*
D03*
Y0574500D02*
D03*
X0691000Y0616272D02*
D03*
X0804000Y0617000D02*
D03*
X0798000D02*
D03*
X0801000D02*
D03*
X0793000Y0615500D02*
D03*
X0699272Y0633000D02*
D03*
X0790000Y0602000D02*
D03*
X0802000Y0589988D02*
D03*
X0850500Y0634500D02*
D03*
X0853000D02*
D03*
X0855500D02*
D03*
Y0632000D02*
D03*
Y0629500D02*
D03*
X0853000D02*
D03*
X0850500D02*
D03*
Y0632000D02*
D03*
X0853000D02*
D03*
X0789000Y0548500D02*
D03*
X0792000D02*
D03*
X0795000D02*
D03*
Y0551500D02*
D03*
X0792000D02*
D03*
X0789000D02*
D03*
X0689114Y0607000D02*
D03*
X0723000Y0621000D02*
D03*
X0722500Y0630500D02*
D03*
X0670500Y0564000D02*
D03*
X0605283Y0572565D02*
D03*
X0586000Y0586500D02*
D03*
X0726500Y0573500D02*
D03*
X0756000Y0590000D02*
D03*
X0735000Y0599500D02*
D03*
X0633272Y0565500D02*
D03*
X0626968Y0562500D02*
D03*
X0613000Y0570500D02*
D03*
X0724500Y0613500D02*
D03*
X0693500Y0601500D02*
D03*
X0719000Y0616000D02*
D03*
X0722000D02*
D03*
X0717500Y0619000D02*
D03*
X0714114Y0598500D02*
D03*
X0731000Y0613500D02*
D03*
X0548500Y0559531D02*
D03*
Y0567728D02*
D03*
X0699995Y0580181D02*
D03*
X0707000Y0602000D02*
D03*
X0731000Y0603000D02*
D03*
X0741000Y0600000D02*
D03*
X0768000Y0593000D02*
D03*
X0765000D02*
D03*
X0744000Y0608500D02*
D03*
X0747000D02*
D03*
X0750000D02*
D03*
Y0611500D02*
D03*
X0747000D02*
D03*
X0744000D02*
D03*
X0741000Y0614500D02*
D03*
X0744000D02*
D03*
X0747000D02*
D03*
X0765000Y0596000D02*
D03*
X0762000Y0593000D02*
D03*
Y0596000D02*
D03*
X0759000Y0593000D02*
D03*
Y0596000D02*
D03*
X0756000Y0593000D02*
D03*
X0738000Y0597000D02*
D03*
X0741000D02*
D03*
X0744000D02*
D03*
X0784000Y0596000D02*
D03*
X0781000D02*
D03*
X0790000D02*
D03*
X0793000D02*
D03*
X0720000Y0621500D02*
D03*
X0788500Y0611500D02*
D03*
X0793000Y0613000D02*
D03*
X0712500Y0602000D02*
D03*
X0709600D02*
D03*
X0701000D02*
D03*
X0704000D02*
D03*
X0714000Y0593500D02*
D03*
X0716000Y0596000D02*
D03*
X0722114Y0610000D02*
D03*
X0718886D02*
D03*
X0637387Y0565613D02*
D03*
X0620047Y0555451D02*
D03*
X0802000Y0606500D02*
D03*
X0799000D02*
D03*
Y0603500D02*
D03*
X0802000D02*
D03*
Y0600500D02*
D03*
X0799000D02*
D03*
X0796000Y0606500D02*
D03*
Y0600500D02*
D03*
X0793000Y0606500D02*
D03*
Y0603500D02*
D03*
X0796000D02*
D03*
X0799000Y0597500D02*
D03*
X0802000D02*
D03*
X0861000Y0583500D02*
D03*
X0863500D02*
D03*
X0853500Y0603500D02*
D03*
X0856000D02*
D03*
X0858500D02*
D03*
X0861000D02*
D03*
X0863500D02*
D03*
X0841000D02*
D03*
X0843500D02*
D03*
X0846000D02*
D03*
X0848500D02*
D03*
X0851000D02*
D03*
Y0601000D02*
D03*
Y0598500D02*
D03*
Y0596000D02*
D03*
Y0593500D02*
D03*
Y0591000D02*
D03*
Y0588500D02*
D03*
X0848500D02*
D03*
Y0591000D02*
D03*
Y0593500D02*
D03*
Y0596000D02*
D03*
Y0598500D02*
D03*
Y0601000D02*
D03*
X0846000D02*
D03*
Y0598500D02*
D03*
Y0596000D02*
D03*
Y0593500D02*
D03*
Y0591000D02*
D03*
Y0588500D02*
D03*
X0843500D02*
D03*
Y0591000D02*
D03*
Y0596000D02*
D03*
Y0601000D02*
D03*
X0841000D02*
D03*
Y0598500D02*
D03*
Y0596000D02*
D03*
Y0593500D02*
D03*
Y0591000D02*
D03*
Y0588500D02*
D03*
X0843500Y0593500D02*
D03*
Y0598500D02*
D03*
Y0586000D02*
D03*
X0846000D02*
D03*
X0848500D02*
D03*
X0851000D02*
D03*
X0863500Y0601000D02*
D03*
Y0598500D02*
D03*
Y0596000D02*
D03*
Y0593500D02*
D03*
Y0591000D02*
D03*
Y0588500D02*
D03*
X0861000D02*
D03*
Y0591000D02*
D03*
Y0593500D02*
D03*
Y0596000D02*
D03*
Y0598500D02*
D03*
Y0601000D02*
D03*
X0858500D02*
D03*
Y0598500D02*
D03*
Y0596000D02*
D03*
Y0593500D02*
D03*
Y0591000D02*
D03*
Y0588500D02*
D03*
X0856000D02*
D03*
Y0591000D02*
D03*
Y0596000D02*
D03*
Y0601000D02*
D03*
X0853500D02*
D03*
Y0598500D02*
D03*
Y0596000D02*
D03*
Y0593500D02*
D03*
Y0591000D02*
D03*
Y0588500D02*
D03*
X0856000Y0593500D02*
D03*
Y0598500D02*
D03*
X0853500Y0586000D02*
D03*
X0856000D02*
D03*
X0858500D02*
D03*
X0861000D02*
D03*
X0863500D02*
D03*
X0790000Y0593000D02*
D03*
X0793000D02*
D03*
X0790000Y0590000D02*
D03*
X0793000D02*
D03*
X0790000Y0599000D02*
D03*
X0793000D02*
D03*
X0796000Y0596000D02*
D03*
Y0593000D02*
D03*
X0799000D02*
D03*
X0802000D02*
D03*
X0617000Y0559000D02*
D03*
X0616272Y0562500D02*
D03*
X0628500Y0559000D02*
D03*
X0723114Y0577000D02*
D03*
Y0573500D02*
D03*
X0719886Y0577000D02*
D03*
Y0573500D02*
D03*
X0753000Y0611500D02*
D03*
Y0608500D02*
D03*
Y0605500D02*
D03*
X0841000Y0564000D02*
D03*
X0858500Y0579000D02*
D03*
Y0576500D02*
D03*
Y0574000D02*
D03*
Y0571500D02*
D03*
Y0569000D02*
D03*
Y0566500D02*
D03*
X0856000D02*
D03*
Y0569000D02*
D03*
Y0571500D02*
D03*
Y0574000D02*
D03*
Y0576500D02*
D03*
Y0579000D02*
D03*
X0853500D02*
D03*
Y0576500D02*
D03*
Y0574000D02*
D03*
Y0571500D02*
D03*
Y0569000D02*
D03*
Y0566500D02*
D03*
X0851000D02*
D03*
Y0569000D02*
D03*
Y0574000D02*
D03*
Y0579000D02*
D03*
X0848500D02*
D03*
Y0576500D02*
D03*
Y0574000D02*
D03*
Y0571500D02*
D03*
Y0569000D02*
D03*
Y0566500D02*
D03*
X0846000D02*
D03*
Y0569000D02*
D03*
Y0571500D02*
D03*
Y0576500D02*
D03*
X0843500Y0574000D02*
D03*
Y0566500D02*
D03*
X0851000Y0571500D02*
D03*
X0846000Y0574000D02*
D03*
X0851000Y0576500D02*
D03*
X0843500Y0564000D02*
D03*
X0846000D02*
D03*
X0848500D02*
D03*
X0851000D02*
D03*
X0853500D02*
D03*
X0856000D02*
D03*
X0858500D02*
D03*
X0843500Y0576500D02*
D03*
X0846000Y0579000D02*
D03*
X0747500Y0601500D02*
D03*
X0738000Y0600000D02*
D03*
X0745000Y0601500D02*
D03*
X0555000Y0555500D02*
D03*
X0723000Y0623500D02*
D03*
X0544000Y0598500D02*
D03*
X0556500D02*
D03*
X0569000D02*
D03*
X0581500D02*
D03*
X0594000D02*
D03*
X0606500D02*
D03*
X0619000D02*
D03*
X0631500D02*
D03*
X0541000D02*
D03*
X0553500D02*
D03*
X0566000D02*
D03*
X0578500D02*
D03*
X0591000D02*
D03*
X0603500D02*
D03*
X0616000D02*
D03*
X0628500D02*
D03*
X0543500Y0610272D02*
D03*
X0556000D02*
D03*
X0568500D02*
D03*
X0581000D02*
D03*
X0593500D02*
D03*
X0606000D02*
D03*
X0618500D02*
D03*
X0538000Y0603000D02*
D03*
X0550500D02*
D03*
X0563000D02*
D03*
X0575500D02*
D03*
X0600500D02*
D03*
X0613000D02*
D03*
X0625500D02*
D03*
X0638000D02*
D03*
X0650500D02*
D03*
X0663000D02*
D03*
X0675500D02*
D03*
X0588000D02*
D03*
X0656000Y0610272D02*
D03*
X0668500D02*
D03*
X0644000Y0598500D02*
D03*
X0656500D02*
D03*
X0669000D02*
D03*
X0641000D02*
D03*
X0653500D02*
D03*
X0666000D02*
D03*
X0631000Y0610272D02*
D03*
X0643500D02*
D03*
X0538110Y0597000D02*
D03*
X0538728Y0593500D02*
D03*
X0586000Y0590000D02*
D03*
X0598500Y0579000D02*
D03*
X0586500Y0543000D02*
D03*
X0786500Y0584500D02*
D03*
X0833000Y0542000D02*
D03*
X0830500D02*
D03*
X0828000D02*
D03*
X0825500D02*
D03*
X0823000D02*
D03*
X0825500Y0549500D02*
D03*
X0823000Y0544500D02*
D03*
Y0547000D02*
D03*
Y0549500D02*
D03*
Y0552000D02*
D03*
X0825500D02*
D03*
Y0547000D02*
D03*
Y0544500D02*
D03*
X0828000D02*
D03*
Y0547000D02*
D03*
Y0549500D02*
D03*
Y0552000D02*
D03*
X0830500D02*
D03*
Y0549500D02*
D03*
Y0547000D02*
D03*
Y0544500D02*
D03*
X0833000D02*
D03*
Y0547000D02*
D03*
Y0549500D02*
D03*
Y0552000D02*
D03*
X0820500Y0542000D02*
D03*
X0818000D02*
D03*
X0815500D02*
D03*
X0813000D02*
D03*
Y0549500D02*
D03*
Y0547000D02*
D03*
Y0544500D02*
D03*
X0815500D02*
D03*
Y0547000D02*
D03*
Y0549500D02*
D03*
Y0552000D02*
D03*
X0818000D02*
D03*
Y0549500D02*
D03*
Y0547000D02*
D03*
Y0544500D02*
D03*
X0820500D02*
D03*
Y0547000D02*
D03*
Y0549500D02*
D03*
Y0552000D02*
D03*
X0835500D02*
D03*
Y0549500D02*
D03*
Y0547000D02*
D03*
Y0544500D02*
D03*
Y0542000D02*
D03*
X0621772Y0545000D02*
D03*
X0645500Y0568500D02*
D03*
X0642500D02*
D03*
X0628272Y0570500D02*
D03*
X0646500Y0564000D02*
D03*
X0636228Y0568500D02*
D03*
X0704000Y0617000D02*
D03*
X0777000Y0612000D02*
D03*
X0853500Y0581772D02*
D03*
X0837600Y0586833D02*
D03*
X0768000Y0596000D02*
D03*
X0771000D02*
D03*
X0770500Y0550228D02*
D03*
X0750000Y0614500D02*
D03*
X0777000Y0615000D02*
D03*
X0747000Y0597000D02*
D03*
X0767000Y0582272D02*
D03*
Y0584500D02*
D03*
X0752000Y0588000D02*
D03*
X0747500D02*
D03*
X0764000Y0584500D02*
D03*
X0771000Y0613000D02*
D03*
X0767500D02*
D03*
X0764000D02*
D03*
X0760500D02*
D03*
X0552000Y0589500D02*
D03*
X0586500Y0556000D02*
D03*
Y0562500D02*
D03*
X0578000Y0546000D02*
D03*
X0652000Y0549000D02*
D03*
X0655000D02*
D03*
X0578000Y0552500D02*
D03*
X0574500Y0571500D02*
D03*
X0572000Y0561000D02*
D03*
X0574500Y0559000D02*
D03*
X0578000D02*
D03*
X0586551Y0549500D02*
D03*
X0843500Y0571500D02*
D03*
Y0569000D02*
D03*
X0841000Y0566500D02*
D03*
Y0571500D02*
D03*
Y0569000D02*
D03*
X0649000Y0558500D02*
D03*
X0739500Y0588000D02*
D03*
X0841000Y0574000D02*
D03*
X0761000Y0560500D02*
D03*
Y0564000D02*
D03*
X0858500Y0583500D02*
D03*
X0786000Y0580500D02*
D03*
X0807000Y0617000D02*
D03*
X0813000Y0634500D02*
D03*
X0815500D02*
D03*
X0818000D02*
D03*
X0820500D02*
D03*
X0823000D02*
D03*
X0825500D02*
D03*
X0828000D02*
D03*
X0830500D02*
D03*
X0833000D02*
D03*
X0835500D02*
D03*
Y0632000D02*
D03*
X0833000D02*
D03*
X0830500D02*
D03*
X0828000D02*
D03*
X0825500D02*
D03*
X0823000D02*
D03*
X0820500D02*
D03*
X0818000D02*
D03*
X0815500D02*
D03*
X0813000D02*
D03*
X0835500Y0629500D02*
D03*
X0833000D02*
D03*
X0830500D02*
D03*
X0828000D02*
D03*
X0825500D02*
D03*
X0823000D02*
D03*
X0820500D02*
D03*
X0818000D02*
D03*
X0815500D02*
D03*
X0813000D02*
D03*
X0835500Y0627000D02*
D03*
X0833000D02*
D03*
X0830500D02*
D03*
X0828000D02*
D03*
X0825500D02*
D03*
X0823000D02*
D03*
X0820500D02*
D03*
X0818000D02*
D03*
X0815500D02*
D03*
X0813000D02*
D03*
X0835500Y0624500D02*
D03*
X0833000D02*
D03*
X0830500D02*
D03*
X0828000D02*
D03*
X0825500D02*
D03*
X0823000D02*
D03*
X0820500D02*
D03*
X0818000D02*
D03*
X0815500D02*
D03*
X0813000D02*
D03*
X0835500Y0622000D02*
D03*
X0833000D02*
D03*
X0830500D02*
D03*
X0828000D02*
D03*
X0825500D02*
D03*
X0823000D02*
D03*
X0820500D02*
D03*
X0818000D02*
D03*
X0815500D02*
D03*
X0813000D02*
D03*
X0835500Y0619500D02*
D03*
X0833000D02*
D03*
X0830500D02*
D03*
X0828000D02*
D03*
X0825500D02*
D03*
X0823000D02*
D03*
X0820500D02*
D03*
X0818000D02*
D03*
X0815500D02*
D03*
X0813000D02*
D03*
Y0637000D02*
D03*
X0815500D02*
D03*
X0818000D02*
D03*
X0820500D02*
D03*
X0823000D02*
D03*
X0825500D02*
D03*
X0828000D02*
D03*
X0830500D02*
D03*
X0833000D02*
D03*
X0835500D02*
D03*
X0805500Y0553000D02*
D03*
X0808500D02*
D03*
Y0550000D02*
D03*
X0813000Y0552000D02*
D03*
X0830000Y0585000D02*
D03*
X0835000D02*
D03*
X0832500D02*
D03*
X0827500Y0592000D02*
D03*
Y0589500D02*
D03*
X0830000D02*
D03*
X0832500D02*
D03*
X0827500Y0605500D02*
D03*
X0830000D02*
D03*
X0832500D02*
D03*
Y0608000D02*
D03*
X0830000D02*
D03*
X0832500Y0610500D02*
D03*
X0827500Y0603000D02*
D03*
X0830000D02*
D03*
X0825000D02*
D03*
Y0592000D02*
D03*
Y0589500D02*
D03*
X0713905Y0611742D02*
D03*
X0712500Y0627000D02*
D03*
X0712000Y0595876D02*
D03*
X0735500Y0589500D02*
D03*
X0729000Y0609272D02*
D03*
X0725000Y0599000D02*
D03*
X0727500Y0590500D02*
D03*
X0701500Y0591000D02*
D03*
X0698500D02*
D03*
X0695500D02*
D03*
X0706500D02*
D03*
X0709500D02*
D03*
X0706500Y0588000D02*
D03*
X0709500D02*
D03*
X0695500D02*
D03*
X0698500D02*
D03*
X0701500D02*
D03*
X0715500Y0627000D02*
D03*
X0682500Y0544000D02*
D03*
X0685500D02*
D03*
D141*
X0686953Y0565008D02*
D03*
X0684984D02*
D03*
X0683016D02*
D03*
X0681047D02*
D03*
X0686953Y0575992D02*
D03*
X0684984D02*
D03*
X0683016D02*
D03*
X0681047D02*
D03*
D142*
X0684000Y0570500D02*
D03*
D143*
X0761651Y0629354D02*
D03*
Y0623646D02*
D03*
X0741179Y0629354D02*
D03*
Y0623646D02*
D03*
D144*
X0734941Y0607839D02*
D03*
X0737500D02*
D03*
X0740059D02*
D03*
Y0600161D02*
D03*
X0737500D02*
D03*
X0734941D02*
D03*
D145*
X0737500Y0604000D02*
D03*
D146*
X0739740Y0550661D02*
D03*
Y0553221D02*
D03*
Y0555780D02*
D03*
Y0558339D02*
D03*
X0757260Y0550661D02*
D03*
Y0553221D02*
D03*
Y0555780D02*
D03*
Y0558339D02*
D03*
D147*
X0796600Y0572543D02*
D03*
Y0575102D02*
D03*
Y0577661D02*
D03*
Y0580221D02*
D03*
Y0582780D02*
D03*
Y0585339D02*
D03*
Y0587898D02*
D03*
Y0590457D02*
D03*
X0774400D02*
D03*
Y0587898D02*
D03*
Y0585339D02*
D03*
Y0582780D02*
D03*
Y0580221D02*
D03*
Y0577661D02*
D03*
Y0575102D02*
D03*
Y0572543D02*
D03*
D148*
X0733421Y0547500D02*
D03*
X0723579D02*
D03*
D149*
X0612847Y0567941D02*
D03*
Y0573059D02*
D03*
X0621153Y0570500D02*
D03*
X0782154Y0630000D02*
D03*
X0773846Y0632559D02*
D03*
Y0627441D02*
D03*
D150*
X0594118Y0579839D02*
D03*
Y0577280D02*
D03*
Y0574720D02*
D03*
X0583882D02*
D03*
Y0577280D02*
D03*
Y0579839D02*
D03*
Y0572161D02*
D03*
X0594118D02*
D03*
D151*
X0601000Y0554374D02*
D03*
Y0563626D02*
D03*
X0750000Y0614626D02*
D03*
Y0605374D02*
D03*
X0722500Y0630626D02*
D03*
Y0621374D02*
D03*
D152*
X0684102Y0555500D02*
D03*
X0671898D02*
D03*
D153*
X0537260Y0603000D02*
D03*
X0544740D02*
D03*
X0743240Y0613500D02*
D03*
X0735760D02*
D03*
X0674760Y0603000D02*
D03*
X0682240D02*
D03*
X0662260D02*
D03*
X0669740D02*
D03*
X0649760D02*
D03*
X0657240D02*
D03*
X0637260D02*
D03*
X0644740D02*
D03*
X0624760D02*
D03*
X0632240D02*
D03*
X0612260D02*
D03*
X0619740D02*
D03*
X0599760D02*
D03*
X0607240D02*
D03*
X0587260D02*
D03*
X0594740D02*
D03*
X0574760D02*
D03*
X0582240D02*
D03*
X0562260D02*
D03*
X0569740D02*
D03*
X0549760D02*
D03*
X0557240D02*
D03*
D154*
X0739661Y0588465D02*
D03*
X0742220D02*
D03*
X0744779D02*
D03*
X0747338D02*
D03*
X0739661Y0571535D02*
D03*
X0742220D02*
D03*
X0744779D02*
D03*
X0747338D02*
D03*
D155*
X0720894Y0581520D02*
D03*
Y0583488D02*
D03*
Y0585457D02*
D03*
Y0587425D02*
D03*
Y0589394D02*
D03*
Y0591362D02*
D03*
Y0593331D02*
D03*
Y0595299D02*
D03*
Y0597268D02*
D03*
Y0599236D02*
D03*
Y0601205D02*
D03*
Y0603173D02*
D03*
X0689201D02*
D03*
Y0601205D02*
D03*
Y0599236D02*
D03*
Y0597268D02*
D03*
Y0595299D02*
D03*
Y0593331D02*
D03*
Y0591362D02*
D03*
Y0589394D02*
D03*
Y0587425D02*
D03*
Y0585457D02*
D03*
Y0583488D02*
D03*
Y0581520D02*
D03*
D156*
X0715874Y0608193D02*
D03*
X0713906D02*
D03*
X0711937D02*
D03*
X0709969D02*
D03*
X0708000D02*
D03*
X0706032D02*
D03*
X0704063D02*
D03*
X0702095D02*
D03*
X0700126D02*
D03*
X0698158D02*
D03*
X0696189D02*
D03*
X0694221D02*
D03*
Y0576500D02*
D03*
X0696189D02*
D03*
X0698158D02*
D03*
X0700126D02*
D03*
X0702095D02*
D03*
X0704063D02*
D03*
X0706032D02*
D03*
X0708000D02*
D03*
X0709969D02*
D03*
X0711937D02*
D03*
X0713906D02*
D03*
X0715874D02*
D03*
D157*
X0792000Y0551098D02*
D03*
Y0565902D02*
D03*
D158*
X0840838Y0591716D02*
D03*
X0849500D02*
D03*
X0858161D02*
D03*
Y0556284D02*
D03*
X0849500D02*
D03*
X0840838D02*
D03*
D159*
X0849500Y0582858D02*
D03*
D160*
X0856291Y0577347D02*
D03*
X0851764D02*
D03*
X0847236D02*
D03*
X0842708D02*
D03*
Y0566323D02*
D03*
X0847236D02*
D03*
X0851764D02*
D03*
X0856291D02*
D03*
D161*
X0770020Y0620890D02*
D03*
Y0607110D02*
D03*
X0784980Y0620890D02*
D03*
D162*
X0716150Y0565250D02*
D03*
X0699850D02*
D03*
Y0555750D02*
D03*
X0716150D02*
D03*
D163*
X0810500Y0611382D02*
D03*
Y0621618D02*
D03*
X0837500D02*
D03*
Y0611382D02*
D03*
X0855500D02*
D03*
Y0621618D02*
D03*
X0846500D02*
D03*
Y0611382D02*
D03*
X0828500D02*
D03*
Y0621618D02*
D03*
X0819500D02*
D03*
Y0611382D02*
D03*
D164*
X0830598Y0547000D02*
D03*
X0845401D02*
D03*
X0852901Y0632000D02*
D03*
X0838098D02*
D03*
D165*
X0646441Y0558153D02*
D03*
X0651559D02*
D03*
X0649000Y0549847D02*
D03*
X0660500Y0558653D02*
D03*
X0657941Y0550347D02*
D03*
X0663059D02*
D03*
X0678941Y0616153D02*
D03*
X0684059D02*
D03*
X0681500Y0607846D02*
D03*
X0669000D02*
D03*
X0671559Y0616153D02*
D03*
X0666441D02*
D03*
X0653941D02*
D03*
X0659059D02*
D03*
X0656500Y0607846D02*
D03*
X0644000D02*
D03*
X0646559Y0616153D02*
D03*
X0641441D02*
D03*
X0628941D02*
D03*
X0634059D02*
D03*
X0631500Y0607846D02*
D03*
X0619000D02*
D03*
X0621559Y0616153D02*
D03*
X0616441D02*
D03*
X0603941D02*
D03*
X0609059D02*
D03*
X0606500Y0607846D02*
D03*
X0594000D02*
D03*
X0596559Y0616153D02*
D03*
X0591441D02*
D03*
X0578941D02*
D03*
X0584059D02*
D03*
X0581500Y0607846D02*
D03*
X0569000D02*
D03*
X0571559Y0616153D02*
D03*
X0566441D02*
D03*
X0553941D02*
D03*
X0559059D02*
D03*
X0556500Y0607846D02*
D03*
X0544000D02*
D03*
X0546559Y0616153D02*
D03*
X0541441D02*
D03*
X0611941Y0558153D02*
D03*
X0617059D02*
D03*
X0614500Y0549847D02*
D03*
X0626000D02*
D03*
X0628559Y0558153D02*
D03*
X0623441D02*
D03*
X0637500Y0549847D02*
D03*
X0640059Y0558153D02*
D03*
X0634941D02*
D03*
M02*
