G04 Layer_Color=48896*
%FSAX25Y25*%
%MOIN*%
G70*
G01*
G75*
%ADD47C,0.01000*%
%ADD58C,0.00787*%
%ADD84C,0.02362*%
%ADD85C,0.00984*%
%ADD86C,0.00394*%
%ADD87C,0.01575*%
%ADD90C,0.00500*%
%ADD91C,0.00300*%
%ADD154C,0.00600*%
%ADD155C,0.00700*%
D47*
X0864067Y0591716D02*
G03*
X0864067Y0591716I-0000394J0000000D01*
G01*
X0780500Y0574000D02*
G03*
X0780500Y0574000I-0000500J0000000D01*
G01*
X0747000Y0565713D02*
Y0567287D01*
X0801713Y0580500D02*
X0803287D01*
X0690213Y0614500D02*
X0691787D01*
X0626500Y0569713D02*
Y0571287D01*
X0712500Y0613713D02*
Y0615287D01*
X0588500Y0552713D02*
Y0554287D01*
X0738500Y0611000D02*
Y0616000D01*
X0740500Y0611000D02*
Y0616000D01*
X0738500D02*
X0740500D01*
X0738500Y0611000D02*
X0740500D01*
X0540000Y0600500D02*
X0542000D01*
X0540000Y0605500D02*
X0542000D01*
Y0600500D02*
Y0605500D01*
X0540000Y0600500D02*
Y0605500D01*
X0552500Y0600500D02*
X0554500D01*
X0552500Y0605500D02*
X0554500D01*
Y0600500D02*
Y0605500D01*
X0552500Y0600500D02*
Y0605500D01*
X0565000Y0600500D02*
X0567000D01*
X0565000Y0605500D02*
X0567000D01*
Y0600500D02*
Y0605500D01*
X0565000Y0600500D02*
Y0605500D01*
X0577500Y0600500D02*
X0579500D01*
X0577500Y0605500D02*
X0579500D01*
Y0600500D02*
Y0605500D01*
X0577500Y0600500D02*
Y0605500D01*
X0590000Y0600500D02*
X0592000D01*
X0590000Y0605500D02*
X0592000D01*
Y0600500D02*
Y0605500D01*
X0590000Y0600500D02*
Y0605500D01*
X0602500Y0600500D02*
X0604500D01*
X0602500Y0605500D02*
X0604500D01*
Y0600500D02*
Y0605500D01*
X0602500Y0600500D02*
Y0605500D01*
X0615000Y0600500D02*
X0617000D01*
X0615000Y0605500D02*
X0617000D01*
Y0600500D02*
Y0605500D01*
X0615000Y0600500D02*
Y0605500D01*
X0627500Y0600500D02*
X0629500D01*
X0627500Y0605500D02*
X0629500D01*
Y0600500D02*
Y0605500D01*
X0627500Y0600500D02*
Y0605500D01*
X0640000Y0600500D02*
X0642000D01*
X0640000Y0605500D02*
X0642000D01*
Y0600500D02*
Y0605500D01*
X0640000Y0600500D02*
Y0605500D01*
X0652500Y0600500D02*
X0654500D01*
X0652500Y0605500D02*
X0654500D01*
Y0600500D02*
Y0605500D01*
X0652500Y0600500D02*
Y0605500D01*
X0665000Y0600500D02*
X0667000D01*
X0665000Y0605500D02*
X0667000D01*
Y0600500D02*
Y0605500D01*
X0665000Y0600500D02*
Y0605500D01*
X0677500Y0600500D02*
X0679500D01*
X0677500Y0605500D02*
X0679500D01*
Y0600500D02*
Y0605500D01*
X0677500Y0600500D02*
Y0605500D01*
X0766213Y0580500D02*
X0767787D01*
X0863279Y0558646D02*
Y0589354D01*
X0835720Y0558646D02*
Y0589354D01*
X0754000Y0569213D02*
Y0570787D01*
X0716000Y0618213D02*
Y0619787D01*
Y0621713D02*
Y0623287D01*
X0620000Y0544213D02*
Y0545787D01*
X0567000Y0560213D02*
Y0561787D01*
X0770500Y0570000D02*
X0771500D01*
X0770500Y0567000D02*
X0771500D01*
Y0570000D01*
X0770500Y0567000D02*
Y0570000D01*
X0766213Y0552000D02*
X0767787D01*
X0769713D02*
X0771287D01*
X0631500Y0564713D02*
Y0566287D01*
X0638000Y0561713D02*
Y0563287D01*
X0608000Y0561713D02*
Y0563287D01*
X0614500Y0561713D02*
Y0563287D01*
X0754000Y0565713D02*
Y0567287D01*
X0789638Y0560862D02*
X0792000Y0556138D01*
X0789638Y0560862D02*
X0794362D01*
X0792000Y0556138D02*
X0794362Y0560862D01*
X0789638Y0556138D02*
X0794362D01*
X0734000Y0622713D02*
Y0624287D01*
X0758272Y0617713D02*
Y0619287D01*
X0734000Y0628713D02*
Y0630287D01*
X0588894Y0559925D02*
Y0563075D01*
X0588106Y0559925D02*
Y0563075D01*
Y0559925D02*
X0588894D01*
X0588106Y0563075D02*
X0588894D01*
X0697500Y0628713D02*
Y0630287D01*
Y0632213D02*
Y0633787D01*
X0550000Y0570213D02*
Y0571787D01*
Y0562213D02*
Y0563787D01*
X0728213Y0607500D02*
X0729787D01*
X0724713D02*
X0726287D01*
X0838638Y0629638D02*
X0843362Y0632000D01*
X0838638Y0629638D02*
Y0634362D01*
X0843362Y0632000D01*
Y0629638D02*
Y0634362D01*
X0745151Y0632012D02*
X0757749D01*
X0745151Y0620988D02*
X0757749D01*
Y0632012D01*
X0745151Y0620988D02*
Y0632012D01*
X0748694D02*
X0749481D01*
X0745151Y0628469D02*
X0748694Y0632012D01*
X0540500Y0592713D02*
Y0594287D01*
X0704950Y0553250D02*
X0711050D01*
X0704950Y0567750D02*
X0711050D01*
X0631500Y0561713D02*
Y0563287D01*
X0666713Y0552000D02*
X0668287D01*
X0666000Y0558213D02*
Y0559787D01*
X0625000Y0561713D02*
Y0563287D01*
X0588500Y0544212D02*
Y0545787D01*
X0638000Y0567713D02*
Y0569287D01*
X0840862Y0544638D02*
Y0549362D01*
X0836138D02*
X0840862Y0547000D01*
X0836138Y0544638D02*
Y0549362D01*
Y0544638D02*
X0840862Y0547000D01*
X0768500Y0631713D02*
Y0633287D01*
D58*
X0733366Y0609512D02*
G03*
X0733366Y0609512I-0000197J0000000D01*
G01*
X0796921Y0548264D02*
G03*
X0796921Y0548264I-0000197J0000000D01*
G01*
X0851433Y0636724D02*
G03*
X0851433Y0636724I-0000197J0000000D01*
G01*
X0848933Y0551724D02*
G03*
X0848933Y0551724I-0000197J0000000D01*
G01*
X0598244Y0555260D02*
Y0562740D01*
X0603756Y0555260D02*
Y0562740D01*
X0598244D02*
X0599032D01*
X0598244Y0555260D02*
X0599032D01*
X0602969Y0562740D02*
X0603756D01*
X0602969Y0555260D02*
X0603756D01*
X0599425Y0557425D02*
X0602575D01*
X0599425Y0560181D02*
X0602575D01*
X0601000D02*
X0602575Y0557425D01*
X0599425D02*
X0601000Y0560181D01*
X0815437Y0616032D02*
Y0619969D01*
X0807563Y0616032D02*
Y0619969D01*
X0816563Y0616032D02*
Y0619969D01*
X0824437Y0616032D02*
Y0619969D01*
X0833437Y0616032D02*
Y0619969D01*
X0825563Y0616032D02*
Y0619969D01*
X0775531Y0604157D02*
X0783405D01*
X0787343Y0608095D01*
Y0616362D01*
X0775531Y0623842D02*
X0779468D01*
X0767657Y0611638D02*
Y0616362D01*
X0749602Y0576260D02*
Y0583740D01*
X0737398Y0576260D02*
Y0583740D01*
Y0576260D02*
X0749602D01*
X0737398Y0583740D02*
X0749602D01*
X0742224Y0607150D02*
Y0608134D01*
Y0599866D02*
Y0607150D01*
X0732775Y0599866D02*
Y0600850D01*
Y0608134D01*
X0619480Y0572961D02*
Y0574831D01*
X0615937D02*
X0619480D01*
Y0566169D02*
Y0568039D01*
X0615937Y0566169D02*
X0619480D01*
X0725256Y0622260D02*
Y0629740D01*
X0719744Y0622260D02*
Y0629740D01*
X0724468Y0622260D02*
X0725256D01*
X0724468Y0629740D02*
X0725256D01*
X0719744Y0622260D02*
X0720531D01*
X0719744Y0629740D02*
X0720531D01*
X0720925Y0627575D02*
X0724075D01*
X0720925Y0624819D02*
X0724075D01*
X0720925Y0627575D02*
X0722500Y0624819D01*
X0724075Y0627575D01*
X0748425Y0608425D02*
X0750000Y0611181D01*
X0751575Y0608425D01*
X0748425Y0611181D02*
X0751575D01*
X0748425Y0608425D02*
X0751575D01*
X0751969Y0606260D02*
X0752756D01*
X0751969Y0613740D02*
X0752756D01*
X0747244Y0606260D02*
X0748032D01*
X0747244Y0613740D02*
X0748032D01*
X0752756Y0606260D02*
Y0613740D01*
X0747244Y0606260D02*
Y0613740D01*
X0783260Y0593244D02*
X0790740D01*
X0783260Y0598756D02*
X0790740D01*
X0783260Y0593244D02*
Y0594031D01*
X0790740Y0593244D02*
Y0594031D01*
X0783260Y0597968D02*
Y0598756D01*
X0790740Y0597968D02*
Y0598756D01*
X0788575Y0594425D02*
Y0597575D01*
X0785819Y0594425D02*
Y0597575D01*
Y0596000D02*
X0788575Y0597575D01*
X0785819Y0596000D02*
X0788575Y0594425D01*
X0684012Y0560150D02*
Y0560543D01*
X0672988Y0560150D02*
Y0560543D01*
Y0553457D02*
Y0553850D01*
X0684012Y0553457D02*
Y0553850D01*
X0672988Y0553457D02*
X0684012D01*
X0672988Y0560543D02*
X0684012D01*
X0680469Y0555031D02*
Y0558968D01*
X0676532Y0555031D02*
Y0558968D01*
Y0555031D02*
X0680469Y0557000D01*
X0676532Y0558968D02*
X0680469Y0557000D01*
X0843563Y0616032D02*
Y0619969D01*
X0851437Y0616032D02*
Y0619969D01*
X0860437Y0616032D02*
Y0619969D01*
X0852563Y0616032D02*
Y0619969D01*
X0587032Y0568595D02*
Y0580406D01*
X0590969Y0568595D02*
Y0580406D01*
X0587032Y0568595D02*
X0590969D01*
X0587032Y0580406D02*
X0590969D01*
X0693827Y0581126D02*
X0716268D01*
X0693827Y0603567D02*
X0716268D01*
Y0581126D02*
Y0603567D01*
X0693827Y0581126D02*
Y0603567D01*
X0633169Y0551520D02*
Y0555063D01*
Y0551520D02*
X0635039D01*
X0641831D02*
Y0555063D01*
X0639961Y0551520D02*
X0641831D01*
X0621669D02*
Y0555063D01*
Y0551520D02*
X0623539D01*
X0630331D02*
Y0555063D01*
X0628461Y0551520D02*
X0630331D01*
X0616961D02*
X0618831D01*
Y0555063D01*
X0610169Y0551520D02*
X0612039D01*
X0610169D02*
Y0555063D01*
X0786488Y0567358D02*
X0787374D01*
X0786488Y0549642D02*
X0787374D01*
X0796626Y0567358D02*
X0797512D01*
X0796626Y0549642D02*
X0797512D01*
X0786488D02*
Y0567358D01*
X0797512Y0549642D02*
Y0567358D01*
X0832142Y0626488D02*
Y0627374D01*
X0849858Y0626488D02*
Y0627374D01*
X0832142Y0636626D02*
Y0637512D01*
X0849858Y0636626D02*
Y0637512D01*
X0832142Y0626488D02*
X0849858D01*
X0832142Y0637512D02*
X0849858D01*
X0834563Y0616032D02*
Y0619969D01*
X0842437Y0616032D02*
Y0619969D01*
X0539669Y0609520D02*
Y0613063D01*
Y0609520D02*
X0541539D01*
X0548331D02*
Y0613063D01*
X0546461Y0609520D02*
X0548331D01*
X0558961D02*
X0560831D01*
Y0613063D01*
X0552169Y0609520D02*
X0554039D01*
X0552169D02*
Y0613063D01*
X0564669Y0609520D02*
Y0613063D01*
Y0609520D02*
X0566539D01*
X0573331D02*
Y0613063D01*
X0571461Y0609520D02*
X0573331D01*
X0583961D02*
X0585831D01*
Y0613063D01*
X0577169Y0609520D02*
X0579039D01*
X0577169D02*
Y0613063D01*
X0589669Y0609520D02*
Y0613063D01*
Y0609520D02*
X0591539D01*
X0598331D02*
Y0613063D01*
X0596461Y0609520D02*
X0598331D01*
X0608961D02*
X0610831D01*
Y0613063D01*
X0602169Y0609520D02*
X0604039D01*
X0602169D02*
Y0613063D01*
X0614669Y0609520D02*
Y0613063D01*
Y0609520D02*
X0616539D01*
X0623331D02*
Y0613063D01*
X0621461Y0609520D02*
X0623331D01*
X0633961D02*
X0635831D01*
Y0613063D01*
X0627169Y0609520D02*
X0629039D01*
X0627169D02*
Y0613063D01*
X0639669Y0609520D02*
Y0613063D01*
Y0609520D02*
X0641539D01*
X0648331D02*
Y0613063D01*
X0646461Y0609520D02*
X0648331D01*
X0658961D02*
X0660831D01*
Y0613063D01*
X0652169Y0609520D02*
X0654039D01*
X0652169D02*
Y0613063D01*
X0664669Y0609520D02*
Y0613063D01*
Y0609520D02*
X0666539D01*
X0673331D02*
Y0613063D01*
X0671461Y0609520D02*
X0673331D01*
X0683961D02*
X0685831D01*
Y0613063D01*
X0677169Y0609520D02*
X0679039D01*
X0677169D02*
Y0613063D01*
X0664831Y0553437D02*
Y0556980D01*
X0662961D02*
X0664831D01*
X0656169Y0553437D02*
Y0556980D01*
X0658039D01*
X0651461Y0551520D02*
X0653331D01*
Y0555063D01*
X0644669Y0551520D02*
X0646539D01*
X0644669D02*
Y0555063D01*
X0743972Y0560602D02*
X0753027D01*
X0743972Y0548398D02*
X0753027D01*
Y0560602D01*
X0743972Y0548398D02*
Y0560602D01*
X0829642Y0552512D02*
X0847358D01*
X0829642Y0541488D02*
X0847358D01*
Y0551626D02*
Y0552512D01*
X0829642Y0551626D02*
Y0552512D01*
X0847358Y0541488D02*
Y0542374D01*
X0829642Y0541488D02*
Y0542374D01*
X0776937Y0625669D02*
X0780480D01*
Y0627539D01*
X0776937Y0634331D02*
X0780480D01*
Y0632461D02*
Y0634331D01*
D84*
X0713512Y0585063D02*
G03*
X0713512Y0585063I-0001181J0000000D01*
G01*
X0749090Y0552335D02*
G03*
X0749090Y0552335I-0001181J0000000D01*
G01*
D85*
X0737102Y0588465D02*
G03*
X0737102Y0588465I-0000492J0000000D01*
G01*
X0613339Y0564890D02*
G03*
X0613339Y0564890I-0000492J0000000D01*
G01*
X0594906Y0580209D02*
G03*
X0594906Y0580209I-0000492J0000000D01*
G01*
X0719024Y0576500D02*
G03*
X0719024Y0576500I-0000492J0000000D01*
G01*
X0632382Y0558153D02*
G03*
X0632382Y0558153I-0000492J0000000D01*
G01*
X0620882D02*
G03*
X0620882Y0558153I-0000492J0000000D01*
G01*
X0609382D02*
G03*
X0609382Y0558153I-0000492J0000000D01*
G01*
X0538882Y0616153D02*
G03*
X0538882Y0616153I-0000492J0000000D01*
G01*
X0551382D02*
G03*
X0551382Y0616153I-0000492J0000000D01*
G01*
X0563882D02*
G03*
X0563882Y0616153I-0000492J0000000D01*
G01*
X0576382D02*
G03*
X0576382Y0616153I-0000492J0000000D01*
G01*
X0588882D02*
G03*
X0588882Y0616153I-0000492J0000000D01*
G01*
X0601382D02*
G03*
X0601382Y0616153I-0000492J0000000D01*
G01*
X0613882D02*
G03*
X0613882Y0616153I-0000492J0000000D01*
G01*
X0626382D02*
G03*
X0626382Y0616153I-0000492J0000000D01*
G01*
X0638882D02*
G03*
X0638882Y0616153I-0000492J0000000D01*
G01*
X0651382D02*
G03*
X0651382Y0616153I-0000492J0000000D01*
G01*
X0663882D02*
G03*
X0663882Y0616153I-0000492J0000000D01*
G01*
X0676382D02*
G03*
X0676382Y0616153I-0000492J0000000D01*
G01*
X0666602Y0550347D02*
G03*
X0666602Y0550347I-0000492J0000000D01*
G01*
X0643882Y0558153D02*
G03*
X0643882Y0558153I-0000492J0000000D01*
G01*
X0740232Y0547413D02*
G03*
X0740232Y0547413I-0000492J0000000D01*
G01*
X0774339Y0624390D02*
G03*
X0774339Y0624390I-0000492J0000000D01*
G01*
D86*
X0599228Y0564906D02*
G03*
X0599228Y0564906I-0000197J0000000D01*
G01*
X0724665Y0620094D02*
G03*
X0724665Y0620094I-0000197J0000000D01*
G01*
X0748228Y0615906D02*
G03*
X0748228Y0615906I-0000197J0000000D01*
G01*
X0781291Y0594031D02*
G03*
X0781291Y0594031I-0000197J0000000D01*
G01*
X0686374Y0560347D02*
G03*
X0686374Y0560347I-0000197J0000000D01*
G01*
D87*
X0741335Y0580590D02*
G03*
X0741335Y0580590I-0000787J0000000D01*
G01*
D90*
X0801500Y0587000D02*
X0803500D01*
X0733500Y0574500D02*
X0735500D01*
X0734500Y0588500D02*
X0736500D01*
X0743500Y0606500D02*
X0745500D01*
X0687500Y0606000D02*
Y0608000D01*
X0743500Y0599500D02*
X0745500D01*
X0721000Y0560500D02*
X0723000D01*
X0693000Y0560500D02*
X0695000D01*
X0720500Y0609000D02*
Y0611000D01*
X0597500Y0574500D02*
X0599500D01*
X0701000Y0570000D02*
Y0572000D01*
X0721500Y0576000D02*
Y0578000D01*
Y0572500D02*
Y0574500D01*
X0762000Y0580500D02*
X0764000D01*
X0702500Y0616000D02*
Y0618000D01*
X0696000Y0616000D02*
Y0618000D01*
X0547000Y0592500D02*
Y0594500D01*
X0734000Y0557000D02*
X0736000D01*
X0754500Y0545000D02*
Y0547000D01*
X0575000Y0580666D02*
Y0582666D01*
X0574000D01*
X0573667Y0582333D01*
Y0581666D01*
X0574000Y0581333D01*
X0575000D01*
X0574334D02*
X0573667Y0580666D01*
X0571668Y0582333D02*
X0572001Y0582666D01*
X0572667D01*
X0573001Y0582333D01*
Y0581000D01*
X0572667Y0580666D01*
X0572001D01*
X0571668Y0581000D01*
X0570668Y0580333D02*
X0570335Y0580666D01*
Y0581000D01*
X0570668D01*
Y0580666D01*
X0570335D01*
X0570668Y0580333D01*
X0571001Y0580000D01*
X0567003Y0582666D02*
Y0580666D01*
X0566003D01*
X0565670Y0581000D01*
Y0581333D01*
X0566003Y0581666D01*
X0567003D01*
X0566003D01*
X0565670Y0581999D01*
Y0582333D01*
X0566003Y0582666D01*
X0567003D01*
X0565003D02*
Y0582333D01*
X0564337Y0581666D01*
X0563670Y0582333D01*
Y0582666D01*
X0564337Y0581666D02*
Y0580666D01*
X0562671Y0580333D02*
X0562337Y0580666D01*
Y0581000D01*
X0562671D01*
Y0580666D01*
X0562337D01*
X0562671Y0580333D01*
X0563004Y0580000D01*
X0559005Y0580666D02*
Y0581999D01*
X0558339Y0582666D01*
X0557672Y0581999D01*
Y0580666D01*
Y0581666D01*
X0559005D01*
X0557006Y0580666D02*
Y0582666D01*
X0556339Y0581999D01*
X0555673Y0582666D01*
Y0580666D01*
X0606999Y0555000D02*
X0605000D01*
Y0556000D01*
X0605333Y0556333D01*
X0606666D01*
X0606999Y0556000D01*
Y0555000D01*
X0605000Y0556999D02*
Y0557666D01*
Y0557333D01*
X0606999D01*
X0606666Y0556999D01*
Y0558666D02*
X0606999Y0558999D01*
Y0559665D01*
X0606666Y0559998D01*
X0606333D01*
X0606000Y0559665D01*
X0605666Y0559998D01*
X0605333D01*
X0605000Y0559665D01*
Y0558999D01*
X0605333Y0558666D01*
X0605666D01*
X0606000Y0558999D01*
X0606333Y0558666D01*
X0606666D01*
X0606000Y0558999D02*
Y0559665D01*
X0749500Y0562500D02*
Y0564499D01*
X0748500D01*
X0748167Y0564166D01*
Y0563500D01*
X0748500Y0563166D01*
X0749500D01*
X0748834D02*
X0748167Y0562500D01*
X0747501Y0564166D02*
X0747167Y0564499D01*
X0746501D01*
X0746168Y0564166D01*
Y0563833D01*
X0746501Y0563500D01*
X0746834D01*
X0746501D01*
X0746168Y0563166D01*
Y0562833D01*
X0746501Y0562500D01*
X0747167D01*
X0747501Y0562833D01*
X0745501Y0564166D02*
X0745168Y0564499D01*
X0744502D01*
X0744168Y0564166D01*
Y0563833D01*
X0744502Y0563500D01*
X0744835D01*
X0744502D01*
X0744168Y0563166D01*
Y0562833D01*
X0744502Y0562500D01*
X0745168D01*
X0745501Y0562833D01*
X0804500Y0578000D02*
X0806499D01*
Y0579000D01*
X0806166Y0579333D01*
X0805500D01*
X0805166Y0579000D01*
Y0578000D01*
Y0578666D02*
X0804500Y0579333D01*
X0806499Y0581332D02*
Y0579999D01*
X0805500D01*
X0805833Y0580666D01*
Y0580999D01*
X0805500Y0581332D01*
X0804833D01*
X0804500Y0580999D01*
Y0580333D01*
X0804833Y0579999D01*
X0806166Y0581999D02*
X0806499Y0582332D01*
Y0582998D01*
X0806166Y0583332D01*
X0805833D01*
X0805500Y0582998D01*
Y0582665D01*
Y0582998D01*
X0805166Y0583332D01*
X0804833D01*
X0804500Y0582998D01*
Y0582332D01*
X0804833Y0581999D01*
X0806166Y0585833D02*
X0806499Y0585500D01*
Y0584833D01*
X0806166Y0584500D01*
X0804833D01*
X0804500Y0584833D01*
Y0585500D01*
X0804833Y0585833D01*
X0806166Y0586499D02*
X0806499Y0586833D01*
Y0587499D01*
X0806166Y0587832D01*
X0805833D01*
X0805500Y0587499D01*
Y0587166D01*
Y0587499D01*
X0805166Y0587832D01*
X0804833D01*
X0804500Y0587499D01*
Y0586833D01*
X0804833Y0586499D01*
X0806499Y0589832D02*
X0806166Y0589165D01*
X0805500Y0588499D01*
X0804833D01*
X0804500Y0588832D01*
Y0589498D01*
X0804833Y0589832D01*
X0805166D01*
X0805500Y0589498D01*
Y0588499D01*
X0687000Y0612000D02*
X0688999D01*
Y0613000D01*
X0688666Y0613333D01*
X0688000D01*
X0687666Y0613000D01*
Y0612000D01*
Y0612666D02*
X0687000Y0613333D01*
X0688999Y0615332D02*
Y0613999D01*
X0688000D01*
X0688333Y0614666D01*
Y0614999D01*
X0688000Y0615332D01*
X0687333D01*
X0687000Y0614999D01*
Y0614333D01*
X0687333Y0613999D01*
X0687000Y0617332D02*
Y0615999D01*
X0688333Y0617332D01*
X0688666D01*
X0688999Y0616998D01*
Y0616332D01*
X0688666Y0615999D01*
X0813667Y0609499D02*
X0815000D01*
Y0608500D01*
X0814333D01*
X0815000D01*
Y0607500D01*
X0811668Y0609499D02*
X0812334Y0609166D01*
X0813000Y0608500D01*
Y0607833D01*
X0812667Y0607500D01*
X0812001D01*
X0811668Y0607833D01*
Y0608166D01*
X0812001Y0608500D01*
X0813000D01*
X0822667Y0609499D02*
X0824000D01*
Y0608500D01*
X0823333D01*
X0824000D01*
Y0607500D01*
X0820668Y0609499D02*
X0822001D01*
Y0608500D01*
X0821334Y0608833D01*
X0821001D01*
X0820668Y0608500D01*
Y0607833D01*
X0821001Y0607500D01*
X0821667D01*
X0822001Y0607833D01*
X0831667Y0609499D02*
X0833000D01*
Y0608500D01*
X0832333D01*
X0833000D01*
Y0607500D01*
X0830001D02*
Y0609499D01*
X0831001Y0608500D01*
X0829668D01*
X0788752Y0627409D02*
Y0625410D01*
X0787419D01*
X0785420Y0627076D02*
X0785753Y0627409D01*
X0786419D01*
X0786753Y0627076D01*
Y0626742D01*
X0786419Y0626409D01*
X0785753D01*
X0785420Y0626076D01*
Y0625743D01*
X0785753Y0625410D01*
X0786419D01*
X0786753Y0625743D01*
X0784753Y0625410D02*
X0784087D01*
X0784420D01*
Y0627409D01*
X0784753Y0627076D01*
X0752999Y0576000D02*
X0751333D01*
X0751000Y0576333D01*
Y0577000D01*
X0751333Y0577333D01*
X0752999D01*
X0751000Y0578999D02*
X0752999D01*
X0752000Y0577999D01*
Y0579332D01*
X0731499Y0600000D02*
X0729833D01*
X0729500Y0600333D01*
Y0601000D01*
X0729833Y0601333D01*
X0731499D01*
Y0603332D02*
X0731166Y0602666D01*
X0730500Y0601999D01*
X0729833D01*
X0729500Y0602333D01*
Y0602999D01*
X0729833Y0603332D01*
X0730166D01*
X0730500Y0602999D01*
Y0601999D01*
X0629000Y0572500D02*
Y0574499D01*
X0628000D01*
X0627667Y0574166D01*
Y0573500D01*
X0628000Y0573166D01*
X0629000D01*
X0628334D02*
X0627667Y0572500D01*
X0627001D02*
X0626334D01*
X0626667D01*
Y0574499D01*
X0627001Y0574166D01*
X0624335Y0572500D02*
Y0574499D01*
X0625335Y0573500D01*
X0624002D01*
X0721000Y0613500D02*
Y0615499D01*
X0720000D01*
X0719667Y0615166D01*
Y0614500D01*
X0720000Y0614166D01*
X0721000D01*
X0720334D02*
X0719667Y0613500D01*
X0719001D02*
X0718334D01*
X0718667D01*
Y0615499D01*
X0719001Y0615166D01*
X0717335D02*
X0717001Y0615499D01*
X0716335D01*
X0716002Y0615166D01*
Y0614833D01*
X0716335Y0614500D01*
X0716668D01*
X0716335D01*
X0716002Y0614166D01*
Y0613833D01*
X0716335Y0613500D01*
X0717001D01*
X0717335Y0613833D01*
X0591000Y0555500D02*
Y0557499D01*
X0590000D01*
X0589667Y0557166D01*
Y0556500D01*
X0590000Y0556166D01*
X0591000D01*
X0590334D02*
X0589667Y0555500D01*
X0589001Y0557166D02*
X0588667Y0557499D01*
X0588001D01*
X0587668Y0557166D01*
Y0556833D01*
X0588001Y0556500D01*
X0588334D01*
X0588001D01*
X0587668Y0556166D01*
Y0555833D01*
X0588001Y0555500D01*
X0588667D01*
X0589001Y0555833D01*
X0587001Y0557499D02*
X0585668D01*
Y0557166D01*
X0587001Y0555833D01*
Y0555500D01*
X0618167Y0576333D02*
Y0577666D01*
X0618500Y0577999D01*
X0619167D01*
X0619500Y0577666D01*
Y0576333D01*
X0619167Y0576000D01*
X0618500D01*
X0618834Y0576666D02*
X0618167Y0576000D01*
X0618500D02*
X0618167Y0576333D01*
X0617501Y0576000D02*
X0616834D01*
X0617167D01*
Y0577999D01*
X0617501Y0577666D01*
X0744500Y0618999D02*
Y0617000D01*
X0743167D01*
X0741501D02*
Y0618999D01*
X0742501Y0618000D01*
X0741168D01*
X0728499Y0622500D02*
X0726500D01*
Y0623500D01*
X0726833Y0623833D01*
X0728166D01*
X0728499Y0623500D01*
Y0622500D01*
X0726500Y0624499D02*
Y0625166D01*
Y0624833D01*
X0728499D01*
X0728166Y0624499D01*
X0728499Y0627498D02*
Y0626165D01*
X0727499D01*
X0727833Y0626832D01*
Y0627165D01*
X0727499Y0627498D01*
X0726833D01*
X0726500Y0627165D01*
Y0626499D01*
X0726833Y0626165D01*
X0755999Y0606500D02*
X0754000D01*
Y0607500D01*
X0754333Y0607833D01*
X0755666D01*
X0755999Y0607500D01*
Y0606500D01*
X0754000Y0608499D02*
Y0609166D01*
Y0608833D01*
X0755999D01*
X0755666Y0608499D01*
X0754000Y0611165D02*
X0755999D01*
X0755000Y0610166D01*
Y0611498D01*
X0790500Y0601999D02*
Y0600000D01*
X0789500D01*
X0789167Y0600333D01*
Y0601666D01*
X0789500Y0601999D01*
X0790500D01*
X0788501Y0600000D02*
X0787834D01*
X0788167D01*
Y0601999D01*
X0788501Y0601666D01*
X0785502Y0600000D02*
X0786834D01*
X0785502Y0601333D01*
Y0601666D01*
X0785835Y0601999D01*
X0786501D01*
X0786834Y0601666D01*
X0735166Y0567333D02*
X0735499Y0567000D01*
Y0566333D01*
X0735166Y0566000D01*
X0733833D01*
X0733500Y0566333D01*
Y0567000D01*
X0733833Y0567333D01*
X0733500Y0567999D02*
Y0568666D01*
Y0568333D01*
X0735499D01*
X0735166Y0567999D01*
Y0569665D02*
X0735499Y0569999D01*
Y0570665D01*
X0735166Y0570998D01*
X0734833D01*
X0734500Y0570665D01*
X0734166Y0570998D01*
X0733833D01*
X0733500Y0570665D01*
Y0569999D01*
X0733833Y0569665D01*
X0734166D01*
X0734500Y0569999D01*
X0734833Y0569665D01*
X0735166D01*
X0734500Y0569999D02*
Y0570665D01*
X0733166Y0587333D02*
X0733499Y0587000D01*
Y0586333D01*
X0733166Y0586000D01*
X0731833D01*
X0731500Y0586333D01*
Y0587000D01*
X0731833Y0587333D01*
X0731500Y0587999D02*
Y0588666D01*
Y0588333D01*
X0733499D01*
X0733166Y0587999D01*
X0731833Y0589666D02*
X0731500Y0589999D01*
Y0590665D01*
X0731833Y0590998D01*
X0733166D01*
X0733499Y0590665D01*
Y0589999D01*
X0733166Y0589666D01*
X0732833D01*
X0732500Y0589999D01*
Y0590998D01*
X0748166Y0601333D02*
X0748499Y0601000D01*
Y0600333D01*
X0748166Y0600000D01*
X0746833D01*
X0746500Y0600333D01*
Y0601000D01*
X0746833Y0601333D01*
X0746500Y0603332D02*
Y0601999D01*
X0747833Y0603332D01*
X0748166D01*
X0748499Y0602999D01*
Y0602333D01*
X0748166Y0601999D01*
X0746833Y0603999D02*
X0746500Y0604332D01*
Y0604998D01*
X0746833Y0605332D01*
X0748166D01*
X0748499Y0604998D01*
Y0604332D01*
X0748166Y0603999D01*
X0747833D01*
X0747500Y0604332D01*
Y0605332D01*
X0545000Y0599500D02*
Y0597500D01*
Y0599500D02*
X0544143D01*
X0543857Y0599404D01*
X0543762Y0599309D01*
X0543667Y0599119D01*
Y0598928D01*
X0543762Y0598738D01*
X0543857Y0598643D01*
X0544143Y0598547D01*
X0545000D01*
X0544334D02*
X0543667Y0597500D01*
X0543029Y0599500D02*
X0541982D01*
X0542553Y0598738D01*
X0542267D01*
X0542077Y0598643D01*
X0541982Y0598547D01*
X0541886Y0598262D01*
Y0598071D01*
X0541982Y0597786D01*
X0542172Y0597595D01*
X0542458Y0597500D01*
X0542743D01*
X0543029Y0597595D01*
X0543124Y0597690D01*
X0543219Y0597881D01*
X0540296Y0599500D02*
X0541248D01*
X0541344Y0598643D01*
X0541248Y0598738D01*
X0540963Y0598833D01*
X0540677D01*
X0540391Y0598738D01*
X0540201Y0598547D01*
X0540106Y0598262D01*
Y0598071D01*
X0540201Y0597786D01*
X0540391Y0597595D01*
X0540677Y0597500D01*
X0540963D01*
X0541248Y0597595D01*
X0541344Y0597690D01*
X0541439Y0597881D01*
X0539658Y0596834D02*
X0538135D01*
X0537878Y0599119D02*
X0537687Y0599214D01*
X0537402Y0599500D01*
Y0597500D01*
X0558000Y0599500D02*
Y0597500D01*
Y0599500D02*
X0557143D01*
X0556857Y0599404D01*
X0556762Y0599309D01*
X0556667Y0599119D01*
Y0598928D01*
X0556762Y0598738D01*
X0556857Y0598643D01*
X0557143Y0598547D01*
X0558000D01*
X0557334D02*
X0556667Y0597500D01*
X0556029Y0599500D02*
X0554982D01*
X0555553Y0598738D01*
X0555267D01*
X0555077Y0598643D01*
X0554982Y0598547D01*
X0554886Y0598262D01*
Y0598071D01*
X0554982Y0597786D01*
X0555172Y0597595D01*
X0555458Y0597500D01*
X0555743D01*
X0556029Y0597595D01*
X0556124Y0597690D01*
X0556219Y0597881D01*
X0553296Y0599500D02*
X0554248D01*
X0554344Y0598643D01*
X0554248Y0598738D01*
X0553963Y0598833D01*
X0553677D01*
X0553392Y0598738D01*
X0553201Y0598547D01*
X0553106Y0598262D01*
Y0598071D01*
X0553201Y0597786D01*
X0553392Y0597595D01*
X0553677Y0597500D01*
X0553963D01*
X0554248Y0597595D01*
X0554344Y0597690D01*
X0554439Y0597881D01*
X0552658Y0596834D02*
X0551135D01*
X0550782Y0599023D02*
Y0599119D01*
X0550687Y0599309D01*
X0550592Y0599404D01*
X0550402Y0599500D01*
X0550021D01*
X0549830Y0599404D01*
X0549735Y0599309D01*
X0549640Y0599119D01*
Y0598928D01*
X0549735Y0598738D01*
X0549926Y0598452D01*
X0550878Y0597500D01*
X0549545D01*
X0570500Y0599500D02*
Y0597500D01*
Y0599500D02*
X0569643D01*
X0569357Y0599404D01*
X0569262Y0599309D01*
X0569167Y0599119D01*
Y0598928D01*
X0569262Y0598738D01*
X0569357Y0598643D01*
X0569643Y0598547D01*
X0570500D01*
X0569834D02*
X0569167Y0597500D01*
X0568529Y0599500D02*
X0567482D01*
X0568053Y0598738D01*
X0567767D01*
X0567577Y0598643D01*
X0567482Y0598547D01*
X0567386Y0598262D01*
Y0598071D01*
X0567482Y0597786D01*
X0567672Y0597595D01*
X0567958Y0597500D01*
X0568243D01*
X0568529Y0597595D01*
X0568624Y0597690D01*
X0568719Y0597881D01*
X0565796Y0599500D02*
X0566748D01*
X0566844Y0598643D01*
X0566748Y0598738D01*
X0566463Y0598833D01*
X0566177D01*
X0565892Y0598738D01*
X0565701Y0598547D01*
X0565606Y0598262D01*
Y0598071D01*
X0565701Y0597786D01*
X0565892Y0597595D01*
X0566177Y0597500D01*
X0566463D01*
X0566748Y0597595D01*
X0566844Y0597690D01*
X0566939Y0597881D01*
X0565158Y0596834D02*
X0563635D01*
X0563187Y0599500D02*
X0562140D01*
X0562711Y0598738D01*
X0562426D01*
X0562235Y0598643D01*
X0562140Y0598547D01*
X0562045Y0598262D01*
Y0598071D01*
X0562140Y0597786D01*
X0562330Y0597595D01*
X0562616Y0597500D01*
X0562902D01*
X0563187Y0597595D01*
X0563282Y0597690D01*
X0563378Y0597881D01*
X0583000Y0599500D02*
Y0597500D01*
Y0599500D02*
X0582143D01*
X0581857Y0599404D01*
X0581762Y0599309D01*
X0581667Y0599119D01*
Y0598928D01*
X0581762Y0598738D01*
X0581857Y0598643D01*
X0582143Y0598547D01*
X0583000D01*
X0582334D02*
X0581667Y0597500D01*
X0581029Y0599500D02*
X0579982D01*
X0580553Y0598738D01*
X0580267D01*
X0580077Y0598643D01*
X0579982Y0598547D01*
X0579886Y0598262D01*
Y0598071D01*
X0579982Y0597786D01*
X0580172Y0597595D01*
X0580458Y0597500D01*
X0580743D01*
X0581029Y0597595D01*
X0581124Y0597690D01*
X0581219Y0597881D01*
X0578296Y0599500D02*
X0579248D01*
X0579344Y0598643D01*
X0579248Y0598738D01*
X0578963Y0598833D01*
X0578677D01*
X0578392Y0598738D01*
X0578201Y0598547D01*
X0578106Y0598262D01*
Y0598071D01*
X0578201Y0597786D01*
X0578392Y0597595D01*
X0578677Y0597500D01*
X0578963D01*
X0579248Y0597595D01*
X0579344Y0597690D01*
X0579439Y0597881D01*
X0577658Y0596834D02*
X0576135D01*
X0574926Y0599500D02*
X0575878Y0598167D01*
X0574449D01*
X0574926Y0599500D02*
Y0597500D01*
X0595500Y0599500D02*
Y0597500D01*
Y0599500D02*
X0594643D01*
X0594357Y0599404D01*
X0594262Y0599309D01*
X0594167Y0599119D01*
Y0598928D01*
X0594262Y0598738D01*
X0594357Y0598643D01*
X0594643Y0598547D01*
X0595500D01*
X0594834D02*
X0594167Y0597500D01*
X0593529Y0599500D02*
X0592482D01*
X0593053Y0598738D01*
X0592767D01*
X0592577Y0598643D01*
X0592482Y0598547D01*
X0592386Y0598262D01*
Y0598071D01*
X0592482Y0597786D01*
X0592672Y0597595D01*
X0592958Y0597500D01*
X0593243D01*
X0593529Y0597595D01*
X0593624Y0597690D01*
X0593719Y0597881D01*
X0590796Y0599500D02*
X0591748D01*
X0591844Y0598643D01*
X0591748Y0598738D01*
X0591463Y0598833D01*
X0591177D01*
X0590892Y0598738D01*
X0590701Y0598547D01*
X0590606Y0598262D01*
Y0598071D01*
X0590701Y0597786D01*
X0590892Y0597595D01*
X0591177Y0597500D01*
X0591463D01*
X0591748Y0597595D01*
X0591844Y0597690D01*
X0591939Y0597881D01*
X0590158Y0596834D02*
X0588635D01*
X0587235Y0599500D02*
X0588187D01*
X0588282Y0598643D01*
X0588187Y0598738D01*
X0587902Y0598833D01*
X0587616D01*
X0587330Y0598738D01*
X0587140Y0598547D01*
X0587045Y0598262D01*
Y0598071D01*
X0587140Y0597786D01*
X0587330Y0597595D01*
X0587616Y0597500D01*
X0587902D01*
X0588187Y0597595D01*
X0588282Y0597690D01*
X0588378Y0597881D01*
X0608000Y0599500D02*
Y0597500D01*
Y0599500D02*
X0607143D01*
X0606857Y0599404D01*
X0606762Y0599309D01*
X0606667Y0599119D01*
Y0598928D01*
X0606762Y0598738D01*
X0606857Y0598643D01*
X0607143Y0598547D01*
X0608000D01*
X0607334D02*
X0606667Y0597500D01*
X0606029Y0599500D02*
X0604982D01*
X0605553Y0598738D01*
X0605267D01*
X0605077Y0598643D01*
X0604982Y0598547D01*
X0604886Y0598262D01*
Y0598071D01*
X0604982Y0597786D01*
X0605172Y0597595D01*
X0605458Y0597500D01*
X0605743D01*
X0606029Y0597595D01*
X0606124Y0597690D01*
X0606219Y0597881D01*
X0603296Y0599500D02*
X0604248D01*
X0604344Y0598643D01*
X0604248Y0598738D01*
X0603963Y0598833D01*
X0603677D01*
X0603392Y0598738D01*
X0603201Y0598547D01*
X0603106Y0598262D01*
Y0598071D01*
X0603201Y0597786D01*
X0603392Y0597595D01*
X0603677Y0597500D01*
X0603963D01*
X0604248Y0597595D01*
X0604344Y0597690D01*
X0604439Y0597881D01*
X0602658Y0596834D02*
X0601135D01*
X0599735Y0599214D02*
X0599830Y0599404D01*
X0600116Y0599500D01*
X0600306D01*
X0600592Y0599404D01*
X0600782Y0599119D01*
X0600878Y0598643D01*
Y0598167D01*
X0600782Y0597786D01*
X0600592Y0597595D01*
X0600306Y0597500D01*
X0600211D01*
X0599926Y0597595D01*
X0599735Y0597786D01*
X0599640Y0598071D01*
Y0598167D01*
X0599735Y0598452D01*
X0599926Y0598643D01*
X0600211Y0598738D01*
X0600306D01*
X0600592Y0598643D01*
X0600782Y0598452D01*
X0600878Y0598167D01*
X0620500Y0599500D02*
Y0597500D01*
Y0599500D02*
X0619643D01*
X0619357Y0599404D01*
X0619262Y0599309D01*
X0619167Y0599119D01*
Y0598928D01*
X0619262Y0598738D01*
X0619357Y0598643D01*
X0619643Y0598547D01*
X0620500D01*
X0619834D02*
X0619167Y0597500D01*
X0618529Y0599500D02*
X0617482D01*
X0618053Y0598738D01*
X0617767D01*
X0617577Y0598643D01*
X0617482Y0598547D01*
X0617386Y0598262D01*
Y0598071D01*
X0617482Y0597786D01*
X0617672Y0597595D01*
X0617958Y0597500D01*
X0618243D01*
X0618529Y0597595D01*
X0618624Y0597690D01*
X0618719Y0597881D01*
X0615796Y0599500D02*
X0616748D01*
X0616844Y0598643D01*
X0616748Y0598738D01*
X0616463Y0598833D01*
X0616177D01*
X0615892Y0598738D01*
X0615701Y0598547D01*
X0615606Y0598262D01*
Y0598071D01*
X0615701Y0597786D01*
X0615892Y0597595D01*
X0616177Y0597500D01*
X0616463D01*
X0616748Y0597595D01*
X0616844Y0597690D01*
X0616939Y0597881D01*
X0615158Y0596834D02*
X0613635D01*
X0612045Y0599500D02*
X0612997Y0597500D01*
X0613378Y0599500D02*
X0612045D01*
X0633000D02*
Y0597500D01*
Y0599500D02*
X0632143D01*
X0631857Y0599404D01*
X0631762Y0599309D01*
X0631667Y0599119D01*
Y0598928D01*
X0631762Y0598738D01*
X0631857Y0598643D01*
X0632143Y0598547D01*
X0633000D01*
X0632334D02*
X0631667Y0597500D01*
X0631029Y0599500D02*
X0629982D01*
X0630553Y0598738D01*
X0630267D01*
X0630077Y0598643D01*
X0629982Y0598547D01*
X0629886Y0598262D01*
Y0598071D01*
X0629982Y0597786D01*
X0630172Y0597595D01*
X0630458Y0597500D01*
X0630743D01*
X0631029Y0597595D01*
X0631124Y0597690D01*
X0631219Y0597881D01*
X0628296Y0599500D02*
X0629248D01*
X0629344Y0598643D01*
X0629248Y0598738D01*
X0628963Y0598833D01*
X0628677D01*
X0628392Y0598738D01*
X0628201Y0598547D01*
X0628106Y0598262D01*
Y0598071D01*
X0628201Y0597786D01*
X0628392Y0597595D01*
X0628677Y0597500D01*
X0628963D01*
X0629248Y0597595D01*
X0629344Y0597690D01*
X0629439Y0597881D01*
X0627658Y0596834D02*
X0626135D01*
X0625402Y0599500D02*
X0625687Y0599404D01*
X0625782Y0599214D01*
Y0599023D01*
X0625687Y0598833D01*
X0625497Y0598738D01*
X0625116Y0598643D01*
X0624830Y0598547D01*
X0624640Y0598357D01*
X0624545Y0598167D01*
Y0597881D01*
X0624640Y0597690D01*
X0624735Y0597595D01*
X0625021Y0597500D01*
X0625402D01*
X0625687Y0597595D01*
X0625782Y0597690D01*
X0625878Y0597881D01*
Y0598167D01*
X0625782Y0598357D01*
X0625592Y0598547D01*
X0625306Y0598643D01*
X0624926Y0598738D01*
X0624735Y0598833D01*
X0624640Y0599023D01*
Y0599214D01*
X0624735Y0599404D01*
X0625021Y0599500D01*
X0625402D01*
X0645500D02*
Y0597500D01*
Y0599500D02*
X0644643D01*
X0644357Y0599404D01*
X0644262Y0599309D01*
X0644167Y0599119D01*
Y0598928D01*
X0644262Y0598738D01*
X0644357Y0598643D01*
X0644643Y0598547D01*
X0645500D01*
X0644834D02*
X0644167Y0597500D01*
X0643529Y0599500D02*
X0642482D01*
X0643053Y0598738D01*
X0642767D01*
X0642577Y0598643D01*
X0642482Y0598547D01*
X0642386Y0598262D01*
Y0598071D01*
X0642482Y0597786D01*
X0642672Y0597595D01*
X0642958Y0597500D01*
X0643243D01*
X0643529Y0597595D01*
X0643624Y0597690D01*
X0643719Y0597881D01*
X0640796Y0599500D02*
X0641748D01*
X0641844Y0598643D01*
X0641748Y0598738D01*
X0641463Y0598833D01*
X0641177D01*
X0640892Y0598738D01*
X0640701Y0598547D01*
X0640606Y0598262D01*
Y0598071D01*
X0640701Y0597786D01*
X0640892Y0597595D01*
X0641177Y0597500D01*
X0641463D01*
X0641748Y0597595D01*
X0641844Y0597690D01*
X0641939Y0597881D01*
X0640158Y0596834D02*
X0638635D01*
X0637140Y0598833D02*
X0637235Y0598547D01*
X0637426Y0598357D01*
X0637711Y0598262D01*
X0637806D01*
X0638092Y0598357D01*
X0638282Y0598547D01*
X0638378Y0598833D01*
Y0598928D01*
X0638282Y0599214D01*
X0638092Y0599404D01*
X0637806Y0599500D01*
X0637711D01*
X0637426Y0599404D01*
X0637235Y0599214D01*
X0637140Y0598833D01*
Y0598357D01*
X0637235Y0597881D01*
X0637426Y0597595D01*
X0637711Y0597500D01*
X0637902D01*
X0638187Y0597595D01*
X0638282Y0597786D01*
X0658500Y0599500D02*
Y0597500D01*
Y0599500D02*
X0657643D01*
X0657357Y0599404D01*
X0657262Y0599309D01*
X0657167Y0599119D01*
Y0598928D01*
X0657262Y0598738D01*
X0657357Y0598643D01*
X0657643Y0598547D01*
X0658500D01*
X0657833D02*
X0657167Y0597500D01*
X0656529Y0599500D02*
X0655482D01*
X0656053Y0598738D01*
X0655767D01*
X0655577Y0598643D01*
X0655482Y0598547D01*
X0655386Y0598262D01*
Y0598071D01*
X0655482Y0597786D01*
X0655672Y0597595D01*
X0655958Y0597500D01*
X0656243D01*
X0656529Y0597595D01*
X0656624Y0597690D01*
X0656719Y0597881D01*
X0653796Y0599500D02*
X0654748D01*
X0654844Y0598643D01*
X0654748Y0598738D01*
X0654463Y0598833D01*
X0654177D01*
X0653892Y0598738D01*
X0653701Y0598547D01*
X0653606Y0598262D01*
Y0598071D01*
X0653701Y0597786D01*
X0653892Y0597595D01*
X0654177Y0597500D01*
X0654463D01*
X0654748Y0597595D01*
X0654844Y0597690D01*
X0654939Y0597881D01*
X0653158Y0596834D02*
X0651635D01*
X0651378Y0599119D02*
X0651187Y0599214D01*
X0650902Y0599500D01*
Y0597500D01*
X0649340Y0599500D02*
X0649626Y0599404D01*
X0649816Y0599119D01*
X0649911Y0598643D01*
Y0598357D01*
X0649816Y0597881D01*
X0649626Y0597595D01*
X0649340Y0597500D01*
X0649150D01*
X0648864Y0597595D01*
X0648673Y0597881D01*
X0648578Y0598357D01*
Y0598643D01*
X0648673Y0599119D01*
X0648864Y0599404D01*
X0649150Y0599500D01*
X0649340D01*
X0671000D02*
Y0597500D01*
Y0599500D02*
X0670143D01*
X0669857Y0599404D01*
X0669762Y0599309D01*
X0669667Y0599119D01*
Y0598928D01*
X0669762Y0598738D01*
X0669857Y0598643D01*
X0670143Y0598547D01*
X0671000D01*
X0670333D02*
X0669667Y0597500D01*
X0669029Y0599500D02*
X0667982D01*
X0668553Y0598738D01*
X0668267D01*
X0668077Y0598643D01*
X0667982Y0598547D01*
X0667886Y0598262D01*
Y0598071D01*
X0667982Y0597786D01*
X0668172Y0597595D01*
X0668458Y0597500D01*
X0668743D01*
X0669029Y0597595D01*
X0669124Y0597690D01*
X0669219Y0597881D01*
X0666296Y0599500D02*
X0667248D01*
X0667344Y0598643D01*
X0667248Y0598738D01*
X0666963Y0598833D01*
X0666677D01*
X0666392Y0598738D01*
X0666201Y0598547D01*
X0666106Y0598262D01*
Y0598071D01*
X0666201Y0597786D01*
X0666392Y0597595D01*
X0666677Y0597500D01*
X0666963D01*
X0667248Y0597595D01*
X0667344Y0597690D01*
X0667439Y0597881D01*
X0665658Y0596834D02*
X0664135D01*
X0663878Y0599119D02*
X0663687Y0599214D01*
X0663402Y0599500D01*
Y0597500D01*
X0662411Y0599119D02*
X0662221Y0599214D01*
X0661935Y0599500D01*
Y0597500D01*
X0683500Y0599500D02*
Y0597500D01*
Y0599500D02*
X0682643D01*
X0682357Y0599404D01*
X0682262Y0599309D01*
X0682167Y0599119D01*
Y0598928D01*
X0682262Y0598738D01*
X0682357Y0598643D01*
X0682643Y0598547D01*
X0683500D01*
X0682833D02*
X0682167Y0597500D01*
X0681529Y0599500D02*
X0680482D01*
X0681053Y0598738D01*
X0680767D01*
X0680577Y0598643D01*
X0680482Y0598547D01*
X0680386Y0598262D01*
Y0598071D01*
X0680482Y0597786D01*
X0680672Y0597595D01*
X0680958Y0597500D01*
X0681243D01*
X0681529Y0597595D01*
X0681624Y0597690D01*
X0681719Y0597881D01*
X0678796Y0599500D02*
X0679748D01*
X0679844Y0598643D01*
X0679748Y0598738D01*
X0679463Y0598833D01*
X0679177D01*
X0678892Y0598738D01*
X0678701Y0598547D01*
X0678606Y0598262D01*
Y0598071D01*
X0678701Y0597786D01*
X0678892Y0597595D01*
X0679177Y0597500D01*
X0679463D01*
X0679748Y0597595D01*
X0679844Y0597690D01*
X0679939Y0597881D01*
X0678158Y0596834D02*
X0676635D01*
X0676378Y0599119D02*
X0676187Y0599214D01*
X0675902Y0599500D01*
Y0597500D01*
X0674816Y0599023D02*
Y0599119D01*
X0674721Y0599309D01*
X0674626Y0599404D01*
X0674435Y0599500D01*
X0674054D01*
X0673864Y0599404D01*
X0673769Y0599309D01*
X0673673Y0599119D01*
Y0598928D01*
X0673769Y0598738D01*
X0673959Y0598452D01*
X0674911Y0597500D01*
X0673578D01*
X0766000Y0571500D02*
X0767999D01*
Y0572500D01*
X0767666Y0572833D01*
X0767000D01*
X0766666Y0572500D01*
Y0571500D01*
Y0572166D02*
X0766000Y0572833D01*
Y0574499D02*
X0767999D01*
X0767000Y0573499D01*
Y0574832D01*
X0766000Y0576498D02*
X0767999D01*
X0767000Y0575499D01*
Y0576832D01*
X0690667Y0610666D02*
X0691000Y0610999D01*
X0691667D01*
X0692000Y0610666D01*
Y0609333D01*
X0691667Y0609000D01*
X0691000D01*
X0690667Y0609333D01*
X0690001Y0609000D02*
X0689334D01*
X0689667D01*
Y0610999D01*
X0690001Y0610666D01*
X0688335D02*
X0688001Y0610999D01*
X0687335D01*
X0687002Y0610666D01*
Y0609333D01*
X0687335Y0609000D01*
X0688001D01*
X0688335Y0609333D01*
Y0610666D01*
X0832333Y0559833D02*
X0833666D01*
X0833999Y0559500D01*
Y0558833D01*
X0833666Y0558500D01*
X0832333D01*
X0832000Y0558833D01*
Y0559500D01*
X0832666Y0559166D02*
X0832000Y0559833D01*
Y0559500D02*
X0832333Y0559833D01*
X0832000Y0561499D02*
X0833999D01*
X0833000Y0560499D01*
Y0561832D01*
X0756500Y0572000D02*
Y0573999D01*
X0755500D01*
X0755167Y0573666D01*
Y0573000D01*
X0755500Y0572666D01*
X0756500D01*
X0755834D02*
X0755167Y0572000D01*
X0754501Y0573666D02*
X0754167Y0573999D01*
X0753501D01*
X0753168Y0573666D01*
Y0573333D01*
X0753501Y0573000D01*
X0753834D01*
X0753501D01*
X0753168Y0572666D01*
Y0572333D01*
X0753501Y0572000D01*
X0754167D01*
X0754501Y0572333D01*
X0752501Y0573666D02*
X0752168Y0573999D01*
X0751502D01*
X0751168Y0573666D01*
Y0572333D01*
X0751502Y0572000D01*
X0752168D01*
X0752501Y0572333D01*
Y0573666D01*
X0684000Y0563499D02*
Y0561500D01*
X0683000D01*
X0682667Y0561833D01*
Y0563166D01*
X0683000Y0563499D01*
X0684000D01*
X0682001Y0563166D02*
X0681667Y0563499D01*
X0681001D01*
X0680668Y0563166D01*
Y0562833D01*
X0681001Y0562500D01*
X0681334D01*
X0681001D01*
X0680668Y0562166D01*
Y0561833D01*
X0681001Y0561500D01*
X0681667D01*
X0682001Y0561833D01*
X0745667Y0595666D02*
X0746000Y0595999D01*
X0746667D01*
X0747000Y0595666D01*
Y0594333D01*
X0746667Y0594000D01*
X0746000D01*
X0745667Y0594333D01*
X0743668Y0594000D02*
X0745001D01*
X0743668Y0595333D01*
Y0595666D01*
X0744001Y0595999D01*
X0744667D01*
X0745001Y0595666D01*
X0743001D02*
X0742668Y0595999D01*
X0742002D01*
X0741668Y0595666D01*
Y0595333D01*
X0742002Y0595000D01*
X0741668Y0594666D01*
Y0594333D01*
X0742002Y0594000D01*
X0742668D01*
X0743001Y0594333D01*
Y0594666D01*
X0742668Y0595000D01*
X0743001Y0595333D01*
Y0595666D01*
X0742668Y0595000D02*
X0742002D01*
X0849667Y0609499D02*
X0851000D01*
Y0608500D01*
X0850333D01*
X0851000D01*
Y0607500D01*
X0847668D02*
X0849000D01*
X0847668Y0608833D01*
Y0609166D01*
X0848001Y0609499D01*
X0848667D01*
X0849000Y0609166D01*
X0858667Y0609499D02*
X0860000D01*
Y0608500D01*
X0859333D01*
X0860000D01*
Y0607500D01*
X0858000D02*
X0857334D01*
X0857667D01*
Y0609499D01*
X0858000Y0609166D01*
X0712500Y0618000D02*
Y0619999D01*
X0711500D01*
X0711167Y0619666D01*
Y0619000D01*
X0711500Y0618666D01*
X0712500D01*
X0711834D02*
X0711167Y0618000D01*
X0710501D02*
X0709834D01*
X0710167D01*
Y0619999D01*
X0710501Y0619666D01*
X0707502Y0618000D02*
X0708835D01*
X0707502Y0619333D01*
Y0619666D01*
X0707835Y0619999D01*
X0708501D01*
X0708835Y0619666D01*
X0712500Y0621500D02*
Y0623499D01*
X0711500D01*
X0711167Y0623166D01*
Y0622500D01*
X0711500Y0622166D01*
X0712500D01*
X0711834D02*
X0711167Y0621500D01*
X0710501D02*
X0709834D01*
X0710167D01*
Y0623499D01*
X0710501Y0623166D01*
X0708835Y0621500D02*
X0708168D01*
X0708501D01*
Y0623499D01*
X0708835Y0623166D01*
X0722581Y0565916D02*
X0722914Y0566250D01*
X0723581D01*
X0723914Y0565916D01*
Y0564584D01*
X0723581Y0564250D01*
X0722914D01*
X0722581Y0564584D01*
X0721914Y0566250D02*
X0720582D01*
Y0565916D01*
X0721914Y0564584D01*
Y0564250D01*
X0694081Y0565916D02*
X0694414Y0566250D01*
X0695081D01*
X0695414Y0565916D01*
Y0564584D01*
X0695081Y0564250D01*
X0694414D01*
X0694081Y0564584D01*
X0693414Y0565916D02*
X0693081Y0566250D01*
X0692415D01*
X0692082Y0565916D01*
Y0565583D01*
X0692415Y0565250D01*
X0692082Y0564917D01*
Y0564584D01*
X0692415Y0564250D01*
X0693081D01*
X0693414Y0564584D01*
Y0564917D01*
X0693081Y0565250D01*
X0693414Y0565583D01*
Y0565916D01*
X0693081Y0565250D02*
X0692415D01*
X0721167Y0607666D02*
X0721500Y0607999D01*
X0722167D01*
X0722500Y0607666D01*
Y0606333D01*
X0722167Y0606000D01*
X0721500D01*
X0721167Y0606333D01*
X0720501D02*
X0720167Y0606000D01*
X0719501D01*
X0719168Y0606333D01*
Y0607666D01*
X0719501Y0607999D01*
X0720167D01*
X0720501Y0607666D01*
Y0607333D01*
X0720167Y0607000D01*
X0719168D01*
X0602166Y0573333D02*
X0602499Y0573000D01*
Y0572333D01*
X0602166Y0572000D01*
X0600833D01*
X0600500Y0572333D01*
Y0573000D01*
X0600833Y0573333D01*
X0602166Y0573999D02*
X0602499Y0574333D01*
Y0574999D01*
X0602166Y0575332D01*
X0601833D01*
X0601500Y0574999D01*
Y0574666D01*
Y0574999D01*
X0601166Y0575332D01*
X0600833D01*
X0600500Y0574999D01*
Y0574333D01*
X0600833Y0573999D01*
X0600500Y0577332D02*
Y0575999D01*
X0601833Y0577332D01*
X0602166D01*
X0602499Y0576998D01*
Y0576332D01*
X0602166Y0575999D01*
X0696167Y0571666D02*
X0696500Y0571999D01*
X0697167D01*
X0697500Y0571666D01*
Y0570333D01*
X0697167Y0570000D01*
X0696500D01*
X0696167Y0570333D01*
X0695501Y0570000D02*
X0694834D01*
X0695167D01*
Y0571999D01*
X0695501Y0571666D01*
X0693834Y0570000D02*
X0693168D01*
X0693501D01*
Y0571999D01*
X0693834Y0571666D01*
X0728667Y0577666D02*
X0729000Y0577999D01*
X0729667D01*
X0730000Y0577666D01*
Y0576333D01*
X0729667Y0576000D01*
X0729000D01*
X0728667Y0576333D01*
X0728001Y0576000D02*
X0727334D01*
X0727667D01*
Y0577999D01*
X0728001Y0577666D01*
X0725002Y0576000D02*
X0726334D01*
X0725002Y0577333D01*
Y0577666D01*
X0725335Y0577999D01*
X0726001D01*
X0726334Y0577666D01*
X0621500Y0541000D02*
Y0542999D01*
X0620500D01*
X0620167Y0542666D01*
Y0542000D01*
X0620500Y0541666D01*
X0621500D01*
X0620834D02*
X0620167Y0541000D01*
X0618501D02*
Y0542999D01*
X0619501Y0542000D01*
X0618168D01*
X0569500Y0557000D02*
Y0558999D01*
X0568500D01*
X0568167Y0558666D01*
Y0558000D01*
X0568500Y0557666D01*
X0569500D01*
X0568834D02*
X0568167Y0557000D01*
X0566168Y0558999D02*
X0567501D01*
Y0558000D01*
X0566834Y0558333D01*
X0566501D01*
X0566168Y0558000D01*
Y0557333D01*
X0566501Y0557000D01*
X0567167D01*
X0567501Y0557333D01*
X0565501Y0558666D02*
X0565168Y0558999D01*
X0564502D01*
X0564168Y0558666D01*
Y0557333D01*
X0564502Y0557000D01*
X0565168D01*
X0565501Y0557333D01*
Y0558666D01*
X0585500Y0582999D02*
Y0581333D01*
X0585167Y0581000D01*
X0584500D01*
X0584167Y0581333D01*
Y0582999D01*
X0583501Y0582666D02*
X0583167Y0582999D01*
X0582501D01*
X0582168Y0582666D01*
Y0582333D01*
X0582501Y0582000D01*
X0582168Y0581666D01*
Y0581333D01*
X0582501Y0581000D01*
X0583167D01*
X0583501Y0581333D01*
Y0581666D01*
X0583167Y0582000D01*
X0583501Y0582333D01*
Y0582666D01*
X0583167Y0582000D02*
X0582501D01*
X0691500Y0578499D02*
Y0576833D01*
X0691167Y0576500D01*
X0690500D01*
X0690167Y0576833D01*
Y0578499D01*
X0688168Y0576500D02*
X0689501D01*
X0688168Y0577833D01*
Y0578166D01*
X0688501Y0578499D01*
X0689167D01*
X0689501Y0578166D01*
X0727167Y0574166D02*
X0727500Y0574499D01*
X0728167D01*
X0728500Y0574166D01*
Y0572833D01*
X0728167Y0572500D01*
X0727500D01*
X0727167Y0572833D01*
X0725168Y0574499D02*
X0725834Y0574166D01*
X0726501Y0573500D01*
Y0572833D01*
X0726167Y0572500D01*
X0725501D01*
X0725168Y0572833D01*
Y0573166D01*
X0725501Y0573500D01*
X0726501D01*
X0772667Y0565166D02*
X0773000Y0565499D01*
X0773667D01*
X0774000Y0565166D01*
Y0563833D01*
X0773667Y0563500D01*
X0773000D01*
X0772667Y0563833D01*
X0772001Y0565166D02*
X0771667Y0565499D01*
X0771001D01*
X0770668Y0565166D01*
Y0564833D01*
X0771001Y0564500D01*
X0771334D01*
X0771001D01*
X0770668Y0564166D01*
Y0563833D01*
X0771001Y0563500D01*
X0771667D01*
X0772001Y0563833D01*
X0770001Y0565166D02*
X0769668Y0565499D01*
X0769002D01*
X0768668Y0565166D01*
Y0563833D01*
X0769002Y0563500D01*
X0769668D01*
X0770001Y0563833D01*
Y0565166D01*
X0763666Y0573333D02*
X0763999Y0573000D01*
Y0572333D01*
X0763666Y0572000D01*
X0762333D01*
X0762000Y0572333D01*
Y0573000D01*
X0762333Y0573333D01*
X0763666Y0573999D02*
X0763999Y0574333D01*
Y0574999D01*
X0763666Y0575332D01*
X0763333D01*
X0763000Y0574999D01*
Y0574666D01*
Y0574999D01*
X0762666Y0575332D01*
X0762333D01*
X0762000Y0574999D01*
Y0574333D01*
X0762333Y0573999D01*
X0762000Y0575999D02*
Y0576665D01*
Y0576332D01*
X0763999D01*
X0763666Y0575999D01*
X0766000Y0543000D02*
X0767999D01*
Y0544000D01*
X0767666Y0544333D01*
X0767000D01*
X0766666Y0544000D01*
Y0543000D01*
Y0543666D02*
X0766000Y0544333D01*
Y0545999D02*
X0767999D01*
X0767000Y0544999D01*
Y0546332D01*
X0766333Y0546999D02*
X0766000Y0547332D01*
Y0547998D01*
X0766333Y0548332D01*
X0767666D01*
X0767999Y0547998D01*
Y0547332D01*
X0767666Y0546999D01*
X0767333D01*
X0767000Y0547332D01*
Y0548332D01*
X0769500Y0543000D02*
X0771499D01*
Y0544000D01*
X0771166Y0544333D01*
X0770500D01*
X0770166Y0544000D01*
Y0543000D01*
Y0543666D02*
X0769500Y0544333D01*
Y0545999D02*
X0771499D01*
X0770500Y0544999D01*
Y0546332D01*
X0771166Y0546999D02*
X0771499Y0547332D01*
Y0547998D01*
X0771166Y0548332D01*
X0770833D01*
X0770500Y0547998D01*
X0770166Y0548332D01*
X0769833D01*
X0769500Y0547998D01*
Y0547332D01*
X0769833Y0546999D01*
X0770166D01*
X0770500Y0547332D01*
X0770833Y0546999D01*
X0771166D01*
X0770500Y0547332D02*
Y0547998D01*
X0640500Y0564500D02*
Y0566499D01*
X0639500D01*
X0639167Y0566166D01*
Y0565500D01*
X0639500Y0565166D01*
X0640500D01*
X0639834D02*
X0639167Y0564500D01*
X0637501D02*
Y0566499D01*
X0638501Y0565500D01*
X0637168D01*
X0636501Y0566166D02*
X0636168Y0566499D01*
X0635502D01*
X0635168Y0566166D01*
Y0564833D01*
X0635502Y0564500D01*
X0636168D01*
X0636501Y0564833D01*
Y0566166D01*
X0647000Y0561500D02*
Y0563499D01*
X0646000D01*
X0645667Y0563166D01*
Y0562500D01*
X0646000Y0562166D01*
X0647000D01*
X0646334D02*
X0645667Y0561500D01*
X0645001Y0563166D02*
X0644667Y0563499D01*
X0644001D01*
X0643668Y0563166D01*
Y0562833D01*
X0644001Y0562500D01*
X0644334D01*
X0644001D01*
X0643668Y0562166D01*
Y0561833D01*
X0644001Y0561500D01*
X0644667D01*
X0645001Y0561833D01*
X0643001Y0563166D02*
X0642668Y0563499D01*
X0642002D01*
X0641668Y0563166D01*
Y0562833D01*
X0642002Y0562500D01*
X0641668Y0562166D01*
Y0561833D01*
X0642002Y0561500D01*
X0642668D01*
X0643001Y0561833D01*
Y0562166D01*
X0642668Y0562500D01*
X0643001Y0562833D01*
Y0563166D01*
X0642668Y0562500D02*
X0642002D01*
X0634167Y0548833D02*
Y0550166D01*
X0634500Y0550499D01*
X0635167D01*
X0635500Y0550166D01*
Y0548833D01*
X0635167Y0548500D01*
X0634500D01*
X0634834Y0549166D02*
X0634167Y0548500D01*
X0634500D02*
X0634167Y0548833D01*
X0633501Y0550166D02*
X0633167Y0550499D01*
X0632501D01*
X0632168Y0550166D01*
Y0549833D01*
X0632501Y0549500D01*
X0632168Y0549166D01*
Y0548833D01*
X0632501Y0548500D01*
X0633167D01*
X0633501Y0548833D01*
Y0549166D01*
X0633167Y0549500D01*
X0633501Y0549833D01*
Y0550166D01*
X0633167Y0549500D02*
X0632501D01*
X0610500Y0564500D02*
Y0566499D01*
X0609500D01*
X0609167Y0566166D01*
Y0565500D01*
X0609500Y0565166D01*
X0610500D01*
X0609834D02*
X0609167Y0564500D01*
X0607501D02*
Y0566499D01*
X0608501Y0565500D01*
X0607168D01*
X0605168Y0566499D02*
X0605835Y0566166D01*
X0606501Y0565500D01*
Y0564833D01*
X0606168Y0564500D01*
X0605502D01*
X0605168Y0564833D01*
Y0565166D01*
X0605502Y0565500D01*
X0606501D01*
X0798500Y0594499D02*
Y0592833D01*
X0798167Y0592500D01*
X0797500D01*
X0797167Y0592833D01*
Y0594499D01*
X0796501D02*
X0795168D01*
Y0594166D01*
X0796501Y0592833D01*
Y0592500D01*
X0756500Y0562500D02*
Y0564499D01*
X0755500D01*
X0755167Y0564166D01*
Y0563500D01*
X0755500Y0563166D01*
X0756500D01*
X0755834D02*
X0755167Y0562500D01*
X0754501Y0564166D02*
X0754167Y0564499D01*
X0753501D01*
X0753168Y0564166D01*
Y0563833D01*
X0753501Y0563500D01*
X0753834D01*
X0753501D01*
X0753168Y0563166D01*
Y0562833D01*
X0753501Y0562500D01*
X0754167D01*
X0754501Y0562833D01*
X0751168Y0562500D02*
X0752501D01*
X0751168Y0563833D01*
Y0564166D01*
X0751502Y0564499D01*
X0752168D01*
X0752501Y0564166D01*
X0622667Y0548833D02*
Y0550166D01*
X0623000Y0550499D01*
X0623667D01*
X0624000Y0550166D01*
Y0548833D01*
X0623667Y0548500D01*
X0623000D01*
X0623334Y0549166D02*
X0622667Y0548500D01*
X0623000D02*
X0622667Y0548833D01*
X0622001Y0548500D02*
X0621334D01*
X0621667D01*
Y0550499D01*
X0622001Y0550166D01*
X0620334Y0548500D02*
X0619668D01*
X0620001D01*
Y0550499D01*
X0620334Y0550166D01*
X0611167Y0548833D02*
Y0550166D01*
X0611500Y0550499D01*
X0612167D01*
X0612500Y0550166D01*
Y0548833D01*
X0612167Y0548500D01*
X0611500D01*
X0611834Y0549166D02*
X0611167Y0548500D01*
X0611500D02*
X0611167Y0548833D01*
X0610501Y0548500D02*
X0609834D01*
X0610167D01*
Y0550499D01*
X0610501Y0550166D01*
X0607502Y0548500D02*
X0608835D01*
X0607502Y0549833D01*
Y0550166D01*
X0607835Y0550499D01*
X0608501D01*
X0608835Y0550166D01*
X0800499Y0549500D02*
X0798500D01*
Y0550500D01*
X0798833Y0550833D01*
X0800166D01*
X0800499Y0550500D01*
Y0549500D01*
Y0552832D02*
X0800166Y0552166D01*
X0799500Y0551499D01*
X0798833D01*
X0798500Y0551833D01*
Y0552499D01*
X0798833Y0552832D01*
X0799166D01*
X0799500Y0552499D01*
Y0551499D01*
X0736500Y0619500D02*
Y0621499D01*
X0735500D01*
X0735167Y0621166D01*
Y0620500D01*
X0735500Y0620166D01*
X0736500D01*
X0735834D02*
X0735167Y0619500D01*
X0733168D02*
X0734501D01*
X0733168Y0620833D01*
Y0621166D01*
X0733501Y0621499D01*
X0734167D01*
X0734501Y0621166D01*
X0732501D02*
X0732168Y0621499D01*
X0731502D01*
X0731168Y0621166D01*
Y0619833D01*
X0731502Y0619500D01*
X0732168D01*
X0732501Y0619833D01*
Y0621166D01*
X0761000Y0614500D02*
Y0616499D01*
X0760000D01*
X0759667Y0616166D01*
Y0615500D01*
X0760000Y0615166D01*
X0761000D01*
X0760333D02*
X0759667Y0614500D01*
X0757668D02*
X0759000D01*
X0757668Y0615833D01*
Y0616166D01*
X0758001Y0616499D01*
X0758667D01*
X0759000Y0616166D01*
X0757001Y0614500D02*
X0756335D01*
X0756668D01*
Y0616499D01*
X0757001Y0616166D01*
X0736500Y0625500D02*
Y0627499D01*
X0735500D01*
X0735167Y0627166D01*
Y0626500D01*
X0735500Y0626166D01*
X0736500D01*
X0735834D02*
X0735167Y0625500D01*
X0733168D02*
X0734501D01*
X0733168Y0626833D01*
Y0627166D01*
X0733501Y0627499D01*
X0734167D01*
X0734501Y0627166D01*
X0731168Y0627499D02*
X0731835Y0627166D01*
X0732501Y0626500D01*
Y0625833D01*
X0732168Y0625500D01*
X0731502D01*
X0731168Y0625833D01*
Y0626166D01*
X0731502Y0626500D01*
X0732501D01*
X0591000Y0564500D02*
Y0566499D01*
X0590000D01*
X0589667Y0566166D01*
Y0565500D01*
X0590000Y0565166D01*
X0591000D01*
X0590334D02*
X0589667Y0564500D01*
X0587668Y0566499D02*
X0589001D01*
Y0565500D01*
X0588334Y0565833D01*
X0588001D01*
X0587668Y0565500D01*
Y0564833D01*
X0588001Y0564500D01*
X0588667D01*
X0589001Y0564833D01*
X0587001Y0566499D02*
X0585668D01*
Y0566166D01*
X0587001Y0564833D01*
Y0564500D01*
X0703667Y0620666D02*
X0704000Y0620999D01*
X0704667D01*
X0705000Y0620666D01*
Y0619333D01*
X0704667Y0619000D01*
X0704000D01*
X0703667Y0619333D01*
X0703001Y0619000D02*
X0702334D01*
X0702667D01*
Y0620999D01*
X0703001Y0620666D01*
X0700002Y0620999D02*
X0701334D01*
Y0620000D01*
X0700668Y0620333D01*
X0700335D01*
X0700002Y0620000D01*
Y0619333D01*
X0700335Y0619000D01*
X0701001D01*
X0701334Y0619333D01*
X0697167Y0620666D02*
X0697500Y0620999D01*
X0698167D01*
X0698500Y0620666D01*
Y0619333D01*
X0698167Y0619000D01*
X0697500D01*
X0697167Y0619333D01*
X0696501Y0619000D02*
X0695834D01*
X0696167D01*
Y0620999D01*
X0696501Y0620666D01*
X0693835Y0619000D02*
Y0620999D01*
X0694835Y0620000D01*
X0693502D01*
X0706500Y0628500D02*
Y0630499D01*
X0705500D01*
X0705167Y0630166D01*
Y0629500D01*
X0705500Y0629166D01*
X0706500D01*
X0705834D02*
X0705167Y0628500D01*
X0703168D02*
X0704501D01*
X0703168Y0629833D01*
Y0630166D01*
X0703501Y0630499D01*
X0704167D01*
X0704501Y0630166D01*
X0701168Y0628500D02*
X0702501D01*
X0701168Y0629833D01*
Y0630166D01*
X0701502Y0630499D01*
X0702168D01*
X0702501Y0630166D01*
X0706500Y0632000D02*
Y0633999D01*
X0705500D01*
X0705167Y0633666D01*
Y0633000D01*
X0705500Y0632666D01*
X0706500D01*
X0705834D02*
X0705167Y0632000D01*
X0703168D02*
X0704501D01*
X0703168Y0633333D01*
Y0633666D01*
X0703501Y0633999D01*
X0704167D01*
X0704501Y0633666D01*
X0702501D02*
X0702168Y0633999D01*
X0701502D01*
X0701168Y0633666D01*
Y0633333D01*
X0701502Y0633000D01*
X0701835D01*
X0701502D01*
X0701168Y0632666D01*
Y0632333D01*
X0701502Y0632000D01*
X0702168D01*
X0702501Y0632333D01*
X0552500Y0573000D02*
Y0574999D01*
X0551500D01*
X0551167Y0574666D01*
Y0574000D01*
X0551500Y0573666D01*
X0552500D01*
X0551834D02*
X0551167Y0573000D01*
X0550501D02*
X0549834D01*
X0550167D01*
Y0574999D01*
X0550501Y0574666D01*
X0548835D02*
X0548501Y0574999D01*
X0547835D01*
X0547502Y0574666D01*
Y0574333D01*
X0547835Y0574000D01*
X0547502Y0573666D01*
Y0573333D01*
X0547835Y0573000D01*
X0548501D01*
X0548835Y0573333D01*
Y0573666D01*
X0548501Y0574000D01*
X0548835Y0574333D01*
Y0574666D01*
X0548501Y0574000D02*
X0547835D01*
X0552500Y0565000D02*
Y0566999D01*
X0551500D01*
X0551167Y0566666D01*
Y0566000D01*
X0551500Y0565666D01*
X0552500D01*
X0551834D02*
X0551167Y0565000D01*
X0550501D02*
X0549834D01*
X0550167D01*
Y0566999D01*
X0550501Y0566666D01*
X0548835Y0566999D02*
X0547502D01*
Y0566666D01*
X0548835Y0565333D01*
Y0565000D01*
X0728000Y0611000D02*
X0729999D01*
Y0612000D01*
X0729666Y0612333D01*
X0729000D01*
X0728666Y0612000D01*
Y0611000D01*
Y0611666D02*
X0728000Y0612333D01*
Y0612999D02*
Y0613666D01*
Y0613333D01*
X0729999D01*
X0729666Y0612999D01*
X0729999Y0615998D02*
Y0614666D01*
X0729000D01*
X0729333Y0615332D01*
Y0615665D01*
X0729000Y0615998D01*
X0728333D01*
X0728000Y0615665D01*
Y0614999D01*
X0728333Y0614666D01*
X0724500Y0611000D02*
X0726499D01*
Y0612000D01*
X0726166Y0612333D01*
X0725500D01*
X0725166Y0612000D01*
Y0611000D01*
Y0611666D02*
X0724500Y0612333D01*
Y0612999D02*
Y0613666D01*
Y0613333D01*
X0726499D01*
X0726166Y0612999D01*
X0726499Y0615998D02*
X0726166Y0615332D01*
X0725500Y0614666D01*
X0724833D01*
X0724500Y0614999D01*
Y0615665D01*
X0724833Y0615998D01*
X0725166D01*
X0725500Y0615665D01*
Y0614666D01*
X0854499Y0629500D02*
X0852500D01*
Y0630500D01*
X0852833Y0630833D01*
X0854166D01*
X0854499Y0630500D01*
Y0629500D01*
X0852500Y0631499D02*
Y0632166D01*
Y0631833D01*
X0854499D01*
X0854166Y0631499D01*
X0854499Y0634498D02*
X0854166Y0633832D01*
X0853500Y0633166D01*
X0852833D01*
X0852500Y0633499D01*
Y0634165D01*
X0852833Y0634498D01*
X0853166D01*
X0853500Y0634165D01*
Y0633166D01*
X0840667Y0609499D02*
X0842000D01*
Y0608500D01*
X0841333D01*
X0842000D01*
Y0607500D01*
X0840001Y0609166D02*
X0839667Y0609499D01*
X0839001D01*
X0838668Y0609166D01*
Y0608833D01*
X0839001Y0608500D01*
X0839334D01*
X0839001D01*
X0838668Y0608166D01*
Y0607833D01*
X0839001Y0607500D01*
X0839667D01*
X0840001Y0607833D01*
X0552667Y0594166D02*
X0553000Y0594499D01*
X0553667D01*
X0554000Y0594166D01*
Y0592833D01*
X0553667Y0592500D01*
X0553000D01*
X0552667Y0592833D01*
X0550668Y0594499D02*
X0552001D01*
Y0593500D01*
X0551334Y0593833D01*
X0551001D01*
X0550668Y0593500D01*
Y0592833D01*
X0551001Y0592500D01*
X0551667D01*
X0552001Y0592833D01*
X0547167Y0618833D02*
Y0620166D01*
X0547500Y0620499D01*
X0548167D01*
X0548500Y0620166D01*
Y0618833D01*
X0548167Y0618500D01*
X0547500D01*
X0547834Y0619166D02*
X0547167Y0618500D01*
X0547500D02*
X0547167Y0618833D01*
X0546501Y0620166D02*
X0546167Y0620499D01*
X0545501D01*
X0545168Y0620166D01*
Y0619833D01*
X0545501Y0619500D01*
X0545834D01*
X0545501D01*
X0545168Y0619166D01*
Y0618833D01*
X0545501Y0618500D01*
X0546167D01*
X0546501Y0618833D01*
X0544501Y0618167D02*
X0543168D01*
X0542502Y0618500D02*
X0541835D01*
X0542169D01*
Y0620499D01*
X0542502Y0620166D01*
X0559667Y0618833D02*
Y0620166D01*
X0560000Y0620499D01*
X0560667D01*
X0561000Y0620166D01*
Y0618833D01*
X0560667Y0618500D01*
X0560000D01*
X0560334Y0619166D02*
X0559667Y0618500D01*
X0560000D02*
X0559667Y0618833D01*
X0559001Y0620166D02*
X0558667Y0620499D01*
X0558001D01*
X0557668Y0620166D01*
Y0619833D01*
X0558001Y0619500D01*
X0558334D01*
X0558001D01*
X0557668Y0619166D01*
Y0618833D01*
X0558001Y0618500D01*
X0558667D01*
X0559001Y0618833D01*
X0557001Y0618167D02*
X0555668D01*
X0553669Y0618500D02*
X0555002D01*
X0553669Y0619833D01*
Y0620166D01*
X0554002Y0620499D01*
X0554669D01*
X0555002Y0620166D01*
X0572167Y0618833D02*
Y0620166D01*
X0572500Y0620499D01*
X0573167D01*
X0573500Y0620166D01*
Y0618833D01*
X0573167Y0618500D01*
X0572500D01*
X0572834Y0619166D02*
X0572167Y0618500D01*
X0572500D02*
X0572167Y0618833D01*
X0571501Y0620166D02*
X0571167Y0620499D01*
X0570501D01*
X0570168Y0620166D01*
Y0619833D01*
X0570501Y0619500D01*
X0570834D01*
X0570501D01*
X0570168Y0619166D01*
Y0618833D01*
X0570501Y0618500D01*
X0571167D01*
X0571501Y0618833D01*
X0569501Y0618167D02*
X0568168D01*
X0567502Y0620166D02*
X0567169Y0620499D01*
X0566502D01*
X0566169Y0620166D01*
Y0619833D01*
X0566502Y0619500D01*
X0566835D01*
X0566502D01*
X0566169Y0619166D01*
Y0618833D01*
X0566502Y0618500D01*
X0567169D01*
X0567502Y0618833D01*
X0584667D02*
Y0620166D01*
X0585000Y0620499D01*
X0585667D01*
X0586000Y0620166D01*
Y0618833D01*
X0585667Y0618500D01*
X0585000D01*
X0585334Y0619166D02*
X0584667Y0618500D01*
X0585000D02*
X0584667Y0618833D01*
X0584001Y0620166D02*
X0583667Y0620499D01*
X0583001D01*
X0582668Y0620166D01*
Y0619833D01*
X0583001Y0619500D01*
X0583334D01*
X0583001D01*
X0582668Y0619166D01*
Y0618833D01*
X0583001Y0618500D01*
X0583667D01*
X0584001Y0618833D01*
X0582001Y0618167D02*
X0580668D01*
X0579002Y0618500D02*
Y0620499D01*
X0580002Y0619500D01*
X0578669D01*
X0597167Y0618833D02*
Y0620166D01*
X0597500Y0620499D01*
X0598167D01*
X0598500Y0620166D01*
Y0618833D01*
X0598167Y0618500D01*
X0597500D01*
X0597834Y0619166D02*
X0597167Y0618500D01*
X0597500D02*
X0597167Y0618833D01*
X0596501Y0620166D02*
X0596167Y0620499D01*
X0595501D01*
X0595168Y0620166D01*
Y0619833D01*
X0595501Y0619500D01*
X0595834D01*
X0595501D01*
X0595168Y0619166D01*
Y0618833D01*
X0595501Y0618500D01*
X0596167D01*
X0596501Y0618833D01*
X0594501Y0618167D02*
X0593168D01*
X0591169Y0620499D02*
X0592502D01*
Y0619500D01*
X0591835Y0619833D01*
X0591502D01*
X0591169Y0619500D01*
Y0618833D01*
X0591502Y0618500D01*
X0592169D01*
X0592502Y0618833D01*
X0609667D02*
Y0620166D01*
X0610000Y0620499D01*
X0610667D01*
X0611000Y0620166D01*
Y0618833D01*
X0610667Y0618500D01*
X0610000D01*
X0610334Y0619166D02*
X0609667Y0618500D01*
X0610000D02*
X0609667Y0618833D01*
X0609001Y0620166D02*
X0608667Y0620499D01*
X0608001D01*
X0607668Y0620166D01*
Y0619833D01*
X0608001Y0619500D01*
X0608334D01*
X0608001D01*
X0607668Y0619166D01*
Y0618833D01*
X0608001Y0618500D01*
X0608667D01*
X0609001Y0618833D01*
X0607001Y0618167D02*
X0605668D01*
X0603669Y0620499D02*
X0604335Y0620166D01*
X0605002Y0619500D01*
Y0618833D01*
X0604669Y0618500D01*
X0604002D01*
X0603669Y0618833D01*
Y0619166D01*
X0604002Y0619500D01*
X0605002D01*
X0622167Y0618833D02*
Y0620166D01*
X0622500Y0620499D01*
X0623167D01*
X0623500Y0620166D01*
Y0618833D01*
X0623167Y0618500D01*
X0622500D01*
X0622834Y0619166D02*
X0622167Y0618500D01*
X0622500D02*
X0622167Y0618833D01*
X0621501Y0620166D02*
X0621167Y0620499D01*
X0620501D01*
X0620168Y0620166D01*
Y0619833D01*
X0620501Y0619500D01*
X0620834D01*
X0620501D01*
X0620168Y0619166D01*
Y0618833D01*
X0620501Y0618500D01*
X0621167D01*
X0621501Y0618833D01*
X0619501Y0618167D02*
X0618168D01*
X0617502Y0620499D02*
X0616169D01*
Y0620166D01*
X0617502Y0618833D01*
Y0618500D01*
X0634667Y0618833D02*
Y0620166D01*
X0635000Y0620499D01*
X0635667D01*
X0636000Y0620166D01*
Y0618833D01*
X0635667Y0618500D01*
X0635000D01*
X0635334Y0619166D02*
X0634667Y0618500D01*
X0635000D02*
X0634667Y0618833D01*
X0634001Y0620166D02*
X0633667Y0620499D01*
X0633001D01*
X0632668Y0620166D01*
Y0619833D01*
X0633001Y0619500D01*
X0633334D01*
X0633001D01*
X0632668Y0619166D01*
Y0618833D01*
X0633001Y0618500D01*
X0633667D01*
X0634001Y0618833D01*
X0632001Y0618167D02*
X0630668D01*
X0630002Y0620166D02*
X0629669Y0620499D01*
X0629002D01*
X0628669Y0620166D01*
Y0619833D01*
X0629002Y0619500D01*
X0628669Y0619166D01*
Y0618833D01*
X0629002Y0618500D01*
X0629669D01*
X0630002Y0618833D01*
Y0619166D01*
X0629669Y0619500D01*
X0630002Y0619833D01*
Y0620166D01*
X0629669Y0619500D02*
X0629002D01*
X0647167Y0618833D02*
Y0620166D01*
X0647500Y0620499D01*
X0648167D01*
X0648500Y0620166D01*
Y0618833D01*
X0648167Y0618500D01*
X0647500D01*
X0647834Y0619166D02*
X0647167Y0618500D01*
X0647500D02*
X0647167Y0618833D01*
X0646501Y0620166D02*
X0646167Y0620499D01*
X0645501D01*
X0645168Y0620166D01*
Y0619833D01*
X0645501Y0619500D01*
X0645834D01*
X0645501D01*
X0645168Y0619166D01*
Y0618833D01*
X0645501Y0618500D01*
X0646167D01*
X0646501Y0618833D01*
X0644501Y0618167D02*
X0643168D01*
X0642502Y0618833D02*
X0642169Y0618500D01*
X0641502D01*
X0641169Y0618833D01*
Y0620166D01*
X0641502Y0620499D01*
X0642169D01*
X0642502Y0620166D01*
Y0619833D01*
X0642169Y0619500D01*
X0641169D01*
X0659667Y0618833D02*
Y0620166D01*
X0660000Y0620499D01*
X0660667D01*
X0661000Y0620166D01*
Y0618833D01*
X0660667Y0618500D01*
X0660000D01*
X0660334Y0619166D02*
X0659667Y0618500D01*
X0660000D02*
X0659667Y0618833D01*
X0659001Y0620166D02*
X0658667Y0620499D01*
X0658001D01*
X0657668Y0620166D01*
Y0619833D01*
X0658001Y0619500D01*
X0658334D01*
X0658001D01*
X0657668Y0619166D01*
Y0618833D01*
X0658001Y0618500D01*
X0658667D01*
X0659001Y0618833D01*
X0657001Y0618167D02*
X0655668D01*
X0655002Y0618500D02*
X0654335D01*
X0654669D01*
Y0620499D01*
X0655002Y0620166D01*
X0653336D02*
X0653003Y0620499D01*
X0652336D01*
X0652003Y0620166D01*
Y0618833D01*
X0652336Y0618500D01*
X0653003D01*
X0653336Y0618833D01*
Y0620166D01*
X0671667Y0618833D02*
Y0620166D01*
X0672000Y0620499D01*
X0672667D01*
X0673000Y0620166D01*
Y0618833D01*
X0672667Y0618500D01*
X0672000D01*
X0672334Y0619166D02*
X0671667Y0618500D01*
X0672000D02*
X0671667Y0618833D01*
X0671001Y0620166D02*
X0670667Y0620499D01*
X0670001D01*
X0669668Y0620166D01*
Y0619833D01*
X0670001Y0619500D01*
X0670334D01*
X0670001D01*
X0669668Y0619166D01*
Y0618833D01*
X0670001Y0618500D01*
X0670667D01*
X0671001Y0618833D01*
X0669001Y0618167D02*
X0667668D01*
X0667002Y0618500D02*
X0666335D01*
X0666669D01*
Y0620499D01*
X0667002Y0620166D01*
X0665336Y0618500D02*
X0664669D01*
X0665003D01*
Y0620499D01*
X0665336Y0620166D01*
X0683167Y0618833D02*
Y0620166D01*
X0683500Y0620499D01*
X0684167D01*
X0684500Y0620166D01*
Y0618833D01*
X0684167Y0618500D01*
X0683500D01*
X0683834Y0619166D02*
X0683167Y0618500D01*
X0683500D02*
X0683167Y0618833D01*
X0682501Y0620166D02*
X0682167Y0620499D01*
X0681501D01*
X0681168Y0620166D01*
Y0619833D01*
X0681501Y0619500D01*
X0681834D01*
X0681501D01*
X0681168Y0619166D01*
Y0618833D01*
X0681501Y0618500D01*
X0682167D01*
X0682501Y0618833D01*
X0680501Y0618167D02*
X0679168D01*
X0678502Y0618500D02*
X0677836D01*
X0678169D01*
Y0620499D01*
X0678502Y0620166D01*
X0675503Y0618500D02*
X0676836D01*
X0675503Y0619833D01*
Y0620166D01*
X0675836Y0620499D01*
X0676503D01*
X0676836Y0620166D01*
X0543000Y0589500D02*
Y0591499D01*
X0542000D01*
X0541667Y0591166D01*
Y0590500D01*
X0542000Y0590166D01*
X0543000D01*
X0542334D02*
X0541667Y0589500D01*
X0541001D02*
X0540334D01*
X0540667D01*
Y0591499D01*
X0541001Y0591166D01*
X0539334D02*
X0539001Y0591499D01*
X0538335D01*
X0538002Y0591166D01*
Y0589833D01*
X0538335Y0589500D01*
X0539001D01*
X0539334Y0589833D01*
Y0591166D01*
X0719000Y0551499D02*
Y0551166D01*
X0718334Y0550500D01*
X0717667Y0551166D01*
Y0551499D01*
X0718334Y0550500D02*
Y0549500D01*
X0717001D02*
X0716334D01*
X0716667D01*
Y0551499D01*
X0717001Y0551166D01*
X0657167Y0558333D02*
Y0559666D01*
X0657500Y0559999D01*
X0658167D01*
X0658500Y0559666D01*
Y0558333D01*
X0658167Y0558000D01*
X0657500D01*
X0657834Y0558666D02*
X0657167Y0558000D01*
X0657500D02*
X0657167Y0558333D01*
X0656501D02*
X0656167Y0558000D01*
X0655501D01*
X0655168Y0558333D01*
Y0559666D01*
X0655501Y0559999D01*
X0656167D01*
X0656501Y0559666D01*
Y0559333D01*
X0656167Y0559000D01*
X0655168D01*
X0645667Y0548833D02*
Y0550166D01*
X0646000Y0550499D01*
X0646667D01*
X0647000Y0550166D01*
Y0548833D01*
X0646667Y0548500D01*
X0646000D01*
X0646334Y0549166D02*
X0645667Y0548500D01*
X0646000D02*
X0645667Y0548833D01*
X0645001Y0548500D02*
X0644334D01*
X0644667D01*
Y0550499D01*
X0645001Y0550166D01*
X0643334D02*
X0643001Y0550499D01*
X0642335D01*
X0642002Y0550166D01*
Y0548833D01*
X0642335Y0548500D01*
X0643001D01*
X0643334Y0548833D01*
Y0550166D01*
X0669500Y0549500D02*
X0671499D01*
Y0550500D01*
X0671166Y0550833D01*
X0670500D01*
X0670166Y0550500D01*
Y0549500D01*
Y0550166D02*
X0669500Y0550833D01*
Y0552499D02*
X0671499D01*
X0670500Y0551499D01*
Y0552832D01*
X0669500Y0553499D02*
Y0554165D01*
Y0553832D01*
X0671499D01*
X0671166Y0553499D01*
X0668500Y0561000D02*
Y0562999D01*
X0667500D01*
X0667167Y0562666D01*
Y0562000D01*
X0667500Y0561666D01*
X0668500D01*
X0667834D02*
X0667167Y0561000D01*
X0665501D02*
Y0562999D01*
X0666501Y0562000D01*
X0665168D01*
X0664501Y0562666D02*
X0664168Y0562999D01*
X0663502D01*
X0663168Y0562666D01*
Y0562333D01*
X0663502Y0562000D01*
X0663835D01*
X0663502D01*
X0663168Y0561666D01*
Y0561333D01*
X0663502Y0561000D01*
X0664168D01*
X0664501Y0561333D01*
X0627500Y0564500D02*
Y0566499D01*
X0626500D01*
X0626167Y0566166D01*
Y0565500D01*
X0626500Y0565166D01*
X0627500D01*
X0626834D02*
X0626167Y0564500D01*
X0624501D02*
Y0566499D01*
X0625501Y0565500D01*
X0624168D01*
X0622168Y0566499D02*
X0623501D01*
Y0565500D01*
X0622835Y0565833D01*
X0622502D01*
X0622168Y0565500D01*
Y0564833D01*
X0622502Y0564500D01*
X0623168D01*
X0623501Y0564833D01*
X0747000Y0546999D02*
Y0545333D01*
X0746667Y0545000D01*
X0746000D01*
X0745667Y0545333D01*
Y0546999D01*
X0745001Y0545000D02*
X0744334D01*
X0744667D01*
Y0546999D01*
X0745001Y0546666D01*
X0743334D02*
X0743001Y0546999D01*
X0742335D01*
X0742002Y0546666D01*
Y0545333D01*
X0742335Y0545000D01*
X0743001D01*
X0743334Y0545333D01*
Y0546666D01*
X0735500Y0542999D02*
Y0542666D01*
X0734833Y0542000D01*
X0734167Y0542666D01*
Y0542999D01*
X0734833Y0542000D02*
Y0541000D01*
X0732168D02*
X0733501D01*
X0732168Y0542333D01*
Y0542666D01*
X0732501Y0542999D01*
X0733167D01*
X0733501Y0542666D01*
X0732666Y0555833D02*
X0732999Y0555500D01*
Y0554833D01*
X0732666Y0554500D01*
X0731333D01*
X0731000Y0554833D01*
Y0555500D01*
X0731333Y0555833D01*
X0732666Y0556499D02*
X0732999Y0556833D01*
Y0557499D01*
X0732666Y0557832D01*
X0732333D01*
X0732000Y0557499D01*
Y0557166D01*
Y0557499D01*
X0731666Y0557832D01*
X0731333D01*
X0731000Y0557499D01*
Y0556833D01*
X0731333Y0556499D01*
X0731000Y0559498D02*
X0732999D01*
X0732000Y0558499D01*
Y0559832D01*
X0755667Y0543666D02*
X0756000Y0543999D01*
X0756667D01*
X0757000Y0543666D01*
Y0542333D01*
X0756667Y0542000D01*
X0756000D01*
X0755667Y0542333D01*
X0755001Y0543666D02*
X0754667Y0543999D01*
X0754001D01*
X0753668Y0543666D01*
Y0543333D01*
X0754001Y0543000D01*
X0754334D01*
X0754001D01*
X0753668Y0542666D01*
Y0542333D01*
X0754001Y0542000D01*
X0754667D01*
X0755001Y0542333D01*
X0751668Y0543999D02*
X0753001D01*
Y0543000D01*
X0752335Y0543333D01*
X0752002D01*
X0751668Y0543000D01*
Y0542333D01*
X0752002Y0542000D01*
X0752668D01*
X0753001Y0542333D01*
X0591000Y0547000D02*
Y0548999D01*
X0590000D01*
X0589667Y0548666D01*
Y0548000D01*
X0590000Y0547666D01*
X0591000D01*
X0590334D02*
X0589667Y0547000D01*
X0587668D02*
X0589001D01*
X0587668Y0548333D01*
Y0548666D01*
X0588001Y0548999D01*
X0588667D01*
X0589001Y0548666D01*
X0587001Y0548999D02*
X0585668D01*
Y0548666D01*
X0587001Y0547333D01*
Y0547000D01*
X0639500Y0570500D02*
Y0572499D01*
X0638500D01*
X0638167Y0572166D01*
Y0571500D01*
X0638500Y0571166D01*
X0639500D01*
X0638834D02*
X0638167Y0570500D01*
X0637501Y0572166D02*
X0637167Y0572499D01*
X0636501D01*
X0636168Y0572166D01*
Y0571833D01*
X0636501Y0571500D01*
X0636168Y0571166D01*
Y0570833D01*
X0636501Y0570500D01*
X0637167D01*
X0637501Y0570833D01*
Y0571166D01*
X0637167Y0571500D01*
X0637501Y0571833D01*
Y0572166D01*
X0637167Y0571500D02*
X0636501D01*
X0834500Y0555499D02*
Y0553500D01*
X0833500D01*
X0833167Y0553833D01*
Y0555166D01*
X0833500Y0555499D01*
X0834500D01*
X0832501Y0553500D02*
X0831834D01*
X0832167D01*
Y0555499D01*
X0832501Y0555166D01*
X0830834Y0555499D02*
X0829502D01*
Y0555166D01*
X0830834Y0553833D01*
Y0553500D01*
X0771000Y0634500D02*
Y0636499D01*
X0770000D01*
X0769667Y0636166D01*
Y0635500D01*
X0770000Y0635166D01*
X0771000D01*
X0770334D02*
X0769667Y0634500D01*
X0767668Y0636499D02*
X0769001D01*
Y0635500D01*
X0768334Y0635833D01*
X0768001D01*
X0767668Y0635500D01*
Y0634833D01*
X0768001Y0634500D01*
X0768667D01*
X0769001Y0634833D01*
X0767001Y0636166D02*
X0766668Y0636499D01*
X0766002D01*
X0765668Y0636166D01*
Y0635833D01*
X0766002Y0635500D01*
X0765668Y0635166D01*
Y0634833D01*
X0766002Y0634500D01*
X0766668D01*
X0767001Y0634833D01*
Y0635166D01*
X0766668Y0635500D01*
X0767001Y0635833D01*
Y0636166D01*
X0766668Y0635500D02*
X0766002D01*
X0785667Y0632333D02*
Y0633666D01*
X0786000Y0633999D01*
X0786667D01*
X0787000Y0633666D01*
Y0632333D01*
X0786667Y0632000D01*
X0786000D01*
X0786334Y0632666D02*
X0785667Y0632000D01*
X0786000D02*
X0785667Y0632333D01*
X0785001Y0632000D02*
X0784334D01*
X0784667D01*
Y0633999D01*
X0785001Y0633666D01*
X0783334D02*
X0783001Y0633999D01*
X0782335D01*
X0782002Y0633666D01*
Y0633333D01*
X0782335Y0633000D01*
X0782668D01*
X0782335D01*
X0782002Y0632666D01*
Y0632333D01*
X0782335Y0632000D01*
X0783001D01*
X0783334Y0632333D01*
X0536500Y0564000D02*
X0537833D01*
X0538499Y0564666D01*
X0537833Y0565333D01*
X0536500D01*
X0537500D01*
Y0564000D01*
X0538166Y0567332D02*
X0538499Y0566999D01*
Y0566333D01*
X0538166Y0565999D01*
X0536833D01*
X0536500Y0566333D01*
Y0566999D01*
X0536833Y0567332D01*
X0538166Y0569332D02*
X0538499Y0568998D01*
Y0568332D01*
X0538166Y0567999D01*
X0536833D01*
X0536500Y0568332D01*
Y0568998D01*
X0536833Y0569332D01*
X0564167Y0572666D02*
X0564500Y0572999D01*
X0565167D01*
X0565500Y0572666D01*
Y0571333D01*
X0565167Y0571000D01*
X0564500D01*
X0564167Y0571333D01*
X0563501Y0571000D02*
Y0572333D01*
X0562834Y0572999D01*
X0562168Y0572333D01*
Y0571000D01*
Y0572000D01*
X0563501D01*
X0561501Y0571000D02*
Y0572999D01*
X0560168Y0571000D01*
Y0572999D01*
X0559502D02*
Y0571000D01*
Y0572000D01*
X0558169D01*
Y0572999D01*
Y0571000D01*
X0574167Y0572666D02*
X0574500Y0572999D01*
X0575167D01*
X0575500Y0572666D01*
Y0571333D01*
X0575167Y0571000D01*
X0574500D01*
X0574167Y0571333D01*
X0573501Y0571000D02*
Y0572333D01*
X0572834Y0572999D01*
X0572168Y0572333D01*
Y0571000D01*
Y0572000D01*
X0573501D01*
X0571501Y0571000D02*
Y0572999D01*
X0570168Y0571000D01*
Y0572999D01*
X0569502D02*
Y0571000D01*
X0568169D01*
X0538499Y0546833D02*
Y0545500D01*
X0537500D01*
X0537833Y0546166D01*
Y0546500D01*
X0537500Y0546833D01*
X0536833D01*
X0536500Y0546500D01*
Y0545833D01*
X0536833Y0545500D01*
X0538499Y0547499D02*
X0537166D01*
X0536500Y0548166D01*
X0537166Y0548832D01*
X0538499D01*
X0538166Y0552500D02*
X0538499Y0552833D01*
Y0553500D01*
X0538166Y0553833D01*
X0537833D01*
X0537500Y0553500D01*
Y0553166D01*
Y0553500D01*
X0537166Y0553833D01*
X0536833D01*
X0536500Y0553500D01*
Y0552833D01*
X0536833Y0552500D01*
X0538499Y0554499D02*
X0537166D01*
X0536500Y0555166D01*
X0537166Y0555832D01*
X0538499D01*
X0538166Y0556499D02*
X0538499Y0556832D01*
Y0557498D01*
X0538166Y0557832D01*
X0537833D01*
X0537500Y0557498D01*
Y0557165D01*
Y0557498D01*
X0537166Y0557832D01*
X0536833D01*
X0536500Y0557498D01*
Y0556832D01*
X0536833Y0556499D01*
X0538166Y0577833D02*
X0538499Y0577500D01*
Y0576833D01*
X0538166Y0576500D01*
X0536833D01*
X0536500Y0576833D01*
Y0577500D01*
X0536833Y0577833D01*
X0537500D01*
Y0577166D01*
X0536500Y0578499D02*
X0538499D01*
X0536500Y0579832D01*
X0538499D01*
Y0580499D02*
X0536500D01*
Y0581498D01*
X0536833Y0581832D01*
X0538166D01*
X0538499Y0581498D01*
Y0580499D01*
X0548000Y0630666D02*
X0547667Y0630999D01*
X0547000D01*
X0546667Y0630666D01*
Y0629333D01*
X0547000Y0629000D01*
X0547667D01*
X0548000Y0629333D01*
Y0630666D01*
X0557500Y0629000D02*
X0556834D01*
X0557167D01*
Y0630999D01*
X0557500Y0630666D01*
X0566667Y0629000D02*
X0568000D01*
X0566667Y0630333D01*
Y0630666D01*
X0567000Y0630999D01*
X0567667D01*
X0568000Y0630666D01*
X0577500D02*
X0577167Y0630999D01*
X0576500D01*
X0576167Y0630666D01*
Y0630333D01*
X0576500Y0630000D01*
X0576834D01*
X0576500D01*
X0576167Y0629666D01*
Y0629333D01*
X0576500Y0629000D01*
X0577167D01*
X0577500Y0629333D01*
X0586500Y0629000D02*
Y0630999D01*
X0587500Y0630000D01*
X0586167D01*
X0596167Y0630999D02*
X0597500D01*
Y0630000D01*
X0596834Y0630333D01*
X0596500D01*
X0596167Y0630000D01*
Y0629333D01*
X0596500Y0629000D01*
X0597167D01*
X0597500Y0629333D01*
X0605667Y0630999D02*
X0606334Y0630666D01*
X0607000Y0630000D01*
Y0629333D01*
X0606667Y0629000D01*
X0606000D01*
X0605667Y0629333D01*
Y0629666D01*
X0606000Y0630000D01*
X0607000D01*
X0617000Y0630999D02*
X0615667D01*
Y0630666D01*
X0617000Y0629333D01*
Y0629000D01*
X0627000Y0630666D02*
X0626667Y0630999D01*
X0626000D01*
X0625667Y0630666D01*
Y0630333D01*
X0626000Y0630000D01*
X0625667Y0629666D01*
Y0629333D01*
X0626000Y0629000D01*
X0626667D01*
X0627000Y0629333D01*
Y0629666D01*
X0626667Y0630000D01*
X0627000Y0630333D01*
Y0630666D01*
X0626667Y0630000D02*
X0626000D01*
X0636500Y0629333D02*
X0636167Y0629000D01*
X0635500D01*
X0635167Y0629333D01*
Y0630666D01*
X0635500Y0630999D01*
X0636167D01*
X0636500Y0630666D01*
Y0630333D01*
X0636167Y0630000D01*
X0635167D01*
X0647500Y0629000D02*
X0646834D01*
X0647167D01*
Y0630999D01*
X0647500Y0630666D01*
X0645834D02*
X0645501Y0630999D01*
X0644834D01*
X0644501Y0630666D01*
Y0629333D01*
X0644834Y0629000D01*
X0645501D01*
X0645834Y0629333D01*
Y0630666D01*
X0657000Y0629000D02*
X0656334D01*
X0656667D01*
Y0630999D01*
X0657000Y0630666D01*
X0655334Y0629000D02*
X0654667D01*
X0655001D01*
Y0630999D01*
X0655334Y0630666D01*
X0667000Y0629000D02*
X0666334D01*
X0666667D01*
Y0630999D01*
X0667000Y0630666D01*
X0664001Y0629000D02*
X0665334D01*
X0664001Y0630333D01*
Y0630666D01*
X0664334Y0630999D01*
X0665001D01*
X0665334Y0630666D01*
D91*
X0618000Y0561000D02*
X0619499D01*
Y0561750D01*
X0619250Y0562000D01*
X0618750D01*
X0618500Y0561750D01*
Y0561000D01*
Y0561500D02*
X0618000Y0562000D01*
Y0563249D02*
X0619499D01*
X0618750Y0562500D01*
Y0563499D01*
X0619499Y0563999D02*
Y0564999D01*
X0619250D01*
X0618250Y0563999D01*
X0618000D01*
X0633000Y0559500D02*
Y0560500D01*
X0632500D01*
X0632334Y0560333D01*
Y0560000D01*
X0632500Y0559833D01*
X0633000D01*
X0632667D02*
X0632334Y0559500D01*
X0632000Y0560333D02*
X0631834Y0560500D01*
X0631500D01*
X0631334Y0560333D01*
Y0560166D01*
X0631500Y0560000D01*
X0631667D01*
X0631500D01*
X0631334Y0559833D01*
Y0559667D01*
X0631500Y0559500D01*
X0631834D01*
X0632000Y0559667D01*
X0631001D02*
X0630834Y0559500D01*
X0630501D01*
X0630334Y0559667D01*
Y0560333D01*
X0630501Y0560500D01*
X0630834D01*
X0631001Y0560333D01*
Y0560166D01*
X0630834Y0560000D01*
X0630334D01*
D154*
X0786700Y0571450D02*
G03*
X0784300Y0571450I-0001200J0000000D01*
G01*
X0778539Y0591550D02*
X0792461D01*
X0778539Y0571450D02*
X0792461D01*
D155*
X0575300Y0587499D02*
Y0584700D01*
X0573901D01*
X0573434Y0585167D01*
Y0585633D01*
Y0586099D01*
X0573901Y0586566D01*
X0575300D01*
X0572034D02*
X0571101D01*
X0570635Y0586099D01*
Y0584700D01*
X0572034D01*
X0572501Y0585167D01*
X0572034Y0585633D01*
X0570635D01*
X0569235Y0587033D02*
Y0586566D01*
X0569702D01*
X0568769D01*
X0569235D01*
Y0585167D01*
X0568769Y0584700D01*
X0566903Y0587033D02*
Y0586566D01*
X0567369D01*
X0566436D01*
X0566903D01*
Y0585167D01*
X0566436Y0584700D01*
X0565037D02*
Y0586566D01*
X0564570D01*
X0564104Y0586099D01*
Y0584700D01*
Y0586099D01*
X0563637Y0586566D01*
X0563171Y0586099D01*
Y0584700D01*
X0561771Y0586566D02*
X0560838D01*
X0560371Y0586099D01*
Y0584700D01*
X0561771D01*
X0562238Y0585167D01*
X0561771Y0585633D01*
X0560371D01*
X0559439Y0584700D02*
Y0586566D01*
X0558039D01*
X0557572Y0586099D01*
Y0584700D01*
X0553840Y0586566D02*
X0552907Y0584700D01*
X0551974Y0586566D01*
X0549642Y0584700D02*
Y0587499D01*
X0551041Y0586099D01*
X0549175D01*
X0548242Y0584700D02*
Y0585167D01*
X0547776D01*
Y0584700D01*
X0548242D01*
X0545910D02*
X0544977D01*
X0545443D01*
Y0587499D01*
X0545910Y0587033D01*
M02*
