G04 Layer_Physical_Order=3*
G04 Layer_Color=128*
%FSAX25Y25*%
%MOIN*%
G70*
G01*
G75*
%ADD50C,0.01000*%
%ADD51C,0.02000*%
%ADD60C,0.04000*%
%ADD61C,0.13805*%
%ADD62C,0.04750*%
%ADD63C,0.05537*%
%ADD64C,0.02600*%
%ADD65C,0.09080*%
D50*
X0831000Y0581000D02*
Y0584000D01*
X0576000Y0548000D02*
X0579000D01*
Y0554500D02*
X0585000Y0548500D01*
X0649000D01*
X0650500Y0547000D01*
X0659500D01*
X0699000Y0543000D02*
X0793000D01*
X0806500Y0556500D01*
X0577000Y0560500D02*
X0579500D01*
X0576000Y0559500D02*
X0577000Y0560500D01*
X0576000Y0555500D02*
Y0559500D01*
Y0554500D02*
X0579000D01*
X0579500Y0560500D02*
X0585000Y0555000D01*
X0576000Y0553000D02*
Y0555500D01*
X0579000Y0548000D02*
X0582500Y0544500D01*
X0649500D01*
X0628500Y0566500D02*
X0639500D01*
X0560500D02*
X0563500Y0569500D01*
X0625500D02*
X0628500Y0566500D01*
X0563500Y0569500D02*
X0625500D01*
X0576000Y0539500D02*
Y0553250D01*
X0660000Y0547500D02*
X0662500Y0550000D01*
X0692000D01*
X0699000Y0543000D01*
X0731000Y0570500D02*
X0759000Y0598500D01*
X0717500Y0570500D02*
X0731000D01*
X0717500D02*
X0731000D01*
X0711500Y0576500D02*
X0717500Y0570500D01*
X0649500Y0576500D02*
X0711500D01*
X0639500Y0566500D02*
X0649500Y0576500D01*
X0806500Y0608500D02*
X0831000Y0584000D01*
X0834000Y0581000D02*
X0838490D01*
X0774500Y0595000D02*
Y0602500D01*
X0759000Y0598500D02*
X0774500D01*
Y0602000D01*
Y0595000D02*
Y0598000D01*
X0763000Y0583500D02*
X0774500Y0595000D01*
X0649500Y0544500D02*
X0651250Y0542750D01*
X0678750D01*
X0681500Y0545500D01*
X0687500D01*
Y0537500D02*
Y0545500D01*
X0585000Y0555000D02*
X0721000D01*
X0749000D01*
X0763000Y0569000D02*
Y0583500D01*
X0749000Y0555000D02*
X0763000Y0569000D01*
X0534000Y0537500D02*
Y0546500D01*
X0540000Y0552500D01*
X0546500D01*
X0560500Y0566500D01*
X0839000Y0581000D02*
X0866217D01*
X0576000Y0539500D02*
X0578000Y0537500D01*
X0763000Y0579500D02*
X0772000D01*
X0787500Y0595000D01*
Y0603000D01*
X0793000Y0608500D01*
X0806500D01*
X0834000Y0581000D02*
X0866500D01*
Y0615000D01*
X0787000D02*
X0866500D01*
X0774500Y0602500D02*
X0787000Y0615000D01*
X0831000Y0581000D02*
X0834500D01*
X0806500Y0556500D02*
X0831000Y0581000D01*
D51*
X0823500Y0537500D02*
X0838490D01*
X0866217Y0581000D02*
Y0616261D01*
D60*
X0524000Y0557500D02*
G03*
X0524000Y0537500I0000000J-0010000D01*
G01*
X0876500D02*
G03*
X0876500Y0557500I0000000J0010000D01*
G01*
X0866500Y0562500D02*
G03*
X0871500Y0557500I0005000J0000000D01*
G01*
Y0619500D02*
G03*
X0866500Y0614500I0000000J-0005000D01*
G01*
X0876500Y0619500D02*
G03*
X0876500Y0639500I0000000J0010000D01*
G01*
X0524000D02*
G03*
X0524000Y0619500I0000000J-0010000D01*
G01*
X0534000Y0614500D02*
G03*
X0529000Y0619500I-0005000J0000000D01*
G01*
Y0557500D02*
G03*
X0534000Y0562500I0000000J0005000D01*
G01*
X0871500Y0557500D02*
X0876500D01*
X0871500Y0557500D02*
Y0557500D01*
X0866500Y0562500D02*
Y0614500D01*
X0871500Y0619500D02*
Y0619500D01*
Y0619500D02*
X0876500D01*
X0524000D02*
X0529000D01*
X0534000Y0614500D02*
X0534000D01*
Y0562500D02*
Y0614500D01*
X0529000Y0557500D02*
Y0557500D01*
X0524000D02*
X0529000D01*
X0524000Y0639500D02*
X0876500D01*
X0524000Y0537500D02*
X0876500D01*
D61*
Y0547500D02*
D03*
Y0629500D02*
D03*
X0524000D02*
D03*
Y0547500D02*
D03*
D62*
X0688000Y0629937D02*
D03*
Y0622063D02*
D03*
X0562500Y0579937D02*
D03*
Y0572063D02*
D03*
Y0555237D02*
D03*
Y0547363D02*
D03*
X0543000Y0578748D02*
D03*
Y0570874D02*
D03*
Y0563000D02*
D03*
D63*
X0665555Y0624500D02*
D03*
X0655713D02*
D03*
X0645870D02*
D03*
X0636028D02*
D03*
X0626185D02*
D03*
X0616342D02*
D03*
X0606500D02*
D03*
X0596658D02*
D03*
X0586815D02*
D03*
X0576972D02*
D03*
X0567130D02*
D03*
X0557287D02*
D03*
X0547445D02*
D03*
D64*
X0715500Y0627000D02*
D03*
X0701500Y0588000D02*
D03*
X0698500D02*
D03*
X0695500D02*
D03*
X0709500D02*
D03*
X0706500D02*
D03*
X0709500Y0591000D02*
D03*
X0706500D02*
D03*
X0695500D02*
D03*
X0698500D02*
D03*
X0701500D02*
D03*
X0727500Y0590500D02*
D03*
X0725000Y0599000D02*
D03*
X0735500Y0589500D02*
D03*
X0712000Y0595876D02*
D03*
X0712500Y0627000D02*
D03*
X0713905Y0611742D02*
D03*
X0825000Y0589500D02*
D03*
Y0592000D02*
D03*
Y0603000D02*
D03*
X0830000D02*
D03*
X0827500D02*
D03*
X0832500Y0610500D02*
D03*
X0830000Y0608000D02*
D03*
X0832500D02*
D03*
Y0605500D02*
D03*
X0830000D02*
D03*
X0827500D02*
D03*
X0832500Y0589500D02*
D03*
X0830000D02*
D03*
X0827500D02*
D03*
Y0592000D02*
D03*
X0832500Y0585000D02*
D03*
X0835000D02*
D03*
X0830000D02*
D03*
X0813000Y0552000D02*
D03*
X0808500Y0553000D02*
D03*
X0805500D02*
D03*
X0835500Y0637000D02*
D03*
X0833000D02*
D03*
X0830500D02*
D03*
X0828000D02*
D03*
X0825500D02*
D03*
X0823000D02*
D03*
X0820500D02*
D03*
X0818000D02*
D03*
X0815500D02*
D03*
X0813000D02*
D03*
Y0619500D02*
D03*
X0815500D02*
D03*
X0818000D02*
D03*
X0820500D02*
D03*
X0823000D02*
D03*
X0825500D02*
D03*
X0828000D02*
D03*
X0830500D02*
D03*
X0833000D02*
D03*
X0835500D02*
D03*
X0813000Y0622000D02*
D03*
X0815500D02*
D03*
X0818000D02*
D03*
X0820500D02*
D03*
X0823000D02*
D03*
X0825500D02*
D03*
X0828000D02*
D03*
X0830500D02*
D03*
X0833000D02*
D03*
X0835500D02*
D03*
X0813000Y0624500D02*
D03*
X0815500D02*
D03*
X0818000D02*
D03*
X0820500D02*
D03*
X0823000D02*
D03*
X0825500D02*
D03*
X0828000D02*
D03*
X0830500D02*
D03*
X0833000D02*
D03*
X0835500D02*
D03*
X0813000Y0627000D02*
D03*
X0815500D02*
D03*
X0818000D02*
D03*
X0820500D02*
D03*
X0823000D02*
D03*
X0825500D02*
D03*
X0828000D02*
D03*
X0830500D02*
D03*
X0833000D02*
D03*
X0835500D02*
D03*
X0813000Y0629500D02*
D03*
X0815500D02*
D03*
X0818000D02*
D03*
X0820500D02*
D03*
X0823000D02*
D03*
X0825500D02*
D03*
X0828000D02*
D03*
X0830500D02*
D03*
X0833000D02*
D03*
X0835500D02*
D03*
X0813000Y0632000D02*
D03*
X0815500D02*
D03*
X0818000D02*
D03*
X0820500D02*
D03*
X0823000D02*
D03*
X0825500D02*
D03*
X0828000D02*
D03*
X0830500D02*
D03*
X0833000D02*
D03*
X0835500D02*
D03*
Y0634500D02*
D03*
X0833000D02*
D03*
X0830500D02*
D03*
X0828000D02*
D03*
X0825500D02*
D03*
X0823000D02*
D03*
X0820500D02*
D03*
X0818000D02*
D03*
X0815500D02*
D03*
X0813000D02*
D03*
X0807000Y0617000D02*
D03*
X0786000Y0580500D02*
D03*
X0761000Y0564000D02*
D03*
Y0560500D02*
D03*
X0649000Y0558500D02*
D03*
X0586551Y0549500D02*
D03*
X0574500Y0559000D02*
D03*
X0572000Y0561000D02*
D03*
X0586500Y0562500D02*
D03*
Y0556000D02*
D03*
X0552000Y0589500D02*
D03*
X0760500Y0613000D02*
D03*
X0764000D02*
D03*
X0767500D02*
D03*
X0771000D02*
D03*
X0764000Y0584500D02*
D03*
X0747500Y0588000D02*
D03*
X0752000D02*
D03*
X0747000Y0597000D02*
D03*
X0777000Y0615000D02*
D03*
X0770500Y0550228D02*
D03*
X0837600Y0586833D02*
D03*
X0853500Y0581772D02*
D03*
X0777000Y0612000D02*
D03*
X0704000Y0617000D02*
D03*
X0646500Y0564000D02*
D03*
X0642500Y0568500D02*
D03*
X0645500D02*
D03*
X0621772Y0545000D02*
D03*
X0835500Y0542000D02*
D03*
Y0544500D02*
D03*
Y0547000D02*
D03*
Y0549500D02*
D03*
Y0552000D02*
D03*
X0820500D02*
D03*
Y0549500D02*
D03*
Y0547000D02*
D03*
Y0544500D02*
D03*
X0818000D02*
D03*
Y0547000D02*
D03*
Y0549500D02*
D03*
Y0552000D02*
D03*
X0815500D02*
D03*
Y0549500D02*
D03*
Y0547000D02*
D03*
Y0544500D02*
D03*
X0813000D02*
D03*
Y0547000D02*
D03*
Y0549500D02*
D03*
Y0542000D02*
D03*
X0815500D02*
D03*
X0818000D02*
D03*
X0820500D02*
D03*
X0833000Y0552000D02*
D03*
Y0549500D02*
D03*
Y0547000D02*
D03*
Y0544500D02*
D03*
X0830500D02*
D03*
Y0547000D02*
D03*
Y0549500D02*
D03*
Y0552000D02*
D03*
X0828000D02*
D03*
Y0549500D02*
D03*
Y0547000D02*
D03*
Y0544500D02*
D03*
X0825500D02*
D03*
Y0547000D02*
D03*
Y0552000D02*
D03*
X0823000D02*
D03*
Y0549500D02*
D03*
Y0547000D02*
D03*
Y0544500D02*
D03*
X0825500Y0549500D02*
D03*
X0823000Y0542000D02*
D03*
X0825500D02*
D03*
X0828000D02*
D03*
X0830500D02*
D03*
X0833000D02*
D03*
X0786500Y0584500D02*
D03*
X0586500Y0543000D02*
D03*
X0598500Y0579000D02*
D03*
X0586000Y0590000D02*
D03*
X0538728Y0593500D02*
D03*
X0538110Y0597000D02*
D03*
X0643500Y0610272D02*
D03*
X0631000D02*
D03*
X0666000Y0598500D02*
D03*
X0653500D02*
D03*
X0641000D02*
D03*
X0669000D02*
D03*
X0656500D02*
D03*
X0644000D02*
D03*
X0668500Y0610272D02*
D03*
X0656000D02*
D03*
X0588000Y0603000D02*
D03*
X0675500D02*
D03*
X0663000D02*
D03*
X0650500D02*
D03*
X0638000D02*
D03*
X0625500D02*
D03*
X0613000D02*
D03*
X0600500D02*
D03*
X0575500D02*
D03*
X0563000D02*
D03*
X0550500D02*
D03*
X0538000D02*
D03*
X0618500Y0610272D02*
D03*
X0606000D02*
D03*
X0593500D02*
D03*
X0581000D02*
D03*
X0568500D02*
D03*
X0556000D02*
D03*
X0543500D02*
D03*
X0628500Y0598500D02*
D03*
X0616000D02*
D03*
X0603500D02*
D03*
X0591000D02*
D03*
X0578500D02*
D03*
X0566000D02*
D03*
X0553500D02*
D03*
X0541000D02*
D03*
X0631500D02*
D03*
X0619000D02*
D03*
X0606500D02*
D03*
X0594000D02*
D03*
X0581500D02*
D03*
X0569000D02*
D03*
X0556500D02*
D03*
X0544000D02*
D03*
X0723000Y0623500D02*
D03*
X0555000Y0555500D02*
D03*
X0745000Y0601500D02*
D03*
X0738000Y0600000D02*
D03*
X0747500Y0601500D02*
D03*
X0753000Y0605500D02*
D03*
Y0608500D02*
D03*
Y0611500D02*
D03*
X0723114Y0573500D02*
D03*
Y0577000D02*
D03*
X0628500Y0559000D02*
D03*
X0616272Y0562500D02*
D03*
X0617000Y0559000D02*
D03*
X0802000Y0593000D02*
D03*
X0799000D02*
D03*
X0796000D02*
D03*
Y0596000D02*
D03*
X0793000Y0599000D02*
D03*
X0790000D02*
D03*
X0793000Y0590000D02*
D03*
X0790000D02*
D03*
X0793000Y0593000D02*
D03*
X0790000D02*
D03*
X0620047Y0555451D02*
D03*
X0637387Y0565613D02*
D03*
X0722114Y0610000D02*
D03*
X0716000Y0596000D02*
D03*
X0714000Y0593500D02*
D03*
X0704000Y0602000D02*
D03*
X0701000D02*
D03*
X0709600D02*
D03*
X0712500D02*
D03*
X0793000Y0613000D02*
D03*
X0788500Y0611500D02*
D03*
X0720000Y0621500D02*
D03*
X0793000Y0596000D02*
D03*
X0790000D02*
D03*
X0781000D02*
D03*
X0784000D02*
D03*
X0744000Y0597000D02*
D03*
X0741000D02*
D03*
X0738000D02*
D03*
X0741000Y0600000D02*
D03*
X0731000Y0603000D02*
D03*
X0707000Y0602000D02*
D03*
X0731000Y0613500D02*
D03*
X0714114Y0598500D02*
D03*
X0717500Y0619000D02*
D03*
X0722000Y0616000D02*
D03*
X0719000D02*
D03*
X0693500Y0601500D02*
D03*
X0724500Y0613500D02*
D03*
X0613000Y0570500D02*
D03*
X0626968Y0562500D02*
D03*
X0633272Y0565500D02*
D03*
X0735000Y0599500D02*
D03*
X0586000Y0586500D02*
D03*
X0670500Y0564000D02*
D03*
X0722500Y0630500D02*
D03*
X0723000Y0621000D02*
D03*
X0789000Y0551500D02*
D03*
X0792000D02*
D03*
X0795000D02*
D03*
Y0548500D02*
D03*
X0792000D02*
D03*
X0789000D02*
D03*
X0853000Y0632000D02*
D03*
X0850500D02*
D03*
Y0629500D02*
D03*
X0853000D02*
D03*
X0855500D02*
D03*
Y0632000D02*
D03*
Y0634500D02*
D03*
X0853000D02*
D03*
X0850500D02*
D03*
X0802000Y0589988D02*
D03*
X0790000Y0602000D02*
D03*
X0699272Y0633000D02*
D03*
X0793000Y0615500D02*
D03*
X0801000Y0617000D02*
D03*
X0804000D02*
D03*
X0786000Y0574500D02*
D03*
Y0568500D02*
D03*
Y0577500D02*
D03*
Y0571500D02*
D03*
Y0565500D02*
D03*
X0789000Y0580500D02*
D03*
X0792000D02*
D03*
Y0577500D02*
D03*
X0789000D02*
D03*
Y0574500D02*
D03*
X0792000D02*
D03*
Y0571500D02*
D03*
X0789000D02*
D03*
Y0568500D02*
D03*
X0792000D02*
D03*
X0795000D02*
D03*
Y0565500D02*
D03*
X0792000D02*
D03*
X0789000D02*
D03*
X0799500Y0583000D02*
D03*
X0734500Y0573500D02*
D03*
X0649500Y0543000D02*
D03*
X0618500Y0544968D02*
D03*
X0574500Y0552500D02*
D03*
X0575000Y0580000D02*
D03*
X0694031Y0617000D02*
D03*
X0694500Y0614000D02*
D03*
X0701000Y0626000D02*
D03*
X0698500Y0622000D02*
D03*
X0703000D02*
D03*
X0658000Y0581500D02*
D03*
X0663500Y0584000D02*
D03*
X0668500Y0589000D02*
D03*
X0666000Y0586500D02*
D03*
X0661000Y0581500D02*
D03*
X0678500Y0575500D02*
D03*
X0674000D02*
D03*
X0671000D02*
D03*
X0668000D02*
D03*
X0670500Y0567000D02*
D03*
X0673500Y0564000D02*
D03*
Y0567000D02*
D03*
X0676500Y0564000D02*
D03*
X0670500Y0557000D02*
D03*
X0673500D02*
D03*
X0670500Y0554000D02*
D03*
X0673500D02*
D03*
X0676500Y0557000D02*
D03*
X0664500Y0544000D02*
D03*
X0667500D02*
D03*
X0670500D02*
D03*
X0673500D02*
D03*
Y0547000D02*
D03*
X0670500D02*
D03*
X0667500D02*
D03*
X0664500D02*
D03*
X0682500Y0554000D02*
D03*
Y0557000D02*
D03*
X0685500D02*
D03*
Y0554000D02*
D03*
X0681000Y0610272D02*
D03*
X0678000Y0598500D02*
D03*
X0681000D02*
D03*
X0676500Y0571500D02*
D03*
Y0567000D02*
D03*
X0680673Y0577600D02*
D03*
X0638886Y0541401D02*
D03*
X0615000Y0543000D02*
D03*
Y0546000D02*
D03*
X0612000Y0543000D02*
D03*
D65*
X0751415Y0626500D02*
D03*
M02*
