G04 Layer_Color=8388736*
%FSAX25Y25*%
%MOIN*%
G70*
G01*
G75*
%ADD21R,0.18307X0.16339*%
%ADD22R,0.04528X0.05709*%
%ADD54C,0.07480*%
%ADD57C,0.12205*%
%ADD99R,0.04498X0.02195*%
%ADD100R,0.03592X0.02195*%
%ADD101R,0.04143X0.07293*%
%ADD102R,0.02805X0.05301*%
%ADD103R,0.04104X0.10206*%
%ADD104R,0.22647X0.10206*%
%ADD105R,0.02000X0.06200*%
%ADD106R,0.07700X0.08100*%
%ADD107R,0.08100X0.08100*%
%ADD108O,0.01584X0.08080*%
%ADD109R,0.03750X0.08789*%
%ADD110R,0.03356X0.01781*%
%ADD111R,0.04537X0.03159*%
%ADD112R,0.12900X0.14379*%
%ADD113R,0.03800X0.04200*%
%ADD114R,0.04931X0.05403*%
G04:AMPARAMS|DCode=115|XSize=88.68mil|YSize=234.35mil|CornerRadius=44.34mil|HoleSize=0mil|Usage=FLASHONLY|Rotation=270.000|XOffset=0mil|YOffset=0mil|HoleType=Round|Shape=RoundedRectangle|*
%AMROUNDEDRECTD115*
21,1,0.08868,0.14567,0,0,270.0*
21,1,0.00000,0.23435,0,0,270.0*
1,1,0.08868,-0.07284,0.00000*
1,1,0.08868,-0.07284,0.00000*
1,1,0.08868,0.07284,0.00000*
1,1,0.08868,0.07284,0.00000*
%
%ADD115ROUNDEDRECTD115*%
%ADD116R,0.07096X0.05324*%
%ADD117O,0.01781X0.06112*%
%ADD118R,0.03356X0.03750*%
%ADD119R,0.04537X0.13198*%
%ADD120R,0.04340X0.10836*%
%ADD121R,0.04340X0.10443*%
%ADD122R,0.10836X0.04340*%
%ADD123R,0.10443X0.04340*%
%ADD124R,0.04340X0.07293*%
%ADD125R,0.02569X0.02647*%
%ADD126R,0.02647X0.02569*%
%ADD127R,0.02765X0.02372*%
%ADD128R,0.02372X0.02765*%
%ADD129R,0.07293X0.04143*%
%ADD130R,0.05403X0.04931*%
%ADD131R,0.02569X0.02372*%
%ADD132R,0.03750X0.03356*%
%ADD133R,0.04143X0.03356*%
%ADD134R,0.02402X0.04567*%
%ADD135R,0.07293X0.09261*%
%ADD136R,0.16600X0.13100*%
%ADD137C,0.07490*%
%ADD138C,0.06900*%
%ADD139C,0.01200*%
G36*
X0836547Y0555297D02*
X0836593Y0555286D01*
X0836637Y0555268D01*
X0836677Y0555243D01*
X0836713Y0555213D01*
X0836744Y0555177D01*
X0836768Y0555137D01*
X0836786Y0555093D01*
X0836797Y0555047D01*
X0836801Y0555000D01*
Y0539000D01*
X0836797Y0538953D01*
X0836786Y0538907D01*
X0836768Y0538863D01*
X0836744Y0538823D01*
X0836713Y0538787D01*
X0836677Y0538757D01*
X0836637Y0538732D01*
X0836593Y0538714D01*
X0836547Y0538703D01*
X0836500Y0538699D01*
X0812000D01*
X0811953Y0538703D01*
X0811907Y0538714D01*
X0811863Y0538732D01*
X0811823Y0538757D01*
X0811787Y0538787D01*
X0811757Y0538823D01*
X0811732Y0538863D01*
X0811714Y0538907D01*
X0811703Y0538953D01*
X0811699Y0539000D01*
Y0555000D01*
X0811703Y0555047D01*
X0811714Y0555093D01*
X0811732Y0555137D01*
X0811757Y0555177D01*
X0811787Y0555213D01*
X0811823Y0555243D01*
X0811863Y0555268D01*
X0811907Y0555286D01*
X0811953Y0555297D01*
X0812000Y0555301D01*
X0836500D01*
X0836547Y0555297D01*
D02*
G37*
G36*
X0863547D02*
X0863593Y0555286D01*
X0863637Y0555268D01*
X0863677Y0555243D01*
X0863713Y0555213D01*
X0863743Y0555177D01*
X0863768Y0555137D01*
X0863786Y0555093D01*
X0863797Y0555047D01*
X0863801Y0555000D01*
Y0539000D01*
X0863797Y0538953D01*
X0863786Y0538907D01*
X0863768Y0538863D01*
X0863743Y0538823D01*
X0863713Y0538787D01*
X0863677Y0538757D01*
X0863637Y0538732D01*
X0863593Y0538714D01*
X0863547Y0538703D01*
X0863500Y0538699D01*
X0839000D01*
X0838953Y0538703D01*
X0838907Y0538714D01*
X0838863Y0538732D01*
X0838823Y0538757D01*
X0838787Y0538787D01*
X0838756Y0538823D01*
X0838732Y0538863D01*
X0838714Y0538907D01*
X0838703Y0538953D01*
X0838699Y0539000D01*
Y0555000D01*
X0838703Y0555047D01*
X0838714Y0555093D01*
X0838732Y0555137D01*
X0838756Y0555177D01*
X0838787Y0555213D01*
X0838823Y0555243D01*
X0838863Y0555268D01*
X0838907Y0555286D01*
X0838953Y0555297D01*
X0839000Y0555301D01*
X0863500D01*
X0863547Y0555297D01*
D02*
G37*
G36*
X0674547Y0553797D02*
X0674593Y0553786D01*
X0674637Y0553768D01*
X0674677Y0553744D01*
X0674713Y0553713D01*
X0674744Y0553677D01*
X0674768Y0553637D01*
X0674786Y0553593D01*
X0674797Y0553547D01*
X0674801Y0553500D01*
Y0539000D01*
X0674797Y0538953D01*
X0674786Y0538907D01*
X0674768Y0538863D01*
X0674744Y0538823D01*
X0674713Y0538787D01*
X0674677Y0538757D01*
X0674637Y0538732D01*
X0674593Y0538714D01*
X0674547Y0538703D01*
X0674500Y0538699D01*
X0661500D01*
X0661453Y0538703D01*
X0661407Y0538714D01*
X0661363Y0538732D01*
X0661323Y0538757D01*
X0661287Y0538787D01*
X0661257Y0538823D01*
X0661232Y0538863D01*
X0661214Y0538907D01*
X0661203Y0538953D01*
X0661199Y0539000D01*
Y0553500D01*
X0661203Y0553547D01*
X0661214Y0553593D01*
X0661232Y0553637D01*
X0661257Y0553677D01*
X0661287Y0553713D01*
X0661323Y0553744D01*
X0661363Y0553768D01*
X0661407Y0553786D01*
X0661453Y0553797D01*
X0661500Y0553801D01*
X0674500D01*
X0674547Y0553797D01*
D02*
G37*
G36*
X0689547D02*
X0689593Y0553786D01*
X0689637Y0553768D01*
X0689677Y0553744D01*
X0689713Y0553713D01*
X0689744Y0553677D01*
X0689768Y0553637D01*
X0689786Y0553593D01*
X0689797Y0553547D01*
X0689801Y0553500D01*
Y0539000D01*
X0689797Y0538953D01*
X0689786Y0538907D01*
X0689768Y0538863D01*
X0689744Y0538823D01*
X0689713Y0538787D01*
X0689677Y0538757D01*
X0689637Y0538732D01*
X0689593Y0538714D01*
X0689547Y0538703D01*
X0689500Y0538699D01*
X0676500D01*
X0676453Y0538703D01*
X0676407Y0538714D01*
X0676363Y0538732D01*
X0676323Y0538757D01*
X0676287Y0538787D01*
X0676257Y0538823D01*
X0676232Y0538863D01*
X0676214Y0538907D01*
X0676203Y0538953D01*
X0676199Y0539000D01*
Y0553500D01*
X0676203Y0553547D01*
X0676214Y0553593D01*
X0676232Y0553637D01*
X0676257Y0553677D01*
X0676287Y0553713D01*
X0676323Y0553744D01*
X0676363Y0553768D01*
X0676407Y0553786D01*
X0676453Y0553797D01*
X0676500Y0553801D01*
X0689500D01*
X0689547Y0553797D01*
D02*
G37*
G36*
X0836547Y0638297D02*
X0836593Y0638286D01*
X0836637Y0638268D01*
X0836677Y0638243D01*
X0836713Y0638213D01*
X0836744Y0638177D01*
X0836768Y0638137D01*
X0836786Y0638093D01*
X0836797Y0638047D01*
X0836801Y0638000D01*
X0836801Y0619000D01*
X0836797Y0618953D01*
X0836786Y0618907D01*
X0836768Y0618863D01*
X0836743Y0618823D01*
X0836713Y0618787D01*
X0836677Y0618756D01*
X0836637Y0618732D01*
X0836593Y0618714D01*
X0836547Y0618703D01*
X0836500Y0618699D01*
X0812000D01*
X0811953Y0618703D01*
X0811907Y0618714D01*
X0811863Y0618732D01*
X0811823Y0618756D01*
X0811787Y0618787D01*
X0811757Y0618823D01*
X0811732Y0618863D01*
X0811714Y0618907D01*
X0811703Y0618953D01*
X0811699Y0619000D01*
X0811699Y0638000D01*
X0811703Y0638047D01*
X0811714Y0638093D01*
X0811732Y0638137D01*
X0811757Y0638177D01*
X0811787Y0638213D01*
X0811823Y0638243D01*
X0811863Y0638268D01*
X0811907Y0638286D01*
X0811953Y0638297D01*
X0812000Y0638301D01*
X0836500D01*
X0836547Y0638297D01*
D02*
G37*
G36*
X0863547Y0638297D02*
X0863593Y0638286D01*
X0863637Y0638268D01*
X0863677Y0638243D01*
X0863713Y0638213D01*
X0863743Y0638177D01*
X0863768Y0638137D01*
X0863786Y0638093D01*
X0863797Y0638047D01*
X0863801Y0638000D01*
Y0619000D01*
X0863797Y0618953D01*
X0863786Y0618907D01*
X0863768Y0618863D01*
X0863743Y0618823D01*
X0863713Y0618787D01*
X0863677Y0618756D01*
X0863637Y0618732D01*
X0863593Y0618714D01*
X0863547Y0618703D01*
X0863500Y0618699D01*
X0839000D01*
X0838953Y0618703D01*
X0838907Y0618714D01*
X0838863Y0618732D01*
X0838823Y0618756D01*
X0838787Y0618787D01*
X0838756Y0618823D01*
X0838732Y0618863D01*
X0838714Y0618907D01*
X0838703Y0618953D01*
X0838699Y0619000D01*
Y0638000D01*
X0838703Y0638047D01*
X0838714Y0638093D01*
X0838732Y0638137D01*
X0838756Y0638177D01*
X0838787Y0638213D01*
X0838823Y0638243D01*
X0838863Y0638268D01*
X0838907Y0638286D01*
X0838953Y0638297D01*
X0839000Y0638301D01*
X0863500D01*
X0863547Y0638297D01*
D02*
G37*
G36*
X0777928Y0595757D02*
X0777964Y0595754D01*
X0778010Y0595743D01*
X0778010Y0595743D01*
X0778010D01*
X0778054Y0595725D01*
X0778087Y0595704D01*
X0778094Y0595700D01*
X0778094Y0595700D01*
X0778094Y0595700D01*
X0778118Y0595680D01*
X0778130Y0595670D01*
X0778130Y0595670D01*
X0778130Y0595670D01*
X0778140Y0595657D01*
X0778160Y0595634D01*
X0778160Y0595634D01*
X0778160Y0595634D01*
X0778164Y0595627D01*
X0778185Y0595593D01*
X0778203Y0595550D01*
Y0595550D01*
X0778203Y0595550D01*
X0778214Y0595504D01*
X0778217Y0595468D01*
X0778218Y0595457D01*
X0778218Y0591126D01*
X0778218Y0591125D01*
X0778218Y0591125D01*
X0778218Y0590738D01*
X0778218Y0590732D01*
X0778218Y0590726D01*
X0778216Y0590708D01*
X0778215Y0590691D01*
X0778213Y0590685D01*
X0778213Y0590679D01*
X0778061Y0589918D01*
X0778059Y0589913D01*
X0778059Y0589907D01*
X0778053Y0589890D01*
X0778048Y0589873D01*
X0778046Y0589867D01*
X0778044Y0589862D01*
X0777747Y0589146D01*
X0777744Y0589140D01*
X0777742Y0589135D01*
X0777734Y0589119D01*
X0777726Y0589103D01*
X0777722Y0589099D01*
X0777719Y0589093D01*
X0777288Y0588449D01*
X0777285Y0588444D01*
X0777282Y0588439D01*
X0777270Y0588426D01*
X0777259Y0588412D01*
X0777255Y0588408D01*
X0777251Y0588403D01*
X0776702Y0587855D01*
X0776698Y0587851D01*
X0776694Y0587847D01*
X0776680Y0587836D01*
X0776667Y0587824D01*
X0776661Y0587821D01*
X0776657Y0587817D01*
X0776012Y0587387D01*
X0776007Y0587384D01*
X0776002Y0587380D01*
X0775986Y0587372D01*
X0775971Y0587364D01*
X0775965Y0587361D01*
X0775960Y0587359D01*
X0775244Y0587062D01*
X0775238Y0587060D01*
X0775233Y0587058D01*
X0775215Y0587053D01*
X0775199Y0587047D01*
X0775193Y0587047D01*
X0775187Y0587045D01*
X0774427Y0586894D01*
X0774421Y0586893D01*
X0774415Y0586892D01*
X0774397Y0586890D01*
X0774380Y0586888D01*
X0774374Y0586888D01*
X0774368Y0586888D01*
X0773980D01*
X0759020Y0586888D01*
X0759019Y0586888D01*
X0758632Y0586888D01*
X0758626Y0586888D01*
X0758620Y0586888D01*
X0758603Y0586890D01*
X0758585Y0586892D01*
X0758579Y0586893D01*
X0758573Y0586894D01*
X0757813Y0587045D01*
X0757807Y0587047D01*
X0757801Y0587048D01*
X0757784Y0587053D01*
X0757767Y0587058D01*
X0757762Y0587060D01*
X0757756Y0587062D01*
X0757040Y0587359D01*
X0757034Y0587362D01*
X0757029Y0587364D01*
X0757014Y0587372D01*
X0756998Y0587381D01*
X0756993Y0587384D01*
X0756988Y0587387D01*
X0756343Y0587818D01*
X0756338Y0587821D01*
X0756333Y0587824D01*
X0756320Y0587836D01*
X0756306Y0587847D01*
X0756302Y0587851D01*
X0756297Y0587855D01*
X0755749Y0588404D01*
X0755745Y0588408D01*
X0755741Y0588412D01*
X0755730Y0588426D01*
X0755718Y0588439D01*
X0755715Y0588444D01*
X0755712Y0588449D01*
X0755281Y0589094D01*
X0755278Y0589099D01*
X0755274Y0589104D01*
X0755266Y0589120D01*
X0755258Y0589135D01*
X0755255Y0589141D01*
X0755253Y0589146D01*
X0754956Y0589862D01*
X0754954Y0589868D01*
X0754952Y0589873D01*
X0754947Y0589890D01*
X0754941Y0589907D01*
X0754940Y0589913D01*
X0754939Y0589919D01*
X0754787Y0590680D01*
X0754787Y0590685D01*
X0754785Y0590691D01*
X0754784Y0590709D01*
X0754782Y0590726D01*
X0754782Y0590732D01*
X0754782Y0590738D01*
X0754782Y0591126D01*
D01*
Y0591126D01*
X0754781Y0595457D01*
Y0595457D01*
D01*
X0754785Y0595504D01*
X0754796Y0595550D01*
X0754814Y0595593D01*
X0754829Y0595618D01*
X0754839Y0595634D01*
X0754870Y0595670D01*
X0754870D01*
Y0595670D01*
X0754906Y0595700D01*
X0754921Y0595710D01*
X0754946Y0595725D01*
X0754989Y0595743D01*
X0755035Y0595754D01*
X0755082Y0595758D01*
X0755082D01*
D01*
X0777917D01*
X0777928Y0595757D01*
D02*
G37*
G36*
X0773981Y0611112D02*
D01*
X0773981D01*
X0774368Y0611112D01*
X0774374Y0611111D01*
X0774380Y0611112D01*
X0774398Y0611109D01*
X0774415Y0611108D01*
X0774421Y0611107D01*
X0774427Y0611106D01*
X0775187Y0610955D01*
X0775193Y0610953D01*
X0775199Y0610952D01*
X0775216Y0610947D01*
X0775233Y0610942D01*
X0775238Y0610939D01*
X0775244Y0610938D01*
X0775960Y0610641D01*
X0775966Y0610638D01*
X0775971Y0610636D01*
X0775987Y0610627D01*
X0776002Y0610619D01*
X0776007Y0610616D01*
X0776012Y0610613D01*
X0776657Y0610182D01*
X0776662Y0610179D01*
X0776667Y0610175D01*
X0776680Y0610164D01*
X0776694Y0610153D01*
X0776698Y0610149D01*
X0776703Y0610145D01*
X0777251Y0609596D01*
X0777255Y0609592D01*
X0777259Y0609588D01*
X0777270Y0609574D01*
X0777282Y0609560D01*
X0777285Y0609555D01*
X0777288Y0609551D01*
X0777719Y0608906D01*
X0777722Y0608901D01*
X0777726Y0608896D01*
X0777734Y0608880D01*
X0777742Y0608865D01*
X0777744Y0608859D01*
X0777747Y0608854D01*
X0778044Y0608138D01*
X0778046Y0608132D01*
X0778048Y0608127D01*
X0778053Y0608110D01*
X0778058Y0608093D01*
X0778059Y0608087D01*
X0778061Y0608081D01*
X0778212Y0607321D01*
X0778213Y0607315D01*
X0778214Y0607309D01*
X0778216Y0607291D01*
X0778218Y0607274D01*
X0778218Y0607268D01*
X0778218Y0607262D01*
Y0606877D01*
X0778218Y0606877D01*
X0778218Y0606876D01*
Y0606875D01*
X0778218Y0606874D01*
X0778218Y0602543D01*
X0778214Y0602496D01*
X0778203Y0602450D01*
X0778185Y0602407D01*
X0778161Y0602366D01*
X0778130Y0602330D01*
X0778094Y0602300D01*
X0778054Y0602275D01*
X0778010Y0602257D01*
X0777964Y0602246D01*
X0777917Y0602242D01*
X0755083D01*
X0755083D01*
D01*
X0755036Y0602246D01*
X0754990Y0602257D01*
X0754972Y0602265D01*
X0754946Y0602275D01*
X0754906Y0602300D01*
X0754870Y0602330D01*
Y0602330D01*
X0754870D01*
X0754839Y0602366D01*
X0754814Y0602407D01*
X0754804Y0602432D01*
X0754797Y0602450D01*
X0754785Y0602496D01*
X0754782Y0602543D01*
Y0602543D01*
D01*
X0754782Y0606874D01*
X0754782Y0607262D01*
X0754782Y0607268D01*
X0754782Y0607273D01*
X0754784Y0607291D01*
X0754786Y0607309D01*
X0754787Y0607314D01*
X0754788Y0607320D01*
X0754939Y0608081D01*
X0754941Y0608087D01*
X0754942Y0608092D01*
X0754947Y0608109D01*
X0754952Y0608126D01*
X0754954Y0608132D01*
X0754956Y0608137D01*
X0755253Y0608854D01*
X0755256Y0608859D01*
X0755258Y0608865D01*
X0755266Y0608880D01*
X0755274Y0608896D01*
X0755278Y0608901D01*
X0755281Y0608906D01*
X0755711Y0609551D01*
X0755715Y0609555D01*
X0755718Y0609560D01*
X0755730Y0609574D01*
X0755741Y0609588D01*
X0755745Y0609592D01*
X0755749Y0609596D01*
X0756297Y0610145D01*
X0756302Y0610148D01*
X0756306Y0610153D01*
X0756320Y0610164D01*
X0756333Y0610175D01*
X0756338Y0610179D01*
X0756343Y0610182D01*
X0756988Y0610613D01*
X0756993Y0610616D01*
X0756997Y0610619D01*
X0757013Y0610627D01*
X0757029Y0610636D01*
X0757034Y0610638D01*
X0757040Y0610641D01*
X0757756Y0610938D01*
X0757762Y0610939D01*
X0757767Y0610942D01*
X0757784Y0610947D01*
X0757801Y0610952D01*
X0757807Y0610953D01*
X0757812Y0610955D01*
X0758573Y0611106D01*
X0758579Y0611107D01*
X0758585Y0611108D01*
X0758602Y0611110D01*
X0758620Y0611112D01*
X0758626Y0611111D01*
X0758632Y0611112D01*
X0759019Y0611112D01*
X0759020Y0611112D01*
X0773981Y0611112D01*
D02*
G37*
D21*
X0757437Y0549000D02*
D03*
D22*
X0742673Y0552878D02*
D03*
Y0545122D02*
D03*
D54*
X0751415Y0626500D02*
D03*
D57*
X0524000Y0547500D02*
D03*
Y0629500D02*
D03*
X0876500D02*
D03*
Y0547500D02*
D03*
D99*
X0827650Y0571202D02*
D03*
Y0573801D02*
D03*
Y0576399D02*
D03*
Y0578998D02*
D03*
D100*
X0815898Y0571202D02*
D03*
Y0573801D02*
D03*
Y0576399D02*
D03*
Y0578998D02*
D03*
D101*
X0848709Y0559500D02*
D03*
X0837291D02*
D03*
Y0567000D02*
D03*
X0848709D02*
D03*
D102*
X0756900Y0581951D02*
D03*
X0751900D02*
D03*
X0746900D02*
D03*
X0741900D02*
D03*
X0756900Y0562049D02*
D03*
X0751900D02*
D03*
X0746900D02*
D03*
X0741900D02*
D03*
D103*
X0836524Y0612764D02*
D03*
Y0593236D02*
D03*
D104*
X0852804D02*
D03*
Y0612764D02*
D03*
D105*
X0722618Y0621500D02*
D03*
X0712300D02*
D03*
X0720059D02*
D03*
X0717500D02*
D03*
X0714900D02*
D03*
D106*
X0733248Y0632000D02*
D03*
X0701700D02*
D03*
D107*
X0722500D02*
D03*
X0712500D02*
D03*
D108*
X0602331Y0551213D02*
D03*
X0604299D02*
D03*
X0606268D02*
D03*
X0608236D02*
D03*
X0610205D02*
D03*
X0612173D02*
D03*
X0614142D02*
D03*
X0616110D02*
D03*
X0618079D02*
D03*
X0620047D02*
D03*
X0622016D02*
D03*
X0623984D02*
D03*
X0625953D02*
D03*
X0627921D02*
D03*
X0629890D02*
D03*
X0631858D02*
D03*
X0633827D02*
D03*
X0635795D02*
D03*
X0637764D02*
D03*
X0639732D02*
D03*
X0641701D02*
D03*
X0643669D02*
D03*
X0602331Y0577787D02*
D03*
X0604299D02*
D03*
X0606268D02*
D03*
X0608236D02*
D03*
X0610205D02*
D03*
X0612173D02*
D03*
X0614142D02*
D03*
X0616110D02*
D03*
X0618079D02*
D03*
X0620047D02*
D03*
X0622016D02*
D03*
X0623984D02*
D03*
X0625953D02*
D03*
X0627921D02*
D03*
X0629890D02*
D03*
X0631858D02*
D03*
X0633827D02*
D03*
X0635795D02*
D03*
X0637764D02*
D03*
X0639732D02*
D03*
X0641701D02*
D03*
X0643669D02*
D03*
D109*
X0785000Y0607000D02*
D03*
D110*
X0788898Y0603063D02*
D03*
X0781102D02*
D03*
Y0605031D02*
D03*
Y0607000D02*
D03*
Y0608968D02*
D03*
Y0610937D02*
D03*
X0788898D02*
D03*
Y0608968D02*
D03*
Y0607000D02*
D03*
Y0605031D02*
D03*
D111*
X0718429Y0611134D02*
D03*
Y0602866D02*
D03*
X0734571Y0611134D02*
D03*
Y0602866D02*
D03*
X0713571D02*
D03*
Y0611134D02*
D03*
X0697429Y0602866D02*
D03*
Y0611134D02*
D03*
D112*
X0732100Y0560500D02*
D03*
X0696900D02*
D03*
D113*
X0812760Y0584363D02*
D03*
X0820300D02*
D03*
X0816500Y0592700D02*
D03*
X0832940Y0566237D02*
D03*
X0825400D02*
D03*
X0829200Y0557900D02*
D03*
D114*
X0751512Y0601000D02*
D03*
X0740488D02*
D03*
Y0593000D02*
D03*
X0751512D02*
D03*
D115*
X0766500Y0606677D02*
D03*
Y0591323D02*
D03*
D116*
X0654000Y0559799D02*
D03*
Y0547201D02*
D03*
D117*
X0830937Y0614358D02*
D03*
X0828969D02*
D03*
X0827000D02*
D03*
X0825031D02*
D03*
X0823063D02*
D03*
X0830937Y0596642D02*
D03*
X0828969D02*
D03*
X0827000D02*
D03*
X0825031D02*
D03*
X0823063D02*
D03*
D118*
X0580350Y0556000D02*
D03*
X0586650D02*
D03*
X0580350Y0549500D02*
D03*
X0586650D02*
D03*
X0580350Y0543000D02*
D03*
X0586650D02*
D03*
X0580350Y0562500D02*
D03*
X0586650D02*
D03*
D119*
X0789500Y0546146D02*
D03*
Y0576854D02*
D03*
D120*
X0792512Y0593000D02*
D03*
D121*
X0781488D02*
D03*
D122*
X0801000Y0589988D02*
D03*
D123*
Y0601012D02*
D03*
D124*
X0674488Y0569000D02*
D03*
X0685512D02*
D03*
X0674488Y0560500D02*
D03*
X0685512D02*
D03*
D125*
X0823886Y0584000D02*
D03*
X0827114D02*
D03*
X0714114Y0598500D02*
D03*
X0710886D02*
D03*
X0784614Y0615500D02*
D03*
X0781386D02*
D03*
X0684039Y0602000D02*
D03*
X0680811D02*
D03*
X0671539D02*
D03*
X0668311D02*
D03*
X0659039D02*
D03*
X0655811D02*
D03*
X0646539D02*
D03*
X0643311D02*
D03*
X0634039D02*
D03*
X0630811D02*
D03*
X0621539D02*
D03*
X0618311D02*
D03*
X0609039D02*
D03*
X0605811D02*
D03*
X0596539D02*
D03*
X0593311D02*
D03*
X0584039D02*
D03*
X0580811D02*
D03*
X0571614D02*
D03*
X0568386D02*
D03*
X0559114D02*
D03*
X0555886D02*
D03*
X0546614D02*
D03*
X0543386D02*
D03*
D126*
X0848500Y0578386D02*
D03*
Y0581614D02*
D03*
X0812500Y0577386D02*
D03*
Y0580614D02*
D03*
X0732500Y0590114D02*
D03*
Y0586886D02*
D03*
X0818500Y0598886D02*
D03*
Y0602114D02*
D03*
X0621500Y0544614D02*
D03*
Y0541386D02*
D03*
X0624500Y0544614D02*
D03*
Y0541386D02*
D03*
X0652000Y0573114D02*
D03*
Y0569886D02*
D03*
X0618500Y0544614D02*
D03*
Y0541386D02*
D03*
X0793000Y0613114D02*
D03*
Y0609886D02*
D03*
D127*
X0821000Y0556928D02*
D03*
Y0560472D02*
D03*
X0853500Y0581772D02*
D03*
Y0578228D02*
D03*
X0732500Y0597272D02*
D03*
Y0593728D02*
D03*
X0631886Y0544944D02*
D03*
Y0541401D02*
D03*
X0628386Y0544944D02*
D03*
Y0541401D02*
D03*
X0635389Y0544944D02*
D03*
Y0541401D02*
D03*
X0656000Y0573272D02*
D03*
Y0569728D02*
D03*
X0645860Y0541401D02*
D03*
Y0544944D02*
D03*
X0642386Y0541401D02*
D03*
Y0544944D02*
D03*
X0638886Y0541401D02*
D03*
Y0544944D02*
D03*
X0684500Y0610272D02*
D03*
Y0606728D02*
D03*
X0672000Y0610272D02*
D03*
Y0606728D02*
D03*
X0659500Y0610272D02*
D03*
Y0606728D02*
D03*
X0647000Y0610272D02*
D03*
Y0606728D02*
D03*
X0634500Y0610272D02*
D03*
Y0606728D02*
D03*
X0622000Y0610272D02*
D03*
Y0606728D02*
D03*
X0609500Y0610272D02*
D03*
Y0606728D02*
D03*
X0597000Y0610272D02*
D03*
Y0606728D02*
D03*
X0584500Y0610272D02*
D03*
Y0606728D02*
D03*
X0572000Y0610272D02*
D03*
Y0606728D02*
D03*
X0559500Y0610272D02*
D03*
Y0606728D02*
D03*
X0547000Y0610272D02*
D03*
Y0606728D02*
D03*
X0543500Y0610272D02*
D03*
Y0606728D02*
D03*
X0556000Y0610272D02*
D03*
Y0606728D02*
D03*
X0568500Y0610272D02*
D03*
Y0606728D02*
D03*
X0581000Y0610272D02*
D03*
Y0606728D02*
D03*
X0593500Y0610272D02*
D03*
Y0606728D02*
D03*
X0606000Y0610272D02*
D03*
Y0606728D02*
D03*
X0618500Y0610272D02*
D03*
Y0606728D02*
D03*
X0631000Y0610272D02*
D03*
Y0606728D02*
D03*
X0643500Y0610272D02*
D03*
Y0606728D02*
D03*
X0656000Y0610272D02*
D03*
Y0606728D02*
D03*
X0668500Y0610272D02*
D03*
Y0606728D02*
D03*
X0681000Y0610272D02*
D03*
Y0606728D02*
D03*
D128*
X0817728Y0563500D02*
D03*
X0821272D02*
D03*
X0815772Y0605000D02*
D03*
X0812228D02*
D03*
X0815772Y0609000D02*
D03*
X0812228D02*
D03*
X0717728Y0598500D02*
D03*
X0721272D02*
D03*
D129*
X0764100Y0578209D02*
D03*
Y0566791D02*
D03*
D130*
X0663000Y0571512D02*
D03*
Y0560488D02*
D03*
D131*
X0684626Y0597000D02*
D03*
X0675374D02*
D03*
X0672126D02*
D03*
X0662874D02*
D03*
X0659626D02*
D03*
X0650374D02*
D03*
X0647126D02*
D03*
X0637874D02*
D03*
X0634626D02*
D03*
X0625374D02*
D03*
X0622126D02*
D03*
X0612874D02*
D03*
X0609626D02*
D03*
X0600374D02*
D03*
X0597126D02*
D03*
X0587874D02*
D03*
X0584626D02*
D03*
X0575374D02*
D03*
X0572126D02*
D03*
X0562874D02*
D03*
X0559626D02*
D03*
X0550374D02*
D03*
X0547126D02*
D03*
X0537874D02*
D03*
D132*
X0539000Y0602850D02*
D03*
Y0609150D02*
D03*
X0551500Y0602850D02*
D03*
Y0609150D02*
D03*
X0564000Y0602850D02*
D03*
Y0609150D02*
D03*
X0576500Y0602850D02*
D03*
Y0609150D02*
D03*
X0589000Y0602850D02*
D03*
Y0609150D02*
D03*
X0601500Y0602850D02*
D03*
Y0609150D02*
D03*
X0614000Y0602850D02*
D03*
Y0609150D02*
D03*
X0626500Y0602850D02*
D03*
Y0609150D02*
D03*
X0639000Y0602850D02*
D03*
Y0609150D02*
D03*
X0651500Y0602850D02*
D03*
Y0609150D02*
D03*
X0664000Y0602850D02*
D03*
Y0609150D02*
D03*
X0676500Y0602850D02*
D03*
Y0609150D02*
D03*
D133*
X0713000Y0584744D02*
D03*
Y0590256D02*
D03*
X0690500Y0576244D02*
D03*
Y0581756D02*
D03*
X0707500Y0584744D02*
D03*
Y0590256D02*
D03*
X0696500Y0584744D02*
D03*
Y0590256D02*
D03*
X0702000Y0584744D02*
D03*
Y0590256D02*
D03*
D134*
X0727839Y0594118D02*
D03*
X0725280D02*
D03*
X0722720D02*
D03*
Y0583882D02*
D03*
X0725280D02*
D03*
X0727839D02*
D03*
X0720161D02*
D03*
Y0594118D02*
D03*
D135*
X0819835Y0575100D02*
D03*
D136*
X0749400Y0569250D02*
D03*
D137*
X0547445Y0624500D02*
D03*
X0557287D02*
D03*
X0567130D02*
D03*
X0576972D02*
D03*
X0586815D02*
D03*
X0596658D02*
D03*
X0606500D02*
D03*
X0616342D02*
D03*
X0626185D02*
D03*
X0636028D02*
D03*
X0645870D02*
D03*
X0655713D02*
D03*
X0665555D02*
D03*
D138*
X0543000Y0547200D02*
D03*
Y0555100D02*
D03*
Y0563000D02*
D03*
Y0570874D02*
D03*
Y0578748D02*
D03*
X0562500Y0547363D02*
D03*
Y0555237D02*
D03*
Y0572063D02*
D03*
Y0579937D02*
D03*
X0688000Y0622063D02*
D03*
Y0629937D02*
D03*
D139*
X0612000Y0543000D02*
D03*
X0615000Y0546000D02*
D03*
Y0543000D02*
D03*
X0638886Y0541401D02*
D03*
X0680673Y0577600D02*
D03*
X0676500Y0567000D02*
D03*
Y0571500D02*
D03*
X0681000Y0598500D02*
D03*
X0678000D02*
D03*
X0681000Y0610272D02*
D03*
X0685500Y0554000D02*
D03*
Y0557000D02*
D03*
X0682500D02*
D03*
Y0554000D02*
D03*
X0664500Y0547000D02*
D03*
X0667500D02*
D03*
X0670500D02*
D03*
X0673500D02*
D03*
Y0544000D02*
D03*
X0670500D02*
D03*
X0667500D02*
D03*
X0664500D02*
D03*
X0676500Y0557000D02*
D03*
X0673500Y0554000D02*
D03*
X0670500D02*
D03*
X0673500Y0557000D02*
D03*
X0670500D02*
D03*
X0676500Y0564000D02*
D03*
X0673500Y0567000D02*
D03*
Y0564000D02*
D03*
X0670500Y0567000D02*
D03*
X0668000Y0575500D02*
D03*
X0671000D02*
D03*
X0674000D02*
D03*
X0678500D02*
D03*
X0661000Y0581500D02*
D03*
X0666000Y0586500D02*
D03*
X0668500Y0589000D02*
D03*
X0663500Y0584000D02*
D03*
X0658000Y0581500D02*
D03*
X0703000Y0622000D02*
D03*
X0698500D02*
D03*
X0701000Y0626000D02*
D03*
X0694500Y0614000D02*
D03*
X0694031Y0617000D02*
D03*
X0741000Y0608500D02*
D03*
Y0611500D02*
D03*
X0850500Y0552000D02*
D03*
Y0549500D02*
D03*
Y0547000D02*
D03*
Y0544500D02*
D03*
X0848000D02*
D03*
Y0547000D02*
D03*
Y0549500D02*
D03*
Y0552000D02*
D03*
X0845500D02*
D03*
Y0549500D02*
D03*
Y0547000D02*
D03*
Y0544500D02*
D03*
X0843000D02*
D03*
Y0547000D02*
D03*
Y0552000D02*
D03*
Y0549500D02*
D03*
Y0542000D02*
D03*
X0845500D02*
D03*
X0848000D02*
D03*
X0850500D02*
D03*
X0863000Y0552000D02*
D03*
Y0549500D02*
D03*
Y0547000D02*
D03*
Y0544500D02*
D03*
X0860500D02*
D03*
Y0547000D02*
D03*
Y0549500D02*
D03*
Y0552000D02*
D03*
X0858000D02*
D03*
Y0549500D02*
D03*
Y0547000D02*
D03*
Y0544500D02*
D03*
X0855500D02*
D03*
Y0547000D02*
D03*
Y0552000D02*
D03*
X0853000D02*
D03*
Y0549500D02*
D03*
Y0547000D02*
D03*
Y0544500D02*
D03*
X0855500Y0549500D02*
D03*
X0853000Y0542000D02*
D03*
X0855500D02*
D03*
X0858000D02*
D03*
X0860500D02*
D03*
X0863000D02*
D03*
X0840500D02*
D03*
Y0549500D02*
D03*
Y0552000D02*
D03*
Y0547000D02*
D03*
Y0544500D02*
D03*
X0575000Y0580000D02*
D03*
X0574500Y0552500D02*
D03*
X0618500Y0544968D02*
D03*
X0649500Y0543000D02*
D03*
X0734500Y0576468D02*
D03*
X0734500Y0573500D02*
D03*
X0799500Y0583000D02*
D03*
X0789000Y0565500D02*
D03*
X0792000D02*
D03*
X0795000D02*
D03*
Y0568500D02*
D03*
X0792000D02*
D03*
X0789000D02*
D03*
Y0571500D02*
D03*
X0792000D02*
D03*
Y0574500D02*
D03*
X0789000D02*
D03*
Y0577500D02*
D03*
X0792000D02*
D03*
Y0580500D02*
D03*
X0789000D02*
D03*
X0786000Y0565500D02*
D03*
Y0571500D02*
D03*
Y0577500D02*
D03*
Y0568500D02*
D03*
Y0574500D02*
D03*
X0691000Y0616272D02*
D03*
X0804000Y0617000D02*
D03*
X0798000D02*
D03*
X0801000D02*
D03*
X0793000Y0615500D02*
D03*
X0699272Y0633000D02*
D03*
X0790000Y0602000D02*
D03*
X0802000Y0589988D02*
D03*
X0850500Y0634500D02*
D03*
X0853000D02*
D03*
X0855500D02*
D03*
Y0632000D02*
D03*
Y0629500D02*
D03*
X0853000D02*
D03*
X0850500D02*
D03*
Y0632000D02*
D03*
X0853000D02*
D03*
X0789000Y0548500D02*
D03*
X0792000D02*
D03*
X0795000D02*
D03*
Y0551500D02*
D03*
X0792000D02*
D03*
X0789000D02*
D03*
X0689114Y0607000D02*
D03*
X0723000Y0621000D02*
D03*
X0722500Y0630500D02*
D03*
X0670500Y0564000D02*
D03*
X0605283Y0572565D02*
D03*
X0586000Y0586500D02*
D03*
X0726500Y0573500D02*
D03*
X0756000Y0590000D02*
D03*
X0735000Y0599500D02*
D03*
X0633272Y0565500D02*
D03*
X0626968Y0562500D02*
D03*
X0613000Y0570500D02*
D03*
X0724500Y0613500D02*
D03*
X0693500Y0601500D02*
D03*
X0719000Y0616000D02*
D03*
X0722000D02*
D03*
X0717500Y0619000D02*
D03*
X0714114Y0598500D02*
D03*
X0731000Y0613500D02*
D03*
X0548500Y0559531D02*
D03*
Y0567728D02*
D03*
X0707000Y0602000D02*
D03*
X0731000Y0603000D02*
D03*
X0741000Y0600000D02*
D03*
X0768000Y0593000D02*
D03*
X0765000D02*
D03*
X0744000Y0608500D02*
D03*
X0747000D02*
D03*
X0750000D02*
D03*
Y0611500D02*
D03*
X0747000D02*
D03*
X0744000D02*
D03*
X0741000Y0614500D02*
D03*
X0744000D02*
D03*
X0747000D02*
D03*
X0765000Y0596000D02*
D03*
X0762000Y0593000D02*
D03*
Y0596000D02*
D03*
X0759000Y0593000D02*
D03*
Y0596000D02*
D03*
X0756000Y0593000D02*
D03*
X0738000Y0597000D02*
D03*
X0741000D02*
D03*
X0744000D02*
D03*
X0784000Y0596000D02*
D03*
X0781000D02*
D03*
X0790000D02*
D03*
X0793000D02*
D03*
X0720000Y0621500D02*
D03*
X0788500Y0611500D02*
D03*
X0793000Y0613000D02*
D03*
X0712500Y0602000D02*
D03*
X0709600D02*
D03*
X0701000D02*
D03*
X0704000D02*
D03*
X0714000Y0593500D02*
D03*
X0716000Y0596000D02*
D03*
X0722114Y0610000D02*
D03*
X0718886D02*
D03*
X0637387Y0565613D02*
D03*
X0620047Y0555451D02*
D03*
X0802000Y0606500D02*
D03*
X0799000D02*
D03*
Y0603500D02*
D03*
X0802000D02*
D03*
Y0600500D02*
D03*
X0799000D02*
D03*
X0796000Y0606500D02*
D03*
Y0600500D02*
D03*
X0793000Y0606500D02*
D03*
Y0603500D02*
D03*
X0796000D02*
D03*
X0799000Y0597500D02*
D03*
X0802000D02*
D03*
X0861000Y0583500D02*
D03*
X0863500D02*
D03*
X0853500Y0603500D02*
D03*
X0856000D02*
D03*
X0858500D02*
D03*
X0861000D02*
D03*
X0863500D02*
D03*
X0841000D02*
D03*
X0843500D02*
D03*
X0846000D02*
D03*
X0848500D02*
D03*
X0851000D02*
D03*
Y0601000D02*
D03*
Y0598500D02*
D03*
Y0596000D02*
D03*
Y0593500D02*
D03*
Y0591000D02*
D03*
Y0588500D02*
D03*
X0848500D02*
D03*
Y0591000D02*
D03*
Y0593500D02*
D03*
Y0596000D02*
D03*
Y0598500D02*
D03*
Y0601000D02*
D03*
X0846000D02*
D03*
Y0598500D02*
D03*
Y0596000D02*
D03*
Y0593500D02*
D03*
Y0591000D02*
D03*
Y0588500D02*
D03*
X0843500D02*
D03*
Y0591000D02*
D03*
Y0596000D02*
D03*
Y0601000D02*
D03*
X0841000D02*
D03*
Y0598500D02*
D03*
Y0596000D02*
D03*
Y0593500D02*
D03*
Y0591000D02*
D03*
Y0588500D02*
D03*
X0843500Y0593500D02*
D03*
Y0598500D02*
D03*
Y0586000D02*
D03*
X0846000D02*
D03*
X0848500D02*
D03*
X0851000D02*
D03*
X0863500Y0601000D02*
D03*
Y0598500D02*
D03*
Y0596000D02*
D03*
Y0593500D02*
D03*
Y0591000D02*
D03*
Y0588500D02*
D03*
X0861000D02*
D03*
Y0591000D02*
D03*
Y0593500D02*
D03*
Y0596000D02*
D03*
Y0598500D02*
D03*
Y0601000D02*
D03*
X0858500D02*
D03*
Y0598500D02*
D03*
Y0596000D02*
D03*
Y0593500D02*
D03*
Y0591000D02*
D03*
Y0588500D02*
D03*
X0856000D02*
D03*
Y0591000D02*
D03*
Y0596000D02*
D03*
Y0601000D02*
D03*
X0853500D02*
D03*
Y0598500D02*
D03*
Y0596000D02*
D03*
Y0593500D02*
D03*
Y0591000D02*
D03*
Y0588500D02*
D03*
X0856000Y0593500D02*
D03*
Y0598500D02*
D03*
X0853500Y0586000D02*
D03*
X0856000D02*
D03*
X0858500D02*
D03*
X0861000D02*
D03*
X0863500D02*
D03*
X0790000Y0593000D02*
D03*
X0793000D02*
D03*
X0790000Y0590000D02*
D03*
X0793000D02*
D03*
X0790000Y0599000D02*
D03*
X0793000D02*
D03*
X0796000Y0596000D02*
D03*
Y0593000D02*
D03*
X0799000D02*
D03*
X0802000D02*
D03*
X0617000Y0559000D02*
D03*
X0616272Y0562500D02*
D03*
X0628500Y0559000D02*
D03*
X0723114Y0577000D02*
D03*
Y0573500D02*
D03*
X0719886Y0577000D02*
D03*
Y0573500D02*
D03*
X0753000Y0611500D02*
D03*
Y0608500D02*
D03*
Y0605500D02*
D03*
X0841000Y0564000D02*
D03*
X0858500Y0579000D02*
D03*
Y0576500D02*
D03*
Y0574000D02*
D03*
Y0571500D02*
D03*
Y0569000D02*
D03*
Y0566500D02*
D03*
X0856000D02*
D03*
Y0569000D02*
D03*
Y0571500D02*
D03*
Y0574000D02*
D03*
Y0576500D02*
D03*
Y0579000D02*
D03*
X0853500D02*
D03*
Y0576500D02*
D03*
Y0574000D02*
D03*
Y0571500D02*
D03*
Y0569000D02*
D03*
Y0566500D02*
D03*
X0851000D02*
D03*
Y0569000D02*
D03*
Y0574000D02*
D03*
Y0579000D02*
D03*
X0848500D02*
D03*
Y0576500D02*
D03*
Y0574000D02*
D03*
Y0571500D02*
D03*
Y0569000D02*
D03*
Y0566500D02*
D03*
X0846000D02*
D03*
Y0569000D02*
D03*
Y0571500D02*
D03*
Y0576500D02*
D03*
X0843500Y0574000D02*
D03*
Y0566500D02*
D03*
X0851000Y0571500D02*
D03*
X0846000Y0574000D02*
D03*
X0851000Y0576500D02*
D03*
X0843500Y0564000D02*
D03*
X0846000D02*
D03*
X0848500D02*
D03*
X0851000D02*
D03*
X0853500D02*
D03*
X0856000D02*
D03*
X0858500D02*
D03*
X0843500Y0576500D02*
D03*
X0846000Y0579000D02*
D03*
X0747500Y0601500D02*
D03*
X0738000Y0600000D02*
D03*
X0745000Y0601500D02*
D03*
X0555000Y0555500D02*
D03*
X0723000Y0623500D02*
D03*
X0544000Y0598500D02*
D03*
X0556500D02*
D03*
X0569000D02*
D03*
X0581500D02*
D03*
X0594000D02*
D03*
X0606500D02*
D03*
X0619000D02*
D03*
X0631500D02*
D03*
X0541000D02*
D03*
X0553500D02*
D03*
X0566000D02*
D03*
X0578500D02*
D03*
X0591000D02*
D03*
X0603500D02*
D03*
X0616000D02*
D03*
X0628500D02*
D03*
X0543500Y0610272D02*
D03*
X0556000D02*
D03*
X0568500D02*
D03*
X0581000D02*
D03*
X0593500D02*
D03*
X0606000D02*
D03*
X0618500D02*
D03*
X0538000Y0603000D02*
D03*
X0550500D02*
D03*
X0563000D02*
D03*
X0575500D02*
D03*
X0600500D02*
D03*
X0613000D02*
D03*
X0625500D02*
D03*
X0638000D02*
D03*
X0650500D02*
D03*
X0663000D02*
D03*
X0675500D02*
D03*
X0588000D02*
D03*
X0656000Y0610272D02*
D03*
X0668500D02*
D03*
X0644000Y0598500D02*
D03*
X0656500D02*
D03*
X0669000D02*
D03*
X0641000D02*
D03*
X0653500D02*
D03*
X0666000D02*
D03*
X0631000Y0610272D02*
D03*
X0643500D02*
D03*
X0538110Y0597000D02*
D03*
X0538728Y0593500D02*
D03*
X0586000Y0590000D02*
D03*
X0598500Y0579000D02*
D03*
X0586500Y0543000D02*
D03*
X0786500Y0584500D02*
D03*
X0833000Y0542000D02*
D03*
X0830500D02*
D03*
X0828000D02*
D03*
X0825500D02*
D03*
X0823000D02*
D03*
X0825500Y0549500D02*
D03*
X0823000Y0544500D02*
D03*
Y0547000D02*
D03*
Y0549500D02*
D03*
Y0552000D02*
D03*
X0825500D02*
D03*
Y0547000D02*
D03*
Y0544500D02*
D03*
X0828000D02*
D03*
Y0547000D02*
D03*
Y0549500D02*
D03*
Y0552000D02*
D03*
X0830500D02*
D03*
Y0549500D02*
D03*
Y0547000D02*
D03*
Y0544500D02*
D03*
X0833000D02*
D03*
Y0547000D02*
D03*
Y0549500D02*
D03*
Y0552000D02*
D03*
X0820500Y0542000D02*
D03*
X0818000D02*
D03*
X0815500D02*
D03*
X0813000D02*
D03*
Y0549500D02*
D03*
Y0547000D02*
D03*
Y0544500D02*
D03*
X0815500D02*
D03*
Y0547000D02*
D03*
Y0549500D02*
D03*
Y0552000D02*
D03*
X0818000D02*
D03*
Y0549500D02*
D03*
Y0547000D02*
D03*
Y0544500D02*
D03*
X0820500D02*
D03*
Y0547000D02*
D03*
Y0549500D02*
D03*
Y0552000D02*
D03*
X0835500D02*
D03*
Y0549500D02*
D03*
Y0547000D02*
D03*
Y0544500D02*
D03*
Y0542000D02*
D03*
X0621772Y0545000D02*
D03*
X0645500Y0568500D02*
D03*
X0642500D02*
D03*
X0628272Y0570500D02*
D03*
X0646500Y0564000D02*
D03*
X0636228Y0568500D02*
D03*
X0704000Y0617000D02*
D03*
X0777000Y0612000D02*
D03*
X0853500Y0581772D02*
D03*
X0837600Y0586833D02*
D03*
X0768000Y0596000D02*
D03*
X0771000D02*
D03*
X0770500Y0550228D02*
D03*
X0750000Y0614500D02*
D03*
X0777000Y0615000D02*
D03*
X0747000Y0597000D02*
D03*
X0767000Y0582272D02*
D03*
X0752000Y0588000D02*
D03*
X0747500D02*
D03*
X0764000Y0584500D02*
D03*
X0771000Y0613000D02*
D03*
X0767500D02*
D03*
X0764000D02*
D03*
X0760500D02*
D03*
X0552000Y0589500D02*
D03*
X0586500Y0556000D02*
D03*
Y0562500D02*
D03*
X0578000Y0546000D02*
D03*
X0652000Y0549000D02*
D03*
X0655000D02*
D03*
X0578000Y0552500D02*
D03*
X0574500Y0571500D02*
D03*
X0572000Y0561000D02*
D03*
X0574500Y0559000D02*
D03*
X0578000D02*
D03*
X0586551Y0549500D02*
D03*
X0843500Y0571500D02*
D03*
Y0569000D02*
D03*
X0841000Y0566500D02*
D03*
Y0571500D02*
D03*
Y0569000D02*
D03*
X0649000Y0558500D02*
D03*
X0739500Y0588000D02*
D03*
X0841000Y0574000D02*
D03*
X0761000Y0560500D02*
D03*
Y0564000D02*
D03*
X0858500Y0583500D02*
D03*
X0786000Y0580500D02*
D03*
X0807000Y0617000D02*
D03*
X0813000Y0634500D02*
D03*
X0815500D02*
D03*
X0818000D02*
D03*
X0820500D02*
D03*
X0823000D02*
D03*
X0825500D02*
D03*
X0828000D02*
D03*
X0830500D02*
D03*
X0833000D02*
D03*
X0835500D02*
D03*
Y0632000D02*
D03*
X0833000D02*
D03*
X0830500D02*
D03*
X0828000D02*
D03*
X0825500D02*
D03*
X0823000D02*
D03*
X0820500D02*
D03*
X0818000D02*
D03*
X0815500D02*
D03*
X0813000D02*
D03*
X0835500Y0629500D02*
D03*
X0833000D02*
D03*
X0830500D02*
D03*
X0828000D02*
D03*
X0825500D02*
D03*
X0823000D02*
D03*
X0820500D02*
D03*
X0818000D02*
D03*
X0815500D02*
D03*
X0813000D02*
D03*
X0835500Y0627000D02*
D03*
X0833000D02*
D03*
X0830500D02*
D03*
X0828000D02*
D03*
X0825500D02*
D03*
X0823000D02*
D03*
X0820500D02*
D03*
X0818000D02*
D03*
X0815500D02*
D03*
X0813000D02*
D03*
X0835500Y0624500D02*
D03*
X0833000D02*
D03*
X0830500D02*
D03*
X0828000D02*
D03*
X0825500D02*
D03*
X0823000D02*
D03*
X0820500D02*
D03*
X0818000D02*
D03*
X0815500D02*
D03*
X0813000D02*
D03*
X0835500Y0622000D02*
D03*
X0833000D02*
D03*
X0830500D02*
D03*
X0828000D02*
D03*
X0825500D02*
D03*
X0823000D02*
D03*
X0820500D02*
D03*
X0818000D02*
D03*
X0815500D02*
D03*
X0813000D02*
D03*
X0835500Y0619500D02*
D03*
X0833000D02*
D03*
X0830500D02*
D03*
X0828000D02*
D03*
X0825500D02*
D03*
X0823000D02*
D03*
X0820500D02*
D03*
X0818000D02*
D03*
X0815500D02*
D03*
X0813000D02*
D03*
Y0637000D02*
D03*
X0815500D02*
D03*
X0818000D02*
D03*
X0820500D02*
D03*
X0823000D02*
D03*
X0825500D02*
D03*
X0828000D02*
D03*
X0830500D02*
D03*
X0833000D02*
D03*
X0835500D02*
D03*
X0805500Y0553000D02*
D03*
X0808500D02*
D03*
Y0550000D02*
D03*
X0813000Y0552000D02*
D03*
X0830000Y0585000D02*
D03*
X0835000D02*
D03*
X0832500D02*
D03*
X0827500Y0592000D02*
D03*
Y0589500D02*
D03*
X0830000D02*
D03*
X0832500D02*
D03*
X0827500Y0605500D02*
D03*
X0830000D02*
D03*
X0832500D02*
D03*
Y0608000D02*
D03*
X0830000D02*
D03*
X0832500Y0610500D02*
D03*
X0827500Y0603000D02*
D03*
X0830000D02*
D03*
X0825000D02*
D03*
Y0592000D02*
D03*
Y0589500D02*
D03*
X0713905Y0611742D02*
D03*
X0712500Y0627000D02*
D03*
X0712000Y0595876D02*
D03*
X0735500Y0589500D02*
D03*
X0729000Y0609272D02*
D03*
X0725000Y0599000D02*
D03*
X0727500Y0590500D02*
D03*
X0715500Y0627000D02*
D03*
X0682500Y0544000D02*
D03*
X0685500D02*
D03*
X0699995Y0580631D02*
D03*
X0695500Y0591500D02*
D03*
Y0588500D02*
D03*
X0698500D02*
D03*
Y0591500D02*
D03*
X0701500Y0588500D02*
D03*
Y0591500D02*
D03*
X0706500D02*
D03*
Y0588500D02*
D03*
X0709500D02*
D03*
Y0591500D02*
D03*
M02*
