G04 Layer_Color=16711935*
%FSAX25Y25*%
%MOIN*%
G70*
G01*
G75*
%ADD49C,0.12205*%
%ADD51C,0.07874*%
%ADD92R,0.02765X0.02372*%
%ADD93R,0.02372X0.02765*%
%ADD94R,0.02647X0.02569*%
%ADD96R,0.02569X0.02647*%
%ADD97R,0.02372X0.03947*%
%ADD101R,0.02569X0.02372*%
%ADD109R,0.03356X0.05718*%
%ADD128C,0.06900*%
%ADD129C,0.07490*%
%ADD130C,0.01200*%
%ADD131R,0.03947X0.02372*%
%ADD132R,0.06584X0.07214*%
%ADD133R,0.04931X0.08080*%
%ADD134O,0.05915X0.02372*%
%ADD135R,0.06900X0.06100*%
%ADD136R,0.06112X0.03750*%
%ADD137R,0.08474X0.04931*%
%ADD138R,0.03356X0.04143*%
%ADD139R,0.07214X0.06584*%
%ADD140O,0.06400X0.02000*%
%ADD141O,0.06702X0.01584*%
%ADD142O,0.01584X0.06702*%
%ADD143R,0.04567X0.02402*%
%ADD144R,0.04537X0.04931*%
%ADD145R,0.07293X0.04931*%
%ADD146R,0.05718X0.03356*%
%ADD147R,0.03947X0.04931*%
%ADD148R,0.02372X0.02569*%
%ADD149R,0.01781X0.02372*%
%ADD150R,0.06899X0.04537*%
%ADD151O,0.02372X0.06899*%
%ADD152R,0.08868X0.07293*%
D49*
X0524000Y0547500D02*
D03*
Y0629500D02*
D03*
X0876500D02*
D03*
Y0547500D02*
D03*
D51*
X0751450Y0626500D02*
D03*
D92*
X0667500Y0550228D02*
D03*
Y0553772D02*
D03*
X0725500Y0605728D02*
D03*
Y0609272D02*
D03*
X0729000Y0605728D02*
D03*
Y0609272D02*
D03*
X0770500Y0553772D02*
D03*
Y0550228D02*
D03*
X0767000D02*
D03*
Y0553772D02*
D03*
Y0582272D02*
D03*
Y0578728D02*
D03*
X0691000Y0616272D02*
D03*
Y0612728D02*
D03*
X0802500Y0578728D02*
D03*
Y0582272D02*
D03*
D93*
X0770272Y0632500D02*
D03*
X0766728D02*
D03*
X0639772Y0568500D02*
D03*
X0636228D02*
D03*
X0590271Y0545000D02*
D03*
X0586728D02*
D03*
X0626772Y0562500D02*
D03*
X0623228D02*
D03*
X0667772Y0559000D02*
D03*
X0664228D02*
D03*
X0629728Y0562500D02*
D03*
X0633272D02*
D03*
X0542272Y0593500D02*
D03*
X0538728D02*
D03*
X0548228Y0563000D02*
D03*
X0551772D02*
D03*
X0548228Y0571000D02*
D03*
X0551772D02*
D03*
X0699272Y0633000D02*
D03*
X0695728D02*
D03*
X0699272Y0629500D02*
D03*
X0695728D02*
D03*
X0732228D02*
D03*
X0735772D02*
D03*
X0756500Y0618500D02*
D03*
X0760043D02*
D03*
X0732228Y0623500D02*
D03*
X0735772D02*
D03*
X0755772Y0566500D02*
D03*
X0752228D02*
D03*
X0612728Y0562500D02*
D03*
X0616272D02*
D03*
X0606228D02*
D03*
X0609772D02*
D03*
X0636228D02*
D03*
X0639772D02*
D03*
X0633272Y0565500D02*
D03*
X0629728D02*
D03*
X0568772Y0561000D02*
D03*
X0565228D02*
D03*
X0618228Y0545000D02*
D03*
X0621772D02*
D03*
X0714228Y0622500D02*
D03*
X0717772D02*
D03*
X0714228Y0619000D02*
D03*
X0717772D02*
D03*
X0752228Y0570000D02*
D03*
X0755772D02*
D03*
X0586728Y0553500D02*
D03*
X0590272D02*
D03*
X0710728Y0614500D02*
D03*
X0714272D02*
D03*
X0628272Y0570500D02*
D03*
X0624728D02*
D03*
X0748772Y0566500D02*
D03*
X0745228D02*
D03*
D94*
X0735000Y0558614D02*
D03*
Y0555386D02*
D03*
X0763000Y0578886D02*
D03*
Y0582114D02*
D03*
X0598500Y0572886D02*
D03*
Y0576114D02*
D03*
X0694000Y0562114D02*
D03*
Y0558886D02*
D03*
X0722000D02*
D03*
Y0562114D02*
D03*
X0744500Y0601114D02*
D03*
Y0597886D02*
D03*
Y0604886D02*
D03*
Y0608114D02*
D03*
X0735500Y0590114D02*
D03*
Y0586886D02*
D03*
X0734500Y0572886D02*
D03*
Y0576114D02*
D03*
X0802500Y0585386D02*
D03*
Y0588614D02*
D03*
D96*
X0756114Y0546000D02*
D03*
X0752886D02*
D03*
X0548614Y0593500D02*
D03*
X0545386D02*
D03*
X0697614Y0617000D02*
D03*
X0694386D02*
D03*
X0700886D02*
D03*
X0704114D02*
D03*
X0719886Y0573500D02*
D03*
X0723114D02*
D03*
X0719886Y0577000D02*
D03*
X0723114D02*
D03*
X0699386Y0571000D02*
D03*
X0702614D02*
D03*
X0718886Y0610000D02*
D03*
X0722114D02*
D03*
X0689114Y0607000D02*
D03*
X0685886D02*
D03*
D97*
X0646441Y0558153D02*
D03*
X0651559D02*
D03*
X0649000Y0549847D02*
D03*
X0660500Y0558653D02*
D03*
X0657941Y0550347D02*
D03*
X0663059D02*
D03*
X0678941Y0616153D02*
D03*
X0684059D02*
D03*
X0681500Y0607846D02*
D03*
X0669000D02*
D03*
X0671559Y0616153D02*
D03*
X0666441D02*
D03*
X0653941D02*
D03*
X0659059D02*
D03*
X0656500Y0607846D02*
D03*
X0644000D02*
D03*
X0646559Y0616153D02*
D03*
X0641441D02*
D03*
X0628941D02*
D03*
X0634059D02*
D03*
X0631500Y0607846D02*
D03*
X0619000D02*
D03*
X0621559Y0616153D02*
D03*
X0616441D02*
D03*
X0603941D02*
D03*
X0609059D02*
D03*
X0606500Y0607846D02*
D03*
X0594000D02*
D03*
X0596559Y0616153D02*
D03*
X0591441D02*
D03*
X0578941D02*
D03*
X0584059D02*
D03*
X0581500Y0607846D02*
D03*
X0569000D02*
D03*
X0571559Y0616153D02*
D03*
X0566441D02*
D03*
X0553941D02*
D03*
X0559059D02*
D03*
X0556500Y0607846D02*
D03*
X0544000D02*
D03*
X0546559Y0616153D02*
D03*
X0541441D02*
D03*
X0611941Y0558153D02*
D03*
X0617059D02*
D03*
X0614500Y0549847D02*
D03*
X0626000D02*
D03*
X0628559Y0558153D02*
D03*
X0623441D02*
D03*
X0637500Y0549847D02*
D03*
X0640059Y0558153D02*
D03*
X0634941D02*
D03*
D101*
X0791626Y0596000D02*
D03*
X0782374D02*
D03*
D109*
X0674760Y0603000D02*
D03*
X0682240D02*
D03*
X0662260D02*
D03*
X0669740D02*
D03*
X0649760D02*
D03*
X0657240D02*
D03*
X0637260D02*
D03*
X0644740D02*
D03*
X0624760D02*
D03*
X0632240D02*
D03*
X0612260D02*
D03*
X0619740D02*
D03*
X0599760D02*
D03*
X0607240D02*
D03*
X0587260D02*
D03*
X0594740D02*
D03*
X0574760D02*
D03*
X0582240D02*
D03*
X0562260D02*
D03*
X0569740D02*
D03*
X0549760D02*
D03*
X0557240D02*
D03*
X0537260D02*
D03*
X0544740D02*
D03*
X0743240Y0613500D02*
D03*
X0735760D02*
D03*
D128*
X0688000Y0622063D02*
D03*
Y0629937D02*
D03*
X0570937Y0546500D02*
D03*
X0563063D02*
D03*
X0571000Y0566500D02*
D03*
X0563126D02*
D03*
X0543000Y0547200D02*
D03*
Y0555100D02*
D03*
Y0563000D02*
D03*
Y0570874D02*
D03*
Y0578748D02*
D03*
D129*
X0665555Y0624500D02*
D03*
X0655713D02*
D03*
X0645870D02*
D03*
X0636028D02*
D03*
X0626185D02*
D03*
X0616342D02*
D03*
X0606500D02*
D03*
X0596658D02*
D03*
X0586815D02*
D03*
X0576972D02*
D03*
X0567130D02*
D03*
X0557287D02*
D03*
X0547445D02*
D03*
D130*
X0703000Y0622000D02*
D03*
X0698500D02*
D03*
X0701000Y0626000D02*
D03*
X0694500Y0614000D02*
D03*
X0694031Y0617000D02*
D03*
X0614500Y0545000D02*
D03*
X0741000Y0608500D02*
D03*
Y0611500D02*
D03*
X0650000Y0558500D02*
D03*
X0851000Y0552000D02*
D03*
Y0549500D02*
D03*
Y0547000D02*
D03*
Y0544500D02*
D03*
X0848500D02*
D03*
Y0547000D02*
D03*
Y0549500D02*
D03*
Y0552000D02*
D03*
X0846000D02*
D03*
Y0549500D02*
D03*
Y0547000D02*
D03*
Y0544500D02*
D03*
X0843500D02*
D03*
Y0547000D02*
D03*
Y0552000D02*
D03*
Y0549500D02*
D03*
Y0542000D02*
D03*
X0846000D02*
D03*
X0848500D02*
D03*
X0851000D02*
D03*
X0863500Y0552000D02*
D03*
Y0549500D02*
D03*
Y0547000D02*
D03*
Y0544500D02*
D03*
X0861000D02*
D03*
Y0547000D02*
D03*
Y0549500D02*
D03*
Y0552000D02*
D03*
X0858500D02*
D03*
Y0549500D02*
D03*
Y0547000D02*
D03*
Y0544500D02*
D03*
X0856000D02*
D03*
Y0547000D02*
D03*
Y0552000D02*
D03*
X0853500D02*
D03*
Y0549500D02*
D03*
Y0547000D02*
D03*
Y0544500D02*
D03*
X0856000Y0549500D02*
D03*
X0853500Y0542000D02*
D03*
X0856000D02*
D03*
X0858500D02*
D03*
X0861000D02*
D03*
X0863500D02*
D03*
X0841000D02*
D03*
Y0549500D02*
D03*
Y0552000D02*
D03*
Y0547000D02*
D03*
Y0544500D02*
D03*
X0574500Y0578500D02*
D03*
Y0552500D02*
D03*
X0618500Y0544968D02*
D03*
X0649500Y0543000D02*
D03*
X0734500Y0576468D02*
D03*
X0734500Y0573500D02*
D03*
X0752000Y0584500D02*
D03*
X0747500Y0586000D02*
D03*
X0735500Y0589500D02*
D03*
X0739500Y0586500D02*
D03*
X0809000Y0553000D02*
D03*
Y0550000D02*
D03*
X0806000Y0553000D02*
D03*
X0799500Y0583000D02*
D03*
X0789000Y0565500D02*
D03*
X0792000D02*
D03*
X0795000D02*
D03*
Y0568500D02*
D03*
X0792000D02*
D03*
X0789000D02*
D03*
Y0571500D02*
D03*
X0792000D02*
D03*
Y0574500D02*
D03*
X0789000D02*
D03*
Y0577500D02*
D03*
X0792000D02*
D03*
Y0580500D02*
D03*
X0789000D02*
D03*
X0786000Y0565500D02*
D03*
Y0571500D02*
D03*
Y0577500D02*
D03*
Y0568500D02*
D03*
Y0574500D02*
D03*
X0691000Y0616272D02*
D03*
X0807000Y0617000D02*
D03*
X0804000D02*
D03*
X0798000D02*
D03*
X0801000D02*
D03*
X0793000Y0615500D02*
D03*
X0699272Y0633000D02*
D03*
X0790000Y0602000D02*
D03*
X0802000Y0589988D02*
D03*
X0846000Y0634500D02*
D03*
X0848500D02*
D03*
X0851000D02*
D03*
Y0632000D02*
D03*
Y0629500D02*
D03*
X0848500D02*
D03*
X0846000D02*
D03*
Y0632000D02*
D03*
X0848500D02*
D03*
X0789000Y0548500D02*
D03*
X0792000D02*
D03*
X0795000D02*
D03*
Y0551500D02*
D03*
X0792000D02*
D03*
X0789000D02*
D03*
X0689114Y0607000D02*
D03*
X0723000Y0621000D02*
D03*
X0722500Y0630500D02*
D03*
X0701500Y0590500D02*
D03*
X0698000D02*
D03*
X0677000Y0570000D02*
D03*
Y0567000D02*
D03*
X0579000Y0568500D02*
D03*
X0583000Y0550000D02*
D03*
X0686000Y0544000D02*
D03*
X0683000D02*
D03*
X0671000Y0555500D02*
D03*
X0674000D02*
D03*
X0671000Y0564000D02*
D03*
X0674000Y0567000D02*
D03*
Y0564000D02*
D03*
Y0558500D02*
D03*
X0671000D02*
D03*
X0665000Y0544000D02*
D03*
X0668000D02*
D03*
X0671000D02*
D03*
X0674000D02*
D03*
X0686000Y0555500D02*
D03*
X0683000D02*
D03*
Y0558500D02*
D03*
X0686000D02*
D03*
X0674000Y0547000D02*
D03*
X0671000D02*
D03*
X0668000D02*
D03*
X0665000D02*
D03*
X0677000Y0558500D02*
D03*
Y0555500D02*
D03*
Y0564000D02*
D03*
X0605283Y0572565D02*
D03*
X0586000Y0586500D02*
D03*
X0726500Y0573500D02*
D03*
X0756000Y0590000D02*
D03*
X0762000Y0560772D02*
D03*
X0735000Y0599500D02*
D03*
X0633272Y0565500D02*
D03*
X0626968Y0562500D02*
D03*
X0611000Y0541500D02*
D03*
X0613000Y0570500D02*
D03*
X0713905Y0611742D02*
D03*
X0724500Y0613500D02*
D03*
X0693500Y0601500D02*
D03*
X0719000Y0616000D02*
D03*
X0722000D02*
D03*
X0717500Y0619000D02*
D03*
X0714114Y0598500D02*
D03*
X0712000Y0595876D02*
D03*
X0731000Y0613500D02*
D03*
X0551772Y0563000D02*
D03*
Y0571000D02*
D03*
X0591500Y0561500D02*
D03*
Y0553500D02*
D03*
X0581000Y0557500D02*
D03*
X0699995Y0580181D02*
D03*
X0707000Y0602000D02*
D03*
X0730500Y0603000D02*
D03*
X0741000Y0600000D02*
D03*
X0768000Y0593000D02*
D03*
X0765000D02*
D03*
X0744000Y0608500D02*
D03*
X0747000D02*
D03*
X0750000D02*
D03*
Y0611500D02*
D03*
X0747000D02*
D03*
X0744000D02*
D03*
X0741000Y0614500D02*
D03*
X0744000D02*
D03*
X0747000D02*
D03*
X0765000Y0596000D02*
D03*
X0762000Y0593000D02*
D03*
Y0596000D02*
D03*
X0763000Y0582500D02*
D03*
X0759000Y0593000D02*
D03*
Y0596000D02*
D03*
X0756000Y0593000D02*
D03*
X0762000Y0564300D02*
D03*
X0738000Y0597000D02*
D03*
X0741000D02*
D03*
X0744000D02*
D03*
X0784000Y0596000D02*
D03*
X0781000D02*
D03*
X0790000D02*
D03*
X0793000D02*
D03*
X0720000Y0621500D02*
D03*
X0725500Y0599000D02*
D03*
X0788500Y0611500D02*
D03*
X0793000Y0613000D02*
D03*
X0712500Y0602000D02*
D03*
X0709600D02*
D03*
X0701000D02*
D03*
X0704000D02*
D03*
X0714000Y0593500D02*
D03*
X0716000Y0596000D02*
D03*
X0722114Y0610000D02*
D03*
X0718886D02*
D03*
X0729000Y0609272D02*
D03*
X0637387Y0565613D02*
D03*
X0620047Y0555451D02*
D03*
X0802000Y0606500D02*
D03*
X0799000D02*
D03*
Y0603500D02*
D03*
X0802000D02*
D03*
Y0600500D02*
D03*
X0799000D02*
D03*
X0796000Y0606500D02*
D03*
Y0600500D02*
D03*
X0793000Y0606500D02*
D03*
Y0603500D02*
D03*
X0796000D02*
D03*
X0799000Y0597500D02*
D03*
X0802000D02*
D03*
X0813500Y0634500D02*
D03*
X0816000D02*
D03*
X0818500D02*
D03*
X0821000D02*
D03*
X0823500D02*
D03*
X0826000D02*
D03*
X0828500D02*
D03*
X0831000D02*
D03*
X0833500D02*
D03*
X0836000D02*
D03*
Y0632000D02*
D03*
X0833500D02*
D03*
X0831000D02*
D03*
X0828500D02*
D03*
X0826000D02*
D03*
X0823500D02*
D03*
X0821000D02*
D03*
X0818500D02*
D03*
X0816000D02*
D03*
X0813500D02*
D03*
X0836000Y0629500D02*
D03*
X0833500D02*
D03*
X0831000D02*
D03*
X0828500D02*
D03*
X0826000D02*
D03*
X0823500D02*
D03*
X0821000D02*
D03*
X0818500D02*
D03*
X0816000D02*
D03*
X0813500D02*
D03*
X0836000Y0627000D02*
D03*
X0833500D02*
D03*
X0831000D02*
D03*
X0828500D02*
D03*
X0826000D02*
D03*
X0823500D02*
D03*
X0821000D02*
D03*
X0818500D02*
D03*
X0816000D02*
D03*
X0813500D02*
D03*
X0836000Y0624500D02*
D03*
X0833500D02*
D03*
X0831000D02*
D03*
X0828500D02*
D03*
X0826000D02*
D03*
X0823500D02*
D03*
X0821000D02*
D03*
X0818500D02*
D03*
X0816000D02*
D03*
X0813500D02*
D03*
X0836000Y0622000D02*
D03*
X0833500D02*
D03*
X0831000D02*
D03*
X0828500D02*
D03*
X0826000D02*
D03*
X0823500D02*
D03*
X0821000D02*
D03*
X0818500D02*
D03*
X0816000D02*
D03*
X0813500D02*
D03*
X0836000Y0619500D02*
D03*
X0833500D02*
D03*
X0831000D02*
D03*
X0828500D02*
D03*
X0826000D02*
D03*
X0823500D02*
D03*
X0821000D02*
D03*
X0818500D02*
D03*
X0816000D02*
D03*
X0813500D02*
D03*
X0861000Y0583500D02*
D03*
X0863500D02*
D03*
X0853500Y0603500D02*
D03*
X0856000D02*
D03*
X0858500D02*
D03*
X0861000D02*
D03*
X0863500D02*
D03*
X0841000D02*
D03*
X0843500D02*
D03*
X0846000D02*
D03*
X0848500D02*
D03*
X0851000D02*
D03*
Y0601000D02*
D03*
Y0598500D02*
D03*
Y0596000D02*
D03*
Y0593500D02*
D03*
Y0591000D02*
D03*
Y0588500D02*
D03*
X0848500D02*
D03*
Y0591000D02*
D03*
Y0593500D02*
D03*
Y0596000D02*
D03*
Y0598500D02*
D03*
Y0601000D02*
D03*
X0846000D02*
D03*
Y0598500D02*
D03*
Y0596000D02*
D03*
Y0593500D02*
D03*
Y0591000D02*
D03*
Y0588500D02*
D03*
X0843500D02*
D03*
Y0591000D02*
D03*
Y0596000D02*
D03*
Y0601000D02*
D03*
X0841000D02*
D03*
Y0598500D02*
D03*
Y0596000D02*
D03*
Y0593500D02*
D03*
Y0591000D02*
D03*
Y0588500D02*
D03*
X0843500Y0593500D02*
D03*
Y0598500D02*
D03*
Y0586000D02*
D03*
X0846000D02*
D03*
X0848500D02*
D03*
X0851000D02*
D03*
X0863500Y0601000D02*
D03*
Y0598500D02*
D03*
Y0596000D02*
D03*
Y0593500D02*
D03*
Y0591000D02*
D03*
Y0588500D02*
D03*
X0861000D02*
D03*
Y0591000D02*
D03*
Y0593500D02*
D03*
Y0596000D02*
D03*
Y0598500D02*
D03*
Y0601000D02*
D03*
X0858500D02*
D03*
Y0598500D02*
D03*
Y0596000D02*
D03*
Y0593500D02*
D03*
Y0591000D02*
D03*
Y0588500D02*
D03*
X0856000D02*
D03*
Y0591000D02*
D03*
Y0596000D02*
D03*
Y0601000D02*
D03*
X0853500D02*
D03*
Y0598500D02*
D03*
Y0596000D02*
D03*
Y0593500D02*
D03*
Y0591000D02*
D03*
Y0588500D02*
D03*
X0856000Y0593500D02*
D03*
Y0598500D02*
D03*
X0853500Y0586000D02*
D03*
X0856000D02*
D03*
X0858500D02*
D03*
X0861000D02*
D03*
X0863500D02*
D03*
X0790000Y0593000D02*
D03*
X0793000D02*
D03*
X0790000Y0590000D02*
D03*
X0793000D02*
D03*
X0790000Y0599000D02*
D03*
X0793000D02*
D03*
X0796000Y0596000D02*
D03*
Y0593000D02*
D03*
X0799000D02*
D03*
X0802000D02*
D03*
X0617000Y0559000D02*
D03*
X0616272Y0562500D02*
D03*
X0628500Y0559000D02*
D03*
X0723114Y0577000D02*
D03*
Y0573500D02*
D03*
X0719886Y0577000D02*
D03*
Y0573500D02*
D03*
X0753000Y0611500D02*
D03*
Y0608500D02*
D03*
Y0605500D02*
D03*
X0760500Y0612500D02*
D03*
X0764000D02*
D03*
X0767500D02*
D03*
X0771000D02*
D03*
X0841000Y0564000D02*
D03*
Y0566500D02*
D03*
Y0569000D02*
D03*
Y0571500D02*
D03*
X0858500Y0579000D02*
D03*
Y0576500D02*
D03*
Y0574000D02*
D03*
Y0571500D02*
D03*
Y0569000D02*
D03*
Y0566500D02*
D03*
X0856000D02*
D03*
Y0569000D02*
D03*
Y0571500D02*
D03*
Y0574000D02*
D03*
Y0576500D02*
D03*
Y0579000D02*
D03*
X0853500D02*
D03*
Y0576500D02*
D03*
Y0574000D02*
D03*
Y0571500D02*
D03*
Y0569000D02*
D03*
Y0566500D02*
D03*
X0851000D02*
D03*
Y0569000D02*
D03*
Y0574000D02*
D03*
Y0579000D02*
D03*
X0848500D02*
D03*
Y0576500D02*
D03*
Y0574000D02*
D03*
Y0571500D02*
D03*
Y0569000D02*
D03*
Y0566500D02*
D03*
X0846000D02*
D03*
Y0569000D02*
D03*
Y0571500D02*
D03*
Y0576500D02*
D03*
X0843500Y0574000D02*
D03*
Y0571500D02*
D03*
Y0569000D02*
D03*
Y0566500D02*
D03*
X0851000Y0571500D02*
D03*
X0846000Y0574000D02*
D03*
X0851000Y0576500D02*
D03*
X0843500Y0564000D02*
D03*
X0846000D02*
D03*
X0848500D02*
D03*
X0851000D02*
D03*
X0853500D02*
D03*
X0856000D02*
D03*
X0858500D02*
D03*
X0841000Y0574000D02*
D03*
X0843500Y0576500D02*
D03*
X0846000Y0579000D02*
D03*
X0747500Y0601500D02*
D03*
X0747000Y0597000D02*
D03*
X0738000Y0600000D02*
D03*
X0745000Y0601500D02*
D03*
X0555000Y0555500D02*
D03*
X0723000Y0623500D02*
D03*
X0544000Y0598500D02*
D03*
X0556500D02*
D03*
X0569000D02*
D03*
X0581500D02*
D03*
X0594000D02*
D03*
X0606500D02*
D03*
X0619000D02*
D03*
X0631500D02*
D03*
X0541000D02*
D03*
X0553500D02*
D03*
X0566000D02*
D03*
X0578500D02*
D03*
X0591000D02*
D03*
X0603500D02*
D03*
X0616000D02*
D03*
X0628500D02*
D03*
X0543500Y0610272D02*
D03*
X0556000D02*
D03*
X0568500D02*
D03*
X0581000D02*
D03*
X0593500D02*
D03*
X0606000D02*
D03*
X0618500D02*
D03*
X0538000Y0603000D02*
D03*
X0550500D02*
D03*
X0563000D02*
D03*
X0575500D02*
D03*
X0600500D02*
D03*
X0613000D02*
D03*
X0625500D02*
D03*
X0638000D02*
D03*
X0650500D02*
D03*
X0663000D02*
D03*
X0675500D02*
D03*
X0588000D02*
D03*
X0656000Y0610272D02*
D03*
X0668500D02*
D03*
X0681000D02*
D03*
X0644000Y0598500D02*
D03*
X0656500D02*
D03*
X0669000D02*
D03*
X0641000D02*
D03*
X0653500D02*
D03*
X0666000D02*
D03*
X0678500D02*
D03*
X0631000Y0610272D02*
D03*
X0643500D02*
D03*
X0538110Y0597000D02*
D03*
X0681500Y0598500D02*
D03*
X0538728Y0593500D02*
D03*
X0557000Y0589500D02*
D03*
X0579000Y0551000D02*
D03*
X0576500Y0556500D02*
D03*
X0586000Y0590000D02*
D03*
X0598500Y0579000D02*
D03*
X0583000Y0541500D02*
D03*
X0767000Y0582272D02*
D03*
Y0584500D02*
D03*
X0591500Y0545000D02*
D03*
X0786500Y0584500D02*
D03*
X0813500Y0637000D02*
D03*
X0816000D02*
D03*
X0818500D02*
D03*
X0821000D02*
D03*
X0823500D02*
D03*
X0826000D02*
D03*
X0828500D02*
D03*
X0831000D02*
D03*
X0833500D02*
D03*
X0836000D02*
D03*
X0833500Y0542000D02*
D03*
X0831000D02*
D03*
X0828500D02*
D03*
X0826000D02*
D03*
X0823500D02*
D03*
X0826000Y0549500D02*
D03*
X0823500Y0544500D02*
D03*
Y0547000D02*
D03*
Y0549500D02*
D03*
Y0552000D02*
D03*
X0826000D02*
D03*
Y0547000D02*
D03*
Y0544500D02*
D03*
X0828500D02*
D03*
Y0547000D02*
D03*
Y0549500D02*
D03*
Y0552000D02*
D03*
X0831000D02*
D03*
Y0549500D02*
D03*
Y0547000D02*
D03*
Y0544500D02*
D03*
X0833500D02*
D03*
Y0547000D02*
D03*
Y0549500D02*
D03*
Y0552000D02*
D03*
X0821000Y0542000D02*
D03*
X0818500D02*
D03*
X0816000D02*
D03*
X0813500D02*
D03*
Y0549500D02*
D03*
Y0552000D02*
D03*
Y0547000D02*
D03*
Y0544500D02*
D03*
X0816000D02*
D03*
Y0547000D02*
D03*
Y0549500D02*
D03*
Y0552000D02*
D03*
X0818500D02*
D03*
Y0549500D02*
D03*
Y0547000D02*
D03*
Y0544500D02*
D03*
X0821000D02*
D03*
Y0547000D02*
D03*
Y0549500D02*
D03*
Y0552000D02*
D03*
X0836000D02*
D03*
Y0549500D02*
D03*
Y0547000D02*
D03*
Y0544500D02*
D03*
Y0542000D02*
D03*
X0621772Y0545000D02*
D03*
X0614500Y0541500D02*
D03*
X0671000Y0586900D02*
D03*
X0668500Y0584500D02*
D03*
X0666000Y0582000D02*
D03*
X0663500Y0579500D02*
D03*
X0660500D02*
D03*
X0645500Y0568500D02*
D03*
X0642500D02*
D03*
X0628272Y0570500D02*
D03*
X0646500Y0564000D02*
D03*
X0636228Y0568500D02*
D03*
X0653500Y0547000D02*
D03*
X0656500D02*
D03*
X0704000Y0617000D02*
D03*
X0727806Y0589691D02*
D03*
X0777000Y0612000D02*
D03*
X0853500Y0581772D02*
D03*
X0827000Y0582000D02*
D03*
Y0584500D02*
D03*
X0824500D02*
D03*
X0829500D02*
D03*
X0824500Y0582000D02*
D03*
Y0587000D02*
D03*
Y0589500D02*
D03*
Y0592000D02*
D03*
X0827000Y0589500D02*
D03*
Y0592000D02*
D03*
Y0587000D02*
D03*
X0829500D02*
D03*
Y0589500D02*
D03*
X0832000Y0587000D02*
D03*
Y0589500D02*
D03*
X0837600Y0586833D02*
D03*
X0827000Y0604000D02*
D03*
X0829500D02*
D03*
X0832000D02*
D03*
Y0606500D02*
D03*
X0829500D02*
D03*
X0832000Y0609000D02*
D03*
X0768000Y0596000D02*
D03*
X0771000D02*
D03*
X0770500Y0550228D02*
D03*
X0750000Y0614500D02*
D03*
X0777000Y0615000D02*
D03*
X0712000Y0624500D02*
D03*
D131*
X0782154Y0630000D02*
D03*
X0773846Y0632559D02*
D03*
Y0627441D02*
D03*
X0612847Y0567941D02*
D03*
Y0573059D02*
D03*
X0621153Y0570500D02*
D03*
D132*
X0831098Y0547000D02*
D03*
X0845901D02*
D03*
X0848402Y0632000D02*
D03*
X0833598D02*
D03*
D133*
X0733421Y0547500D02*
D03*
X0723579D02*
D03*
D134*
X0739740Y0550661D02*
D03*
Y0553221D02*
D03*
Y0555780D02*
D03*
Y0558339D02*
D03*
X0757260Y0550661D02*
D03*
Y0553221D02*
D03*
Y0555780D02*
D03*
Y0558339D02*
D03*
D135*
X0716150Y0565250D02*
D03*
X0699850D02*
D03*
Y0555750D02*
D03*
X0716150D02*
D03*
D136*
X0761686Y0629354D02*
D03*
Y0623646D02*
D03*
X0741214Y0629354D02*
D03*
Y0623646D02*
D03*
D137*
X0838500Y0623118D02*
D03*
Y0612882D02*
D03*
X0856500D02*
D03*
Y0623118D02*
D03*
X0847500D02*
D03*
Y0612882D02*
D03*
X0829500D02*
D03*
Y0623118D02*
D03*
X0820500D02*
D03*
Y0612882D02*
D03*
X0811500D02*
D03*
Y0623118D02*
D03*
D138*
X0585744Y0561500D02*
D03*
X0591256D02*
D03*
X0768244Y0568500D02*
D03*
X0773756D02*
D03*
D139*
X0792000Y0551098D02*
D03*
Y0565902D02*
D03*
D140*
X0796600Y0572543D02*
D03*
Y0575102D02*
D03*
Y0577661D02*
D03*
Y0580221D02*
D03*
Y0582780D02*
D03*
Y0585339D02*
D03*
Y0587898D02*
D03*
Y0590457D02*
D03*
X0774400D02*
D03*
Y0587898D02*
D03*
Y0585339D02*
D03*
Y0582780D02*
D03*
Y0580221D02*
D03*
Y0577661D02*
D03*
Y0575102D02*
D03*
Y0572543D02*
D03*
D141*
X0720894Y0581520D02*
D03*
Y0583488D02*
D03*
Y0585457D02*
D03*
Y0587425D02*
D03*
Y0589394D02*
D03*
Y0591362D02*
D03*
Y0593331D02*
D03*
Y0595299D02*
D03*
Y0597268D02*
D03*
Y0599236D02*
D03*
Y0601205D02*
D03*
Y0603173D02*
D03*
X0689201D02*
D03*
Y0601205D02*
D03*
Y0599236D02*
D03*
Y0597268D02*
D03*
Y0595299D02*
D03*
Y0593331D02*
D03*
Y0591362D02*
D03*
Y0589394D02*
D03*
Y0587425D02*
D03*
Y0585457D02*
D03*
Y0583488D02*
D03*
Y0581520D02*
D03*
D142*
X0715874Y0608193D02*
D03*
X0713906D02*
D03*
X0711937D02*
D03*
X0709969D02*
D03*
X0708000D02*
D03*
X0706032D02*
D03*
X0704063D02*
D03*
X0702095D02*
D03*
X0700126D02*
D03*
X0698158D02*
D03*
X0696189D02*
D03*
X0694221D02*
D03*
Y0576500D02*
D03*
X0696189D02*
D03*
X0698158D02*
D03*
X0700126D02*
D03*
X0702095D02*
D03*
X0704063D02*
D03*
X0706032D02*
D03*
X0708000D02*
D03*
X0709969D02*
D03*
X0711937D02*
D03*
X0713906D02*
D03*
X0715874D02*
D03*
D143*
X0594118Y0578339D02*
D03*
Y0575779D02*
D03*
Y0573220D02*
D03*
X0583882D02*
D03*
Y0575779D02*
D03*
Y0578339D02*
D03*
Y0570661D02*
D03*
X0594118D02*
D03*
D144*
X0684602Y0557000D02*
D03*
X0672398D02*
D03*
D145*
X0840839Y0591716D02*
D03*
X0849500D02*
D03*
X0858161D02*
D03*
Y0556284D02*
D03*
X0849500D02*
D03*
X0840839D02*
D03*
D146*
X0849500Y0582858D02*
D03*
D147*
X0856291Y0577347D02*
D03*
X0851764D02*
D03*
X0847236D02*
D03*
X0842708D02*
D03*
Y0566323D02*
D03*
X0847236D02*
D03*
X0851764D02*
D03*
X0856291D02*
D03*
D148*
X0750000Y0614626D02*
D03*
Y0605374D02*
D03*
X0722500Y0630626D02*
D03*
Y0621374D02*
D03*
X0601000Y0554374D02*
D03*
Y0563626D02*
D03*
D149*
X0734941Y0607839D02*
D03*
X0737500D02*
D03*
X0740059D02*
D03*
Y0600161D02*
D03*
X0737500D02*
D03*
X0734941D02*
D03*
D150*
X0737500Y0604000D02*
D03*
D151*
X0739661Y0588465D02*
D03*
X0742220D02*
D03*
X0744779D02*
D03*
X0747339D02*
D03*
X0739661Y0571535D02*
D03*
X0742220D02*
D03*
X0744779D02*
D03*
X0747339D02*
D03*
D152*
X0770020Y0620890D02*
D03*
Y0607110D02*
D03*
X0784980Y0620890D02*
D03*
M02*
