G04 Layer_Color=128*
%FSAX25Y25*%
%MOIN*%
G70*
G01*
G75*
%ADD11R,0.02165X0.01772*%
%ADD12R,0.01772X0.02165*%
%ADD13R,0.02047X0.01969*%
%ADD15R,0.01969X0.02047*%
%ADD16R,0.01772X0.03347*%
%ADD20R,0.01969X0.01772*%
%ADD28R,0.02756X0.05118*%
%ADD61R,0.03347X0.01772*%
%ADD62R,0.05984X0.06614*%
%ADD63R,0.04331X0.07480*%
%ADD64O,0.05315X0.01772*%
%ADD65R,0.06300X0.05500*%
%ADD66R,0.05512X0.03150*%
%ADD67R,0.07874X0.04331*%
%ADD68R,0.02756X0.03543*%
%ADD69R,0.06614X0.05984*%
%ADD70O,0.05800X0.01400*%
%ADD71O,0.06102X0.00984*%
%ADD72O,0.00984X0.06102*%
%ADD73R,0.03937X0.01772*%
%ADD74R,0.03937X0.04331*%
%ADD75R,0.06693X0.04331*%
%ADD76R,0.05118X0.02756*%
%ADD77R,0.03347X0.04331*%
%ADD78R,0.01772X0.01969*%
%ADD79R,0.01181X0.01772*%
%ADD81O,0.01772X0.06299*%
%ADD82R,0.08268X0.06693*%
G04:AMPARAMS|DCode=153|XSize=39.37mil|YSize=27.56mil|CornerRadius=0mil|HoleSize=0mil|Usage=FLASHONLY|Rotation=270.000|XOffset=0mil|YOffset=0mil|HoleType=Round|Shape=RoundedRectangle|*
%AMROUNDEDRECTD153*
21,1,0.03937,0.02756,0,0,270.0*
21,1,0.03937,0.02756,0,0,270.0*
1,1,0.00000,-0.01378,-0.01969*
1,1,0.00000,-0.01378,0.01969*
1,1,0.00000,0.01378,0.01969*
1,1,0.00000,0.01378,-0.01969*
%
%ADD153ROUNDEDRECTD153*%
D11*
X0667500Y0550228D02*
D03*
Y0553772D02*
D03*
X0725500Y0605728D02*
D03*
Y0609272D02*
D03*
X0729000Y0605728D02*
D03*
Y0609272D02*
D03*
X0770500Y0553772D02*
D03*
Y0550228D02*
D03*
X0767000D02*
D03*
Y0553772D02*
D03*
Y0582272D02*
D03*
Y0578728D02*
D03*
X0691000Y0616272D02*
D03*
Y0612728D02*
D03*
X0802500Y0578728D02*
D03*
Y0582272D02*
D03*
D12*
X0770272Y0632500D02*
D03*
X0766728D02*
D03*
X0639772Y0568500D02*
D03*
X0636228D02*
D03*
X0590271Y0545000D02*
D03*
X0586728D02*
D03*
X0626772Y0562500D02*
D03*
X0623228D02*
D03*
X0667772Y0559000D02*
D03*
X0664228D02*
D03*
X0629728Y0562500D02*
D03*
X0633272D02*
D03*
X0542272Y0593500D02*
D03*
X0538728D02*
D03*
X0548228Y0563000D02*
D03*
X0551772D02*
D03*
X0548228Y0571000D02*
D03*
X0551772D02*
D03*
X0699272Y0633000D02*
D03*
X0695728D02*
D03*
X0699272Y0629500D02*
D03*
X0695728D02*
D03*
X0732228D02*
D03*
X0735772D02*
D03*
X0756500Y0618500D02*
D03*
X0760043D02*
D03*
X0732228Y0623500D02*
D03*
X0735772D02*
D03*
X0755772Y0566500D02*
D03*
X0752228D02*
D03*
X0612728Y0562500D02*
D03*
X0616272D02*
D03*
X0606228D02*
D03*
X0609772D02*
D03*
X0636228D02*
D03*
X0639772D02*
D03*
X0633272Y0565500D02*
D03*
X0629728D02*
D03*
X0568772Y0561000D02*
D03*
X0565228D02*
D03*
X0618228Y0545000D02*
D03*
X0621772D02*
D03*
X0714228Y0622500D02*
D03*
X0717772D02*
D03*
X0714228Y0619000D02*
D03*
X0717772D02*
D03*
X0752228Y0570000D02*
D03*
X0755772D02*
D03*
X0586728Y0553500D02*
D03*
X0590272D02*
D03*
X0710728Y0614500D02*
D03*
X0714272D02*
D03*
X0628272Y0570500D02*
D03*
X0624728D02*
D03*
X0748772Y0566500D02*
D03*
X0745228D02*
D03*
D13*
X0735000Y0558614D02*
D03*
Y0555386D02*
D03*
X0763000Y0578886D02*
D03*
Y0582114D02*
D03*
X0598500Y0572886D02*
D03*
Y0576114D02*
D03*
X0694000Y0562114D02*
D03*
Y0558886D02*
D03*
X0722000D02*
D03*
Y0562114D02*
D03*
X0744500Y0601114D02*
D03*
Y0597886D02*
D03*
Y0604886D02*
D03*
Y0608114D02*
D03*
X0735500Y0590114D02*
D03*
Y0586886D02*
D03*
X0734500Y0572886D02*
D03*
Y0576114D02*
D03*
X0802500Y0585386D02*
D03*
Y0588614D02*
D03*
D15*
X0756114Y0546000D02*
D03*
X0752886D02*
D03*
X0548614Y0593500D02*
D03*
X0545386D02*
D03*
X0697614Y0617000D02*
D03*
X0694386D02*
D03*
X0700886D02*
D03*
X0704114D02*
D03*
X0719886Y0573500D02*
D03*
X0723114D02*
D03*
X0719886Y0577000D02*
D03*
X0723114D02*
D03*
X0699386Y0571000D02*
D03*
X0702614D02*
D03*
X0718886Y0610000D02*
D03*
X0722114D02*
D03*
X0689114Y0607000D02*
D03*
X0685886D02*
D03*
D16*
X0646441Y0558153D02*
D03*
X0651559D02*
D03*
X0649000Y0549847D02*
D03*
X0660500Y0558653D02*
D03*
X0657941Y0550347D02*
D03*
X0663059D02*
D03*
X0678941Y0616153D02*
D03*
X0684059D02*
D03*
X0681500Y0607846D02*
D03*
X0669000D02*
D03*
X0671559Y0616153D02*
D03*
X0666441D02*
D03*
X0653941D02*
D03*
X0659059D02*
D03*
X0656500Y0607846D02*
D03*
X0644000D02*
D03*
X0646559Y0616153D02*
D03*
X0641441D02*
D03*
X0628941D02*
D03*
X0634059D02*
D03*
X0631500Y0607846D02*
D03*
X0619000D02*
D03*
X0621559Y0616153D02*
D03*
X0616441D02*
D03*
X0603941D02*
D03*
X0609059D02*
D03*
X0606500Y0607846D02*
D03*
X0594000D02*
D03*
X0596559Y0616153D02*
D03*
X0591441D02*
D03*
X0578941D02*
D03*
X0584059D02*
D03*
X0581500Y0607846D02*
D03*
X0569000D02*
D03*
X0571559Y0616153D02*
D03*
X0566441D02*
D03*
X0553941D02*
D03*
X0559059D02*
D03*
X0556500Y0607846D02*
D03*
X0544000D02*
D03*
X0546559Y0616153D02*
D03*
X0541441D02*
D03*
X0611941Y0558153D02*
D03*
X0617059D02*
D03*
X0614500Y0549847D02*
D03*
X0626000D02*
D03*
X0628559Y0558153D02*
D03*
X0623441D02*
D03*
X0637500Y0549847D02*
D03*
X0640059Y0558153D02*
D03*
X0634941D02*
D03*
D20*
X0791626Y0596000D02*
D03*
X0782374D02*
D03*
D28*
X0674760Y0603000D02*
D03*
X0682240D02*
D03*
X0662260D02*
D03*
X0669740D02*
D03*
X0649760D02*
D03*
X0657240D02*
D03*
X0637260D02*
D03*
X0644740D02*
D03*
X0624760D02*
D03*
X0632240D02*
D03*
X0612260D02*
D03*
X0619740D02*
D03*
X0599760D02*
D03*
X0607240D02*
D03*
X0587260D02*
D03*
X0594740D02*
D03*
X0574760D02*
D03*
X0582240D02*
D03*
X0562260D02*
D03*
X0569740D02*
D03*
X0549760D02*
D03*
X0557240D02*
D03*
X0537260D02*
D03*
X0544740D02*
D03*
X0743240Y0613500D02*
D03*
X0735760D02*
D03*
D61*
X0782154Y0630000D02*
D03*
X0773846Y0632559D02*
D03*
Y0627441D02*
D03*
X0612847Y0567941D02*
D03*
Y0573059D02*
D03*
X0621153Y0570500D02*
D03*
D62*
X0831098Y0547000D02*
D03*
X0845901D02*
D03*
X0848402Y0632000D02*
D03*
X0833598D02*
D03*
D63*
X0733421Y0547500D02*
D03*
X0723579D02*
D03*
D64*
X0739740Y0550661D02*
D03*
Y0553221D02*
D03*
Y0555780D02*
D03*
Y0558339D02*
D03*
X0757260Y0550661D02*
D03*
Y0553221D02*
D03*
Y0555780D02*
D03*
Y0558339D02*
D03*
D65*
X0716150Y0565250D02*
D03*
X0699850D02*
D03*
Y0555750D02*
D03*
X0716150D02*
D03*
D66*
X0761686Y0629354D02*
D03*
Y0623646D02*
D03*
X0741214Y0629354D02*
D03*
Y0623646D02*
D03*
D67*
X0838500Y0623118D02*
D03*
Y0612882D02*
D03*
X0856500D02*
D03*
Y0623118D02*
D03*
X0847500D02*
D03*
Y0612882D02*
D03*
X0829500D02*
D03*
Y0623118D02*
D03*
X0820500D02*
D03*
Y0612882D02*
D03*
X0811500D02*
D03*
Y0623118D02*
D03*
D68*
X0585744Y0561500D02*
D03*
X0591256D02*
D03*
X0768244Y0568500D02*
D03*
X0773756D02*
D03*
D69*
X0792000Y0551098D02*
D03*
Y0565902D02*
D03*
D70*
X0796600Y0572543D02*
D03*
Y0575102D02*
D03*
Y0577661D02*
D03*
Y0580221D02*
D03*
Y0582780D02*
D03*
Y0585339D02*
D03*
Y0587898D02*
D03*
Y0590457D02*
D03*
X0774400D02*
D03*
Y0587898D02*
D03*
Y0585339D02*
D03*
Y0582780D02*
D03*
Y0580221D02*
D03*
Y0577661D02*
D03*
Y0575102D02*
D03*
Y0572543D02*
D03*
D71*
X0720894Y0581520D02*
D03*
Y0583488D02*
D03*
Y0585457D02*
D03*
Y0587425D02*
D03*
Y0589394D02*
D03*
Y0591362D02*
D03*
Y0593331D02*
D03*
Y0595299D02*
D03*
Y0597268D02*
D03*
Y0599236D02*
D03*
Y0601205D02*
D03*
Y0603173D02*
D03*
X0689201D02*
D03*
Y0601205D02*
D03*
Y0599236D02*
D03*
Y0597268D02*
D03*
Y0595299D02*
D03*
Y0593331D02*
D03*
Y0591362D02*
D03*
Y0589394D02*
D03*
Y0587425D02*
D03*
Y0585457D02*
D03*
Y0583488D02*
D03*
Y0581520D02*
D03*
D72*
X0715874Y0608193D02*
D03*
X0713906D02*
D03*
X0711937D02*
D03*
X0709969D02*
D03*
X0708000D02*
D03*
X0706032D02*
D03*
X0704063D02*
D03*
X0702095D02*
D03*
X0700126D02*
D03*
X0698158D02*
D03*
X0696189D02*
D03*
X0694221D02*
D03*
Y0576500D02*
D03*
X0696189D02*
D03*
X0698158D02*
D03*
X0700126D02*
D03*
X0702095D02*
D03*
X0704063D02*
D03*
X0706032D02*
D03*
X0708000D02*
D03*
X0709969D02*
D03*
X0711937D02*
D03*
X0713906D02*
D03*
X0715874D02*
D03*
D73*
X0594118Y0578339D02*
D03*
Y0575779D02*
D03*
Y0573220D02*
D03*
X0583882D02*
D03*
Y0575779D02*
D03*
Y0578339D02*
D03*
Y0570661D02*
D03*
X0594118D02*
D03*
D74*
X0684602Y0557000D02*
D03*
X0672398D02*
D03*
D75*
X0840839Y0591716D02*
D03*
X0849500D02*
D03*
X0858161D02*
D03*
Y0556284D02*
D03*
X0849500D02*
D03*
X0840839D02*
D03*
D76*
X0849500Y0582858D02*
D03*
D77*
X0856291Y0577347D02*
D03*
X0851764D02*
D03*
X0847236D02*
D03*
X0842708D02*
D03*
Y0566323D02*
D03*
X0847236D02*
D03*
X0851764D02*
D03*
X0856291D02*
D03*
D78*
X0750000Y0614626D02*
D03*
Y0605374D02*
D03*
X0722500Y0630626D02*
D03*
Y0621374D02*
D03*
X0601000Y0554374D02*
D03*
Y0563626D02*
D03*
D79*
X0734941Y0607839D02*
D03*
X0737500D02*
D03*
X0740059D02*
D03*
Y0600161D02*
D03*
X0737500D02*
D03*
X0734941D02*
D03*
D81*
X0739661Y0588465D02*
D03*
X0742220D02*
D03*
X0744779D02*
D03*
X0747339D02*
D03*
X0739661Y0571535D02*
D03*
X0742220D02*
D03*
X0744779D02*
D03*
X0747339D02*
D03*
D82*
X0770020Y0620890D02*
D03*
Y0607110D02*
D03*
X0784980Y0620890D02*
D03*
D153*
X0735728Y0604000D02*
D03*
X0739271D02*
D03*
M02*
