G04 Layer_Color=8421504*
%FSAX25Y25*%
%MOIN*%
G70*
G01*
G75*
%ADD11R,0.03898X0.01595*%
%ADD12R,0.02992X0.01595*%
%ADD13R,0.03543X0.06693*%
%ADD14R,0.02205X0.04701*%
%ADD15R,0.03504X0.09606*%
%ADD16R,0.22047X0.09606*%
%ADD17R,0.01400X0.05600*%
%ADD18R,0.07100X0.07500*%
%ADD19R,0.07500X0.07500*%
%ADD20O,0.00984X0.07480*%
%ADD21R,0.18307X0.16339*%
%ADD22R,0.04528X0.05709*%
%ADD23R,0.03150X0.08189*%
%ADD24R,0.02756X0.01181*%
%ADD25R,0.03937X0.02559*%
%ADD26R,0.12300X0.13780*%
%ADD27R,0.03200X0.03600*%
%ADD28R,0.04331X0.04803*%
G04:AMPARAMS|DCode=29|XSize=82.68mil|YSize=228.35mil|CornerRadius=41.34mil|HoleSize=0mil|Usage=FLASHONLY|Rotation=270.000|XOffset=0mil|YOffset=0mil|HoleType=Round|Shape=RoundedRectangle|*
%AMROUNDEDRECTD29*
21,1,0.08268,0.14567,0,0,270.0*
21,1,0.00000,0.22835,0,0,270.0*
1,1,0.08268,-0.07284,0.00000*
1,1,0.08268,-0.07284,0.00000*
1,1,0.08268,0.07284,0.00000*
1,1,0.08268,0.07284,0.00000*
%
%ADD29ROUNDEDRECTD29*%
%ADD30R,0.06496X0.04724*%
%ADD31O,0.01181X0.05512*%
%ADD32R,0.02756X0.03150*%
%ADD33R,0.03937X0.12598*%
%ADD34R,0.03740X0.10236*%
%ADD35R,0.03740X0.09843*%
%ADD36R,0.10236X0.03740*%
%ADD37R,0.09843X0.03740*%
%ADD38R,0.03740X0.06693*%
%ADD39R,0.01969X0.02047*%
%ADD40R,0.02047X0.01969*%
%ADD41R,0.02165X0.01772*%
%ADD42R,0.01772X0.02165*%
%ADD43R,0.06693X0.03543*%
%ADD44R,0.04803X0.04331*%
%ADD45R,0.01969X0.01772*%
%ADD46R,0.03150X0.02756*%
%ADD47R,0.03543X0.02756*%
%ADD48R,0.01772X0.03937*%
%ADD57C,0.12205*%
G36*
X0777917Y0591126D02*
X0777917Y0591125D01*
X0777917Y0590738D01*
X0777766Y0589977D01*
X0777469Y0589261D01*
X0777038Y0588616D01*
X0776490Y0588068D01*
X0775845Y0587637D01*
X0775128Y0587340D01*
X0774368Y0587189D01*
X0773980D01*
X0759020Y0587189D01*
X0759020Y0587189D01*
X0758632Y0587189D01*
X0757871Y0587340D01*
X0757155Y0587637D01*
X0756510Y0588068D01*
X0755962Y0588616D01*
X0755531Y0589261D01*
X0755234Y0589978D01*
X0755083Y0590738D01*
X0755083Y0591126D01*
X0755082Y0595457D01*
X0777917D01*
X0777917Y0591126D01*
D02*
G37*
G36*
X0773981Y0610811D02*
X0774368Y0610811D01*
X0775129Y0610660D01*
X0775845Y0610363D01*
X0776490Y0609932D01*
X0777038Y0609384D01*
X0777469Y0608739D01*
X0777766Y0608022D01*
X0777917Y0607262D01*
Y0606874D01*
X0777917Y0606874D01*
X0777917Y0602543D01*
X0755083D01*
X0755083Y0606874D01*
X0755083Y0607262D01*
X0755234Y0608022D01*
X0755531Y0608739D01*
X0755962Y0609383D01*
X0756510Y0609932D01*
X0757155Y0610363D01*
X0757871Y0610660D01*
X0758632Y0610811D01*
X0759020Y0610811D01*
X0759020Y0610811D01*
X0773981Y0610811D01*
D02*
G37*
D11*
X0827650Y0571202D02*
D03*
Y0573801D02*
D03*
Y0576399D02*
D03*
Y0578998D02*
D03*
D12*
X0815898Y0571202D02*
D03*
Y0573801D02*
D03*
Y0576399D02*
D03*
Y0578998D02*
D03*
D13*
X0848709Y0559500D02*
D03*
X0837291D02*
D03*
Y0567000D02*
D03*
X0848709D02*
D03*
D14*
X0756900Y0581951D02*
D03*
X0751900D02*
D03*
X0746900D02*
D03*
X0741900D02*
D03*
X0756900Y0562049D02*
D03*
X0751900D02*
D03*
X0746900D02*
D03*
X0741900D02*
D03*
D15*
X0836524Y0612764D02*
D03*
Y0593236D02*
D03*
D16*
X0852804D02*
D03*
Y0612764D02*
D03*
D17*
X0722618Y0621500D02*
D03*
X0712300D02*
D03*
X0720059D02*
D03*
X0717500D02*
D03*
X0714900D02*
D03*
D18*
X0733248Y0632000D02*
D03*
X0701700D02*
D03*
D19*
X0722500D02*
D03*
X0712500D02*
D03*
D20*
X0602331Y0551213D02*
D03*
X0604299D02*
D03*
X0606268D02*
D03*
X0608236D02*
D03*
X0610205D02*
D03*
X0612173D02*
D03*
X0614142D02*
D03*
X0616110D02*
D03*
X0618079D02*
D03*
X0620047D02*
D03*
X0622016D02*
D03*
X0623984D02*
D03*
X0625953D02*
D03*
X0627921D02*
D03*
X0629890D02*
D03*
X0631858D02*
D03*
X0633827D02*
D03*
X0635795D02*
D03*
X0637764D02*
D03*
X0639732D02*
D03*
X0641701D02*
D03*
X0643669D02*
D03*
X0602331Y0577787D02*
D03*
X0604299D02*
D03*
X0606268D02*
D03*
X0608236D02*
D03*
X0610205D02*
D03*
X0612173D02*
D03*
X0614142D02*
D03*
X0616110D02*
D03*
X0618079D02*
D03*
X0620047D02*
D03*
X0622016D02*
D03*
X0623984D02*
D03*
X0625953D02*
D03*
X0627921D02*
D03*
X0629890D02*
D03*
X0631858D02*
D03*
X0633827D02*
D03*
X0635795D02*
D03*
X0637764D02*
D03*
X0639732D02*
D03*
X0641701D02*
D03*
X0643669D02*
D03*
D21*
X0757437Y0549000D02*
D03*
D22*
X0742673Y0552878D02*
D03*
Y0545122D02*
D03*
D23*
X0785000Y0607000D02*
D03*
D24*
X0788898Y0603063D02*
D03*
X0781102D02*
D03*
Y0605031D02*
D03*
Y0607000D02*
D03*
Y0608968D02*
D03*
Y0610937D02*
D03*
X0788898D02*
D03*
Y0608968D02*
D03*
Y0607000D02*
D03*
Y0605031D02*
D03*
D25*
X0718429Y0611134D02*
D03*
Y0602866D02*
D03*
X0734571Y0611134D02*
D03*
Y0602866D02*
D03*
X0713571D02*
D03*
Y0611134D02*
D03*
X0697429Y0602866D02*
D03*
Y0611134D02*
D03*
D26*
X0732100Y0560500D02*
D03*
X0696900D02*
D03*
D27*
X0812760Y0584363D02*
D03*
X0820300D02*
D03*
X0816500Y0592700D02*
D03*
X0832940Y0566237D02*
D03*
X0825400D02*
D03*
X0829200Y0557900D02*
D03*
D28*
X0751512Y0601000D02*
D03*
X0740488D02*
D03*
Y0593000D02*
D03*
X0751512D02*
D03*
D29*
X0766500Y0606677D02*
D03*
Y0591323D02*
D03*
D30*
X0654000Y0559799D02*
D03*
Y0547201D02*
D03*
D31*
X0830937Y0614358D02*
D03*
X0828969D02*
D03*
X0827000D02*
D03*
X0825031D02*
D03*
X0823063D02*
D03*
X0830937Y0596642D02*
D03*
X0828969D02*
D03*
X0827000D02*
D03*
X0825031D02*
D03*
X0823063D02*
D03*
D32*
X0580350Y0556000D02*
D03*
X0586650D02*
D03*
X0580350Y0549500D02*
D03*
X0586650D02*
D03*
X0580350Y0543000D02*
D03*
X0586650D02*
D03*
X0580350Y0562500D02*
D03*
X0586650D02*
D03*
D33*
X0789500Y0546146D02*
D03*
Y0576854D02*
D03*
D34*
X0792512Y0593000D02*
D03*
D35*
X0781488D02*
D03*
D36*
X0801000Y0589988D02*
D03*
D37*
Y0601012D02*
D03*
D38*
X0674488Y0569000D02*
D03*
X0685512D02*
D03*
X0674488Y0560500D02*
D03*
X0685512D02*
D03*
D39*
X0823886Y0584000D02*
D03*
X0827114D02*
D03*
X0714114Y0598500D02*
D03*
X0710886D02*
D03*
X0784614Y0615500D02*
D03*
X0781386D02*
D03*
X0684039Y0602000D02*
D03*
X0680811D02*
D03*
X0671539D02*
D03*
X0668311D02*
D03*
X0659039D02*
D03*
X0655811D02*
D03*
X0646539D02*
D03*
X0643311D02*
D03*
X0634039D02*
D03*
X0630811D02*
D03*
X0621539D02*
D03*
X0618311D02*
D03*
X0609039D02*
D03*
X0605811D02*
D03*
X0596539D02*
D03*
X0593311D02*
D03*
X0584039D02*
D03*
X0580811D02*
D03*
X0571614D02*
D03*
X0568386D02*
D03*
X0559114D02*
D03*
X0555886D02*
D03*
X0546614D02*
D03*
X0543386D02*
D03*
D40*
X0848500Y0578386D02*
D03*
Y0581614D02*
D03*
X0812500Y0577386D02*
D03*
Y0580614D02*
D03*
X0732500Y0590114D02*
D03*
Y0586886D02*
D03*
X0818500Y0598886D02*
D03*
Y0602114D02*
D03*
X0621500Y0544614D02*
D03*
Y0541386D02*
D03*
X0624500Y0544614D02*
D03*
Y0541386D02*
D03*
X0652000Y0573114D02*
D03*
Y0569886D02*
D03*
X0618500Y0544614D02*
D03*
Y0541386D02*
D03*
X0793000Y0613114D02*
D03*
Y0609886D02*
D03*
D41*
X0821000Y0556928D02*
D03*
Y0560472D02*
D03*
X0853500Y0581772D02*
D03*
Y0578228D02*
D03*
X0732500Y0597272D02*
D03*
Y0593728D02*
D03*
X0631886Y0544944D02*
D03*
Y0541401D02*
D03*
X0628386Y0544944D02*
D03*
Y0541401D02*
D03*
X0635389Y0544944D02*
D03*
Y0541401D02*
D03*
X0656000Y0573272D02*
D03*
Y0569728D02*
D03*
X0645860Y0541401D02*
D03*
Y0544944D02*
D03*
X0642386Y0541401D02*
D03*
Y0544944D02*
D03*
X0638886Y0541401D02*
D03*
Y0544944D02*
D03*
X0684500Y0610272D02*
D03*
Y0606728D02*
D03*
X0672000Y0610272D02*
D03*
Y0606728D02*
D03*
X0659500Y0610272D02*
D03*
Y0606728D02*
D03*
X0647000Y0610272D02*
D03*
Y0606728D02*
D03*
X0634500Y0610272D02*
D03*
Y0606728D02*
D03*
X0622000Y0610272D02*
D03*
Y0606728D02*
D03*
X0609500Y0610272D02*
D03*
Y0606728D02*
D03*
X0597000Y0610272D02*
D03*
Y0606728D02*
D03*
X0584500Y0610272D02*
D03*
Y0606728D02*
D03*
X0572000Y0610272D02*
D03*
Y0606728D02*
D03*
X0559500Y0610272D02*
D03*
Y0606728D02*
D03*
X0547000Y0610272D02*
D03*
Y0606728D02*
D03*
X0543500Y0610272D02*
D03*
Y0606728D02*
D03*
X0556000Y0610272D02*
D03*
Y0606728D02*
D03*
X0568500Y0610272D02*
D03*
Y0606728D02*
D03*
X0581000Y0610272D02*
D03*
Y0606728D02*
D03*
X0593500Y0610272D02*
D03*
Y0606728D02*
D03*
X0606000Y0610272D02*
D03*
Y0606728D02*
D03*
X0618500Y0610272D02*
D03*
Y0606728D02*
D03*
X0631000Y0610272D02*
D03*
Y0606728D02*
D03*
X0643500Y0610272D02*
D03*
Y0606728D02*
D03*
X0656000Y0610272D02*
D03*
Y0606728D02*
D03*
X0668500Y0610272D02*
D03*
Y0606728D02*
D03*
X0681000Y0610272D02*
D03*
Y0606728D02*
D03*
D42*
X0817728Y0563500D02*
D03*
X0821272D02*
D03*
X0815772Y0605000D02*
D03*
X0812228D02*
D03*
X0815772Y0609000D02*
D03*
X0812228D02*
D03*
X0717728Y0598500D02*
D03*
X0721272D02*
D03*
D43*
X0764100Y0578209D02*
D03*
Y0566791D02*
D03*
D44*
X0663000Y0571512D02*
D03*
Y0560488D02*
D03*
D45*
X0684626Y0597000D02*
D03*
X0675374D02*
D03*
X0672126D02*
D03*
X0662874D02*
D03*
X0659626D02*
D03*
X0650374D02*
D03*
X0647126D02*
D03*
X0637874D02*
D03*
X0634626D02*
D03*
X0625374D02*
D03*
X0622126D02*
D03*
X0612874D02*
D03*
X0609626D02*
D03*
X0600374D02*
D03*
X0597126D02*
D03*
X0587874D02*
D03*
X0584626D02*
D03*
X0575374D02*
D03*
X0572126D02*
D03*
X0562874D02*
D03*
X0559626D02*
D03*
X0550374D02*
D03*
X0547126D02*
D03*
X0537874D02*
D03*
D46*
X0539000Y0602850D02*
D03*
Y0609150D02*
D03*
X0551500Y0602850D02*
D03*
Y0609150D02*
D03*
X0564000Y0602850D02*
D03*
Y0609150D02*
D03*
X0576500Y0602850D02*
D03*
Y0609150D02*
D03*
X0589000Y0602850D02*
D03*
Y0609150D02*
D03*
X0601500Y0602850D02*
D03*
Y0609150D02*
D03*
X0614000Y0602850D02*
D03*
Y0609150D02*
D03*
X0626500Y0602850D02*
D03*
Y0609150D02*
D03*
X0639000Y0602850D02*
D03*
Y0609150D02*
D03*
X0651500Y0602850D02*
D03*
Y0609150D02*
D03*
X0664000Y0602850D02*
D03*
Y0609150D02*
D03*
X0676500Y0602850D02*
D03*
Y0609150D02*
D03*
D47*
X0713000Y0584744D02*
D03*
Y0590256D02*
D03*
X0690500Y0576244D02*
D03*
Y0581756D02*
D03*
X0707500Y0584744D02*
D03*
Y0590256D02*
D03*
X0696500Y0584744D02*
D03*
Y0590256D02*
D03*
X0702000Y0584744D02*
D03*
Y0590256D02*
D03*
D48*
X0727839Y0594118D02*
D03*
X0725280D02*
D03*
X0722720D02*
D03*
Y0583882D02*
D03*
X0725280D02*
D03*
X0727839D02*
D03*
X0720161D02*
D03*
Y0594118D02*
D03*
D57*
X0876500Y0629500D02*
D03*
Y0547500D02*
D03*
X0524000Y0629500D02*
D03*
Y0547500D02*
D03*
M02*
