G04 Layer_Physical_Order=2*
G04 Layer_Color=32768*
%FSAX25Y25*%
%MOIN*%
G70*
G01*
G75*
%ADD49C,0.01000*%
%ADD59C,0.04000*%
%ADD60C,0.05537*%
%ADD61C,0.04750*%
%ADD62C,0.13805*%
%ADD63C,0.02600*%
D49*
X0808000Y0616000D02*
Y0620000D01*
X0806250Y0614250D02*
X0808000Y0616000D01*
X0786000Y0583000D02*
X0802000D01*
X0810000Y0537500D02*
Y0557000D01*
X0823500Y0570500D01*
Y0603500D01*
X0832500Y0612500D01*
X0866500D01*
X0802000Y0583000D02*
X0806250Y0587250D01*
D59*
X0524000Y0557500D02*
G03*
X0524000Y0537500I0000000J-0010000D01*
G01*
X0876500D02*
G03*
X0876500Y0557500I0000000J0010000D01*
G01*
X0866500Y0562500D02*
G03*
X0871500Y0557500I0005000J0000000D01*
G01*
Y0619500D02*
G03*
X0866500Y0614500I0000000J-0005000D01*
G01*
X0876500Y0619500D02*
G03*
X0876500Y0639500I0000000J0010000D01*
G01*
X0524000D02*
G03*
X0524000Y0619500I0000000J-0010000D01*
G01*
X0534000Y0614500D02*
G03*
X0529000Y0619500I-0005000J0000000D01*
G01*
Y0557500D02*
G03*
X0534000Y0562500I0000000J0005000D01*
G01*
X0524000Y0537500D02*
X0876500D01*
X0524000Y0639500D02*
X0876500D01*
X0524000Y0557500D02*
X0529000D01*
Y0557500D02*
Y0557500D01*
X0534000Y0562500D02*
Y0614500D01*
X0534000D02*
X0534000D01*
X0524000Y0619500D02*
X0529000D01*
X0871500D02*
X0876500D01*
X0871500D02*
Y0619500D01*
X0866500Y0562500D02*
Y0614500D01*
X0871500Y0557500D02*
Y0557500D01*
X0876500D01*
D60*
X0547445Y0624500D02*
D03*
X0557287D02*
D03*
X0567130D02*
D03*
X0576972D02*
D03*
X0586815D02*
D03*
X0596658D02*
D03*
X0606500D02*
D03*
X0616342D02*
D03*
X0626185D02*
D03*
X0636028D02*
D03*
X0645870D02*
D03*
X0655713D02*
D03*
X0665555D02*
D03*
D61*
X0543000Y0547200D02*
D03*
Y0555100D02*
D03*
Y0563000D02*
D03*
Y0570874D02*
D03*
X0562500Y0547363D02*
D03*
Y0555237D02*
D03*
Y0572063D02*
D03*
Y0579937D02*
D03*
X0688000Y0622063D02*
D03*
D62*
X0876500Y0629500D02*
D03*
Y0547500D02*
D03*
D63*
X0638886Y0541401D02*
D03*
X0680673Y0577600D02*
D03*
X0681000Y0598500D02*
D03*
X0678000D02*
D03*
X0681000Y0610272D02*
D03*
X0685500Y0554000D02*
D03*
Y0557000D02*
D03*
X0682500D02*
D03*
Y0554000D02*
D03*
X0670500Y0567000D02*
D03*
X0668000Y0575500D02*
D03*
X0671000D02*
D03*
X0674000D02*
D03*
X0678500D02*
D03*
X0661000Y0581500D02*
D03*
X0666000Y0586500D02*
D03*
X0668500Y0589000D02*
D03*
X0663500Y0584000D02*
D03*
X0658000Y0581500D02*
D03*
X0703000Y0622000D02*
D03*
X0698500D02*
D03*
X0701000Y0626000D02*
D03*
X0694500Y0614000D02*
D03*
X0741000Y0608500D02*
D03*
Y0611500D02*
D03*
X0850500Y0552000D02*
D03*
Y0549500D02*
D03*
Y0547000D02*
D03*
Y0544500D02*
D03*
X0848000D02*
D03*
Y0547000D02*
D03*
Y0549500D02*
D03*
Y0552000D02*
D03*
X0845500D02*
D03*
Y0549500D02*
D03*
Y0547000D02*
D03*
Y0544500D02*
D03*
X0843000D02*
D03*
Y0547000D02*
D03*
Y0552000D02*
D03*
Y0549500D02*
D03*
Y0542000D02*
D03*
X0845500D02*
D03*
X0848000D02*
D03*
X0850500D02*
D03*
X0863000Y0552000D02*
D03*
Y0549500D02*
D03*
Y0547000D02*
D03*
Y0544500D02*
D03*
X0860500D02*
D03*
Y0547000D02*
D03*
Y0549500D02*
D03*
Y0552000D02*
D03*
X0858000D02*
D03*
Y0549500D02*
D03*
Y0547000D02*
D03*
Y0544500D02*
D03*
X0855500D02*
D03*
Y0547000D02*
D03*
Y0552000D02*
D03*
X0853000D02*
D03*
Y0549500D02*
D03*
Y0547000D02*
D03*
Y0544500D02*
D03*
X0855500Y0549500D02*
D03*
X0853000Y0542000D02*
D03*
X0855500D02*
D03*
X0858000D02*
D03*
X0860500D02*
D03*
X0863000D02*
D03*
X0840500D02*
D03*
Y0549500D02*
D03*
Y0552000D02*
D03*
Y0547000D02*
D03*
Y0544500D02*
D03*
X0618500Y0544968D02*
D03*
X0734500Y0576468D02*
D03*
X0799500Y0583000D02*
D03*
X0691000Y0616272D02*
D03*
X0798000Y0617000D02*
D03*
X0801000D02*
D03*
X0850500Y0634500D02*
D03*
X0853000D02*
D03*
X0855500D02*
D03*
Y0632000D02*
D03*
Y0629500D02*
D03*
X0853000D02*
D03*
X0850500D02*
D03*
Y0632000D02*
D03*
X0853000D02*
D03*
X0789000Y0548500D02*
D03*
X0792000D02*
D03*
X0795000D02*
D03*
Y0551500D02*
D03*
X0792000D02*
D03*
X0789000D02*
D03*
X0689114Y0607000D02*
D03*
X0723000Y0621000D02*
D03*
X0605283Y0572565D02*
D03*
X0586000Y0586500D02*
D03*
X0726500Y0573500D02*
D03*
X0756000Y0590000D02*
D03*
X0724500Y0613500D02*
D03*
X0719000Y0616000D02*
D03*
X0722000D02*
D03*
X0717500Y0619000D02*
D03*
X0548500Y0559531D02*
D03*
Y0567728D02*
D03*
X0707000Y0602000D02*
D03*
X0741000Y0600000D02*
D03*
X0768000Y0593000D02*
D03*
X0765000D02*
D03*
X0744000Y0608500D02*
D03*
X0747000D02*
D03*
X0750000D02*
D03*
Y0611500D02*
D03*
X0747000D02*
D03*
X0744000D02*
D03*
X0741000Y0614500D02*
D03*
X0744000D02*
D03*
X0747000D02*
D03*
X0765000Y0596000D02*
D03*
X0762000Y0593000D02*
D03*
Y0596000D02*
D03*
X0759000Y0593000D02*
D03*
Y0596000D02*
D03*
X0756000Y0593000D02*
D03*
X0738000Y0597000D02*
D03*
X0741000D02*
D03*
X0744000D02*
D03*
X0784000Y0596000D02*
D03*
X0781000D02*
D03*
X0720000Y0621500D02*
D03*
X0788500Y0611500D02*
D03*
X0712500Y0602000D02*
D03*
X0709600D02*
D03*
X0701000D02*
D03*
X0704000D02*
D03*
X0714000Y0593500D02*
D03*
X0716000Y0596000D02*
D03*
X0718886Y0610000D02*
D03*
X0637387Y0565613D02*
D03*
X0620047Y0555451D02*
D03*
X0802000Y0606500D02*
D03*
X0799000D02*
D03*
Y0603500D02*
D03*
X0802000D02*
D03*
Y0600500D02*
D03*
X0799000D02*
D03*
X0796000Y0606500D02*
D03*
Y0600500D02*
D03*
X0793000Y0606500D02*
D03*
Y0603500D02*
D03*
X0796000D02*
D03*
X0799000Y0597500D02*
D03*
X0802000D02*
D03*
X0861000Y0583500D02*
D03*
X0863500D02*
D03*
X0853500Y0603500D02*
D03*
X0856000D02*
D03*
X0858500D02*
D03*
X0861000D02*
D03*
X0863500D02*
D03*
X0841000D02*
D03*
X0843500D02*
D03*
X0846000D02*
D03*
X0848500D02*
D03*
X0851000D02*
D03*
Y0601000D02*
D03*
Y0598500D02*
D03*
Y0596000D02*
D03*
Y0593500D02*
D03*
Y0591000D02*
D03*
Y0588500D02*
D03*
X0848500D02*
D03*
Y0591000D02*
D03*
Y0593500D02*
D03*
Y0596000D02*
D03*
Y0598500D02*
D03*
Y0601000D02*
D03*
X0846000D02*
D03*
Y0598500D02*
D03*
Y0596000D02*
D03*
Y0593500D02*
D03*
Y0591000D02*
D03*
Y0588500D02*
D03*
X0843500D02*
D03*
Y0591000D02*
D03*
Y0596000D02*
D03*
Y0601000D02*
D03*
X0841000D02*
D03*
Y0598500D02*
D03*
Y0596000D02*
D03*
Y0593500D02*
D03*
Y0591000D02*
D03*
Y0588500D02*
D03*
X0843500Y0593500D02*
D03*
Y0598500D02*
D03*
Y0586000D02*
D03*
X0846000D02*
D03*
X0848500D02*
D03*
X0851000D02*
D03*
X0863500Y0601000D02*
D03*
Y0598500D02*
D03*
Y0596000D02*
D03*
Y0593500D02*
D03*
Y0591000D02*
D03*
Y0588500D02*
D03*
X0861000D02*
D03*
Y0591000D02*
D03*
Y0593500D02*
D03*
Y0596000D02*
D03*
Y0598500D02*
D03*
Y0601000D02*
D03*
X0858500D02*
D03*
Y0598500D02*
D03*
Y0596000D02*
D03*
Y0593500D02*
D03*
Y0591000D02*
D03*
Y0588500D02*
D03*
X0856000D02*
D03*
Y0591000D02*
D03*
Y0596000D02*
D03*
Y0601000D02*
D03*
X0853500D02*
D03*
Y0598500D02*
D03*
Y0596000D02*
D03*
Y0593500D02*
D03*
Y0591000D02*
D03*
Y0588500D02*
D03*
X0856000Y0593500D02*
D03*
Y0598500D02*
D03*
X0853500Y0586000D02*
D03*
X0856000D02*
D03*
X0858500D02*
D03*
X0861000D02*
D03*
X0863500D02*
D03*
X0719886Y0577000D02*
D03*
Y0573500D02*
D03*
X0841000Y0564000D02*
D03*
X0858500Y0579000D02*
D03*
Y0576500D02*
D03*
Y0574000D02*
D03*
Y0571500D02*
D03*
Y0569000D02*
D03*
Y0566500D02*
D03*
X0856000D02*
D03*
Y0569000D02*
D03*
Y0571500D02*
D03*
Y0574000D02*
D03*
Y0576500D02*
D03*
Y0579000D02*
D03*
X0853500D02*
D03*
Y0576500D02*
D03*
Y0574000D02*
D03*
Y0571500D02*
D03*
Y0569000D02*
D03*
Y0566500D02*
D03*
X0851000D02*
D03*
Y0569000D02*
D03*
Y0574000D02*
D03*
Y0579000D02*
D03*
X0848500D02*
D03*
Y0576500D02*
D03*
Y0574000D02*
D03*
Y0571500D02*
D03*
Y0569000D02*
D03*
Y0566500D02*
D03*
X0846000D02*
D03*
Y0569000D02*
D03*
Y0571500D02*
D03*
Y0576500D02*
D03*
X0843500Y0574000D02*
D03*
Y0566500D02*
D03*
X0851000Y0571500D02*
D03*
X0846000Y0574000D02*
D03*
X0851000Y0576500D02*
D03*
X0843500Y0564000D02*
D03*
X0846000D02*
D03*
X0848500D02*
D03*
X0851000D02*
D03*
X0853500D02*
D03*
X0856000D02*
D03*
X0858500D02*
D03*
X0843500Y0576500D02*
D03*
X0846000Y0579000D02*
D03*
X0738000Y0600000D02*
D03*
X0723000Y0623500D02*
D03*
X0544000Y0598500D02*
D03*
X0556500D02*
D03*
X0569000D02*
D03*
X0581500D02*
D03*
X0594000D02*
D03*
X0606500D02*
D03*
X0619000D02*
D03*
X0631500D02*
D03*
X0541000D02*
D03*
X0553500D02*
D03*
X0566000D02*
D03*
X0578500D02*
D03*
X0591000D02*
D03*
X0603500D02*
D03*
X0616000D02*
D03*
X0628500D02*
D03*
X0543500Y0610272D02*
D03*
X0556000D02*
D03*
X0568500D02*
D03*
X0581000D02*
D03*
X0593500D02*
D03*
X0606000D02*
D03*
X0618500D02*
D03*
X0538000Y0603000D02*
D03*
X0550500D02*
D03*
X0563000D02*
D03*
X0575500D02*
D03*
X0600500D02*
D03*
X0613000D02*
D03*
X0625500D02*
D03*
X0638000D02*
D03*
X0650500D02*
D03*
X0663000D02*
D03*
X0675500D02*
D03*
X0588000D02*
D03*
X0656000Y0610272D02*
D03*
X0668500D02*
D03*
X0644000Y0598500D02*
D03*
X0656500D02*
D03*
X0669000D02*
D03*
X0641000D02*
D03*
X0653500D02*
D03*
X0666000D02*
D03*
X0631000Y0610272D02*
D03*
X0643500D02*
D03*
X0538110Y0597000D02*
D03*
X0538728Y0593500D02*
D03*
X0586000Y0590000D02*
D03*
X0586500Y0543000D02*
D03*
X0786500Y0584500D02*
D03*
X0621772Y0545000D02*
D03*
X0645500Y0568500D02*
D03*
X0642500D02*
D03*
X0628272Y0570500D02*
D03*
X0646500Y0564000D02*
D03*
X0636228Y0568500D02*
D03*
X0777000Y0612000D02*
D03*
X0853500Y0581772D02*
D03*
X0837600Y0586833D02*
D03*
X0768000Y0596000D02*
D03*
X0771000D02*
D03*
X0770500Y0550228D02*
D03*
X0750000Y0614500D02*
D03*
X0777000Y0615000D02*
D03*
X0747000Y0597000D02*
D03*
X0767000Y0582272D02*
D03*
Y0584500D02*
D03*
X0752000Y0588000D02*
D03*
X0747500D02*
D03*
X0552000Y0589500D02*
D03*
X0586500Y0556000D02*
D03*
Y0562500D02*
D03*
X0578000Y0546000D02*
D03*
X0652000Y0549000D02*
D03*
X0655000D02*
D03*
X0578000Y0552500D02*
D03*
X0574500Y0571500D02*
D03*
X0572000Y0561000D02*
D03*
X0574500Y0559000D02*
D03*
X0578000D02*
D03*
X0586551Y0549500D02*
D03*
X0843500Y0571500D02*
D03*
Y0569000D02*
D03*
X0841000Y0566500D02*
D03*
Y0571500D02*
D03*
Y0569000D02*
D03*
X0739500Y0588000D02*
D03*
X0841000Y0574000D02*
D03*
X0761000Y0560500D02*
D03*
X0858500Y0583500D02*
D03*
X0807000Y0617000D02*
D03*
X0805500Y0553000D02*
D03*
X0808500D02*
D03*
Y0550000D02*
D03*
X0712000Y0595876D02*
D03*
X0729000Y0609272D02*
D03*
X0725000Y0599000D02*
D03*
X0727500Y0590500D02*
D03*
X0682500Y0544000D02*
D03*
X0685500D02*
D03*
X0699995Y0580631D02*
D03*
M02*
