G04 Layer_Physical_Order=4*
G04 Layer_Color=16711680*
%FSAX25Y25*%
%MOIN*%
G70*
G01*
G75*
%ADD18R,0.01969X0.01772*%
%ADD29R,0.02756X0.05118*%
%ADD41R,0.02165X0.01772*%
%ADD42R,0.01969X0.02047*%
%ADD43R,0.02047X0.01969*%
%ADD44R,0.01772X0.02165*%
%ADD46R,0.01772X0.03347*%
%ADD47C,0.01000*%
%ADD48C,0.02000*%
%ADD49C,0.06890*%
%ADD50C,0.07874*%
%ADD51C,0.06300*%
%ADD52C,0.12205*%
%ADD53C,0.02000*%
%ADD61R,0.01772X0.01969*%
%ADD62R,0.07874X0.04331*%
%ADD63R,0.08268X0.06693*%
%ADD64O,0.01772X0.06299*%
%ADD65R,0.06299X0.03937*%
%ADD66R,0.01181X0.01772*%
%ADD67R,0.03347X0.01772*%
%ADD68R,0.06693X0.04331*%
%ADD69R,0.03347X0.04331*%
%ADD70R,0.05118X0.02756*%
%ADD71R,0.03937X0.04331*%
%ADD72R,0.03937X0.01772*%
%ADD73O,0.00984X0.06102*%
%ADD74O,0.06102X0.00984*%
%ADD75R,0.02756X0.03543*%
%ADD76O,0.05800X0.01400*%
%ADD77R,0.06614X0.05984*%
%ADD78R,0.05984X0.06614*%
%ADD79R,0.05512X0.03150*%
%ADD80R,0.06300X0.05500*%
%ADD81O,0.05315X0.01772*%
%ADD82R,0.04331X0.07480*%
%ADD83C,0.01500*%
G36*
X0831638Y0617500D02*
X0865000Y0617500D01*
X0865000Y0605217D01*
X0838717Y0605217D01*
X0836000Y0602500D01*
X0836000Y0601500D01*
Y0563000D01*
X0836000Y0554000D01*
X0837000Y0553000D01*
X0837000Y0539000D01*
X0812500Y0539000D01*
X0812500Y0555500D01*
X0804500Y0563500D01*
X0804500Y0612000D01*
X0810000Y0617500D01*
X0831638Y0617500D01*
D02*
G37*
G36*
X0714752Y0608193D02*
X0714760Y0608152D01*
Y0605634D01*
X0714845Y0605208D01*
X0714906Y0605117D01*
Y0604507D01*
X0714981Y0604558D01*
X0715395Y0604640D01*
X0715448Y0604605D01*
X0715665Y0604052D01*
X0715621Y0603833D01*
X0715621Y0603833D01*
Y0602514D01*
X0715621Y0602514D01*
X0715706Y0602084D01*
X0715950Y0601721D01*
X0717254Y0600416D01*
X0717262Y0600407D01*
X0717280Y0600383D01*
X0717364Y0599749D01*
X0717306Y0599662D01*
X0717221Y0599236D01*
X0717306Y0598810D01*
X0717547Y0598449D01*
Y0598055D01*
X0717306Y0597694D01*
X0717299Y0597658D01*
X0716743Y0597428D01*
X0716624Y0597507D01*
X0716499Y0597532D01*
X0716429Y0597579D01*
X0716000Y0597664D01*
X0715571Y0597579D01*
X0715501Y0597532D01*
X0715376Y0597507D01*
X0714847Y0597154D01*
X0714493Y0596624D01*
X0714369Y0596000D01*
X0714389Y0595899D01*
X0714011Y0595400D01*
X0713622Y0595830D01*
X0713631Y0595876D01*
X0713507Y0596501D01*
X0713154Y0597030D01*
X0712624Y0597384D01*
X0712000Y0597508D01*
X0711376Y0597384D01*
X0710847Y0597030D01*
X0710493Y0596501D01*
X0710369Y0595876D01*
X0710493Y0595252D01*
X0710778Y0594825D01*
Y0591020D01*
X0710778Y0591020D01*
X0710864Y0590591D01*
X0711107Y0590227D01*
X0716670Y0584664D01*
X0716670Y0584663D01*
X0717034Y0584420D01*
X0717034Y0584420D01*
X0717463Y0584335D01*
X0717463Y0584335D01*
X0720894D01*
X0720894Y0584335D01*
Y0582641D01*
X0720894Y0582641D01*
X0720854Y0582633D01*
X0718335D01*
X0717909Y0582549D01*
X0717818Y0582488D01*
X0717208D01*
X0717259Y0582412D01*
X0717341Y0581999D01*
X0717306Y0581946D01*
X0717221Y0581520D01*
X0717306Y0581094D01*
X0717547Y0580732D01*
X0717909Y0580491D01*
X0718335Y0580406D01*
X0718764D01*
Y0578624D01*
X0718302D01*
Y0577237D01*
X0718255Y0577000D01*
X0718302Y0576763D01*
Y0576312D01*
X0717840Y0576121D01*
X0716988Y0576972D01*
Y0579059D01*
X0716903Y0579485D01*
X0716662Y0579846D01*
X0716300Y0580088D01*
X0715874Y0580172D01*
X0715448Y0580088D01*
X0715087Y0579846D01*
X0714693D01*
X0714332Y0580088D01*
X0713906Y0580172D01*
X0713480Y0580088D01*
X0713118Y0579846D01*
X0712724D01*
X0712363Y0580088D01*
X0711937Y0580172D01*
X0711511Y0580088D01*
X0711150Y0579846D01*
X0710756D01*
X0710395Y0580088D01*
X0709969Y0580172D01*
X0709543Y0580088D01*
X0709181Y0579846D01*
X0708787D01*
X0708426Y0580088D01*
X0708000Y0580172D01*
X0707574Y0580088D01*
X0707213Y0579846D01*
X0706819D01*
X0706458Y0580088D01*
X0706032Y0580172D01*
X0705685Y0580103D01*
X0705422Y0580227D01*
X0705185Y0580408D01*
Y0593029D01*
X0712531Y0600375D01*
X0713124Y0600493D01*
X0713654Y0600846D01*
X0714007Y0601376D01*
X0714131Y0602000D01*
X0714007Y0602624D01*
X0713654Y0603154D01*
X0713124Y0603507D01*
X0712500Y0603631D01*
X0711876Y0603507D01*
X0711346Y0603154D01*
X0711300Y0603084D01*
X0710800D01*
X0710753Y0603154D01*
X0710224Y0603507D01*
X0709600Y0603631D01*
X0708976Y0603507D01*
X0708660Y0603296D01*
X0708300Y0603195D01*
X0707940Y0603296D01*
X0707624Y0603507D01*
X0707077Y0603616D01*
X0707153Y0604001D01*
Y0604285D01*
X0707390Y0604465D01*
X0707653Y0604589D01*
X0708000Y0604520D01*
X0708426Y0604605D01*
X0708644Y0604750D01*
X0708984Y0604811D01*
X0709325Y0604750D01*
X0709543Y0604605D01*
X0709969Y0604520D01*
X0710395Y0604605D01*
X0710612Y0604750D01*
X0710953Y0604811D01*
X0711293Y0604750D01*
X0711511Y0604605D01*
X0711937Y0604520D01*
X0712363Y0604605D01*
X0712416Y0604640D01*
X0712830Y0604558D01*
X0712906Y0604507D01*
Y0605117D01*
X0712966Y0605208D01*
X0713051Y0605634D01*
Y0608193D01*
X0714752D01*
X0714752Y0608193D01*
D02*
G37*
G36*
X0539878Y0601592D02*
Y0599675D01*
X0539847Y0599653D01*
X0539493Y0599124D01*
X0539401Y0598663D01*
X0539009Y0598434D01*
X0538880Y0598410D01*
X0538735Y0598507D01*
X0538110Y0598631D01*
X0537486Y0598507D01*
X0536957Y0598153D01*
X0536603Y0597624D01*
X0536479Y0597000D01*
X0536603Y0596376D01*
X0536957Y0595846D01*
X0537218Y0595672D01*
X0537243Y0595183D01*
X0537243Y0595183D01*
Y0594156D01*
X0537221Y0594124D01*
X0537097Y0593500D01*
X0537221Y0592876D01*
X0537243Y0592844D01*
Y0591817D01*
X0540214D01*
Y0592643D01*
X0540286Y0592725D01*
X0540786Y0592538D01*
Y0591817D01*
X0543757D01*
Y0591817D01*
X0543802Y0591876D01*
X0545090D01*
X0545093Y0591872D01*
X0551958Y0585007D01*
X0552321Y0584764D01*
X0552751Y0584678D01*
X0552751Y0584678D01*
X0559667D01*
X0559859Y0584216D01*
X0548325Y0572683D01*
X0546742D01*
Y0572683D01*
X0546276Y0572764D01*
X0546276Y0572765D01*
X0545675Y0573549D01*
X0544891Y0574150D01*
X0544470Y0574324D01*
Y0574865D01*
X0545093Y0575123D01*
X0545960Y0575788D01*
X0546625Y0576655D01*
X0547043Y0577665D01*
X0547054Y0577748D01*
X0543000D01*
X0538946D01*
X0538957Y0577665D01*
X0539375Y0576655D01*
X0540040Y0575788D01*
X0540907Y0575123D01*
X0541530Y0574865D01*
Y0574324D01*
X0541109Y0574150D01*
X0540325Y0573549D01*
X0539724Y0572765D01*
X0539347Y0571853D01*
X0539218Y0570874D01*
X0539347Y0569895D01*
X0539724Y0568983D01*
X0540325Y0568199D01*
X0541109Y0567598D01*
X0542021Y0567220D01*
X0542259Y0567189D01*
Y0566685D01*
X0542021Y0566653D01*
X0541109Y0566276D01*
X0540325Y0565674D01*
X0539724Y0564891D01*
X0539347Y0563979D01*
X0539218Y0563000D01*
X0539347Y0562021D01*
X0539724Y0561109D01*
X0540325Y0560325D01*
X0541109Y0559724D01*
X0542021Y0559346D01*
X0542358Y0559302D01*
Y0558798D01*
X0542021Y0558753D01*
X0541109Y0558376D01*
X0540325Y0557774D01*
X0539724Y0556991D01*
X0539347Y0556079D01*
X0539218Y0555100D01*
X0539347Y0554121D01*
X0539724Y0553209D01*
X0540325Y0552425D01*
X0541109Y0551824D01*
X0542021Y0551446D01*
X0542358Y0551402D01*
Y0550898D01*
X0542021Y0550853D01*
X0541109Y0550476D01*
X0540325Y0549874D01*
X0539724Y0549091D01*
X0539347Y0548179D01*
X0539218Y0547200D01*
X0539347Y0546221D01*
X0539724Y0545309D01*
X0540325Y0544525D01*
X0541109Y0543924D01*
X0542021Y0543546D01*
X0543000Y0543418D01*
X0543979Y0543546D01*
X0544891Y0543924D01*
X0545675Y0544525D01*
X0546276Y0545309D01*
X0546654Y0546221D01*
X0546782Y0547200D01*
X0546654Y0548179D01*
X0546276Y0549091D01*
X0545675Y0549874D01*
X0544891Y0550476D01*
X0543979Y0550853D01*
X0543642Y0550898D01*
Y0551402D01*
X0543979Y0551446D01*
X0544891Y0551824D01*
X0545675Y0552425D01*
X0546276Y0553209D01*
X0546654Y0554121D01*
X0546782Y0555100D01*
X0546654Y0556079D01*
X0546276Y0556991D01*
X0545675Y0557774D01*
X0544891Y0558376D01*
X0543979Y0558753D01*
X0543642Y0558798D01*
Y0559302D01*
X0543979Y0559346D01*
X0544891Y0559724D01*
X0545675Y0560325D01*
X0546276Y0561109D01*
X0546302Y0561173D01*
X0546742Y0561317D01*
Y0561317D01*
X0549714D01*
Y0562038D01*
X0550214Y0562225D01*
X0550286Y0562143D01*
Y0561317D01*
X0553258D01*
Y0562344D01*
X0553279Y0562376D01*
X0553403Y0563000D01*
X0553279Y0563624D01*
X0553258Y0563656D01*
Y0564683D01*
X0552150D01*
X0551959Y0565145D01*
X0568193Y0581378D01*
X0595139D01*
X0595330Y0580917D01*
X0594238Y0579824D01*
X0591550D01*
Y0577665D01*
X0591150D01*
Y0576780D01*
X0594118D01*
Y0574780D01*
X0591150D01*
Y0573894D01*
X0591550D01*
Y0569176D01*
X0596687D01*
Y0569343D01*
X0606153D01*
X0606153Y0569343D01*
X0606582Y0569429D01*
X0606946Y0569672D01*
X0608177Y0570902D01*
X0608177Y0570902D01*
X0608208Y0570949D01*
X0609711Y0572452D01*
X0610173Y0572261D01*
Y0571173D01*
X0611846D01*
Y0573059D01*
X0612847D01*
Y0574059D01*
X0615520D01*
Y0574945D01*
X0612857D01*
X0612666Y0575407D01*
X0615337Y0578078D01*
X0621785D01*
X0621992Y0577578D01*
X0617587Y0573173D01*
X0617344Y0572810D01*
X0617259Y0572380D01*
X0617259Y0572380D01*
Y0568620D01*
X0617259Y0568620D01*
X0617344Y0568190D01*
X0617587Y0567827D01*
X0618926Y0566488D01*
Y0560827D01*
X0618157D01*
Y0561500D01*
X0616272D01*
Y0562500D01*
X0615272D01*
Y0564583D01*
X0614456D01*
X0614456Y0564583D01*
X0614386D01*
X0614350Y0564523D01*
X0613850Y0564662D01*
Y0566455D01*
X0615120D01*
Y0569427D01*
X0610573D01*
Y0566455D01*
X0611607D01*
Y0564183D01*
X0608286D01*
Y0560817D01*
X0608650D01*
Y0560323D01*
X0608650Y0560323D01*
X0608736Y0559894D01*
X0608979Y0559530D01*
X0610455Y0558053D01*
Y0556338D01*
X0609955Y0556131D01*
X0605731Y0560355D01*
X0605922Y0560817D01*
X0607714D01*
Y0564183D01*
X0605903D01*
X0603293Y0566793D01*
X0602929Y0567036D01*
X0602500Y0567122D01*
X0602500Y0567122D01*
X0582500D01*
X0582500Y0567122D01*
X0582071Y0567036D01*
X0581707Y0566793D01*
X0581707Y0566793D01*
X0564767Y0549853D01*
X0564042Y0550153D01*
X0563063Y0550282D01*
X0562084Y0550153D01*
X0561172Y0549776D01*
X0560389Y0549174D01*
X0559787Y0548391D01*
X0559410Y0547479D01*
X0559281Y0546500D01*
X0559410Y0545521D01*
X0559787Y0544609D01*
X0560389Y0543825D01*
X0561172Y0543224D01*
X0562084Y0542846D01*
X0563063Y0542718D01*
X0564042Y0542846D01*
X0564954Y0543224D01*
X0565737Y0543825D01*
X0566339Y0544609D01*
X0566716Y0545521D01*
X0566748Y0545759D01*
X0567252D01*
X0567283Y0545521D01*
X0567661Y0544609D01*
X0568262Y0543825D01*
X0569046Y0543224D01*
X0569958Y0542846D01*
X0570937Y0542718D01*
X0571916Y0542846D01*
X0572730Y0543184D01*
X0576830Y0539083D01*
X0576639Y0538622D01*
X0524000D01*
X0523952Y0538612D01*
X0522265Y0538778D01*
X0520597Y0539284D01*
X0519059Y0540106D01*
X0517712Y0541212D01*
X0516606Y0542559D01*
X0515784Y0544097D01*
X0515278Y0545765D01*
X0515107Y0547500D01*
X0515278Y0549235D01*
X0515784Y0550903D01*
X0516606Y0552441D01*
X0517712Y0553788D01*
X0519059Y0554894D01*
X0520597Y0555716D01*
X0522265Y0556222D01*
X0523952Y0556388D01*
X0524000Y0556378D01*
X0529000D01*
X0529000Y0556378D01*
Y0556370D01*
X0530196Y0556488D01*
X0531346Y0556837D01*
X0532405Y0557404D01*
X0533334Y0558166D01*
X0534096Y0559095D01*
X0534663Y0560154D01*
X0535012Y0561304D01*
X0535129Y0562500D01*
X0535122Y0562500D01*
Y0599407D01*
X0535282Y0599841D01*
X0539238D01*
Y0601703D01*
X0539378Y0601823D01*
X0539878Y0601592D01*
D02*
G37*
G36*
X0751000Y0616500D02*
Y0607000D01*
X0739000D01*
Y0616500D01*
X0751000Y0616500D01*
D02*
G37*
G36*
X0844000Y0634000D02*
X0844000Y0629000D01*
X0845500Y0627500D01*
X0865000Y0627500D01*
X0865000Y0618500D01*
X0834370Y0618500D01*
X0808000Y0618500D01*
X0806500Y0620000D01*
X0806500Y0638000D01*
X0840000Y0638000D01*
X0844000Y0634000D01*
D02*
G37*
G36*
X0805376Y0617038D02*
X0805369Y0617000D01*
X0805493Y0616376D01*
X0805847Y0615846D01*
X0806022Y0615729D01*
X0806085Y0615085D01*
X0803000Y0612000D01*
Y0608312D01*
X0802500Y0608032D01*
X0802000Y0608131D01*
X0801376Y0608007D01*
X0800846Y0607654D01*
X0800750Y0607509D01*
X0800250D01*
X0800154Y0607654D01*
X0799624Y0608007D01*
X0799000Y0608131D01*
X0798376Y0608007D01*
X0797847Y0607654D01*
X0797750Y0607509D01*
X0797250D01*
X0797154Y0607654D01*
X0796624Y0608007D01*
X0796000Y0608131D01*
X0795376Y0608007D01*
X0794846Y0607654D01*
X0794750Y0607509D01*
X0794250D01*
X0794153Y0607654D01*
X0793730Y0607937D01*
X0793574Y0608488D01*
X0796293Y0611207D01*
X0796293Y0611207D01*
X0796536Y0611571D01*
X0796622Y0612000D01*
Y0615395D01*
X0797122Y0615663D01*
X0797376Y0615493D01*
X0798000Y0615369D01*
X0798624Y0615493D01*
X0799154Y0615846D01*
X0799250Y0615991D01*
X0799750D01*
X0799847Y0615846D01*
X0800376Y0615493D01*
X0801000Y0615369D01*
X0801624Y0615493D01*
X0802153Y0615846D01*
X0802507Y0616376D01*
X0802631Y0617000D01*
X0802507Y0617624D01*
X0802153Y0618153D01*
X0802122Y0618175D01*
Y0619000D01*
X0802036Y0619429D01*
X0801793Y0619793D01*
X0801793Y0619793D01*
X0785630Y0635957D01*
X0785794Y0636499D01*
X0785895Y0636519D01*
X0805376Y0617038D01*
D02*
G37*
G36*
X0738000Y0609500D02*
X0736000D01*
Y0607000D01*
X0733500D01*
Y0616500D01*
X0738000D01*
Y0609500D01*
D02*
G37*
G36*
X0704668Y0595684D02*
X0703270Y0594286D01*
X0703027Y0593922D01*
X0702941Y0593493D01*
X0702941Y0593493D01*
Y0580843D01*
X0702441Y0580511D01*
X0702095Y0580580D01*
X0701567Y0580476D01*
X0701502Y0580805D01*
X0701148Y0581334D01*
X0700619Y0581688D01*
X0699995Y0581812D01*
X0699370Y0581688D01*
X0698841Y0581334D01*
X0698487Y0580805D01*
X0698363Y0580181D01*
X0698214Y0580161D01*
X0698158Y0580172D01*
X0697731Y0580088D01*
X0697370Y0579846D01*
X0696977D01*
X0696615Y0580088D01*
X0696189Y0580172D01*
X0695763Y0580088D01*
X0695402Y0579846D01*
X0695008D01*
X0694647Y0580088D01*
X0694221Y0580172D01*
X0693794Y0580088D01*
X0693433Y0579846D01*
X0693192Y0579485D01*
X0693107Y0579059D01*
Y0573941D01*
X0693192Y0573515D01*
X0693433Y0573153D01*
X0693794Y0572912D01*
X0694221Y0572827D01*
X0694647Y0572912D01*
X0695008Y0573153D01*
X0695402D01*
X0695763Y0572912D01*
X0696189Y0572827D01*
X0696615Y0572912D01*
X0696833Y0573058D01*
X0697173Y0573118D01*
X0697514Y0573058D01*
X0697563Y0573025D01*
X0697802Y0572624D01*
X0697802Y0572529D01*
Y0571188D01*
X0697764Y0571000D01*
X0697802Y0570812D01*
Y0569376D01*
X0700276D01*
X0700452Y0569201D01*
X0700504Y0569028D01*
X0700180Y0568600D01*
X0696100D01*
Y0565800D01*
X0693998Y0563698D01*
X0692376D01*
Y0560870D01*
X0691976D01*
Y0559886D01*
X0694000D01*
Y0558886D01*
X0695000D01*
Y0556902D01*
X0695700D01*
Y0556750D01*
X0698850D01*
Y0559500D01*
X0696024D01*
Y0560870D01*
X0695624D01*
Y0561843D01*
X0696100Y0561900D01*
Y0561900D01*
X0703600D01*
Y0566514D01*
X0706378Y0569292D01*
X0706878Y0569085D01*
Y0563900D01*
X0706878Y0563900D01*
X0706964Y0563471D01*
X0707207Y0563107D01*
X0712400Y0557914D01*
Y0553022D01*
X0704000D01*
Y0554750D01*
X0695700D01*
Y0553022D01*
X0669863D01*
X0669552Y0553404D01*
X0669730Y0553835D01*
X0671398D01*
Y0557000D01*
X0672398D01*
Y0558000D01*
X0675366D01*
Y0560165D01*
X0675778Y0560378D01*
X0679535D01*
X0681376Y0558538D01*
X0681369Y0558500D01*
X0681493Y0557876D01*
X0681847Y0557346D01*
X0682001Y0557243D01*
Y0556757D01*
X0681847Y0556653D01*
X0681493Y0556124D01*
X0681369Y0555500D01*
X0681493Y0554876D01*
X0681847Y0554347D01*
X0682376Y0553993D01*
X0683000Y0553869D01*
X0683624Y0553993D01*
X0683986Y0554235D01*
X0685014D01*
X0685376Y0553993D01*
X0686000Y0553869D01*
X0686624Y0553993D01*
X0686986Y0554235D01*
X0687171D01*
Y0554372D01*
X0687507Y0554876D01*
X0687631Y0555500D01*
X0687507Y0556124D01*
X0687171Y0556628D01*
Y0557372D01*
X0687507Y0557876D01*
X0687631Y0558500D01*
X0687507Y0559124D01*
X0687171Y0559628D01*
Y0559765D01*
X0686986D01*
X0686624Y0560007D01*
X0686000Y0560131D01*
X0685376Y0560007D01*
X0685014Y0559765D01*
X0683986D01*
X0683624Y0560007D01*
X0683000Y0560131D01*
X0682962Y0560124D01*
X0680793Y0562293D01*
X0680429Y0562536D01*
X0680000Y0562622D01*
X0680000Y0562622D01*
X0667688D01*
X0667536Y0563122D01*
X0667664Y0563207D01*
X0685227Y0580771D01*
X0685854Y0580732D01*
X0686216Y0580491D01*
X0686642Y0580406D01*
X0691760D01*
X0692186Y0580491D01*
X0692547Y0580732D01*
X0692789Y0581094D01*
X0692873Y0581520D01*
X0692789Y0581946D01*
X0692547Y0582307D01*
Y0582701D01*
X0692789Y0583062D01*
X0692873Y0583488D01*
X0692789Y0583914D01*
X0692547Y0584275D01*
Y0584669D01*
X0692789Y0585031D01*
X0692873Y0585457D01*
X0692789Y0585883D01*
X0692643Y0586100D01*
X0692583Y0586441D01*
X0692643Y0586781D01*
X0692789Y0586999D01*
X0692873Y0587425D01*
X0692789Y0587851D01*
X0692547Y0588212D01*
Y0588606D01*
X0692789Y0588968D01*
X0692873Y0589394D01*
X0692789Y0589820D01*
X0692547Y0590181D01*
Y0590575D01*
X0692789Y0590936D01*
X0692873Y0591362D01*
X0692789Y0591788D01*
X0692643Y0592006D01*
X0692583Y0592346D01*
X0692643Y0592687D01*
X0692789Y0592905D01*
X0692873Y0593331D01*
X0692789Y0593757D01*
X0692547Y0594118D01*
Y0594512D01*
X0692789Y0594873D01*
X0692873Y0595299D01*
X0692804Y0595646D01*
X0692930Y0595911D01*
X0693109Y0596146D01*
X0704476D01*
X0704668Y0595684D01*
D02*
G37*
G36*
X0724114Y0571476D02*
X0725098D01*
X0725378Y0571092D01*
Y0567975D01*
X0725378Y0567975D01*
X0725464Y0567545D01*
X0725707Y0567181D01*
X0732976Y0559912D01*
Y0559614D01*
X0733588D01*
X0733776Y0559577D01*
X0735000D01*
Y0557614D01*
X0732976D01*
Y0556630D01*
X0732527Y0556507D01*
X0723886D01*
X0723886Y0556507D01*
X0723457Y0556422D01*
X0723093Y0556179D01*
X0723093Y0556179D01*
X0720400Y0553486D01*
X0719900Y0553693D01*
Y0555200D01*
X0722002Y0557302D01*
X0723624D01*
Y0560130D01*
X0724024D01*
Y0561114D01*
X0722000D01*
Y0562114D01*
X0721000D01*
Y0564098D01*
X0720300D01*
Y0564250D01*
X0712000D01*
Y0562193D01*
X0711500Y0561986D01*
X0709122Y0564365D01*
Y0572592D01*
X0709359Y0572773D01*
X0709622Y0572896D01*
X0709969Y0572827D01*
X0710395Y0572912D01*
X0710756Y0573153D01*
X0711150D01*
X0711511Y0572912D01*
X0711937Y0572827D01*
X0712363Y0572912D01*
X0712724Y0573153D01*
X0713118D01*
X0713480Y0572912D01*
X0713906Y0572827D01*
X0714332Y0572912D01*
X0714693Y0573153D01*
X0715087D01*
X0715448Y0572912D01*
X0715874Y0572827D01*
X0716300Y0572912D01*
X0716662Y0573153D01*
X0716768Y0573313D01*
X0717357Y0573431D01*
X0718081Y0572707D01*
X0718302Y0572559D01*
Y0571876D01*
X0719847D01*
X0719886Y0571869D01*
X0719925Y0571876D01*
X0721130D01*
Y0571476D01*
X0722114D01*
Y0573500D01*
X0724114D01*
Y0571476D01*
D02*
G37*
G36*
X0614062Y0580041D02*
X0614065Y0579978D01*
X0607264Y0573177D01*
X0606702Y0573322D01*
X0606437Y0573719D01*
X0605908Y0574072D01*
X0605283Y0574196D01*
X0604659Y0574072D01*
X0604130Y0573719D01*
X0604109Y0573687D01*
X0600660D01*
X0600524Y0574130D01*
X0600524D01*
Y0575114D01*
X0598500D01*
Y0576114D01*
X0597500D01*
Y0578098D01*
X0596687D01*
Y0579101D01*
X0598065Y0580478D01*
X0613906D01*
X0614062Y0580041D01*
D02*
G37*
G36*
X0791563Y0605770D02*
X0791847Y0605346D01*
X0791991Y0605250D01*
Y0604750D01*
X0791847Y0604654D01*
X0791493Y0604124D01*
X0791369Y0603500D01*
X0791493Y0602876D01*
X0791847Y0602347D01*
X0792376Y0601993D01*
X0793000Y0601869D01*
X0793624Y0601993D01*
X0794153Y0602347D01*
X0794250Y0602491D01*
X0794750D01*
X0794846Y0602347D01*
X0794991Y0602250D01*
Y0601750D01*
X0794846Y0601653D01*
X0794493Y0601124D01*
X0794369Y0600500D01*
X0794493Y0599876D01*
X0794846Y0599346D01*
X0795376Y0598993D01*
X0796000Y0598869D01*
X0796624Y0598993D01*
X0797154Y0599346D01*
X0797250Y0599491D01*
X0797750D01*
X0797847Y0599346D01*
X0797991Y0599250D01*
Y0598750D01*
X0797847Y0598654D01*
X0797493Y0598124D01*
X0797369Y0597500D01*
X0797493Y0596876D01*
X0797847Y0596347D01*
X0798376Y0595993D01*
X0799000Y0595869D01*
X0799624Y0595993D01*
X0800154Y0596347D01*
X0800250Y0596491D01*
X0800750D01*
X0800846Y0596347D01*
X0801376Y0595993D01*
X0802000Y0595869D01*
X0802500Y0595968D01*
X0803000Y0595688D01*
Y0590598D01*
X0800505D01*
X0800401Y0591120D01*
X0800026Y0591682D01*
X0799463Y0592058D01*
X0798800Y0592190D01*
X0797600D01*
Y0590457D01*
X0796600D01*
Y0589457D01*
X0792946D01*
X0792713Y0589022D01*
X0789595D01*
X0789022Y0589595D01*
Y0603935D01*
X0791012Y0605926D01*
X0791563Y0605770D01*
D02*
G37*
G36*
X0583766Y0562027D02*
Y0561108D01*
X0582307Y0559649D01*
X0582064Y0559285D01*
X0581978Y0558856D01*
X0581978Y0558856D01*
Y0551242D01*
X0581847Y0551154D01*
X0581493Y0550624D01*
X0581444Y0550379D01*
X0580902Y0550215D01*
X0580546Y0550570D01*
X0580631Y0551000D01*
X0580507Y0551624D01*
X0580154Y0552153D01*
X0579624Y0552507D01*
X0579000Y0552631D01*
X0578376Y0552507D01*
X0577846Y0552153D01*
X0577493Y0551624D01*
X0577369Y0551000D01*
X0577493Y0550376D01*
X0577846Y0549847D01*
X0578376Y0549493D01*
X0578470Y0549474D01*
X0581237Y0546707D01*
X0581237Y0546707D01*
X0581601Y0546464D01*
X0582030Y0546378D01*
X0583970D01*
X0583970Y0546378D01*
X0584399Y0546464D01*
X0584748Y0546697D01*
X0584812Y0546684D01*
X0585242Y0546479D01*
Y0545100D01*
X0583228Y0543086D01*
X0583000Y0543131D01*
X0582376Y0543007D01*
X0581847Y0542654D01*
X0581493Y0542124D01*
X0581369Y0541500D01*
X0581464Y0541022D01*
X0581174Y0540522D01*
X0578565D01*
X0574290Y0544796D01*
X0574590Y0545521D01*
X0574719Y0546500D01*
X0574590Y0547479D01*
X0574213Y0548391D01*
X0573611Y0549174D01*
X0572828Y0549776D01*
X0571916Y0550153D01*
X0570937Y0550282D01*
X0569958Y0550153D01*
X0569046Y0549776D01*
X0568262Y0549174D01*
X0567661Y0548391D01*
X0567283Y0547479D01*
X0567252Y0547241D01*
X0566748D01*
X0566716Y0547479D01*
X0566379Y0548293D01*
X0574397Y0556310D01*
X0574939Y0556146D01*
X0574993Y0555876D01*
X0575347Y0555346D01*
X0575876Y0554993D01*
X0576500Y0554869D01*
X0577124Y0554993D01*
X0577654Y0555346D01*
X0578007Y0555876D01*
X0578131Y0556500D01*
X0578041Y0556955D01*
X0583304Y0562218D01*
X0583766Y0562027D01*
D02*
G37*
G36*
X0768000Y0585000D02*
Y0581500D01*
X0766000D01*
Y0585000D01*
X0766500Y0585500D01*
X0767500D01*
X0768000Y0585000D01*
D02*
G37*
G36*
X0741500Y0599500D02*
X0748000Y0599500D01*
X0748000Y0596000D01*
X0737000Y0596000D01*
X0737000Y0601000D01*
X0741500D01*
Y0599500D01*
D02*
G37*
G36*
X0784000Y0595000D02*
X0781000D01*
Y0597000D01*
X0784000D01*
Y0595000D01*
D02*
G37*
G36*
X0793463Y0581842D02*
X0793525Y0581801D01*
Y0581199D01*
X0793463Y0581158D01*
X0793175Y0580728D01*
X0793075Y0580221D01*
X0793175Y0579713D01*
X0793463Y0579283D01*
X0793525Y0579242D01*
Y0578640D01*
X0793463Y0578599D01*
X0793175Y0578169D01*
X0793075Y0577661D01*
X0793175Y0577154D01*
X0793463Y0576724D01*
X0793525Y0576683D01*
Y0576081D01*
X0793463Y0576040D01*
X0793175Y0575610D01*
X0793075Y0575102D01*
X0793175Y0574595D01*
X0793463Y0574165D01*
X0793525Y0574123D01*
Y0573522D01*
X0793463Y0573481D01*
X0793175Y0573051D01*
X0793075Y0572543D01*
X0793175Y0572036D01*
X0793463Y0571606D01*
X0793893Y0571319D01*
X0794400Y0571218D01*
X0796978D01*
Y0571000D01*
X0797000D01*
X0797000Y0561500D01*
X0796978D01*
Y0560900D01*
X0796978Y0560900D01*
X0797064Y0560471D01*
X0797307Y0560107D01*
X0804376Y0553038D01*
X0804369Y0553000D01*
X0804493Y0552376D01*
X0804846Y0551847D01*
X0805376Y0551493D01*
X0806000Y0551369D01*
X0806624Y0551493D01*
X0807154Y0551847D01*
X0807250Y0551991D01*
X0807750D01*
X0807847Y0551847D01*
X0807991Y0551750D01*
Y0551250D01*
X0807847Y0551154D01*
X0807493Y0550624D01*
X0807369Y0550000D01*
X0807493Y0549376D01*
X0807847Y0548846D01*
X0808376Y0548493D01*
X0809000Y0548369D01*
X0809624Y0548493D01*
X0810153Y0548846D01*
X0810507Y0549376D01*
X0810631Y0550000D01*
X0810624Y0550038D01*
X0811038Y0550452D01*
X0811500Y0550261D01*
X0811500Y0538622D01*
X0761330D01*
X0761138Y0539083D01*
X0770689Y0548635D01*
X0771124Y0548721D01*
X0771156Y0548742D01*
X0772183D01*
Y0551714D01*
X0771357D01*
X0771275Y0551786D01*
X0771462Y0552286D01*
X0772183D01*
Y0552865D01*
X0772353Y0552979D01*
X0784593Y0565219D01*
X0784593Y0565219D01*
X0784836Y0565583D01*
X0784922Y0566012D01*
X0784922Y0566012D01*
Y0581335D01*
X0785586Y0582000D01*
X0793357D01*
X0793463Y0581842D01*
D02*
G37*
G36*
X0758330Y0631529D02*
Y0627179D01*
X0763874D01*
X0764623Y0626430D01*
Y0625820D01*
X0758330D01*
Y0621471D01*
X0760615D01*
Y0620657D01*
X0760140Y0620183D01*
X0758557D01*
Y0616876D01*
X0757986D01*
Y0620183D01*
X0755014D01*
Y0619622D01*
X0730589D01*
X0730398Y0620084D01*
X0732132Y0621817D01*
X0733714D01*
Y0625183D01*
X0732392D01*
X0732201Y0625645D01*
X0733021Y0626465D01*
X0733021Y0626465D01*
X0733264Y0626829D01*
X0733350Y0627258D01*
X0733350Y0627259D01*
Y0627817D01*
X0733714D01*
Y0631183D01*
X0730743D01*
Y0627817D01*
X0730743D01*
X0730713Y0627329D01*
X0725111Y0621728D01*
X0724649Y0621919D01*
X0724649Y0624500D01*
X0724459Y0624959D01*
X0724000Y0625149D01*
X0721833D01*
X0721374Y0624959D01*
X0721184Y0624500D01*
Y0623235D01*
X0720739Y0622996D01*
X0720541Y0623024D01*
X0720000Y0623131D01*
X0719962Y0623124D01*
X0719793Y0623293D01*
X0719429Y0623536D01*
X0719257Y0623570D01*
Y0624183D01*
X0716286D01*
Y0621183D01*
X0716286Y0620817D01*
X0716286D01*
Y0620683D01*
X0716143Y0620439D01*
X0715714Y0620655D01*
Y0620683D01*
X0715714Y0620683D01*
Y0620817D01*
X0715714D01*
X0715714Y0621183D01*
Y0624183D01*
X0712743D01*
Y0622868D01*
X0707880Y0618006D01*
X0707418Y0618197D01*
Y0621532D01*
X0717765Y0631878D01*
X0720614D01*
Y0631626D01*
X0724386D01*
Y0631878D01*
X0737503D01*
X0737858Y0631529D01*
X0737858Y0631378D01*
Y0630622D01*
X0737257D01*
Y0631183D01*
X0734286D01*
Y0627817D01*
X0737257D01*
Y0628378D01*
X0737858D01*
Y0627179D01*
X0744570D01*
Y0631378D01*
X0744570Y0631529D01*
X0744925Y0631878D01*
X0757975D01*
X0758330Y0631529D01*
D02*
G37*
G36*
X0760976Y0583520D02*
Y0583114D01*
X0763000D01*
Y0581114D01*
X0760976D01*
Y0580130D01*
X0761376D01*
Y0577302D01*
X0764624D01*
Y0577607D01*
X0765317D01*
Y0577243D01*
X0765351D01*
Y0570000D01*
X0765369Y0569956D01*
Y0569350D01*
X0765493Y0568726D01*
X0765846Y0568197D01*
X0766266Y0567777D01*
Y0566973D01*
X0765804Y0566782D01*
X0755732Y0576854D01*
X0755369Y0577097D01*
X0754939Y0577182D01*
X0754939Y0577182D01*
X0754521D01*
X0754369Y0577682D01*
X0754556Y0577807D01*
X0760476Y0583728D01*
X0760976Y0583520D01*
D02*
G37*
G36*
X0756869Y0572545D02*
X0756772Y0572309D01*
Y0571000D01*
X0757657D01*
Y0571103D01*
X0758119Y0571294D01*
X0765207Y0564207D01*
X0765207Y0564207D01*
X0765571Y0563964D01*
X0766000Y0563878D01*
X0766000Y0563878D01*
X0774902D01*
X0775093Y0563416D01*
X0771137Y0559460D01*
X0763649D01*
X0763382Y0559960D01*
X0763507Y0560147D01*
X0763631Y0560772D01*
X0763507Y0561396D01*
X0763154Y0561925D01*
X0762624Y0562279D01*
X0762000Y0562403D01*
X0761962Y0562395D01*
X0757258Y0567100D01*
Y0567917D01*
X0757657D01*
Y0569000D01*
X0755772D01*
Y0570000D01*
X0754772D01*
Y0572083D01*
X0753886D01*
X0753714Y0571683D01*
X0750742D01*
Y0568317D01*
X0750742D01*
Y0568219D01*
X0750243Y0568183D01*
X0748999D01*
X0748732Y0568683D01*
X0748738Y0568692D01*
X0748853Y0569272D01*
Y0573799D01*
X0748738Y0574379D01*
X0748698Y0574439D01*
X0748965Y0574939D01*
X0754475D01*
X0756869Y0572545D01*
D02*
G37*
G36*
X0865000Y0604500D02*
Y0554000D01*
X0837000D01*
X0837000Y0562000D01*
X0860500Y0562000D01*
Y0579500D01*
X0855000Y0585000D01*
X0842000D01*
X0837000Y0590000D01*
X0837000Y0602000D01*
X0839500Y0604500D01*
X0865000Y0604500D01*
D02*
G37*
G36*
X0858500Y0580000D02*
X0859500Y0579000D01*
X0859500Y0563000D01*
X0837000Y0563000D01*
X0837000Y0580000D01*
X0858500Y0580000D01*
D02*
G37*
G36*
X0661573Y0552620D02*
Y0548073D01*
X0664545D01*
Y0549178D01*
X0665817D01*
Y0548742D01*
X0669183D01*
Y0549178D01*
X0712235D01*
X0718830Y0542584D01*
X0718639Y0542122D01*
X0686969D01*
X0686817Y0542622D01*
X0687153Y0542846D01*
X0687507Y0543376D01*
X0687631Y0544000D01*
X0687507Y0544624D01*
X0687153Y0545154D01*
X0686624Y0545507D01*
X0686000Y0545631D01*
X0685376Y0545507D01*
X0684846Y0545154D01*
X0684750Y0545009D01*
X0684250D01*
X0684154Y0545154D01*
X0683624Y0545507D01*
X0683000Y0545631D01*
X0682376Y0545507D01*
X0681847Y0545154D01*
X0681493Y0544624D01*
X0681369Y0544000D01*
X0681493Y0543376D01*
X0681847Y0542846D01*
X0682183Y0542622D01*
X0682031Y0542122D01*
X0656965D01*
X0654074Y0545012D01*
X0654230Y0545563D01*
X0654654Y0545847D01*
X0654750Y0545991D01*
X0655250D01*
X0655346Y0545847D01*
X0655876Y0545493D01*
X0656500Y0545369D01*
X0657124Y0545493D01*
X0657654Y0545847D01*
X0658007Y0546376D01*
X0658131Y0547000D01*
X0658017Y0547573D01*
X0658046Y0547715D01*
X0658238Y0548073D01*
X0659427D01*
Y0552620D01*
X0659914Y0552650D01*
X0661086D01*
X0661573Y0552620D01*
D02*
G37*
G36*
X0737866Y0574439D02*
X0737739Y0573799D01*
Y0572535D01*
X0739662D01*
Y0571535D01*
X0740661D01*
Y0567672D01*
X0741021Y0567912D01*
X0741194Y0568171D01*
X0741641Y0567872D01*
X0742220Y0567757D01*
X0742800Y0567872D01*
X0743158Y0568111D01*
X0743598Y0567940D01*
X0743658Y0567890D01*
Y0566949D01*
X0743658Y0566949D01*
X0743743Y0566524D01*
Y0565122D01*
X0735465D01*
X0732122Y0568465D01*
Y0570551D01*
X0732476Y0570902D01*
X0733500D01*
Y0572886D01*
X0734500D01*
Y0573886D01*
X0736524D01*
Y0574870D01*
X0736995Y0574939D01*
X0737599D01*
X0737866Y0574439D01*
D02*
G37*
G36*
X0754045Y0549868D02*
X0754045Y0549868D01*
X0754381Y0549644D01*
X0754417Y0549590D01*
X0754908Y0549262D01*
X0755488Y0549147D01*
X0756138D01*
Y0547624D01*
X0754870D01*
Y0548024D01*
X0753886D01*
Y0546000D01*
X0752886D01*
Y0545000D01*
X0750902D01*
Y0543976D01*
X0750507Y0543722D01*
X0736187D01*
Y0547431D01*
X0736200Y0547500D01*
X0736187Y0547569D01*
Y0549540D01*
X0736973D01*
X0737389Y0549262D01*
X0737968Y0549147D01*
X0741512D01*
X0742092Y0549262D01*
X0742583Y0549590D01*
X0742911Y0550082D01*
X0743027Y0550661D01*
X0742911Y0551241D01*
X0742583Y0551733D01*
Y0552149D01*
X0742911Y0552641D01*
X0743027Y0553221D01*
X0742911Y0553800D01*
X0742668Y0554164D01*
X0742616Y0554500D01*
X0742668Y0554836D01*
X0742911Y0555200D01*
X0743027Y0555780D01*
X0742911Y0556359D01*
X0742613Y0556806D01*
X0742871Y0556979D01*
X0743112Y0557339D01*
X0739740D01*
Y0559339D01*
X0743356D01*
X0743483Y0559577D01*
X0744337D01*
X0754045Y0549868D01*
D02*
G37*
G36*
X0771500Y0575500D02*
Y0574500D01*
X0770000Y0573000D01*
Y0568500D01*
X0767500D01*
X0766000Y0570000D01*
Y0577500D01*
X0769500D01*
X0771500Y0575500D01*
D02*
G37*
G36*
X0724000Y0621000D02*
X0723500Y0620500D01*
X0721833Y0620500D01*
Y0624500D01*
X0724000D01*
X0724000Y0621000D01*
D02*
G37*
G36*
X0599514Y0562042D02*
X0600872D01*
X0610707Y0552207D01*
X0610707Y0552207D01*
X0611071Y0551964D01*
X0611500Y0551878D01*
X0613014D01*
Y0547573D01*
X0615986D01*
Y0548725D01*
X0624514D01*
Y0547573D01*
X0627486D01*
Y0548725D01*
X0636014D01*
Y0547573D01*
X0638986D01*
Y0548725D01*
X0647514D01*
Y0547573D01*
X0648341D01*
X0654930Y0540983D01*
X0654739Y0540522D01*
X0584826D01*
X0584536Y0541022D01*
X0584586Y0541271D01*
X0586631Y0543317D01*
X0588214D01*
Y0546682D01*
X0585445D01*
X0585236Y0547180D01*
X0587521Y0549465D01*
X0587521Y0549465D01*
X0587765Y0549829D01*
X0587850Y0550258D01*
Y0551817D01*
X0588214D01*
Y0555183D01*
X0585243D01*
Y0551817D01*
X0585607D01*
Y0550723D01*
X0585098Y0550215D01*
X0584556Y0550379D01*
X0584507Y0550624D01*
X0584222Y0551052D01*
Y0558391D01*
X0584959Y0559128D01*
X0587722D01*
Y0563278D01*
X0589278D01*
Y0559128D01*
X0593234D01*
Y0563278D01*
X0599514D01*
Y0562042D01*
D02*
G37*
G36*
X0631786Y0563071D02*
Y0560817D01*
X0633191D01*
X0633455Y0560427D01*
Y0555880D01*
X0636427D01*
Y0558053D01*
X0637021Y0558648D01*
X0637021Y0558648D01*
X0637264Y0559012D01*
X0637350Y0559441D01*
Y0560453D01*
X0637474Y0560577D01*
X0637673Y0560689D01*
X0638173Y0560452D01*
Y0559154D01*
X0640059D01*
X0641945D01*
Y0560378D01*
X0644955D01*
Y0555880D01*
X0647128D01*
X0648425Y0554584D01*
X0648234Y0554122D01*
X0621685D01*
X0621418Y0554622D01*
X0621555Y0554826D01*
X0621679Y0555451D01*
X0621669Y0555499D01*
X0622103Y0555880D01*
X0624927D01*
Y0560417D01*
X0626673D01*
Y0559154D01*
X0628559D01*
X0630445D01*
Y0560817D01*
X0631214D01*
Y0562672D01*
X0631671Y0563093D01*
X0631786Y0563071D01*
D02*
G37*
G36*
X0524000Y0638378D02*
X0711639D01*
X0711830Y0637917D01*
X0701038Y0627124D01*
X0701000Y0627131D01*
X0700522Y0627036D01*
X0700022Y0627326D01*
Y0627817D01*
X0700758D01*
Y0630917D01*
X0701158D01*
Y0632000D01*
X0699272D01*
Y0633000D01*
X0698272D01*
Y0635083D01*
X0697386D01*
X0697214Y0634683D01*
X0694242D01*
Y0631317D01*
X0694242D01*
Y0631183D01*
X0694242D01*
Y0627817D01*
X0694607D01*
Y0619721D01*
X0694607Y0619721D01*
X0694646Y0619524D01*
X0694316Y0619024D01*
X0692402D01*
Y0617758D01*
X0691656D01*
X0691624Y0617779D01*
X0691000Y0617903D01*
X0690376Y0617779D01*
X0690344Y0617758D01*
X0689317D01*
Y0614786D01*
X0690143D01*
X0690225Y0614714D01*
X0690038Y0614214D01*
X0689317D01*
Y0611242D01*
X0690900D01*
X0693099Y0609043D01*
Y0608193D01*
X0693107Y0608152D01*
Y0605634D01*
X0693192Y0605208D01*
X0693433Y0604846D01*
X0693794Y0604605D01*
X0694221Y0604520D01*
X0694647Y0604605D01*
X0694865Y0604750D01*
X0695205Y0604811D01*
X0695545Y0604750D01*
X0695763Y0604605D01*
X0696189Y0604520D01*
X0696615Y0604605D01*
X0696977Y0604846D01*
X0697370D01*
X0697731Y0604605D01*
X0698158Y0604520D01*
X0698584Y0604605D01*
X0698802Y0604750D01*
X0699142Y0604811D01*
X0699482Y0604750D01*
X0699700Y0604605D01*
X0700126Y0604520D01*
X0700552Y0604605D01*
X0700770Y0604750D01*
X0701110Y0604811D01*
X0701451Y0604750D01*
X0701455Y0604748D01*
X0701568Y0604154D01*
X0701038Y0603624D01*
X0701000Y0603631D01*
X0700376Y0603507D01*
X0699847Y0603154D01*
X0699493Y0602624D01*
X0699369Y0602000D01*
X0699493Y0601376D01*
X0699839Y0600858D01*
X0699826Y0600786D01*
X0699678Y0600358D01*
X0693544D01*
X0693212Y0600858D01*
X0693281Y0601205D01*
X0693165Y0601787D01*
X0692836Y0602280D01*
X0692754Y0602694D01*
X0692789Y0602747D01*
X0692873Y0603173D01*
X0692789Y0603599D01*
X0692547Y0603961D01*
X0692186Y0604202D01*
X0691760Y0604287D01*
X0690322D01*
Y0605376D01*
X0690698D01*
Y0606763D01*
X0690745Y0607000D01*
X0690698Y0607237D01*
Y0608624D01*
X0689153D01*
X0689114Y0608631D01*
X0689075Y0608624D01*
X0687870D01*
Y0609024D01*
X0686886D01*
Y0607000D01*
Y0604976D01*
X0687500D01*
X0687796Y0604476D01*
X0687692Y0604287D01*
X0686642D01*
X0686216Y0604202D01*
X0685854Y0603961D01*
X0685613Y0603599D01*
X0685528Y0603173D01*
X0685613Y0602747D01*
X0685648Y0602694D01*
X0685566Y0602280D01*
X0685515Y0602205D01*
X0686125D01*
X0686216Y0602144D01*
X0686642Y0602059D01*
X0689161D01*
X0689201Y0602051D01*
X0689201Y0602051D01*
Y0600358D01*
X0689201D01*
X0689160Y0600350D01*
X0686642D01*
X0686216Y0600265D01*
X0686125Y0600205D01*
X0685515D01*
X0685566Y0600129D01*
X0685648Y0599715D01*
X0685613Y0599662D01*
X0685528Y0599236D01*
X0685613Y0598810D01*
X0685854Y0598449D01*
Y0598055D01*
X0685613Y0597694D01*
X0685528Y0597268D01*
X0685597Y0596921D01*
X0685472Y0596656D01*
X0685293Y0596421D01*
X0684593D01*
X0684593Y0596421D01*
X0684164Y0596335D01*
X0683800Y0596092D01*
X0683800Y0596092D01*
X0672583Y0584875D01*
X0672122Y0585067D01*
Y0585725D01*
X0672154Y0585746D01*
X0672507Y0586276D01*
X0672631Y0586900D01*
X0672507Y0587524D01*
X0672154Y0588054D01*
X0672058Y0588117D01*
X0671932Y0588797D01*
X0671989Y0588878D01*
X0673000D01*
X0673000Y0588878D01*
X0673429Y0588964D01*
X0673793Y0589207D01*
X0681462Y0596876D01*
X0681500Y0596869D01*
X0682124Y0596993D01*
X0682654Y0597346D01*
X0683007Y0597876D01*
X0683131Y0598500D01*
X0683007Y0599124D01*
X0682862Y0599341D01*
X0683130Y0599841D01*
X0684218D01*
Y0604976D01*
X0684886D01*
Y0607000D01*
Y0609024D01*
X0683902D01*
Y0606159D01*
X0683131D01*
Y0609772D01*
X0683007Y0610396D01*
X0682654Y0610925D01*
X0682154Y0611425D01*
X0681624Y0611779D01*
X0681000Y0611903D01*
X0680376Y0611779D01*
X0680122Y0611609D01*
X0679622Y0611876D01*
Y0613880D01*
X0680427D01*
Y0616825D01*
X0680889Y0617017D01*
X0682573Y0615332D01*
Y0613880D01*
X0685545D01*
Y0615497D01*
X0685566Y0615529D01*
X0685690Y0616153D01*
X0685566Y0616778D01*
X0685545Y0616810D01*
Y0618427D01*
X0684093D01*
X0676866Y0625654D01*
X0676337Y0626007D01*
X0675713Y0626131D01*
X0669257D01*
X0669088Y0626540D01*
X0668440Y0627385D01*
X0667595Y0628033D01*
X0666611Y0628441D01*
X0665555Y0628580D01*
X0664499Y0628441D01*
X0663515Y0628033D01*
X0662670Y0627385D01*
X0662022Y0626540D01*
X0661614Y0625556D01*
X0661475Y0624500D01*
X0661614Y0623444D01*
X0662022Y0622460D01*
X0662670Y0621615D01*
X0662742Y0621560D01*
X0662581Y0621087D01*
X0661433D01*
X0659484Y0623035D01*
X0659653Y0623444D01*
X0659792Y0624500D01*
X0659653Y0625556D01*
X0659246Y0626540D01*
X0658597Y0627385D01*
X0657753Y0628033D01*
X0656769Y0628441D01*
X0655713Y0628580D01*
X0654657Y0628441D01*
X0653673Y0628033D01*
X0652828Y0627385D01*
X0652179Y0626540D01*
X0651772Y0625556D01*
X0651633Y0624500D01*
X0651772Y0623444D01*
X0652179Y0622460D01*
X0652828Y0621615D01*
X0652937Y0621532D01*
X0652776Y0621058D01*
X0651619D01*
X0649642Y0623035D01*
X0649811Y0623444D01*
X0649950Y0624500D01*
X0649811Y0625556D01*
X0649403Y0626540D01*
X0648755Y0627385D01*
X0647910Y0628033D01*
X0646926Y0628441D01*
X0645870Y0628580D01*
X0644814Y0628441D01*
X0643830Y0628033D01*
X0642985Y0627385D01*
X0642337Y0626540D01*
X0641929Y0625556D01*
X0641790Y0624500D01*
X0641876Y0623851D01*
X0641402Y0623618D01*
X0640045Y0624975D01*
X0639968Y0625556D01*
X0639561Y0626540D01*
X0638912Y0627385D01*
X0638067Y0628033D01*
X0637083Y0628441D01*
X0636028Y0628580D01*
X0634972Y0628441D01*
X0633988Y0628033D01*
X0633143Y0627385D01*
X0632494Y0626540D01*
X0632087Y0625556D01*
X0631948Y0624500D01*
X0632087Y0623444D01*
X0632494Y0622460D01*
X0633143Y0621615D01*
X0633988Y0620967D01*
X0634972Y0620559D01*
X0636028Y0620420D01*
X0637083Y0620559D01*
X0638067Y0620967D01*
X0638843Y0621562D01*
X0641517Y0618889D01*
X0641326Y0618427D01*
X0639955D01*
Y0616098D01*
X0639878Y0615713D01*
X0639878Y0615713D01*
Y0604408D01*
X0639378Y0604177D01*
X0639238Y0604297D01*
Y0606159D01*
X0638891D01*
Y0613425D01*
X0638767Y0614049D01*
X0638413Y0614579D01*
X0635545Y0617447D01*
Y0618427D01*
X0634565D01*
X0629957Y0623035D01*
X0630126Y0623444D01*
X0630265Y0624500D01*
X0630126Y0625556D01*
X0629718Y0626540D01*
X0629070Y0627385D01*
X0628225Y0628033D01*
X0627241Y0628441D01*
X0626185Y0628580D01*
X0625129Y0628441D01*
X0624145Y0628033D01*
X0623300Y0627385D01*
X0622652Y0626540D01*
X0622244Y0625556D01*
X0622105Y0624500D01*
X0622244Y0623444D01*
X0622652Y0622460D01*
X0623300Y0621615D01*
X0624145Y0620967D01*
X0625129Y0620559D01*
X0626185Y0620420D01*
X0627241Y0620559D01*
X0627649Y0620728D01*
X0629489Y0618889D01*
X0629298Y0618427D01*
X0627455D01*
Y0616098D01*
X0627378Y0615713D01*
X0627378Y0615713D01*
Y0606162D01*
X0626878Y0606011D01*
X0626653Y0606347D01*
X0626391Y0606610D01*
Y0616083D01*
X0626267Y0616707D01*
X0625913Y0617236D01*
X0622713Y0620437D01*
X0620114Y0623035D01*
X0620283Y0623444D01*
X0620422Y0624500D01*
X0620283Y0625556D01*
X0619876Y0626540D01*
X0619227Y0627385D01*
X0618382Y0628033D01*
X0617398Y0628441D01*
X0616342Y0628580D01*
X0615287Y0628441D01*
X0614303Y0628033D01*
X0613458Y0627385D01*
X0612809Y0626540D01*
X0612402Y0625556D01*
X0612263Y0624500D01*
X0612402Y0623444D01*
X0612809Y0622460D01*
X0613458Y0621615D01*
X0614303Y0620967D01*
X0615287Y0620559D01*
X0616342Y0620420D01*
X0617398Y0620559D01*
X0617807Y0620728D01*
X0619928Y0618608D01*
Y0616153D01*
X0620052Y0615529D01*
X0620073Y0615497D01*
Y0613880D01*
X0623045D01*
X0623129Y0613415D01*
Y0606159D01*
X0622782D01*
Y0599841D01*
X0626738D01*
Y0601703D01*
X0626878Y0601823D01*
X0627378Y0601592D01*
Y0599675D01*
X0627347Y0599653D01*
X0626993Y0599124D01*
X0626869Y0598500D01*
X0626993Y0597876D01*
X0627347Y0597346D01*
X0627770Y0597063D01*
X0627926Y0596512D01*
X0622535Y0591122D01*
X0613861D01*
X0613670Y0591583D01*
X0618962Y0596876D01*
X0619000Y0596869D01*
X0619624Y0596993D01*
X0620154Y0597346D01*
X0620507Y0597876D01*
X0620631Y0598500D01*
X0620507Y0599124D01*
X0620362Y0599341D01*
X0620630Y0599841D01*
X0621718D01*
Y0606159D01*
X0620631D01*
Y0609772D01*
X0620507Y0610396D01*
X0620154Y0610925D01*
X0619654Y0611425D01*
X0619124Y0611779D01*
X0618500Y0611903D01*
X0617876Y0611779D01*
X0617622Y0611609D01*
X0617122Y0611876D01*
Y0613880D01*
X0617927D01*
Y0618427D01*
X0614955D01*
Y0616098D01*
X0614878Y0615713D01*
X0614878Y0615713D01*
Y0604408D01*
X0614378Y0604177D01*
X0614238Y0604297D01*
Y0606159D01*
X0613891D01*
Y0618740D01*
X0613767Y0619365D01*
X0613413Y0619894D01*
X0610272Y0623035D01*
X0610441Y0623444D01*
X0610580Y0624500D01*
X0610441Y0625556D01*
X0610033Y0626540D01*
X0609385Y0627385D01*
X0608540Y0628033D01*
X0607556Y0628441D01*
X0606500Y0628580D01*
X0605444Y0628441D01*
X0604460Y0628033D01*
X0603615Y0627385D01*
X0602967Y0626540D01*
X0602559Y0625556D01*
X0602420Y0624500D01*
X0602559Y0623444D01*
X0602967Y0622460D01*
X0603615Y0621615D01*
X0604460Y0620967D01*
X0605444Y0620559D01*
X0606500Y0620420D01*
X0607052Y0620493D01*
X0607428Y0620163D01*
Y0616153D01*
X0607552Y0615529D01*
X0607573Y0615497D01*
Y0613880D01*
X0610545D01*
X0610629Y0613415D01*
Y0606159D01*
X0610282D01*
Y0599841D01*
X0614238D01*
Y0601703D01*
X0614378Y0601823D01*
X0614878Y0601592D01*
Y0599675D01*
X0614847Y0599653D01*
X0614493Y0599124D01*
X0614369Y0598500D01*
X0614493Y0597876D01*
X0614847Y0597346D01*
X0615270Y0597063D01*
X0615426Y0596512D01*
X0610035Y0591122D01*
X0601361D01*
X0601170Y0591583D01*
X0606462Y0596876D01*
X0606500Y0596869D01*
X0607124Y0596993D01*
X0607654Y0597346D01*
X0608007Y0597876D01*
X0608131Y0598500D01*
X0608007Y0599124D01*
X0607862Y0599341D01*
X0608130Y0599841D01*
X0609218D01*
Y0606159D01*
X0608131D01*
Y0609772D01*
X0608007Y0610396D01*
X0607654Y0610925D01*
X0607154Y0611425D01*
X0606624Y0611779D01*
X0606000Y0611903D01*
X0605376Y0611779D01*
X0605122Y0611609D01*
X0604622Y0611876D01*
Y0613880D01*
X0605427D01*
Y0618427D01*
X0602455D01*
Y0616098D01*
X0602378Y0615713D01*
X0602378Y0615713D01*
Y0604408D01*
X0601878Y0604177D01*
X0601738Y0604297D01*
Y0606159D01*
X0601391D01*
Y0621398D01*
X0601267Y0622022D01*
X0600913Y0622551D01*
X0600429Y0623035D01*
X0600598Y0623444D01*
X0600737Y0624500D01*
X0600598Y0625556D01*
X0600191Y0626540D01*
X0599542Y0627385D01*
X0598697Y0628033D01*
X0597713Y0628441D01*
X0596658Y0628580D01*
X0595602Y0628441D01*
X0594618Y0628033D01*
X0593773Y0627385D01*
X0593124Y0626540D01*
X0592717Y0625556D01*
X0592578Y0624500D01*
X0592717Y0623444D01*
X0593124Y0622460D01*
X0593773Y0621615D01*
X0594618Y0620967D01*
X0594928Y0620838D01*
Y0616153D01*
X0595052Y0615529D01*
X0595073Y0615497D01*
Y0613880D01*
X0598045D01*
X0598129Y0613415D01*
Y0606159D01*
X0597782D01*
Y0599841D01*
X0601738D01*
Y0601703D01*
X0601878Y0601823D01*
X0602378Y0601592D01*
Y0599675D01*
X0602347Y0599653D01*
X0601993Y0599124D01*
X0601869Y0598500D01*
X0601993Y0597876D01*
X0602347Y0597346D01*
X0602770Y0597063D01*
X0602926Y0596512D01*
X0597535Y0591122D01*
X0588861D01*
X0588670Y0591583D01*
X0593962Y0596876D01*
X0594000Y0596869D01*
X0594624Y0596993D01*
X0595154Y0597346D01*
X0595507Y0597876D01*
X0595631Y0598500D01*
X0595507Y0599124D01*
X0595362Y0599341D01*
X0595630Y0599841D01*
X0596718D01*
Y0606159D01*
X0595631D01*
Y0609772D01*
X0595507Y0610396D01*
X0595154Y0610925D01*
X0594654Y0611425D01*
X0594124Y0611779D01*
X0593500Y0611903D01*
X0592876Y0611779D01*
X0592622Y0611609D01*
X0592122Y0611876D01*
Y0613880D01*
X0592927D01*
Y0618427D01*
X0589955D01*
Y0616098D01*
X0589878Y0615713D01*
X0589878Y0615713D01*
Y0604408D01*
X0589378Y0604177D01*
X0589238Y0604297D01*
Y0606159D01*
X0588891D01*
Y0620995D01*
X0589700Y0621615D01*
X0590348Y0622460D01*
X0590756Y0623444D01*
X0590895Y0624500D01*
X0590756Y0625556D01*
X0590348Y0626540D01*
X0589700Y0627385D01*
X0588855Y0628033D01*
X0587871Y0628441D01*
X0586815Y0628580D01*
X0585759Y0628441D01*
X0584775Y0628033D01*
X0583930Y0627385D01*
X0583282Y0626540D01*
X0582874Y0625556D01*
X0582735Y0624500D01*
X0582874Y0623444D01*
X0583058Y0623000D01*
X0582905Y0622898D01*
X0582552Y0622368D01*
X0582428Y0621744D01*
Y0616153D01*
X0582552Y0615529D01*
X0582573Y0615497D01*
Y0613880D01*
X0585545D01*
X0585629Y0613415D01*
Y0606159D01*
X0585282D01*
Y0599841D01*
X0589238D01*
Y0601703D01*
X0589378Y0601823D01*
X0589878Y0601592D01*
Y0599675D01*
X0589847Y0599653D01*
X0589493Y0599124D01*
X0589369Y0598500D01*
X0589493Y0597876D01*
X0589847Y0597346D01*
X0590270Y0597063D01*
X0590426Y0596512D01*
X0585432Y0591518D01*
X0585376Y0591507D01*
X0584846Y0591153D01*
X0584825Y0591122D01*
X0582622D01*
Y0597325D01*
X0582654Y0597346D01*
X0583007Y0597876D01*
X0583131Y0598500D01*
X0583007Y0599124D01*
X0582862Y0599341D01*
X0583130Y0599841D01*
X0584218D01*
Y0606159D01*
X0583131D01*
Y0609772D01*
X0583007Y0610396D01*
X0582654Y0610925D01*
X0582154Y0611425D01*
X0581624Y0611779D01*
X0581000Y0611903D01*
X0580376Y0611779D01*
X0580122Y0611609D01*
X0579622Y0611876D01*
Y0613880D01*
X0580427D01*
Y0618427D01*
X0577455D01*
Y0616098D01*
X0577378Y0615713D01*
X0577378Y0615713D01*
Y0604408D01*
X0576878Y0604177D01*
X0576738Y0604297D01*
Y0606159D01*
X0576391D01*
Y0620118D01*
X0576767Y0620447D01*
X0576972Y0620420D01*
X0578028Y0620559D01*
X0579012Y0620967D01*
X0579857Y0621615D01*
X0580506Y0622460D01*
X0580913Y0623444D01*
X0581052Y0624500D01*
X0580913Y0625556D01*
X0580506Y0626540D01*
X0579857Y0627385D01*
X0579012Y0628033D01*
X0578028Y0628441D01*
X0576972Y0628580D01*
X0575916Y0628441D01*
X0574932Y0628033D01*
X0574088Y0627385D01*
X0573439Y0626540D01*
X0573032Y0625556D01*
X0572893Y0624500D01*
X0573032Y0623444D01*
X0573201Y0623035D01*
X0570405Y0620240D01*
X0570052Y0619711D01*
X0569928Y0619087D01*
Y0616153D01*
X0570052Y0615529D01*
X0570073Y0615497D01*
Y0613880D01*
X0573045D01*
X0573129Y0613415D01*
Y0606159D01*
X0572782D01*
Y0599841D01*
X0576738D01*
Y0601703D01*
X0576878Y0601823D01*
X0577378Y0601592D01*
Y0599675D01*
X0577347Y0599653D01*
X0576993Y0599124D01*
X0576869Y0598500D01*
X0576993Y0597876D01*
X0577347Y0597346D01*
X0577876Y0596993D01*
X0578500Y0596869D01*
X0579124Y0596993D01*
X0579654Y0597346D01*
X0580174Y0597256D01*
X0580378Y0597044D01*
Y0591122D01*
X0577965D01*
X0570624Y0598462D01*
X0570631Y0598500D01*
X0570507Y0599124D01*
X0570362Y0599341D01*
X0570630Y0599841D01*
X0571718D01*
Y0606159D01*
X0570631D01*
Y0609772D01*
X0570507Y0610396D01*
X0570154Y0610925D01*
X0569654Y0611425D01*
X0569124Y0611779D01*
X0568500Y0611903D01*
X0567876Y0611779D01*
X0567622Y0611609D01*
X0567122Y0611876D01*
Y0613880D01*
X0567927D01*
Y0618427D01*
X0564955D01*
Y0616098D01*
X0564878Y0615713D01*
X0564878Y0615713D01*
Y0604408D01*
X0564378Y0604177D01*
X0564238Y0604297D01*
Y0606159D01*
X0563891D01*
Y0618954D01*
X0565665Y0620728D01*
X0566074Y0620559D01*
X0567130Y0620420D01*
X0568186Y0620559D01*
X0569170Y0620967D01*
X0570015Y0621615D01*
X0570663Y0622460D01*
X0571071Y0623444D01*
X0571210Y0624500D01*
X0571071Y0625556D01*
X0570663Y0626540D01*
X0570015Y0627385D01*
X0569170Y0628033D01*
X0568186Y0628441D01*
X0567130Y0628580D01*
X0566074Y0628441D01*
X0565090Y0628033D01*
X0564245Y0627385D01*
X0563597Y0626540D01*
X0563189Y0625556D01*
X0563050Y0624500D01*
X0563189Y0623444D01*
X0563358Y0623035D01*
X0561106Y0620784D01*
X0558750Y0618427D01*
X0557573D01*
Y0617085D01*
X0557552Y0617053D01*
X0557428Y0616429D01*
Y0616153D01*
X0557552Y0615529D01*
X0557573Y0615497D01*
Y0613880D01*
X0560545D01*
X0560629Y0613415D01*
Y0606159D01*
X0560282D01*
Y0599841D01*
X0564238D01*
Y0601703D01*
X0564378Y0601823D01*
X0564878Y0601592D01*
Y0599675D01*
X0564847Y0599653D01*
X0564493Y0599124D01*
X0564369Y0598500D01*
X0564493Y0597876D01*
X0564847Y0597346D01*
X0565376Y0596993D01*
X0566000Y0596869D01*
X0566624Y0596993D01*
X0567154Y0597346D01*
X0567250Y0597491D01*
X0567750D01*
X0567846Y0597346D01*
X0568376Y0596993D01*
X0569000Y0596869D01*
X0569038Y0596876D01*
X0574330Y0591583D01*
X0574139Y0591122D01*
X0565465D01*
X0558124Y0598462D01*
X0558131Y0598500D01*
X0558007Y0599124D01*
X0557862Y0599341D01*
X0558130Y0599841D01*
X0559218D01*
Y0606159D01*
X0558131D01*
Y0609772D01*
X0558007Y0610396D01*
X0557654Y0610925D01*
X0557154Y0611425D01*
X0556624Y0611779D01*
X0556000Y0611903D01*
X0555376Y0611779D01*
X0555122Y0611609D01*
X0554622Y0611876D01*
Y0613880D01*
X0555427D01*
Y0618427D01*
X0552455D01*
Y0616098D01*
X0552378Y0615713D01*
X0552378Y0615713D01*
Y0604408D01*
X0551878Y0604177D01*
X0551738Y0604297D01*
Y0606159D01*
X0551391D01*
Y0618679D01*
X0554332Y0621620D01*
X0554403Y0621615D01*
X0555247Y0620967D01*
X0556231Y0620559D01*
X0557287Y0620420D01*
X0558343Y0620559D01*
X0559327Y0620967D01*
X0560172Y0621615D01*
X0560821Y0622460D01*
X0561228Y0623444D01*
X0561367Y0624500D01*
X0561228Y0625556D01*
X0560821Y0626540D01*
X0560172Y0627385D01*
X0559327Y0628033D01*
X0558343Y0628441D01*
X0557287Y0628580D01*
X0556231Y0628441D01*
X0555247Y0628033D01*
X0554403Y0627385D01*
X0553754Y0626540D01*
X0553347Y0625556D01*
X0553300Y0625202D01*
X0551943Y0623844D01*
X0551469Y0624078D01*
X0551525Y0624500D01*
X0551386Y0625556D01*
X0550978Y0626540D01*
X0550330Y0627385D01*
X0549485Y0628033D01*
X0548501Y0628441D01*
X0547445Y0628580D01*
X0546389Y0628441D01*
X0545405Y0628033D01*
X0544560Y0627385D01*
X0543912Y0626540D01*
X0543504Y0625556D01*
X0543472Y0625314D01*
X0536106Y0617948D01*
X0535753Y0617418D01*
X0535629Y0616794D01*
Y0606663D01*
X0535622Y0606662D01*
X0535122Y0607081D01*
Y0614500D01*
X0535129D01*
X0535012Y0615696D01*
X0534663Y0616846D01*
X0534096Y0617905D01*
X0533334Y0618834D01*
X0532405Y0619596D01*
X0531346Y0620163D01*
X0530196Y0620512D01*
X0529000Y0620630D01*
Y0620622D01*
X0524000D01*
X0523952Y0620612D01*
X0522265Y0620778D01*
X0520597Y0621284D01*
X0519059Y0622106D01*
X0517712Y0623212D01*
X0516606Y0624559D01*
X0515784Y0626097D01*
X0515278Y0627765D01*
X0515107Y0629500D01*
X0515278Y0631235D01*
X0515784Y0632903D01*
X0516606Y0634441D01*
X0517712Y0635788D01*
X0519059Y0636894D01*
X0520597Y0637716D01*
X0522265Y0638222D01*
X0523952Y0638388D01*
X0524000Y0638378D01*
D02*
G37*
G36*
X0783928Y0631986D02*
X0783721Y0631486D01*
X0779880D01*
Y0628514D01*
X0781693D01*
X0783604Y0626603D01*
Y0624836D01*
X0780246D01*
Y0616943D01*
X0789714D01*
Y0624836D01*
X0786357D01*
Y0627173D01*
X0786252Y0627700D01*
X0785954Y0628147D01*
X0784427Y0629673D01*
Y0630780D01*
X0784927Y0630987D01*
X0794378Y0621535D01*
Y0612465D01*
X0787107Y0605193D01*
X0786864Y0604829D01*
X0786778Y0604400D01*
X0786778Y0604400D01*
Y0589130D01*
X0786778Y0589130D01*
X0786864Y0588701D01*
X0787107Y0588337D01*
X0788337Y0587107D01*
X0788337Y0587107D01*
X0788701Y0586864D01*
X0789130Y0586778D01*
X0789130Y0586778D01*
X0793315D01*
X0793467Y0586278D01*
X0793463Y0586276D01*
X0793175Y0585846D01*
X0793075Y0585339D01*
X0793175Y0584831D01*
X0793463Y0584401D01*
X0793525Y0584360D01*
Y0583758D01*
X0793463Y0583717D01*
X0793175Y0583287D01*
X0793118Y0583000D01*
X0787966D01*
X0787756Y0583500D01*
X0788007Y0583876D01*
X0788131Y0584500D01*
X0788007Y0585124D01*
X0787653Y0585653D01*
X0787124Y0586007D01*
X0786500Y0586131D01*
X0785876Y0586007D01*
X0785347Y0585653D01*
X0784993Y0585124D01*
X0784869Y0584500D01*
X0784876Y0584462D01*
X0783783Y0583370D01*
X0783322Y0583561D01*
Y0590575D01*
X0783236Y0591004D01*
X0782993Y0591368D01*
X0782993Y0591368D01*
X0780379Y0593982D01*
X0780625Y0594443D01*
X0780916Y0594385D01*
X0781000Y0594351D01*
X0784000D01*
X0784084Y0594385D01*
X0784624Y0594493D01*
X0785153Y0594846D01*
X0785507Y0595376D01*
X0785631Y0596000D01*
X0785507Y0596624D01*
X0785153Y0597154D01*
X0784624Y0597507D01*
X0784084Y0597615D01*
X0784000Y0597649D01*
X0782122D01*
Y0603535D01*
X0788462Y0609876D01*
X0788500Y0609869D01*
X0789124Y0609993D01*
X0789653Y0610347D01*
X0790007Y0610876D01*
X0790131Y0611500D01*
X0790007Y0612124D01*
X0789653Y0612653D01*
X0789124Y0613007D01*
X0788500Y0613131D01*
X0787876Y0613007D01*
X0787347Y0612653D01*
X0786993Y0612124D01*
X0786869Y0611500D01*
X0786876Y0611462D01*
X0780914Y0605500D01*
X0780452Y0605692D01*
Y0612669D01*
X0780452Y0612669D01*
X0780367Y0613098D01*
X0780124Y0613462D01*
X0780124Y0613462D01*
X0778624Y0614962D01*
X0778631Y0615000D01*
X0778507Y0615624D01*
X0778154Y0616153D01*
X0777624Y0616507D01*
X0777000Y0616631D01*
X0776376Y0616507D01*
X0775846Y0616153D01*
X0775493Y0615624D01*
X0775369Y0615000D01*
X0775493Y0614376D01*
X0775846Y0613846D01*
X0775991Y0613750D01*
Y0613250D01*
X0775846Y0613154D01*
X0775493Y0612624D01*
X0775369Y0612000D01*
X0775493Y0611376D01*
X0775846Y0610847D01*
X0775878Y0610825D01*
Y0604227D01*
X0775253Y0603602D01*
X0774754Y0603809D01*
Y0611057D01*
X0765286D01*
Y0603164D01*
X0773849D01*
X0774090Y0602664D01*
X0773904Y0602422D01*
X0755655D01*
X0755226Y0602336D01*
X0754862Y0602093D01*
X0754862Y0602093D01*
X0753000Y0600231D01*
Y0600201D01*
X0752970D01*
X0749149Y0596381D01*
X0748649Y0596588D01*
X0748649Y0599500D01*
X0748459Y0599959D01*
X0748000Y0600149D01*
X0746524D01*
Y0600201D01*
X0743000Y0600201D01*
X0743000Y0601000D01*
X0742000Y0602000D01*
X0736000D01*
Y0599000D01*
X0733000D01*
Y0599008D01*
X0732888Y0598961D01*
X0728366Y0603484D01*
X0729124Y0604243D01*
X0730683D01*
Y0607214D01*
X0729962D01*
X0729775Y0607714D01*
X0729857Y0607786D01*
X0730683D01*
Y0610757D01*
X0729656D01*
X0729624Y0610779D01*
X0729000Y0610903D01*
X0728376Y0610779D01*
X0728344Y0610757D01*
X0727317D01*
Y0610757D01*
X0727183D01*
Y0610757D01*
X0724098D01*
Y0611554D01*
X0724485Y0611872D01*
X0724500Y0611869D01*
X0725124Y0611993D01*
X0725654Y0612347D01*
X0726007Y0612876D01*
X0726131Y0613500D01*
X0726124Y0613538D01*
X0729965Y0617378D01*
X0732807D01*
X0733007Y0616878D01*
X0732851Y0616500D01*
Y0607000D01*
X0733041Y0606541D01*
X0733350Y0606413D01*
Y0606260D01*
X0746524Y0606260D01*
Y0606351D01*
X0748114D01*
Y0606260D01*
X0750000D01*
Y0606350D01*
X0751000D01*
X0751057Y0606374D01*
X0751886D01*
Y0607358D01*
X0751649D01*
Y0614123D01*
X0761500D01*
X0762027Y0614228D01*
X0762473Y0614527D01*
X0765006Y0617059D01*
X0765286Y0616943D01*
Y0616943D01*
X0774754D01*
Y0624836D01*
X0767377D01*
Y0627000D01*
X0767377Y0627000D01*
X0767272Y0627527D01*
X0766973Y0627973D01*
X0766973Y0627973D01*
X0765042Y0629905D01*
Y0630400D01*
X0765242Y0630817D01*
X0766825D01*
X0770994Y0626648D01*
X0770994Y0626648D01*
X0771358Y0626405D01*
X0771573Y0626362D01*
Y0625955D01*
X0776120D01*
Y0628927D01*
X0771888D01*
X0770859Y0629955D01*
X0771050Y0630417D01*
X0772157D01*
Y0630673D01*
X0772847D01*
Y0632559D01*
X0773846D01*
Y0633559D01*
X0776520D01*
Y0633578D01*
X0782335D01*
X0783928Y0631986D01*
D02*
G37*
%LPC*%
G36*
X0523000Y0554538D02*
X0522608Y0554500D01*
X0521269Y0554094D01*
X0520035Y0553434D01*
X0518954Y0552546D01*
X0518066Y0551465D01*
X0517407Y0550231D01*
X0517000Y0548892D01*
X0516962Y0548500D01*
X0523000D01*
Y0554538D01*
D02*
G37*
G36*
Y0546500D02*
X0516962D01*
X0517000Y0546108D01*
X0517407Y0544769D01*
X0518066Y0543535D01*
X0518954Y0542454D01*
X0520035Y0541566D01*
X0521269Y0540906D01*
X0522608Y0540500D01*
X0523000Y0540462D01*
Y0546500D01*
D02*
G37*
G36*
X0531038D02*
X0525000D01*
Y0540462D01*
X0525392Y0540500D01*
X0526731Y0540906D01*
X0527965Y0541566D01*
X0529046Y0542454D01*
X0529934Y0543535D01*
X0530593Y0544769D01*
X0531000Y0546108D01*
X0531038Y0546500D01*
D02*
G37*
G36*
X0525000Y0554538D02*
Y0548500D01*
X0531038D01*
X0531000Y0548892D01*
X0530593Y0550231D01*
X0529934Y0551465D01*
X0529046Y0552546D01*
X0527965Y0553434D01*
X0526731Y0554094D01*
X0525392Y0554500D01*
X0525000Y0554538D01*
D02*
G37*
G36*
X0579000Y0570131D02*
X0578376Y0570007D01*
X0577846Y0569654D01*
X0577493Y0569124D01*
X0577369Y0568500D01*
X0577493Y0567876D01*
X0577846Y0567346D01*
X0578376Y0566993D01*
X0579000Y0566869D01*
X0579624Y0566993D01*
X0580154Y0567346D01*
X0580507Y0567876D01*
X0580631Y0568500D01*
X0580507Y0569124D01*
X0580154Y0569654D01*
X0579624Y0570007D01*
X0579000Y0570131D01*
D02*
G37*
G36*
X0586450Y0579824D02*
X0581313D01*
Y0577156D01*
X0572280D01*
X0571753Y0577051D01*
X0571306Y0576753D01*
X0564531Y0569977D01*
X0564105Y0570154D01*
X0563126Y0570282D01*
X0562147Y0570154D01*
X0561235Y0569776D01*
X0560452Y0569174D01*
X0559850Y0568391D01*
X0559473Y0567479D01*
X0559344Y0566500D01*
X0559473Y0565521D01*
X0559850Y0564609D01*
X0560452Y0563826D01*
X0561235Y0563224D01*
X0561769Y0563003D01*
X0561854Y0562576D01*
X0562153Y0562129D01*
X0563742Y0560539D01*
Y0559317D01*
X0566714D01*
Y0562683D01*
X0565774D01*
X0565437Y0563039D01*
X0565477Y0563577D01*
X0565801Y0563826D01*
X0566402Y0564609D01*
X0566780Y0565521D01*
X0566811Y0565759D01*
X0567315D01*
X0567346Y0565521D01*
X0567724Y0564609D01*
X0568326Y0563826D01*
X0568715Y0563527D01*
X0568752Y0563009D01*
X0568440Y0562683D01*
X0567286D01*
Y0559317D01*
X0570258D01*
Y0560539D01*
X0571973Y0562255D01*
X0572272Y0562702D01*
X0572329Y0562992D01*
X0572891Y0563224D01*
X0573674Y0563826D01*
X0574276Y0564609D01*
X0574653Y0565521D01*
X0574782Y0566500D01*
X0574653Y0567479D01*
X0574440Y0567994D01*
X0578291Y0571844D01*
X0581313D01*
Y0569176D01*
X0586450D01*
Y0571735D01*
Y0574294D01*
Y0576853D01*
Y0579824D01*
D02*
G37*
G36*
X0618157Y0564583D02*
X0617272D01*
Y0563500D01*
X0618157D01*
Y0564583D01*
D02*
G37*
G36*
X0544000Y0582802D02*
Y0579748D01*
X0547054D01*
X0547043Y0579831D01*
X0546625Y0580841D01*
X0545960Y0581708D01*
X0545093Y0582373D01*
X0544083Y0582791D01*
X0544000Y0582802D01*
D02*
G37*
G36*
X0542000Y0582802D02*
X0541917Y0582791D01*
X0540907Y0582373D01*
X0540040Y0581708D01*
X0539375Y0580841D01*
X0538957Y0579831D01*
X0538946Y0579748D01*
X0542000D01*
Y0582802D01*
D02*
G37*
G36*
X0615520Y0572059D02*
X0613846D01*
Y0571173D01*
X0615520D01*
Y0572059D01*
D02*
G37*
G36*
X0693000Y0557886D02*
X0691976D01*
Y0556902D01*
X0693000D01*
Y0557886D01*
D02*
G37*
G36*
X0704000Y0559500D02*
X0700850D01*
Y0556750D01*
X0704000D01*
Y0559500D01*
D02*
G37*
G36*
X0675366Y0556000D02*
X0673398D01*
Y0553835D01*
X0675366D01*
Y0556000D01*
D02*
G37*
G36*
X0720300Y0569000D02*
X0717150D01*
Y0566250D01*
X0720300D01*
Y0569000D01*
D02*
G37*
G36*
X0724024Y0564098D02*
X0723000D01*
Y0563114D01*
X0724024D01*
Y0564098D01*
D02*
G37*
G36*
X0715150Y0569000D02*
X0712000D01*
Y0566250D01*
X0715150D01*
Y0569000D01*
D02*
G37*
G36*
X0600524Y0578098D02*
X0599500D01*
Y0577114D01*
X0600524D01*
Y0578098D01*
D02*
G37*
G36*
X0790626Y0597886D02*
X0789642D01*
Y0597000D01*
X0790626D01*
Y0597886D01*
D02*
G37*
G36*
X0793610D02*
X0792626D01*
Y0597000D01*
X0793610D01*
Y0597886D01*
D02*
G37*
G36*
Y0595000D02*
X0792626D01*
Y0594114D01*
X0793610D01*
Y0595000D01*
D02*
G37*
G36*
X0795600Y0592190D02*
X0794400D01*
X0793737Y0592058D01*
X0793174Y0591682D01*
X0793024Y0591457D01*
X0795600D01*
Y0592190D01*
D02*
G37*
G36*
X0790626Y0595000D02*
X0789642D01*
Y0594114D01*
X0790626D01*
Y0595000D01*
D02*
G37*
G36*
X0795907Y0554691D02*
X0788093D01*
Y0552818D01*
X0787847Y0552654D01*
X0787493Y0552124D01*
X0787369Y0551500D01*
X0787493Y0550876D01*
X0787847Y0550347D01*
X0787969Y0550265D01*
Y0549735D01*
X0787847Y0549653D01*
X0787493Y0549124D01*
X0787369Y0548500D01*
X0787493Y0547876D01*
X0787847Y0547346D01*
X0788376Y0546993D01*
X0789000Y0546869D01*
X0789624Y0546993D01*
X0790154Y0547346D01*
X0790260Y0547506D01*
X0790740D01*
X0790846Y0547346D01*
X0791376Y0546993D01*
X0792000Y0546869D01*
X0792624Y0546993D01*
X0793153Y0547346D01*
X0793260Y0547506D01*
X0793740D01*
X0793847Y0547346D01*
X0794376Y0546993D01*
X0795000Y0546869D01*
X0795624Y0546993D01*
X0796153Y0547346D01*
X0796507Y0547876D01*
X0796631Y0548500D01*
X0796507Y0549124D01*
X0796153Y0549653D01*
X0796031Y0549735D01*
Y0550265D01*
X0796153Y0550347D01*
X0796507Y0550876D01*
X0796631Y0551500D01*
X0796507Y0552124D01*
X0796153Y0552654D01*
X0795907Y0552818D01*
Y0554691D01*
D02*
G37*
G36*
X0744570Y0625820D02*
X0737858D01*
Y0624622D01*
X0737257D01*
Y0625183D01*
X0734286D01*
Y0621817D01*
X0737257D01*
Y0622378D01*
X0737858D01*
Y0621471D01*
X0744570D01*
Y0625820D01*
D02*
G37*
G36*
X0721500Y0629626D02*
X0720614D01*
Y0628642D01*
X0721500D01*
Y0629626D01*
D02*
G37*
G36*
X0724386D02*
X0723500D01*
Y0628642D01*
X0724386D01*
Y0629626D01*
D02*
G37*
G36*
X0738661Y0570535D02*
X0737739D01*
Y0569272D01*
X0737885Y0568536D01*
X0738302Y0567912D01*
X0738661Y0567672D01*
Y0570535D01*
D02*
G37*
G36*
X0736524Y0571886D02*
X0735500D01*
Y0570902D01*
X0736524D01*
Y0571886D01*
D02*
G37*
G36*
X0751886Y0548024D02*
X0750902D01*
Y0547000D01*
X0751886D01*
Y0548024D01*
D02*
G37*
G36*
X0623257Y0546683D02*
X0620286D01*
Y0546623D01*
X0619786Y0546372D01*
X0619714Y0546425D01*
Y0546683D01*
X0616743D01*
Y0543317D01*
X0619714D01*
Y0543511D01*
X0619786Y0543564D01*
X0620286Y0543317D01*
Y0543317D01*
X0623257D01*
Y0544344D01*
X0623279Y0544376D01*
X0623403Y0545000D01*
X0623279Y0545624D01*
X0623257Y0545656D01*
Y0546683D01*
D02*
G37*
G36*
X0591757Y0546682D02*
X0588786D01*
Y0543317D01*
X0591757D01*
Y0543420D01*
X0592124Y0543493D01*
X0592654Y0543847D01*
X0593007Y0544376D01*
X0593131Y0545000D01*
X0593007Y0545624D01*
X0592654Y0546153D01*
X0592124Y0546507D01*
X0591757Y0546580D01*
Y0546682D01*
D02*
G37*
G36*
X0600000Y0556358D02*
X0599114D01*
Y0555374D01*
X0600000D01*
Y0556358D01*
D02*
G37*
G36*
X0602886D02*
X0602000D01*
Y0555374D01*
X0602886D01*
Y0556358D01*
D02*
G37*
G36*
X0591757Y0555183D02*
X0588786D01*
Y0551817D01*
X0591757D01*
Y0551920D01*
X0592124Y0551993D01*
X0592654Y0552347D01*
X0593007Y0552876D01*
X0593131Y0553500D01*
X0593007Y0554124D01*
X0592654Y0554654D01*
X0592124Y0555007D01*
X0591757Y0555080D01*
Y0555183D01*
D02*
G37*
G36*
X0600000Y0553374D02*
X0599114D01*
Y0552390D01*
X0600000D01*
Y0553374D01*
D02*
G37*
G36*
X0602886D02*
X0602000D01*
Y0552390D01*
X0602886D01*
Y0553374D01*
D02*
G37*
G36*
X0639059Y0557154D02*
X0638173D01*
Y0555480D01*
X0639059D01*
Y0557154D01*
D02*
G37*
G36*
X0641945D02*
X0641059D01*
Y0555480D01*
X0641945D01*
Y0557154D01*
D02*
G37*
G36*
X0630445D02*
X0629559D01*
Y0555480D01*
X0630445D01*
Y0557154D01*
D02*
G37*
G36*
X0627559D02*
X0626673D01*
Y0555480D01*
X0627559D01*
Y0557154D01*
D02*
G37*
G36*
X0531038Y0628500D02*
X0525000D01*
Y0622462D01*
X0525392Y0622500D01*
X0526731Y0622906D01*
X0527965Y0623566D01*
X0529046Y0624454D01*
X0529934Y0625535D01*
X0530593Y0626769D01*
X0531000Y0628108D01*
X0531038Y0628500D01*
D02*
G37*
G36*
X0523000D02*
X0516962D01*
X0517000Y0628108D01*
X0517407Y0626769D01*
X0518066Y0625535D01*
X0518954Y0624454D01*
X0520035Y0623566D01*
X0521269Y0622906D01*
X0522608Y0622500D01*
X0523000Y0622462D01*
Y0628500D01*
D02*
G37*
G36*
X0692054Y0628937D02*
X0688000D01*
X0683946D01*
X0683957Y0628854D01*
X0684375Y0627844D01*
X0685040Y0626977D01*
X0685907Y0626312D01*
X0686530Y0626054D01*
Y0625513D01*
X0686109Y0625339D01*
X0685325Y0624738D01*
X0684724Y0623954D01*
X0684346Y0623042D01*
X0684218Y0622063D01*
X0684346Y0621084D01*
X0684724Y0620172D01*
X0685325Y0619388D01*
X0686109Y0618787D01*
X0687021Y0618409D01*
X0688000Y0618281D01*
X0688979Y0618409D01*
X0689891Y0618787D01*
X0690674Y0619388D01*
X0691276Y0620172D01*
X0691653Y0621084D01*
X0691782Y0622063D01*
X0691653Y0623042D01*
X0691276Y0623954D01*
X0690674Y0624738D01*
X0689891Y0625339D01*
X0689470Y0625513D01*
Y0626054D01*
X0690093Y0626312D01*
X0690960Y0626977D01*
X0691625Y0627844D01*
X0692043Y0628854D01*
X0692054Y0628937D01*
D02*
G37*
G36*
X0687000Y0633991D02*
X0686917Y0633980D01*
X0685907Y0633562D01*
X0685040Y0632897D01*
X0684375Y0632030D01*
X0683957Y0631020D01*
X0683946Y0630937D01*
X0687000D01*
Y0633991D01*
D02*
G37*
G36*
X0689000Y0633991D02*
Y0630937D01*
X0692054D01*
X0692043Y0631020D01*
X0691625Y0632030D01*
X0690960Y0632897D01*
X0690093Y0633562D01*
X0689083Y0633980D01*
X0689000Y0633991D01*
D02*
G37*
G36*
X0701158Y0635083D02*
X0700272D01*
Y0634000D01*
X0701158D01*
Y0635083D01*
D02*
G37*
G36*
X0523000Y0636538D02*
X0522608Y0636500D01*
X0521269Y0636094D01*
X0520035Y0635434D01*
X0518954Y0634546D01*
X0518066Y0633465D01*
X0517407Y0632231D01*
X0517000Y0630892D01*
X0516962Y0630500D01*
X0523000D01*
Y0636538D01*
D02*
G37*
G36*
X0525000D02*
Y0630500D01*
X0531038D01*
X0531000Y0630892D01*
X0530593Y0632231D01*
X0529934Y0633465D01*
X0529046Y0634546D01*
X0527965Y0635434D01*
X0526731Y0636094D01*
X0525392Y0636500D01*
X0525000Y0636538D01*
D02*
G37*
G36*
X0776520Y0631559D02*
X0774847D01*
Y0630673D01*
X0776520D01*
Y0631559D01*
D02*
G37*
%LPD*%
D18*
X0782374Y0596000D02*
D03*
X0791626D02*
D03*
D29*
X0735760Y0613500D02*
D03*
X0743240D02*
D03*
X0544740Y0603000D02*
D03*
X0537260D02*
D03*
X0557240D02*
D03*
X0549760D02*
D03*
X0569740D02*
D03*
X0562260D02*
D03*
X0582240D02*
D03*
X0574760D02*
D03*
X0594740D02*
D03*
X0587260D02*
D03*
X0607240D02*
D03*
X0599760D02*
D03*
X0619740D02*
D03*
X0612260D02*
D03*
X0632240D02*
D03*
X0624760D02*
D03*
X0644740D02*
D03*
X0637260D02*
D03*
X0657240D02*
D03*
X0649760D02*
D03*
X0669740D02*
D03*
X0662260D02*
D03*
X0682240D02*
D03*
X0674760D02*
D03*
D41*
X0802500Y0582272D02*
D03*
Y0578728D02*
D03*
X0691000Y0612728D02*
D03*
Y0616272D02*
D03*
X0767000Y0578728D02*
D03*
Y0582272D02*
D03*
Y0553772D02*
D03*
Y0550228D02*
D03*
X0770500D02*
D03*
Y0553772D02*
D03*
X0729000Y0609272D02*
D03*
Y0605728D02*
D03*
X0725500Y0609272D02*
D03*
Y0605728D02*
D03*
X0667500Y0553772D02*
D03*
Y0550228D02*
D03*
D42*
X0685886Y0607000D02*
D03*
X0689114D02*
D03*
X0722114Y0610000D02*
D03*
X0718886D02*
D03*
X0702614Y0571000D02*
D03*
X0699386D02*
D03*
X0723114Y0577000D02*
D03*
X0719886D02*
D03*
X0723114Y0573500D02*
D03*
X0719886D02*
D03*
X0704114Y0617000D02*
D03*
X0700886D02*
D03*
X0694386D02*
D03*
X0697614D02*
D03*
X0545386Y0593500D02*
D03*
X0548614D02*
D03*
X0752886Y0546000D02*
D03*
X0756114D02*
D03*
D43*
X0802500Y0588614D02*
D03*
Y0585386D02*
D03*
X0734500Y0576114D02*
D03*
Y0572886D02*
D03*
X0735500Y0586886D02*
D03*
Y0590114D02*
D03*
X0744500Y0608114D02*
D03*
Y0604886D02*
D03*
Y0597886D02*
D03*
Y0601114D02*
D03*
X0722000Y0562114D02*
D03*
Y0558886D02*
D03*
X0694000D02*
D03*
Y0562114D02*
D03*
X0598500Y0576114D02*
D03*
Y0572886D02*
D03*
X0763000Y0582114D02*
D03*
Y0578886D02*
D03*
X0735000Y0555386D02*
D03*
Y0558614D02*
D03*
D44*
X0745228Y0566500D02*
D03*
X0748772D02*
D03*
X0624728Y0570500D02*
D03*
X0628272D02*
D03*
X0714272Y0614500D02*
D03*
X0710728D02*
D03*
X0590272Y0553500D02*
D03*
X0586728D02*
D03*
X0755772Y0570000D02*
D03*
X0752228D02*
D03*
X0717772Y0619000D02*
D03*
X0714228D02*
D03*
X0717772Y0622500D02*
D03*
X0714228D02*
D03*
X0621772Y0545000D02*
D03*
X0618228D02*
D03*
X0565228Y0561000D02*
D03*
X0568772D02*
D03*
X0629728Y0565500D02*
D03*
X0633272D02*
D03*
X0639772Y0562500D02*
D03*
X0636228D02*
D03*
X0609772D02*
D03*
X0606228D02*
D03*
X0616272D02*
D03*
X0612728D02*
D03*
X0752228Y0566500D02*
D03*
X0755772D02*
D03*
X0735772Y0623500D02*
D03*
X0732228D02*
D03*
X0760043Y0618500D02*
D03*
X0756500D02*
D03*
X0735772Y0629500D02*
D03*
X0732228D02*
D03*
X0695728D02*
D03*
X0699272D02*
D03*
X0695728Y0633000D02*
D03*
X0699272D02*
D03*
X0551772Y0571000D02*
D03*
X0548228D02*
D03*
X0551772Y0563000D02*
D03*
X0548228D02*
D03*
X0538728Y0593500D02*
D03*
X0542272D02*
D03*
X0633272Y0562500D02*
D03*
X0629728D02*
D03*
X0664228Y0559000D02*
D03*
X0667772D02*
D03*
X0623228Y0562500D02*
D03*
X0626772D02*
D03*
X0586728Y0545000D02*
D03*
X0590271D02*
D03*
X0636228Y0568500D02*
D03*
X0639772D02*
D03*
X0766728Y0632500D02*
D03*
X0770272D02*
D03*
D46*
X0634941Y0558153D02*
D03*
X0640059D02*
D03*
X0637500Y0549847D02*
D03*
X0623441Y0558153D02*
D03*
X0628559D02*
D03*
X0626000Y0549847D02*
D03*
X0614500D02*
D03*
X0617059Y0558153D02*
D03*
X0611941D02*
D03*
X0541441Y0616153D02*
D03*
X0546559D02*
D03*
X0544000Y0607846D02*
D03*
X0556500D02*
D03*
X0559059Y0616153D02*
D03*
X0553941D02*
D03*
X0566441D02*
D03*
X0571559D02*
D03*
X0569000Y0607846D02*
D03*
X0581500D02*
D03*
X0584059Y0616153D02*
D03*
X0578941D02*
D03*
X0591441D02*
D03*
X0596559D02*
D03*
X0594000Y0607846D02*
D03*
X0606500D02*
D03*
X0609059Y0616153D02*
D03*
X0603941D02*
D03*
X0616441D02*
D03*
X0621559D02*
D03*
X0619000Y0607846D02*
D03*
X0631500D02*
D03*
X0634059Y0616153D02*
D03*
X0628941D02*
D03*
X0641441D02*
D03*
X0646559D02*
D03*
X0644000Y0607846D02*
D03*
X0656500D02*
D03*
X0659059Y0616153D02*
D03*
X0653941D02*
D03*
X0666441D02*
D03*
X0671559D02*
D03*
X0669000Y0607846D02*
D03*
X0681500D02*
D03*
X0684059Y0616153D02*
D03*
X0678941D02*
D03*
X0663059Y0550347D02*
D03*
X0657941D02*
D03*
X0660500Y0558653D02*
D03*
X0649000Y0549847D02*
D03*
X0651559Y0558153D02*
D03*
X0646441D02*
D03*
D47*
X0686221Y0601205D02*
X0693500D01*
X0583100Y0549600D02*
Y0558856D01*
X0550500Y0596000D02*
Y0603000D01*
X0570937Y0546563D02*
X0578100Y0539400D01*
X0710728Y0615500D02*
X0714228Y0619000D01*
X0710728Y0614500D02*
Y0615500D01*
X0709969Y0613740D02*
X0710728Y0614500D01*
X0709969Y0608193D02*
Y0613740D01*
X0594118Y0575779D02*
X0598165D01*
X0593118D02*
X0594118D01*
X0663105Y0550300D02*
X0712700D01*
X0767000Y0554000D02*
X0767228Y0553772D01*
X0693500Y0601205D02*
X0693705D01*
X0600100Y0564400D02*
X0611500Y0553000D01*
X0623441Y0558153D02*
Y0564941D01*
X0717772Y0622000D02*
X0718272Y0622500D01*
X0789130Y0587900D02*
X0798100D01*
X0585500Y0590000D02*
X0594000Y0598500D01*
X0544000D02*
X0555100Y0587400D01*
X0701100Y0615367D02*
Y0622600D01*
X0739563Y0586563D02*
Y0590858D01*
X0734500Y0576061D02*
Y0576468D01*
X0700126Y0572240D02*
Y0579662D01*
X0698886Y0571000D02*
X0700126Y0572240D01*
X0741118Y0623500D02*
X0741264Y0623646D01*
X0746772Y0564000D02*
X0749272Y0566500D01*
X0590272Y0554000D02*
X0590772Y0553500D01*
X0718052Y0601205D02*
X0726796D01*
X0741118Y0629500D02*
X0741264Y0629354D01*
X0766728Y0632500D02*
X0771787Y0627441D01*
X0766228Y0633000D02*
X0766728Y0632500D01*
X0771787Y0627441D02*
X0773846D01*
X0717300Y0633000D02*
X0766228D01*
X0706297Y0621997D02*
X0717300Y0633000D01*
X0706297Y0615619D02*
Y0621997D01*
X0703500Y0622000D02*
X0716200Y0634700D01*
X0782800D01*
X0777000Y0615000D02*
X0779331Y0612669D01*
X0755655Y0601300D02*
X0774537D01*
X0777000Y0603763D02*
Y0612000D01*
X0774537Y0601300D02*
X0777000Y0603763D01*
X0779331Y0603831D02*
Y0612669D01*
X0775200Y0599700D02*
X0779331Y0603831D01*
X0773075Y0599700D02*
X0775200D01*
X0783700Y0636300D02*
X0801000Y0619000D01*
X0701100Y0622600D02*
X0714800Y0636300D01*
X0786100Y0637900D02*
X0807000Y0617000D01*
X0701000Y0625500D02*
X0713400Y0637900D01*
X0714800Y0636300D02*
X0783700D01*
X0713400Y0637900D02*
X0786100D01*
X0782800Y0634700D02*
X0795500Y0622000D01*
X0626817Y0568317D02*
X0630055D01*
X0629400Y0575400D02*
X0664694D01*
X0624728Y0570728D02*
X0629400Y0575400D01*
X0624728Y0570500D02*
Y0570728D01*
X0623000Y0577000D02*
X0664000D01*
X0618380Y0572380D02*
X0623000Y0577000D01*
X0618380Y0568620D02*
Y0572380D01*
X0763197Y0578728D02*
X0767000D01*
X0734337Y0562400D02*
X0745363D01*
X0754542Y0553221D01*
X0757260D01*
X0754839Y0550661D02*
X0757260D01*
X0744802Y0560698D02*
X0754839Y0550661D01*
X0733776Y0560698D02*
X0744802D01*
X0757260Y0558339D02*
X0771601D01*
X0780600Y0567337D01*
X0771305Y0555780D02*
X0782200Y0566675D01*
X0757260Y0555780D02*
X0771305D01*
X0757772Y0541000D02*
X0767000Y0550228D01*
X0656500Y0541000D02*
X0757772D01*
X0770500Y0550031D02*
Y0550228D01*
X0759869Y0539400D02*
X0770500Y0550031D01*
X0771560Y0553772D02*
X0783800Y0566012D01*
X0770500Y0553772D02*
X0771560D01*
X0783800Y0566012D02*
Y0581800D01*
X0782200Y0566675D02*
Y0590575D01*
X0780600Y0567337D02*
Y0589912D01*
X0779000Y0568000D02*
Y0581276D01*
X0776000Y0565000D02*
X0779000Y0568000D01*
X0766000Y0565000D02*
X0776000D01*
X0578100Y0539400D02*
X0759869D01*
X0761017Y0547008D02*
Y0551983D01*
X0756609Y0542600D02*
X0761017Y0547008D01*
X0720400Y0542600D02*
X0756609D01*
X0766772Y0554000D02*
X0767000D01*
X0767228Y0553772D02*
X0770500D01*
X0773075Y0599700D02*
X0782200Y0590575D01*
X0756657Y0599700D02*
X0773075D01*
X0772412Y0598100D02*
X0780600Y0589912D01*
X0757319Y0598100D02*
X0772412D01*
X0849500Y0582858D02*
X0852413D01*
X0853500Y0581772D01*
X0781000Y0604000D02*
X0788500Y0611500D01*
X0781000Y0596000D02*
Y0604000D01*
X0741293Y0581798D02*
X0741295Y0581800D01*
X0738433Y0581798D02*
X0741293D01*
X0741956Y0580198D02*
X0741958Y0580200D01*
X0737770Y0580198D02*
X0741956D01*
X0742618Y0578598D02*
X0742621Y0578600D01*
X0737108Y0578598D02*
X0742618D01*
X0705178Y0614500D02*
X0706297Y0615619D01*
X0702495Y0614500D02*
X0705178D01*
X0700126Y0612131D02*
X0702495Y0614500D01*
X0697614Y0614144D02*
Y0617000D01*
X0645333Y0566100D02*
X0666708D01*
X0644033Y0564800D02*
X0645333Y0566100D01*
X0646500Y0564000D02*
X0666871D01*
X0638313Y0564800D02*
X0644033D01*
X0640772Y0561500D02*
X0680000D01*
X0639772Y0562500D02*
X0640772Y0561500D01*
X0644600Y0567630D02*
Y0567700D01*
X0643370Y0566400D02*
X0644600Y0567630D01*
X0641630Y0566400D02*
X0643370D01*
X0637500Y0565613D02*
X0638313Y0564800D01*
X0644600Y0567700D02*
X0644670D01*
X0640400Y0567630D02*
X0641630Y0566400D01*
X0640400Y0567630D02*
Y0567700D01*
X0640330D02*
X0640400D01*
X0644670D02*
X0645470Y0568500D01*
X0639772Y0568258D02*
X0640330Y0567700D01*
X0645470Y0568500D02*
X0645500D01*
X0666708Y0566100D02*
X0686064Y0585457D01*
X0637387Y0565613D02*
X0637500D01*
X0639772Y0568258D02*
Y0568500D01*
X0666871Y0564000D02*
X0686359Y0583488D01*
X0666845Y0568500D02*
X0685770Y0587425D01*
X0645500Y0568500D02*
X0666845D01*
X0666682Y0570600D02*
X0685476Y0589394D01*
X0644600Y0570600D02*
X0666682D01*
X0666020Y0572200D02*
X0685182Y0591362D01*
X0636200Y0572200D02*
X0666020D01*
X0665357Y0573800D02*
X0684888Y0593331D01*
X0635537Y0573800D02*
X0665357D01*
X0664694Y0575400D02*
X0684593Y0595299D01*
X0664000Y0577000D02*
X0671000Y0584000D01*
X0642500Y0568500D02*
X0644600Y0570600D01*
X0629728Y0565728D02*
X0636200Y0572200D01*
X0630055Y0568317D02*
X0635537Y0573800D01*
X0621153Y0570500D02*
X0624728D01*
X0629728Y0565500D02*
Y0565728D01*
X0660200Y0579200D02*
X0660500Y0579500D01*
X0597600Y0581600D02*
X0661370D01*
X0596937Y0583200D02*
X0664800D01*
X0596275Y0584800D02*
X0668200D01*
X0663470Y0579500D02*
X0663500D01*
X0664800Y0583200D02*
X0666000Y0582000D01*
X0668200Y0584800D02*
X0668500Y0584500D01*
X0671000Y0586900D02*
Y0587000D01*
Y0584000D02*
Y0586900D01*
X0660500Y0590000D02*
X0673000D01*
X0734161Y0550661D02*
X0739740D01*
X0733421Y0549921D02*
X0734161Y0550661D01*
X0733421Y0547500D02*
Y0549921D01*
X0728221Y0553221D02*
X0739740D01*
X0724079Y0549079D02*
X0728221Y0553221D01*
X0724079Y0547500D02*
Y0549079D01*
X0733421Y0547500D02*
X0735079D01*
X0726500Y0567975D02*
Y0573500D01*
X0729400Y0567337D02*
Y0577000D01*
X0726500Y0567975D02*
X0733776Y0560698D01*
X0729400Y0567337D02*
X0734337Y0562400D01*
X0731000Y0568000D02*
X0735000Y0564000D01*
X0731000Y0568000D02*
Y0577799D01*
X0704063Y0576500D02*
Y0593493D01*
X0777497Y0587898D02*
X0779000Y0586394D01*
X0774900Y0587898D02*
X0777497D01*
X0759500Y0553500D02*
X0761017Y0551983D01*
X0583900Y0564400D02*
X0600100D01*
X0576500Y0557000D02*
X0583900Y0564400D01*
X0602500Y0566000D02*
X0606000Y0562500D01*
X0582500Y0566000D02*
X0602500D01*
X0565000Y0548500D02*
X0582500Y0566000D01*
X0583228Y0541500D02*
X0586728Y0545000D01*
X0583000Y0541500D02*
X0583228D01*
X0586728Y0550258D02*
Y0553500D01*
X0579000Y0550530D02*
Y0551000D01*
X0583100Y0558856D02*
X0585744Y0561500D01*
X0611500Y0553000D02*
X0655287D01*
X0606000Y0562500D02*
X0606228D01*
X0594118Y0570661D02*
X0594315Y0570465D01*
X0598500Y0572886D02*
X0598821Y0572565D01*
X0605435D02*
X0605500Y0572500D01*
X0582000Y0590000D02*
X0585500D01*
X0577500D02*
X0582000D01*
X0586000D02*
X0598000D01*
X0585500D02*
X0586000D01*
X0581500Y0590500D02*
X0582000Y0590000D01*
X0581500Y0590500D02*
Y0598500D01*
X0550500Y0596000D02*
X0557000Y0589500D01*
X0594339Y0578339D02*
X0597600Y0581600D01*
X0661370D02*
X0663470Y0579500D01*
X0637500Y0549847D02*
X0649000D01*
X0593118Y0570661D02*
X0594118D01*
X0714032Y0622500D02*
X0714032Y0622500D01*
X0714228D01*
X0708000Y0616539D02*
X0713844Y0622384D01*
X0719000Y0622500D02*
X0720000Y0621500D01*
X0718272Y0622500D02*
X0719000D01*
X0538772Y0597000D02*
X0542272Y0593500D01*
X0538110Y0597000D02*
X0538772D01*
X0545386Y0593500D02*
X0545886D01*
X0542272D02*
X0545386D01*
X0545886Y0592665D02*
Y0593500D01*
X0673000Y0590000D02*
X0681500Y0598500D01*
X0641000Y0615713D02*
X0641441Y0616153D01*
X0641000Y0598500D02*
Y0615713D01*
X0648000Y0590000D02*
X0660500D01*
X0669000Y0598500D01*
X0635500Y0590000D02*
X0648000D01*
X0656500Y0598500D01*
X0623000Y0590000D02*
X0635500D01*
X0644000Y0598500D01*
X0678500D02*
Y0615713D01*
X0678941Y0616153D01*
X0666000Y0598500D02*
Y0615713D01*
X0666441Y0616153D01*
X0653500Y0598500D02*
Y0615713D01*
X0653941Y0616153D01*
X0616000Y0615713D02*
X0616441Y0616153D01*
X0616000Y0598500D02*
Y0615713D01*
X0610500Y0590000D02*
X0623000D01*
X0565000D02*
X0577500D01*
X0598165Y0573220D02*
X0598500Y0572886D01*
X0598165Y0575779D02*
X0598500Y0576114D01*
X0628500Y0615713D02*
X0628941Y0616153D01*
X0628500Y0598500D02*
Y0615713D01*
X0603500D02*
X0603941Y0616153D01*
X0603500Y0598500D02*
Y0615713D01*
X0591000D02*
X0591441Y0616153D01*
X0591000Y0598500D02*
Y0615713D01*
X0578500D02*
X0578941Y0616153D01*
X0578500Y0598500D02*
Y0615713D01*
X0566000D02*
X0566441Y0616153D01*
X0566000Y0598500D02*
Y0615713D01*
X0553500D02*
X0553941Y0616153D01*
X0553500Y0598500D02*
Y0615713D01*
X0541000D02*
X0541441Y0616153D01*
X0541000Y0598500D02*
Y0615713D01*
X0623000Y0590000D02*
X0631500Y0598500D01*
X0598000Y0590000D02*
X0610500D01*
X0619000Y0598500D01*
X0598000Y0590000D02*
X0606500Y0598500D01*
X0569000D02*
X0577500Y0590000D01*
X0556500Y0598500D02*
X0565000Y0590000D01*
X0563063Y0548500D02*
X0565000D01*
X0570937Y0546563D02*
Y0548500D01*
X0620047Y0555451D02*
Y0566953D01*
X0618380Y0568620D02*
X0620047Y0566953D01*
X0684593Y0595299D02*
X0689201D01*
X0684888Y0593331D02*
X0689201D01*
X0685050Y0602376D02*
X0686221Y0601205D01*
X0693705D02*
Y0601295D01*
X0720894Y0583488D02*
X0723736D01*
X0719886Y0580512D02*
X0720894Y0581520D01*
X0719886Y0577000D02*
Y0580512D01*
X0715874Y0576500D02*
X0718874Y0573500D01*
X0719886D01*
X0717463Y0585457D02*
X0720894D01*
X0711900Y0591020D02*
Y0595776D01*
X0718052Y0589394D02*
X0720894D01*
X0716100Y0591345D02*
X0718052Y0589394D01*
X0716100Y0591345D02*
Y0595900D01*
X0714000Y0591183D02*
Y0593500D01*
Y0591183D02*
X0717757Y0587425D01*
X0720894D01*
X0711900Y0591020D02*
X0717463Y0585457D01*
X0689000Y0603374D02*
X0689201Y0603173D01*
X0768400Y0588600D02*
X0771661Y0585339D01*
X0725500Y0609272D02*
X0729000D01*
X0715874Y0608193D02*
X0717681Y0610000D01*
X0718886D01*
X0716743Y0603833D02*
X0718638Y0605728D01*
X0716743Y0602514D02*
X0718052Y0601205D01*
X0716743Y0602514D02*
Y0603833D01*
X0718638Y0605728D02*
X0725500D01*
X0729000Y0605704D02*
Y0605728D01*
X0726559Y0603264D02*
X0729000Y0605704D01*
X0726559Y0603173D02*
Y0603264D01*
X0716000Y0596000D02*
X0716100Y0595900D01*
X0716000Y0596000D02*
Y0596543D01*
X0735772Y0629500D02*
X0741118D01*
X0735772Y0623500D02*
X0741118D01*
X0761736Y0620193D02*
Y0623646D01*
X0760043Y0618500D02*
X0761736Y0620193D01*
X0725264Y0599236D02*
X0725500Y0599000D01*
X0720894Y0599236D02*
X0725264D01*
X0724232Y0597268D02*
X0724601Y0596899D01*
X0720894Y0597268D02*
X0724232D01*
X0720894Y0603173D02*
X0726559D01*
X0720894Y0593331D02*
X0720924Y0593300D01*
X0612728Y0567823D02*
X0612847Y0567941D01*
X0612728Y0562500D02*
Y0567823D01*
X0609772Y0560323D02*
Y0562500D01*
Y0560323D02*
X0611941Y0558153D01*
X0609772Y0562500D02*
X0612728D01*
X0626000Y0549847D02*
X0637500D01*
X0614500D02*
X0626000D01*
X0702095Y0571520D02*
X0702614Y0571000D01*
X0702095Y0571520D02*
Y0576500D01*
X0704236Y0599236D02*
X0707000Y0602000D01*
X0705268Y0597268D02*
X0709600Y0601600D01*
Y0602000D01*
X0700000Y0579788D02*
X0700126Y0579662D01*
X0702095Y0580875D02*
X0702100Y0580870D01*
X0702095Y0580875D02*
Y0581031D01*
X0700000Y0579788D02*
X0700088Y0579875D01*
X0699995Y0579968D02*
X0700088Y0579875D01*
X0699995Y0579968D02*
Y0580181D01*
X0702095Y0576500D02*
X0702100Y0576505D01*
Y0580870D01*
X0586728Y0553500D02*
Y0554000D01*
X0590772Y0553500D02*
X0591500D01*
X0591256Y0562000D02*
X0591500Y0561756D01*
Y0561500D02*
Y0561756D01*
X0543126Y0571000D02*
X0548228D01*
X0543000Y0570874D02*
X0543126Y0571000D01*
X0543000Y0563000D02*
X0548228D01*
X0711900Y0595776D02*
X0712000Y0595876D01*
X0714114Y0598500D02*
X0714600Y0598986D01*
X0701000Y0602000D02*
X0704063Y0605063D01*
Y0608193D01*
X0706032Y0604001D02*
Y0608193D01*
X0704030Y0602000D02*
X0706032Y0604001D01*
X0704000Y0602000D02*
X0704030D01*
X0704063Y0593493D02*
X0712500Y0601930D01*
Y0602000D01*
X0689231Y0597268D02*
X0705268D01*
X0689201Y0599236D02*
X0704236D01*
X0693500Y0601500D02*
X0693705Y0601295D01*
X0724500Y0613500D02*
X0729500Y0618500D01*
X0756500D01*
X0722114Y0610000D02*
X0723514Y0611400D01*
X0725000D01*
X0694500Y0613862D02*
X0694638D01*
X0694500D02*
Y0614000D01*
X0722000Y0616000D02*
X0724728D01*
X0732228Y0623500D01*
X0714272Y0614000D02*
X0714886D01*
X0714272Y0614500D02*
X0714386D01*
X0714886Y0614000D01*
X0718886Y0610000D01*
X0713906Y0608193D02*
Y0611742D01*
X0713905Y0611742D02*
X0713906Y0611742D01*
X0713905Y0611732D02*
Y0611742D01*
X0694221Y0613721D02*
X0694500Y0614000D01*
X0696189Y0608193D02*
Y0612719D01*
X0698158Y0608193D02*
Y0612425D01*
X0708000Y0608193D02*
Y0616539D01*
X0719635Y0616635D02*
X0721100Y0618100D01*
X0723070D02*
X0732228Y0627258D01*
X0721100Y0618100D02*
X0723070D01*
X0732228Y0627258D02*
Y0629500D01*
X0629728Y0562500D02*
Y0565500D01*
X0623441Y0564941D02*
X0626817Y0568317D01*
X0636228Y0559441D02*
Y0562500D01*
X0634941Y0558153D02*
X0636228Y0559441D01*
X0633272Y0562500D02*
X0636228D01*
X0762000Y0564300D02*
Y0564500D01*
X0756136Y0570364D02*
X0762000Y0564500D01*
X0720894Y0595299D02*
X0728176D01*
X0724601Y0596899D02*
X0728839D01*
X0726559Y0603173D02*
X0727090D01*
X0735382Y0594882D01*
X0726796Y0601205D02*
X0735000Y0593000D01*
X0756022Y0566750D02*
X0762000Y0560772D01*
X0701136Y0565250D02*
Y0565636D01*
X0706032Y0570532D01*
Y0576500D01*
X0694000Y0562114D02*
X0697136Y0565250D01*
X0699850D01*
X0716150Y0555750D02*
X0718864D01*
X0722000Y0558886D01*
X0708000Y0563900D02*
Y0576500D01*
Y0563900D02*
X0716150Y0555750D01*
X0576500Y0556500D02*
Y0557000D01*
X0651213Y0558500D02*
X0651559Y0558153D01*
X0655287Y0553000D02*
X0657941Y0550347D01*
X0663059D02*
X0663105Y0550300D01*
X0757260Y0547146D02*
Y0550661D01*
X0756114Y0546000D02*
X0757260Y0547146D01*
X0726800Y0579600D02*
X0729400Y0577000D01*
X0720400Y0551900D02*
X0723886Y0555386D01*
X0735000D01*
X0720894Y0583488D02*
X0723736D01*
X0723114Y0577000D02*
X0725045Y0578931D01*
X0720894Y0591362D02*
X0724138D01*
X0646441Y0558153D02*
X0649875Y0554720D01*
X0667500Y0553772D02*
X0669372Y0551900D01*
X0655287Y0553000D02*
X0656059Y0553772D01*
X0667500D01*
X0649875Y0554720D02*
X0654744D01*
X0658678Y0558653D01*
X0660500D01*
X0663882D01*
X0664228Y0559000D01*
X0667772D02*
X0670000D01*
X0596237Y0582500D02*
X0596937Y0583200D01*
X0595575Y0584100D02*
X0596275Y0584800D01*
X0548228Y0563000D02*
X0567728Y0582500D01*
X0596237D01*
X0548228Y0571000D02*
X0561328Y0584100D01*
X0595575D01*
X0555100Y0587400D02*
X0562400D01*
X0565000Y0590000D01*
X0585300Y0585800D02*
X0586000Y0586500D01*
X0545886Y0592665D02*
X0552751Y0585800D01*
X0585300D01*
X0598821Y0572565D02*
X0605283D01*
X0605435D01*
X0594315Y0570465D02*
X0606153D01*
X0607383Y0571695D01*
Y0571711D01*
X0614873Y0579200D01*
X0660200D01*
X0735394Y0555780D02*
X0739740D01*
X0735000Y0555386D02*
X0735394Y0555780D01*
X0735276Y0558339D02*
X0739740D01*
X0735000Y0558614D02*
X0735276Y0558339D01*
X0670500Y0559000D02*
X0671000Y0558500D01*
X0683000D02*
X0683218Y0558282D01*
X0680000Y0561500D02*
X0683000Y0558500D01*
X0583000Y0549700D02*
Y0550000D01*
X0583970Y0547500D02*
X0586728Y0550258D01*
X0579000Y0550530D02*
X0582030Y0547500D01*
X0583970D01*
X0700126Y0608193D02*
Y0612131D01*
X0689114Y0607000D02*
X0689201Y0606913D01*
Y0603173D02*
Y0606913D01*
X0685050Y0602376D02*
Y0606164D01*
X0685886Y0607000D01*
X0686359Y0583488D02*
X0689201D01*
X0686064Y0585457D02*
X0689201D01*
X0685770Y0587425D02*
X0689201D01*
X0685476Y0589394D02*
X0689201D01*
X0685182Y0591362D02*
X0689201D01*
X0712700Y0550300D02*
X0720400Y0542600D01*
X0593118Y0573220D02*
X0594118D01*
X0598165D01*
X0593118Y0578339D02*
X0594118D01*
X0594339D01*
X0798100Y0587898D02*
Y0587900D01*
X0787900Y0589130D02*
X0789130Y0587900D01*
X0787900Y0589130D02*
Y0604400D01*
X0696189Y0612719D02*
X0697614Y0614144D01*
X0695728Y0629500D02*
Y0633000D01*
X0787900Y0604400D02*
X0795500Y0612000D01*
Y0622000D01*
X0801000Y0617000D02*
Y0619000D01*
X0697614Y0617000D02*
Y0617835D01*
X0695728Y0619721D02*
X0697614Y0617835D01*
X0695728Y0619721D02*
Y0629500D01*
X0698869Y0629097D02*
X0699272Y0629500D01*
X0698869Y0629097D02*
X0699000Y0628965D01*
X0698158Y0612425D02*
X0701100Y0615367D01*
X0698900Y0622100D02*
X0699000Y0622000D01*
X0698900Y0622100D02*
Y0628865D01*
X0699000Y0628965D01*
X0694221Y0608193D02*
Y0609508D01*
X0691000Y0612728D02*
X0694221Y0609508D01*
X0694221Y0609508D01*
X0694221Y0608193D02*
Y0609508D01*
Y0613721D01*
X0771661Y0585339D02*
X0774400D01*
X0774900D01*
X0774400Y0580221D02*
X0774900D01*
X0767737Y0587000D02*
X0770000Y0584737D01*
Y0582000D02*
Y0584737D01*
Y0582000D02*
X0771779Y0580221D01*
X0774400D01*
X0779000Y0581276D02*
Y0586394D01*
X0774900Y0582780D02*
X0777497D01*
X0779000Y0581276D01*
X0761500Y0588600D02*
X0768400D01*
X0762163Y0587000D02*
X0767737D01*
X0783800Y0581800D02*
X0786500Y0584500D01*
X0761094Y0590457D02*
X0774400D01*
X0796600Y0582780D02*
X0799279D01*
X0799500Y0583000D01*
X0798100Y0577661D02*
X0799339D01*
X0801000Y0576000D01*
X0802500Y0578728D02*
X0802600Y0578628D01*
Y0562663D02*
Y0578628D01*
X0798100Y0560900D02*
Y0572543D01*
Y0560900D02*
X0806000Y0553000D01*
X0801000Y0561000D02*
Y0576000D01*
Y0561000D02*
X0809000Y0553000D01*
X0802600Y0562663D02*
X0811100Y0554163D01*
X0809000Y0550000D02*
X0811100Y0552100D01*
Y0554163D01*
X0797600Y0585339D02*
X0802500D01*
Y0582272D02*
Y0585339D01*
X0739500Y0586500D02*
X0739563Y0586563D01*
X0735500Y0586886D02*
X0739114D01*
X0739500Y0586500D01*
X0735000Y0593000D02*
X0743425D01*
X0744779Y0591646D01*
Y0588465D02*
Y0591646D01*
X0735382Y0594882D02*
X0744618D01*
X0747339Y0592161D01*
Y0588465D02*
Y0592161D01*
X0744618Y0594882D02*
X0749237D01*
X0744779Y0585476D02*
Y0588465D01*
Y0585476D02*
X0746380Y0583876D01*
X0748633D01*
X0751600Y0584900D02*
X0752000Y0584500D01*
X0742621Y0578600D02*
X0753763D01*
X0762163Y0587000D01*
X0741958Y0580200D02*
X0753100D01*
X0761500Y0588600D01*
X0741295Y0581800D02*
X0752437D01*
X0761094Y0590457D01*
X0748633Y0583876D02*
X0749900Y0585143D01*
Y0592943D01*
X0756657Y0599700D01*
X0752000Y0584500D02*
Y0592781D01*
X0757319Y0598100D01*
X0738431Y0581800D02*
X0738433Y0581798D01*
X0737768Y0580200D02*
X0737770Y0580198D01*
X0737105Y0578600D02*
X0737108Y0578598D01*
X0736705Y0581800D02*
X0738431D01*
X0731600Y0584642D02*
X0736042Y0580200D01*
X0737768D01*
X0730000Y0583979D02*
X0735379Y0578600D01*
X0737105D01*
X0745500Y0576061D02*
X0747339Y0574222D01*
Y0571535D02*
Y0574222D01*
X0740439Y0576061D02*
X0742220Y0574279D01*
Y0571535D02*
Y0574279D01*
X0734500Y0576061D02*
X0740439D01*
X0745500D01*
X0739661Y0588465D02*
X0742220D01*
X0735000Y0564000D02*
X0746772D01*
X0745500Y0576061D02*
X0754939D01*
X0766000Y0565000D01*
X0752228Y0566500D02*
Y0570000D01*
X0749272Y0566500D02*
X0752228D01*
X0744779Y0566949D02*
Y0571535D01*
Y0566949D02*
X0745228Y0566500D01*
X0774400Y0590457D02*
X0775400D01*
X0725045Y0578931D02*
Y0582179D01*
X0723736Y0583488D02*
X0725045Y0582179D01*
X0726800Y0579600D02*
Y0582700D01*
X0725706Y0583794D02*
X0726800Y0582700D01*
X0727806Y0589691D02*
X0728400Y0589097D01*
Y0580399D02*
X0731000Y0577799D01*
X0728400Y0580399D02*
Y0589097D01*
X0725706Y0583794D02*
Y0589794D01*
X0724138Y0591362D02*
X0725706Y0589794D01*
X0720924Y0593300D02*
X0727913D01*
X0730000Y0583979D02*
Y0591213D01*
X0727913Y0593300D02*
X0730000Y0591213D01*
X0731600Y0584642D02*
Y0591875D01*
X0728176Y0595299D02*
X0731600Y0591875D01*
X0728839Y0596899D02*
X0733200Y0592538D01*
Y0585305D02*
X0736705Y0581800D01*
X0733200Y0585305D02*
Y0592538D01*
X0749237Y0594882D02*
X0755655Y0601300D01*
X0734500Y0573500D02*
X0736774D01*
X0738739Y0571535D01*
X0739661D01*
X0669372Y0551900D02*
X0720400D01*
X0837600Y0586833D02*
X0841575Y0582858D01*
X0849500D01*
X0650000Y0558500D02*
X0651213D01*
X0649000Y0548500D02*
Y0549847D01*
Y0548500D02*
X0656500Y0541000D01*
X0737500Y0604000D02*
Y0607839D01*
D48*
X0662260Y0603000D02*
Y0612953D01*
X0650943Y0619427D02*
X0655786D01*
X0645870Y0624500D02*
X0650943Y0619427D01*
X0655786D02*
X0659059Y0616153D01*
X0674760Y0603000D02*
Y0612953D01*
X0668258Y0619455D02*
X0671559Y0616153D01*
X0655713Y0624500D02*
X0660757Y0619455D01*
X0668258D01*
X0599760Y0603740D02*
X0600500Y0603000D01*
X0587260Y0603000D02*
Y0624055D01*
X0649760Y0603000D02*
Y0612953D01*
X0574760Y0603740D02*
X0575500Y0603000D01*
X0637260Y0603740D02*
X0638000Y0603000D01*
X0634059Y0616626D02*
X0637260Y0613425D01*
X0562260Y0603740D02*
X0563000Y0603000D01*
X0624760Y0603000D02*
Y0604454D01*
X0621559Y0619283D02*
X0624760Y0616083D01*
X0537260Y0603000D02*
Y0616794D01*
X0549760Y0603000D02*
Y0619354D01*
X0612260Y0603740D02*
X0613000Y0603000D01*
X0767000Y0569350D02*
Y0578728D01*
X0544000Y0607846D02*
Y0609772D01*
X0544966Y0624500D02*
X0547445D01*
X0537260Y0616794D02*
X0544966Y0624500D01*
X0675713D02*
X0684059Y0616153D01*
X0665555Y0624500D02*
X0675713D01*
X0671559Y0616153D02*
X0674760Y0612953D01*
X0659059Y0616153D02*
X0662260Y0612953D01*
X0646559Y0616153D02*
X0649760Y0612953D01*
X0644000Y0607846D02*
Y0609772D01*
X0643500Y0610272D02*
X0644000Y0609772D01*
X0631500Y0607846D02*
Y0609772D01*
X0631000Y0610272D02*
X0631500Y0609772D01*
X0619000Y0607846D02*
Y0609772D01*
X0618500Y0610272D02*
X0619000Y0609772D01*
X0606500Y0607846D02*
Y0609772D01*
X0606000Y0610272D02*
X0606500Y0609772D01*
X0594000Y0607846D02*
Y0609772D01*
X0593500Y0610272D02*
X0594000Y0609772D01*
X0581500Y0607846D02*
Y0609772D01*
X0581000Y0610272D02*
X0581500Y0609772D01*
X0569000Y0607846D02*
Y0609772D01*
X0568500Y0610272D02*
X0569000Y0609772D01*
X0556500Y0607846D02*
Y0609772D01*
X0556000Y0610272D02*
X0556500Y0609772D01*
X0681500Y0603740D02*
Y0607846D01*
Y0603740D02*
X0682240Y0603000D01*
X0681000Y0610272D02*
X0681500Y0609772D01*
Y0607846D02*
Y0609772D01*
X0669000Y0603740D02*
X0669740Y0603000D01*
X0668500Y0610272D02*
X0669000Y0609772D01*
Y0607846D02*
Y0609772D01*
X0656500Y0603740D02*
X0657240Y0603000D01*
X0656000Y0610272D02*
X0656500Y0609772D01*
Y0607846D02*
Y0609772D01*
X0543500Y0610272D02*
X0544000Y0609772D01*
X0638213Y0624500D02*
X0646559Y0616153D01*
X0636028Y0624500D02*
X0638213D01*
X0637260Y0603740D02*
Y0613425D01*
X0626185Y0624500D02*
X0634059Y0616626D01*
X0624760Y0605934D02*
Y0616083D01*
Y0605934D02*
X0625500Y0605194D01*
Y0603000D02*
Y0605194D01*
X0624760Y0604454D02*
X0625500Y0605194D01*
X0616342Y0624500D02*
X0621559Y0619283D01*
X0609059Y0621941D02*
X0612260Y0618740D01*
Y0603740D02*
Y0618740D01*
X0606500Y0624500D02*
X0609059Y0621941D01*
X0596658Y0624500D02*
X0599760Y0621398D01*
Y0603740D02*
Y0621398D01*
X0586815Y0624500D02*
X0587260Y0624055D01*
X0571559Y0619087D02*
X0574760Y0622287D01*
Y0603740D02*
Y0622287D01*
X0562260Y0619630D02*
X0567130Y0624500D01*
X0559059Y0616429D02*
X0562260Y0619630D01*
Y0603740D02*
Y0619630D01*
X0669000Y0603740D02*
Y0607846D01*
X0656500Y0603740D02*
Y0607846D01*
X0644000Y0603740D02*
X0644740Y0603000D01*
X0644000Y0603740D02*
Y0607846D01*
X0631500Y0603740D02*
X0632240Y0603000D01*
X0631500Y0603740D02*
Y0607846D01*
X0619000Y0603740D02*
X0619740Y0603000D01*
X0619000Y0603740D02*
Y0607846D01*
X0606500Y0603740D02*
X0607240Y0603000D01*
X0606500Y0603740D02*
Y0607846D01*
X0594000Y0603740D02*
X0594740Y0603000D01*
X0594000Y0603740D02*
Y0607846D01*
X0569000Y0603740D02*
X0569740Y0603000D01*
X0569000Y0603740D02*
Y0607846D01*
X0581500Y0603740D02*
X0582240Y0603000D01*
X0581500Y0603740D02*
Y0607846D01*
X0575500Y0623028D02*
X0576972Y0624500D01*
X0634059Y0616153D02*
Y0616626D01*
X0621559Y0616153D02*
Y0619283D01*
X0609059Y0616153D02*
Y0621941D01*
X0596559Y0624402D02*
X0596658Y0624500D01*
X0596559Y0616153D02*
Y0624402D01*
X0584059Y0616153D02*
Y0621744D01*
X0571559Y0616153D02*
Y0619087D01*
X0556500Y0603740D02*
X0557240Y0603000D01*
X0556500Y0603740D02*
Y0607846D01*
X0559059Y0616153D02*
Y0616429D01*
X0549760Y0619354D02*
X0554906Y0624500D01*
X0546559Y0616153D02*
X0549760Y0619354D01*
X0544000Y0603740D02*
X0544740Y0603000D01*
X0544000Y0603740D02*
Y0607846D01*
X0554906Y0624500D02*
X0557287D01*
X0767000Y0578728D02*
X0770626Y0575102D01*
X0767000Y0569350D02*
X0767850Y0568500D01*
X0774150D02*
Y0572000D01*
X0723114Y0573500D02*
Y0577000D01*
X0770626Y0575102D02*
X0774400D01*
D49*
X0547445Y0624500D02*
D03*
X0557287D02*
D03*
X0567130D02*
D03*
X0576972D02*
D03*
X0586815D02*
D03*
X0596658D02*
D03*
X0606500D02*
D03*
X0616342D02*
D03*
X0626185D02*
D03*
X0636028D02*
D03*
X0645870D02*
D03*
X0655713D02*
D03*
X0665555D02*
D03*
D50*
X0751450Y0626500D02*
D03*
D51*
X0543000Y0578748D02*
D03*
Y0570874D02*
D03*
Y0563000D02*
D03*
Y0555100D02*
D03*
Y0547200D02*
D03*
X0563126Y0566500D02*
D03*
X0571000D02*
D03*
X0563063Y0546500D02*
D03*
X0570937D02*
D03*
X0688000Y0629937D02*
D03*
Y0622063D02*
D03*
D52*
X0876500Y0547500D02*
D03*
Y0629500D02*
D03*
X0524000D02*
D03*
Y0547500D02*
D03*
D53*
X0712000Y0624500D02*
D03*
X0777000Y0615000D02*
D03*
X0750000Y0614500D02*
D03*
X0770500Y0550228D02*
D03*
X0771000Y0596000D02*
D03*
X0768000D02*
D03*
X0832000Y0609000D02*
D03*
X0829500Y0606500D02*
D03*
X0832000D02*
D03*
Y0604000D02*
D03*
X0829500D02*
D03*
X0827000D02*
D03*
X0837600Y0586833D02*
D03*
X0832000Y0589500D02*
D03*
Y0587000D02*
D03*
X0829500Y0589500D02*
D03*
Y0587000D02*
D03*
X0827000D02*
D03*
Y0592000D02*
D03*
Y0589500D02*
D03*
X0824500Y0592000D02*
D03*
Y0589500D02*
D03*
Y0587000D02*
D03*
Y0582000D02*
D03*
X0829500Y0584500D02*
D03*
X0824500D02*
D03*
X0827000D02*
D03*
Y0582000D02*
D03*
X0853500Y0581772D02*
D03*
X0777000Y0612000D02*
D03*
X0727806Y0589691D02*
D03*
X0704000Y0617000D02*
D03*
X0694500D02*
D03*
X0656500Y0547000D02*
D03*
X0653500D02*
D03*
X0636228Y0568500D02*
D03*
X0646500Y0564000D02*
D03*
X0628272Y0570500D02*
D03*
X0642500Y0568500D02*
D03*
X0645500D02*
D03*
X0660500Y0579500D02*
D03*
X0663500D02*
D03*
X0666000Y0582000D02*
D03*
X0668500Y0584500D02*
D03*
X0671000Y0586900D02*
D03*
X0614500Y0541500D02*
D03*
X0621772Y0545000D02*
D03*
X0836000Y0542000D02*
D03*
Y0544500D02*
D03*
Y0547000D02*
D03*
Y0549500D02*
D03*
Y0552000D02*
D03*
X0821000D02*
D03*
Y0549500D02*
D03*
Y0547000D02*
D03*
Y0544500D02*
D03*
X0818500D02*
D03*
Y0547000D02*
D03*
Y0549500D02*
D03*
Y0552000D02*
D03*
X0816000D02*
D03*
Y0549500D02*
D03*
Y0547000D02*
D03*
Y0544500D02*
D03*
X0813500D02*
D03*
Y0547000D02*
D03*
Y0552000D02*
D03*
Y0549500D02*
D03*
Y0542000D02*
D03*
X0816000D02*
D03*
X0818500D02*
D03*
X0821000D02*
D03*
X0833500Y0552000D02*
D03*
Y0549500D02*
D03*
Y0547000D02*
D03*
Y0544500D02*
D03*
X0831000D02*
D03*
Y0547000D02*
D03*
Y0549500D02*
D03*
Y0552000D02*
D03*
X0828500D02*
D03*
Y0549500D02*
D03*
Y0547000D02*
D03*
Y0544500D02*
D03*
X0826000D02*
D03*
Y0547000D02*
D03*
Y0552000D02*
D03*
X0823500D02*
D03*
Y0549500D02*
D03*
Y0547000D02*
D03*
Y0544500D02*
D03*
X0826000Y0549500D02*
D03*
X0823500Y0542000D02*
D03*
X0826000D02*
D03*
X0828500D02*
D03*
X0831000D02*
D03*
X0833500D02*
D03*
X0836000Y0637000D02*
D03*
X0833500D02*
D03*
X0831000D02*
D03*
X0828500D02*
D03*
X0826000D02*
D03*
X0823500D02*
D03*
X0821000D02*
D03*
X0818500D02*
D03*
X0816000D02*
D03*
X0813500D02*
D03*
X0786500Y0584500D02*
D03*
X0591500Y0545000D02*
D03*
X0767000Y0584500D02*
D03*
Y0582272D02*
D03*
X0583000Y0541500D02*
D03*
X0598500Y0579000D02*
D03*
X0586000Y0590000D02*
D03*
X0576500Y0556500D02*
D03*
X0579000Y0551000D02*
D03*
X0557000Y0589500D02*
D03*
X0538728Y0593500D02*
D03*
X0681500Y0598500D02*
D03*
X0538110Y0597000D02*
D03*
X0643500Y0610272D02*
D03*
X0631000D02*
D03*
X0678500Y0598500D02*
D03*
X0666000D02*
D03*
X0653500D02*
D03*
X0641000D02*
D03*
X0669000D02*
D03*
X0656500D02*
D03*
X0644000D02*
D03*
X0681000Y0610272D02*
D03*
X0668500D02*
D03*
X0656000D02*
D03*
X0588000Y0603000D02*
D03*
X0675500D02*
D03*
X0663000D02*
D03*
X0650500D02*
D03*
X0638000D02*
D03*
X0625500D02*
D03*
X0613000D02*
D03*
X0600500D02*
D03*
X0575500D02*
D03*
X0563000D02*
D03*
X0550500D02*
D03*
X0538000D02*
D03*
X0618500Y0610272D02*
D03*
X0606000D02*
D03*
X0593500D02*
D03*
X0581000D02*
D03*
X0568500D02*
D03*
X0556000D02*
D03*
X0543500D02*
D03*
X0628500Y0598500D02*
D03*
X0616000D02*
D03*
X0603500D02*
D03*
X0591000D02*
D03*
X0578500D02*
D03*
X0566000D02*
D03*
X0553500D02*
D03*
X0541000D02*
D03*
X0631500D02*
D03*
X0619000D02*
D03*
X0606500D02*
D03*
X0594000D02*
D03*
X0581500D02*
D03*
X0569000D02*
D03*
X0556500D02*
D03*
X0544000D02*
D03*
X0723000Y0623500D02*
D03*
X0555000Y0555500D02*
D03*
X0745000Y0601500D02*
D03*
X0738000Y0600000D02*
D03*
X0747000Y0597000D02*
D03*
X0747500Y0601500D02*
D03*
X0846000Y0579000D02*
D03*
X0843500Y0576500D02*
D03*
X0841000Y0574000D02*
D03*
X0858500Y0564000D02*
D03*
X0856000D02*
D03*
X0853500D02*
D03*
X0851000D02*
D03*
X0848500D02*
D03*
X0846000D02*
D03*
X0843500D02*
D03*
X0851000Y0576500D02*
D03*
X0846000Y0574000D02*
D03*
X0851000Y0571500D02*
D03*
X0843500Y0566500D02*
D03*
Y0569000D02*
D03*
Y0571500D02*
D03*
Y0574000D02*
D03*
X0846000Y0576500D02*
D03*
Y0571500D02*
D03*
Y0569000D02*
D03*
Y0566500D02*
D03*
X0848500D02*
D03*
Y0569000D02*
D03*
Y0571500D02*
D03*
Y0574000D02*
D03*
Y0576500D02*
D03*
Y0579000D02*
D03*
X0851000D02*
D03*
Y0574000D02*
D03*
Y0569000D02*
D03*
Y0566500D02*
D03*
X0853500D02*
D03*
Y0569000D02*
D03*
Y0571500D02*
D03*
Y0574000D02*
D03*
Y0576500D02*
D03*
Y0579000D02*
D03*
X0856000D02*
D03*
Y0576500D02*
D03*
Y0574000D02*
D03*
Y0571500D02*
D03*
Y0569000D02*
D03*
Y0566500D02*
D03*
X0858500D02*
D03*
Y0569000D02*
D03*
Y0571500D02*
D03*
Y0574000D02*
D03*
Y0576500D02*
D03*
Y0579000D02*
D03*
X0841000Y0571500D02*
D03*
Y0569000D02*
D03*
Y0566500D02*
D03*
Y0564000D02*
D03*
X0771000Y0612500D02*
D03*
X0767500D02*
D03*
X0764000D02*
D03*
X0760500D02*
D03*
X0753000Y0605500D02*
D03*
Y0608500D02*
D03*
Y0611500D02*
D03*
X0719886Y0573500D02*
D03*
Y0577000D02*
D03*
X0723114Y0573500D02*
D03*
Y0577000D02*
D03*
X0628500Y0559000D02*
D03*
X0616272Y0562500D02*
D03*
X0617000Y0559000D02*
D03*
X0802000Y0593000D02*
D03*
X0799000D02*
D03*
X0796000D02*
D03*
Y0596000D02*
D03*
X0793000Y0599000D02*
D03*
X0790000D02*
D03*
X0793000Y0590000D02*
D03*
X0790000D02*
D03*
X0793000Y0593000D02*
D03*
X0790000D02*
D03*
X0863500Y0586000D02*
D03*
X0861000D02*
D03*
X0858500D02*
D03*
X0856000D02*
D03*
X0853500D02*
D03*
X0856000Y0598500D02*
D03*
Y0593500D02*
D03*
X0853500Y0588500D02*
D03*
Y0591000D02*
D03*
Y0593500D02*
D03*
Y0596000D02*
D03*
Y0598500D02*
D03*
Y0601000D02*
D03*
X0856000D02*
D03*
Y0596000D02*
D03*
Y0591000D02*
D03*
Y0588500D02*
D03*
X0858500D02*
D03*
Y0591000D02*
D03*
Y0593500D02*
D03*
Y0596000D02*
D03*
Y0598500D02*
D03*
Y0601000D02*
D03*
X0861000D02*
D03*
Y0598500D02*
D03*
Y0596000D02*
D03*
Y0593500D02*
D03*
Y0591000D02*
D03*
Y0588500D02*
D03*
X0863500D02*
D03*
Y0591000D02*
D03*
Y0593500D02*
D03*
Y0596000D02*
D03*
Y0598500D02*
D03*
Y0601000D02*
D03*
X0851000Y0586000D02*
D03*
X0848500D02*
D03*
X0846000D02*
D03*
X0843500D02*
D03*
Y0598500D02*
D03*
Y0593500D02*
D03*
X0841000Y0588500D02*
D03*
Y0591000D02*
D03*
Y0593500D02*
D03*
Y0596000D02*
D03*
Y0598500D02*
D03*
Y0601000D02*
D03*
X0843500D02*
D03*
Y0596000D02*
D03*
Y0591000D02*
D03*
Y0588500D02*
D03*
X0846000D02*
D03*
Y0591000D02*
D03*
Y0593500D02*
D03*
Y0596000D02*
D03*
Y0598500D02*
D03*
Y0601000D02*
D03*
X0848500D02*
D03*
Y0598500D02*
D03*
Y0596000D02*
D03*
Y0593500D02*
D03*
Y0591000D02*
D03*
Y0588500D02*
D03*
X0851000D02*
D03*
Y0591000D02*
D03*
Y0593500D02*
D03*
Y0596000D02*
D03*
Y0598500D02*
D03*
Y0601000D02*
D03*
Y0603500D02*
D03*
X0848500D02*
D03*
X0846000D02*
D03*
X0843500D02*
D03*
X0841000D02*
D03*
X0863500D02*
D03*
X0861000D02*
D03*
X0858500D02*
D03*
X0856000D02*
D03*
X0853500D02*
D03*
X0863500Y0583500D02*
D03*
X0861000D02*
D03*
X0813500Y0619500D02*
D03*
X0816000D02*
D03*
X0818500D02*
D03*
X0821000D02*
D03*
X0823500D02*
D03*
X0826000D02*
D03*
X0828500D02*
D03*
X0831000D02*
D03*
X0833500D02*
D03*
X0836000D02*
D03*
X0813500Y0622000D02*
D03*
X0816000D02*
D03*
X0818500D02*
D03*
X0821000D02*
D03*
X0823500D02*
D03*
X0826000D02*
D03*
X0828500D02*
D03*
X0831000D02*
D03*
X0833500D02*
D03*
X0836000D02*
D03*
X0813500Y0624500D02*
D03*
X0816000D02*
D03*
X0818500D02*
D03*
X0821000D02*
D03*
X0823500D02*
D03*
X0826000D02*
D03*
X0828500D02*
D03*
X0831000D02*
D03*
X0833500D02*
D03*
X0836000D02*
D03*
X0813500Y0627000D02*
D03*
X0816000D02*
D03*
X0818500D02*
D03*
X0821000D02*
D03*
X0823500D02*
D03*
X0826000D02*
D03*
X0828500D02*
D03*
X0831000D02*
D03*
X0833500D02*
D03*
X0836000D02*
D03*
X0813500Y0629500D02*
D03*
X0816000D02*
D03*
X0818500D02*
D03*
X0821000D02*
D03*
X0823500D02*
D03*
X0826000D02*
D03*
X0828500D02*
D03*
X0831000D02*
D03*
X0833500D02*
D03*
X0836000D02*
D03*
X0813500Y0632000D02*
D03*
X0816000D02*
D03*
X0818500D02*
D03*
X0821000D02*
D03*
X0823500D02*
D03*
X0826000D02*
D03*
X0828500D02*
D03*
X0831000D02*
D03*
X0833500D02*
D03*
X0836000D02*
D03*
Y0634500D02*
D03*
X0833500D02*
D03*
X0831000D02*
D03*
X0828500D02*
D03*
X0826000D02*
D03*
X0823500D02*
D03*
X0821000D02*
D03*
X0818500D02*
D03*
X0816000D02*
D03*
X0813500D02*
D03*
X0802000Y0597500D02*
D03*
X0799000D02*
D03*
X0796000Y0603500D02*
D03*
X0793000D02*
D03*
Y0606500D02*
D03*
X0796000Y0600500D02*
D03*
Y0606500D02*
D03*
X0799000Y0600500D02*
D03*
X0802000D02*
D03*
Y0603500D02*
D03*
X0799000D02*
D03*
Y0606500D02*
D03*
X0802000D02*
D03*
X0620047Y0555451D02*
D03*
X0637387Y0565613D02*
D03*
X0729000Y0609272D02*
D03*
X0718886Y0610000D02*
D03*
X0722114D02*
D03*
X0716000Y0596000D02*
D03*
X0714000Y0593500D02*
D03*
X0704000Y0602000D02*
D03*
X0701000D02*
D03*
X0709600D02*
D03*
X0712500D02*
D03*
X0793000Y0613000D02*
D03*
X0788500Y0611500D02*
D03*
X0725500Y0599000D02*
D03*
X0720000Y0621500D02*
D03*
X0793000Y0596000D02*
D03*
X0790000D02*
D03*
X0781000D02*
D03*
X0784000D02*
D03*
X0744000Y0597000D02*
D03*
X0741000D02*
D03*
X0738000D02*
D03*
X0762000Y0564300D02*
D03*
X0756000Y0593000D02*
D03*
X0759000Y0596000D02*
D03*
Y0593000D02*
D03*
X0763000Y0582500D02*
D03*
X0762000Y0596000D02*
D03*
Y0593000D02*
D03*
X0765000Y0596000D02*
D03*
X0747000Y0614500D02*
D03*
X0744000D02*
D03*
X0741000D02*
D03*
X0744000Y0611500D02*
D03*
X0747000D02*
D03*
X0750000D02*
D03*
Y0608500D02*
D03*
X0747000D02*
D03*
X0744000D02*
D03*
X0765000Y0593000D02*
D03*
X0768000D02*
D03*
X0741000Y0600000D02*
D03*
X0730500Y0603000D02*
D03*
X0707000Y0602000D02*
D03*
X0699995Y0580181D02*
D03*
X0581000Y0557500D02*
D03*
X0591500Y0553500D02*
D03*
Y0561500D02*
D03*
X0551772Y0571000D02*
D03*
Y0563000D02*
D03*
X0731000Y0613500D02*
D03*
X0712000Y0595876D02*
D03*
X0714114Y0598500D02*
D03*
X0717500Y0619000D02*
D03*
X0722000Y0616000D02*
D03*
X0719000D02*
D03*
X0693500Y0601500D02*
D03*
X0724500Y0613500D02*
D03*
X0694500Y0614000D02*
D03*
X0713905Y0611742D02*
D03*
X0613000Y0570500D02*
D03*
X0611000Y0541500D02*
D03*
X0626968Y0562500D02*
D03*
X0633272Y0565500D02*
D03*
X0735000Y0599500D02*
D03*
X0762000Y0560772D02*
D03*
X0756000Y0590000D02*
D03*
X0726500Y0573500D02*
D03*
X0586000Y0586500D02*
D03*
X0605283Y0572565D02*
D03*
X0677000Y0564000D02*
D03*
Y0555500D02*
D03*
Y0558500D02*
D03*
X0665000Y0547000D02*
D03*
X0668000D02*
D03*
X0671000D02*
D03*
X0674000D02*
D03*
X0686000Y0558500D02*
D03*
X0683000D02*
D03*
Y0555500D02*
D03*
X0686000D02*
D03*
X0674000Y0544000D02*
D03*
X0671000D02*
D03*
X0668000D02*
D03*
X0665000D02*
D03*
X0671000Y0558500D02*
D03*
X0674000D02*
D03*
Y0564000D02*
D03*
Y0567000D02*
D03*
X0671000Y0564000D02*
D03*
X0674000Y0555500D02*
D03*
X0671000D02*
D03*
X0683000Y0544000D02*
D03*
X0686000D02*
D03*
X0583000Y0550000D02*
D03*
X0579000Y0568500D02*
D03*
X0677000Y0567000D02*
D03*
Y0570000D02*
D03*
X0698000Y0590500D02*
D03*
X0701500D02*
D03*
X0722500Y0630500D02*
D03*
X0723000Y0621000D02*
D03*
X0689114Y0607000D02*
D03*
X0789000Y0551500D02*
D03*
X0792000D02*
D03*
X0795000D02*
D03*
Y0548500D02*
D03*
X0792000D02*
D03*
X0789000D02*
D03*
X0848500Y0632000D02*
D03*
X0846000D02*
D03*
Y0629500D02*
D03*
X0848500D02*
D03*
X0851000D02*
D03*
Y0632000D02*
D03*
Y0634500D02*
D03*
X0848500D02*
D03*
X0846000D02*
D03*
X0802000Y0589988D02*
D03*
X0790000Y0602000D02*
D03*
X0699272Y0633000D02*
D03*
X0793000Y0615500D02*
D03*
X0801000Y0617000D02*
D03*
X0798000D02*
D03*
X0804000D02*
D03*
X0807000D02*
D03*
X0703500Y0622000D02*
D03*
X0699000D02*
D03*
X0701000Y0625500D02*
D03*
X0691000Y0616272D02*
D03*
X0786000Y0574500D02*
D03*
Y0568500D02*
D03*
Y0577500D02*
D03*
Y0571500D02*
D03*
Y0565500D02*
D03*
X0789000Y0580500D02*
D03*
X0792000D02*
D03*
Y0577500D02*
D03*
X0789000D02*
D03*
Y0574500D02*
D03*
X0792000D02*
D03*
Y0571500D02*
D03*
X0789000D02*
D03*
Y0568500D02*
D03*
X0792000D02*
D03*
X0795000D02*
D03*
Y0565500D02*
D03*
X0792000D02*
D03*
X0789000D02*
D03*
X0799500Y0583000D02*
D03*
X0806000Y0553000D02*
D03*
X0809000Y0550000D02*
D03*
Y0553000D02*
D03*
X0739500Y0586500D02*
D03*
X0735500Y0589500D02*
D03*
X0747500Y0586000D02*
D03*
X0752000Y0584500D02*
D03*
X0734500Y0573500D02*
D03*
X0734500Y0576468D02*
D03*
X0649500Y0543000D02*
D03*
X0618500Y0544968D02*
D03*
X0574500Y0552500D02*
D03*
Y0578500D02*
D03*
X0841000Y0544500D02*
D03*
Y0547000D02*
D03*
Y0552000D02*
D03*
Y0549500D02*
D03*
Y0542000D02*
D03*
X0863500D02*
D03*
X0861000D02*
D03*
X0858500D02*
D03*
X0856000D02*
D03*
X0853500D02*
D03*
X0856000Y0549500D02*
D03*
X0853500Y0544500D02*
D03*
Y0547000D02*
D03*
Y0549500D02*
D03*
Y0552000D02*
D03*
X0856000D02*
D03*
Y0547000D02*
D03*
Y0544500D02*
D03*
X0858500D02*
D03*
Y0547000D02*
D03*
Y0549500D02*
D03*
Y0552000D02*
D03*
X0861000D02*
D03*
Y0549500D02*
D03*
Y0547000D02*
D03*
Y0544500D02*
D03*
X0863500D02*
D03*
Y0547000D02*
D03*
Y0549500D02*
D03*
Y0552000D02*
D03*
X0851000Y0542000D02*
D03*
X0848500D02*
D03*
X0846000D02*
D03*
X0843500D02*
D03*
Y0549500D02*
D03*
Y0552000D02*
D03*
Y0547000D02*
D03*
Y0544500D02*
D03*
X0846000D02*
D03*
Y0547000D02*
D03*
Y0549500D02*
D03*
Y0552000D02*
D03*
X0848500D02*
D03*
Y0549500D02*
D03*
Y0547000D02*
D03*
Y0544500D02*
D03*
X0851000D02*
D03*
Y0547000D02*
D03*
Y0549500D02*
D03*
Y0552000D02*
D03*
X0650000Y0558500D02*
D03*
X0741000Y0611500D02*
D03*
Y0608500D02*
D03*
X0614500Y0545000D02*
D03*
D61*
X0601000Y0563626D02*
D03*
Y0554374D02*
D03*
X0722500Y0621374D02*
D03*
Y0630626D02*
D03*
X0750000Y0605374D02*
D03*
Y0614626D02*
D03*
D62*
X0811500Y0623118D02*
D03*
Y0612882D02*
D03*
X0820500D02*
D03*
Y0623118D02*
D03*
X0829500D02*
D03*
Y0612882D02*
D03*
X0847500D02*
D03*
Y0623118D02*
D03*
X0856500D02*
D03*
Y0612882D02*
D03*
X0838500D02*
D03*
Y0623118D02*
D03*
D63*
X0784980Y0620890D02*
D03*
X0770020Y0607110D02*
D03*
Y0620890D02*
D03*
D64*
X0747339Y0571535D02*
D03*
X0744779D02*
D03*
X0742220D02*
D03*
X0739661D02*
D03*
X0747339Y0588465D02*
D03*
X0744779D02*
D03*
X0742220D02*
D03*
X0739661D02*
D03*
D65*
X0737500Y0604000D02*
D03*
D66*
X0734941Y0600161D02*
D03*
X0737500D02*
D03*
X0740059D02*
D03*
Y0607839D02*
D03*
X0737500D02*
D03*
X0734941D02*
D03*
D67*
X0621153Y0570500D02*
D03*
X0612847Y0573059D02*
D03*
Y0567941D02*
D03*
X0773846Y0627441D02*
D03*
Y0632559D02*
D03*
X0782154Y0630000D02*
D03*
D68*
X0840839Y0556284D02*
D03*
X0849500D02*
D03*
X0858161D02*
D03*
Y0591716D02*
D03*
X0849500D02*
D03*
X0840839D02*
D03*
D69*
X0856291Y0566323D02*
D03*
X0851764D02*
D03*
X0847236D02*
D03*
X0842708D02*
D03*
Y0577347D02*
D03*
X0847236D02*
D03*
X0851764D02*
D03*
X0856291D02*
D03*
D70*
X0849500Y0582858D02*
D03*
D71*
X0672398Y0557000D02*
D03*
X0684602D02*
D03*
D72*
X0594118Y0570661D02*
D03*
X0583882D02*
D03*
Y0578339D02*
D03*
Y0575779D02*
D03*
Y0573220D02*
D03*
X0594118D02*
D03*
Y0575779D02*
D03*
Y0578339D02*
D03*
D73*
X0715874Y0576500D02*
D03*
X0713906D02*
D03*
X0711937D02*
D03*
X0709969D02*
D03*
X0708000D02*
D03*
X0706032D02*
D03*
X0704063D02*
D03*
X0702095D02*
D03*
X0700126D02*
D03*
X0698158D02*
D03*
X0696189D02*
D03*
X0694221D02*
D03*
Y0608193D02*
D03*
X0696189D02*
D03*
X0698158D02*
D03*
X0700126D02*
D03*
X0702095D02*
D03*
X0704063D02*
D03*
X0706032D02*
D03*
X0708000D02*
D03*
X0709969D02*
D03*
X0711937D02*
D03*
X0713906D02*
D03*
X0715874D02*
D03*
D74*
X0689201Y0581520D02*
D03*
Y0583488D02*
D03*
Y0585457D02*
D03*
Y0587425D02*
D03*
Y0589394D02*
D03*
Y0591362D02*
D03*
Y0593331D02*
D03*
Y0595299D02*
D03*
Y0597268D02*
D03*
Y0599236D02*
D03*
Y0601205D02*
D03*
Y0603173D02*
D03*
X0720894D02*
D03*
Y0601205D02*
D03*
Y0599236D02*
D03*
Y0597268D02*
D03*
Y0595299D02*
D03*
Y0593331D02*
D03*
Y0591362D02*
D03*
Y0589394D02*
D03*
Y0587425D02*
D03*
Y0585457D02*
D03*
Y0583488D02*
D03*
Y0581520D02*
D03*
D75*
X0773756Y0568500D02*
D03*
X0768244D02*
D03*
X0591256Y0561500D02*
D03*
X0585744D02*
D03*
D76*
X0774400Y0572543D02*
D03*
Y0575102D02*
D03*
Y0577661D02*
D03*
Y0580221D02*
D03*
Y0582780D02*
D03*
Y0585339D02*
D03*
Y0587898D02*
D03*
Y0590457D02*
D03*
X0796600D02*
D03*
Y0587898D02*
D03*
Y0585339D02*
D03*
Y0582780D02*
D03*
Y0580221D02*
D03*
Y0577661D02*
D03*
Y0575102D02*
D03*
Y0572543D02*
D03*
D77*
X0792000Y0565902D02*
D03*
Y0551098D02*
D03*
D78*
X0833598Y0632000D02*
D03*
X0848402D02*
D03*
X0845901Y0547000D02*
D03*
X0831098D02*
D03*
D79*
X0741214Y0623646D02*
D03*
Y0629354D02*
D03*
X0761686Y0623646D02*
D03*
Y0629354D02*
D03*
D80*
X0716150Y0555750D02*
D03*
X0699850D02*
D03*
Y0565250D02*
D03*
X0716150D02*
D03*
D81*
X0757260Y0558339D02*
D03*
Y0555780D02*
D03*
Y0553221D02*
D03*
Y0550661D02*
D03*
X0739740Y0558339D02*
D03*
Y0555780D02*
D03*
Y0553221D02*
D03*
Y0550661D02*
D03*
D82*
X0723579Y0547500D02*
D03*
X0733421D02*
D03*
D83*
X0766000Y0620000D02*
Y0627000D01*
X0748000Y0615500D02*
X0761500D01*
X0784980Y0620890D02*
Y0627173D01*
Y0620390D02*
Y0620890D01*
X0782154Y0630000D02*
X0784980Y0627173D01*
X0773787Y0632500D02*
X0773846Y0632559D01*
X0770272Y0632500D02*
X0773787D01*
X0761500Y0615500D02*
X0766000Y0620000D01*
X0763646Y0629354D02*
X0766000Y0627000D01*
X0786480Y0620728D02*
X0786480D01*
X0563126Y0566626D02*
X0572280Y0575779D01*
X0563126Y0563102D02*
Y0566500D01*
X0572280Y0575779D02*
X0583882D01*
X0577720Y0573220D02*
X0583882D01*
X0571000Y0566500D02*
X0577720Y0573220D01*
X0563126Y0563102D02*
X0565228Y0561000D01*
X0568772D02*
X0571000Y0563228D01*
Y0566500D01*
X0563126D02*
Y0566626D01*
X0761736Y0629354D02*
X0763646D01*
X0771500Y0620000D02*
X0771520Y0619980D01*
X0772268D01*
X0747000Y0614500D02*
X0748000Y0615500D01*
M02*
