G04 Layer_Physical_Order=2*
G04 Layer_Color=32768*
%FSAX25Y25*%
%MOIN*%
G70*
G01*
G75*
%ADD46C,0.01000*%
%ADD53C,0.04000*%
%ADD54C,0.04750*%
%ADD55C,0.02600*%
G36*
X0576236Y0591102D02*
X0576602Y0590736D01*
X0576800Y0590259D01*
Y0590000D01*
Y0589741D01*
X0576602Y0589264D01*
X0576236Y0588898D01*
X0575759Y0588700D01*
X0575241D01*
X0574764Y0588898D01*
X0574398Y0589264D01*
X0574200Y0589741D01*
Y0590000D01*
Y0590259D01*
X0574398Y0590736D01*
X0574764Y0591102D01*
X0575241Y0591300D01*
X0575759D01*
X0576236Y0591102D01*
D02*
G37*
D46*
X0802500Y0584000D02*
X0808000Y0589500D01*
X0786000Y0584000D02*
X0802500D01*
X0799500Y0560000D02*
X0809000Y0569500D01*
X0799500Y0537500D02*
Y0560000D01*
X0807250Y0612250D02*
X0810500Y0615500D01*
Y0621500D01*
D53*
X0524000Y0557500D02*
G03*
X0524000Y0537500I0000000J-0010000D01*
G01*
X0876500D02*
G03*
X0876500Y0557500I0000000J0010000D01*
G01*
X0866500Y0562500D02*
G03*
X0871500Y0557500I0005000J0000000D01*
G01*
Y0619500D02*
G03*
X0866500Y0614500I0000000J-0005000D01*
G01*
X0876500Y0619500D02*
G03*
X0876500Y0639500I0000000J0010000D01*
G01*
X0524000D02*
G03*
X0524000Y0619500I0000000J-0010000D01*
G01*
X0534000Y0614500D02*
G03*
X0529000Y0619500I-0005000J0000000D01*
G01*
Y0557500D02*
G03*
X0534000Y0562500I0000000J0005000D01*
G01*
X0871500Y0557500D02*
X0876500D01*
X0871500Y0557500D02*
Y0557500D01*
X0866500Y0562500D02*
Y0614500D01*
X0871500Y0619500D02*
Y0619500D01*
Y0619500D02*
X0876500D01*
X0524000D02*
X0529000D01*
X0534000Y0614500D02*
X0534000D01*
Y0562500D02*
Y0614500D01*
X0529000Y0557500D02*
Y0557500D01*
X0524000D02*
X0529000D01*
X0524000Y0639500D02*
X0876500D01*
X0524000Y0537500D02*
X0876500D01*
D54*
X0665555Y0623500D02*
D03*
X0655713D02*
D03*
X0645870D02*
D03*
X0636028D02*
D03*
X0626185D02*
D03*
X0616342D02*
D03*
X0606500D02*
D03*
X0596658D02*
D03*
X0586815D02*
D03*
X0576972D02*
D03*
X0567130D02*
D03*
X0557287D02*
D03*
X0543000Y0571874D02*
D03*
Y0564000D02*
D03*
Y0556100D02*
D03*
Y0548200D02*
D03*
X0563063Y0547500D02*
D03*
X0570937D02*
D03*
X0688500Y0621063D02*
D03*
X0563126Y0567500D02*
D03*
X0571000D02*
D03*
D55*
X0582000Y0546000D02*
D03*
X0577500Y0568500D02*
D03*
X0660500Y0579500D02*
D03*
X0668500Y0584500D02*
D03*
X0666000Y0582000D02*
D03*
X0663500Y0579500D02*
D03*
X0797500Y0551000D02*
D03*
X0800500D02*
D03*
X0803500D02*
D03*
X0800500Y0548000D02*
D03*
X0803500D02*
D03*
X0797500D02*
D03*
X0723000Y0621000D02*
D03*
Y0623500D02*
D03*
X0738000Y0599500D02*
D03*
X0747000Y0596500D02*
D03*
X0846000Y0579000D02*
D03*
X0843500Y0576500D02*
D03*
X0841000Y0574000D02*
D03*
X0858500Y0564000D02*
D03*
X0856000D02*
D03*
X0853500D02*
D03*
X0851000D02*
D03*
X0848500D02*
D03*
X0846000D02*
D03*
X0843500D02*
D03*
X0851000Y0576500D02*
D03*
X0846000Y0574000D02*
D03*
X0851000Y0571500D02*
D03*
X0843500Y0566500D02*
D03*
Y0569000D02*
D03*
Y0571500D02*
D03*
Y0574000D02*
D03*
X0846000Y0576500D02*
D03*
Y0571500D02*
D03*
Y0569000D02*
D03*
Y0566500D02*
D03*
X0848500D02*
D03*
Y0569000D02*
D03*
Y0571500D02*
D03*
Y0574000D02*
D03*
Y0576500D02*
D03*
Y0579000D02*
D03*
X0851000D02*
D03*
Y0574000D02*
D03*
Y0569000D02*
D03*
Y0566500D02*
D03*
X0853500D02*
D03*
Y0569000D02*
D03*
Y0571500D02*
D03*
Y0574000D02*
D03*
Y0576500D02*
D03*
Y0579000D02*
D03*
X0856000D02*
D03*
Y0576500D02*
D03*
Y0574000D02*
D03*
Y0571500D02*
D03*
Y0569000D02*
D03*
Y0566500D02*
D03*
X0858500D02*
D03*
Y0569000D02*
D03*
Y0571500D02*
D03*
Y0574000D02*
D03*
Y0576500D02*
D03*
Y0579000D02*
D03*
X0841000Y0571500D02*
D03*
Y0569000D02*
D03*
Y0566500D02*
D03*
Y0564000D02*
D03*
X0732500Y0576468D02*
D03*
X0719886Y0573500D02*
D03*
Y0577000D02*
D03*
X0762000Y0558228D02*
D03*
X0863500Y0586000D02*
D03*
X0861000D02*
D03*
X0858500D02*
D03*
X0856000D02*
D03*
X0853500D02*
D03*
X0856000Y0598500D02*
D03*
Y0593500D02*
D03*
X0853500Y0588500D02*
D03*
Y0591000D02*
D03*
Y0593500D02*
D03*
Y0596000D02*
D03*
Y0598500D02*
D03*
Y0601000D02*
D03*
X0856000D02*
D03*
Y0596000D02*
D03*
Y0591000D02*
D03*
Y0588500D02*
D03*
X0858500D02*
D03*
Y0591000D02*
D03*
Y0593500D02*
D03*
Y0596000D02*
D03*
Y0598500D02*
D03*
Y0601000D02*
D03*
X0861000D02*
D03*
Y0598500D02*
D03*
Y0596000D02*
D03*
Y0593500D02*
D03*
Y0591000D02*
D03*
Y0588500D02*
D03*
X0863500D02*
D03*
Y0591000D02*
D03*
Y0593500D02*
D03*
Y0596000D02*
D03*
Y0598500D02*
D03*
Y0601000D02*
D03*
X0851000Y0586000D02*
D03*
X0848500D02*
D03*
X0846000D02*
D03*
X0843500D02*
D03*
Y0598500D02*
D03*
Y0593500D02*
D03*
X0841000Y0588500D02*
D03*
Y0591000D02*
D03*
Y0593500D02*
D03*
Y0596000D02*
D03*
Y0598500D02*
D03*
Y0601000D02*
D03*
X0843500D02*
D03*
Y0596000D02*
D03*
Y0591000D02*
D03*
Y0588500D02*
D03*
X0846000D02*
D03*
Y0591000D02*
D03*
Y0593500D02*
D03*
Y0596000D02*
D03*
Y0598500D02*
D03*
Y0601000D02*
D03*
X0848500D02*
D03*
Y0598500D02*
D03*
Y0596000D02*
D03*
Y0593500D02*
D03*
Y0591000D02*
D03*
Y0588500D02*
D03*
X0851000D02*
D03*
Y0591000D02*
D03*
Y0593500D02*
D03*
Y0596000D02*
D03*
Y0598500D02*
D03*
Y0601000D02*
D03*
Y0603500D02*
D03*
X0848500D02*
D03*
X0846000D02*
D03*
X0843500D02*
D03*
X0841000D02*
D03*
X0863500D02*
D03*
X0861000D02*
D03*
X0858500D02*
D03*
X0856000D02*
D03*
X0853500D02*
D03*
X0863500Y0583500D02*
D03*
X0861000D02*
D03*
X0688614Y0607000D02*
D03*
X0629272Y0570000D02*
D03*
X0598500Y0570886D02*
D03*
X0539000Y0602244D02*
D03*
X0551500D02*
D03*
X0564000D02*
D03*
X0576500D02*
D03*
X0589000D02*
D03*
X0601500D02*
D03*
X0614000D02*
D03*
X0626500D02*
D03*
X0639000D02*
D03*
X0651500D02*
D03*
X0664000D02*
D03*
X0676500D02*
D03*
X0813500Y0619500D02*
D03*
X0816000D02*
D03*
X0818500D02*
D03*
X0821000D02*
D03*
X0823500D02*
D03*
X0826000D02*
D03*
X0828500D02*
D03*
X0831000D02*
D03*
X0833500D02*
D03*
X0836000D02*
D03*
X0813500Y0622000D02*
D03*
X0816000D02*
D03*
X0818500D02*
D03*
X0821000D02*
D03*
X0823500D02*
D03*
X0826000D02*
D03*
X0828500D02*
D03*
X0831000D02*
D03*
X0833500D02*
D03*
X0836000D02*
D03*
X0813500Y0624500D02*
D03*
X0816000D02*
D03*
X0818500D02*
D03*
X0821000D02*
D03*
X0823500D02*
D03*
X0826000D02*
D03*
X0828500D02*
D03*
X0831000D02*
D03*
X0833500D02*
D03*
X0836000D02*
D03*
X0813500Y0627000D02*
D03*
X0816000D02*
D03*
X0818500D02*
D03*
X0821000D02*
D03*
X0823500D02*
D03*
X0826000D02*
D03*
X0828500D02*
D03*
X0831000D02*
D03*
X0833500D02*
D03*
X0836000D02*
D03*
X0813500Y0629500D02*
D03*
X0816000D02*
D03*
X0818500D02*
D03*
X0821000D02*
D03*
X0823500D02*
D03*
X0826000D02*
D03*
X0828500D02*
D03*
X0831000D02*
D03*
X0833500D02*
D03*
X0836000D02*
D03*
X0813500Y0632000D02*
D03*
X0816000D02*
D03*
X0818500D02*
D03*
X0821000D02*
D03*
X0823500D02*
D03*
X0826000D02*
D03*
X0828500D02*
D03*
X0831000D02*
D03*
X0833500D02*
D03*
X0836000D02*
D03*
Y0634500D02*
D03*
X0833500D02*
D03*
X0831000D02*
D03*
X0828500D02*
D03*
X0826000D02*
D03*
X0823500D02*
D03*
X0821000D02*
D03*
X0818500D02*
D03*
X0816000D02*
D03*
X0813500D02*
D03*
X0768000Y0582272D02*
D03*
Y0584500D02*
D03*
X0802000Y0597500D02*
D03*
X0799000D02*
D03*
X0796000Y0603500D02*
D03*
X0793000D02*
D03*
Y0606500D02*
D03*
X0796000Y0600500D02*
D03*
Y0606500D02*
D03*
X0799000Y0600500D02*
D03*
X0802000D02*
D03*
Y0603500D02*
D03*
X0799000D02*
D03*
Y0606500D02*
D03*
X0802000D02*
D03*
X0620047Y0555451D02*
D03*
X0637387Y0565613D02*
D03*
X0641000Y0568500D02*
D03*
X0644000D02*
D03*
Y0564000D02*
D03*
X0577500Y0551000D02*
D03*
X0729000Y0609272D02*
D03*
X0718886Y0610000D02*
D03*
X0716000Y0596000D02*
D03*
X0714000Y0593500D02*
D03*
X0712000Y0595876D02*
D03*
X0704000Y0602000D02*
D03*
X0725545Y0589853D02*
D03*
X0724000Y0614500D02*
D03*
X0721000D02*
D03*
X0718000D02*
D03*
X0717500Y0618500D02*
D03*
X0696058Y0612876D02*
D03*
X0701000Y0602000D02*
D03*
X0709600D02*
D03*
X0712500D02*
D03*
X0788500Y0611500D02*
D03*
X0725500Y0599000D02*
D03*
X0802900Y0584400D02*
D03*
Y0581000D02*
D03*
X0805000Y0618000D02*
D03*
X0799000D02*
D03*
X0720000Y0621500D02*
D03*
X0781000Y0596000D02*
D03*
X0784000D02*
D03*
Y0584000D02*
D03*
X0744000Y0596500D02*
D03*
X0741000D02*
D03*
X0738000D02*
D03*
X0739500Y0587500D02*
D03*
X0756000Y0593000D02*
D03*
X0759000Y0596000D02*
D03*
Y0593000D02*
D03*
X0762000Y0596000D02*
D03*
Y0593000D02*
D03*
X0765000Y0596000D02*
D03*
X0747000Y0614000D02*
D03*
X0744000D02*
D03*
X0741000D02*
D03*
Y0611000D02*
D03*
X0744000D02*
D03*
X0747000D02*
D03*
X0750000D02*
D03*
Y0608000D02*
D03*
X0747000D02*
D03*
X0744000D02*
D03*
X0741000D02*
D03*
X0765000Y0593000D02*
D03*
X0768000D02*
D03*
Y0596000D02*
D03*
X0771000Y0593000D02*
D03*
Y0596000D02*
D03*
X0774000D02*
D03*
X0759000Y0551000D02*
D03*
X0741000Y0599500D02*
D03*
X0810600Y0554500D02*
D03*
X0808000D02*
D03*
X0837600Y0586833D02*
D03*
X0688000Y0558500D02*
D03*
X0685500D02*
D03*
Y0556000D02*
D03*
X0688000D02*
D03*
X0707000Y0602000D02*
D03*
X0699995Y0580181D02*
D03*
X0619728Y0545000D02*
D03*
X0623272D02*
D03*
X0839500Y0633000D02*
D03*
X0842000D02*
D03*
X0844500D02*
D03*
X0847000D02*
D03*
Y0630500D02*
D03*
X0844500D02*
D03*
X0842000D02*
D03*
X0839500D02*
D03*
X0850500Y0552000D02*
D03*
Y0549500D02*
D03*
Y0547000D02*
D03*
Y0544500D02*
D03*
X0848000D02*
D03*
Y0547000D02*
D03*
Y0549500D02*
D03*
Y0552000D02*
D03*
X0845500D02*
D03*
Y0549500D02*
D03*
Y0547000D02*
D03*
Y0544500D02*
D03*
X0843000D02*
D03*
Y0547000D02*
D03*
Y0552000D02*
D03*
Y0549500D02*
D03*
Y0542000D02*
D03*
X0845500D02*
D03*
X0848000D02*
D03*
X0850500D02*
D03*
X0863000Y0552000D02*
D03*
Y0549500D02*
D03*
Y0547000D02*
D03*
Y0544500D02*
D03*
X0860500D02*
D03*
Y0547000D02*
D03*
Y0549500D02*
D03*
Y0552000D02*
D03*
X0858000D02*
D03*
Y0549500D02*
D03*
Y0547000D02*
D03*
Y0544500D02*
D03*
X0855500D02*
D03*
Y0547000D02*
D03*
Y0552000D02*
D03*
X0853000D02*
D03*
Y0549500D02*
D03*
Y0547000D02*
D03*
Y0544500D02*
D03*
X0855500Y0549500D02*
D03*
X0853000Y0542000D02*
D03*
X0855500D02*
D03*
X0858000D02*
D03*
X0860500D02*
D03*
X0863000D02*
D03*
X0840500D02*
D03*
Y0549500D02*
D03*
Y0552000D02*
D03*
Y0547000D02*
D03*
Y0544500D02*
D03*
X0575500Y0590000D02*
D03*
X0591500Y0545500D02*
D03*
Y0553500D02*
D03*
X0551772Y0572000D02*
D03*
Y0564000D02*
D03*
X0654500Y0545500D02*
D03*
X0657500D02*
D03*
M02*
