M48
;Layer_Color=9474304
;FILE_FORMAT=2:4
INCH
;TYPE=PLATED
T1F00S00C0.0200
T2F00S00C0.0280
T3F00S00C0.0354
T4F00S00C0.0380
T5F00S00C0.0800
%
T01
X027250Y012700
X029200Y012800
X033600Y013150
X033450Y010750
X046150Y012450
X046500Y013850
X045450Y014450
X045700Y015350
X049174Y015326
X049300Y014600
X048200Y013850
X048350Y011350
X058600Y011850
X063500
X065850Y026900
X066350Y027100
X066900Y027200
X056900Y027050
X056350
Y026500
X056900
X049700Y016300
Y015800
X049150Y016200
X048800Y016950
X045350Y025150
X041200
X040550Y025250
X041650Y024450
X042100Y024100
X043000Y023300
X043023Y027364
X042544Y027199
X041500Y027250
X042023Y028264
X040750Y028900
X039300Y029750
X038323Y030664
X037650Y030250
X037250Y028250
X037700Y027050
X038300Y027300
X036850Y026950
X036550Y025050
X036903Y024531
X037250Y024200
X038300Y023300
X035800Y025200
X036100Y028750
X034400Y030300
X033623Y030614
X033050Y030550
X032550Y028250
X032150Y027150
X031450Y027200
Y028750
X033100Y027150
X033600Y027300
X032200Y024600
X032500Y024200
X031300Y024900
X033500Y023250
X042500Y030500
X043023Y030614
X044773Y030556
X045500Y029200
X028650Y028950
X027821Y028700
X027550Y028200
X027800Y027250
X026950Y027450
X028850Y027350
X028814Y024931
X027807Y024729
X027900Y024150
X027446Y024412
X026900Y024000
X028900Y023150
X024100
X023600Y023100
X022900Y024050
X022850Y024550
X022400Y024200
X021638Y023845
X020100Y023600
X019950Y025200
X019300Y025100
X019000Y028050
X019750
X020400Y028050
X021100Y028050
X021750
X022500
X023750Y028550
X023150Y030300
X022500Y030350
X022049Y029899
X021601Y030400
X020700Y030050
X020119Y029918
X019100Y029650
X018960Y018560
X032269Y031450
X037000Y031419
X041700Y031600
X041900Y032300
T02
X021140Y012900
X021928
X022710
X023500
X024290
X025077
X025865
X026541Y013100
X026950Y011300
X028050Y010250
X029250Y011950
X030361Y012714
X027800Y014100
X020100Y015100
X041850Y013850
X041800Y012600
X042100Y011450
X044950Y010900
X047050Y011300
X047400Y014600
X062550Y013400
X066150Y011550
Y010950
X066750
Y011550
X065750Y018050
X065300Y018500
X064850Y018950
X066700Y024650
X061650Y018550
X055250Y017800
X053700Y016200
X051750Y017350
X050650Y017400
X049000Y019100
X049900Y020750
X052050Y020000
X056500Y015750
X049436Y030648
Y031200
X045550Y026850
X042500Y025900
X044000Y022200
X044800Y022350
X045750Y022550
X045250Y021450
X044450
X046100Y020200
X042050Y020450
X041000Y016700
X038100Y016950
X033050Y019950
X031800Y020150
X031600Y022950
X031350Y030450
X036350Y031150
X026300Y028550
X024850Y019650
X025100Y017300
X021450Y018450
X019300Y020200
X030150Y017800
X029900Y016650
X029558Y031300
X028768
X027981
X027194
X026406
X025624
X024834
X024044
X023257
X022469
X027400Y032750
X030348Y031300
X031131
X049436Y031736
X050550Y031250
T03
X019200Y011200
Y012200
Y014600
Y015600
X019300Y030800
X020650
Y031800
X019300
T04
X031950Y015700
X032950
X033950
Y016700
Y017700
Y018700
Y019700
Y020700
Y021700
X032950
X031950
X030950
X029950
X028950
X027950
X026950
X025950
X024950
X023950
X022950
X021950
X020950
Y015700
X021950
X022950
X023950
X024950
X025950
X026950
X027950
X028950
X029950
X030950
T05
X052800Y011900
Y013700
M30
