G04 Layer_Color=65535*
%FSAX24Y24*%
%MOIN*%
G70*
G01*
G75*
%ADD44C,0.0100*%
%ADD71C,0.0098*%
%ADD72C,0.0060*%
%ADD73C,0.0080*%
%ADD74C,0.0236*%
%ADD75C,0.0079*%
%ADD76C,0.0030*%
%ADD77R,0.1024X0.0306*%
D44*
X037737Y010688D02*
G03*
X039163Y010688I000713J002662D01*
G01*
Y016012D02*
G03*
X037737Y016012I-000713J-002662D01*
G01*
X043694Y010051D02*
X044599D01*
X043694Y012649D02*
X044284D01*
X042316D02*
X042906D01*
X042001Y010051D02*
X042906D01*
X042001Y012334D02*
X042316Y012649D01*
X042001Y010051D02*
Y012334D01*
X044284Y012649D02*
X044599Y012334D01*
Y010051D02*
Y012334D01*
X048575Y021600D02*
X053850D01*
Y030000D01*
X046650D02*
X053850D01*
X046650Y021600D02*
Y030000D01*
Y021600D02*
X048575D01*
X031510Y010050D02*
Y013770D01*
X033397Y010050D02*
X033400Y013850D01*
X031889Y014146D02*
X033100D01*
X033395Y013851D01*
X031510Y013767D02*
X031889Y014146D01*
X031510Y010050D02*
X033390D01*
X060750Y026150D02*
X061330D01*
X060750D02*
Y032750D01*
X064550D01*
Y026150D02*
Y032750D01*
X061330Y026150D02*
X064550D01*
X043844Y017903D02*
X045497D01*
X043844Y021997D02*
X045025D01*
X041875D02*
X043056D01*
X041403Y017903D02*
X043056D01*
X041403Y021525D02*
X041875Y021997D01*
X041403Y017903D02*
Y021525D01*
X045025Y021997D02*
X045497Y021525D01*
Y017903D02*
Y021525D01*
X060197Y027944D02*
Y029597D01*
X056103Y027944D02*
Y029125D01*
Y025975D02*
Y027156D01*
X060197Y025503D02*
Y027156D01*
X056103Y025975D02*
X056575Y025503D01*
X060197D01*
X056103Y029125D02*
X056575Y029597D01*
X060197D01*
X043694Y013826D02*
X044599D01*
X043694Y016424D02*
X044284D01*
X042316D02*
X042906D01*
X042001Y013826D02*
X042906D01*
X042001Y016109D02*
X042316Y016424D01*
X042001Y013826D02*
Y016109D01*
X044284Y016424D02*
X044599Y016109D01*
Y013826D02*
Y016109D01*
X028150Y029250D02*
Y029650D01*
X028050Y029750D01*
X027850D01*
X027750Y029650D01*
Y029250D01*
X027850Y029150D01*
X028050D01*
X027950Y029350D02*
X028150Y029150D01*
X028050D02*
X028150Y029250D01*
X028750Y029750D02*
X028550Y029650D01*
X028350Y029450D01*
Y029250D01*
X028450Y029150D01*
X028650D01*
X028750Y029250D01*
Y029350D01*
X028650Y029450D01*
X028350D01*
X032850Y029250D02*
Y029650D01*
X032750Y029750D01*
X032550D01*
X032450Y029650D01*
Y029250D01*
X032550Y029150D01*
X032750D01*
X032650Y029350D02*
X032850Y029150D01*
X032750D02*
X032850Y029250D01*
X033050Y029750D02*
X033450D01*
Y029650D01*
X033050Y029250D01*
Y029150D01*
X042250Y025150D02*
Y025550D01*
X042150Y025650D01*
X041950D01*
X041850Y025550D01*
Y025150D01*
X041950Y025050D01*
X042150D01*
X042050Y025250D02*
X042250Y025050D01*
X042150D02*
X042250Y025150D01*
X042850Y025650D02*
X042450D01*
Y025350D01*
X042650Y025450D01*
X042750D01*
X042850Y025350D01*
Y025150D01*
X042750Y025050D01*
X042550D01*
X042450Y025150D01*
X037550D02*
Y025550D01*
X037450Y025650D01*
X037250D01*
X037150Y025550D01*
Y025150D01*
X037250Y025050D01*
X037450D01*
X037350Y025250D02*
X037550Y025050D01*
X037450D02*
X037550Y025150D01*
X038050Y025050D02*
Y025650D01*
X037750Y025350D01*
X038150D01*
X042567Y013333D02*
X042500Y013400D01*
X042367D01*
X042300Y013333D01*
Y013067D01*
X042367Y013000D01*
X042500D01*
X042567Y013067D01*
X042900Y013000D02*
Y013400D01*
X042700Y013200D01*
X042966D01*
X043300Y013000D02*
Y013400D01*
X043100Y013200D01*
X043366D01*
X052900Y017300D02*
Y016900D01*
X053100D01*
X053167Y016967D01*
Y017233D01*
X053100Y017300D01*
X052900D01*
X053300Y016900D02*
X053433D01*
X053367D01*
Y017300D01*
X053300Y017233D01*
X053633Y017300D02*
X053900D01*
Y017233D01*
X053633Y016967D01*
Y016900D01*
X019150Y023800D02*
Y023200D01*
X019550D01*
X019750D02*
X019950D01*
X019850D01*
Y023800D01*
X019750Y023700D01*
X030700Y010550D02*
X030600Y010450D01*
Y010250D01*
X030700Y010150D01*
X031100D01*
X031200Y010250D01*
Y010450D01*
X031100Y010550D01*
X031200Y011150D02*
Y010750D01*
X030800Y011150D01*
X030700D01*
X030600Y011050D01*
Y010850D01*
X030700Y010750D01*
X031200Y011350D02*
Y011550D01*
Y011450D01*
X030600D01*
X030700Y011350D01*
X028750Y014550D02*
Y014050D01*
X028850Y013950D01*
X029050D01*
X029150Y014050D01*
Y014550D01*
X029650Y013950D02*
Y014550D01*
X029350Y014250D01*
X029750D01*
X041855Y022955D02*
X041755Y023055D01*
X041555D01*
X041455Y022955D01*
Y022555D01*
X041555Y022455D01*
X041755D01*
X041855Y022555D01*
X042055Y022455D02*
X042255D01*
X042155D01*
Y023055D01*
X042055Y022955D01*
X042555D02*
X042655Y023055D01*
X042855D01*
X042955Y022955D01*
Y022855D01*
X042855Y022755D01*
X042955Y022655D01*
Y022555D01*
X042855Y022455D01*
X042655D01*
X042555Y022555D01*
Y022655D01*
X042655Y022755D01*
X042555Y022855D01*
Y022955D01*
X042655Y022755D02*
X042855D01*
X042567Y017033D02*
X042500Y017100D01*
X042367D01*
X042300Y017033D01*
Y016767D01*
X042367Y016700D01*
X042500D01*
X042567Y016767D01*
X042700Y016700D02*
X042833D01*
X042767D01*
Y017100D01*
X042700Y017033D01*
X043033Y016767D02*
X043100Y016700D01*
X043233D01*
X043300Y016767D01*
Y017033D01*
X043233Y017100D01*
X043100D01*
X043033Y017033D01*
Y016967D01*
X043100Y016900D01*
X043300D01*
X065967Y032283D02*
X065900Y032350D01*
X065767D01*
X065700Y032283D01*
Y032017D01*
X065767Y031950D01*
X065900D01*
X065967Y032017D01*
X066366Y031950D02*
X066100D01*
X066366Y032217D01*
Y032283D01*
X066300Y032350D01*
X066167D01*
X066100Y032283D01*
X066500Y032350D02*
X066766D01*
Y032283D01*
X066500Y032017D01*
Y031950D01*
X054700Y029600D02*
X054600Y029700D01*
X054400D01*
X054300Y029600D01*
Y029200D01*
X054400Y029100D01*
X054600D01*
X054700Y029200D01*
X054900Y029600D02*
X055000Y029700D01*
X055200D01*
X055300Y029600D01*
Y029500D01*
X055200Y029400D01*
X055100D01*
X055200D01*
X055300Y029300D01*
Y029200D01*
X055200Y029100D01*
X055000D01*
X054900Y029200D01*
X055500Y029600D02*
X055600Y029700D01*
X055800D01*
X055899Y029600D01*
Y029500D01*
X055800Y029400D01*
X055700D01*
X055800D01*
X055899Y029300D01*
Y029200D01*
X055800Y029100D01*
X055600D01*
X055500Y029200D01*
X047817Y012033D02*
X047750Y012100D01*
X047617D01*
X047550Y012033D01*
Y011767D01*
X047617Y011700D01*
X047750D01*
X047817Y011767D01*
X047950Y012033D02*
X048017Y012100D01*
X048150D01*
X048216Y012033D01*
Y011967D01*
X048150Y011900D01*
X048083D01*
X048150D01*
X048216Y011833D01*
Y011767D01*
X048150Y011700D01*
X048017D01*
X047950Y011767D01*
X048616Y012100D02*
X048350D01*
Y011900D01*
X048483Y011967D01*
X048550D01*
X048616Y011900D01*
Y011767D01*
X048550Y011700D01*
X048416D01*
X048350Y011767D01*
X046467Y012033D02*
X046400Y012100D01*
X046267D01*
X046200Y012033D01*
Y011767D01*
X046267Y011700D01*
X046400D01*
X046467Y011767D01*
X046600Y012033D02*
X046667Y012100D01*
X046800D01*
X046866Y012033D01*
Y011967D01*
X046800Y011900D01*
X046733D01*
X046800D01*
X046866Y011833D01*
Y011767D01*
X046800Y011700D01*
X046667D01*
X046600Y011767D01*
X047000D02*
X047066Y011700D01*
X047200D01*
X047266Y011767D01*
Y012033D01*
X047200Y012100D01*
X047066D01*
X047000Y012033D01*
Y011967D01*
X047066Y011900D01*
X047266D01*
X034085Y014335D02*
Y013735D01*
X034385D01*
X034485Y013835D01*
Y014235D01*
X034385Y014335D01*
X034085D01*
X035085Y013735D02*
X034685D01*
X035085Y014135D01*
Y014235D01*
X034985Y014335D01*
X034785D01*
X034685Y014235D01*
X055050Y022750D02*
X055650D01*
Y023050D01*
X055550Y023150D01*
X055150D01*
X055050Y023050D01*
Y022750D01*
X055650Y023650D02*
X055050D01*
X055350Y023350D01*
Y023750D01*
X022350Y033350D02*
X022150D01*
X022250D01*
Y032850D01*
X022150Y032750D01*
X022050D01*
X021950Y032850D01*
X022550Y032750D02*
Y033350D01*
X022850D01*
X022950Y033250D01*
Y033050D01*
X022850Y032950D01*
X022550D01*
X023150Y032750D02*
X023350D01*
X023250D01*
Y033350D01*
X023150Y033250D01*
X020810Y014470D02*
X020610D01*
X020710D01*
Y013970D01*
X020610Y013870D01*
X020510D01*
X020410Y013970D01*
X021010Y013870D02*
Y014470D01*
X021310D01*
X021410Y014370D01*
Y014170D01*
X021310Y014070D01*
X021010D01*
X022009Y013870D02*
X021610D01*
X022009Y014270D01*
Y014370D01*
X021910Y014470D01*
X021710D01*
X021610Y014370D01*
X035755Y017055D02*
Y016455D01*
X036155D01*
X036755D02*
X036355D01*
X036755Y016855D01*
Y016955D01*
X036655Y017055D01*
X036455D01*
X036355Y016955D01*
X046700Y031050D02*
Y030450D01*
X047100D01*
X047300Y030950D02*
X047400Y031050D01*
X047600D01*
X047700Y030950D01*
Y030850D01*
X047600Y030750D01*
X047500D01*
X047600D01*
X047700Y030650D01*
Y030550D01*
X047600Y030450D01*
X047400D01*
X047300Y030550D01*
X018865Y032635D02*
Y033235D01*
X019165D01*
X019265Y033135D01*
Y032935D01*
X019165Y032835D01*
X018865D01*
X019465Y032635D02*
X019665D01*
X019565D01*
Y033235D01*
X019465Y033135D01*
X020215Y032635D02*
Y033235D01*
X020515D01*
X020615Y033135D01*
Y032935D01*
X020515Y032835D01*
X020215D01*
X021215Y032635D02*
X020815D01*
X021215Y033035D01*
Y033135D01*
X021115Y033235D01*
X020915D01*
X020815Y033135D01*
X018765Y016435D02*
Y017035D01*
X019065D01*
X019165Y016935D01*
Y016735D01*
X019065Y016635D01*
X018765D01*
X019365Y016935D02*
X019465Y017035D01*
X019665D01*
X019765Y016935D01*
Y016835D01*
X019665Y016735D01*
X019565D01*
X019665D01*
X019765Y016635D01*
Y016535D01*
X019665Y016435D01*
X019465D01*
X019365Y016535D01*
X018760Y013040D02*
Y013640D01*
X019060D01*
X019160Y013540D01*
Y013340D01*
X019060Y013240D01*
X018760D01*
X019660Y013040D02*
Y013640D01*
X019360Y013340D01*
X019760D01*
X023500Y025141D02*
Y025541D01*
X023400Y025641D01*
X023200D01*
X023100Y025541D01*
Y025141D01*
X023200Y025041D01*
X023400D01*
X023300Y025241D02*
X023500Y025041D01*
X023400D02*
X023500Y025141D01*
X023700Y025041D02*
X023900D01*
X023800D01*
Y025641D01*
X023700Y025541D01*
X028050Y025200D02*
Y025600D01*
X027950Y025700D01*
X027750D01*
X027650Y025600D01*
Y025200D01*
X027750Y025100D01*
X027950D01*
X027850Y025300D02*
X028050Y025100D01*
X027950D02*
X028050Y025200D01*
X028650Y025100D02*
X028250D01*
X028650Y025500D01*
Y025600D01*
X028550Y025700D01*
X028350D01*
X028250Y025600D01*
X032750Y025200D02*
Y025600D01*
X032650Y025700D01*
X032450D01*
X032350Y025600D01*
Y025200D01*
X032450Y025100D01*
X032650D01*
X032550Y025300D02*
X032750Y025100D01*
X032650D02*
X032750Y025200D01*
X032950Y025600D02*
X033050Y025700D01*
X033250D01*
X033350Y025600D01*
Y025500D01*
X033250Y025400D01*
X033150D01*
X033250D01*
X033350Y025300D01*
Y025200D01*
X033250Y025100D01*
X033050D01*
X032950Y025200D01*
X037550Y029250D02*
Y029650D01*
X037450Y029750D01*
X037250D01*
X037150Y029650D01*
Y029250D01*
X037250Y029150D01*
X037450D01*
X037350Y029350D02*
X037550Y029150D01*
X037450D02*
X037550Y029250D01*
X037750Y029650D02*
X037850Y029750D01*
X038050D01*
X038150Y029650D01*
Y029550D01*
X038050Y029450D01*
X038150Y029350D01*
Y029250D01*
X038050Y029150D01*
X037850D01*
X037750Y029250D01*
Y029350D01*
X037850Y029450D01*
X037750Y029550D01*
Y029650D01*
X037850Y029450D02*
X038050D01*
X042300Y029250D02*
Y029650D01*
X042200Y029750D01*
X042000D01*
X041900Y029650D01*
Y029250D01*
X042000Y029150D01*
X042200D01*
X042100Y029350D02*
X042300Y029150D01*
X042200D02*
X042300Y029250D01*
X042500D02*
X042600Y029150D01*
X042800D01*
X042900Y029250D01*
Y029650D01*
X042800Y029750D01*
X042600D01*
X042500Y029650D01*
Y029550D01*
X042600Y029450D01*
X042900D01*
X041873Y032514D02*
Y032914D01*
X041773Y033014D01*
X041573D01*
X041473Y032914D01*
Y032514D01*
X041573Y032414D01*
X041773D01*
X041673Y032614D02*
X041873Y032414D01*
X041773D02*
X041873Y032514D01*
X042073Y032414D02*
X042273D01*
X042173D01*
Y033014D01*
X042073Y032914D01*
X042572D02*
X042672Y033014D01*
X042872D01*
X042972Y032914D01*
Y032514D01*
X042872Y032414D01*
X042672D01*
X042572Y032514D01*
Y032914D01*
X037373Y032514D02*
Y032914D01*
X037273Y033014D01*
X037073D01*
X036973Y032914D01*
Y032514D01*
X037073Y032414D01*
X037273D01*
X037173Y032614D02*
X037373Y032414D01*
X037273D02*
X037373Y032514D01*
X037573Y032414D02*
X037773D01*
X037673D01*
Y033014D01*
X037573Y032914D01*
X038072Y032414D02*
X038272D01*
X038172D01*
Y033014D01*
X038072Y032914D01*
X032473Y032514D02*
Y032914D01*
X032373Y033014D01*
X032173D01*
X032073Y032914D01*
Y032514D01*
X032173Y032414D01*
X032373D01*
X032273Y032614D02*
X032473Y032414D01*
X032373D02*
X032473Y032514D01*
X032673Y032414D02*
X032873D01*
X032773D01*
Y033014D01*
X032673Y032914D01*
X033572Y032414D02*
X033172D01*
X033572Y032814D01*
Y032914D01*
X033472Y033014D01*
X033272D01*
X033172Y032914D01*
X061367Y017817D02*
Y018083D01*
X061300Y018150D01*
X061167D01*
X061100Y018083D01*
Y017817D01*
X061167Y017750D01*
X061300D01*
X061233Y017883D02*
X061367Y017750D01*
X061300D02*
X061367Y017817D01*
X061500Y017750D02*
X061633D01*
X061567D01*
Y018150D01*
X061500Y018083D01*
X061833D02*
X061900Y018150D01*
X062033D01*
X062100Y018083D01*
Y018017D01*
X062033Y017950D01*
X061966D01*
X062033D01*
X062100Y017883D01*
Y017817D01*
X062033Y017750D01*
X061900D01*
X061833Y017817D01*
X066267Y017767D02*
Y018033D01*
X066200Y018100D01*
X066067D01*
X066000Y018033D01*
Y017767D01*
X066067Y017700D01*
X066200D01*
X066133Y017833D02*
X066267Y017700D01*
X066200D02*
X066267Y017767D01*
X066400Y017700D02*
X066533D01*
X066467D01*
Y018100D01*
X066400Y018033D01*
X066933Y017700D02*
Y018100D01*
X066733Y017900D01*
X067000D01*
X055550Y018450D02*
X055150D01*
X055050Y018350D01*
Y018150D01*
X055150Y018050D01*
X055550D01*
X055650Y018150D01*
Y018350D01*
X055450Y018250D02*
X055650Y018450D01*
Y018350D02*
X055550Y018450D01*
X055650Y018650D02*
Y018850D01*
Y018750D01*
X055050D01*
X055150Y018650D01*
X055050Y019150D02*
Y019550D01*
X055150D01*
X055550Y019150D01*
X055650D01*
X018900Y019100D02*
Y019500D01*
X018800Y019600D01*
X018600D01*
X018500Y019500D01*
Y019100D01*
X018600Y019000D01*
X018800D01*
X018700Y019200D02*
X018900Y019000D01*
X018800D02*
X018900Y019100D01*
X019500Y019000D02*
X019100D01*
X019500Y019400D01*
Y019500D01*
X019400Y019600D01*
X019200D01*
X019100Y019500D01*
X019700D02*
X019800Y019600D01*
X020000D01*
X020099Y019500D01*
Y019100D01*
X020000Y019000D01*
X019800D01*
X019700Y019100D01*
Y019500D01*
X060795Y033095D02*
Y033695D01*
X061095D01*
X061195Y033595D01*
Y033395D01*
X061095Y033295D01*
X060795D01*
X060995D02*
X061195Y033095D01*
X061395Y033695D02*
X061795D01*
Y033595D01*
X061395Y033195D01*
Y033095D01*
X024250Y025300D02*
Y025900D01*
X024550D01*
X024650Y025800D01*
Y025600D01*
X024550Y025500D01*
X024250D01*
X024450D02*
X024650Y025300D01*
X024850Y025800D02*
X024950Y025900D01*
X025150D01*
X025250Y025800D01*
Y025700D01*
X025150Y025600D01*
X025050D01*
X025150D01*
X025250Y025500D01*
Y025400D01*
X025150Y025300D01*
X024950D01*
X024850Y025400D01*
X025450Y025800D02*
X025550Y025900D01*
X025750D01*
X025849Y025800D01*
Y025700D01*
X025750Y025600D01*
X025849Y025500D01*
Y025400D01*
X025750Y025300D01*
X025550D01*
X025450Y025400D01*
Y025500D01*
X025550Y025600D01*
X025450Y025700D01*
Y025800D01*
X025550Y025600D02*
X025750D01*
X028950Y025300D02*
Y025900D01*
X029250D01*
X029350Y025800D01*
Y025600D01*
X029250Y025500D01*
X028950D01*
X029150D02*
X029350Y025300D01*
X029550Y025800D02*
X029650Y025900D01*
X029850D01*
X029950Y025800D01*
Y025700D01*
X029850Y025600D01*
X029750D01*
X029850D01*
X029950Y025500D01*
Y025400D01*
X029850Y025300D01*
X029650D01*
X029550Y025400D01*
X030150D02*
X030250Y025300D01*
X030450D01*
X030549Y025400D01*
Y025800D01*
X030450Y025900D01*
X030250D01*
X030150Y025800D01*
Y025700D01*
X030250Y025600D01*
X030549D01*
X033650Y025300D02*
Y025900D01*
X033950D01*
X034050Y025800D01*
Y025600D01*
X033950Y025500D01*
X033650D01*
X033850D02*
X034050Y025300D01*
X034550D02*
Y025900D01*
X034250Y025600D01*
X034650D01*
X034850Y025800D02*
X034950Y025900D01*
X035150D01*
X035249Y025800D01*
Y025400D01*
X035150Y025300D01*
X034950D01*
X034850Y025400D01*
Y025800D01*
X038450Y025280D02*
Y025880D01*
X038750D01*
X038850Y025780D01*
Y025580D01*
X038750Y025480D01*
X038450D01*
X038650D02*
X038850Y025280D01*
X039350D02*
Y025880D01*
X039050Y025580D01*
X039450D01*
X039650Y025280D02*
X039850D01*
X039750D01*
Y025880D01*
X039650Y025780D01*
X043200Y025280D02*
Y025880D01*
X043500D01*
X043600Y025780D01*
Y025580D01*
X043500Y025480D01*
X043200D01*
X043400D02*
X043600Y025280D01*
X044100D02*
Y025880D01*
X043800Y025580D01*
X044200D01*
X044799Y025280D02*
X044400D01*
X044799Y025680D01*
Y025780D01*
X044700Y025880D01*
X044500D01*
X044400Y025780D01*
X029076Y029300D02*
Y029900D01*
X029376D01*
X029476Y029800D01*
Y029600D01*
X029376Y029500D01*
X029076D01*
X029276D02*
X029476Y029300D01*
X029976D02*
Y029900D01*
X029676Y029600D01*
X030076D01*
X030276Y029800D02*
X030376Y029900D01*
X030576D01*
X030676Y029800D01*
Y029700D01*
X030576Y029600D01*
X030476D01*
X030576D01*
X030676Y029500D01*
Y029400D01*
X030576Y029300D01*
X030376D01*
X030276Y029400D01*
X033750Y029330D02*
Y029930D01*
X034050D01*
X034150Y029830D01*
Y029630D01*
X034050Y029530D01*
X033750D01*
X033950D02*
X034150Y029330D01*
X034650D02*
Y029930D01*
X034350Y029630D01*
X034750D01*
X035250Y029330D02*
Y029930D01*
X034950Y029630D01*
X035349D01*
X038450Y029330D02*
Y029930D01*
X038750D01*
X038850Y029830D01*
Y029630D01*
X038750Y029530D01*
X038450D01*
X038650D02*
X038850Y029330D01*
X039350D02*
Y029930D01*
X039050Y029630D01*
X039450D01*
X040049Y029930D02*
X039650D01*
Y029630D01*
X039850Y029730D01*
X039950D01*
X040049Y029630D01*
Y029430D01*
X039950Y029330D01*
X039750D01*
X039650Y029430D01*
X043223Y029344D02*
Y029944D01*
X043523D01*
X043623Y029844D01*
Y029644D01*
X043523Y029544D01*
X043223D01*
X043423D02*
X043623Y029344D01*
X044123D02*
Y029944D01*
X043823Y029644D01*
X044223D01*
X044822Y029944D02*
X044622Y029844D01*
X044422Y029644D01*
Y029444D01*
X044522Y029344D01*
X044722D01*
X044822Y029444D01*
Y029544D01*
X044722Y029644D01*
X044422D01*
X043223Y032594D02*
Y033194D01*
X043523D01*
X043623Y033094D01*
Y032894D01*
X043523Y032794D01*
X043223D01*
X043423D02*
X043623Y032594D01*
X044123D02*
Y033194D01*
X043823Y032894D01*
X044223D01*
X044422Y033194D02*
X044822D01*
Y033094D01*
X044422Y032694D01*
Y032594D01*
X038523D02*
Y033194D01*
X038823D01*
X038923Y033094D01*
Y032894D01*
X038823Y032794D01*
X038523D01*
X038723D02*
X038923Y032594D01*
X039423D02*
Y033194D01*
X039123Y032894D01*
X039523D01*
X039722Y033094D02*
X039822Y033194D01*
X040022D01*
X040122Y033094D01*
Y032994D01*
X040022Y032894D01*
X040122Y032794D01*
Y032694D01*
X040022Y032594D01*
X039822D01*
X039722Y032694D01*
Y032794D01*
X039822Y032894D01*
X039722Y032994D01*
Y033094D01*
X039822Y032894D02*
X040022D01*
X033823Y032594D02*
Y033194D01*
X034123D01*
X034223Y033094D01*
Y032894D01*
X034123Y032794D01*
X033823D01*
X034023D02*
X034223Y032594D01*
X034723D02*
Y033194D01*
X034423Y032894D01*
X034823D01*
X035022Y032694D02*
X035122Y032594D01*
X035322D01*
X035422Y032694D01*
Y033094D01*
X035322Y033194D01*
X035122D01*
X035022Y033094D01*
Y032994D01*
X035122Y032894D01*
X035422D01*
X048600Y013150D02*
Y013550D01*
X048800D01*
X048867Y013483D01*
Y013350D01*
X048800Y013283D01*
X048600D01*
X048733D02*
X048867Y013150D01*
X049266Y013550D02*
X049000D01*
Y013350D01*
X049133Y013417D01*
X049200D01*
X049266Y013350D01*
Y013217D01*
X049200Y013150D01*
X049067D01*
X049000Y013217D01*
X049400Y013483D02*
X049466Y013550D01*
X049600D01*
X049666Y013483D01*
Y013217D01*
X049600Y013150D01*
X049466D01*
X049400Y013217D01*
Y013483D01*
X048600Y010500D02*
Y010900D01*
X048800D01*
X048867Y010833D01*
Y010700D01*
X048800Y010633D01*
X048600D01*
X048733D02*
X048867Y010500D01*
X049266Y010900D02*
X049000D01*
Y010700D01*
X049133Y010767D01*
X049200D01*
X049266Y010700D01*
Y010567D01*
X049200Y010500D01*
X049067D01*
X049000Y010567D01*
X049400Y010500D02*
X049533D01*
X049466D01*
Y010900D01*
X049400Y010833D01*
X051850Y018200D02*
X051250D01*
Y018500D01*
X051350Y018600D01*
X051550D01*
X051650Y018500D01*
Y018200D01*
Y018400D02*
X051850Y018600D01*
X051250Y019200D02*
Y018800D01*
X051550D01*
X051450Y019000D01*
Y019100D01*
X051550Y019200D01*
X051750D01*
X051850Y019100D01*
Y018900D01*
X051750Y018800D01*
X051850Y019799D02*
Y019400D01*
X051450Y019799D01*
X051350D01*
X051250Y019700D01*
Y019500D01*
X051350Y019400D01*
X045250Y013000D02*
X044850D01*
Y013200D01*
X044917Y013267D01*
X045050D01*
X045117Y013200D01*
Y013000D01*
Y013133D02*
X045250Y013267D01*
X044850Y013666D02*
Y013400D01*
X045050D01*
X044983Y013533D01*
Y013600D01*
X045050Y013666D01*
X045183D01*
X045250Y013600D01*
Y013467D01*
X045183Y013400D01*
X044917Y013800D02*
X044850Y013866D01*
Y014000D01*
X044917Y014066D01*
X044983D01*
X045050Y014000D01*
Y013933D01*
Y014000D01*
X045117Y014066D01*
X045183D01*
X045250Y014000D01*
Y013866D01*
X045183Y013800D01*
X046900Y013250D02*
Y013650D01*
X047100D01*
X047167Y013583D01*
Y013450D01*
X047100Y013383D01*
X046900D01*
X047033D02*
X047167Y013250D01*
X047566Y013650D02*
X047300D01*
Y013450D01*
X047433Y013517D01*
X047500D01*
X047566Y013450D01*
Y013317D01*
X047500Y013250D01*
X047367D01*
X047300Y013317D01*
X047966Y013650D02*
X047833Y013583D01*
X047700Y013450D01*
Y013317D01*
X047766Y013250D01*
X047900D01*
X047966Y013317D01*
Y013383D01*
X047900Y013450D01*
X047700D01*
X018500Y027000D02*
X019000D01*
X019100Y027100D01*
Y027300D01*
X019000Y027400D01*
X018500D01*
X019100Y027600D02*
Y027800D01*
Y027700D01*
X018500D01*
X018600Y027600D01*
X035140Y022650D02*
Y022150D01*
X035240Y022050D01*
X035440D01*
X035540Y022150D01*
Y022650D01*
X036140Y022050D02*
X035740D01*
X036140Y022450D01*
Y022550D01*
X036040Y022650D01*
X035840D01*
X035740Y022550D01*
X019500Y021100D02*
X020000D01*
X020100Y021200D01*
Y021400D01*
X020000Y021500D01*
X019500D01*
X019600Y021700D02*
X019500Y021800D01*
Y022000D01*
X019600Y022100D01*
X019700D01*
X019800Y022000D01*
Y021900D01*
Y022000D01*
X019900Y022100D01*
X020000D01*
X020100Y022000D01*
Y021800D01*
X020000Y021700D01*
X066450Y031250D02*
Y030917D01*
X066517Y030850D01*
X066650D01*
X066717Y030917D01*
Y031250D01*
X067116D02*
X066850D01*
Y031050D01*
X066983Y031117D01*
X067050D01*
X067116Y031050D01*
Y030917D01*
X067050Y030850D01*
X066917D01*
X066850Y030917D01*
X046000Y017600D02*
Y017100D01*
X046100Y017000D01*
X046300D01*
X046400Y017100D01*
Y017600D01*
X047000D02*
X046800Y017500D01*
X046600Y017300D01*
Y017100D01*
X046700Y017000D01*
X046900D01*
X047000Y017100D01*
Y017200D01*
X046900Y017300D01*
X046600D01*
X046560Y021390D02*
Y020890D01*
X046660Y020790D01*
X046860D01*
X046960Y020890D01*
Y021390D01*
X047160D02*
X047560D01*
Y021290D01*
X047160Y020890D01*
Y020790D01*
X051400Y016700D02*
X051200D01*
X051300D01*
Y016200D01*
X051200Y016100D01*
X051100D01*
X051000Y016200D01*
X051600Y016100D02*
Y016700D01*
X051900D01*
X052000Y016600D01*
Y016400D01*
X051900Y016300D01*
X051600D01*
X052200Y016600D02*
X052300Y016700D01*
X052500D01*
X052599Y016600D01*
Y016500D01*
X052500Y016400D01*
X052400D01*
X052500D01*
X052599Y016300D01*
Y016200D01*
X052500Y016100D01*
X052300D01*
X052200Y016200D01*
X065367Y025617D02*
X065300Y025550D01*
Y025417D01*
X065367Y025350D01*
X065633D01*
X065700Y025417D01*
Y025550D01*
X065633Y025617D01*
X065700Y026016D02*
Y025750D01*
X065433Y026016D01*
X065367D01*
X065300Y025950D01*
Y025817D01*
X065367Y025750D01*
X065700Y026416D02*
Y026150D01*
X065433Y026416D01*
X065367D01*
X065300Y026350D01*
Y026216D01*
X065367Y026150D01*
X067067Y025617D02*
X067000Y025550D01*
Y025417D01*
X067067Y025350D01*
X067333D01*
X067400Y025417D01*
Y025550D01*
X067333Y025617D01*
X067400Y025950D02*
X067000D01*
X067200Y025750D01*
Y026016D01*
X067067Y026150D02*
X067000Y026216D01*
Y026350D01*
X067067Y026416D01*
X067133D01*
X067200Y026350D01*
Y026283D01*
Y026350D01*
X067267Y026416D01*
X067333D01*
X067400Y026350D01*
Y026216D01*
X067333Y026150D01*
X056700Y015150D02*
Y014550D01*
X057100D01*
X057300Y014850D02*
X057700D01*
X057950Y010450D02*
Y009850D01*
X058350D01*
X058550Y010150D02*
X058950D01*
X058750Y010350D02*
Y009950D01*
X050600Y032600D02*
Y032000D01*
X050900D01*
X051000Y032100D01*
Y032200D01*
X050900Y032300D01*
X050600D01*
X050900D01*
X051000Y032400D01*
Y032500D01*
X050900Y032600D01*
X050600D01*
X051200Y032300D02*
X051600D01*
X056750Y033350D02*
Y032750D01*
X057050D01*
X057150Y032850D01*
Y032950D01*
X057050Y033050D01*
X056750D01*
X057050D01*
X057150Y033150D01*
Y033250D01*
X057050Y033350D01*
X056750D01*
X057350Y033050D02*
X057750D01*
X057550Y033250D02*
Y032850D01*
D71*
X052756Y018307D02*
G03*
X052756Y018307I-000049J000000D01*
G01*
X028098Y013719D02*
G03*
X028098Y013719I-000049J000000D01*
G01*
X058226Y011839D02*
G03*
X058226Y011839I-000049J000000D01*
G01*
X063126D02*
G03*
X063126Y011839I-000049J000000D01*
G01*
X034599Y010802D02*
G03*
X034599Y010802I-000049J000000D01*
G01*
X040392Y017898D02*
G03*
X040392Y017898I-000049J000000D01*
G01*
X019667Y026571D02*
G03*
X019667Y026571I-000049J000000D01*
G01*
X067354Y030265D02*
G03*
X067354Y030265I-000049J000000D01*
G01*
X046701Y016502D02*
G03*
X046701Y016502I-000049J000000D01*
G01*
X061710Y018177D02*
G03*
X061710Y018177I-000049J000000D01*
G01*
X056615Y025264D02*
G03*
X056615Y025264I-000049J000000D01*
G01*
D72*
X046495Y018930D02*
G03*
X046495Y019170I000000J000120D01*
G01*
X048505Y018354D02*
Y019746D01*
X046495Y018354D02*
Y019746D01*
D73*
X052800Y012800D02*
G03*
X051810Y011900I-000045J-000945D01*
G01*
X053784D02*
G03*
X052800Y012800I-000942J-000042D01*
G01*
X028810Y028111D02*
Y028430D01*
X028570D02*
X028810D01*
X027699Y028111D02*
Y028430D01*
X027935D01*
X032449D02*
X032685D01*
X032449Y028111D02*
Y028430D01*
X033320D02*
X033560D01*
Y028111D02*
Y028430D01*
X041899Y024380D02*
X042135D01*
X041899Y024061D02*
Y024380D01*
X042770D02*
X043010D01*
Y024061D02*
Y024380D01*
X038260Y024061D02*
Y024380D01*
X038020D02*
X038260D01*
X037149Y024061D02*
Y024380D01*
X037385D01*
X031918Y030622D02*
Y032400D01*
X026406Y030622D02*
Y030818D01*
X027200Y030622D02*
Y030818D01*
X026406D02*
X027200D01*
X021682Y030622D02*
X026406D01*
X027200D02*
X031918D01*
X021682Y032400D02*
X031918D01*
X021682Y030622D02*
Y032400D01*
X026652Y010530D02*
Y013530D01*
X020350Y010530D02*
X026650D01*
X020350D02*
Y013530D01*
X026396D02*
X026652D01*
X020350D02*
X020610D01*
X026396Y012900D02*
Y013530D01*
X020610Y012900D02*
Y013530D01*
X051020Y015760D02*
X054572D01*
X051020Y010522D02*
X051810D01*
X053784D01*
X054572D01*
X051810D02*
Y011900D01*
X053784Y010522D02*
Y011900D01*
X051020Y010522D02*
Y011113D01*
Y012690D02*
Y013520D01*
Y015130D02*
Y015760D01*
X054572Y015090D02*
Y015760D01*
Y012690D02*
Y013520D01*
Y010522D02*
Y011113D01*
X019120Y017549D02*
Y017785D01*
Y017549D02*
X019439D01*
X019120Y018420D02*
Y018660D01*
X019439D01*
X028810Y024061D02*
Y024380D01*
X028570D02*
X028810D01*
X027699Y024061D02*
Y024380D01*
X027935D01*
X022999Y024280D02*
X023235D01*
X022999Y023961D02*
Y024280D01*
X023870D02*
X024110D01*
Y023961D02*
Y024280D01*
X032399Y024380D02*
X032635D01*
X032399Y024061D02*
Y024380D01*
X033270D02*
X033510D01*
Y024061D02*
Y024380D01*
X037222Y031694D02*
X037458D01*
X037222Y031375D02*
Y031694D01*
X038093D02*
X038333D01*
Y031375D02*
Y031694D01*
X043033Y031375D02*
Y031694D01*
X042793D02*
X043033D01*
X041922Y031375D02*
Y031694D01*
X042158D01*
X033633Y031375D02*
Y031694D01*
X033393D02*
X033633D01*
X032522Y031375D02*
Y031694D01*
X032758D01*
X020950Y018200D02*
Y019200D01*
X020450D02*
X020950D01*
X020450D02*
Y022200D01*
X034450D01*
Y015200D02*
Y022200D01*
X020450Y015200D02*
X034450D01*
X020450D02*
Y018200D01*
X020950D01*
X041922Y028444D02*
X042158D01*
X041922Y028125D02*
Y028444D01*
X042793D02*
X043033D01*
Y028125D02*
Y028444D01*
X038260Y028111D02*
Y028430D01*
X038020D02*
X038260D01*
X037149Y028111D02*
Y028430D01*
X037385D01*
D74*
X019883Y027496D02*
G03*
X019883Y027496I-000118J000000D01*
G01*
D75*
X053657Y017535D02*
Y018165D01*
X053043Y017535D02*
X053657D01*
X053043Y018165D02*
X053657D01*
X053043Y017535D02*
Y018165D01*
X028659Y011081D02*
Y013719D01*
X029841Y011081D02*
Y013719D01*
X028659D02*
X029841D01*
X028659Y011081D02*
X029841D01*
X029663Y027630D02*
X031237D01*
X029663Y028870D02*
X031237D01*
X066188Y025880D02*
Y025920D01*
X065912Y025880D02*
Y025920D01*
X066788Y025880D02*
Y025920D01*
X066512Y025880D02*
Y025920D01*
X048238Y012680D02*
Y012720D01*
X047962Y012680D02*
Y012720D01*
X049238Y012556D02*
Y012595D01*
X048962Y012556D02*
Y012595D01*
X047262Y012680D02*
Y012720D01*
X047538Y012680D02*
Y012720D01*
X045780Y013412D02*
X045820D01*
X045780Y013688D02*
X045820D01*
X062167Y012863D02*
Y013965D01*
X058033Y012863D02*
X062167D01*
X058033D02*
Y013965D01*
X067067Y012863D02*
Y013965D01*
X062933Y012863D02*
X067067D01*
X062933D02*
Y013965D01*
X020150Y030300D02*
Y032300D01*
Y030300D02*
X021150D01*
Y032300D01*
X020150D02*
X021150D01*
X034485Y030894D02*
X036060D01*
X034485Y032134D02*
X036060D01*
X039185Y030894D02*
X040760D01*
X039185Y032134D02*
X040760D01*
X018800Y030300D02*
Y032300D01*
Y030300D02*
X019800D01*
Y032300D01*
X018800D02*
X019800D01*
X043885Y030894D02*
X045460D01*
X043885Y032134D02*
X045460D01*
X043885Y027644D02*
X045460D01*
X043885Y028884D02*
X045460D01*
X039113Y027630D02*
X040687D01*
X039113Y028870D02*
X040687D01*
X034413Y027630D02*
X035987D01*
X034413Y028870D02*
X035987D01*
X043863Y023580D02*
X045437D01*
X043863Y024820D02*
X045437D01*
X039113Y023580D02*
X040687D01*
X039113Y024820D02*
X040687D01*
X019700Y010700D02*
Y012700D01*
X018700D02*
X019700D01*
X018700Y010700D02*
Y012700D01*
Y010700D02*
X019700D01*
X018700Y014100D02*
Y016100D01*
Y014100D02*
X019700D01*
Y016100D01*
X018700D02*
X019700D01*
X034038Y011964D02*
Y012489D01*
Y011964D02*
X035062D01*
Y012489D01*
X039063Y017603D02*
Y021697D01*
X038394D02*
X039063D01*
X038394Y017603D02*
X039063D01*
X066180Y031757D02*
X066220D01*
X066180Y031443D02*
X066220D01*
X046838Y012680D02*
Y012720D01*
X046562Y012680D02*
Y012720D01*
X048962Y011456D02*
Y011495D01*
X049238Y011456D02*
Y011495D01*
X019371Y027103D02*
X024529D01*
X019371Y028697D02*
X024529D01*
X019371Y027103D02*
Y028697D01*
X024529Y027103D02*
Y028697D01*
X024963Y023380D02*
X026537D01*
X024963Y024620D02*
X026537D01*
X029663Y023480D02*
X031237D01*
X029663Y024720D02*
X031237D01*
X034363Y023480D02*
X035937D01*
X034363Y024720D02*
X035937D01*
X065216Y028985D02*
Y029615D01*
X067184Y028985D02*
Y029615D01*
X065216Y028985D02*
X067184D01*
X065216Y029615D02*
X067184D01*
X050078Y018419D02*
Y019482D01*
X051022Y018419D02*
Y019482D01*
X046534Y016778D02*
X048266D01*
X046494Y014022D02*
X048266D01*
X059535Y022167D02*
X060637D01*
Y018033D02*
Y022167D01*
X059535Y018033D02*
X060637D01*
X057285Y025219D02*
X057747D01*
X057285Y022581D02*
Y025219D01*
Y022581D02*
X057747D01*
D76*
X046611Y018341D02*
X046944Y018675D01*
Y018341D02*
X046611Y018675D01*
X046778Y018341D02*
Y018675D01*
X046944Y018508D02*
X046611D01*
D77*
X034550Y012117D02*
D03*
M02*
