G04 Layer_Color=8421504*
%FSAX24Y24*%
%MOIN*%
G70*
G01*
G75*
%ADD10R,0.0320X0.0360*%
%ADD11R,0.0315X0.0906*%
%ADD12R,0.6750X0.1500*%
%ADD13R,0.0358X0.0480*%
%ADD14R,0.0630X0.0472*%
%ADD15R,0.0945X0.1024*%
%ADD16R,0.0984X0.0394*%
%ADD17R,0.0984X0.1299*%
%ADD18R,0.0492X0.1319*%
%ADD19R,0.0354X0.0276*%
%ADD20R,0.0276X0.0354*%
%ADD21R,0.4173X0.3465*%
%ADD22R,0.0413X0.1634*%
%ADD23R,0.0787X0.0787*%
%ADD24R,0.3150X0.4094*%
%ADD25R,0.1142X0.0394*%
%ADD26R,0.0354X0.0394*%
%ADD27R,0.0140X0.0580*%
G04:AMPARAMS|DCode=28|XSize=187mil|YSize=551.2mil|CornerRadius=93.5mil|HoleSize=0mil|Usage=FLASHONLY|Rotation=0.000|XOffset=0mil|YOffset=0mil|HoleType=Round|Shape=RoundedRectangle|*
%AMROUNDEDRECTD28*
21,1,0.1870,0.3642,0,0,0.0*
21,1,0.0000,0.5512,0,0,0.0*
1,1,0.1870,0.0000,-0.1821*
1,1,0.1870,0.0000,-0.1821*
1,1,0.1870,0.0000,0.1821*
1,1,0.1870,0.0000,0.1821*
%
%ADD28ROUNDEDRECTD28*%
%ADD29R,0.3340X0.2050*%
%ADD30R,0.0394X0.1260*%
%ADD31R,0.0950X0.1110*%
%ADD32R,0.0360X0.0320*%
%ADD33O,0.0098X0.0748*%
%ADD34O,0.0276X0.0984*%
%ADD35R,0.1024X0.0413*%
%ADD36R,0.0413X0.0177*%
%ADD37R,0.1079X0.2390*%
%ADD38R,0.1260X0.0394*%
%ADD39R,0.3465X0.4173*%
%ADD40R,0.1634X0.0413*%
%ADD41R,0.1122X0.0492*%
%ADD42R,0.2480X0.2185*%
%ADD46R,0.0630X0.0650*%
%ADD47R,0.1100X0.3600*%
%ADD49R,0.1200X0.2350*%
%ADD78R,0.0650X0.0370*%
%ADD79R,0.0380X0.0650*%
%ADD80R,0.0375X0.0651*%
%ADD81R,0.0380X0.0651*%
G36*
X040915Y016096D02*
X041011Y016056D01*
X041093Y015993D01*
X041156Y015911D01*
X041196Y015815D01*
X041206Y015738D01*
Y015712D01*
Y010988D01*
Y010962D01*
X041196Y010885D01*
X041156Y010789D01*
X041093Y010707D01*
X041011Y010644D01*
X040915Y010604D01*
X040838Y010594D01*
X039336D01*
Y016106D01*
X040838D01*
X040915Y016096D01*
D02*
G37*
G36*
X037564Y010594D02*
X036062D01*
X035985Y010604D01*
X035889Y010644D01*
X035807Y010707D01*
X035744Y010789D01*
X035704Y010885D01*
X035694Y010962D01*
Y010988D01*
Y015712D01*
Y015738D01*
X035704Y015815D01*
X035744Y015911D01*
X035807Y015993D01*
X035889Y016056D01*
X035985Y016096D01*
X036062Y016106D01*
X037564D01*
Y010594D01*
D02*
G37*
G36*
X057800Y013150D02*
X057800Y010500D01*
X057550Y010250D01*
X054850Y010250D01*
X054450Y010650D01*
Y014950D01*
X056000D01*
X057800Y013150D01*
D02*
G37*
G36*
X067250Y010650D02*
X066800Y010200D01*
X059350Y010200D01*
X058900Y010650D01*
X058900Y012700D01*
X063200D01*
Y010950D01*
X063800D01*
X063800Y012700D01*
X067250Y012700D01*
X067250Y010650D01*
D02*
G37*
G36*
X064700Y032500D02*
X064700Y030150D01*
X058426Y030150D01*
X058311Y030243D01*
X058008Y030566D01*
X057828Y030819D01*
X057678Y031091D01*
X057559Y031377D01*
X057460Y031743D01*
X057441Y031868D01*
X058179Y032900D01*
X064300Y032900D01*
X064700Y032500D01*
D02*
G37*
G36*
X056800Y032300D02*
X056800Y030150D01*
X053350D01*
X051900Y031600D01*
X051900Y032900D01*
X056200D01*
X056800Y032300D01*
D02*
G37*
G36*
X062550Y018900D02*
X060850D01*
Y022200D01*
X062550D01*
Y018900D01*
D02*
G37*
D10*
X028250Y028590D02*
D03*
X028630Y027756D02*
D03*
X027876D02*
D03*
X032626D02*
D03*
X033380D02*
D03*
X033000Y028590D02*
D03*
X042076Y023706D02*
D03*
X042830D02*
D03*
X042450Y024540D02*
D03*
X037700D02*
D03*
X038080Y023706D02*
D03*
X037326D02*
D03*
X028250Y024540D02*
D03*
X028630Y023706D02*
D03*
X027876D02*
D03*
X023176Y023606D02*
D03*
X023930D02*
D03*
X023550Y024440D02*
D03*
X032576Y023706D02*
D03*
X033330D02*
D03*
X032950Y024540D02*
D03*
X037399Y031020D02*
D03*
X038153D02*
D03*
X037773Y031854D02*
D03*
X042473D02*
D03*
X042853Y031020D02*
D03*
X042099D02*
D03*
X033073Y031854D02*
D03*
X033453Y031020D02*
D03*
X032699D02*
D03*
X042099Y027770D02*
D03*
X042853D02*
D03*
X042473Y028604D02*
D03*
X037700Y028590D02*
D03*
X038080Y027756D02*
D03*
X037326D02*
D03*
D11*
X043300Y010425D02*
D03*
Y012275D02*
D03*
Y014200D02*
D03*
Y016050D02*
D03*
D12*
X050250Y022600D02*
D03*
Y029000D02*
D03*
D13*
X053994Y017850D02*
D03*
X052706D02*
D03*
D14*
X020809Y024350D02*
D03*
X019391D02*
D03*
D15*
X032453Y013311D02*
D03*
Y010791D02*
D03*
D16*
X028049Y013306D02*
D03*
Y012400D02*
D03*
Y011494D02*
D03*
D17*
X030451Y012400D02*
D03*
D18*
X031631Y028250D02*
D03*
X029269D02*
D03*
X036454Y031514D02*
D03*
X034092D02*
D03*
X041154D02*
D03*
X038792D02*
D03*
X045854D02*
D03*
X043492D02*
D03*
X045854Y028264D02*
D03*
X043492D02*
D03*
X041081Y028250D02*
D03*
X038719D02*
D03*
X036381D02*
D03*
X034019D02*
D03*
X045831Y024200D02*
D03*
X043469D02*
D03*
X041081D02*
D03*
X038719D02*
D03*
X026931Y024000D02*
D03*
X024569D02*
D03*
X031631Y024100D02*
D03*
X029269D02*
D03*
X036331D02*
D03*
X033969D02*
D03*
D19*
X066050Y026176D02*
D03*
Y025624D02*
D03*
X066650Y026176D02*
D03*
Y025624D02*
D03*
X048100Y012976D02*
D03*
Y012424D02*
D03*
X049100Y012300D02*
D03*
Y012851D02*
D03*
X047400Y012976D02*
D03*
Y012424D02*
D03*
X046700Y012976D02*
D03*
Y012424D02*
D03*
X049100Y011751D02*
D03*
Y011200D02*
D03*
D20*
X045524Y013550D02*
D03*
X046076D02*
D03*
D21*
X060100Y015855D02*
D03*
X065000D02*
D03*
D22*
X061600Y011839D02*
D03*
X061100D02*
D03*
X060600D02*
D03*
X059600D02*
D03*
X059100D02*
D03*
X058600D02*
D03*
X066500D02*
D03*
X066000D02*
D03*
X065500D02*
D03*
X064500D02*
D03*
X064000D02*
D03*
X063500D02*
D03*
D23*
X034550Y012987D02*
D03*
Y011413D02*
D03*
D24*
X036661Y019650D02*
D03*
D25*
X040343Y020989D02*
D03*
Y020319D02*
D03*
Y019650D02*
D03*
Y018981D02*
D03*
Y018311D02*
D03*
D26*
X065885Y031600D02*
D03*
X066515D02*
D03*
D27*
X046604Y017940D02*
D03*
X046860D02*
D03*
X047116D02*
D03*
X047372D02*
D03*
X047628D02*
D03*
X047884D02*
D03*
X048140D02*
D03*
X048396D02*
D03*
Y020160D02*
D03*
X048140D02*
D03*
X047884D02*
D03*
X047628D02*
D03*
X047372D02*
D03*
X047116D02*
D03*
X046860D02*
D03*
X046604D02*
D03*
D28*
X036629Y013350D02*
D03*
X040271D02*
D03*
D29*
X062650Y031575D02*
D03*
Y027325D02*
D03*
D30*
X043450Y018415D02*
D03*
Y021485D02*
D03*
D31*
X050550Y011900D02*
D03*
X055044D02*
D03*
X050550Y014310D02*
D03*
X055044D02*
D03*
D32*
X019794Y017726D02*
D03*
Y018480D02*
D03*
X018960Y018100D02*
D03*
D33*
X019883Y026571D02*
D03*
X020080D02*
D03*
X020277D02*
D03*
X020474D02*
D03*
X020670D02*
D03*
X020867D02*
D03*
X021064D02*
D03*
X021261D02*
D03*
X021458D02*
D03*
X021655D02*
D03*
X021852D02*
D03*
X022048D02*
D03*
X022245D02*
D03*
X022442D02*
D03*
X022639D02*
D03*
X022836D02*
D03*
X023033D02*
D03*
X023230D02*
D03*
X023426D02*
D03*
X023623D02*
D03*
X023820D02*
D03*
X024017D02*
D03*
X019883Y029229D02*
D03*
X020080D02*
D03*
X020277D02*
D03*
X020474D02*
D03*
X020670D02*
D03*
X020867D02*
D03*
X021064D02*
D03*
X021261D02*
D03*
X021458D02*
D03*
X021655D02*
D03*
X021852D02*
D03*
X022048D02*
D03*
X022245D02*
D03*
X022442D02*
D03*
X022639D02*
D03*
X022836D02*
D03*
X023033D02*
D03*
X023230D02*
D03*
X023426D02*
D03*
X023623D02*
D03*
X023820D02*
D03*
X024017D02*
D03*
D34*
X065450Y028335D02*
D03*
X065950D02*
D03*
X066450D02*
D03*
X066950D02*
D03*
X065450Y030265D02*
D03*
X065950D02*
D03*
X066450D02*
D03*
X066950D02*
D03*
D35*
X050550Y018064D02*
D03*
Y019836D02*
D03*
D36*
X046239Y016552D02*
D03*
Y016296D02*
D03*
Y016040D02*
D03*
Y015784D02*
D03*
Y015528D02*
D03*
Y015272D02*
D03*
Y015016D02*
D03*
Y014760D02*
D03*
Y014504D02*
D03*
Y014248D02*
D03*
X048561Y016552D02*
D03*
Y016296D02*
D03*
Y016040D02*
D03*
Y015784D02*
D03*
Y015528D02*
D03*
Y015272D02*
D03*
Y015016D02*
D03*
Y014760D02*
D03*
Y014504D02*
D03*
Y014248D02*
D03*
D37*
X047400Y015400D02*
D03*
D38*
X059685Y027550D02*
D03*
X056615D02*
D03*
D39*
X057645Y020100D02*
D03*
D40*
X061661Y021600D02*
D03*
Y021100D02*
D03*
Y020600D02*
D03*
Y019600D02*
D03*
Y019100D02*
D03*
Y018600D02*
D03*
D41*
X056566Y024802D02*
D03*
Y022998D02*
D03*
D42*
X059145Y023900D02*
D03*
D46*
X020809Y024350D02*
D03*
X019391D02*
D03*
D47*
X050550Y013100D02*
D03*
D49*
X056550Y023875D02*
D03*
D78*
X050565Y015035D02*
D03*
D79*
X049915Y011900D02*
D03*
D80*
X055698Y011863D02*
D03*
D81*
X055697Y014360D02*
D03*
M02*
