G04 Layer_Color=16711935*
%FSAX24Y24*%
%MOIN*%
G70*
G01*
G75*
%ADD85R,0.0438X0.0560*%
%ADD91R,0.0434X0.0356*%
%ADD92R,0.0356X0.0434*%
%ADD98R,0.0434X0.0474*%
%ADD104R,0.0440X0.0400*%
%ADD118C,0.0710*%
%ADD119C,0.0671*%
%ADD120R,0.0671X0.0671*%
%ADD121C,0.0880*%
%ADD122C,0.0650*%
%ADD123C,0.0280*%
%ADD124C,0.0360*%
%ADD125R,0.0474X0.0434*%
%ADD126R,0.0328X0.0407*%
%ADD127O,0.0867X0.0316*%
%ADD128R,0.0513X0.0513*%
%ADD129R,0.0454X0.0612*%
%ADD130R,0.0612X0.0454*%
%ADD131R,0.0454X0.0749*%
%ADD132R,0.0612X0.2167*%
%ADD133R,0.1360X0.0493*%
%ADD134R,0.0316X0.0395*%
%ADD135R,0.0300X0.0550*%
D85*
X020256Y024350D02*
D03*
X021544D02*
D03*
D91*
X045700Y015624D02*
D03*
Y016176D02*
D03*
X048100Y014724D02*
D03*
Y015276D02*
D03*
X043900Y014112D02*
D03*
Y014663D02*
D03*
X049100Y012024D02*
D03*
Y012576D02*
D03*
Y013224D02*
D03*
Y013776D02*
D03*
X033100Y016424D02*
D03*
Y016976D02*
D03*
X019300Y023376D02*
D03*
Y022824D02*
D03*
Y024576D02*
D03*
Y024024D02*
D03*
X023250Y027274D02*
D03*
Y027826D02*
D03*
X022500Y027826D02*
D03*
Y027274D02*
D03*
X021800Y027826D02*
D03*
Y027274D02*
D03*
X021100Y027826D02*
D03*
Y027274D02*
D03*
X020400Y027826D02*
D03*
Y027274D02*
D03*
X019700Y027826D02*
D03*
Y027274D02*
D03*
X019000Y027850D02*
D03*
Y027299D02*
D03*
D92*
X047224Y013900D02*
D03*
X047776D02*
D03*
X046772Y017900D02*
D03*
X046221D02*
D03*
X047224Y013300D02*
D03*
X047776D02*
D03*
X025424Y020900D02*
D03*
X025976D02*
D03*
D98*
X029765Y027850D02*
D03*
X029135D02*
D03*
X039215D02*
D03*
X038585D02*
D03*
X043988Y027864D02*
D03*
X043358D02*
D03*
X029735Y013700D02*
D03*
X030365D02*
D03*
X043988Y031114D02*
D03*
X043358D02*
D03*
X039288D02*
D03*
X038658D02*
D03*
X034588D02*
D03*
X033958D02*
D03*
X025065Y023600D02*
D03*
X024435D02*
D03*
X029765Y023700D02*
D03*
X029135D02*
D03*
X043965Y023800D02*
D03*
X043335D02*
D03*
X034515Y027850D02*
D03*
X033885D02*
D03*
X034465Y023700D02*
D03*
X033835D02*
D03*
X039215Y023800D02*
D03*
X038585D02*
D03*
D104*
X066944Y016474D02*
D03*
Y015720D02*
D03*
X066110Y016100D02*
D03*
D118*
X031131Y031300D02*
D03*
X027194D02*
D03*
X027981D02*
D03*
X028768D02*
D03*
X029558D02*
D03*
X030348D02*
D03*
X025624D02*
D03*
X024834D02*
D03*
X024044D02*
D03*
X023257D02*
D03*
X022469D02*
D03*
X026406D02*
D03*
X021140Y012900D02*
D03*
X021928D02*
D03*
X025865D02*
D03*
X025077D02*
D03*
X024290D02*
D03*
X023500D02*
D03*
X022710D02*
D03*
D119*
X020650Y031800D02*
D03*
X019300D02*
D03*
X019200Y011200D02*
D03*
Y015600D02*
D03*
D120*
X020650Y030800D02*
D03*
X019300D02*
D03*
X019200Y012200D02*
D03*
Y014600D02*
D03*
D121*
X052800Y011900D02*
D03*
Y013700D02*
D03*
D122*
X020950Y015700D02*
D03*
X021950D02*
D03*
X022950D02*
D03*
X023950D02*
D03*
X024950D02*
D03*
X025950D02*
D03*
X026950D02*
D03*
X027950D02*
D03*
X028950D02*
D03*
X029950D02*
D03*
X030950D02*
D03*
X031950D02*
D03*
X032950D02*
D03*
X033950D02*
D03*
Y016700D02*
D03*
Y017700D02*
D03*
Y018700D02*
D03*
Y019700D02*
D03*
Y020700D02*
D03*
Y021700D02*
D03*
X032950D02*
D03*
X031950D02*
D03*
X030950D02*
D03*
X029950D02*
D03*
X028950D02*
D03*
X027950D02*
D03*
X026950D02*
D03*
X025950D02*
D03*
X024950D02*
D03*
X023950D02*
D03*
X022950D02*
D03*
X021950D02*
D03*
X020950D02*
D03*
D123*
X020400Y028050D02*
D03*
X022400Y024200D02*
D03*
X022850Y024550D02*
D03*
X028650Y028950D02*
D03*
X028850Y027350D02*
D03*
X042544Y027199D02*
D03*
X026950Y027450D02*
D03*
X031450Y027200D02*
D03*
X032150Y027150D02*
D03*
X027800Y027250D02*
D03*
X033100Y027150D02*
D03*
X033600Y027300D02*
D03*
X032550Y028250D02*
D03*
X021638Y023845D02*
D03*
X033600Y013150D02*
D03*
X029200Y012800D02*
D03*
X027250Y012700D02*
D03*
X033450Y010750D02*
D03*
X037250Y028250D02*
D03*
Y024200D02*
D03*
X042023Y028264D02*
D03*
X043000Y023300D02*
D03*
X038300D02*
D03*
X043023Y027364D02*
D03*
X038323Y030664D02*
D03*
X033623Y030614D02*
D03*
X038300Y027300D02*
D03*
X024100Y023150D02*
D03*
X023600Y023100D02*
D03*
X028900Y023150D02*
D03*
X036550Y025050D02*
D03*
X036903Y024531D02*
D03*
X041200Y025150D02*
D03*
X028814Y024931D02*
D03*
X042100Y024100D02*
D03*
X041650Y024450D02*
D03*
X041500Y027250D02*
D03*
X037700Y027050D02*
D03*
X036850Y026950D02*
D03*
X027446Y024412D02*
D03*
X027900Y024150D02*
D03*
X027807Y024729D02*
D03*
X045500Y029200D02*
D03*
X044773Y030556D02*
D03*
X042500Y030500D02*
D03*
X039300Y029750D02*
D03*
X037650Y030250D02*
D03*
X019950Y025200D02*
D03*
X020700Y030050D02*
D03*
X019000Y028050D02*
D03*
X019750D02*
D03*
X021601Y030400D02*
D03*
X023750Y028550D02*
D03*
X022500Y028050D02*
D03*
X021100D02*
D03*
X021750D02*
D03*
X019100Y029650D02*
D03*
X020119Y029918D02*
D03*
X020100Y023600D02*
D03*
X023150Y030300D02*
D03*
X022049Y029899D02*
D03*
X022500Y030350D02*
D03*
X026900Y024000D02*
D03*
X033500Y023250D02*
D03*
X032500Y024200D02*
D03*
X032200Y024600D02*
D03*
X031300Y024900D02*
D03*
X035800Y025200D02*
D03*
X040550Y025250D02*
D03*
X027550Y028200D02*
D03*
X027821Y028700D02*
D03*
X031450Y028750D02*
D03*
X036100D02*
D03*
X040750Y028900D02*
D03*
X033050Y030550D02*
D03*
X034400Y030300D02*
D03*
X032269Y031450D02*
D03*
X037000Y031419D02*
D03*
X043023Y030614D02*
D03*
X041900Y032300D02*
D03*
X041700Y031600D02*
D03*
X056350Y027050D02*
D03*
X056900D02*
D03*
Y026500D02*
D03*
X056350D02*
D03*
X045700Y015350D02*
D03*
X045450Y014450D02*
D03*
X048350Y011350D02*
D03*
X046150Y012450D02*
D03*
X066900Y027200D02*
D03*
X066350Y027100D02*
D03*
X065850Y026900D02*
D03*
X045350Y025150D02*
D03*
X022900Y024050D02*
D03*
X046500Y013850D02*
D03*
X049174Y015326D02*
D03*
X048800Y016950D02*
D03*
X063500Y011850D02*
D03*
X048200Y013850D02*
D03*
X049300Y014600D02*
D03*
X049700Y015800D02*
D03*
Y016300D02*
D03*
X049150Y016200D02*
D03*
X019300Y025100D02*
D03*
X018960Y018560D02*
D03*
X058600Y011850D02*
D03*
D124*
X050550Y031250D02*
D03*
X027400Y032750D02*
D03*
X033050Y019950D02*
D03*
X019300Y020200D02*
D03*
X044450Y021450D02*
D03*
X042100Y011450D02*
D03*
X026541Y013100D02*
D03*
X030361Y012714D02*
D03*
X041800Y012600D02*
D03*
X055250Y017800D02*
D03*
X064850Y018950D02*
D03*
X065750Y018050D02*
D03*
X049436Y031736D02*
D03*
Y031200D02*
D03*
X049900Y020750D02*
D03*
X041850Y013850D02*
D03*
X038100Y016950D02*
D03*
X030150Y017800D02*
D03*
X049436Y030648D02*
D03*
X047050Y011300D02*
D03*
X053700Y016200D02*
D03*
X052050Y020000D02*
D03*
X049000Y019100D02*
D03*
X046100Y020200D02*
D03*
X044000Y022200D02*
D03*
X056500Y015750D02*
D03*
X051750Y017350D02*
D03*
X050650Y017400D02*
D03*
X065300Y018500D02*
D03*
X066750Y010950D02*
D03*
X066150D02*
D03*
X066750Y011550D02*
D03*
X066150D02*
D03*
X020100Y015100D02*
D03*
X024850Y019650D02*
D03*
X042500Y025900D02*
D03*
X042050Y020450D02*
D03*
X026300Y028550D02*
D03*
X047400Y014600D02*
D03*
X045550Y026850D02*
D03*
X031350Y030450D02*
D03*
X036350Y031150D02*
D03*
X062550Y013400D02*
D03*
X061650Y018550D02*
D03*
X026950Y011300D02*
D03*
X025100Y017300D02*
D03*
X021450Y018450D02*
D03*
X029250Y011950D02*
D03*
X027800Y014100D02*
D03*
X029900Y016650D02*
D03*
X045750Y022550D02*
D03*
X044800Y022350D02*
D03*
X045250Y021450D02*
D03*
X031600Y022950D02*
D03*
X031800Y020150D02*
D03*
X044950Y010900D02*
D03*
X066700Y024650D02*
D03*
X028050Y010250D02*
D03*
X041000Y016700D02*
D03*
D125*
X033273Y031099D02*
D03*
Y031729D02*
D03*
X028450Y027835D02*
D03*
Y028465D02*
D03*
X033200Y027835D02*
D03*
Y028465D02*
D03*
X037900Y027835D02*
D03*
Y028465D02*
D03*
X042673Y027849D02*
D03*
Y028479D02*
D03*
X021000Y020515D02*
D03*
Y019885D02*
D03*
X042673Y031099D02*
D03*
Y031729D02*
D03*
X037973Y031099D02*
D03*
Y031729D02*
D03*
X021800Y020515D02*
D03*
Y019885D02*
D03*
X023400Y020515D02*
D03*
Y019885D02*
D03*
X022600Y020515D02*
D03*
Y019885D02*
D03*
X042650Y023785D02*
D03*
Y024415D02*
D03*
X023750Y023585D02*
D03*
Y024215D02*
D03*
X028450Y023685D02*
D03*
Y024315D02*
D03*
X033150Y023685D02*
D03*
Y024315D02*
D03*
X037900Y023785D02*
D03*
Y024415D02*
D03*
X023250Y029165D02*
D03*
Y028535D02*
D03*
X022550Y029165D02*
D03*
Y028535D02*
D03*
X021700Y029150D02*
D03*
Y028520D02*
D03*
X020900Y029150D02*
D03*
Y028520D02*
D03*
X020050Y029150D02*
D03*
Y028520D02*
D03*
X019250Y029150D02*
D03*
Y028520D02*
D03*
D126*
X031161Y020900D02*
D03*
X032039D02*
D03*
X034639Y028450D02*
D03*
X033761D02*
D03*
X039339D02*
D03*
X038461D02*
D03*
X044112Y028464D02*
D03*
X043234D02*
D03*
X044112Y031714D02*
D03*
X043234D02*
D03*
X039412D02*
D03*
X038534D02*
D03*
X034712D02*
D03*
X033834D02*
D03*
X025189Y024200D02*
D03*
X024311D02*
D03*
X044089Y024400D02*
D03*
X043211D02*
D03*
X029889Y028450D02*
D03*
X029011D02*
D03*
X029889Y024300D02*
D03*
X029011D02*
D03*
X034589D02*
D03*
X033711D02*
D03*
X039339Y024400D02*
D03*
X038461D02*
D03*
D127*
X040472Y015800D02*
D03*
Y015300D02*
D03*
Y014800D02*
D03*
Y014300D02*
D03*
Y013800D02*
D03*
Y013300D02*
D03*
Y012800D02*
D03*
Y012300D02*
D03*
Y011800D02*
D03*
Y011300D02*
D03*
X036928Y015800D02*
D03*
Y015300D02*
D03*
Y014800D02*
D03*
Y014300D02*
D03*
Y013800D02*
D03*
Y013300D02*
D03*
Y012800D02*
D03*
Y012300D02*
D03*
Y011800D02*
D03*
Y011300D02*
D03*
D128*
X040000Y027796D02*
D03*
Y028504D02*
D03*
X044773Y027910D02*
D03*
Y028619D02*
D03*
Y031060D02*
D03*
Y031769D02*
D03*
X040073Y031060D02*
D03*
Y031769D02*
D03*
X035373Y031060D02*
D03*
Y031769D02*
D03*
X025850Y023546D02*
D03*
Y024254D02*
D03*
X030550Y023646D02*
D03*
Y024354D02*
D03*
X044750Y023746D02*
D03*
Y024454D02*
D03*
X030550Y027796D02*
D03*
Y028504D02*
D03*
X035300Y027796D02*
D03*
Y028504D02*
D03*
X035250Y023646D02*
D03*
Y024354D02*
D03*
X040000Y023746D02*
D03*
Y024454D02*
D03*
D129*
X046837Y018750D02*
D03*
X046207D02*
D03*
D130*
X044900Y014023D02*
D03*
Y014653D02*
D03*
D131*
X051249Y018150D02*
D03*
X052351D02*
D03*
D132*
X054606Y026850D02*
D03*
X056594D02*
D03*
X054606Y024250D02*
D03*
X056594D02*
D03*
X054606Y021650D02*
D03*
X056594D02*
D03*
X054606Y019150D02*
D03*
X056594D02*
D03*
D133*
X066450Y014742D02*
D03*
Y012458D02*
D03*
D134*
X046700Y014608D02*
D03*
Y015592D02*
D03*
D135*
X050750Y025805D02*
D03*
X050250D02*
D03*
X049750D02*
D03*
X049250D02*
D03*
X050750Y027795D02*
D03*
X050250D02*
D03*
X049750D02*
D03*
X049250D02*
D03*
X053350Y025805D02*
D03*
X052850D02*
D03*
X052350D02*
D03*
X051850D02*
D03*
X053350Y027795D02*
D03*
X052850D02*
D03*
X052350D02*
D03*
X051850D02*
D03*
M02*
