G04 Layer_Physical_Order=1*
G04 Layer_Color=255*
%FSAX25Y25*%
%MOIN*%
G70*
G01*
G75*
%ADD10R,0.01772X0.03347*%
%ADD11R,0.04724X0.06299*%
%ADD12R,0.03937X0.12598*%
%ADD13R,0.03600X0.03200*%
%ADD14R,0.03740X0.09843*%
%ADD15R,0.03740X0.10236*%
G04:AMPARAMS|DCode=16|XSize=82.68mil|YSize=228.35mil|CornerRadius=41.34mil|HoleSize=0mil|Usage=FLASHONLY|Rotation=270.000|XOffset=0mil|YOffset=0mil|HoleType=Round|Shape=RoundedRectangle|*
%AMROUNDEDRECTD16*
21,1,0.08268,0.14567,0,0,270.0*
21,1,0.00000,0.22835,0,0,270.0*
1,1,0.08268,-0.07284,0.00000*
1,1,0.08268,-0.07284,0.00000*
1,1,0.08268,0.07284,0.00000*
1,1,0.08268,0.07284,0.00000*
%
%ADD16ROUNDEDRECTD16*%
%ADD17R,0.04331X0.04803*%
%ADD18R,0.01969X0.02047*%
%ADD19R,0.01772X0.02165*%
%ADD20R,0.02165X0.01772*%
%ADD21R,0.03740X0.06693*%
%ADD22R,0.02047X0.01969*%
%ADD23R,0.02756X0.03150*%
%ADD24R,0.09843X0.03740*%
%ADD25R,0.10236X0.03740*%
%ADD26R,0.03200X0.03600*%
%ADD27R,0.03543X0.03937*%
%ADD28R,0.22047X0.09606*%
%ADD29R,0.03504X0.09606*%
%ADD30R,0.04803X0.03583*%
%ADD31O,0.00984X0.07480*%
%ADD32O,0.01772X0.06299*%
%ADD33R,0.02756X0.01181*%
%ADD34R,0.03150X0.08189*%
%ADD35R,0.12300X0.13780*%
%ADD36O,0.07874X0.01772*%
%ADD37R,0.02480X0.03268*%
%ADD38R,0.07500X0.07500*%
%ADD39R,0.07100X0.07500*%
%ADD40R,0.01400X0.05600*%
%ADD41R,0.03150X0.02756*%
%ADD42R,0.09055X0.09055*%
%ADD43R,0.02756X0.05118*%
%ADD44R,0.06693X0.03543*%
%ADD45R,0.02205X0.04701*%
%ADD46C,0.01000*%
%ADD47C,0.02000*%
%ADD48R,0.06496X0.06299*%
%ADD49C,0.07480*%
%ADD50C,0.06300*%
%ADD51C,0.12205*%
%ADD52C,0.02000*%
G36*
X0581070Y0593207D02*
X0581434Y0592964D01*
X0581863Y0592878D01*
X0581863Y0592878D01*
X0590010D01*
X0601209Y0581679D01*
Y0577787D01*
X0601217Y0577747D01*
Y0574539D01*
X0601302Y0574113D01*
X0601543Y0573752D01*
X0601905Y0573511D01*
X0602331Y0573426D01*
X0602757Y0573511D01*
X0602975Y0573656D01*
X0603315Y0573717D01*
X0603655Y0573656D01*
X0603873Y0573511D01*
X0604299Y0573426D01*
X0604725Y0573511D01*
X0604943Y0573656D01*
X0605283Y0573717D01*
X0605624Y0573656D01*
X0605842Y0573511D01*
X0606268Y0573426D01*
X0606694Y0573511D01*
X0606912Y0573656D01*
X0607252Y0573717D01*
X0607592Y0573656D01*
X0607810Y0573511D01*
X0608236Y0573426D01*
X0608662Y0573511D01*
X0608880Y0573656D01*
X0609221Y0573717D01*
X0609561Y0573656D01*
X0609779Y0573511D01*
X0610205Y0573426D01*
X0610631Y0573511D01*
X0610849Y0573656D01*
X0611189Y0573717D01*
X0611529Y0573656D01*
X0611747Y0573511D01*
X0612173Y0573426D01*
X0612599Y0573511D01*
X0612817Y0573656D01*
X0613158Y0573717D01*
X0613498Y0573656D01*
X0613716Y0573511D01*
X0614142Y0573426D01*
X0614568Y0573511D01*
X0614786Y0573656D01*
X0615126Y0573717D01*
X0615466Y0573656D01*
X0615684Y0573511D01*
X0616110Y0573426D01*
X0616536Y0573511D01*
X0616754Y0573656D01*
X0617095Y0573717D01*
X0617435Y0573656D01*
X0617653Y0573511D01*
X0618079Y0573426D01*
X0618505Y0573511D01*
X0618723Y0573656D01*
X0619063Y0573717D01*
X0619403Y0573656D01*
X0619621Y0573511D01*
X0620047Y0573426D01*
X0620473Y0573511D01*
X0620691Y0573656D01*
X0621032Y0573717D01*
X0621372Y0573656D01*
X0621590Y0573511D01*
X0622016Y0573426D01*
X0622442Y0573511D01*
X0622660Y0573656D01*
X0623000Y0573717D01*
X0623340Y0573656D01*
X0623558Y0573511D01*
X0623984Y0573426D01*
X0624410Y0573511D01*
X0624628Y0573656D01*
X0624968Y0573717D01*
X0625309Y0573656D01*
X0625527Y0573511D01*
X0625953Y0573426D01*
X0626379Y0573511D01*
X0626597Y0573656D01*
X0626937Y0573717D01*
X0627277Y0573656D01*
X0627495Y0573511D01*
X0627921Y0573426D01*
X0628347Y0573511D01*
X0628565Y0573656D01*
X0628905Y0573717D01*
X0629246Y0573656D01*
X0629464Y0573511D01*
X0629890Y0573426D01*
X0630316Y0573511D01*
X0630534Y0573656D01*
X0630874Y0573717D01*
X0631214Y0573656D01*
X0631432Y0573511D01*
X0631858Y0573426D01*
X0632284Y0573511D01*
X0632502Y0573656D01*
X0632842Y0573717D01*
X0633183Y0573656D01*
X0633401Y0573511D01*
X0633827Y0573426D01*
X0634253Y0573511D01*
X0634471Y0573656D01*
X0634811Y0573717D01*
X0635151Y0573656D01*
X0635369Y0573511D01*
X0635795Y0573426D01*
X0636221Y0573511D01*
X0636698Y0573319D01*
X0636755Y0573266D01*
X0636971Y0572943D01*
X0637654Y0572260D01*
X0637529Y0571843D01*
X0637467Y0571760D01*
X0633138D01*
X0633138Y0571760D01*
X0632709Y0571675D01*
X0632345Y0571431D01*
X0632345Y0571431D01*
X0631330Y0570416D01*
X0630788Y0570581D01*
X0630779Y0570624D01*
X0630425Y0571153D01*
X0629896Y0571507D01*
X0629272Y0571631D01*
X0628647Y0571507D01*
X0628118Y0571153D01*
X0627765Y0570624D01*
X0627640Y0570000D01*
X0627765Y0569376D01*
X0628118Y0568847D01*
X0628647Y0568493D01*
X0628691Y0568484D01*
X0628856Y0567942D01*
X0619586Y0558672D01*
X0618918D01*
X0618917Y0558672D01*
X0618488Y0558587D01*
X0618124Y0558344D01*
X0615660Y0555879D01*
X0615396Y0555879D01*
X0615052Y0555979D01*
X0614997Y0556060D01*
X0614921Y0556137D01*
X0613279Y0557779D01*
X0613279Y0557779D01*
X0613279Y0557779D01*
X0613202Y0557856D01*
X0613022Y0557976D01*
X0613022Y0557976D01*
X0612821Y0558059D01*
X0612608Y0558102D01*
X0608956D01*
X0598267Y0568791D01*
X0598500Y0569254D01*
X0599124Y0569379D01*
X0599653Y0569732D01*
X0600007Y0570261D01*
X0600131Y0570886D01*
X0600007Y0571510D01*
X0599653Y0572039D01*
X0599124Y0572393D01*
X0598500Y0572517D01*
X0597876Y0572393D01*
X0597346Y0572039D01*
X0596993Y0571510D01*
X0596869Y0570886D01*
X0596405Y0570652D01*
X0577100Y0589958D01*
Y0590318D01*
X0576856Y0590906D01*
X0576406Y0591356D01*
X0575818Y0591600D01*
X0575182D01*
X0574594Y0591356D01*
X0574144Y0590906D01*
X0574068Y0590725D01*
X0573479Y0590608D01*
X0573124Y0590962D01*
Y0594766D01*
X0573730D01*
Y0594766D01*
X0573770Y0594766D01*
Y0594766D01*
X0577450D01*
Y0596119D01*
X0577950Y0596326D01*
X0581070Y0593207D01*
D02*
G37*
G36*
X0786500Y0586500D02*
X0746500D01*
X0746500Y0593000D01*
X0750000Y0596500D01*
X0755000Y0596500D01*
X0755000Y0598500D01*
X0786500D01*
Y0586500D01*
D02*
G37*
G36*
X0735013Y0612180D02*
X0734822Y0611718D01*
X0731699D01*
Y0610393D01*
X0730175D01*
X0730154Y0610425D01*
X0729624Y0610779D01*
X0729000Y0610903D01*
X0728376Y0610779D01*
X0727846Y0610425D01*
X0727493Y0609896D01*
X0727369Y0609272D01*
X0727493Y0608647D01*
X0727846Y0608118D01*
X0728376Y0607764D01*
X0729000Y0607640D01*
X0729624Y0607764D01*
X0730154Y0608118D01*
X0730175Y0608150D01*
X0731699D01*
Y0606581D01*
X0736397D01*
X0736493Y0606099D01*
X0736678Y0605821D01*
X0736346Y0605419D01*
X0731699D01*
Y0600282D01*
X0736351D01*
X0736351Y0589500D01*
X0736541Y0589041D01*
X0737000Y0588851D01*
X0737877D01*
X0738144Y0588350D01*
X0737993Y0588124D01*
X0737869Y0587500D01*
X0737993Y0586876D01*
X0738346Y0586346D01*
X0738442Y0586283D01*
X0738290Y0585783D01*
X0734160D01*
X0733698Y0585876D01*
X0733698Y0586283D01*
Y0589124D01*
X0733393D01*
Y0590317D01*
X0733757D01*
Y0593683D01*
X0730856Y0593683D01*
X0730614Y0594083D01*
X0730544Y0594083D01*
X0730544Y0594083D01*
X0729728D01*
Y0592000D01*
X0727728D01*
Y0594083D01*
X0726842D01*
Y0594083D01*
X0726541Y0593922D01*
X0726252Y0594115D01*
X0725516Y0594261D01*
X0723465D01*
Y0592339D01*
X0722465D01*
Y0591339D01*
X0717813D01*
X0718054Y0590979D01*
X0718312Y0590806D01*
X0718014Y0590359D01*
X0717898Y0589780D01*
X0718014Y0589200D01*
X0718257Y0588836D01*
X0718309Y0588500D01*
X0718257Y0588164D01*
X0718014Y0587800D01*
X0717898Y0587220D01*
X0718014Y0586641D01*
X0718342Y0586149D01*
Y0585733D01*
X0718014Y0585241D01*
X0717898Y0584661D01*
X0717965Y0584329D01*
X0717504Y0584082D01*
X0710909Y0590677D01*
X0710545Y0590920D01*
X0710513Y0590927D01*
X0710283Y0591482D01*
X0710363Y0591603D01*
X0710481Y0592194D01*
X0710883Y0592439D01*
X0710977Y0592464D01*
X0711407Y0592378D01*
X0711407Y0592378D01*
X0712825D01*
X0712847Y0592346D01*
X0713376Y0591993D01*
X0714000Y0591869D01*
X0714624Y0591993D01*
X0715154Y0592346D01*
X0715507Y0592876D01*
X0715631Y0593500D01*
X0715542Y0593950D01*
X0715832Y0594325D01*
X0715927Y0594383D01*
X0716000Y0594369D01*
X0716624Y0594493D01*
X0717154Y0594846D01*
X0717507Y0595376D01*
X0717631Y0596000D01*
X0717624Y0596038D01*
X0718222Y0596636D01*
X0718222Y0596636D01*
X0718254Y0596684D01*
X0718783Y0596658D01*
X0718886Y0596417D01*
X0719772D01*
Y0598500D01*
X0720772D01*
Y0599500D01*
X0722657D01*
Y0600583D01*
X0720301D01*
Y0605419D01*
X0715557D01*
Y0605419D01*
X0715443D01*
Y0605419D01*
X0710721D01*
Y0606181D01*
X0712071D01*
Y0609150D01*
X0714071D01*
Y0606181D01*
X0715842D01*
Y0606581D01*
X0720301D01*
Y0609238D01*
X0720393Y0609376D01*
X0720517Y0610000D01*
X0720393Y0610624D01*
X0720301Y0610762D01*
Y0611718D01*
X0720301D01*
X0720147Y0612091D01*
X0720937Y0612881D01*
X0721000Y0612869D01*
X0721624Y0612993D01*
X0722154Y0613346D01*
X0722250Y0613491D01*
X0722750D01*
X0722847Y0613346D01*
X0723376Y0612993D01*
X0724000Y0612869D01*
X0724038Y0612876D01*
X0724378Y0612535D01*
Y0600175D01*
X0724346Y0600153D01*
X0723993Y0599624D01*
X0723869Y0599000D01*
X0723993Y0598376D01*
X0724346Y0597847D01*
X0724876Y0597493D01*
X0725500Y0597369D01*
X0726124Y0597493D01*
X0726653Y0597847D01*
X0727007Y0598376D01*
X0727131Y0599000D01*
X0727007Y0599624D01*
X0726653Y0600153D01*
X0726622Y0600175D01*
Y0613000D01*
X0726622Y0613000D01*
X0726536Y0613429D01*
X0726293Y0613793D01*
X0725624Y0614462D01*
X0725631Y0614500D01*
X0725558Y0614869D01*
X0725900Y0615369D01*
X0731824D01*
X0735013Y0612180D01*
D02*
G37*
G36*
X0791680Y0602320D02*
X0791738Y0602344D01*
X0794501Y0599580D01*
X0794478Y0599522D01*
X0796596Y0597403D01*
X0798310Y0595690D01*
X0798769Y0595500D01*
X0806500D01*
Y0595371D01*
Y0592858D01*
X0806500Y0587118D01*
Y0586717D01*
Y0586000D01*
X0799943D01*
X0799823Y0585951D01*
X0799694D01*
X0799603Y0585859D01*
X0799483Y0585810D01*
X0799470Y0585776D01*
X0798972Y0585507D01*
X0798929Y0585536D01*
X0798500Y0585622D01*
X0798500Y0585622D01*
X0787193D01*
X0786993Y0586122D01*
X0787149Y0586500D01*
Y0598500D01*
X0787484Y0599000D01*
X0787500D01*
X0787500Y0603500D01*
X0790500Y0603500D01*
X0791680Y0602320D01*
D02*
G37*
G36*
X0743000Y0603000D02*
X0743000Y0600500D01*
X0744500Y0599000D01*
X0748500Y0599000D01*
X0748500Y0596000D01*
X0747000Y0594500D01*
X0745500Y0593000D01*
X0745500Y0589500D01*
X0744000Y0589500D01*
X0737000Y0589500D01*
X0737000Y0603000D01*
X0743000Y0603000D01*
D02*
G37*
G36*
X0699868Y0593000D02*
X0709000D01*
Y0591500D01*
X0702000Y0591500D01*
X0699500Y0589000D01*
X0697191Y0589000D01*
X0697191Y0586500D01*
X0694500Y0586500D01*
X0693352Y0585352D01*
X0693286Y0585205D01*
X0690541Y0582459D01*
X0685541Y0577459D01*
X0685541Y0577459D01*
X0680541Y0572459D01*
X0680350Y0572000D01*
X0680350Y0554149D01*
X0677500D01*
X0677041Y0553959D01*
X0676851Y0553500D01*
Y0539000D01*
X0676598Y0538622D01*
X0606499D01*
X0606348Y0539122D01*
X0606434Y0539179D01*
X0612966Y0545711D01*
X0613209Y0546075D01*
X0613230Y0546178D01*
X0613515Y0546508D01*
X0613795Y0546512D01*
X0614142Y0546443D01*
X0614186Y0546452D01*
X0614677Y0546040D01*
Y0543458D01*
X0614277Y0543287D01*
Y0542401D01*
X0616360D01*
Y0541401D01*
X0617360D01*
Y0539515D01*
X0617836D01*
Y0539499D01*
X0618860D01*
Y0541483D01*
X0620860D01*
Y0539499D01*
X0622360D01*
Y0541483D01*
X0624360D01*
Y0539499D01*
X0625384D01*
Y0541377D01*
X0625846Y0541568D01*
X0626203Y0541211D01*
Y0539915D01*
X0629569D01*
Y0539915D01*
X0629703Y0539915D01*
Y0539915D01*
X0633069D01*
Y0539915D01*
X0633206D01*
Y0539915D01*
X0636571D01*
Y0539915D01*
X0636703Y0539915D01*
Y0539915D01*
X0640069D01*
Y0539915D01*
X0640203Y0539915D01*
Y0539915D01*
X0643569D01*
Y0539915D01*
X0643677D01*
Y0539915D01*
X0646761D01*
X0647043Y0539915D01*
Y0539915D01*
X0647236Y0539974D01*
X0647236Y0539974D01*
X0650484D01*
Y0542802D01*
X0650884D01*
Y0543787D01*
X0648860D01*
Y0544787D01*
X0647860D01*
Y0546771D01*
X0646836D01*
Y0546430D01*
X0645460D01*
X0644963Y0546927D01*
X0644862Y0547079D01*
X0644862Y0547079D01*
X0644791Y0547150D01*
Y0551213D01*
Y0562604D01*
X0645154Y0562847D01*
X0645507Y0563376D01*
X0645631Y0564000D01*
X0645507Y0564624D01*
X0645154Y0565154D01*
X0644624Y0565507D01*
X0644000Y0565631D01*
X0643677Y0565567D01*
X0643156Y0565894D01*
X0643135Y0565930D01*
X0643120Y0566034D01*
X0643962Y0566876D01*
X0644000Y0566869D01*
X0644624Y0566993D01*
X0645154Y0567346D01*
X0645507Y0567876D01*
X0645631Y0568500D01*
X0645529Y0569017D01*
X0645800Y0569517D01*
X0650376D01*
Y0568302D01*
X0652230D01*
X0652421Y0567840D01*
X0651541Y0566959D01*
X0651351Y0566500D01*
Y0556500D01*
X0651541Y0556041D01*
X0652000Y0555851D01*
X0667000Y0555851D01*
X0667459Y0556041D01*
X0667649Y0556500D01*
Y0563000D01*
X0667459Y0563459D01*
X0661735Y0569184D01*
X0661926Y0569646D01*
X0663000D01*
Y0571437D01*
X0660598D01*
Y0570973D01*
X0660137Y0570782D01*
X0659459Y0571459D01*
X0659000Y0571649D01*
X0658126D01*
X0657683Y0571786D01*
Y0574757D01*
X0654317D01*
Y0574393D01*
X0653624D01*
Y0574698D01*
X0650376D01*
Y0574069D01*
X0645199D01*
X0644783Y0574539D01*
Y0581035D01*
X0644754Y0581178D01*
X0645109Y0581678D01*
X0663588D01*
X0663588Y0581678D01*
X0663910Y0581742D01*
X0664128Y0581677D01*
X0664171Y0581508D01*
X0663764Y0581079D01*
X0663500Y0581131D01*
X0662876Y0581007D01*
X0662347Y0580653D01*
X0662250Y0580509D01*
X0661750D01*
X0661654Y0580653D01*
X0661124Y0581007D01*
X0660500Y0581131D01*
X0659876Y0581007D01*
X0659346Y0580653D01*
X0658993Y0580124D01*
X0658869Y0579500D01*
X0658993Y0578876D01*
X0659346Y0578346D01*
X0659876Y0577993D01*
X0660500Y0577869D01*
X0660538Y0577876D01*
X0661807Y0576607D01*
X0661807Y0576607D01*
X0662171Y0576364D01*
X0662600Y0576278D01*
X0662600Y0576278D01*
X0676188D01*
X0676188Y0576278D01*
X0676617Y0576364D01*
X0676981Y0576607D01*
X0693577Y0593203D01*
X0699741D01*
X0699868Y0593000D01*
D02*
G37*
G36*
X0779000Y0607500D02*
X0779000Y0604000D01*
X0779500Y0603500D01*
X0782500Y0603500D01*
Y0599500D01*
X0755000D01*
Y0608500D01*
X0757000Y0610500D01*
X0776000D01*
X0779000Y0607500D01*
D02*
G37*
G36*
X0803302Y0609111D02*
X0803111Y0608649D01*
X0794624Y0608649D01*
Y0611130D01*
X0795024D01*
Y0612114D01*
X0794000D01*
Y0612000D01*
X0792000D01*
X0790976Y0613024D01*
Y0612586D01*
X0790876Y0612127D01*
X0790005D01*
X0789653Y0612653D01*
X0789124Y0613007D01*
X0788500Y0613131D01*
X0787876Y0613007D01*
X0787347Y0612653D01*
X0786995Y0612127D01*
X0786920D01*
Y0612094D01*
X0786594D01*
X0786500Y0612000D01*
Y0609500D01*
X0786000D01*
Y0607000D01*
X0784000D01*
Y0609500D01*
X0783500D01*
Y0612094D01*
X0783080D01*
Y0612127D01*
X0782224D01*
Y0613249D01*
X0782630Y0613476D01*
X0783500D01*
Y0616500D01*
X0784614D01*
Y0616500D01*
X0786598D01*
Y0617524D01*
X0786598D01*
X0786707Y0617978D01*
X0794435D01*
X0803302Y0609111D01*
D02*
G37*
G36*
X0524000Y0638378D02*
X0811098D01*
X0811351Y0638000D01*
Y0619000D01*
X0811541Y0618541D01*
X0812000Y0618351D01*
X0812344D01*
X0812346Y0618347D01*
X0812876Y0617993D01*
X0813500Y0617869D01*
X0813614Y0617891D01*
X0814000Y0617574D01*
Y0616622D01*
X0807965D01*
X0806624Y0617962D01*
X0806631Y0618000D01*
X0806507Y0618624D01*
X0806153Y0619153D01*
X0805624Y0619507D01*
X0805000Y0619631D01*
X0804376Y0619507D01*
X0803846Y0619153D01*
X0803493Y0618624D01*
X0803369Y0618000D01*
X0803493Y0617376D01*
X0803846Y0616847D01*
X0804376Y0616493D01*
X0805000Y0616369D01*
X0805038Y0616376D01*
X0806707Y0614707D01*
X0806707Y0614707D01*
X0807071Y0614464D01*
X0807500Y0614378D01*
X0812842D01*
Y0614000D01*
X0814728D01*
Y0612000D01*
X0812842D01*
Y0610917D01*
X0812465Y0610622D01*
X0807965D01*
X0800624Y0617962D01*
X0800631Y0618000D01*
X0800507Y0618624D01*
X0800154Y0619153D01*
X0799624Y0619507D01*
X0799000Y0619631D01*
X0798376Y0619507D01*
X0797847Y0619153D01*
X0797563Y0618730D01*
X0797012Y0618574D01*
X0795693Y0619893D01*
X0795329Y0620136D01*
X0794900Y0620222D01*
X0794900Y0620222D01*
X0731365D01*
X0724798Y0626788D01*
X0724989Y0627250D01*
X0727250D01*
Y0631000D01*
X0722500D01*
X0717750D01*
Y0627622D01*
X0717250D01*
Y0631000D01*
X0712500D01*
X0707750D01*
Y0627250D01*
X0708511D01*
X0708702Y0626788D01*
X0696361Y0614447D01*
X0696058Y0614508D01*
X0695433Y0614384D01*
X0694904Y0614030D01*
X0694550Y0613501D01*
X0694426Y0612876D01*
X0694478Y0612618D01*
X0694158Y0612118D01*
X0694158D01*
Y0610150D01*
X0696929D01*
X0699701D01*
Y0612118D01*
X0698031D01*
X0697756Y0612397D01*
X0697704Y0612618D01*
X0710100Y0625014D01*
X0710600Y0624807D01*
Y0622500D01*
X0712300D01*
Y0621500D01*
X0713300D01*
Y0617700D01*
X0714000D01*
Y0618100D01*
X0715948D01*
X0715993Y0617876D01*
X0716347Y0617346D01*
X0716876Y0616993D01*
X0717500Y0616869D01*
X0718124Y0616993D01*
X0718653Y0617346D01*
X0719007Y0617876D01*
X0719052Y0618100D01*
X0721770D01*
X0723389Y0616481D01*
X0723244Y0615919D01*
X0722847Y0615654D01*
X0722750Y0615509D01*
X0722250D01*
X0722154Y0615654D01*
X0721624Y0616007D01*
X0721000Y0616131D01*
X0720376Y0616007D01*
X0719846Y0615654D01*
X0719750Y0615509D01*
X0719250D01*
X0719153Y0615654D01*
X0718624Y0616007D01*
X0718000Y0616131D01*
X0717376Y0616007D01*
X0716847Y0615654D01*
X0716825Y0615622D01*
X0710863D01*
X0710863Y0615622D01*
X0710433Y0615536D01*
X0710070Y0615293D01*
X0710070Y0615293D01*
X0706207Y0611430D01*
X0705964Y0611066D01*
X0705878Y0610637D01*
X0705878Y0610637D01*
Y0603175D01*
X0705847Y0603154D01*
X0705750Y0603009D01*
X0705250D01*
X0705154Y0603154D01*
X0704624Y0603507D01*
X0704000Y0603631D01*
X0703376Y0603507D01*
X0702846Y0603154D01*
X0702750Y0603009D01*
X0702250D01*
X0702153Y0603154D01*
X0701624Y0603507D01*
X0701000Y0603631D01*
X0700376Y0603507D01*
X0699847Y0603154D01*
X0699801Y0603085D01*
X0699301Y0603237D01*
Y0605419D01*
X0694558D01*
Y0600403D01*
X0691282D01*
X0691282Y0600403D01*
X0690853Y0600318D01*
X0690489Y0600075D01*
X0690489Y0600075D01*
X0686692Y0596278D01*
X0686230Y0596469D01*
Y0599234D01*
X0685511D01*
Y0600376D01*
X0685624D01*
Y0603624D01*
X0685622D01*
Y0605242D01*
X0686183D01*
Y0608214D01*
X0683183D01*
X0682817Y0608214D01*
X0682317Y0608214D01*
X0679317D01*
X0679317Y0608214D01*
Y0608214D01*
X0678869Y0608367D01*
X0678675Y0608561D01*
Y0609930D01*
X0679175Y0610185D01*
X0679317Y0610082D01*
Y0608786D01*
X0682683D01*
Y0608786D01*
X0682817D01*
Y0608786D01*
X0686183D01*
Y0611758D01*
X0682817D01*
Y0611758D01*
X0682683D01*
Y0611758D01*
X0681100D01*
X0669334Y0623523D01*
X0669209Y0624479D01*
X0668831Y0625391D01*
X0668230Y0626174D01*
X0667446Y0626776D01*
X0666534Y0627153D01*
X0665555Y0627282D01*
X0664576Y0627153D01*
X0663664Y0626776D01*
X0662881Y0626174D01*
X0662280Y0625391D01*
X0661902Y0624479D01*
X0661773Y0623500D01*
X0661902Y0622521D01*
X0662280Y0621609D01*
X0662881Y0620825D01*
X0663664Y0620224D01*
X0664576Y0619846D01*
X0665555Y0619718D01*
X0666534Y0619846D01*
X0667446Y0620224D01*
X0668230Y0620825D01*
X0668272Y0620881D01*
X0668772Y0620914D01*
X0678096Y0611589D01*
X0677905Y0611128D01*
X0674325D01*
Y0607172D01*
X0676892D01*
X0678128Y0605935D01*
X0678128Y0605935D01*
X0678492Y0605692D01*
X0678921Y0605607D01*
X0679317Y0605316D01*
Y0605242D01*
X0682317D01*
X0682683Y0605242D01*
X0683025D01*
X0683378Y0604889D01*
Y0603624D01*
X0682795D01*
Y0604024D01*
X0681811D01*
Y0602000D01*
Y0599976D01*
X0682795D01*
Y0599976D01*
X0683268Y0599911D01*
Y0599234D01*
X0682550D01*
Y0596636D01*
X0673935Y0588022D01*
X0673301D01*
X0673109Y0588483D01*
X0678793Y0594167D01*
X0678793Y0594167D01*
X0679036Y0594531D01*
X0679122Y0594960D01*
X0679122Y0594960D01*
Y0599976D01*
X0679811D01*
Y0602000D01*
Y0604024D01*
X0678827D01*
X0678675Y0604461D01*
Y0604828D01*
X0674325D01*
Y0600872D01*
X0675673D01*
X0675876Y0600737D01*
X0676500Y0600613D01*
X0676878Y0600263D01*
Y0599234D01*
X0673770D01*
Y0599234D01*
X0673730Y0599234D01*
Y0599234D01*
X0672622D01*
Y0600376D01*
X0673124D01*
Y0603624D01*
X0673122D01*
Y0605242D01*
X0673683D01*
Y0608214D01*
X0670683D01*
X0670317Y0608214D01*
X0669817Y0608214D01*
X0666817D01*
X0666817Y0608214D01*
Y0608214D01*
X0666369Y0608367D01*
X0666175Y0608561D01*
Y0610297D01*
X0666675Y0610565D01*
X0666817Y0610469D01*
Y0608786D01*
X0670183D01*
Y0608786D01*
X0670317D01*
Y0608786D01*
X0673683D01*
Y0611758D01*
X0670317D01*
Y0611758D01*
X0670183D01*
Y0611758D01*
X0669041D01*
X0659047Y0621751D01*
X0659366Y0622521D01*
X0659495Y0623500D01*
X0659366Y0624479D01*
X0658988Y0625391D01*
X0658387Y0626174D01*
X0657604Y0626776D01*
X0656692Y0627153D01*
X0655713Y0627282D01*
X0654734Y0627153D01*
X0653821Y0626776D01*
X0653038Y0626174D01*
X0652437Y0625391D01*
X0652059Y0624479D01*
X0651930Y0623500D01*
X0652059Y0622521D01*
X0652437Y0621609D01*
X0653038Y0620825D01*
X0653821Y0620224D01*
X0654734Y0619846D01*
X0655713Y0619718D01*
X0656692Y0619846D01*
X0657461Y0620165D01*
X0665999Y0611628D01*
X0665792Y0611128D01*
X0661825D01*
Y0607172D01*
X0664392D01*
X0665628Y0605935D01*
X0665628Y0605935D01*
X0665992Y0605692D01*
X0666421Y0605607D01*
X0666817Y0605316D01*
Y0605242D01*
X0669817D01*
X0670183Y0605242D01*
X0670525D01*
X0670878Y0604889D01*
Y0603624D01*
X0670295D01*
Y0604024D01*
X0669311D01*
Y0602000D01*
X0667311D01*
Y0604024D01*
X0666327D01*
X0666175Y0604461D01*
Y0604828D01*
X0661825D01*
Y0600872D01*
X0663173D01*
X0663376Y0600737D01*
X0664000Y0600613D01*
X0664378Y0600263D01*
Y0599234D01*
X0661270D01*
Y0599234D01*
X0661230Y0599234D01*
Y0599234D01*
X0660122D01*
Y0600376D01*
X0660624D01*
Y0603624D01*
X0660622D01*
Y0605242D01*
X0661183D01*
Y0608214D01*
X0658183D01*
X0657817Y0608214D01*
X0657317Y0608214D01*
X0654317D01*
X0654317Y0608214D01*
Y0608214D01*
X0653869Y0608367D01*
X0653675Y0608561D01*
Y0611128D01*
X0649325D01*
Y0607172D01*
X0651892D01*
X0653128Y0605935D01*
X0653128Y0605935D01*
X0653492Y0605692D01*
X0653921Y0605607D01*
X0654317Y0605316D01*
Y0605242D01*
X0657317D01*
X0657683Y0605242D01*
X0658025D01*
X0658378Y0604889D01*
Y0603624D01*
X0657795D01*
Y0604024D01*
X0656811D01*
Y0602000D01*
X0654811D01*
Y0604024D01*
X0653827D01*
X0653675Y0604461D01*
Y0604828D01*
X0649325D01*
Y0600872D01*
X0650673D01*
X0650876Y0600737D01*
X0651500Y0600613D01*
X0651878Y0600263D01*
Y0599234D01*
X0648770D01*
Y0599234D01*
X0648730D01*
Y0599234D01*
X0647622D01*
Y0600376D01*
X0648124D01*
Y0603624D01*
X0648122D01*
Y0605242D01*
X0648683D01*
Y0608214D01*
X0645683D01*
X0645317Y0608214D01*
X0644817Y0608214D01*
X0641817D01*
X0641817Y0608214D01*
Y0608214D01*
X0641369Y0608367D01*
X0641175Y0608561D01*
Y0611128D01*
X0636825D01*
Y0607172D01*
X0639392D01*
X0640628Y0605935D01*
X0640628Y0605935D01*
X0640992Y0605692D01*
X0641421Y0605607D01*
X0641817Y0605316D01*
Y0605242D01*
X0644817D01*
X0645183Y0605242D01*
X0645525D01*
X0645878Y0604889D01*
Y0603624D01*
X0645295D01*
Y0604024D01*
X0644311D01*
Y0602000D01*
X0642311D01*
Y0604024D01*
X0641327D01*
X0641175Y0604461D01*
Y0604828D01*
X0636825D01*
Y0600872D01*
X0638173D01*
X0638376Y0600737D01*
X0639000Y0600613D01*
X0639038Y0600620D01*
X0639378Y0600280D01*
Y0599234D01*
X0636270D01*
Y0599234D01*
X0636230D01*
Y0599234D01*
X0635122D01*
Y0600376D01*
X0635624D01*
Y0603624D01*
X0635622D01*
Y0605242D01*
X0636183D01*
Y0608214D01*
X0633183D01*
X0632817Y0608214D01*
X0632317Y0608214D01*
X0629317D01*
X0629317Y0608214D01*
Y0608214D01*
X0628869Y0608367D01*
X0628675Y0608561D01*
Y0611128D01*
X0624325D01*
Y0607172D01*
X0626892D01*
X0628128Y0605935D01*
X0628128Y0605935D01*
X0628492Y0605692D01*
X0628921Y0605607D01*
X0629317Y0605316D01*
Y0605242D01*
X0632317D01*
X0632683Y0605242D01*
X0633025D01*
X0633378Y0604889D01*
Y0603624D01*
X0632795D01*
Y0604024D01*
X0631811D01*
Y0602000D01*
X0629811D01*
Y0604024D01*
X0628827D01*
X0628675Y0604461D01*
Y0604828D01*
X0624325D01*
Y0600872D01*
X0625673D01*
X0625876Y0600737D01*
X0626500Y0600613D01*
X0626878Y0600263D01*
Y0599234D01*
X0623770D01*
Y0599234D01*
X0623730Y0599234D01*
Y0599234D01*
X0622622D01*
Y0600376D01*
X0623124D01*
Y0603624D01*
X0623122D01*
Y0605242D01*
X0623683D01*
Y0608214D01*
X0620683D01*
X0620317Y0608214D01*
X0619817Y0608214D01*
X0616817D01*
X0616817Y0608214D01*
Y0608214D01*
X0616369Y0608367D01*
X0616175Y0608561D01*
Y0611128D01*
X0611825D01*
Y0607172D01*
X0614392D01*
X0615628Y0605935D01*
X0615628Y0605935D01*
X0615992Y0605692D01*
X0616421Y0605607D01*
X0616817Y0605316D01*
Y0605242D01*
X0619817D01*
X0620183Y0605242D01*
X0620525D01*
X0620878Y0604889D01*
Y0603624D01*
X0620295D01*
Y0604024D01*
X0619311D01*
Y0602000D01*
Y0599976D01*
X0619901D01*
X0620190Y0599476D01*
X0620050Y0599234D01*
X0620050D01*
Y0594766D01*
X0620881D01*
Y0591255D01*
X0617084Y0587458D01*
X0616622Y0587649D01*
Y0599976D01*
X0617311D01*
Y0602000D01*
Y0604024D01*
X0616327D01*
X0616175Y0604461D01*
Y0604828D01*
X0611825D01*
Y0600872D01*
X0613173D01*
X0613376Y0600737D01*
X0614000Y0600613D01*
X0614378Y0600250D01*
Y0599234D01*
X0611270D01*
Y0599234D01*
X0611230Y0599234D01*
Y0599234D01*
X0610122D01*
Y0600376D01*
X0610624D01*
Y0603624D01*
X0610622D01*
Y0605242D01*
X0611183D01*
Y0608214D01*
X0608183D01*
X0607817Y0608214D01*
X0607317Y0608214D01*
X0604317D01*
X0604317Y0608214D01*
Y0608214D01*
X0603869Y0608367D01*
X0603675Y0608561D01*
Y0611128D01*
X0599325D01*
Y0607172D01*
X0601892D01*
X0603128Y0605935D01*
X0603128Y0605935D01*
X0603492Y0605692D01*
X0603921Y0605607D01*
X0604317Y0605316D01*
Y0605242D01*
X0607317D01*
X0607683Y0605242D01*
X0608025D01*
X0608378Y0604889D01*
Y0603624D01*
X0607795D01*
Y0604024D01*
X0606811D01*
Y0602000D01*
X0604811D01*
Y0604024D01*
X0603827D01*
X0603675Y0604461D01*
Y0604828D01*
X0599325D01*
Y0600872D01*
X0600673D01*
X0600876Y0600737D01*
X0601500Y0600613D01*
X0601601Y0600633D01*
X0602378Y0599855D01*
Y0599234D01*
X0598770D01*
Y0599234D01*
X0598730Y0599234D01*
Y0599234D01*
X0597622D01*
Y0600376D01*
X0598124D01*
Y0603624D01*
X0598122D01*
Y0605242D01*
X0598683D01*
Y0608214D01*
X0595683D01*
X0595317Y0608214D01*
X0594817Y0608214D01*
X0591817D01*
X0591817Y0608214D01*
Y0608214D01*
X0591369Y0608367D01*
X0591175Y0608561D01*
Y0611128D01*
X0586825D01*
Y0607172D01*
X0589392D01*
X0590628Y0605935D01*
X0590628Y0605935D01*
X0590992Y0605692D01*
X0591421Y0605607D01*
X0591817Y0605316D01*
Y0605242D01*
X0594817D01*
X0595183Y0605242D01*
X0595525D01*
X0595878Y0604889D01*
Y0603624D01*
X0595295D01*
Y0604024D01*
X0594311D01*
Y0602000D01*
X0592311D01*
Y0604024D01*
X0591327D01*
X0591175Y0604461D01*
Y0604828D01*
X0586825D01*
Y0600872D01*
X0588173D01*
X0588376Y0600737D01*
X0589000Y0600613D01*
X0589127Y0600638D01*
X0589878Y0599887D01*
Y0599234D01*
X0586270D01*
Y0599234D01*
X0586230D01*
Y0599234D01*
X0585122D01*
Y0600376D01*
X0585624D01*
Y0603624D01*
X0585622D01*
Y0605242D01*
X0586183D01*
Y0608214D01*
X0583183D01*
X0582817Y0608214D01*
X0582317Y0608214D01*
X0579317D01*
X0579317Y0608214D01*
Y0608214D01*
X0578869Y0608367D01*
X0578675Y0608561D01*
Y0611128D01*
X0574325D01*
Y0607172D01*
X0576892D01*
X0578128Y0605935D01*
X0578128Y0605935D01*
X0578492Y0605692D01*
X0578921Y0605607D01*
X0579317Y0605316D01*
Y0605242D01*
X0582317D01*
X0582683Y0605242D01*
X0583025D01*
X0583378Y0604889D01*
Y0603624D01*
X0582795D01*
Y0604024D01*
X0581811D01*
Y0602000D01*
X0579811D01*
Y0604024D01*
X0578827D01*
X0578675Y0604461D01*
Y0604828D01*
X0574325D01*
Y0600872D01*
X0575673D01*
X0575876Y0600737D01*
X0576500Y0600613D01*
X0576601Y0600633D01*
X0577378Y0599855D01*
Y0599234D01*
X0573770D01*
Y0599234D01*
X0573730Y0599234D01*
Y0599234D01*
X0572622D01*
Y0600376D01*
X0573198D01*
Y0603624D01*
X0573122D01*
Y0605242D01*
X0573683D01*
Y0608214D01*
X0570683D01*
X0570317Y0608214D01*
X0569817Y0608214D01*
X0566817D01*
X0566817Y0608214D01*
Y0608214D01*
X0566369Y0608367D01*
X0566175Y0608561D01*
Y0611128D01*
X0561825D01*
Y0607172D01*
X0564392D01*
X0565628Y0605935D01*
X0565628Y0605935D01*
X0565992Y0605692D01*
X0566421Y0605607D01*
X0566817Y0605316D01*
Y0605242D01*
X0569817D01*
X0570183Y0605242D01*
X0570525D01*
X0570878Y0604889D01*
Y0603624D01*
X0570370D01*
Y0604024D01*
X0569386D01*
Y0602000D01*
X0567386D01*
Y0604024D01*
X0566402D01*
X0566175Y0604430D01*
Y0604828D01*
X0561825D01*
Y0600872D01*
X0563173D01*
X0563376Y0600737D01*
X0564000Y0600613D01*
X0564101Y0600633D01*
X0564878Y0599855D01*
Y0599234D01*
X0561270D01*
Y0599234D01*
X0561230Y0599234D01*
Y0599234D01*
X0560122D01*
Y0600376D01*
X0560698D01*
Y0603624D01*
X0560622D01*
Y0605242D01*
X0561183D01*
Y0608214D01*
X0558183D01*
X0557817Y0608214D01*
X0557317Y0608214D01*
X0554317D01*
X0554317Y0608214D01*
Y0608214D01*
X0553869Y0608367D01*
X0553675Y0608561D01*
Y0611128D01*
X0549325D01*
Y0607172D01*
X0551892D01*
X0553128Y0605935D01*
X0553128Y0605935D01*
X0553492Y0605692D01*
X0553921Y0605607D01*
X0554317Y0605316D01*
Y0605242D01*
X0557317D01*
X0557683Y0605242D01*
X0558025D01*
X0558378Y0604889D01*
Y0603624D01*
X0557870D01*
Y0604024D01*
X0556886D01*
Y0602000D01*
X0554886D01*
Y0604024D01*
X0553902D01*
X0553675Y0604430D01*
Y0604828D01*
X0549325D01*
Y0600872D01*
X0550673D01*
X0550876Y0600737D01*
X0551398Y0600633D01*
X0552297Y0599734D01*
X0552183Y0599234D01*
X0548770D01*
Y0599234D01*
X0548730Y0599234D01*
Y0599234D01*
X0547622D01*
Y0600376D01*
X0548198D01*
Y0603624D01*
X0548122D01*
Y0605242D01*
X0548683D01*
Y0608214D01*
X0545683D01*
X0545317Y0608214D01*
X0544817Y0608214D01*
X0541817D01*
X0541817Y0608214D01*
Y0608214D01*
X0541369Y0608367D01*
X0541175Y0608561D01*
Y0611128D01*
X0536825D01*
Y0607172D01*
X0539392D01*
X0540628Y0605935D01*
X0540628Y0605935D01*
X0540992Y0605692D01*
X0541421Y0605607D01*
X0541817Y0605316D01*
Y0605242D01*
X0544817D01*
X0545183Y0605242D01*
X0545525D01*
X0545878Y0604889D01*
Y0603624D01*
X0545370D01*
Y0604024D01*
X0544386D01*
Y0602000D01*
X0542386D01*
Y0604024D01*
X0541402D01*
X0541175Y0604430D01*
Y0604828D01*
X0536825D01*
Y0600872D01*
X0537975D01*
X0538070Y0600730D01*
X0538704Y0600096D01*
X0538513Y0599634D01*
X0535870D01*
Y0598000D01*
X0538110D01*
Y0597000D01*
X0539110D01*
Y0594366D01*
X0540350D01*
Y0595910D01*
X0540812Y0596101D01*
X0546641Y0590273D01*
X0546641Y0590273D01*
X0547005Y0590030D01*
X0547434Y0589945D01*
X0559656D01*
X0592925Y0556675D01*
X0592748Y0556175D01*
X0589672D01*
Y0551825D01*
X0593050D01*
Y0547795D01*
X0593050Y0547795D01*
X0592565Y0547675D01*
X0589672D01*
Y0543325D01*
X0593628D01*
Y0543325D01*
X0593949Y0543458D01*
X0598227Y0539179D01*
X0598227Y0539179D01*
X0598314Y0539122D01*
X0598162Y0538622D01*
X0524000D01*
X0523952Y0538612D01*
X0522265Y0538778D01*
X0520597Y0539284D01*
X0519059Y0540106D01*
X0517712Y0541212D01*
X0516606Y0542559D01*
X0515784Y0544097D01*
X0515278Y0545765D01*
X0515107Y0547500D01*
X0515278Y0549235D01*
X0515784Y0550903D01*
X0516606Y0552441D01*
X0517712Y0553788D01*
X0519059Y0554894D01*
X0520597Y0555716D01*
X0522265Y0556222D01*
X0523952Y0556388D01*
X0524000Y0556378D01*
X0529000D01*
X0529000Y0556378D01*
Y0556370D01*
X0530196Y0556488D01*
X0531346Y0556837D01*
X0532405Y0557404D01*
X0533334Y0558166D01*
X0534096Y0559095D01*
X0534663Y0560154D01*
X0535012Y0561304D01*
X0535129Y0562500D01*
X0535122Y0562500D01*
Y0614500D01*
X0535129D01*
X0535012Y0615696D01*
X0534663Y0616846D01*
X0534096Y0617905D01*
X0533334Y0618834D01*
X0532405Y0619596D01*
X0531346Y0620163D01*
X0530196Y0620512D01*
X0529000Y0620630D01*
Y0620622D01*
X0524000D01*
X0523952Y0620612D01*
X0522265Y0620778D01*
X0520597Y0621284D01*
X0519059Y0622106D01*
X0517712Y0623212D01*
X0516606Y0624559D01*
X0515784Y0626097D01*
X0515278Y0627765D01*
X0515107Y0629500D01*
X0515278Y0631235D01*
X0515784Y0632903D01*
X0516606Y0634441D01*
X0517712Y0635788D01*
X0519059Y0636894D01*
X0520597Y0637716D01*
X0522265Y0638222D01*
X0523952Y0638388D01*
X0524000Y0638378D01*
D02*
G37*
G36*
X0730500Y0617500D02*
X0724500D01*
X0722000Y0620000D01*
Y0624000D01*
X0724000D01*
X0730500Y0617500D01*
D02*
G37*
G36*
X0863500Y0637000D02*
X0865000D01*
X0865000Y0605500D01*
X0839000Y0605500D01*
Y0619000D01*
X0839000Y0619000D01*
X0838500D01*
Y0638000D01*
X0863500D01*
Y0637000D01*
D02*
G37*
G36*
X0819172Y0593242D02*
X0819535Y0592999D01*
X0819965Y0592914D01*
X0819965Y0592914D01*
X0821586D01*
X0821646Y0592853D01*
Y0591772D01*
X0821762Y0591192D01*
X0822090Y0590700D01*
X0822582Y0590372D01*
X0823161Y0590257D01*
X0823500Y0590324D01*
X0823961Y0590015D01*
X0824000Y0589953D01*
Y0578500D01*
X0806986Y0578500D01*
X0804524Y0580962D01*
X0804531Y0581000D01*
X0804407Y0581624D01*
X0804053Y0582154D01*
X0803524Y0582507D01*
X0802900Y0582631D01*
X0802276Y0582507D01*
X0802122Y0582404D01*
X0801949Y0582437D01*
X0801591Y0582651D01*
X0801536Y0582929D01*
X0801293Y0583293D01*
X0801293Y0583293D01*
X0799736Y0584851D01*
X0799943Y0585351D01*
X0806500D01*
X0806959Y0585541D01*
X0807149Y0586000D01*
X0807149Y0595500D01*
X0806959Y0595959D01*
X0806500Y0596149D01*
X0798769D01*
X0795500Y0599418D01*
Y0599500D01*
X0790876Y0604124D01*
Y0604253D01*
X0790746D01*
X0790500Y0604500D01*
X0787500Y0604500D01*
X0787500Y0607778D01*
X0790876D01*
Y0607847D01*
X0792083D01*
X0792083Y0607847D01*
X0792512Y0607932D01*
X0792613Y0608000D01*
X0804414Y0608000D01*
X0819172Y0593242D01*
D02*
G37*
G36*
X0782534Y0617484D02*
X0782349Y0617124D01*
X0779802D01*
Y0613876D01*
X0779981D01*
Y0612127D01*
X0779124D01*
Y0608947D01*
X0778662Y0608756D01*
X0776459Y0610959D01*
X0776000Y0611149D01*
X0757000D01*
X0756541Y0610959D01*
X0754541Y0608959D01*
X0754351Y0608500D01*
Y0603971D01*
X0754277Y0603502D01*
X0751305D01*
X0749053Y0605754D01*
X0748524Y0606107D01*
X0748166Y0606179D01*
X0748029Y0606657D01*
X0748287Y0606950D01*
X0748791Y0606930D01*
X0748846Y0606847D01*
X0749376Y0606493D01*
X0750000Y0606369D01*
X0750624Y0606493D01*
X0751154Y0606847D01*
X0751507Y0607376D01*
X0751631Y0608000D01*
X0751507Y0608624D01*
X0751154Y0609154D01*
X0751009Y0609250D01*
Y0609750D01*
X0751154Y0609846D01*
X0751507Y0610376D01*
X0751631Y0611000D01*
X0751507Y0611624D01*
X0751154Y0612153D01*
X0750624Y0612507D01*
X0750000Y0612631D01*
X0749376Y0612507D01*
X0748846Y0612153D01*
X0748750Y0612009D01*
X0748250D01*
X0748153Y0612153D01*
X0748009Y0612250D01*
Y0612750D01*
X0748153Y0612847D01*
X0748507Y0613376D01*
X0748631Y0614000D01*
X0748507Y0614624D01*
X0748153Y0615154D01*
X0747624Y0615507D01*
X0747000Y0615631D01*
X0746376Y0615507D01*
X0745847Y0615154D01*
X0745750Y0615009D01*
X0745250D01*
X0745154Y0615154D01*
X0744624Y0615507D01*
X0744000Y0615631D01*
X0743376Y0615507D01*
X0742846Y0615154D01*
X0742750Y0615009D01*
X0742250D01*
X0742154Y0615154D01*
X0741624Y0615507D01*
X0741000Y0615631D01*
X0740376Y0615507D01*
X0739847Y0615154D01*
X0739493Y0614624D01*
X0739369Y0614000D01*
X0739493Y0613376D01*
X0739727Y0613025D01*
X0739682Y0612475D01*
X0739641Y0612382D01*
X0739491Y0612288D01*
X0739366Y0612335D01*
X0739153Y0612653D01*
X0734291Y0617517D01*
X0734482Y0617978D01*
X0782310D01*
X0782534Y0617484D01*
D02*
G37*
G36*
X0839000Y0565500D02*
Y0555500D01*
X0833000Y0555500D01*
X0833000Y0563000D01*
X0835500Y0565500D01*
X0839000Y0565500D01*
D02*
G37*
G36*
X0667000Y0563000D02*
Y0556500D01*
X0652000Y0556500D01*
Y0566500D01*
X0654500Y0569000D01*
X0654500Y0571000D01*
X0659000D01*
X0667000Y0563000D01*
D02*
G37*
G36*
X0783141Y0585351D02*
X0782846Y0585153D01*
X0782493Y0584624D01*
X0782369Y0584000D01*
X0782493Y0583376D01*
X0782846Y0582846D01*
X0783376Y0582493D01*
X0784000Y0582369D01*
X0784624Y0582493D01*
X0785153Y0582846D01*
X0785507Y0583376D01*
X0785508Y0583378D01*
X0787532D01*
Y0582000D01*
X0793469D01*
Y0583378D01*
X0798035D01*
X0799378Y0582035D01*
Y0580000D01*
X0799378Y0580000D01*
X0799464Y0579571D01*
X0799707Y0579207D01*
X0806207Y0572707D01*
X0806207Y0572707D01*
X0806571Y0572464D01*
X0807000Y0572378D01*
X0807000Y0572378D01*
X0812560D01*
Y0571163D01*
X0812065Y0571149D01*
X0803500Y0571149D01*
X0803041Y0570959D01*
X0794731Y0562649D01*
X0769160Y0562649D01*
X0768863Y0563000D01*
X0760060D01*
X0759944Y0562816D01*
X0759598Y0562760D01*
X0759149Y0563124D01*
Y0571351D01*
X0759504Y0571851D01*
X0769000D01*
X0769459Y0572041D01*
X0769649Y0572500D01*
Y0580500D01*
X0769459Y0580959D01*
X0769420Y0581517D01*
X0769507Y0581647D01*
X0769631Y0582272D01*
X0769507Y0582896D01*
X0769180Y0583386D01*
X0769507Y0583876D01*
X0769631Y0584500D01*
X0769507Y0585124D01*
X0769356Y0585351D01*
X0769623Y0585851D01*
X0782990D01*
X0783141Y0585351D01*
D02*
G37*
G36*
X0758500Y0554500D02*
X0751500D01*
Y0539000D01*
X0715000D01*
Y0571500D01*
X0740000D01*
X0758500Y0571500D01*
X0758500Y0554500D01*
D02*
G37*
G36*
X0837000Y0539500D02*
X0812500D01*
Y0554500D01*
X0837000D01*
Y0539500D01*
D02*
G37*
G36*
X0865000D02*
X0839000D01*
Y0554500D01*
X0840000D01*
X0840000Y0574000D01*
X0846000Y0580000D01*
X0865000D01*
Y0539500D01*
D02*
G37*
G36*
Y0585000D02*
X0865000D01*
X0865000Y0581000D01*
X0845500Y0581000D01*
X0835000Y0570500D01*
X0835000Y0568500D01*
X0831500Y0565000D01*
X0827500Y0565000D01*
X0824500Y0565000D01*
X0824500Y0571000D01*
X0825500Y0572000D01*
X0825500Y0576000D01*
X0828000Y0576000D01*
X0837000Y0585000D01*
X0838500Y0585000D01*
X0839500Y0586000D01*
X0839500Y0586500D01*
Y0604500D01*
X0865000D01*
Y0585000D01*
D02*
G37*
G36*
X0824500Y0572000D02*
X0823500Y0571000D01*
Y0558500D01*
X0809000Y0558500D01*
X0806000Y0555500D01*
X0806000Y0539000D01*
X0752500Y0539000D01*
Y0553500D01*
X0759500Y0553500D01*
X0759500Y0562000D01*
X0795000Y0562000D01*
X0803500Y0570500D01*
X0816000Y0570500D01*
X0817000Y0571500D01*
X0817000Y0576000D01*
X0821500Y0576000D01*
X0824500Y0576000D01*
X0824500Y0572000D01*
D02*
G37*
G36*
X0766644Y0585351D02*
X0766493Y0585124D01*
X0766369Y0584500D01*
X0766493Y0583876D01*
X0766820Y0583386D01*
X0766493Y0582896D01*
X0766369Y0582272D01*
X0766493Y0581647D01*
X0766531Y0581590D01*
X0766295Y0581149D01*
X0761752D01*
X0757550Y0585351D01*
X0757671Y0585760D01*
X0757737Y0585851D01*
X0766377D01*
X0766644Y0585351D01*
D02*
G37*
G36*
X0713114Y0583386D02*
X0714000Y0582500D01*
Y0582000D01*
X0713906D01*
Y0577000D01*
X0714000D01*
X0714000Y0539000D01*
X0681000Y0539000D01*
Y0539000D01*
X0677500D01*
Y0553500D01*
X0681000D01*
X0681000Y0572000D01*
X0686000Y0577000D01*
X0686000D01*
X0691000Y0582000D01*
D01*
X0694500Y0585500D01*
X0697524D01*
Y0585743D01*
X0700337D01*
X0700424Y0585661D01*
X0705536D01*
Y0585500D01*
X0710303D01*
X0710686Y0585814D01*
X0713114Y0583386D01*
D02*
G37*
G36*
X0639471Y0569017D02*
X0639369Y0568500D01*
X0639376Y0568462D01*
X0638939Y0568025D01*
X0638696Y0567661D01*
X0638626Y0567310D01*
X0638411Y0567161D01*
X0638111Y0567054D01*
X0638012Y0567120D01*
X0637387Y0567244D01*
X0636763Y0567120D01*
X0636234Y0566766D01*
X0635880Y0566237D01*
X0635756Y0565613D01*
X0635880Y0564988D01*
X0636234Y0564459D01*
X0636642Y0564186D01*
Y0556190D01*
X0636142Y0555983D01*
X0634832Y0557293D01*
X0634468Y0557536D01*
X0634039Y0557622D01*
X0634039Y0557622D01*
X0629500D01*
X0629500Y0557622D01*
X0629071Y0557536D01*
X0628707Y0557293D01*
X0627128Y0555714D01*
X0627056Y0555607D01*
X0626456Y0555458D01*
X0626409Y0555469D01*
X0626379Y0555489D01*
X0625953Y0555574D01*
X0625527Y0555489D01*
X0625309Y0555344D01*
X0624968Y0555283D01*
X0624628Y0555344D01*
X0624410Y0555489D01*
X0623984Y0555574D01*
X0623558Y0555489D01*
X0623340Y0555344D01*
X0623000Y0555283D01*
X0622660Y0555344D01*
X0622442Y0555489D01*
X0622016Y0555574D01*
X0621668Y0555505D01*
X0621555Y0556075D01*
X0621201Y0556604D01*
X0621155Y0557069D01*
X0633603Y0569517D01*
X0639199D01*
X0639471Y0569017D01*
D02*
G37*
G36*
X0717207Y0581207D02*
X0717207Y0581207D01*
X0717571Y0580964D01*
X0718000Y0580878D01*
X0738752D01*
X0740298Y0579332D01*
Y0574500D01*
X0743351D01*
Y0572500D01*
X0743116Y0572149D01*
X0740000D01*
X0721509D01*
X0721242Y0572649D01*
X0721393Y0572876D01*
X0721517Y0573500D01*
X0721393Y0574124D01*
X0721039Y0574653D01*
X0720538Y0574989D01*
X0720510Y0575202D01*
Y0575298D01*
X0720538Y0575511D01*
X0721039Y0575846D01*
X0721393Y0576376D01*
X0721517Y0577000D01*
X0721393Y0577624D01*
X0721039Y0578154D01*
X0720510Y0578507D01*
X0719886Y0578631D01*
X0719262Y0578507D01*
X0718732Y0578154D01*
X0718379Y0577624D01*
X0718255Y0577000D01*
X0718379Y0576376D01*
X0718732Y0575846D01*
X0719234Y0575511D01*
X0719262Y0575298D01*
Y0575202D01*
X0719234Y0574989D01*
X0718732Y0574653D01*
X0718379Y0574124D01*
X0718255Y0573500D01*
X0718379Y0572876D01*
X0718530Y0572649D01*
X0718263Y0572149D01*
X0715000D01*
X0714649Y0572384D01*
Y0577000D01*
X0714555Y0577228D01*
Y0581772D01*
X0714649Y0582000D01*
Y0582500D01*
X0714459Y0582959D01*
X0711145Y0586273D01*
X0710943Y0586357D01*
X0710749Y0586461D01*
X0710717Y0586451D01*
X0710686Y0586464D01*
X0710483Y0586380D01*
X0710395Y0586353D01*
X0710156Y0586522D01*
X0710084Y0586594D01*
X0710001Y0586717D01*
X0710102Y0587220D01*
X0710006Y0587701D01*
X0710310Y0587947D01*
X0710418Y0587995D01*
X0717207Y0581207D01*
D02*
G37*
G36*
X0769000Y0572500D02*
X0744000D01*
Y0580500D01*
X0769000D01*
Y0572500D01*
D02*
G37*
G36*
X0836500Y0619000D02*
X0812000D01*
Y0638000D01*
X0836500D01*
Y0619000D01*
D02*
G37*
%LPC*%
G36*
X0721465Y0594261D02*
X0719413D01*
X0718678Y0594115D01*
X0718054Y0593698D01*
X0717813Y0593339D01*
X0721465D01*
Y0594261D01*
D02*
G37*
G36*
X0722657Y0597500D02*
X0721772D01*
Y0596417D01*
X0722657D01*
Y0597500D01*
D02*
G37*
G36*
X0663000Y0575228D02*
X0660598D01*
Y0573437D01*
X0663000D01*
Y0575228D01*
D02*
G37*
G36*
X0667402D02*
X0665000D01*
Y0573437D01*
X0667402D01*
Y0575228D01*
D02*
G37*
G36*
Y0571437D02*
X0665000D01*
Y0569646D01*
X0667402D01*
Y0571437D01*
D02*
G37*
G36*
X0659248Y0549712D02*
X0652752D01*
X0652293Y0549522D01*
X0652103Y0549063D01*
Y0542764D01*
X0652293Y0542305D01*
X0652752Y0542114D01*
X0659248D01*
X0659707Y0542305D01*
X0659898Y0542764D01*
Y0549063D01*
X0659707Y0549522D01*
X0659248Y0549712D01*
D02*
G37*
G36*
X0615360Y0540401D02*
X0614277D01*
Y0539515D01*
X0615360D01*
Y0540401D01*
D02*
G37*
G36*
X0650884Y0546771D02*
X0649860D01*
Y0545787D01*
X0650884D01*
Y0546771D01*
D02*
G37*
G36*
X0795024Y0615098D02*
X0794000D01*
Y0614114D01*
X0795024D01*
Y0615098D01*
D02*
G37*
G36*
X0551772Y0565631D02*
X0551147Y0565507D01*
X0550618Y0565154D01*
X0550265Y0564624D01*
X0550140Y0564000D01*
X0550265Y0563376D01*
X0550618Y0562847D01*
X0551147Y0562493D01*
X0551772Y0562369D01*
X0552396Y0562493D01*
X0552925Y0562847D01*
X0553279Y0563376D01*
X0553403Y0564000D01*
X0553279Y0564624D01*
X0552925Y0565154D01*
X0552396Y0565507D01*
X0551772Y0565631D01*
D02*
G37*
G36*
X0732248Y0636750D02*
X0728698D01*
Y0633000D01*
X0732248D01*
Y0636750D01*
D02*
G37*
G36*
X0721500D02*
X0717750D01*
Y0633000D01*
X0721500D01*
Y0636750D01*
D02*
G37*
G36*
X0700700D02*
X0697150D01*
Y0633000D01*
X0700700D01*
Y0636750D01*
D02*
G37*
G36*
X0584350Y0556575D02*
X0582972D01*
Y0555000D01*
X0584350D01*
Y0556575D01*
D02*
G37*
G36*
X0587728Y0553000D02*
X0586350D01*
Y0551425D01*
X0587728D01*
Y0553000D01*
D02*
G37*
G36*
X0737798Y0636750D02*
X0734248D01*
Y0633000D01*
X0737798D01*
Y0636750D01*
D02*
G37*
G36*
X0587728Y0556575D02*
X0586350D01*
Y0555000D01*
X0587728D01*
Y0556575D01*
D02*
G37*
G36*
X0711500Y0636750D02*
X0707750D01*
Y0633000D01*
X0711500D01*
Y0636750D01*
D02*
G37*
G36*
X0523000Y0636538D02*
X0522608Y0636500D01*
X0521269Y0636094D01*
X0520035Y0635434D01*
X0518954Y0634546D01*
X0518066Y0633465D01*
X0517407Y0632231D01*
X0517000Y0630892D01*
X0516962Y0630500D01*
X0523000D01*
Y0636538D01*
D02*
G37*
G36*
X0571000Y0571282D02*
X0570021Y0571153D01*
X0569109Y0570776D01*
X0568326Y0570175D01*
X0567724Y0569391D01*
X0567346Y0568479D01*
X0567315Y0568241D01*
X0566811D01*
X0566780Y0568479D01*
X0566402Y0569391D01*
X0565801Y0570175D01*
X0565017Y0570776D01*
X0564105Y0571153D01*
X0563126Y0571282D01*
X0562147Y0571153D01*
X0561235Y0570776D01*
X0560452Y0570175D01*
X0559850Y0569391D01*
X0559473Y0568479D01*
X0559344Y0567500D01*
X0559473Y0566521D01*
X0559850Y0565609D01*
X0560452Y0564825D01*
X0561235Y0564224D01*
X0562147Y0563846D01*
X0563126Y0563718D01*
X0564105Y0563846D01*
X0565017Y0564224D01*
X0565801Y0564825D01*
X0566402Y0565609D01*
X0566780Y0566521D01*
X0566811Y0566759D01*
X0567315D01*
X0567346Y0566521D01*
X0567724Y0565609D01*
X0568326Y0564825D01*
X0569109Y0564224D01*
X0570021Y0563846D01*
X0571000Y0563718D01*
X0571979Y0563846D01*
X0572891Y0564224D01*
X0573674Y0564825D01*
X0574276Y0565609D01*
X0574653Y0566521D01*
X0574782Y0567500D01*
X0574653Y0568479D01*
X0574276Y0569391D01*
X0573674Y0570175D01*
X0572891Y0570776D01*
X0571979Y0571153D01*
X0571000Y0571282D01*
D02*
G37*
G36*
X0525000Y0636538D02*
Y0630500D01*
X0531038D01*
X0531000Y0630892D01*
X0530593Y0632231D01*
X0529934Y0633465D01*
X0529046Y0634546D01*
X0527965Y0635434D01*
X0526731Y0636094D01*
X0525392Y0636500D01*
X0525000Y0636538D01*
D02*
G37*
G36*
X0551772Y0573631D02*
X0551147Y0573507D01*
X0550618Y0573153D01*
X0550265Y0572624D01*
X0550140Y0572000D01*
X0550265Y0571376D01*
X0550618Y0570847D01*
X0551147Y0570493D01*
X0551772Y0570369D01*
X0552396Y0570493D01*
X0552925Y0570847D01*
X0553279Y0571376D01*
X0553403Y0572000D01*
X0553279Y0572624D01*
X0552925Y0573153D01*
X0552396Y0573507D01*
X0551772Y0573631D01*
D02*
G37*
G36*
X0531038Y0546500D02*
X0525000D01*
Y0540462D01*
X0525392Y0540500D01*
X0526731Y0540906D01*
X0527965Y0541566D01*
X0529046Y0542454D01*
X0529934Y0543535D01*
X0530593Y0544769D01*
X0531000Y0546108D01*
X0531038Y0546500D01*
D02*
G37*
G36*
X0523000D02*
X0516962D01*
X0517000Y0546108D01*
X0517407Y0544769D01*
X0518066Y0543535D01*
X0518954Y0542454D01*
X0520035Y0541566D01*
X0521269Y0540906D01*
X0522608Y0540500D01*
X0523000Y0540462D01*
Y0546500D01*
D02*
G37*
G36*
X0587728Y0544500D02*
X0586350D01*
Y0542925D01*
X0587728D01*
Y0544500D01*
D02*
G37*
G36*
X0717250Y0636750D02*
X0713500D01*
Y0633000D01*
X0717250D01*
Y0636750D01*
D02*
G37*
G36*
X0727250D02*
X0723500D01*
Y0633000D01*
X0727250D01*
Y0636750D01*
D02*
G37*
G36*
X0706250D02*
X0702700D01*
Y0633000D01*
X0706250D01*
Y0636750D01*
D02*
G37*
G36*
X0547054Y0578748D02*
X0543000D01*
X0538946D01*
X0538957Y0578665D01*
X0539375Y0577655D01*
X0540040Y0576788D01*
X0540907Y0576123D01*
X0541530Y0575865D01*
Y0575324D01*
X0541109Y0575150D01*
X0540325Y0574548D01*
X0539724Y0573765D01*
X0539347Y0572853D01*
X0539218Y0571874D01*
X0539347Y0570895D01*
X0539724Y0569983D01*
X0540325Y0569200D01*
X0541109Y0568598D01*
X0542021Y0568221D01*
X0542259Y0568189D01*
Y0567685D01*
X0542021Y0567654D01*
X0541109Y0567276D01*
X0540325Y0566675D01*
X0539724Y0565891D01*
X0539347Y0564979D01*
X0539218Y0564000D01*
X0539347Y0563021D01*
X0539724Y0562109D01*
X0540325Y0561326D01*
X0541109Y0560724D01*
X0542021Y0560347D01*
X0542358Y0560302D01*
Y0559798D01*
X0542021Y0559754D01*
X0541109Y0559376D01*
X0540325Y0558775D01*
X0539724Y0557991D01*
X0539347Y0557079D01*
X0539218Y0556100D01*
X0539347Y0555121D01*
X0539724Y0554209D01*
X0540325Y0553426D01*
X0541109Y0552824D01*
X0542021Y0552447D01*
X0542358Y0552402D01*
Y0551898D01*
X0542021Y0551854D01*
X0541109Y0551476D01*
X0540325Y0550875D01*
X0539724Y0550091D01*
X0539347Y0549179D01*
X0539218Y0548200D01*
X0539347Y0547221D01*
X0539724Y0546309D01*
X0540325Y0545526D01*
X0541109Y0544924D01*
X0542021Y0544547D01*
X0543000Y0544418D01*
X0543979Y0544547D01*
X0544891Y0544924D01*
X0545675Y0545526D01*
X0546276Y0546309D01*
X0546654Y0547221D01*
X0546782Y0548200D01*
X0546654Y0549179D01*
X0546276Y0550091D01*
X0545675Y0550875D01*
X0544891Y0551476D01*
X0543979Y0551854D01*
X0543642Y0551898D01*
Y0552402D01*
X0543979Y0552447D01*
X0544891Y0552824D01*
X0545675Y0553426D01*
X0546276Y0554209D01*
X0546654Y0555121D01*
X0546782Y0556100D01*
X0546654Y0557079D01*
X0546276Y0557991D01*
X0545675Y0558775D01*
X0544891Y0559376D01*
X0543979Y0559754D01*
X0543642Y0559798D01*
Y0560302D01*
X0543979Y0560347D01*
X0544891Y0560724D01*
X0545675Y0561326D01*
X0546276Y0562109D01*
X0546654Y0563021D01*
X0546782Y0564000D01*
X0546654Y0564979D01*
X0546276Y0565891D01*
X0545675Y0566675D01*
X0544891Y0567276D01*
X0543979Y0567654D01*
X0543741Y0567685D01*
Y0568189D01*
X0543979Y0568221D01*
X0544891Y0568598D01*
X0545675Y0569200D01*
X0546276Y0569983D01*
X0546654Y0570895D01*
X0546782Y0571874D01*
X0546654Y0572853D01*
X0546276Y0573765D01*
X0545675Y0574548D01*
X0544891Y0575150D01*
X0544470Y0575324D01*
Y0575865D01*
X0545093Y0576123D01*
X0545960Y0576788D01*
X0546625Y0577655D01*
X0547043Y0578665D01*
X0547054Y0578748D01*
D02*
G37*
G36*
X0525000Y0554538D02*
Y0548500D01*
X0531038D01*
X0531000Y0548892D01*
X0530593Y0550231D01*
X0529934Y0551465D01*
X0529046Y0552546D01*
X0527965Y0553434D01*
X0526731Y0554094D01*
X0525392Y0554500D01*
X0525000Y0554538D01*
D02*
G37*
G36*
X0523000D02*
X0522608Y0554500D01*
X0521269Y0554094D01*
X0520035Y0553434D01*
X0518954Y0552546D01*
X0518066Y0551465D01*
X0517407Y0550231D01*
X0517000Y0548892D01*
X0516962Y0548500D01*
X0523000D01*
Y0554538D01*
D02*
G37*
G36*
X0584350Y0553000D02*
X0582972D01*
Y0551425D01*
X0584350D01*
Y0553000D01*
D02*
G37*
G36*
X0577500Y0570131D02*
X0576876Y0570007D01*
X0576346Y0569654D01*
X0575993Y0569124D01*
X0575869Y0568500D01*
X0575993Y0567876D01*
X0576346Y0567346D01*
X0576378Y0567325D01*
Y0552175D01*
X0576346Y0552153D01*
X0575993Y0551624D01*
X0575869Y0551000D01*
X0575993Y0550376D01*
X0576346Y0549847D01*
X0576876Y0549493D01*
X0577500Y0549369D01*
X0578124Y0549493D01*
X0578653Y0549847D01*
X0579007Y0550376D01*
X0579131Y0551000D01*
X0579007Y0551624D01*
X0578653Y0552153D01*
X0578622Y0552175D01*
Y0567325D01*
X0578653Y0567346D01*
X0579007Y0567876D01*
X0579131Y0568500D01*
X0579007Y0569124D01*
X0578653Y0569654D01*
X0578124Y0570007D01*
X0577500Y0570131D01*
D02*
G37*
G36*
X0587728Y0548075D02*
X0586350D01*
Y0546500D01*
X0587728D01*
Y0548075D01*
D02*
G37*
G36*
X0570937Y0551282D02*
X0569958Y0551154D01*
X0569046Y0550776D01*
X0568262Y0550175D01*
X0567661Y0549391D01*
X0567283Y0548479D01*
X0567252Y0548241D01*
X0566748D01*
X0566716Y0548479D01*
X0566339Y0549391D01*
X0565737Y0550175D01*
X0564954Y0550776D01*
X0564042Y0551154D01*
X0563063Y0551282D01*
X0562084Y0551154D01*
X0561172Y0550776D01*
X0560389Y0550175D01*
X0559787Y0549391D01*
X0559410Y0548479D01*
X0559281Y0547500D01*
X0559410Y0546521D01*
X0559787Y0545609D01*
X0560389Y0544826D01*
X0561172Y0544224D01*
X0562084Y0543847D01*
X0563063Y0543718D01*
X0564042Y0543847D01*
X0564954Y0544224D01*
X0565737Y0544826D01*
X0566339Y0545609D01*
X0566716Y0546521D01*
X0566748Y0546759D01*
X0567252D01*
X0567283Y0546521D01*
X0567661Y0545609D01*
X0568262Y0544826D01*
X0569046Y0544224D01*
X0569958Y0543847D01*
X0570937Y0543718D01*
X0571916Y0543847D01*
X0572828Y0544224D01*
X0573611Y0544826D01*
X0574213Y0545609D01*
X0574590Y0546521D01*
X0574719Y0547500D01*
X0574590Y0548479D01*
X0574213Y0549391D01*
X0573611Y0550175D01*
X0572828Y0550776D01*
X0571916Y0551154D01*
X0570937Y0551282D01*
D02*
G37*
G36*
X0584350Y0548075D02*
X0582972D01*
Y0547830D01*
X0582472Y0547537D01*
X0582000Y0547631D01*
X0581376Y0547507D01*
X0580847Y0547154D01*
X0580493Y0546624D01*
X0580369Y0546000D01*
X0580493Y0545376D01*
X0580847Y0544846D01*
X0581376Y0544493D01*
X0582000Y0544369D01*
X0582472Y0544463D01*
X0582972Y0544170D01*
Y0542925D01*
X0584350D01*
Y0545500D01*
Y0548075D01*
D02*
G37*
G36*
X0616342Y0627282D02*
X0615364Y0627153D01*
X0614451Y0626776D01*
X0613668Y0626174D01*
X0613067Y0625391D01*
X0612689Y0624479D01*
X0612560Y0623500D01*
X0612689Y0622521D01*
X0613067Y0621609D01*
X0613668Y0620825D01*
X0614451Y0620224D01*
X0615364Y0619846D01*
X0616342Y0619718D01*
X0616878Y0619788D01*
X0617378Y0619350D01*
Y0611758D01*
X0616817D01*
Y0608786D01*
X0620183D01*
Y0608786D01*
X0620317D01*
Y0608786D01*
X0623683D01*
Y0611758D01*
X0620317D01*
Y0611758D01*
X0620183D01*
Y0611758D01*
X0619622D01*
Y0621343D01*
X0619622Y0621343D01*
X0619579Y0621558D01*
X0619618Y0621609D01*
X0619996Y0622521D01*
X0620125Y0623500D01*
X0619996Y0624479D01*
X0619618Y0625391D01*
X0619017Y0626174D01*
X0618234Y0626776D01*
X0617321Y0627153D01*
X0616342Y0627282D01*
D02*
G37*
G36*
X0567130D02*
X0566151Y0627153D01*
X0565239Y0626776D01*
X0564455Y0626174D01*
X0563854Y0625391D01*
X0563476Y0624479D01*
X0563348Y0623500D01*
X0563476Y0622521D01*
X0563795Y0621751D01*
X0558707Y0616663D01*
X0558464Y0616299D01*
X0558378Y0615870D01*
X0558378Y0615870D01*
Y0611758D01*
X0557817D01*
Y0611758D01*
X0557683D01*
Y0611758D01*
X0554317D01*
Y0608786D01*
X0557683D01*
Y0608786D01*
X0557817D01*
Y0608786D01*
X0561183D01*
Y0611758D01*
X0560622D01*
Y0615406D01*
X0565381Y0620165D01*
X0566151Y0619846D01*
X0567130Y0619718D01*
X0568109Y0619846D01*
X0569021Y0620224D01*
X0569804Y0620825D01*
X0570405Y0621609D01*
X0570783Y0622521D01*
X0570912Y0623500D01*
X0570783Y0624479D01*
X0570405Y0625391D01*
X0569804Y0626174D01*
X0569021Y0626776D01*
X0568109Y0627153D01*
X0567130Y0627282D01*
D02*
G37*
G36*
X0636028D02*
X0635049Y0627153D01*
X0634136Y0626776D01*
X0633353Y0626174D01*
X0632752Y0625391D01*
X0632374Y0624479D01*
X0632245Y0623500D01*
X0632374Y0622521D01*
X0632752Y0621609D01*
X0633353Y0620825D01*
X0634136Y0620224D01*
X0635049Y0619846D01*
X0636028Y0619718D01*
X0637007Y0619846D01*
X0637776Y0620165D01*
X0642378Y0615563D01*
Y0611758D01*
X0641817D01*
Y0608786D01*
X0645183D01*
Y0608786D01*
X0645317D01*
Y0608786D01*
X0648683D01*
Y0611758D01*
X0645317D01*
Y0611758D01*
X0645183D01*
Y0611758D01*
X0644622D01*
Y0616027D01*
X0644622Y0616028D01*
X0644536Y0616457D01*
X0644293Y0616821D01*
X0644293Y0616821D01*
X0639362Y0621751D01*
X0639681Y0622521D01*
X0639810Y0623500D01*
X0639681Y0624479D01*
X0639303Y0625391D01*
X0638702Y0626174D01*
X0637919Y0626776D01*
X0637007Y0627153D01*
X0636028Y0627282D01*
D02*
G37*
G36*
X0626185D02*
X0625206Y0627153D01*
X0624294Y0626776D01*
X0623511Y0626174D01*
X0622909Y0625391D01*
X0622532Y0624479D01*
X0622403Y0623500D01*
X0622532Y0622521D01*
X0622909Y0621609D01*
X0623511Y0620825D01*
X0624294Y0620224D01*
X0625206Y0619846D01*
X0626185Y0619718D01*
X0627164Y0619846D01*
X0627934Y0620165D01*
X0629878Y0618221D01*
Y0611758D01*
X0629317D01*
Y0608786D01*
X0632683D01*
Y0608786D01*
X0632817D01*
Y0608786D01*
X0636183D01*
Y0611758D01*
X0632817D01*
Y0611758D01*
X0632683D01*
Y0611758D01*
X0632122D01*
Y0618685D01*
X0632036Y0619114D01*
X0631793Y0619478D01*
X0631793Y0619478D01*
X0629520Y0621751D01*
X0629839Y0622521D01*
X0629967Y0623500D01*
X0629839Y0624479D01*
X0629461Y0625391D01*
X0628860Y0626174D01*
X0628076Y0626776D01*
X0627164Y0627153D01*
X0626185Y0627282D01*
D02*
G37*
G36*
X0695929Y0608150D02*
X0694158D01*
Y0606181D01*
X0695929D01*
Y0608150D01*
D02*
G37*
G36*
X0586815Y0627282D02*
X0585836Y0627153D01*
X0584924Y0626776D01*
X0584140Y0626174D01*
X0583539Y0625391D01*
X0583161Y0624479D01*
X0583033Y0623500D01*
X0583161Y0622521D01*
X0583509Y0621682D01*
X0583464Y0621614D01*
X0583378Y0621185D01*
X0583378Y0621185D01*
Y0611758D01*
X0582817D01*
Y0611758D01*
X0582683D01*
Y0611758D01*
X0579317D01*
Y0608786D01*
X0582683D01*
Y0608786D01*
X0582817D01*
Y0608786D01*
X0586183D01*
Y0611758D01*
X0585622D01*
Y0619437D01*
X0586122Y0619809D01*
X0586815Y0619718D01*
X0587794Y0619846D01*
X0588706Y0620224D01*
X0589490Y0620825D01*
X0590091Y0621609D01*
X0590468Y0622521D01*
X0590597Y0623500D01*
X0590468Y0624479D01*
X0590091Y0625391D01*
X0589490Y0626174D01*
X0588706Y0626776D01*
X0587794Y0627153D01*
X0586815Y0627282D01*
D02*
G37*
G36*
X0576972D02*
X0575993Y0627153D01*
X0575081Y0626776D01*
X0574298Y0626174D01*
X0573697Y0625391D01*
X0573319Y0624479D01*
X0573190Y0623500D01*
X0573319Y0622521D01*
X0573638Y0621751D01*
X0571207Y0619321D01*
X0570964Y0618957D01*
X0570878Y0618528D01*
X0570878Y0618528D01*
Y0611758D01*
X0570317D01*
Y0611758D01*
X0570183D01*
Y0611758D01*
X0566817D01*
Y0608786D01*
X0570183D01*
Y0608786D01*
X0570317D01*
Y0608786D01*
X0573683D01*
Y0611758D01*
X0573122D01*
Y0618063D01*
X0575224Y0620165D01*
X0575993Y0619846D01*
X0576972Y0619718D01*
X0577951Y0619846D01*
X0578864Y0620224D01*
X0579647Y0620825D01*
X0580248Y0621609D01*
X0580626Y0622521D01*
X0580755Y0623500D01*
X0580626Y0624479D01*
X0580248Y0625391D01*
X0579647Y0626174D01*
X0578864Y0626776D01*
X0577951Y0627153D01*
X0576972Y0627282D01*
D02*
G37*
G36*
X0699701Y0608150D02*
X0697929D01*
Y0606181D01*
X0699701D01*
Y0608150D01*
D02*
G37*
G36*
X0645870Y0627282D02*
X0644891Y0627153D01*
X0643979Y0626776D01*
X0643196Y0626174D01*
X0642594Y0625391D01*
X0642217Y0624479D01*
X0642088Y0623500D01*
X0642217Y0622521D01*
X0642594Y0621609D01*
X0643196Y0620825D01*
X0643979Y0620224D01*
X0644891Y0619846D01*
X0645870Y0619718D01*
X0646849Y0619846D01*
X0647619Y0620165D01*
X0654878Y0612906D01*
Y0611758D01*
X0654317D01*
Y0608786D01*
X0657683D01*
Y0608786D01*
X0657817D01*
Y0608786D01*
X0661183D01*
Y0611758D01*
X0657817D01*
Y0611758D01*
X0657683D01*
Y0611758D01*
X0657122D01*
Y0613370D01*
X0657122Y0613370D01*
X0657036Y0613799D01*
X0656793Y0614163D01*
X0649205Y0621751D01*
X0649524Y0622521D01*
X0649652Y0623500D01*
X0649524Y0624479D01*
X0649146Y0625391D01*
X0648545Y0626174D01*
X0647761Y0626776D01*
X0646849Y0627153D01*
X0645870Y0627282D01*
D02*
G37*
G36*
X0692554Y0627937D02*
X0688500D01*
X0684446D01*
X0684457Y0627854D01*
X0684875Y0626844D01*
X0685540Y0625977D01*
X0686407Y0625312D01*
X0687030Y0625054D01*
Y0624513D01*
X0686609Y0624339D01*
X0685825Y0623737D01*
X0685224Y0622954D01*
X0684846Y0622042D01*
X0684718Y0621063D01*
X0684846Y0620084D01*
X0685224Y0619172D01*
X0685825Y0618389D01*
X0686609Y0617787D01*
X0687521Y0617410D01*
X0688500Y0617281D01*
X0689479Y0617410D01*
X0690391Y0617787D01*
X0691175Y0618389D01*
X0691776Y0619172D01*
X0692154Y0620084D01*
X0692282Y0621063D01*
X0692154Y0622042D01*
X0691776Y0622954D01*
X0691175Y0623737D01*
X0690391Y0624339D01*
X0689970Y0624513D01*
Y0625054D01*
X0690593Y0625312D01*
X0691460Y0625977D01*
X0692125Y0626844D01*
X0692543Y0627854D01*
X0692554Y0627937D01*
D02*
G37*
G36*
X0551499Y0622500D02*
X0548445D01*
Y0619446D01*
X0548528Y0619457D01*
X0549538Y0619875D01*
X0550405Y0620540D01*
X0551070Y0621407D01*
X0551488Y0622417D01*
X0551499Y0622500D01*
D02*
G37*
G36*
X0711300Y0620500D02*
X0710600D01*
Y0617700D01*
X0711300D01*
Y0620500D01*
D02*
G37*
G36*
X0546445Y0622500D02*
X0543391D01*
X0543402Y0622417D01*
X0543820Y0621407D01*
X0544485Y0620540D01*
X0545352Y0619875D01*
X0546361Y0619457D01*
X0546445Y0619446D01*
Y0622500D01*
D02*
G37*
G36*
X0606500Y0627282D02*
X0605521Y0627153D01*
X0604609Y0626776D01*
X0603826Y0626174D01*
X0603224Y0625391D01*
X0602846Y0624479D01*
X0602718Y0623500D01*
X0602846Y0622521D01*
X0603224Y0621609D01*
X0603826Y0620825D01*
X0604609Y0620224D01*
X0605521Y0619846D01*
X0606500Y0619718D01*
X0607479Y0619846D01*
X0607878Y0620012D01*
X0608378Y0619678D01*
Y0611758D01*
X0607817D01*
Y0611758D01*
X0607683D01*
Y0611758D01*
X0604317D01*
Y0608786D01*
X0607683D01*
Y0608786D01*
X0607817D01*
Y0608786D01*
X0611183D01*
Y0611758D01*
X0610622D01*
Y0620500D01*
X0610622Y0620500D01*
X0610536Y0620929D01*
X0610293Y0621293D01*
X0609835Y0621751D01*
X0610153Y0622521D01*
X0610282Y0623500D01*
X0610153Y0624479D01*
X0609776Y0625391D01*
X0609174Y0626174D01*
X0608391Y0626776D01*
X0607479Y0627153D01*
X0606500Y0627282D01*
D02*
G37*
G36*
X0596658D02*
X0595679Y0627153D01*
X0594766Y0626776D01*
X0593983Y0626174D01*
X0593382Y0625391D01*
X0593004Y0624479D01*
X0592875Y0623500D01*
X0593004Y0622521D01*
X0593382Y0621609D01*
X0593983Y0620825D01*
X0594766Y0620224D01*
X0595679Y0619846D01*
X0595878Y0619820D01*
Y0611758D01*
X0595317D01*
Y0611758D01*
X0595183D01*
Y0611758D01*
X0591817D01*
Y0608786D01*
X0595183D01*
Y0608786D01*
X0595317D01*
Y0608786D01*
X0598683D01*
Y0611758D01*
X0598122D01*
Y0620048D01*
X0598549Y0620224D01*
X0599332Y0620825D01*
X0599933Y0621609D01*
X0600311Y0622521D01*
X0600440Y0623500D01*
X0600311Y0624479D01*
X0599933Y0625391D01*
X0599332Y0626174D01*
X0598549Y0626776D01*
X0597636Y0627153D01*
X0596658Y0627282D01*
D02*
G37*
G36*
X0557287D02*
X0556308Y0627153D01*
X0555396Y0626776D01*
X0554613Y0626174D01*
X0554012Y0625391D01*
X0553634Y0624479D01*
X0553505Y0623500D01*
X0553634Y0622521D01*
X0553953Y0621751D01*
X0546207Y0614006D01*
X0545964Y0613642D01*
X0545878Y0613213D01*
X0545878Y0613213D01*
Y0611758D01*
X0545317D01*
Y0611758D01*
X0545183D01*
Y0611758D01*
X0541817D01*
Y0608786D01*
X0545183D01*
Y0608786D01*
X0545317D01*
Y0608786D01*
X0548683D01*
Y0611758D01*
X0548122D01*
Y0612748D01*
X0555539Y0620165D01*
X0556308Y0619846D01*
X0557287Y0619718D01*
X0558266Y0619846D01*
X0559179Y0620224D01*
X0559962Y0620825D01*
X0560563Y0621609D01*
X0560941Y0622521D01*
X0561070Y0623500D01*
X0560941Y0624479D01*
X0560563Y0625391D01*
X0559962Y0626174D01*
X0559179Y0626776D01*
X0558266Y0627153D01*
X0557287Y0627282D01*
D02*
G37*
G36*
X0737798Y0631000D02*
X0734248D01*
Y0627250D01*
X0737798D01*
Y0631000D01*
D02*
G37*
G36*
X0687500Y0632991D02*
X0687417Y0632980D01*
X0686407Y0632562D01*
X0685540Y0631897D01*
X0684875Y0631030D01*
X0684457Y0630020D01*
X0684446Y0629937D01*
X0687500D01*
Y0632991D01*
D02*
G37*
G36*
X0706250Y0631000D02*
X0702700D01*
Y0627250D01*
X0706250D01*
Y0631000D01*
D02*
G37*
G36*
X0732248D02*
X0728698D01*
Y0627250D01*
X0732248D01*
Y0631000D01*
D02*
G37*
G36*
X0689500Y0632991D02*
Y0629937D01*
X0692554D01*
X0692543Y0630020D01*
X0692125Y0631030D01*
X0691460Y0631897D01*
X0690593Y0632562D01*
X0689583Y0632980D01*
X0689500Y0632991D01*
D02*
G37*
G36*
X0544000Y0583802D02*
Y0580748D01*
X0547054D01*
X0547043Y0580831D01*
X0546625Y0581841D01*
X0545960Y0582708D01*
X0545093Y0583373D01*
X0544083Y0583791D01*
X0544000Y0583802D01*
D02*
G37*
G36*
X0542000Y0583802D02*
X0541917Y0583791D01*
X0540907Y0583373D01*
X0540040Y0582708D01*
X0539375Y0581841D01*
X0538957Y0580831D01*
X0538946Y0580748D01*
X0542000D01*
Y0583802D01*
D02*
G37*
G36*
X0700700Y0631000D02*
X0697150D01*
Y0627250D01*
X0700700D01*
Y0631000D01*
D02*
G37*
G36*
X0531038Y0628500D02*
X0525000D01*
Y0622462D01*
X0525392Y0622500D01*
X0526731Y0622906D01*
X0527965Y0623566D01*
X0529046Y0624454D01*
X0529934Y0625535D01*
X0530593Y0626769D01*
X0531000Y0628108D01*
X0531038Y0628500D01*
D02*
G37*
G36*
X0546445Y0627554D02*
X0546361Y0627543D01*
X0545352Y0627125D01*
X0544485Y0626460D01*
X0543820Y0625593D01*
X0543402Y0624583D01*
X0543391Y0624500D01*
X0546445D01*
Y0627554D01*
D02*
G37*
G36*
X0688614Y0608631D02*
X0687990Y0608507D01*
X0687461Y0608153D01*
X0687107Y0607624D01*
X0686983Y0607000D01*
X0687107Y0606376D01*
X0687461Y0605847D01*
X0687990Y0605493D01*
X0688614Y0605369D01*
X0689239Y0605493D01*
X0689768Y0605847D01*
X0690121Y0606376D01*
X0690245Y0607000D01*
X0690121Y0607624D01*
X0689768Y0608153D01*
X0689239Y0608507D01*
X0688614Y0608631D01*
D02*
G37*
G36*
X0523000Y0628500D02*
X0516962D01*
X0517000Y0628108D01*
X0517407Y0626769D01*
X0518066Y0625535D01*
X0518954Y0624454D01*
X0520035Y0623566D01*
X0521269Y0622906D01*
X0522608Y0622500D01*
X0523000Y0622462D01*
Y0628500D01*
D02*
G37*
G36*
X0537110Y0596000D02*
X0535870D01*
Y0594366D01*
X0537110D01*
Y0596000D01*
D02*
G37*
G36*
X0548445Y0627554D02*
Y0624500D01*
X0551499D01*
X0551488Y0624583D01*
X0551070Y0625593D01*
X0550405Y0626460D01*
X0549538Y0627125D01*
X0548528Y0627543D01*
X0548445Y0627554D01*
D02*
G37*
G36*
X0699995Y0581812D02*
X0699370Y0581688D01*
X0698841Y0581334D01*
X0698487Y0580805D01*
X0698363Y0580181D01*
X0698487Y0579556D01*
X0698841Y0579027D01*
X0699370Y0578674D01*
X0699995Y0578549D01*
X0700619Y0578674D01*
X0701148Y0579027D01*
X0701502Y0579556D01*
X0701626Y0580181D01*
X0701502Y0580805D01*
X0701148Y0581334D01*
X0700619Y0581688D01*
X0699995Y0581812D01*
D02*
G37*
G36*
X0732500Y0578100D02*
X0731876Y0577976D01*
X0731347Y0577622D01*
X0730993Y0577093D01*
X0730869Y0576468D01*
X0730993Y0575844D01*
X0731347Y0575315D01*
X0731876Y0574961D01*
X0732500Y0574837D01*
X0733124Y0574961D01*
X0733654Y0575315D01*
X0734007Y0575844D01*
X0734132Y0576468D01*
X0734007Y0577093D01*
X0733654Y0577622D01*
X0733124Y0577976D01*
X0732500Y0578100D01*
D02*
G37*
%LPD*%
D10*
X0837059Y0568653D02*
D03*
X0831941D02*
D03*
X0834500Y0560347D02*
D03*
D11*
X0656000Y0560087D02*
D03*
Y0545913D02*
D03*
D12*
X0790500Y0546146D02*
D03*
Y0576854D02*
D03*
D13*
X0818600Y0564000D02*
D03*
X0826937Y0567800D02*
D03*
Y0560260D02*
D03*
D14*
X0781488Y0593000D02*
D03*
D15*
X0792512D02*
D03*
D16*
X0766500Y0590823D02*
D03*
Y0606177D02*
D03*
D17*
X0751512Y0592500D02*
D03*
X0740488D02*
D03*
X0751512Y0600500D02*
D03*
X0740488D02*
D03*
D18*
X0732114Y0587500D02*
D03*
X0728886D02*
D03*
X0680811Y0602000D02*
D03*
X0684039D02*
D03*
X0668311D02*
D03*
X0671539D02*
D03*
X0655811D02*
D03*
X0659039D02*
D03*
X0643311D02*
D03*
X0646539D02*
D03*
X0630811D02*
D03*
X0634039D02*
D03*
X0618311D02*
D03*
X0621539D02*
D03*
X0605811D02*
D03*
X0609039D02*
D03*
X0593311D02*
D03*
X0596539D02*
D03*
X0580811D02*
D03*
X0584039D02*
D03*
X0568386D02*
D03*
X0571614D02*
D03*
X0555886D02*
D03*
X0559114D02*
D03*
X0543386D02*
D03*
X0546614D02*
D03*
X0710386Y0598500D02*
D03*
X0713614D02*
D03*
X0781386Y0615500D02*
D03*
X0784614D02*
D03*
D19*
X0732272Y0592000D02*
D03*
X0728728D02*
D03*
X0720772Y0598500D02*
D03*
X0717228D02*
D03*
X0814728Y0609500D02*
D03*
X0818272D02*
D03*
Y0613000D02*
D03*
X0814728D02*
D03*
D20*
X0699000Y0590772D02*
D03*
Y0587228D02*
D03*
X0681000Y0606728D02*
D03*
Y0610272D02*
D03*
X0668500Y0606728D02*
D03*
Y0610272D02*
D03*
X0656000Y0606728D02*
D03*
Y0610272D02*
D03*
X0643500Y0606728D02*
D03*
Y0610272D02*
D03*
X0631000Y0606728D02*
D03*
Y0610272D02*
D03*
X0618500Y0606728D02*
D03*
Y0610272D02*
D03*
X0606000Y0606728D02*
D03*
Y0610272D02*
D03*
X0593500Y0606728D02*
D03*
Y0610272D02*
D03*
X0581000Y0606728D02*
D03*
Y0610272D02*
D03*
X0568500Y0606728D02*
D03*
Y0610272D02*
D03*
X0556000Y0606728D02*
D03*
Y0610272D02*
D03*
X0543500Y0606728D02*
D03*
Y0610272D02*
D03*
X0631386Y0541401D02*
D03*
Y0544944D02*
D03*
X0616360Y0544944D02*
D03*
Y0541401D02*
D03*
X0627886Y0541401D02*
D03*
Y0544944D02*
D03*
X0634889Y0541401D02*
D03*
Y0544944D02*
D03*
X0656000Y0569728D02*
D03*
Y0573272D02*
D03*
X0645360Y0544944D02*
D03*
Y0541401D02*
D03*
X0641886Y0544944D02*
D03*
Y0541401D02*
D03*
X0638386Y0544944D02*
D03*
Y0541401D02*
D03*
X0684500Y0606728D02*
D03*
Y0610272D02*
D03*
X0672000Y0606728D02*
D03*
Y0610272D02*
D03*
X0659500Y0606728D02*
D03*
Y0610272D02*
D03*
X0647000Y0606728D02*
D03*
Y0610272D02*
D03*
X0634500Y0606728D02*
D03*
Y0610272D02*
D03*
X0622000Y0606728D02*
D03*
Y0610272D02*
D03*
X0609500Y0606728D02*
D03*
Y0610272D02*
D03*
X0597000Y0606728D02*
D03*
Y0610272D02*
D03*
X0584500Y0606728D02*
D03*
Y0610272D02*
D03*
X0572000Y0606728D02*
D03*
Y0610272D02*
D03*
X0559500Y0606728D02*
D03*
Y0610272D02*
D03*
X0547000Y0606728D02*
D03*
Y0610272D02*
D03*
D21*
X0686012Y0561500D02*
D03*
X0674988D02*
D03*
X0686012Y0570500D02*
D03*
X0674988D02*
D03*
D22*
X0623360Y0541483D02*
D03*
Y0544712D02*
D03*
X0648860Y0544787D02*
D03*
Y0541558D02*
D03*
X0619860Y0541483D02*
D03*
Y0544712D02*
D03*
X0818500Y0603583D02*
D03*
Y0600354D02*
D03*
X0652000Y0569886D02*
D03*
Y0573114D02*
D03*
X0793000Y0609886D02*
D03*
Y0613114D02*
D03*
X0695500Y0587614D02*
D03*
Y0584386D02*
D03*
D23*
X0591650Y0554000D02*
D03*
X0585350D02*
D03*
X0591650Y0545500D02*
D03*
X0585350D02*
D03*
D24*
X0801000Y0601012D02*
D03*
D25*
Y0589988D02*
D03*
D26*
X0818500Y0581900D02*
D03*
X0822300Y0573563D02*
D03*
X0814760D02*
D03*
D27*
X0696929Y0609150D02*
D03*
Y0602850D02*
D03*
X0713071Y0609150D02*
D03*
Y0602850D02*
D03*
X0717929Y0609150D02*
D03*
Y0602850D02*
D03*
X0734071Y0609150D02*
D03*
Y0602850D02*
D03*
D28*
X0852504Y0612764D02*
D03*
Y0593236D02*
D03*
D29*
X0836224D02*
D03*
Y0612764D02*
D03*
D30*
X0664000Y0572437D02*
D03*
Y0559563D02*
D03*
D31*
X0602331Y0551213D02*
D03*
X0604299D02*
D03*
X0606268D02*
D03*
X0608236D02*
D03*
X0610205D02*
D03*
X0612173D02*
D03*
X0614142D02*
D03*
X0616110D02*
D03*
X0618079D02*
D03*
X0620047D02*
D03*
X0622016D02*
D03*
X0623984D02*
D03*
X0625953D02*
D03*
X0627921D02*
D03*
X0629890D02*
D03*
X0631858D02*
D03*
X0633827D02*
D03*
X0635795D02*
D03*
X0637764D02*
D03*
X0639732D02*
D03*
X0641701D02*
D03*
X0643669D02*
D03*
X0602331Y0577787D02*
D03*
X0604299D02*
D03*
X0606268D02*
D03*
X0608236D02*
D03*
X0610205D02*
D03*
X0612173D02*
D03*
X0614142D02*
D03*
X0616110D02*
D03*
X0618079D02*
D03*
X0620047D02*
D03*
X0622016D02*
D03*
X0623984D02*
D03*
X0625953D02*
D03*
X0627921D02*
D03*
X0629890D02*
D03*
X0631858D02*
D03*
X0633827D02*
D03*
X0635795D02*
D03*
X0637764D02*
D03*
X0639732D02*
D03*
X0641701D02*
D03*
X0643669D02*
D03*
D32*
X0830839Y0610965D02*
D03*
X0828279D02*
D03*
X0825721D02*
D03*
X0823161D02*
D03*
X0830839Y0594035D02*
D03*
X0828279D02*
D03*
X0825721D02*
D03*
X0823161D02*
D03*
D33*
X0788898Y0605031D02*
D03*
Y0607000D02*
D03*
Y0608968D02*
D03*
Y0610937D02*
D03*
X0781102D02*
D03*
Y0608968D02*
D03*
Y0607000D02*
D03*
Y0605031D02*
D03*
Y0603063D02*
D03*
X0788898D02*
D03*
D34*
X0785000Y0607000D02*
D03*
D35*
X0732355Y0560827D02*
D03*
X0697155D02*
D03*
D36*
X0705535Y0592339D02*
D03*
Y0589780D02*
D03*
Y0587220D02*
D03*
Y0584661D02*
D03*
X0722465Y0592339D02*
D03*
Y0589780D02*
D03*
Y0587220D02*
D03*
Y0584661D02*
D03*
D37*
X0684390Y0597000D02*
D03*
X0675610D02*
D03*
X0671890Y0597000D02*
D03*
X0663110D02*
D03*
X0659390Y0597000D02*
D03*
X0650610D02*
D03*
X0646890D02*
D03*
X0638110D02*
D03*
X0634390D02*
D03*
X0625610D02*
D03*
X0621890Y0597000D02*
D03*
X0613110D02*
D03*
X0609390Y0597000D02*
D03*
X0600610D02*
D03*
X0596890Y0597000D02*
D03*
X0588110D02*
D03*
X0584390D02*
D03*
X0575610D02*
D03*
X0571890Y0597000D02*
D03*
X0563110D02*
D03*
X0559390Y0597000D02*
D03*
X0550610D02*
D03*
X0546890Y0597000D02*
D03*
X0538110D02*
D03*
D38*
X0712500Y0632000D02*
D03*
X0722500D02*
D03*
D39*
X0701700D02*
D03*
X0733248D02*
D03*
D40*
X0714900Y0621500D02*
D03*
X0717500D02*
D03*
X0720059D02*
D03*
X0712300D02*
D03*
X0722618D02*
D03*
D41*
X0539000Y0609150D02*
D03*
Y0602850D02*
D03*
X0551500Y0609150D02*
D03*
Y0602850D02*
D03*
X0564000Y0609150D02*
D03*
Y0602850D02*
D03*
X0576500Y0609150D02*
D03*
Y0602850D02*
D03*
X0589000Y0609150D02*
D03*
Y0602850D02*
D03*
X0601500Y0609150D02*
D03*
Y0602850D02*
D03*
X0614000Y0609150D02*
D03*
Y0602850D02*
D03*
X0626500Y0609150D02*
D03*
Y0602850D02*
D03*
X0639000Y0609150D02*
D03*
Y0602850D02*
D03*
X0651500Y0609150D02*
D03*
Y0602850D02*
D03*
X0664000Y0609150D02*
D03*
Y0602850D02*
D03*
X0676500Y0609150D02*
D03*
Y0602850D02*
D03*
D42*
X0743142Y0547000D02*
D03*
X0760858D02*
D03*
D43*
X0845240Y0558000D02*
D03*
X0837760D02*
D03*
D44*
X0764500Y0565791D02*
D03*
Y0577209D02*
D03*
D45*
X0742000Y0557549D02*
D03*
X0747000D02*
D03*
X0752000D02*
D03*
X0757000D02*
D03*
X0742000Y0577451D02*
D03*
X0747000D02*
D03*
X0752000D02*
D03*
X0757000D02*
D03*
D46*
X0623238Y0541401D02*
X0623360Y0541523D01*
X0616360Y0541401D02*
X0623238D01*
X0577500Y0551000D02*
Y0568500D01*
X0620047Y0544860D02*
Y0551213D01*
X0619860Y0544672D02*
X0620047Y0544860D01*
X0646500Y0602000D02*
X0647000Y0602500D01*
X0584000Y0602000D02*
X0584500Y0602500D01*
X0643669Y0551213D02*
Y0564331D01*
Y0546685D02*
Y0551213D01*
X0610205Y0546799D02*
Y0551213D01*
X0546500Y0602000D02*
X0547000Y0602500D01*
X0651363Y0602457D02*
X0653000Y0600820D01*
X0622002Y0590791D02*
Y0597000D01*
X0621500Y0602000D02*
X0622000Y0602500D01*
X0588863Y0602488D02*
X0591000Y0600351D01*
X0648663Y0541401D02*
X0648860Y0541598D01*
X0625953Y0551213D02*
X0627921D01*
X0638386Y0541401D02*
X0648663D01*
X0627599D02*
X0638386D01*
X0625953Y0546953D02*
Y0551213D01*
X0631858Y0545416D02*
Y0551213D01*
X0676363Y0602457D02*
X0678000Y0600820D01*
X0613863Y0602488D02*
X0615500Y0600851D01*
X0609000Y0602000D02*
X0609500Y0602500D01*
X0609502Y0597000D02*
Y0597063D01*
X0637764Y0545566D02*
Y0551213D01*
Y0565236D01*
X0633827Y0546006D02*
Y0551213D01*
X0551224Y0602394D02*
X0553500Y0600117D01*
X0608236Y0547093D02*
Y0551213D01*
X0572002Y0590498D02*
Y0597000D01*
X0571500Y0602000D02*
X0572000Y0602500D01*
X0684000Y0602000D02*
X0684500Y0602500D01*
X0684000Y0602000D02*
X0684390Y0601610D01*
X0674400Y0586900D02*
X0684502Y0597002D01*
X0576363Y0602457D02*
X0578500Y0600320D01*
X0629890Y0547282D02*
Y0551213D01*
X0637764Y0573736D02*
Y0577787D01*
X0652000Y0573075D02*
X0652197Y0573272D01*
X0671500Y0602000D02*
X0672000Y0602500D01*
X0663863Y0602457D02*
X0665500Y0600820D01*
X0633367Y0595927D02*
X0634502Y0597063D01*
X0634000Y0602000D02*
X0634500Y0602500D01*
X0616110Y0545194D02*
Y0551213D01*
X0618079D01*
X0559000Y0602000D02*
X0559500Y0602500D01*
X0606268Y0547387D02*
Y0551213D01*
X0601363Y0602457D02*
X0603500Y0600320D01*
X0597002Y0597000D02*
Y0597094D01*
X0596500Y0602000D02*
X0597000Y0602500D01*
X0639732Y0547098D02*
Y0551213D01*
X0623984Y0545297D02*
Y0551213D01*
X0623360Y0544672D02*
X0623984Y0545297D01*
X0622016Y0551213D02*
X0623984D01*
X0538863Y0601523D02*
Y0602457D01*
X0612173Y0546504D02*
Y0551213D01*
X0651639Y0589200D02*
X0659502Y0597063D01*
X0659000Y0602000D02*
X0659500Y0602500D01*
X0626363Y0602457D02*
X0628000Y0600820D01*
X0604299Y0547681D02*
Y0551213D01*
X0563863Y0602457D02*
X0566000Y0600320D01*
X0676188Y0577400D02*
X0693113Y0594324D01*
X0660500Y0579500D02*
X0662600Y0577400D01*
X0676188D01*
X0660890Y0586000D02*
X0671890Y0597000D01*
X0635314Y0586000D02*
X0660890D01*
X0665500Y0594960D02*
Y0600820D01*
X0634651Y0587600D02*
X0658140D01*
X0665500Y0594960D01*
X0636639Y0582800D02*
X0663588D01*
X0635976Y0584400D02*
X0662925D01*
X0667688Y0586900D02*
X0674400D01*
X0663588Y0582800D02*
X0667688Y0586900D01*
X0667026Y0588500D02*
X0671540D01*
X0662925Y0584400D02*
X0667026Y0588500D01*
X0671540D02*
X0678000Y0594960D01*
X0663500Y0579500D02*
X0676025D01*
X0668500Y0584500D02*
X0676500D01*
X0666000Y0582000D02*
X0676263D01*
X0676500Y0584500D02*
X0691282Y0599282D01*
X0676263Y0582000D02*
X0691945Y0597682D01*
X0671890Y0597000D02*
X0671890Y0597000D01*
X0671500Y0597390D02*
X0671890Y0597000D01*
X0671890D02*
X0671939D01*
X0671890D02*
X0671890D01*
X0710863Y0614500D02*
X0718000D01*
X0707000Y0602000D02*
Y0610637D01*
X0711525Y0612900D02*
X0716630D01*
X0709600Y0610975D02*
X0711525Y0612900D01*
X0709600Y0602000D02*
Y0610975D01*
X0707000Y0610637D02*
X0710863Y0614500D01*
X0717130Y0612400D02*
X0718870D01*
X0716630Y0612900D02*
X0717130Y0612400D01*
X0837278Y0586833D02*
X0837600D01*
X0827544Y0577100D02*
X0837278Y0586833D01*
X0825044Y0577100D02*
X0827544D01*
X0825044Y0577100D02*
X0825044Y0577100D01*
X0806800Y0577100D02*
X0825044D01*
X0730900Y0619100D02*
X0794900D01*
X0723500Y0626500D02*
X0730900Y0619100D01*
X0710000Y0626500D02*
X0723500D01*
X0807000Y0573500D02*
X0815000D01*
X0800500Y0580000D02*
Y0582500D01*
X0798500Y0584500D02*
X0800500Y0582500D01*
X0784500Y0584500D02*
X0798500D01*
X0800500Y0580000D02*
X0807000Y0573500D01*
X0717429Y0597429D02*
Y0601350D01*
X0716000Y0596000D02*
X0717429Y0597429D01*
X0828800Y0555800D02*
X0831000Y0558000D01*
X0811863Y0555800D02*
X0828800D01*
X0831000Y0558000D02*
Y0562556D01*
X0810563Y0554500D02*
X0811863Y0555800D01*
X0831000Y0562556D02*
X0836972Y0568528D01*
X0824077Y0557400D02*
X0826937Y0560260D01*
X0810400Y0557400D02*
X0824077D01*
X0543500Y0610272D02*
X0547000D01*
X0818500Y0603583D02*
X0820852D01*
X0818500Y0600354D02*
X0822146D01*
X0816646D02*
X0818500D01*
X0822146D02*
X0825721Y0596779D01*
X0807500Y0609500D02*
X0816646Y0600354D01*
X0820852Y0603583D02*
X0825721Y0608452D01*
X0633138Y0570638D02*
X0651287D01*
X0620051Y0557551D02*
X0633138Y0570638D01*
X0618917Y0557551D02*
X0620051D01*
X0825721Y0594035D02*
Y0596779D01*
X0822900Y0617100D02*
X0825721Y0614280D01*
Y0610965D02*
Y0614280D01*
X0834425Y0610965D02*
X0836224Y0612764D01*
X0830839Y0610965D02*
X0834425D01*
X0835425Y0594035D02*
X0836224Y0593236D01*
X0830839Y0594035D02*
X0835425D01*
X0616110Y0551213D02*
Y0554744D01*
X0618917Y0557551D01*
X0590475Y0594000D02*
X0602331Y0582144D01*
X0581863Y0594000D02*
X0590475D01*
X0578500Y0597363D02*
X0581863Y0594000D01*
X0603500Y0598000D02*
Y0600320D01*
Y0598000D02*
X0610205Y0591295D01*
X0591000Y0598000D02*
Y0600351D01*
Y0598000D02*
X0606268Y0582732D01*
X0578500Y0597363D02*
Y0600320D01*
X0553500Y0597000D02*
Y0600117D01*
Y0597000D02*
X0556234Y0594266D01*
X0541061Y0597439D02*
Y0599439D01*
Y0597439D02*
X0547434Y0591066D01*
X0655713Y0623500D02*
X0668500Y0610713D01*
X0645870Y0623500D02*
X0656000Y0613370D01*
X0636028Y0623500D02*
X0643500Y0616028D01*
X0626185Y0623500D02*
X0631000Y0618685D01*
X0616342Y0623500D02*
X0618500Y0621343D01*
X0606500Y0623500D02*
X0609500Y0620500D01*
X0596658Y0623500D02*
X0597000Y0623158D01*
X0584500Y0621185D02*
X0586815Y0623500D01*
X0572000Y0618528D02*
X0576972Y0623500D01*
X0559500Y0615870D02*
X0567130Y0623500D01*
X0547000Y0613213D02*
X0557287Y0623500D01*
X0678000Y0594960D02*
Y0600820D01*
X0653000Y0594910D02*
Y0600820D01*
X0648889Y0590800D02*
X0653000Y0594910D01*
X0646890Y0597000D02*
Y0597000D01*
X0646500Y0597390D02*
X0646890Y0597000D01*
X0642290Y0592400D02*
X0646890Y0597000D01*
X0650610D01*
X0632663Y0592400D02*
X0642290D01*
X0639000Y0602244D02*
X0640500Y0600744D01*
Y0594910D02*
Y0600744D01*
X0639590Y0594000D02*
X0640500Y0594910D01*
X0638863Y0602381D02*
Y0602457D01*
Y0602381D02*
X0639000Y0602244D01*
X0628000Y0594525D02*
Y0600820D01*
X0618079Y0584604D02*
X0628000Y0594525D01*
X0612173Y0597000D02*
X0613110D01*
X0609565D02*
X0612173D01*
Y0577787D02*
Y0597000D01*
X0615500Y0586551D02*
Y0600851D01*
X0614142Y0585193D02*
X0615500Y0586551D01*
X0589737Y0597000D02*
X0604299Y0582438D01*
X0588110Y0597000D02*
X0589737D01*
X0608236Y0577787D02*
Y0589374D01*
X0600610Y0597000D02*
X0608236Y0589374D01*
X0584502Y0597063D02*
X0584565Y0597000D01*
X0588110D01*
X0547065Y0597000D02*
X0550610D01*
X0546939D02*
X0547065D01*
X0550610D02*
X0554944Y0592666D01*
X0547002Y0597063D02*
X0547065Y0597000D01*
X0546500Y0597390D02*
Y0602000D01*
Y0597390D02*
X0546890Y0597000D01*
X0559439D02*
X0563110D01*
X0559000Y0597390D02*
Y0602000D01*
Y0597390D02*
X0559390Y0597000D01*
X0572002Y0597000D02*
Y0597063D01*
X0571500Y0602000D02*
Y0602000D01*
Y0597390D02*
Y0602000D01*
X0572002Y0597000D02*
X0575610D01*
X0571939D02*
X0572002D01*
X0571500Y0597390D02*
X0571890Y0597000D01*
X0584000Y0602000D02*
Y0602000D01*
Y0597390D02*
Y0602000D01*
X0584439Y0597000D02*
X0584565D01*
X0584000Y0597390D02*
X0584390Y0597000D01*
X0597002D02*
X0600610D01*
X0596939D02*
X0597002D01*
X0596500Y0597390D02*
Y0602000D01*
Y0597390D02*
X0596890Y0597000D01*
X0609502D02*
X0609565D01*
X0609439D02*
X0609502D01*
Y0596400D02*
Y0597000D01*
Y0597063D02*
X0609565Y0597000D01*
X0609000Y0597390D02*
Y0602000D01*
Y0597390D02*
X0609390Y0597000D01*
X0622002Y0597000D02*
X0625610D01*
X0621939D02*
X0622002D01*
X0621500Y0602000D02*
Y0602000D01*
Y0597390D02*
Y0602000D01*
X0622002Y0597000D02*
Y0597094D01*
X0621500Y0597390D02*
X0621890Y0597000D01*
X0634000Y0602000D02*
Y0602000D01*
Y0597390D02*
Y0602000D01*
X0634439Y0597000D02*
X0638110D01*
X0634000Y0597390D02*
X0634390Y0597000D01*
X0646500Y0602000D02*
Y0602000D01*
Y0597390D02*
Y0602000D01*
X0659439Y0597000D02*
X0663110D01*
X0659000Y0597390D02*
Y0602000D01*
Y0597390D02*
X0659390Y0597000D01*
X0671500Y0597390D02*
Y0602000D01*
X0671939Y0597000D02*
X0675610D01*
X0671939D02*
X0672002Y0597063D01*
X0671890Y0597000D02*
X0671890Y0597000D01*
X0556000Y0610272D02*
X0559500D01*
X0568500D02*
X0572000D01*
X0581000D02*
X0584500D01*
X0593500D02*
X0597000D01*
X0606000D02*
X0609500D01*
X0618500D02*
X0622000D01*
X0631000D02*
X0634500D01*
X0643500D02*
X0647000D01*
X0656000D02*
X0659500D01*
X0668500D02*
X0672000D01*
X0681000D02*
X0684500D01*
X0684390Y0597000D02*
Y0601610D01*
X0635795Y0551213D02*
Y0554744D01*
X0634039Y0556500D02*
X0635795Y0554744D01*
X0629500Y0556500D02*
X0634039D01*
X0627921Y0554921D02*
X0629500Y0556500D01*
X0627921Y0551213D02*
Y0554921D01*
X0625703Y0546703D02*
X0625953Y0546953D01*
X0625703Y0543297D02*
Y0546703D01*
Y0543297D02*
X0627599Y0541401D01*
X0616110Y0545194D02*
X0616360Y0544944D01*
X0643669Y0546685D02*
X0644069Y0546286D01*
Y0546235D02*
Y0546286D01*
Y0546235D02*
X0645360Y0544944D01*
X0640569Y0546261D02*
X0641886Y0544944D01*
X0640569Y0546261D02*
Y0546286D01*
X0639924Y0546930D02*
X0640569Y0546286D01*
X0639900Y0546930D02*
X0639924D01*
X0639732Y0547098D02*
X0639900Y0546930D01*
X0637764Y0545566D02*
X0638386Y0544944D01*
X0633827Y0546006D02*
X0634889Y0544944D01*
X0631386D02*
X0631858Y0545416D01*
X0627886Y0545278D02*
X0629890Y0547282D01*
X0627886Y0544944D02*
Y0545278D01*
X0635795Y0581956D02*
X0636639Y0582800D01*
X0635795Y0577787D02*
Y0581956D01*
X0633827Y0582250D02*
X0635976Y0584400D01*
X0633827Y0577787D02*
Y0582250D01*
X0631858Y0582545D02*
X0635314Y0586000D01*
X0631858Y0577787D02*
Y0582545D01*
X0629890Y0582839D02*
X0634651Y0587600D01*
X0629890Y0577787D02*
Y0582839D01*
X0627921Y0583133D02*
X0633988Y0589200D01*
X0627921Y0577787D02*
Y0583133D01*
X0625953Y0577787D02*
Y0583427D01*
X0633325Y0590800D01*
X0623984Y0583721D02*
X0632663Y0592400D01*
X0623984Y0577787D02*
Y0583721D01*
X0622016Y0577787D02*
Y0584016D01*
X0632000Y0594000D01*
X0620047Y0584310D02*
X0631665Y0595927D01*
X0620047Y0577787D02*
Y0584310D01*
X0618079Y0577787D02*
Y0584604D01*
X0616110Y0577787D02*
Y0584898D01*
X0622002Y0590791D01*
X0614142Y0577787D02*
Y0585193D01*
X0610205Y0577787D02*
Y0591295D01*
X0606268Y0577787D02*
Y0582732D01*
X0604299Y0577787D02*
Y0582438D01*
X0602331Y0577787D02*
Y0582144D01*
X0676025Y0579500D02*
X0692450Y0595924D01*
X0693113Y0594324D02*
X0710582D01*
X0692450Y0595924D02*
X0711952D01*
X0691945Y0597682D02*
X0699945D01*
X0691282Y0599282D02*
X0699282D01*
X0620047Y0555451D02*
X0620096Y0555500D01*
X0620047Y0555451D02*
X0620047Y0555451D01*
X0620047Y0551213D02*
Y0555451D01*
X0651287Y0570638D02*
X0652000Y0569925D01*
X0641701Y0566201D02*
X0644000Y0568500D01*
X0641701Y0551213D02*
Y0566201D01*
X0639732Y0567232D02*
X0641000Y0568500D01*
X0639732Y0551213D02*
Y0567232D01*
X0637387Y0565613D02*
X0637764Y0565236D01*
X0643669Y0564331D02*
X0644000Y0564000D01*
X0638553Y0572947D02*
X0652000D01*
X0637764Y0573736D02*
X0638553Y0572947D01*
X0652000D02*
Y0573075D01*
X0643992Y0569038D02*
X0644000Y0569030D01*
X0652197Y0573272D02*
X0656000D01*
X0722465Y0592339D02*
X0728390D01*
X0728728Y0592000D01*
X0732272Y0587657D02*
Y0592000D01*
X0732114Y0587500D02*
X0732272Y0587657D01*
X0728606Y0587220D02*
X0728886Y0587500D01*
X0722465Y0587220D02*
X0728606D01*
X0699000Y0587228D02*
X0705527D01*
X0705535Y0587220D01*
X0710470Y0599900D02*
X0712500Y0601930D01*
Y0602000D01*
X0710400Y0599900D02*
X0710470D01*
X0710386Y0599886D02*
X0710400Y0599900D01*
X0710386Y0598500D02*
Y0599886D01*
X0684502Y0597002D02*
Y0597063D01*
X0725500Y0599000D02*
Y0613000D01*
X0724000Y0614500D02*
X0725500Y0613000D01*
X0710092Y0592339D02*
X0711130Y0591300D01*
X0705535Y0592339D02*
X0710092D01*
X0711130Y0591300D02*
X0716800D01*
X0711407Y0593500D02*
X0714000D01*
X0710582Y0594324D02*
X0711407Y0593500D01*
X0714000D02*
X0714406D01*
X0711952Y0595924D02*
X0712000Y0595876D01*
X0716800Y0591300D02*
X0717839Y0592339D01*
X0722465D01*
X0710116Y0589884D02*
X0718000Y0582000D01*
X0706140Y0589884D02*
X0710116D01*
X0705924Y0590100D02*
X0706140Y0589884D01*
X0699945Y0597682D02*
X0704000Y0601737D01*
X0699282Y0599282D02*
X0701000Y0601000D01*
X0704000Y0601737D02*
Y0602000D01*
X0718870Y0612400D02*
X0720900Y0614430D01*
X0696058Y0612876D02*
X0696376D01*
X0701000Y0601000D02*
Y0602000D01*
X0785000Y0605500D02*
Y0607000D01*
X0784531Y0605031D02*
X0785000Y0605500D01*
X0781102Y0605031D02*
X0784531D01*
X0781102Y0615216D02*
X0781386Y0615500D01*
X0781102Y0610937D02*
Y0615216D01*
X0792083Y0608968D02*
X0793000Y0609886D01*
X0788898Y0608968D02*
X0792083D01*
X0802900Y0581000D02*
X0806800Y0577100D01*
X0808900Y0617100D02*
X0822900D01*
X0808000Y0618000D02*
X0808900Y0617100D01*
X0807500Y0615500D02*
X0815772D01*
X0805000Y0618000D02*
X0807500Y0615500D01*
X0802000Y0618000D02*
X0807000Y0613000D01*
X0799000Y0618000D02*
X0807500Y0609500D01*
X0807000Y0613000D02*
X0814728D01*
X0819965Y0594035D02*
X0823161D01*
X0807500Y0609500D02*
X0814728D01*
X0815772Y0615500D02*
X0818272Y0613000D01*
X0825721Y0610965D02*
X0828279D01*
X0825721Y0608452D02*
Y0610965D01*
Y0594035D02*
X0828279D01*
X0818272Y0609500D02*
Y0613000D01*
X0784000Y0584000D02*
X0784500Y0584500D01*
X0594172Y0547795D02*
X0594193Y0547774D01*
X0810563Y0554500D02*
X0810600D01*
X0808000Y0555000D02*
X0810400Y0557400D01*
X0808000Y0554500D02*
Y0555000D01*
X0538863Y0601523D02*
X0540947Y0599439D01*
X0541061D01*
X0631665Y0595927D02*
X0633367D01*
X0594193Y0544800D02*
Y0547774D01*
X0632000Y0594000D02*
X0639590D01*
X0633988Y0589200D02*
X0651639D01*
X0633325Y0590800D02*
X0648889D01*
X0794900Y0619100D02*
X0819965Y0594035D01*
X0729000Y0609272D02*
X0733949D01*
X0734071Y0609150D01*
X0718000Y0582000D02*
X0739216D01*
X0696376Y0612876D02*
X0710000Y0626500D01*
X0722465Y0584661D02*
X0756653D01*
X0602990Y0546373D02*
X0604299Y0547681D01*
X0601671Y0546373D02*
X0602990D01*
X0600593Y0547451D02*
X0601671Y0546373D01*
X0603653Y0544772D02*
X0606268Y0547387D01*
X0601009Y0544772D02*
X0603653D01*
X0598993Y0546788D02*
X0601009Y0544772D01*
X0604316Y0543173D02*
X0608236Y0547093D01*
X0600346Y0543173D02*
X0604316D01*
X0597393Y0546125D02*
X0600346Y0543173D01*
X0604979Y0541573D02*
X0610205Y0546799D01*
X0599683Y0541573D02*
X0604979D01*
X0595793Y0545462D02*
X0599683Y0541573D01*
X0605641Y0539972D02*
X0612173Y0546504D01*
X0594193Y0544800D02*
X0599020Y0539972D01*
X0605641D01*
X0602331Y0551213D02*
Y0560169D01*
X0600593Y0547451D02*
Y0559644D01*
X0598993Y0546788D02*
Y0558981D01*
X0597393Y0546125D02*
Y0558319D01*
X0595793Y0545462D02*
Y0557656D01*
X0594172Y0547795D02*
Y0557014D01*
X0566000Y0594237D02*
Y0600320D01*
X0547434Y0591066D02*
X0560120D01*
X0556234Y0594266D02*
X0561446D01*
X0554944Y0592666D02*
X0560783D01*
X0562922Y0595052D02*
Y0595866D01*
X0614142Y0551213D02*
Y0555358D01*
X0612500Y0557000D02*
X0614142Y0555358D01*
X0608500Y0557000D02*
X0612500D01*
X0560120Y0591066D02*
X0594172Y0557014D01*
X0560783Y0592666D02*
X0595793Y0557656D01*
X0561446Y0594266D02*
X0597393Y0558319D01*
X0562922Y0595052D02*
X0598993Y0558981D01*
X0566000Y0594237D02*
X0600593Y0559644D01*
X0572002Y0590498D02*
X0602331Y0560169D01*
X0575500Y0590000D02*
X0608500Y0557000D01*
X0643500Y0610272D02*
Y0616028D01*
X0559500Y0610272D02*
Y0615870D01*
X0572000Y0610272D02*
Y0618528D01*
X0609500Y0610272D02*
Y0620500D01*
X0618500Y0610272D02*
Y0621343D01*
X0656000Y0610272D02*
Y0613370D01*
X0547000Y0610272D02*
Y0613213D01*
X0584500Y0610272D02*
Y0621185D01*
X0668500Y0610272D02*
Y0610713D01*
X0597000Y0610272D02*
Y0623158D01*
X0631000Y0610272D02*
Y0618685D01*
X0684039Y0602000D02*
X0684500Y0602461D01*
Y0602500D01*
Y0606728D01*
X0672000Y0602500D02*
Y0606728D01*
X0659500Y0602500D02*
Y0606728D01*
X0647000Y0602500D02*
Y0606728D01*
X0634500Y0602500D02*
Y0606728D01*
X0622000Y0602500D02*
Y0606728D01*
X0609500Y0602500D02*
Y0606728D01*
X0597000Y0602500D02*
Y0606728D01*
X0584500Y0602500D02*
Y0606728D01*
X0572000Y0602500D02*
Y0606728D01*
X0559500Y0602500D02*
Y0606728D01*
X0547000Y0602500D02*
Y0606728D01*
X0539000Y0609150D02*
X0541421Y0606728D01*
X0543500D01*
X0551500Y0609150D02*
X0553921Y0606728D01*
X0556000D01*
X0564000Y0609150D02*
X0566421Y0606728D01*
X0568500D01*
X0576500Y0609150D02*
X0578921Y0606728D01*
X0581000D01*
X0589000Y0609150D02*
X0591421Y0606728D01*
X0593500D01*
X0601500Y0609150D02*
X0603921Y0606728D01*
X0606000D01*
X0614000Y0609150D02*
X0616421Y0606728D01*
X0618500D01*
X0626500Y0609150D02*
X0628921Y0606728D01*
X0631000D01*
X0639000Y0609150D02*
X0641421Y0606728D01*
X0643500D01*
X0651500Y0609150D02*
X0653921Y0606728D01*
X0656000D01*
X0664000Y0609150D02*
X0666421Y0606728D01*
X0668500D01*
X0676500Y0609150D02*
X0678921Y0606728D01*
X0681000D01*
X0667772Y0623500D02*
X0681000Y0610272D01*
X0665555Y0623500D02*
X0667772D01*
X0742000Y0577333D02*
Y0577451D01*
X0747000Y0577333D02*
Y0577451D01*
Y0579000D01*
X0742000Y0577451D02*
Y0579216D01*
X0739216Y0582000D02*
X0742000Y0579216D01*
X0756653Y0584661D02*
X0764500Y0576815D01*
D47*
X0740123Y0604600D02*
X0747900D01*
X0738000Y0606723D02*
X0740123Y0604600D01*
X0747900D02*
X0751512Y0600988D01*
X0722618Y0619559D02*
Y0621500D01*
Y0623500D01*
X0751512Y0600500D02*
Y0600988D01*
X0738000Y0606723D02*
Y0611500D01*
X0722618Y0619559D02*
X0725177Y0617000D01*
X0732500D01*
X0738000Y0611500D01*
D48*
X0656000Y0560087D02*
D03*
X0656000Y0545913D02*
D03*
D49*
X0751500Y0626500D02*
D03*
D50*
X0665555Y0623500D02*
D03*
X0655713D02*
D03*
X0645870D02*
D03*
X0636028D02*
D03*
X0626185D02*
D03*
X0616342D02*
D03*
X0606500D02*
D03*
X0596658D02*
D03*
X0586815D02*
D03*
X0576972D02*
D03*
X0567130D02*
D03*
X0557287D02*
D03*
X0547445D02*
D03*
X0543000Y0579748D02*
D03*
Y0571874D02*
D03*
Y0564000D02*
D03*
Y0556100D02*
D03*
Y0548200D02*
D03*
X0563063Y0547500D02*
D03*
X0570937D02*
D03*
X0688500Y0628937D02*
D03*
Y0621063D02*
D03*
X0563126Y0567500D02*
D03*
X0571000D02*
D03*
D51*
X0876500Y0547500D02*
D03*
Y0629500D02*
D03*
X0524000D02*
D03*
Y0547500D02*
D03*
D52*
X0582000Y0546000D02*
D03*
X0671000Y0555500D02*
D03*
X0674000D02*
D03*
X0671000Y0552500D02*
D03*
X0577500Y0568500D02*
D03*
X0677000Y0570000D02*
D03*
X0671000Y0564000D02*
D03*
X0674000Y0567000D02*
D03*
X0660500Y0579500D02*
D03*
X0668500Y0584500D02*
D03*
X0666000Y0582000D02*
D03*
X0663500Y0579500D02*
D03*
X0797500Y0551000D02*
D03*
X0800500D02*
D03*
X0803500D02*
D03*
X0800500Y0548000D02*
D03*
X0803500D02*
D03*
X0797500D02*
D03*
X0674000Y0564000D02*
D03*
X0677000Y0567000D02*
D03*
Y0564000D02*
D03*
X0734000Y0632000D02*
D03*
X0723000Y0621000D02*
D03*
Y0623500D02*
D03*
X0783500Y0566000D02*
D03*
X0555000Y0555500D02*
D03*
X0584500Y0590000D02*
D03*
X0745000Y0601000D02*
D03*
X0735000Y0599000D02*
D03*
X0738000Y0599500D02*
D03*
X0747000Y0596500D02*
D03*
X0747500Y0601000D02*
D03*
X0846000Y0579000D02*
D03*
X0843500Y0576500D02*
D03*
X0841000Y0574000D02*
D03*
X0858500Y0564000D02*
D03*
X0856000D02*
D03*
X0853500D02*
D03*
X0851000D02*
D03*
X0848500D02*
D03*
X0846000D02*
D03*
X0843500D02*
D03*
X0851000Y0576500D02*
D03*
X0846000Y0574000D02*
D03*
X0851000Y0571500D02*
D03*
X0843500Y0566500D02*
D03*
Y0569000D02*
D03*
Y0571500D02*
D03*
Y0574000D02*
D03*
X0846000Y0576500D02*
D03*
Y0571500D02*
D03*
Y0569000D02*
D03*
Y0566500D02*
D03*
X0848500D02*
D03*
Y0569000D02*
D03*
Y0571500D02*
D03*
Y0574000D02*
D03*
Y0576500D02*
D03*
Y0579000D02*
D03*
X0851000D02*
D03*
Y0574000D02*
D03*
Y0569000D02*
D03*
Y0566500D02*
D03*
X0853500D02*
D03*
Y0569000D02*
D03*
Y0571500D02*
D03*
Y0574000D02*
D03*
Y0576500D02*
D03*
Y0579000D02*
D03*
X0856000D02*
D03*
Y0576500D02*
D03*
Y0574000D02*
D03*
Y0571500D02*
D03*
Y0569000D02*
D03*
Y0566500D02*
D03*
X0858500D02*
D03*
Y0569000D02*
D03*
Y0571500D02*
D03*
Y0574000D02*
D03*
Y0576500D02*
D03*
Y0579000D02*
D03*
X0841000Y0571500D02*
D03*
Y0569000D02*
D03*
Y0566500D02*
D03*
Y0564000D02*
D03*
X0773500Y0612500D02*
D03*
X0770000D02*
D03*
X0766500D02*
D03*
X0763000D02*
D03*
X0753000Y0605000D02*
D03*
Y0608000D02*
D03*
Y0611000D02*
D03*
X0693500Y0601500D02*
D03*
X0732500Y0576468D02*
D03*
X0719886Y0573500D02*
D03*
Y0577000D02*
D03*
X0723114Y0573500D02*
D03*
Y0577000D02*
D03*
X0732500Y0573500D02*
D03*
X0762000Y0558228D02*
D03*
X0628457Y0562500D02*
D03*
X0628500Y0559000D02*
D03*
X0616272Y0562500D02*
D03*
X0617000Y0559000D02*
D03*
X0674000Y0544500D02*
D03*
X0671000D02*
D03*
X0668000D02*
D03*
X0665000D02*
D03*
Y0547500D02*
D03*
Y0552500D02*
D03*
X0674000Y0547500D02*
D03*
X0671000D02*
D03*
X0668000D02*
D03*
Y0552500D02*
D03*
X0674000D02*
D03*
X0677000Y0555500D02*
D03*
Y0558500D02*
D03*
X0674000D02*
D03*
X0671000D02*
D03*
X0802000Y0593000D02*
D03*
X0799000D02*
D03*
X0796000D02*
D03*
Y0596000D02*
D03*
X0793000Y0599000D02*
D03*
X0790000D02*
D03*
X0793000Y0587000D02*
D03*
X0790000D02*
D03*
X0793000Y0590000D02*
D03*
X0790000D02*
D03*
X0793000Y0593000D02*
D03*
X0790000D02*
D03*
X0786500Y0566000D02*
D03*
X0789500D02*
D03*
X0792500D02*
D03*
X0795500D02*
D03*
Y0569000D02*
D03*
X0792500D02*
D03*
X0789500D02*
D03*
X0786500D02*
D03*
Y0572000D02*
D03*
X0789500D02*
D03*
X0792500D02*
D03*
Y0575000D02*
D03*
X0789500D02*
D03*
X0786500D02*
D03*
X0789500Y0578000D02*
D03*
X0786500D02*
D03*
X0792500D02*
D03*
Y0581000D02*
D03*
X0789500D02*
D03*
X0786500D02*
D03*
X0863500Y0586000D02*
D03*
X0861000D02*
D03*
X0858500D02*
D03*
X0856000D02*
D03*
X0853500D02*
D03*
X0856000Y0598500D02*
D03*
Y0593500D02*
D03*
X0853500Y0588500D02*
D03*
Y0591000D02*
D03*
Y0593500D02*
D03*
Y0596000D02*
D03*
Y0598500D02*
D03*
Y0601000D02*
D03*
X0856000D02*
D03*
Y0596000D02*
D03*
Y0591000D02*
D03*
Y0588500D02*
D03*
X0858500D02*
D03*
Y0591000D02*
D03*
Y0593500D02*
D03*
Y0596000D02*
D03*
Y0598500D02*
D03*
Y0601000D02*
D03*
X0861000D02*
D03*
Y0598500D02*
D03*
Y0596000D02*
D03*
Y0593500D02*
D03*
Y0591000D02*
D03*
Y0588500D02*
D03*
X0863500D02*
D03*
Y0591000D02*
D03*
Y0593500D02*
D03*
Y0596000D02*
D03*
Y0598500D02*
D03*
Y0601000D02*
D03*
X0851000Y0586000D02*
D03*
X0848500D02*
D03*
X0846000D02*
D03*
X0843500D02*
D03*
Y0598500D02*
D03*
Y0593500D02*
D03*
X0841000Y0588500D02*
D03*
Y0591000D02*
D03*
Y0593500D02*
D03*
Y0596000D02*
D03*
Y0598500D02*
D03*
Y0601000D02*
D03*
X0843500D02*
D03*
Y0596000D02*
D03*
Y0591000D02*
D03*
Y0588500D02*
D03*
X0846000D02*
D03*
Y0591000D02*
D03*
Y0593500D02*
D03*
Y0596000D02*
D03*
Y0598500D02*
D03*
Y0601000D02*
D03*
X0848500D02*
D03*
Y0598500D02*
D03*
Y0596000D02*
D03*
Y0593500D02*
D03*
Y0591000D02*
D03*
Y0588500D02*
D03*
X0851000D02*
D03*
Y0591000D02*
D03*
Y0593500D02*
D03*
Y0596000D02*
D03*
Y0598500D02*
D03*
Y0601000D02*
D03*
Y0603500D02*
D03*
X0848500D02*
D03*
X0846000D02*
D03*
X0843500D02*
D03*
X0841000D02*
D03*
X0863500D02*
D03*
X0861000D02*
D03*
X0858500D02*
D03*
X0856000D02*
D03*
X0853500D02*
D03*
X0863500Y0583500D02*
D03*
X0861000D02*
D03*
X0828500Y0581500D02*
D03*
X0826000D02*
D03*
Y0584000D02*
D03*
X0828500D02*
D03*
X0831000D02*
D03*
X0826000Y0601000D02*
D03*
X0833500Y0606000D02*
D03*
X0826000Y0586500D02*
D03*
Y0589000D02*
D03*
X0828500Y0586500D02*
D03*
X0831000D02*
D03*
Y0589000D02*
D03*
X0828500D02*
D03*
X0833500Y0603500D02*
D03*
Y0601000D02*
D03*
X0826000Y0603500D02*
D03*
X0828500Y0601000D02*
D03*
X0831000D02*
D03*
Y0603500D02*
D03*
X0828500D02*
D03*
Y0606000D02*
D03*
X0831000D02*
D03*
X0828500Y0616000D02*
D03*
X0831000D02*
D03*
X0836000Y0542000D02*
D03*
Y0544500D02*
D03*
Y0547000D02*
D03*
Y0549500D02*
D03*
Y0552000D02*
D03*
X0821000D02*
D03*
Y0549500D02*
D03*
Y0547000D02*
D03*
Y0544500D02*
D03*
X0818500D02*
D03*
Y0547000D02*
D03*
Y0549500D02*
D03*
Y0552000D02*
D03*
X0816000D02*
D03*
Y0549500D02*
D03*
Y0547000D02*
D03*
Y0544500D02*
D03*
X0813500D02*
D03*
Y0547000D02*
D03*
Y0552000D02*
D03*
Y0549500D02*
D03*
Y0542000D02*
D03*
X0816000D02*
D03*
X0818500D02*
D03*
X0821000D02*
D03*
X0833500Y0552000D02*
D03*
Y0549500D02*
D03*
Y0547000D02*
D03*
Y0544500D02*
D03*
X0831000D02*
D03*
Y0547000D02*
D03*
Y0549500D02*
D03*
Y0552000D02*
D03*
X0828500D02*
D03*
Y0549500D02*
D03*
Y0547000D02*
D03*
Y0544500D02*
D03*
X0826000D02*
D03*
Y0547000D02*
D03*
Y0552000D02*
D03*
X0823500D02*
D03*
Y0549500D02*
D03*
Y0547000D02*
D03*
Y0544500D02*
D03*
X0826000Y0549500D02*
D03*
X0823500Y0542000D02*
D03*
X0826000D02*
D03*
X0828500D02*
D03*
X0831000D02*
D03*
X0833500D02*
D03*
X0688614Y0607000D02*
D03*
X0629272Y0570000D02*
D03*
X0598500Y0570886D02*
D03*
Y0574114D02*
D03*
X0539000Y0602244D02*
D03*
X0543350Y0602000D02*
D03*
X0551500Y0602244D02*
D03*
X0555850Y0602000D02*
D03*
X0564000Y0602244D02*
D03*
X0568350Y0602000D02*
D03*
X0576500Y0602244D02*
D03*
X0580850Y0602000D02*
D03*
X0589000Y0602244D02*
D03*
X0593350Y0602000D02*
D03*
X0601500Y0602244D02*
D03*
X0605850Y0602000D02*
D03*
X0614000Y0602244D02*
D03*
X0618350Y0602000D02*
D03*
X0626500Y0602244D02*
D03*
X0630850Y0602000D02*
D03*
X0639000Y0602244D02*
D03*
X0643350Y0602000D02*
D03*
X0651500Y0602244D02*
D03*
X0655850Y0602000D02*
D03*
X0664000Y0602244D02*
D03*
X0668350Y0602000D02*
D03*
X0680850D02*
D03*
X0676500Y0602244D02*
D03*
X0648860Y0544747D02*
D03*
X0813500Y0619500D02*
D03*
X0816000D02*
D03*
X0818500D02*
D03*
X0821000D02*
D03*
X0823500D02*
D03*
X0826000D02*
D03*
X0828500D02*
D03*
X0831000D02*
D03*
X0833500D02*
D03*
X0836000D02*
D03*
X0813500Y0622000D02*
D03*
X0816000D02*
D03*
X0818500D02*
D03*
X0821000D02*
D03*
X0823500D02*
D03*
X0826000D02*
D03*
X0828500D02*
D03*
X0831000D02*
D03*
X0833500D02*
D03*
X0836000D02*
D03*
X0813500Y0624500D02*
D03*
X0816000D02*
D03*
X0818500D02*
D03*
X0821000D02*
D03*
X0823500D02*
D03*
X0826000D02*
D03*
X0828500D02*
D03*
X0831000D02*
D03*
X0833500D02*
D03*
X0836000D02*
D03*
X0813500Y0627000D02*
D03*
X0816000D02*
D03*
X0818500D02*
D03*
X0821000D02*
D03*
X0823500D02*
D03*
X0826000D02*
D03*
X0828500D02*
D03*
X0831000D02*
D03*
X0833500D02*
D03*
X0836000D02*
D03*
X0813500Y0629500D02*
D03*
X0816000D02*
D03*
X0818500D02*
D03*
X0821000D02*
D03*
X0823500D02*
D03*
X0826000D02*
D03*
X0828500D02*
D03*
X0831000D02*
D03*
X0833500D02*
D03*
X0836000D02*
D03*
X0813500Y0632000D02*
D03*
X0816000D02*
D03*
X0818500D02*
D03*
X0821000D02*
D03*
X0823500D02*
D03*
X0826000D02*
D03*
X0828500D02*
D03*
X0831000D02*
D03*
X0833500D02*
D03*
X0836000D02*
D03*
Y0634500D02*
D03*
X0833500D02*
D03*
X0831000D02*
D03*
X0828500D02*
D03*
X0826000D02*
D03*
X0823500D02*
D03*
X0821000D02*
D03*
X0818500D02*
D03*
X0816000D02*
D03*
X0813500D02*
D03*
X0768000Y0582272D02*
D03*
Y0584500D02*
D03*
X0802000Y0597500D02*
D03*
X0799000D02*
D03*
X0796000Y0603500D02*
D03*
X0793000D02*
D03*
Y0606500D02*
D03*
X0796000Y0600500D02*
D03*
Y0606500D02*
D03*
X0799000Y0600500D02*
D03*
X0802000D02*
D03*
Y0603500D02*
D03*
X0799000D02*
D03*
Y0606500D02*
D03*
X0802000D02*
D03*
X0620047Y0555451D02*
D03*
X0637387Y0565613D02*
D03*
X0641000Y0568500D02*
D03*
X0644000D02*
D03*
Y0564000D02*
D03*
X0577500Y0551000D02*
D03*
X0729000Y0609272D02*
D03*
X0718886Y0610000D02*
D03*
X0722114D02*
D03*
X0713614Y0598500D02*
D03*
X0716000Y0596000D02*
D03*
X0714000Y0593500D02*
D03*
X0712000Y0595876D02*
D03*
X0704000Y0602000D02*
D03*
X0725545Y0589853D02*
D03*
X0736500Y0587500D02*
D03*
X0724000Y0614500D02*
D03*
X0721000D02*
D03*
X0718000D02*
D03*
X0717500Y0618500D02*
D03*
X0696058Y0612876D02*
D03*
X0701000Y0602000D02*
D03*
X0709600D02*
D03*
X0712500D02*
D03*
X0793000Y0613000D02*
D03*
Y0615500D02*
D03*
X0788500Y0611500D02*
D03*
X0725500Y0599000D02*
D03*
X0802900Y0584400D02*
D03*
Y0581000D02*
D03*
X0705114Y0615500D02*
D03*
X0694886D02*
D03*
X0808000Y0618000D02*
D03*
X0805000D02*
D03*
X0802000D02*
D03*
X0799000D02*
D03*
X0722500Y0632000D02*
D03*
X0720000Y0621500D02*
D03*
X0793000Y0596000D02*
D03*
X0790000D02*
D03*
X0781000D02*
D03*
X0784000D02*
D03*
Y0584000D02*
D03*
X0744000Y0596500D02*
D03*
X0741000D02*
D03*
X0738000D02*
D03*
X0739500Y0587500D02*
D03*
X0762000Y0564300D02*
D03*
X0756000Y0593000D02*
D03*
X0759000Y0596000D02*
D03*
Y0593000D02*
D03*
X0764000Y0582500D02*
D03*
X0762000Y0596000D02*
D03*
Y0593000D02*
D03*
X0765000Y0596000D02*
D03*
X0747000Y0614000D02*
D03*
X0744000D02*
D03*
X0741000D02*
D03*
Y0611000D02*
D03*
X0744000D02*
D03*
X0747000D02*
D03*
X0750000D02*
D03*
Y0608000D02*
D03*
X0747000D02*
D03*
X0744000D02*
D03*
X0741000D02*
D03*
X0765000Y0593000D02*
D03*
X0768000D02*
D03*
Y0596000D02*
D03*
X0771000Y0593000D02*
D03*
Y0596000D02*
D03*
X0774000D02*
D03*
X0759000Y0551000D02*
D03*
X0741000Y0599500D02*
D03*
X0810600Y0554500D02*
D03*
X0808000D02*
D03*
X0837600Y0586833D02*
D03*
X0731500Y0613000D02*
D03*
X0730500Y0603000D02*
D03*
X0688000Y0558500D02*
D03*
X0685500D02*
D03*
Y0556000D02*
D03*
X0688000D02*
D03*
X0699000Y0591000D02*
D03*
X0707000Y0602000D02*
D03*
X0699995Y0580181D02*
D03*
X0619728Y0545000D02*
D03*
X0623272D02*
D03*
X0613500Y0544500D02*
D03*
X0701700Y0632000D02*
D03*
X0712500Y0624000D02*
D03*
X0839500Y0633000D02*
D03*
X0842000D02*
D03*
X0844500D02*
D03*
X0847000D02*
D03*
Y0630500D02*
D03*
X0844500D02*
D03*
X0842000D02*
D03*
X0839500D02*
D03*
X0850500Y0552000D02*
D03*
Y0549500D02*
D03*
Y0547000D02*
D03*
Y0544500D02*
D03*
X0848000D02*
D03*
Y0547000D02*
D03*
Y0549500D02*
D03*
Y0552000D02*
D03*
X0845500D02*
D03*
Y0549500D02*
D03*
Y0547000D02*
D03*
Y0544500D02*
D03*
X0843000D02*
D03*
Y0547000D02*
D03*
Y0552000D02*
D03*
Y0549500D02*
D03*
Y0542000D02*
D03*
X0845500D02*
D03*
X0848000D02*
D03*
X0850500D02*
D03*
X0863000Y0552000D02*
D03*
Y0549500D02*
D03*
Y0547000D02*
D03*
Y0544500D02*
D03*
X0860500D02*
D03*
Y0547000D02*
D03*
Y0549500D02*
D03*
Y0552000D02*
D03*
X0858000D02*
D03*
Y0549500D02*
D03*
Y0547000D02*
D03*
Y0544500D02*
D03*
X0855500D02*
D03*
Y0547000D02*
D03*
Y0552000D02*
D03*
X0853000D02*
D03*
Y0549500D02*
D03*
Y0547000D02*
D03*
Y0544500D02*
D03*
X0855500Y0549500D02*
D03*
X0853000Y0542000D02*
D03*
X0855500D02*
D03*
X0858000D02*
D03*
X0860500D02*
D03*
X0863000D02*
D03*
X0840500D02*
D03*
Y0549500D02*
D03*
Y0552000D02*
D03*
Y0547000D02*
D03*
Y0544500D02*
D03*
X0581000Y0557500D02*
D03*
X0538110Y0597000D02*
D03*
X0575500Y0590000D02*
D03*
X0591500Y0545500D02*
D03*
Y0553500D02*
D03*
X0551772Y0572000D02*
D03*
Y0564000D02*
D03*
X0654500Y0545500D02*
D03*
X0657500D02*
D03*
M02*
