G04 Layer_Color=8421504*
%FSAX25Y25*%
%MOIN*%
G70*
G01*
G75*
%ADD10R,0.01772X0.03347*%
%ADD11R,0.04724X0.06299*%
%ADD12R,0.03937X0.12598*%
%ADD13R,0.03600X0.03200*%
%ADD14R,0.03740X0.09843*%
%ADD15R,0.03740X0.10236*%
G04:AMPARAMS|DCode=16|XSize=82.68mil|YSize=228.35mil|CornerRadius=41.34mil|HoleSize=0mil|Usage=FLASHONLY|Rotation=270.000|XOffset=0mil|YOffset=0mil|HoleType=Round|Shape=RoundedRectangle|*
%AMROUNDEDRECTD16*
21,1,0.08268,0.14567,0,0,270.0*
21,1,0.00000,0.22835,0,0,270.0*
1,1,0.08268,-0.07284,0.00000*
1,1,0.08268,-0.07284,0.00000*
1,1,0.08268,0.07284,0.00000*
1,1,0.08268,0.07284,0.00000*
%
%ADD16ROUNDEDRECTD16*%
%ADD17R,0.04331X0.04803*%
%ADD18R,0.01969X0.02047*%
%ADD19R,0.01772X0.02165*%
%ADD20R,0.02165X0.01772*%
%ADD21R,0.03740X0.06693*%
%ADD22R,0.02047X0.01969*%
%ADD23R,0.02756X0.03150*%
%ADD24R,0.09843X0.03740*%
%ADD25R,0.10236X0.03740*%
%ADD26R,0.03200X0.03600*%
%ADD27R,0.03543X0.03937*%
%ADD28R,0.22047X0.09606*%
%ADD29R,0.03504X0.09606*%
%ADD30R,0.04803X0.03583*%
%ADD31O,0.00984X0.07480*%
%ADD32O,0.01772X0.06299*%
%ADD33R,0.02756X0.01181*%
%ADD34R,0.03150X0.08189*%
%ADD35R,0.12300X0.13780*%
%ADD36O,0.07874X0.01772*%
%ADD37R,0.02480X0.03268*%
%ADD38R,0.07500X0.07500*%
%ADD39R,0.07100X0.07500*%
%ADD40R,0.01400X0.05600*%
%ADD41R,0.03150X0.02756*%
%ADD42R,0.09055X0.09055*%
%ADD43R,0.02756X0.05118*%
%ADD44R,0.06693X0.03543*%
%ADD45R,0.02205X0.04701*%
%ADD48R,0.06496X0.06299*%
G36*
X0777917Y0590626D02*
X0777917Y0590625D01*
X0777917Y0590238D01*
X0777766Y0589477D01*
X0777469Y0588761D01*
X0777038Y0588116D01*
X0776490Y0587568D01*
X0775845Y0587137D01*
X0775128Y0586840D01*
X0774368Y0586689D01*
X0773980D01*
X0759020Y0586689D01*
X0759020Y0586689D01*
X0758632Y0586689D01*
X0757871Y0586840D01*
X0757155Y0587137D01*
X0756510Y0587568D01*
X0755962Y0588116D01*
X0755531Y0588761D01*
X0755234Y0589478D01*
X0755083Y0590238D01*
X0755083Y0590626D01*
X0755082Y0594957D01*
X0777917D01*
X0777917Y0590626D01*
D02*
G37*
G36*
X0773981Y0610311D02*
X0774368Y0610311D01*
X0775129Y0610160D01*
X0775845Y0609863D01*
X0776490Y0609432D01*
X0777038Y0608884D01*
X0777469Y0608239D01*
X0777766Y0607522D01*
X0777917Y0606762D01*
Y0606374D01*
X0777917Y0606374D01*
X0777917Y0602043D01*
X0755083D01*
X0755083Y0606374D01*
X0755083Y0606762D01*
X0755234Y0607522D01*
X0755531Y0608239D01*
X0755962Y0608883D01*
X0756510Y0609432D01*
X0757155Y0609863D01*
X0757871Y0610160D01*
X0758632Y0610311D01*
X0759020Y0610311D01*
X0759020Y0610311D01*
X0773981Y0610311D01*
D02*
G37*
D10*
X0837059Y0568653D02*
D03*
X0831941D02*
D03*
X0834500Y0560347D02*
D03*
D11*
X0656000Y0560087D02*
D03*
Y0545913D02*
D03*
D12*
X0790500Y0546146D02*
D03*
Y0576854D02*
D03*
D13*
X0818600Y0564000D02*
D03*
X0826937Y0567800D02*
D03*
Y0560260D02*
D03*
D14*
X0781488Y0593000D02*
D03*
D15*
X0792512D02*
D03*
D16*
X0766500Y0590823D02*
D03*
Y0606177D02*
D03*
D17*
X0751512Y0592500D02*
D03*
X0740488D02*
D03*
X0751512Y0600500D02*
D03*
X0740488D02*
D03*
D18*
X0732114Y0587500D02*
D03*
X0728886D02*
D03*
X0680811Y0602000D02*
D03*
X0684039D02*
D03*
X0668311D02*
D03*
X0671539D02*
D03*
X0655811D02*
D03*
X0659039D02*
D03*
X0643311D02*
D03*
X0646539D02*
D03*
X0630811D02*
D03*
X0634039D02*
D03*
X0618311D02*
D03*
X0621539D02*
D03*
X0605811D02*
D03*
X0609039D02*
D03*
X0593311D02*
D03*
X0596539D02*
D03*
X0580811D02*
D03*
X0584039D02*
D03*
X0568386D02*
D03*
X0571614D02*
D03*
X0555886D02*
D03*
X0559114D02*
D03*
X0543386D02*
D03*
X0546614D02*
D03*
X0710386Y0598500D02*
D03*
X0713614D02*
D03*
X0781386Y0615500D02*
D03*
X0784614D02*
D03*
D19*
X0732272Y0592000D02*
D03*
X0728728D02*
D03*
X0720772Y0598500D02*
D03*
X0717228D02*
D03*
X0814728Y0609500D02*
D03*
X0818272D02*
D03*
Y0613000D02*
D03*
X0814728D02*
D03*
D20*
X0699000Y0590772D02*
D03*
Y0587228D02*
D03*
X0681000Y0606728D02*
D03*
Y0610272D02*
D03*
X0668500Y0606728D02*
D03*
Y0610272D02*
D03*
X0656000Y0606728D02*
D03*
Y0610272D02*
D03*
X0643500Y0606728D02*
D03*
Y0610272D02*
D03*
X0631000Y0606728D02*
D03*
Y0610272D02*
D03*
X0618500Y0606728D02*
D03*
Y0610272D02*
D03*
X0606000Y0606728D02*
D03*
Y0610272D02*
D03*
X0593500Y0606728D02*
D03*
Y0610272D02*
D03*
X0581000Y0606728D02*
D03*
Y0610272D02*
D03*
X0568500Y0606728D02*
D03*
Y0610272D02*
D03*
X0556000Y0606728D02*
D03*
Y0610272D02*
D03*
X0543500Y0606728D02*
D03*
Y0610272D02*
D03*
X0631386Y0541401D02*
D03*
Y0544944D02*
D03*
X0616360Y0544944D02*
D03*
Y0541401D02*
D03*
X0627886Y0541401D02*
D03*
Y0544944D02*
D03*
X0634889Y0541401D02*
D03*
Y0544944D02*
D03*
X0656000Y0569728D02*
D03*
Y0573272D02*
D03*
X0645360Y0544944D02*
D03*
Y0541401D02*
D03*
X0641886Y0544944D02*
D03*
Y0541401D02*
D03*
X0638386Y0544944D02*
D03*
Y0541401D02*
D03*
X0684500Y0606728D02*
D03*
Y0610272D02*
D03*
X0672000Y0606728D02*
D03*
Y0610272D02*
D03*
X0659500Y0606728D02*
D03*
Y0610272D02*
D03*
X0647000Y0606728D02*
D03*
Y0610272D02*
D03*
X0634500Y0606728D02*
D03*
Y0610272D02*
D03*
X0622000Y0606728D02*
D03*
Y0610272D02*
D03*
X0609500Y0606728D02*
D03*
Y0610272D02*
D03*
X0597000Y0606728D02*
D03*
Y0610272D02*
D03*
X0584500Y0606728D02*
D03*
Y0610272D02*
D03*
X0572000Y0606728D02*
D03*
Y0610272D02*
D03*
X0559500Y0606728D02*
D03*
Y0610272D02*
D03*
X0547000Y0606728D02*
D03*
Y0610272D02*
D03*
D21*
X0686012Y0561500D02*
D03*
X0674988D02*
D03*
X0686012Y0570500D02*
D03*
X0674988D02*
D03*
D22*
X0623360Y0541483D02*
D03*
Y0544712D02*
D03*
X0648860Y0544787D02*
D03*
Y0541558D02*
D03*
X0619860Y0541483D02*
D03*
Y0544712D02*
D03*
X0818500Y0603583D02*
D03*
Y0600354D02*
D03*
X0652000Y0569886D02*
D03*
Y0573114D02*
D03*
X0793000Y0609886D02*
D03*
Y0613114D02*
D03*
X0695500Y0587614D02*
D03*
Y0584386D02*
D03*
D23*
X0591650Y0554000D02*
D03*
X0585350D02*
D03*
X0591650Y0545500D02*
D03*
X0585350D02*
D03*
D24*
X0801000Y0601012D02*
D03*
D25*
Y0589988D02*
D03*
D26*
X0818500Y0581900D02*
D03*
X0822300Y0573563D02*
D03*
X0814760D02*
D03*
D27*
X0696929Y0609150D02*
D03*
Y0602850D02*
D03*
X0713071Y0609150D02*
D03*
Y0602850D02*
D03*
X0717929Y0609150D02*
D03*
Y0602850D02*
D03*
X0734071Y0609150D02*
D03*
Y0602850D02*
D03*
D28*
X0852504Y0612764D02*
D03*
Y0593236D02*
D03*
D29*
X0836224D02*
D03*
Y0612764D02*
D03*
D30*
X0664000Y0572437D02*
D03*
Y0559563D02*
D03*
D31*
X0602331Y0551213D02*
D03*
X0604299D02*
D03*
X0606268D02*
D03*
X0608236D02*
D03*
X0610205D02*
D03*
X0612173D02*
D03*
X0614142D02*
D03*
X0616110D02*
D03*
X0618079D02*
D03*
X0620047D02*
D03*
X0622016D02*
D03*
X0623984D02*
D03*
X0625953D02*
D03*
X0627921D02*
D03*
X0629890D02*
D03*
X0631858D02*
D03*
X0633827D02*
D03*
X0635795D02*
D03*
X0637764D02*
D03*
X0639732D02*
D03*
X0641701D02*
D03*
X0643669D02*
D03*
X0602331Y0577787D02*
D03*
X0604299D02*
D03*
X0606268D02*
D03*
X0608236D02*
D03*
X0610205D02*
D03*
X0612173D02*
D03*
X0614142D02*
D03*
X0616110D02*
D03*
X0618079D02*
D03*
X0620047D02*
D03*
X0622016D02*
D03*
X0623984D02*
D03*
X0625953D02*
D03*
X0627921D02*
D03*
X0629890D02*
D03*
X0631858D02*
D03*
X0633827D02*
D03*
X0635795D02*
D03*
X0637764D02*
D03*
X0639732D02*
D03*
X0641701D02*
D03*
X0643669D02*
D03*
D32*
X0830839Y0610965D02*
D03*
X0828279D02*
D03*
X0825721D02*
D03*
X0823161D02*
D03*
X0830839Y0594035D02*
D03*
X0828279D02*
D03*
X0825721D02*
D03*
X0823161D02*
D03*
D33*
X0788898Y0605031D02*
D03*
Y0607000D02*
D03*
Y0608968D02*
D03*
Y0610937D02*
D03*
X0781102D02*
D03*
Y0608968D02*
D03*
Y0607000D02*
D03*
Y0605031D02*
D03*
Y0603063D02*
D03*
X0788898D02*
D03*
D34*
X0785000Y0607000D02*
D03*
D35*
X0732355Y0560827D02*
D03*
X0697155D02*
D03*
D36*
X0705535Y0592339D02*
D03*
Y0589780D02*
D03*
Y0587220D02*
D03*
Y0584661D02*
D03*
X0722465Y0592339D02*
D03*
Y0589780D02*
D03*
Y0587220D02*
D03*
Y0584661D02*
D03*
D37*
X0684390Y0597000D02*
D03*
X0675610D02*
D03*
X0671890Y0597000D02*
D03*
X0663110D02*
D03*
X0659390Y0597000D02*
D03*
X0650610D02*
D03*
X0646890D02*
D03*
X0638110D02*
D03*
X0634390D02*
D03*
X0625610D02*
D03*
X0621890Y0597000D02*
D03*
X0613110D02*
D03*
X0609390Y0597000D02*
D03*
X0600610D02*
D03*
X0596890Y0597000D02*
D03*
X0588110D02*
D03*
X0584390D02*
D03*
X0575610D02*
D03*
X0571890Y0597000D02*
D03*
X0563110D02*
D03*
X0559390Y0597000D02*
D03*
X0550610D02*
D03*
X0546890Y0597000D02*
D03*
X0538110D02*
D03*
D38*
X0712500Y0632000D02*
D03*
X0722500D02*
D03*
D39*
X0701700D02*
D03*
X0733248D02*
D03*
D40*
X0714900Y0621500D02*
D03*
X0717500D02*
D03*
X0720059D02*
D03*
X0712300D02*
D03*
X0722618D02*
D03*
D41*
X0539000Y0609150D02*
D03*
Y0602850D02*
D03*
X0551500Y0609150D02*
D03*
Y0602850D02*
D03*
X0564000Y0609150D02*
D03*
Y0602850D02*
D03*
X0576500Y0609150D02*
D03*
Y0602850D02*
D03*
X0589000Y0609150D02*
D03*
Y0602850D02*
D03*
X0601500Y0609150D02*
D03*
Y0602850D02*
D03*
X0614000Y0609150D02*
D03*
Y0602850D02*
D03*
X0626500Y0609150D02*
D03*
Y0602850D02*
D03*
X0639000Y0609150D02*
D03*
Y0602850D02*
D03*
X0651500Y0609150D02*
D03*
Y0602850D02*
D03*
X0664000Y0609150D02*
D03*
Y0602850D02*
D03*
X0676500Y0609150D02*
D03*
Y0602850D02*
D03*
D42*
X0743142Y0547000D02*
D03*
X0760858D02*
D03*
D43*
X0845240Y0558000D02*
D03*
X0837760D02*
D03*
D44*
X0764500Y0565791D02*
D03*
Y0577209D02*
D03*
D45*
X0742000Y0557549D02*
D03*
X0747000D02*
D03*
X0752000D02*
D03*
X0757000D02*
D03*
X0742000Y0577451D02*
D03*
X0747000D02*
D03*
X0752000D02*
D03*
X0757000D02*
D03*
D48*
X0656000Y0560087D02*
D03*
X0656000Y0545913D02*
D03*
M02*
