G04 Layer_Physical_Order=1*
G04 Layer_Color=255*
%FSAX24Y24*%
%MOIN*%
G70*
G01*
G75*
%ADD10R,0.0320X0.0360*%
%ADD11R,0.0315X0.0906*%
%ADD12R,0.6750X0.1500*%
%ADD13R,0.0358X0.0480*%
%ADD14R,0.0630X0.0472*%
%ADD15R,0.0945X0.1024*%
%ADD16R,0.0984X0.0394*%
%ADD17R,0.0984X0.1299*%
%ADD18R,0.0492X0.1319*%
%ADD19R,0.0354X0.0276*%
%ADD20R,0.0276X0.0354*%
%ADD21R,0.4173X0.3465*%
%ADD22R,0.0413X0.1634*%
%ADD23R,0.0787X0.0787*%
%ADD24R,0.3150X0.4094*%
%ADD25R,0.1142X0.0394*%
%ADD26R,0.0354X0.0394*%
%ADD27R,0.0140X0.0580*%
G04:AMPARAMS|DCode=28|XSize=187mil|YSize=551.2mil|CornerRadius=93.5mil|HoleSize=0mil|Usage=FLASHONLY|Rotation=0.000|XOffset=0mil|YOffset=0mil|HoleType=Round|Shape=RoundedRectangle|*
%AMROUNDEDRECTD28*
21,1,0.1870,0.3642,0,0,0.0*
21,1,0.0000,0.5512,0,0,0.0*
1,1,0.1870,0.0000,-0.1821*
1,1,0.1870,0.0000,-0.1821*
1,1,0.1870,0.0000,0.1821*
1,1,0.1870,0.0000,0.1821*
%
%ADD28ROUNDEDRECTD28*%
%ADD29R,0.3340X0.2050*%
%ADD30R,0.0394X0.1260*%
%ADD31R,0.0950X0.1110*%
%ADD32R,0.0360X0.0320*%
%ADD33O,0.0098X0.0748*%
%ADD34O,0.0276X0.0984*%
%ADD35R,0.1024X0.0413*%
%ADD36R,0.0413X0.0177*%
%ADD37R,0.1079X0.2390*%
%ADD38R,0.1260X0.0394*%
%ADD39R,0.3465X0.4173*%
%ADD40R,0.1634X0.0413*%
%ADD41R,0.1122X0.0492*%
%ADD42R,0.2480X0.2185*%
%ADD43C,0.0150*%
%ADD44C,0.0100*%
%ADD45C,0.0500*%
%ADD46R,0.0630X0.0650*%
%ADD47R,0.1100X0.3600*%
%ADD48R,0.1350X0.5100*%
%ADD49R,0.1200X0.2350*%
%ADD50C,0.0630*%
%ADD51C,0.0591*%
%ADD52R,0.0591X0.0591*%
%ADD53C,0.0800*%
%ADD54C,0.0570*%
%ADD55C,0.0420*%
%ADD56C,0.0500*%
G36*
X067650Y032450D02*
X067650Y010300D01*
X066800Y009450D01*
X019050D01*
X018100Y010400D01*
X018100Y032700D01*
X019350Y033950D01*
X066150Y033950D01*
X067650Y032450D01*
D02*
G37*
%LPC*%
G36*
X043747Y018315D02*
X043550D01*
Y017685D01*
X043747D01*
Y018315D01*
D02*
G37*
G36*
X043350D02*
X043153D01*
Y017685D01*
X043350D01*
Y018315D01*
D02*
G37*
G36*
X054273Y017750D02*
X054094D01*
Y017510D01*
X054273D01*
Y017750D01*
D02*
G37*
G36*
X047528Y018330D02*
X047458D01*
Y018289D01*
X046475D01*
Y017591D01*
X047458D01*
Y017550D01*
X047528D01*
Y017940D01*
Y018330D01*
D02*
G37*
G36*
X053894Y018190D02*
X053715D01*
Y017950D01*
X053894D01*
Y018190D01*
D02*
G37*
G36*
X032353Y011403D02*
X031880D01*
Y010891D01*
X032353D01*
Y011403D01*
D02*
G37*
G36*
X033950Y019047D02*
X033860Y019035D01*
X033776Y019001D01*
X033705Y018945D01*
X033649Y018874D01*
X033615Y018790D01*
X033603Y018700D01*
X033615Y018610D01*
X033649Y018526D01*
X033705Y018455D01*
X033776Y018399D01*
X033860Y018365D01*
X033950Y018353D01*
X034040Y018365D01*
X034124Y018399D01*
X034195Y018455D01*
X034251Y018526D01*
X034285Y018610D01*
X034297Y018700D01*
X034285Y018790D01*
X034251Y018874D01*
X034195Y018945D01*
X034124Y019001D01*
X034040Y019035D01*
X033950Y019047D01*
D02*
G37*
G36*
X054273Y018190D02*
X054094D01*
Y017950D01*
X054273D01*
Y018190D01*
D02*
G37*
G36*
X033025Y011403D02*
X032553D01*
Y010891D01*
X033025D01*
Y011403D01*
D02*
G37*
G36*
X038200Y017287D02*
Y017050D01*
X038437D01*
X038406Y017127D01*
X038350Y017200D01*
X038277Y017256D01*
X038200Y017287D01*
D02*
G37*
G36*
X044850Y011237D02*
X044773Y011206D01*
X044700Y011150D01*
X044644Y011077D01*
X044613Y011000D01*
X044850D01*
Y011237D01*
D02*
G37*
G36*
X038000Y017287D02*
X037923Y017256D01*
X037850Y017200D01*
X037794Y017127D01*
X037763Y017050D01*
X038000D01*
Y017287D01*
D02*
G37*
G36*
X051650Y017250D02*
X051413D01*
X051444Y017173D01*
X051500Y017100D01*
X051573Y017044D01*
X051650Y017013D01*
Y017250D01*
D02*
G37*
G36*
X052087D02*
X051850D01*
Y017013D01*
X051927Y017044D01*
X052000Y017100D01*
X052056Y017173D01*
X052087Y017250D01*
D02*
G37*
G36*
X038336Y019550D02*
X036761D01*
Y017503D01*
X038336D01*
Y019550D01*
D02*
G37*
G36*
X053894Y017750D02*
X053715D01*
Y017510D01*
X053894D01*
Y017750D01*
D02*
G37*
G36*
X036561Y019550D02*
X034987D01*
Y017503D01*
X036561D01*
Y019550D01*
D02*
G37*
G36*
X051650Y017687D02*
X051573Y017656D01*
X051500Y017600D01*
X051444Y017527D01*
X051413Y017450D01*
X051650D01*
Y017687D01*
D02*
G37*
G36*
X051850D02*
Y017450D01*
X052087D01*
X052056Y017527D01*
X052000Y017600D01*
X051927Y017656D01*
X051850Y017687D01*
D02*
G37*
G36*
X032950Y019850D02*
X032713D01*
X032744Y019773D01*
X032800Y019700D01*
X032873Y019644D01*
X032950Y019613D01*
Y019850D01*
D02*
G37*
G36*
X033387D02*
X033150D01*
Y019613D01*
X033227Y019644D01*
X033300Y019700D01*
X033356Y019773D01*
X033387Y019850D01*
D02*
G37*
G36*
X040243Y019550D02*
X039672D01*
Y019353D01*
X040243D01*
Y019550D01*
D02*
G37*
G36*
X028150Y010587D02*
Y010350D01*
X028387D01*
X028356Y010427D01*
X028300Y010500D01*
X028227Y010556D01*
X028150Y010587D01*
D02*
G37*
G36*
X033950Y020047D02*
X033860Y020035D01*
X033776Y020001D01*
X033705Y019945D01*
X033649Y019874D01*
X033615Y019790D01*
X033603Y019700D01*
X033615Y019610D01*
X033649Y019526D01*
X033705Y019455D01*
X033776Y019399D01*
X033860Y019365D01*
X033950Y019353D01*
X034040Y019365D01*
X034124Y019399D01*
X034195Y019455D01*
X034251Y019526D01*
X034285Y019610D01*
X034297Y019700D01*
X034285Y019790D01*
X034251Y019874D01*
X034195Y019945D01*
X034124Y020001D01*
X034040Y020035D01*
X033950Y020047D01*
D02*
G37*
G36*
X038336Y021797D02*
X036761D01*
Y019750D01*
X038336D01*
Y021797D01*
D02*
G37*
G36*
X031700Y020050D02*
X031463D01*
X031494Y019973D01*
X031550Y019900D01*
X031623Y019844D01*
X031700Y019813D01*
Y020050D01*
D02*
G37*
G36*
X036561Y021797D02*
X034987D01*
Y019750D01*
X036561D01*
Y021797D01*
D02*
G37*
G36*
X051950Y019900D02*
X051713D01*
X051744Y019823D01*
X051800Y019750D01*
X051873Y019694D01*
X051950Y019663D01*
Y019900D01*
D02*
G37*
G36*
X052387D02*
X052150D01*
Y019663D01*
X052227Y019694D01*
X052300Y019750D01*
X052356Y019823D01*
X052387Y019900D01*
D02*
G37*
G36*
X044850Y010800D02*
X044613D01*
X044644Y010723D01*
X044700Y010650D01*
X044773Y010594D01*
X044850Y010563D01*
Y010800D01*
D02*
G37*
G36*
X043557Y010978D02*
X043400D01*
Y010525D01*
X043557D01*
Y010978D01*
D02*
G37*
G36*
X045287Y010800D02*
X045050D01*
Y010563D01*
X045127Y010594D01*
X045200Y010650D01*
X045256Y010723D01*
X045287Y010800D01*
D02*
G37*
G36*
X043350Y019144D02*
X043153D01*
Y018515D01*
X043350D01*
Y019144D01*
D02*
G37*
G36*
X043747D02*
X043550D01*
Y018515D01*
X043747D01*
Y019144D01*
D02*
G37*
G36*
X048900Y019437D02*
X048823Y019406D01*
X048750Y019350D01*
X048694Y019277D01*
X048663Y019200D01*
X048900D01*
Y019437D01*
D02*
G37*
G36*
X049100D02*
Y019200D01*
X049337D01*
X049306Y019277D01*
X049250Y019350D01*
X049177Y019406D01*
X049100Y019437D01*
D02*
G37*
G36*
X049337Y019000D02*
X049100D01*
Y018763D01*
X049177Y018794D01*
X049250Y018850D01*
X049306Y018923D01*
X049337Y019000D01*
D02*
G37*
G36*
X043200Y010978D02*
X043043D01*
Y010525D01*
X043200D01*
Y010978D01*
D02*
G37*
G36*
X048900Y019000D02*
X048663D01*
X048694Y018923D01*
X048750Y018850D01*
X048823Y018794D01*
X048900Y018763D01*
Y019000D01*
D02*
G37*
G36*
X041100Y017037D02*
Y016800D01*
X041337D01*
X041306Y016877D01*
X041250Y016950D01*
X041177Y017006D01*
X041100Y017037D01*
D02*
G37*
G36*
X042187Y013750D02*
X041950D01*
Y013513D01*
X042027Y013544D01*
X042100Y013600D01*
X042156Y013673D01*
X042187Y013750D01*
D02*
G37*
G36*
X043200Y014100D02*
X043043D01*
Y013647D01*
X043200D01*
Y014100D01*
D02*
G37*
G36*
X062650Y013737D02*
Y013500D01*
X062887D01*
X062856Y013577D01*
X062800Y013650D01*
X062727Y013706D01*
X062650Y013737D01*
D02*
G37*
G36*
X041750Y013750D02*
X041513D01*
X041544Y013673D01*
X041600Y013600D01*
X041673Y013544D01*
X041750Y013513D01*
Y013750D01*
D02*
G37*
G36*
X043557Y014100D02*
X043400D01*
Y013647D01*
X043557D01*
Y014100D01*
D02*
G37*
G36*
X043200Y014753D02*
X043043D01*
Y014300D01*
X043200D01*
Y014753D01*
D02*
G37*
G36*
X043557D02*
X043400D01*
Y014300D01*
X043557D01*
Y014753D01*
D02*
G37*
G36*
X041750Y014187D02*
X041673Y014156D01*
X041600Y014100D01*
X041544Y014027D01*
X041513Y013950D01*
X041750D01*
Y014187D01*
D02*
G37*
G36*
X041950D02*
Y013950D01*
X042187D01*
X042156Y014027D01*
X042100Y014100D01*
X042027Y014156D01*
X041950Y014187D01*
D02*
G37*
G36*
X062450Y013737D02*
X062373Y013706D01*
X062300Y013650D01*
X062244Y013577D01*
X062213Y013500D01*
X062450D01*
Y013737D01*
D02*
G37*
G36*
Y013300D02*
X062213D01*
X062244Y013223D01*
X062300Y013150D01*
X062373Y013094D01*
X062450Y013063D01*
Y013300D01*
D02*
G37*
G36*
X062887D02*
X062650D01*
Y013063D01*
X062727Y013094D01*
X062800Y013150D01*
X062856Y013223D01*
X062887Y013300D01*
D02*
G37*
G36*
X027949Y013206D02*
X027457D01*
Y013009D01*
X027949D01*
Y013206D01*
D02*
G37*
G36*
X028641D02*
X028149D01*
Y013009D01*
X028641D01*
Y013206D01*
D02*
G37*
G36*
X034450Y013481D02*
X034056D01*
Y013087D01*
X034450D01*
Y013481D01*
D02*
G37*
G36*
X027800Y014412D02*
X027719Y014401D01*
X027644Y014370D01*
X027580Y014320D01*
X027530Y014256D01*
X027499Y014181D01*
X027488Y014100D01*
X027499Y014019D01*
X027517Y013975D01*
X026841Y013298D01*
X026779Y013297D01*
X026761Y013320D01*
X026697Y013370D01*
X026622Y013401D01*
X026541Y013412D01*
X026460Y013401D01*
X026385Y013370D01*
X026321Y013320D01*
X026271Y013256D01*
X026240Y013181D01*
X026232Y013118D01*
X026181Y013103D01*
X026132Y013167D01*
X026053Y013227D01*
X025962Y013264D01*
X025865Y013277D01*
X025767Y013264D01*
X025676Y013227D01*
X025598Y013167D01*
X025538Y013089D01*
X025500Y012998D01*
X025496Y012967D01*
X025446D01*
X025442Y012998D01*
X025404Y013089D01*
X025344Y013167D01*
X025266Y013227D01*
X025175Y013264D01*
X025077Y013277D01*
X024980Y013264D01*
X024889Y013227D01*
X024811Y013167D01*
X024751Y013089D01*
X024713Y012998D01*
X024709Y012967D01*
X024658D01*
X024654Y012998D01*
X024617Y013089D01*
X024557Y013167D01*
X024479Y013227D01*
X024388Y013264D01*
X024290Y013277D01*
X024192Y013264D01*
X024101Y013227D01*
X024023Y013167D01*
X023963Y013089D01*
X023926Y012998D01*
X023920Y012957D01*
X023870D01*
X023864Y012998D01*
X023827Y013089D01*
X023767Y013167D01*
X023689Y013227D01*
X023598Y013264D01*
X023500Y013277D01*
X023402Y013264D01*
X023311Y013227D01*
X023233Y013167D01*
X023173Y013089D01*
X023136Y012998D01*
X023130Y012957D01*
X023080D01*
X023074Y012998D01*
X023037Y013089D01*
X022977Y013167D01*
X022899Y013227D01*
X022808Y013264D01*
X022710Y013277D01*
X022612Y013264D01*
X022521Y013227D01*
X022443Y013167D01*
X022383Y013089D01*
X022346Y012998D01*
X022344Y012987D01*
X022294D01*
X022292Y012998D01*
X022255Y013089D01*
X022195Y013167D01*
X022116Y013227D01*
X022025Y013264D01*
X021928Y013277D01*
X021830Y013264D01*
X021739Y013227D01*
X021661Y013167D01*
X021601Y013089D01*
X021563Y012998D01*
X021559Y012967D01*
X021509D01*
X021505Y012998D01*
X021467Y013089D01*
X021407Y013167D01*
X021329Y013227D01*
X021238Y013264D01*
X021140Y013277D01*
X021043Y013264D01*
X020952Y013227D01*
X020874Y013167D01*
X020814Y013089D01*
X020776Y012998D01*
X020763Y012900D01*
X020776Y012802D01*
X020814Y012711D01*
X020874Y012633D01*
X020952Y012573D01*
X021043Y012536D01*
X021140Y012523D01*
X021238Y012536D01*
X021329Y012573D01*
X021407Y012633D01*
X021467Y012711D01*
X021505Y012802D01*
X021509Y012833D01*
X021559D01*
X021563Y012802D01*
X021601Y012711D01*
X021661Y012633D01*
X021739Y012573D01*
X021830Y012536D01*
X021928Y012523D01*
X022025Y012536D01*
X022116Y012573D01*
X022195Y012633D01*
X022255Y012711D01*
X022292Y012802D01*
X022294Y012813D01*
X022344D01*
X022346Y012802D01*
X022383Y012711D01*
X022443Y012633D01*
X022521Y012573D01*
X022612Y012536D01*
X022710Y012523D01*
X022808Y012536D01*
X022899Y012573D01*
X022977Y012633D01*
X023037Y012711D01*
X023074Y012802D01*
X023080Y012843D01*
X023130D01*
X023136Y012802D01*
X023173Y012711D01*
X023233Y012633D01*
X023311Y012573D01*
X023402Y012536D01*
X023500Y012523D01*
X023598Y012536D01*
X023689Y012573D01*
X023767Y012633D01*
X023827Y012711D01*
X023864Y012802D01*
X023870Y012843D01*
X023920D01*
X023926Y012802D01*
X023963Y012711D01*
X024023Y012633D01*
X024101Y012573D01*
X024192Y012536D01*
X024290Y012523D01*
X024388Y012536D01*
X024479Y012573D01*
X024557Y012633D01*
X024617Y012711D01*
X024654Y012802D01*
X024658Y012833D01*
X024709D01*
X024713Y012802D01*
X024751Y012711D01*
X024811Y012633D01*
X024889Y012573D01*
X024980Y012536D01*
X025077Y012523D01*
X025175Y012536D01*
X025266Y012573D01*
X025344Y012633D01*
X025404Y012711D01*
X025442Y012802D01*
X025446Y012833D01*
X025496D01*
X025500Y012802D01*
X025538Y012711D01*
X025598Y012633D01*
X025676Y012573D01*
X025767Y012536D01*
X025865Y012523D01*
X025962Y012536D01*
X026053Y012573D01*
X026132Y012633D01*
X026192Y012711D01*
X026229Y012802D01*
X026242Y012900D01*
X026243Y012900D01*
X026290Y012919D01*
X026321Y012880D01*
X026385Y012830D01*
X026430Y012812D01*
Y011709D01*
X026430Y011709D01*
X026438Y011667D01*
X026462Y011630D01*
X026667Y011425D01*
X026649Y011381D01*
X026638Y011300D01*
X026649Y011219D01*
X026680Y011144D01*
X026730Y011080D01*
X026794Y011030D01*
X026869Y010999D01*
X026950Y010988D01*
X027031Y010999D01*
X027106Y011030D01*
X027170Y011080D01*
X027220Y011144D01*
X027251Y011219D01*
X027262Y011300D01*
X027251Y011381D01*
X027220Y011456D01*
X027170Y011520D01*
X027106Y011570D01*
X027031Y011601D01*
X026950Y011612D01*
X026869Y011601D01*
X026825Y011583D01*
X026652Y011755D01*
Y012812D01*
X026697Y012830D01*
X026739Y012862D01*
X026789Y012838D01*
Y012500D01*
X026789Y012500D01*
X026797Y012457D01*
X026821Y012421D01*
X027227Y012015D01*
X027227Y012015D01*
X027263Y011991D01*
X027306Y011983D01*
X027306Y011983D01*
X028909D01*
X028938Y011950D01*
X028949Y011869D01*
X028980Y011794D01*
X029030Y011730D01*
X029094Y011680D01*
X029169Y011649D01*
X029250Y011638D01*
X029331Y011649D01*
X029406Y011680D01*
X029470Y011730D01*
X029520Y011794D01*
X029551Y011869D01*
X029562Y011950D01*
X029551Y012031D01*
X029520Y012106D01*
X029470Y012170D01*
X029406Y012220D01*
X029360Y012239D01*
X029370Y012289D01*
X029900D01*
Y011691D01*
X031002D01*
Y012289D01*
X031542D01*
X031542Y012289D01*
X031585Y012297D01*
X031621Y012321D01*
X032039Y012740D01*
X032866D01*
X033339Y012267D01*
Y010995D01*
X033314Y010985D01*
X033258Y010942D01*
X033215Y010886D01*
X033188Y010820D01*
X033179Y010750D01*
X033188Y010680D01*
X033215Y010614D01*
X033258Y010558D01*
X033314Y010515D01*
X033380Y010488D01*
X033450Y010479D01*
X033520Y010488D01*
X033586Y010515D01*
X033642Y010558D01*
X033685Y010614D01*
X033712Y010680D01*
X033721Y010750D01*
X033712Y010820D01*
X033685Y010886D01*
X033642Y010942D01*
X033586Y010985D01*
X033561Y010995D01*
Y012313D01*
X033561Y012313D01*
X033553Y012356D01*
X033529Y012392D01*
X032984Y012936D01*
Y013881D01*
X031921D01*
Y012936D01*
X031496Y012511D01*
X031002D01*
Y013109D01*
X029900D01*
Y012511D01*
X029336D01*
X029327Y012561D01*
X029336Y012565D01*
X029392Y012608D01*
X029435Y012664D01*
X029462Y012730D01*
X029471Y012800D01*
X029462Y012870D01*
X029435Y012936D01*
X029392Y012992D01*
X029336Y013035D01*
X029270Y013062D01*
X029200Y013071D01*
X029130Y013062D01*
X029064Y013035D01*
X029008Y012992D01*
X028965Y012936D01*
X028955Y012911D01*
X027417D01*
X027386Y012935D01*
X027320Y012962D01*
X027250Y012971D01*
X027180Y012962D01*
X027114Y012935D01*
X027061Y012894D01*
X027047Y012897D01*
X027011Y012913D01*
Y013154D01*
X027411Y013554D01*
X027457Y013535D01*
Y013406D01*
X027949D01*
Y013602D01*
X027525D01*
X027506Y013649D01*
X027675Y013817D01*
X027719Y013799D01*
X027800Y013788D01*
X027881Y013799D01*
X027956Y013830D01*
X028020Y013880D01*
X028070Y013944D01*
X028101Y014019D01*
X028112Y014100D01*
X028101Y014181D01*
X028070Y014256D01*
X028020Y014320D01*
X027956Y014370D01*
X027881Y014401D01*
X027800Y014412D01*
D02*
G37*
G36*
X028641Y013602D02*
X028149D01*
Y013406D01*
X028641D01*
Y013602D01*
D02*
G37*
G36*
X035044Y013481D02*
X034650D01*
Y013087D01*
X035044D01*
Y013481D01*
D02*
G37*
G36*
X052800Y014163D02*
X052680Y014147D01*
X052568Y014101D01*
X052473Y014027D01*
X052399Y013932D01*
X052353Y013820D01*
X052337Y013700D01*
X052353Y013580D01*
X052399Y013468D01*
X052473Y013373D01*
X052568Y013299D01*
X052680Y013253D01*
X052800Y013237D01*
X052920Y013253D01*
X053032Y013299D01*
X053127Y013373D01*
X053201Y013468D01*
X053247Y013580D01*
X053263Y013700D01*
X053247Y013820D01*
X053201Y013932D01*
X053127Y014027D01*
X053032Y014101D01*
X052920Y014147D01*
X052800Y014163D01*
D02*
G37*
G36*
X054944Y014965D02*
X054469D01*
Y014950D01*
X054944D01*
Y014965D01*
D02*
G37*
G36*
X053600Y016537D02*
X053523Y016506D01*
X053450Y016450D01*
X053394Y016377D01*
X053363Y016300D01*
X053600D01*
Y016537D01*
D02*
G37*
G36*
X053800D02*
Y016300D01*
X054037D01*
X054006Y016377D01*
X053950Y016450D01*
X053877Y016506D01*
X053800Y016537D01*
D02*
G37*
G36*
X053600Y016100D02*
X053363D01*
X053394Y016023D01*
X053450Y015950D01*
X053523Y015894D01*
X053600Y015863D01*
Y016100D01*
D02*
G37*
G36*
X054037D02*
X053800D01*
Y015863D01*
X053877Y015894D01*
X053950Y015950D01*
X054006Y016023D01*
X054037Y016100D01*
D02*
G37*
G36*
X040900Y016600D02*
X040663D01*
X040694Y016523D01*
X040750Y016450D01*
X040823Y016394D01*
X040900Y016363D01*
Y016600D01*
D02*
G37*
G36*
X038437Y016850D02*
X038200D01*
Y016613D01*
X038277Y016644D01*
X038350Y016700D01*
X038406Y016773D01*
X038437Y016850D01*
D02*
G37*
G36*
X040900Y017037D02*
X040823Y017006D01*
X040750Y016950D01*
X040694Y016877D01*
X040663Y016800D01*
X040900D01*
Y017037D01*
D02*
G37*
G36*
X041337Y016600D02*
X041100D01*
Y016363D01*
X041177Y016394D01*
X041250Y016450D01*
X041306Y016523D01*
X041337Y016600D01*
D02*
G37*
G36*
X038000Y016850D02*
X037763D01*
X037794Y016773D01*
X037850Y016700D01*
X037923Y016644D01*
X038000Y016613D01*
Y016850D01*
D02*
G37*
G36*
X056600Y016087D02*
Y015850D01*
X056837D01*
X056806Y015927D01*
X056750Y016000D01*
X056677Y016056D01*
X056600Y016087D01*
D02*
G37*
G36*
X035044Y012887D02*
X034650D01*
Y012494D01*
X035044D01*
Y012887D01*
D02*
G37*
G36*
X034450D02*
X034056D01*
Y012494D01*
X034450D01*
Y012887D01*
D02*
G37*
G36*
X055619Y014965D02*
X055144D01*
Y014950D01*
X055619D01*
Y014965D01*
D02*
G37*
G36*
X019200Y015957D02*
X019108Y015945D01*
X019021Y015910D01*
X018947Y015853D01*
X018890Y015779D01*
X018855Y015692D01*
X018843Y015600D01*
X018855Y015508D01*
X018890Y015421D01*
X018947Y015347D01*
X019021Y015290D01*
X019108Y015255D01*
X019200Y015243D01*
X019293Y015255D01*
X019379Y015290D01*
X019453Y015347D01*
X019510Y015421D01*
X019545Y015508D01*
X019557Y015600D01*
X019545Y015692D01*
X019510Y015779D01*
X019453Y015853D01*
X019379Y015910D01*
X019293Y015945D01*
X019200Y015957D01*
D02*
G37*
G36*
X019554Y012554D02*
X018846D01*
Y011846D01*
X019554D01*
Y012554D01*
D02*
G37*
G36*
X056837Y015650D02*
X056600D01*
Y015413D01*
X056677Y015444D01*
X056750Y015500D01*
X056806Y015573D01*
X056837Y015650D01*
D02*
G37*
G36*
X056400Y016087D02*
X056323Y016056D01*
X056250Y016000D01*
X056194Y015927D01*
X056163Y015850D01*
X056400D01*
Y016087D01*
D02*
G37*
G36*
X052800Y012363D02*
X052680Y012347D01*
X052568Y012301D01*
X052473Y012227D01*
X052399Y012132D01*
X052353Y012020D01*
X052337Y011900D01*
X052353Y011780D01*
X052399Y011668D01*
X052473Y011573D01*
X052568Y011499D01*
X052680Y011453D01*
X052800Y011437D01*
X052920Y011453D01*
X053032Y011499D01*
X053127Y011573D01*
X053201Y011668D01*
X053247Y011780D01*
X053263Y011900D01*
X053247Y012020D01*
X053201Y012132D01*
X053127Y012227D01*
X053032Y012301D01*
X052920Y012347D01*
X052800Y012363D01*
D02*
G37*
G36*
X056400Y015650D02*
X056163D01*
X056194Y015573D01*
X056250Y015500D01*
X056323Y015444D01*
X056400Y015413D01*
Y015650D01*
D02*
G37*
G36*
X060415Y027450D02*
X059785D01*
Y027253D01*
X060415D01*
Y027450D01*
D02*
G37*
G36*
X045500Y029471D02*
X045430Y029462D01*
X045364Y029435D01*
X045308Y029392D01*
X045265Y029336D01*
X045238Y029270D01*
X045229Y029200D01*
X045238Y029130D01*
X045265Y029064D01*
X045308Y029008D01*
X045364Y028965D01*
X045430Y028938D01*
X045500Y028929D01*
X045511Y028930D01*
X045549Y028897D01*
Y027546D01*
X046159D01*
Y028983D01*
X045911D01*
X045762Y029131D01*
X045771Y029200D01*
X045762Y029270D01*
X045735Y029336D01*
X045692Y029392D01*
X045636Y029435D01*
X045570Y029462D01*
X045500Y029471D01*
D02*
G37*
G36*
X059585Y027450D02*
X058956D01*
Y027253D01*
X059585D01*
Y027450D01*
D02*
G37*
G36*
X045450Y027187D02*
X045373Y027156D01*
X045300Y027100D01*
X045244Y027027D01*
X045213Y026950D01*
X045450D01*
Y027187D01*
D02*
G37*
G36*
X045650D02*
Y026950D01*
X045887D01*
X045856Y027027D01*
X045800Y027100D01*
X045727Y027156D01*
X045650Y027187D01*
D02*
G37*
G36*
X027950Y010150D02*
X027713D01*
X027744Y010073D01*
X027800Y010000D01*
X027873Y009944D01*
X027950Y009913D01*
Y010150D01*
D02*
G37*
G36*
X043557Y010325D02*
X043400D01*
Y009872D01*
X043557D01*
Y010325D01*
D02*
G37*
G36*
X049436Y032048D02*
X049356Y032037D01*
X049280Y032006D01*
X049216Y031957D01*
X049166Y031892D01*
X049135Y031817D01*
X049124Y031736D01*
Y031200D01*
Y030648D01*
X049135Y030567D01*
X049166Y030492D01*
X049216Y030428D01*
X049788Y029855D01*
X049769Y029809D01*
X046816D01*
Y028191D01*
X053684D01*
Y029809D01*
X050601D01*
X050562Y029834D01*
X050551Y029915D01*
X050520Y029990D01*
X050470Y030055D01*
X049748Y030777D01*
Y031200D01*
Y031736D01*
X049737Y031817D01*
X049706Y031892D01*
X049657Y031957D01*
X049592Y032006D01*
X049517Y032037D01*
X049436Y032048D01*
D02*
G37*
G36*
X059585Y027847D02*
X058956D01*
Y027650D01*
X059585D01*
Y027847D01*
D02*
G37*
G36*
X060415D02*
X059785D01*
Y027650D01*
X060415D01*
Y027847D01*
D02*
G37*
G36*
X042837Y025800D02*
X042600D01*
Y025563D01*
X042677Y025594D01*
X042750Y025650D01*
X042806Y025723D01*
X042837Y025800D01*
D02*
G37*
G36*
X065950Y025862D02*
X065773D01*
Y025724D01*
X065950D01*
Y025862D01*
D02*
G37*
G36*
X042400Y025800D02*
X042163D01*
X042194Y025723D01*
X042250Y025650D01*
X042323Y025594D01*
X042400Y025563D01*
Y025800D01*
D02*
G37*
G36*
X065950Y025524D02*
X065773D01*
Y025387D01*
X065950D01*
Y025524D01*
D02*
G37*
G36*
X066927D02*
X066750D01*
Y025387D01*
X066927D01*
Y025524D01*
D02*
G37*
G36*
X045450Y026750D02*
X045213D01*
X045244Y026673D01*
X045300Y026600D01*
X045373Y026544D01*
X045450Y026513D01*
Y026750D01*
D02*
G37*
G36*
X045887D02*
X045650D01*
Y026513D01*
X045727Y026544D01*
X045800Y026600D01*
X045856Y026673D01*
X045887Y026750D01*
D02*
G37*
G36*
X042600Y026237D02*
Y026000D01*
X042837D01*
X042806Y026077D01*
X042750Y026150D01*
X042677Y026206D01*
X042600Y026237D01*
D02*
G37*
G36*
X066750Y025862D02*
Y025724D01*
X066927D01*
Y025862D01*
X066750D01*
D02*
G37*
G36*
X042400Y026237D02*
X042323Y026206D01*
X042250Y026150D01*
X042194Y026077D01*
X042163Y026000D01*
X042400D01*
Y026237D01*
D02*
G37*
G36*
X043200Y010325D02*
X043043D01*
Y009872D01*
X043200D01*
Y010325D01*
D02*
G37*
G36*
X066415Y031897D02*
X066238D01*
Y031700D01*
X066415D01*
Y031897D01*
D02*
G37*
G36*
X066792D02*
X066615D01*
Y031700D01*
X066792D01*
Y031897D01*
D02*
G37*
G36*
X019300Y032157D02*
X019208Y032145D01*
X019121Y032110D01*
X019047Y032053D01*
X018990Y031979D01*
X018955Y031892D01*
X018943Y031800D01*
X018955Y031707D01*
X018983Y031640D01*
X018817Y031474D01*
X018793Y031438D01*
X018784Y031396D01*
X018784Y031396D01*
Y030460D01*
X018784Y030460D01*
X018793Y030417D01*
X018817Y030381D01*
X018989Y030209D01*
Y029895D01*
X018964Y029885D01*
X018908Y029842D01*
X018865Y029786D01*
X018838Y029720D01*
X018829Y029650D01*
X018838Y029580D01*
X018865Y029514D01*
X018908Y029458D01*
X018964Y029415D01*
X019030Y029388D01*
X019100Y029379D01*
X019170Y029388D01*
X019236Y029415D01*
X019292Y029458D01*
X019335Y029514D01*
X019362Y029580D01*
X019371Y029650D01*
X019362Y029720D01*
X019335Y029786D01*
X019292Y029842D01*
X019236Y029885D01*
X019211Y029895D01*
Y030255D01*
X019211Y030255D01*
X019203Y030298D01*
X019179Y030334D01*
X019179Y030334D01*
X019154Y030359D01*
X019173Y030405D01*
X019200D01*
Y030800D01*
Y031195D01*
X019007D01*
Y031350D01*
X019140Y031483D01*
X019208Y031455D01*
X019300Y031443D01*
X019392Y031455D01*
X019479Y031490D01*
X019553Y031547D01*
X019610Y031621D01*
X019645Y031707D01*
X019657Y031800D01*
X019645Y031892D01*
X019610Y031979D01*
X019553Y032053D01*
X019479Y032110D01*
X019392Y032145D01*
X019300Y032157D01*
D02*
G37*
G36*
X050450Y031587D02*
X050373Y031556D01*
X050300Y031500D01*
X050244Y031427D01*
X050213Y031350D01*
X050450D01*
Y031587D01*
D02*
G37*
G36*
X050650D02*
Y031350D01*
X050887D01*
X050856Y031427D01*
X050800Y031500D01*
X050727Y031556D01*
X050650Y031587D01*
D02*
G37*
G36*
X027500Y033087D02*
Y032850D01*
X027737D01*
X027706Y032927D01*
X027650Y033000D01*
X027577Y033056D01*
X027500Y033087D01*
D02*
G37*
G36*
X064300Y033101D02*
X058179Y033101D01*
X058162Y033097D01*
X058146Y033098D01*
X058124Y033090D01*
X058102Y033085D01*
X058088Y033076D01*
X058073Y033070D01*
X058056Y033055D01*
X058037Y033042D01*
X058028Y033028D01*
X058015Y033017D01*
X057278Y031985D01*
X057262Y031950D01*
X057246Y031916D01*
X057246Y031915D01*
X057245Y031914D01*
X057244Y031876D01*
X057243Y031837D01*
X057262Y031713D01*
X057266Y031702D01*
X057267Y031691D01*
X057366Y031325D01*
X057371Y031313D01*
X057374Y031301D01*
X057493Y031014D01*
X057499Y031005D01*
X057502Y030994D01*
X057652Y030722D01*
X057660Y030714D01*
X057664Y030703D01*
X057844Y030450D01*
X057854Y030441D01*
X057861Y030429D01*
X058165Y030106D01*
X058176Y030098D01*
X058184Y030088D01*
X058299Y029994D01*
X058325Y029981D01*
X058349Y029965D01*
X058359Y029963D01*
X058368Y029958D01*
X058397Y029955D01*
X058426Y029949D01*
X062398Y029949D01*
Y029526D01*
X062417Y029429D01*
X062472Y029348D01*
X062554Y029293D01*
X062578Y029288D01*
Y029237D01*
X062554Y029233D01*
X062472Y029178D01*
X062417Y029096D01*
X062398Y029000D01*
Y028651D01*
X060850D01*
X060773Y028635D01*
X060708Y028592D01*
X060665Y028527D01*
X060649Y028450D01*
Y025012D01*
X060599Y025007D01*
X060585Y025077D01*
X060582Y025082D01*
Y025189D01*
X060457D01*
X060400Y025201D01*
X057900D01*
X057843Y025189D01*
X057708D01*
Y025043D01*
X057699Y025000D01*
Y022883D01*
X057551Y022735D01*
X057501Y022755D01*
Y027800D01*
X057485Y027877D01*
X057442Y027942D01*
X057441Y027942D01*
Y027944D01*
X057439D01*
X057377Y027985D01*
X057300Y028001D01*
X055950D01*
X055873Y027985D01*
X055811Y027944D01*
X055788D01*
Y027912D01*
X055765Y027877D01*
X055749Y027800D01*
Y025050D01*
Y022700D01*
X055765Y022623D01*
X055808Y022558D01*
X055808Y022558D01*
Y022556D01*
X055812D01*
X055873Y022515D01*
X055950Y022499D01*
X057245D01*
X057265Y022449D01*
X057217Y022401D01*
X055900D01*
X055823Y022385D01*
X055820Y022383D01*
X055716D01*
Y022279D01*
X055715Y022277D01*
X055699Y022200D01*
Y018510D01*
X055407Y018218D01*
X055367Y018235D01*
X055250Y018251D01*
X055133Y018235D01*
X055025Y018190D01*
X054931Y018119D01*
X054860Y018025D01*
X054815Y017917D01*
X054799Y017800D01*
X054815Y017683D01*
X054860Y017575D01*
X054931Y017481D01*
X055025Y017410D01*
X055133Y017365D01*
X055250Y017349D01*
X055367Y017365D01*
X055475Y017410D01*
X055569Y017481D01*
X055640Y017575D01*
X055685Y017683D01*
X055701Y017800D01*
X055717Y017817D01*
X055820D01*
X055823Y017815D01*
X055900Y017799D01*
X057773D01*
X057817Y017784D01*
Y017730D01*
X057815Y017727D01*
X057799Y017650D01*
Y014100D01*
X057815Y014023D01*
X057817Y014020D01*
Y013926D01*
X057817D01*
X057833Y013908D01*
X057826Y013855D01*
Y010514D01*
X057565Y010252D01*
X057552D01*
X057550Y010250D01*
X054850Y010250D01*
X054848Y010252D01*
X046935D01*
X044874Y012314D01*
Y014351D01*
X044912Y014366D01*
X044924Y014367D01*
X045413Y013878D01*
Y013786D01*
X045328D01*
Y013314D01*
X045718D01*
Y011821D01*
X045718Y011821D01*
X045726Y011779D01*
X045750Y011743D01*
X046921Y010571D01*
X046921Y010571D01*
X046957Y010547D01*
X047000Y010539D01*
X047000Y010539D01*
X049650D01*
X049650Y010539D01*
X049693Y010547D01*
X049729Y010571D01*
X050393Y011236D01*
X051100D01*
X051145Y011255D01*
X051145Y011255D01*
X051164Y011300D01*
Y014900D01*
X051164Y014900D01*
X051164Y018013D01*
X052350D01*
X052468Y017895D01*
Y017551D01*
X052944D01*
Y018149D01*
X052600D01*
X052503Y018247D01*
X052459Y018276D01*
X052406Y018287D01*
X051149D01*
X051145Y018295D01*
X051121Y018305D01*
Y018330D01*
X049979D01*
Y018305D01*
X049955Y018295D01*
X049936Y018250D01*
X049936Y017993D01*
X049421Y017479D01*
X049397Y017443D01*
X049389Y017400D01*
X049389Y017400D01*
Y017087D01*
X049050Y016748D01*
X049047Y016748D01*
X049029Y016767D01*
X049020Y016794D01*
X049035Y016814D01*
X049062Y016880D01*
X049071Y016950D01*
X049062Y017020D01*
X049035Y017086D01*
X048992Y017142D01*
X048936Y017185D01*
X048870Y017212D01*
X048800Y017221D01*
X048730Y017212D01*
X048664Y017185D01*
X048659Y017181D01*
X048626Y017218D01*
X050629Y019221D01*
X050653Y019257D01*
X050661Y019300D01*
X050661Y019300D01*
Y019547D01*
X050706Y019566D01*
X050711Y019570D01*
X051121D01*
Y020102D01*
X050862D01*
Y021791D01*
X053684D01*
Y023409D01*
X046816D01*
Y021791D01*
X050238D01*
Y020966D01*
X050188Y020949D01*
X050150Y021000D01*
X050077Y021056D01*
X050000Y021087D01*
Y020750D01*
Y020413D01*
X050077Y020444D01*
X050150Y020500D01*
X050188Y020551D01*
X050238Y020534D01*
Y020102D01*
X049979D01*
Y019570D01*
X050389D01*
X050394Y019566D01*
X050439Y019547D01*
Y019346D01*
X048104Y017011D01*
X047948D01*
X047929Y017057D01*
X048462Y017591D01*
X048525D01*
Y018289D01*
X048054D01*
Y018330D01*
X047984D01*
Y017940D01*
X047784D01*
Y018330D01*
X047728D01*
Y017940D01*
Y017550D01*
X047786D01*
X047805Y017504D01*
X047662Y017361D01*
X045700D01*
X045700Y017361D01*
X045658Y017353D01*
X045622Y017329D01*
X045622Y017329D01*
X044924Y016631D01*
X044912Y016632D01*
X044874Y016648D01*
Y020335D01*
X044865Y020406D01*
X044837Y020473D01*
X044794Y020529D01*
X043844Y021479D01*
Y021876D01*
X043894Y021910D01*
X043919Y021899D01*
X044000Y021888D01*
X044081Y021899D01*
X044156Y021930D01*
X044220Y021980D01*
X044270Y022044D01*
X044288Y022089D01*
X044396D01*
X044573Y021912D01*
X044573Y021912D01*
X044609Y021888D01*
X044651Y021880D01*
X045753D01*
X046026Y021607D01*
X046007Y021561D01*
X045538D01*
X045520Y021606D01*
X045470Y021670D01*
X045406Y021720D01*
X045331Y021751D01*
X045250Y021762D01*
X045169Y021751D01*
X045094Y021720D01*
X045030Y021670D01*
X044980Y021606D01*
X044949Y021531D01*
X044938Y021450D01*
X044949Y021369D01*
X044980Y021294D01*
X045030Y021230D01*
X045094Y021180D01*
X045169Y021149D01*
X045250Y021138D01*
X045331Y021149D01*
X045406Y021180D01*
X045470Y021230D01*
X045520Y021294D01*
X045538Y021339D01*
X046038D01*
X046661Y020716D01*
X046642Y020670D01*
X046489D01*
X046447Y020662D01*
X046411Y020638D01*
X046411Y020638D01*
X046247Y020474D01*
X046181Y020501D01*
X046100Y020512D01*
X046019Y020501D01*
X045944Y020470D01*
X045880Y020420D01*
X045830Y020356D01*
X045799Y020281D01*
X045788Y020200D01*
X045799Y020119D01*
X045830Y020044D01*
X045880Y019980D01*
X045944Y019930D01*
X046019Y019899D01*
X046100Y019888D01*
X046181Y019899D01*
X046256Y019930D01*
X046320Y019980D01*
X046370Y020044D01*
X046384Y020079D01*
X046434Y020069D01*
Y019770D01*
X046504D01*
Y020160D01*
X046704D01*
Y019770D01*
X046774D01*
Y019811D01*
X047714D01*
Y019770D01*
X047784D01*
Y020160D01*
X047984D01*
Y019770D01*
X048054D01*
Y019811D01*
X048525D01*
Y020509D01*
X048206D01*
X047196Y021520D01*
X047160Y021544D01*
X047117Y021552D01*
X047117Y021552D01*
X046905D01*
X046220Y022237D01*
Y022699D01*
X046220Y022699D01*
X046212Y022741D01*
X046188Y022777D01*
X046188Y022777D01*
X045977Y022988D01*
X045941Y023012D01*
X045899Y023020D01*
X045899Y023020D01*
X045601D01*
X045559Y023012D01*
X045523Y022988D01*
X045084Y022549D01*
X045034Y022552D01*
X045020Y022570D01*
X044956Y022620D01*
X044881Y022651D01*
X044800Y022662D01*
X044719Y022651D01*
X044644Y022620D01*
X044580Y022570D01*
X044530Y022506D01*
X044499Y022431D01*
X044489Y022353D01*
X044488Y022349D01*
X044443Y022311D01*
X044442Y022311D01*
X044442Y022311D01*
X044288D01*
X044270Y022356D01*
X044220Y022420D01*
X044156Y022470D01*
X044081Y022501D01*
X044000Y022512D01*
X043919Y022501D01*
X043844Y022470D01*
X043780Y022420D01*
X043730Y022356D01*
X043712Y022312D01*
X043056D01*
Y022300D01*
X043010Y022281D01*
X042813Y022478D01*
X042732Y022533D01*
X042635Y022552D01*
X031639D01*
X031636Y022602D01*
X031691Y022609D01*
X031777Y022644D01*
X031850Y022700D01*
X031906Y022773D01*
X031937Y022850D01*
X031263D01*
X031294Y022773D01*
X031350Y022700D01*
X031423Y022644D01*
X031509Y022609D01*
X031564Y022602D01*
X031561Y022552D01*
X022263D01*
X021060Y023754D01*
Y023824D01*
X021124D01*
X021200Y023840D01*
X021266Y023883D01*
X021282Y023882D01*
X021325Y023845D01*
X021336Y023764D01*
X021367Y023689D01*
X021417Y023624D01*
X021482Y023574D01*
X021538Y023551D01*
Y023845D01*
Y024139D01*
X021482Y024116D01*
X021417Y024066D01*
X021399Y024043D01*
X021331Y024036D01*
X021324Y024042D01*
Y024648D01*
X021374Y024668D01*
X021970Y024073D01*
Y024068D01*
X021970Y024068D01*
X021978Y024025D01*
X022002Y023989D01*
X022920Y023071D01*
X022920Y023071D01*
X022956Y023047D01*
X022999Y023039D01*
X023337D01*
X023338Y023030D01*
X023365Y022964D01*
X023408Y022908D01*
X023464Y022865D01*
X023530Y022838D01*
X023600Y022829D01*
X023670Y022838D01*
X023736Y022865D01*
X023792Y022908D01*
X023835Y022964D01*
X023837Y022969D01*
X023894Y022976D01*
X023908Y022958D01*
X023964Y022915D01*
X024030Y022888D01*
X024100Y022879D01*
X024170Y022888D01*
X024236Y022915D01*
X024292Y022958D01*
X024335Y023014D01*
X024362Y023080D01*
X024371Y023150D01*
X024362Y023220D01*
X024354Y023240D01*
X024382Y023281D01*
X024874D01*
Y024671D01*
X026626D01*
Y023281D01*
X027236D01*
Y023436D01*
X027282Y023455D01*
X027442Y023296D01*
X027487Y023266D01*
X027539Y023256D01*
X028316D01*
X028368Y023266D01*
X028413Y023296D01*
X028516Y023399D01*
X028567Y023380D01*
X028574Y023348D01*
X028603Y023303D01*
X028652Y023255D01*
X028638Y023220D01*
X028629Y023150D01*
X028638Y023080D01*
X028665Y023014D01*
X028708Y022958D01*
X028764Y022915D01*
X028830Y022888D01*
X028900Y022879D01*
X028970Y022888D01*
X029036Y022915D01*
X029092Y022958D01*
X029135Y023014D01*
X029162Y023080D01*
X029171Y023150D01*
X029162Y023220D01*
X029135Y023286D01*
X029100Y023331D01*
X029116Y023381D01*
X029574D01*
Y024818D01*
X029103D01*
X029088Y024842D01*
X029077Y024869D01*
X029085Y024931D01*
X029076Y025001D01*
X029049Y025066D01*
X029024Y025098D01*
X029049Y025148D01*
X031099D01*
X031116Y025098D01*
X031108Y025092D01*
X031065Y025036D01*
X031038Y024970D01*
X031029Y024900D01*
X031038Y024830D01*
X031065Y024764D01*
X031108Y024708D01*
X031164Y024665D01*
X031230Y024638D01*
X031300Y024629D01*
X031326Y024606D01*
Y023381D01*
X031936D01*
Y023558D01*
X031982Y023577D01*
X032264Y023296D01*
X032308Y023266D01*
X032360Y023256D01*
X033016D01*
X033068Y023266D01*
X033113Y023296D01*
X033150Y023333D01*
X033205Y023329D01*
X033234Y023291D01*
X033229Y023250D01*
X033238Y023180D01*
X033265Y023114D01*
X033308Y023058D01*
X033364Y023015D01*
X033430Y022988D01*
X033500Y022979D01*
X033570Y022988D01*
X033636Y023015D01*
X033692Y023058D01*
X033735Y023114D01*
X033762Y023180D01*
X033771Y023250D01*
X033762Y023320D01*
X033754Y023340D01*
X033782Y023381D01*
X034274D01*
Y024818D01*
X033664D01*
Y024237D01*
X033447D01*
X033169Y024514D01*
Y024779D01*
X032731D01*
Y024417D01*
X032681Y024400D01*
X032636Y024435D01*
X032570Y024462D01*
X032500Y024471D01*
X032492Y024470D01*
X032456Y024516D01*
X032462Y024530D01*
X032471Y024600D01*
X032462Y024670D01*
X032435Y024736D01*
X032392Y024792D01*
X032336Y024835D01*
X032270Y024862D01*
X032200Y024871D01*
X032130Y024862D01*
X032105Y024852D01*
X031696Y025261D01*
X031715Y025307D01*
X033099D01*
X033099Y025307D01*
X033142Y025316D01*
X033178Y025340D01*
X033363Y025525D01*
X035917D01*
X035974Y025468D01*
X035941Y025431D01*
X035936Y025435D01*
X035870Y025462D01*
X035800Y025471D01*
X035730Y025462D01*
X035664Y025435D01*
X035608Y025392D01*
X035565Y025336D01*
X035538Y025270D01*
X035529Y025200D01*
X035538Y025130D01*
X035565Y025064D01*
X035608Y025008D01*
X035664Y024965D01*
X035730Y024938D01*
X035800Y024929D01*
X035869Y024938D01*
X036026Y024781D01*
Y023381D01*
X036636D01*
Y023608D01*
X036682Y023627D01*
X037014Y023296D01*
X037058Y023266D01*
X037110Y023256D01*
X037766D01*
X037818Y023266D01*
X037863Y023296D01*
X037987Y023420D01*
X038038Y023369D01*
X038029Y023300D01*
X038038Y023230D01*
X038065Y023164D01*
X038108Y023108D01*
X038164Y023065D01*
X038230Y023038D01*
X038300Y023029D01*
X038370Y023038D01*
X038436Y023065D01*
X038492Y023108D01*
X038535Y023164D01*
X038562Y023230D01*
X038571Y023300D01*
X038562Y023370D01*
X038537Y023431D01*
X038550Y023468D01*
X038556Y023481D01*
X039024D01*
Y024918D01*
X038414D01*
Y024337D01*
X038097D01*
X037919Y024514D01*
Y024779D01*
X037481D01*
Y024417D01*
X037431Y024400D01*
X037386Y024435D01*
X037320Y024462D01*
X037250Y024471D01*
X037217Y024467D01*
X037172Y024511D01*
X037175Y024531D01*
X037166Y024601D01*
X037138Y024667D01*
X037095Y024723D01*
X037039Y024766D01*
X036980Y024790D01*
Y025182D01*
X036972Y025225D01*
X036948Y025261D01*
X036948Y025261D01*
X036411Y025797D01*
X036430Y025844D01*
X040349D01*
X040634Y025558D01*
X040631Y025547D01*
X040608Y025514D01*
X040550Y025521D01*
X040480Y025512D01*
X040414Y025485D01*
X040358Y025442D01*
X040315Y025386D01*
X040288Y025320D01*
X040279Y025250D01*
X040288Y025180D01*
X040315Y025114D01*
X040358Y025058D01*
X040414Y025015D01*
X040480Y024988D01*
X040550Y024979D01*
X040619Y024988D01*
X040776Y024831D01*
Y023481D01*
X041386D01*
Y023608D01*
X041432Y023627D01*
X041764Y023296D01*
X041808Y023266D01*
X041860Y023256D01*
X042516D01*
X042568Y023266D01*
X042613Y023296D01*
X042685Y023368D01*
X042692Y023368D01*
X042735Y023347D01*
X042729Y023300D01*
X042738Y023230D01*
X042765Y023164D01*
X042808Y023108D01*
X042864Y023065D01*
X042930Y023038D01*
X043000Y023029D01*
X043070Y023038D01*
X043136Y023065D01*
X043192Y023108D01*
X043235Y023164D01*
X043262Y023230D01*
X043271Y023300D01*
X043262Y023370D01*
X043237Y023431D01*
X043250Y023468D01*
X043256Y023481D01*
X043774D01*
Y024918D01*
X043164D01*
Y024337D01*
X042847D01*
X042669Y024514D01*
Y024779D01*
X042231D01*
Y024382D01*
X042189Y024354D01*
X042170Y024362D01*
X042100Y024371D01*
X042030Y024362D01*
X041964Y024335D01*
X041940Y024316D01*
X041899Y024348D01*
X041912Y024380D01*
X041921Y024450D01*
X041912Y024520D01*
X041885Y024586D01*
X041842Y024642D01*
X041786Y024685D01*
X041720Y024712D01*
X041650Y024721D01*
X041630Y024739D01*
Y025282D01*
X041630Y025282D01*
X041622Y025325D01*
X041598Y025361D01*
X041598Y025361D01*
X040843Y026115D01*
X040862Y026162D01*
X041617D01*
X041617Y026162D01*
X041660Y026170D01*
X041696Y026194D01*
X042449Y026947D01*
X042474Y026937D01*
X042544Y026928D01*
X042614Y026937D01*
X042679Y026964D01*
X042736Y027007D01*
X042779Y027064D01*
X042806Y027129D01*
X042859Y027151D01*
X042887Y027129D01*
X042953Y027102D01*
X043023Y027093D01*
X043093Y027102D01*
X043159Y027129D01*
X043215Y027172D01*
X043258Y027228D01*
X043285Y027294D01*
X043294Y027364D01*
X043285Y027434D01*
X043260Y027496D01*
X043273Y027532D01*
X043279Y027546D01*
X043797D01*
Y028983D01*
X043187D01*
Y028401D01*
X042869D01*
X042692Y028578D01*
Y028843D01*
X042254D01*
Y028481D01*
X042204Y028464D01*
X042159Y028499D01*
X042093Y028526D01*
X042023Y028536D01*
X041953Y028526D01*
X041887Y028499D01*
X041831Y028456D01*
X041788Y028400D01*
X041761Y028334D01*
X041751Y028264D01*
X041761Y028194D01*
X041788Y028128D01*
X041831Y028072D01*
X041859Y028051D01*
X041880Y028010D01*
Y027719D01*
X041834Y027699D01*
X041386Y028147D01*
Y028969D01*
X041012D01*
X041012Y028970D01*
X040985Y029036D01*
X040942Y029092D01*
X040921Y029108D01*
X040938Y029158D01*
X043486D01*
X043486Y029158D01*
X043528Y029166D01*
X043564Y029190D01*
X044678Y030304D01*
X044703Y030294D01*
X044773Y030285D01*
X044843Y030294D01*
X044909Y030321D01*
X044965Y030364D01*
X045008Y030420D01*
X045035Y030486D01*
X045044Y030556D01*
X045035Y030626D01*
X045008Y030692D01*
X044965Y030748D01*
X044909Y030791D01*
X044843Y030818D01*
X044773Y030827D01*
X044703Y030818D01*
X044637Y030791D01*
X044581Y030748D01*
X044538Y030692D01*
X044511Y030626D01*
X044501Y030556D01*
X044511Y030486D01*
X044521Y030461D01*
X043440Y029380D01*
X041675D01*
X041656Y029426D01*
X042463Y030234D01*
X042500Y030229D01*
X042570Y030238D01*
X042636Y030265D01*
X042692Y030308D01*
X042735Y030364D01*
X042762Y030430D01*
X042762Y030430D01*
X042814Y030444D01*
X042831Y030422D01*
X042887Y030379D01*
X042953Y030352D01*
X043023Y030343D01*
X043093Y030352D01*
X043159Y030379D01*
X043215Y030422D01*
X043258Y030478D01*
X043285Y030544D01*
X043294Y030614D01*
X043285Y030684D01*
X043260Y030746D01*
X043273Y030782D01*
X043279Y030796D01*
X043797D01*
Y032073D01*
X043843Y032092D01*
X044518Y031418D01*
X044562Y031388D01*
X044615Y031377D01*
X045549D01*
Y030796D01*
X046159D01*
Y032233D01*
X045549D01*
Y031651D01*
X044671D01*
X043575Y032747D01*
X043531Y032776D01*
X043479Y032787D01*
X041167D01*
X041115Y032776D01*
X041070Y032747D01*
X039161Y030838D01*
X039097D01*
Y032233D01*
X038487D01*
Y031651D01*
X038169D01*
X037992Y031828D01*
Y032093D01*
X037554D01*
Y031768D01*
X037508Y031749D01*
X036852Y032404D01*
X036808Y032434D01*
X036756Y032444D01*
X033790D01*
X033752Y032437D01*
X031346D01*
X031294Y032426D01*
X031249Y032397D01*
X030496Y031644D01*
X030446Y031664D01*
X030348Y031677D01*
X030251Y031664D01*
X030160Y031627D01*
X030082Y031567D01*
X030022Y031489D01*
X029984Y031398D01*
X029979Y031357D01*
X029928D01*
X029923Y031398D01*
X029885Y031489D01*
X029825Y031567D01*
X029747Y031627D01*
X029656Y031664D01*
X029558Y031677D01*
X029461Y031664D01*
X029370Y031627D01*
X029292Y031567D01*
X029232Y031489D01*
X029194Y031398D01*
X029189Y031357D01*
X029138D01*
X029133Y031398D01*
X029095Y031489D01*
X029035Y031567D01*
X028957Y031627D01*
X028866Y031664D01*
X028768Y031677D01*
X028671Y031664D01*
X028580Y031627D01*
X028502Y031567D01*
X028442Y031489D01*
X028404Y031398D01*
X028400Y031367D01*
X028350D01*
X028346Y031398D01*
X028308Y031489D01*
X028248Y031567D01*
X028170Y031627D01*
X028079Y031664D01*
X027981Y031677D01*
X027883Y031664D01*
X027792Y031627D01*
X027714Y031567D01*
X027654Y031489D01*
X027617Y031398D01*
X027613Y031367D01*
X027562D01*
X027558Y031398D01*
X027520Y031489D01*
X027460Y031567D01*
X027382Y031627D01*
X027291Y031664D01*
X027194Y031677D01*
X027096Y031664D01*
X027005Y031627D01*
X026927Y031567D01*
X026867Y031489D01*
X026829Y031398D01*
X026825Y031367D01*
X026775D01*
X026771Y031398D01*
X026733Y031489D01*
X026673Y031567D01*
X026595Y031627D01*
X026504Y031664D01*
X026406Y031677D01*
X026309Y031664D01*
X026218Y031627D01*
X026140Y031567D01*
X026080Y031489D01*
X026042Y031398D01*
X026040Y031387D01*
X025990D01*
X025989Y031398D01*
X025951Y031489D01*
X025891Y031567D01*
X025813Y031627D01*
X025722Y031664D01*
X025624Y031677D01*
X025526Y031664D01*
X025435Y031627D01*
X025357Y031567D01*
X025297Y031489D01*
X025260Y031398D01*
X025254Y031357D01*
X025204D01*
X025199Y031398D01*
X025161Y031489D01*
X025101Y031567D01*
X025023Y031627D01*
X024932Y031664D01*
X024834Y031677D01*
X024736Y031664D01*
X024645Y031627D01*
X024567Y031567D01*
X024507Y031489D01*
X024470Y031398D01*
X024464Y031357D01*
X024414D01*
X024409Y031398D01*
X024371Y031489D01*
X024311Y031567D01*
X024233Y031627D01*
X024142Y031664D01*
X024044Y031677D01*
X023946Y031664D01*
X023855Y031627D01*
X023777Y031567D01*
X023717Y031489D01*
X023680Y031398D01*
X023676Y031367D01*
X023625D01*
X023621Y031398D01*
X023583Y031489D01*
X023523Y031567D01*
X023445Y031627D01*
X023354Y031664D01*
X023257Y031677D01*
X023159Y031664D01*
X023068Y031627D01*
X022990Y031567D01*
X022930Y031489D01*
X022892Y031398D01*
X022888Y031367D01*
X022838D01*
X022834Y031398D01*
X022796Y031489D01*
X022736Y031567D01*
X022658Y031627D01*
X022567Y031664D01*
X022469Y031677D01*
X022372Y031664D01*
X022281Y031627D01*
X022203Y031567D01*
X022143Y031489D01*
X022105Y031398D01*
X022092Y031300D01*
X022105Y031202D01*
X022143Y031111D01*
X022203Y031033D01*
X022281Y030973D01*
X022372Y030936D01*
X022469Y030923D01*
X022567Y030936D01*
X022658Y030973D01*
X022736Y031033D01*
X022796Y031111D01*
X022834Y031202D01*
X022838Y031233D01*
X022888D01*
X022892Y031202D01*
X022930Y031111D01*
X022990Y031033D01*
X023068Y030973D01*
X023159Y030936D01*
X023257Y030923D01*
X023354Y030936D01*
X023445Y030973D01*
X023523Y031033D01*
X023583Y031111D01*
X023621Y031202D01*
X023625Y031233D01*
X023676D01*
X023680Y031202D01*
X023717Y031111D01*
X023777Y031033D01*
X023855Y030973D01*
X023946Y030936D01*
X024044Y030923D01*
X024142Y030936D01*
X024233Y030973D01*
X024311Y031033D01*
X024371Y031111D01*
X024409Y031202D01*
X024414Y031243D01*
X024464D01*
X024470Y031202D01*
X024507Y031111D01*
X024567Y031033D01*
X024645Y030973D01*
X024736Y030936D01*
X024834Y030923D01*
X024932Y030936D01*
X025023Y030973D01*
X025101Y031033D01*
X025161Y031111D01*
X025199Y031202D01*
X025204Y031243D01*
X025254D01*
X025260Y031202D01*
X025297Y031111D01*
X025357Y031033D01*
X025435Y030973D01*
X025526Y030936D01*
X025624Y030923D01*
X025722Y030936D01*
X025813Y030973D01*
X025891Y031033D01*
X025951Y031111D01*
X025989Y031202D01*
X025990Y031213D01*
X026040D01*
X026042Y031202D01*
X026080Y031111D01*
X026140Y031033D01*
X026218Y030973D01*
X026309Y030936D01*
X026406Y030923D01*
X026504Y030936D01*
X026595Y030973D01*
X026673Y031033D01*
X026733Y031111D01*
X026771Y031202D01*
X026775Y031233D01*
X026825D01*
X026829Y031202D01*
X026867Y031111D01*
X026927Y031033D01*
X027005Y030973D01*
X027096Y030936D01*
X027194Y030923D01*
X027291Y030936D01*
X027382Y030973D01*
X027460Y031033D01*
X027520Y031111D01*
X027558Y031202D01*
X027562Y031233D01*
X027613D01*
X027617Y031202D01*
X027654Y031111D01*
X027714Y031033D01*
X027792Y030973D01*
X027883Y030936D01*
X027981Y030923D01*
X028079Y030936D01*
X028170Y030973D01*
X028248Y031033D01*
X028308Y031111D01*
X028346Y031202D01*
X028350Y031233D01*
X028400D01*
X028404Y031202D01*
X028442Y031111D01*
X028502Y031033D01*
X028580Y030973D01*
X028671Y030936D01*
X028768Y030923D01*
X028866Y030936D01*
X028957Y030973D01*
X029035Y031033D01*
X029095Y031111D01*
X029133Y031202D01*
X029138Y031243D01*
X029189D01*
X029194Y031202D01*
X029232Y031111D01*
X029292Y031033D01*
X029370Y030973D01*
X029461Y030936D01*
X029558Y030923D01*
X029656Y030936D01*
X029747Y030973D01*
X029825Y031033D01*
X029885Y031111D01*
X029923Y031202D01*
X029928Y031243D01*
X029979D01*
X029984Y031202D01*
X030022Y031111D01*
X030082Y031033D01*
X030160Y030973D01*
X030251Y030936D01*
X030348Y030923D01*
X030446Y030936D01*
X030537Y030973D01*
X030615Y031033D01*
X030675Y031111D01*
X030713Y031202D01*
X030714Y031213D01*
X030765D01*
X030766Y031202D01*
X030804Y031111D01*
X030864Y031033D01*
X030942Y030973D01*
X031033Y030936D01*
X031131Y030923D01*
X031228Y030936D01*
X031319Y030973D01*
X031397Y031033D01*
X031457Y031111D01*
X031495Y031202D01*
X031508Y031300D01*
X031495Y031398D01*
X031475Y031446D01*
X031693Y031663D01*
X031776D01*
X031806Y031657D01*
X032026D01*
X032051Y031607D01*
X032034Y031586D01*
X032007Y031520D01*
X031998Y031450D01*
X032007Y031380D01*
X032034Y031314D01*
X032077Y031258D01*
X032134Y031215D01*
X032199Y031188D01*
X032269Y031179D01*
X032340Y031188D01*
X032364Y031198D01*
X032480Y031082D01*
Y030781D01*
X032834D01*
X032850Y030731D01*
X032815Y030686D01*
X032788Y030620D01*
X032779Y030550D01*
X032788Y030480D01*
X032815Y030414D01*
X032833Y030391D01*
X032554Y030111D01*
X031566D01*
X031549Y030161D01*
X031600Y030200D01*
X031656Y030273D01*
X031687Y030350D01*
X031013D01*
X031044Y030273D01*
X031100Y030200D01*
X031151Y030161D01*
X031134Y030111D01*
X029322D01*
X029255Y030179D01*
X029218Y030203D01*
X029176Y030211D01*
X029176Y030211D01*
X024640D01*
X024425Y030427D01*
X024389Y030451D01*
X024346Y030459D01*
X024346Y030459D01*
X023688D01*
X023688Y030459D01*
X023645Y030451D01*
X023609Y030427D01*
X023510Y030327D01*
X023457Y030345D01*
X023452Y030381D01*
X023421Y030456D01*
X023371Y030521D01*
X023306Y030571D01*
X023250Y030594D01*
Y030300D01*
X023050D01*
Y030594D01*
X022994Y030571D01*
X022964Y030548D01*
X022898Y030560D01*
X022898Y030561D01*
X022898Y030561D01*
X022661Y030798D01*
X022625Y030822D01*
X022582Y030830D01*
X022582Y030830D01*
X021469D01*
X021426Y030822D01*
X021390Y030798D01*
X021204Y030611D01*
X021179Y030575D01*
X021171Y030532D01*
X021171Y030532D01*
Y030463D01*
X021110Y030402D01*
X021093Y030402D01*
X021045Y030449D01*
X021045Y030700D01*
X020650D01*
Y030800D01*
X020550D01*
Y031195D01*
X020273D01*
X020251Y031244D01*
X020490Y031483D01*
X020557Y031455D01*
X020650Y031443D01*
X020742Y031455D01*
X020829Y031490D01*
X020903Y031547D01*
X020960Y031621D01*
X020995Y031707D01*
X021007Y031800D01*
X020995Y031892D01*
X020960Y031979D01*
X020903Y032053D01*
X020829Y032110D01*
X020742Y032145D01*
X020650Y032157D01*
X020557Y032145D01*
X020471Y032110D01*
X020397Y032053D01*
X020340Y031979D01*
X020305Y031892D01*
X020293Y031800D01*
X020305Y031707D01*
X020333Y031640D01*
X020040Y031347D01*
X020016Y031311D01*
X020008Y031269D01*
X020008Y031269D01*
Y030163D01*
X019983Y030153D01*
X019927Y030109D01*
X019884Y030053D01*
X019857Y029988D01*
X019847Y029918D01*
X019857Y029847D01*
X019884Y029782D01*
X019927Y029726D01*
X019949Y029709D01*
X019955Y029658D01*
X019938Y029647D01*
X019925Y029656D01*
X019883Y029664D01*
X019841Y029656D01*
X019805Y029632D01*
X019781Y029596D01*
X019773Y029554D01*
Y029233D01*
X019772Y029229D01*
Y028979D01*
X019095Y028302D01*
X019070Y028312D01*
X019000Y028321D01*
X018930Y028312D01*
X018864Y028285D01*
X018808Y028242D01*
X018765Y028186D01*
X018738Y028120D01*
X018729Y028050D01*
X018738Y027980D01*
X018765Y027914D01*
X018808Y027858D01*
X018864Y027815D01*
X018889Y027805D01*
Y026958D01*
X018371Y026440D01*
X018347Y026404D01*
X018339Y026362D01*
X018339Y026362D01*
Y017350D01*
X018339Y017350D01*
X018347Y017307D01*
X018371Y017271D01*
X020195Y015447D01*
X020191Y015433D01*
X020169Y015403D01*
X020100Y015412D01*
X020019Y015401D01*
X019944Y015370D01*
X019880Y015320D01*
X019830Y015256D01*
X019799Y015181D01*
X019788Y015100D01*
X019799Y015019D01*
X019817Y014975D01*
X019601Y014758D01*
X019554Y014777D01*
Y014954D01*
X018846D01*
Y014246D01*
X019554D01*
Y014482D01*
X019600Y014489D01*
X019643Y014497D01*
X019679Y014521D01*
X019975Y014817D01*
X020019Y014799D01*
X020100Y014788D01*
X020181Y014799D01*
X020256Y014830D01*
X020320Y014880D01*
X020370Y014944D01*
X020401Y015019D01*
X020412Y015100D01*
X020403Y015169D01*
X020433Y015191D01*
X020447Y015195D01*
X021071Y014571D01*
X021071Y014571D01*
X021107Y014547D01*
X021150Y014539D01*
X021150Y014539D01*
X033457D01*
X033457Y014539D01*
X033500Y014547D01*
X033536Y014571D01*
X034376Y015411D01*
X034422Y015392D01*
Y015179D01*
X033521Y014279D01*
X033497Y014243D01*
X033489Y014200D01*
X033489Y014200D01*
Y013395D01*
X033464Y013385D01*
X033408Y013342D01*
X033365Y013286D01*
X033338Y013220D01*
X033329Y013150D01*
X033338Y013080D01*
X033365Y013014D01*
X033408Y012958D01*
X033464Y012915D01*
X033530Y012888D01*
X033600Y012879D01*
X033670Y012888D01*
X033736Y012915D01*
X033792Y012958D01*
X033835Y013014D01*
X033862Y013080D01*
X033871Y013150D01*
X033862Y013220D01*
X033835Y013286D01*
X033792Y013342D01*
X033736Y013385D01*
X033711Y013395D01*
Y014154D01*
X034612Y015055D01*
X034612Y015055D01*
X034636Y015091D01*
X034645Y015133D01*
X034645Y015133D01*
Y016674D01*
X034645Y016674D01*
X034636Y016716D01*
X034612Y016753D01*
X034612Y016753D01*
X034046Y017319D01*
X034061Y017374D01*
X034124Y017399D01*
X034195Y017455D01*
X034251Y017526D01*
X034285Y017610D01*
X034297Y017700D01*
X034285Y017790D01*
X034251Y017874D01*
X034195Y017945D01*
X034124Y018001D01*
X034040Y018035D01*
X033950Y018047D01*
X033860Y018035D01*
X033776Y018001D01*
X033705Y017945D01*
X033649Y017874D01*
X033615Y017790D01*
X033605Y017716D01*
X033557Y017693D01*
X031311Y019939D01*
Y021450D01*
X031303Y021493D01*
X031279Y021529D01*
X031279Y021529D01*
X031259Y021548D01*
X031285Y021610D01*
X031297Y021700D01*
X031285Y021790D01*
X031251Y021874D01*
X031195Y021945D01*
X031151Y021980D01*
X031168Y022030D01*
X031732D01*
X031749Y021980D01*
X031705Y021945D01*
X031649Y021874D01*
X031615Y021790D01*
X031603Y021700D01*
X031615Y021610D01*
X031649Y021526D01*
X031705Y021455D01*
X031776Y021399D01*
X031860Y021365D01*
X031950Y021353D01*
X032040Y021365D01*
X032124Y021399D01*
X032195Y021455D01*
X032251Y021526D01*
X032285Y021610D01*
X032297Y021700D01*
X032285Y021790D01*
X032251Y021874D01*
X032195Y021945D01*
X032151Y021980D01*
X032168Y022030D01*
X032463D01*
X032641Y021852D01*
X032615Y021790D01*
X032603Y021700D01*
X032615Y021610D01*
X032649Y021526D01*
X032705Y021455D01*
X032776Y021399D01*
X032860Y021365D01*
X032950Y021353D01*
X033040Y021365D01*
X033124Y021399D01*
X033195Y021455D01*
X033251Y021526D01*
X033285Y021610D01*
X033297Y021700D01*
X033285Y021790D01*
X033251Y021874D01*
X033195Y021945D01*
X033126Y021998D01*
X033126Y022004D01*
X033150Y022048D01*
X033750D01*
X033774Y022004D01*
X033774Y021998D01*
X033705Y021945D01*
X033649Y021874D01*
X033615Y021790D01*
X033603Y021700D01*
X033615Y021610D01*
X033649Y021526D01*
X033705Y021455D01*
X033776Y021399D01*
X033860Y021365D01*
X033950Y021353D01*
X034040Y021365D01*
X034124Y021399D01*
X034195Y021455D01*
X034251Y021526D01*
X034285Y021610D01*
X034297Y021700D01*
X034285Y021790D01*
X034251Y021874D01*
X034195Y021945D01*
X034126Y021998D01*
X034126Y022004D01*
X034150Y022048D01*
X042531D01*
X042832Y021748D01*
X042812Y021702D01*
X039350D01*
X039254Y021683D01*
X039172Y021628D01*
X038772Y021228D01*
X038717Y021146D01*
X038698Y021050D01*
Y019050D01*
X038717Y018954D01*
X038772Y018872D01*
X039472Y018172D01*
X039554Y018117D01*
X039575Y018113D01*
Y017918D01*
X040345D01*
X040364Y017872D01*
X037674Y015182D01*
X037628Y015201D01*
Y016106D01*
X037609Y016151D01*
X037564Y016170D01*
X036062D01*
X036058Y016168D01*
X036054Y016169D01*
X035977Y016159D01*
X035969Y016155D01*
X035961D01*
X035865Y016115D01*
X035859Y016109D01*
X035850Y016107D01*
X035768Y016044D01*
X035764Y016036D01*
X035756Y016032D01*
X035693Y015950D01*
X035691Y015941D01*
X035685Y015935D01*
X035645Y015839D01*
Y015831D01*
X035641Y015823D01*
X035631Y015746D01*
X035632Y015742D01*
X035630Y015738D01*
Y015712D01*
Y012508D01*
X034987Y011865D01*
X034097D01*
Y010960D01*
X035003D01*
Y011566D01*
X035584Y012148D01*
X035630Y012128D01*
Y010962D01*
X035632Y010958D01*
X035631Y010954D01*
X035641Y010877D01*
X035645Y010869D01*
Y010861D01*
X035685Y010765D01*
X035691Y010759D01*
X035693Y010750D01*
X035756Y010668D01*
X035764Y010664D01*
X035768Y010656D01*
X035850Y010593D01*
X035859Y010591D01*
X035865Y010585D01*
X035961Y010545D01*
X035969D01*
X035977Y010541D01*
X036054Y010531D01*
X036058Y010532D01*
X036062Y010530D01*
X037564D01*
X037609Y010549D01*
X037628Y010594D01*
Y014821D01*
X040702Y017894D01*
X040959D01*
X040959Y017894D01*
X041001Y017903D01*
X041023Y017918D01*
X041110D01*
Y018000D01*
X041129Y018018D01*
X041129Y018018D01*
X041153Y018054D01*
X041161Y018097D01*
X041161Y018097D01*
Y018526D01*
X041161Y018526D01*
X041153Y018568D01*
X041129Y018605D01*
X041129Y018605D01*
X041110Y018623D01*
Y018705D01*
X041023D01*
X041001Y018720D01*
X040972Y018726D01*
Y019237D01*
X039713D01*
Y018725D01*
X039671Y018705D01*
X039651D01*
X039202Y019154D01*
Y020946D01*
X039454Y021198D01*
X039672D01*
Y021089D01*
X040343D01*
X041013D01*
Y021198D01*
X043056D01*
Y020659D01*
X043844D01*
Y020659D01*
X043876Y020672D01*
X044326Y020222D01*
Y012549D01*
X043654D01*
Y012925D01*
X042946D01*
Y012549D01*
X042338D01*
X042245Y012643D01*
X042235Y012717D01*
X042190Y012825D01*
X042119Y012919D01*
X042025Y012990D01*
X041917Y013035D01*
X041800Y013051D01*
X041683Y013035D01*
X041575Y012990D01*
X041481Y012919D01*
X041410Y012825D01*
X041365Y012717D01*
X041349Y012600D01*
X041365Y012484D01*
X041363Y012482D01*
X041322Y012456D01*
X041270Y012508D01*
Y014192D01*
X042042Y014964D01*
X042325D01*
X042325Y014964D01*
X042367Y014972D01*
X042403Y014997D01*
X043037Y015630D01*
X043083Y015611D01*
Y015539D01*
X043517D01*
Y016562D01*
X043083D01*
Y016490D01*
X043037Y016470D01*
X041761Y017746D01*
Y019264D01*
X041761Y019264D01*
X041753Y019307D01*
X041729Y019343D01*
X041729Y019343D01*
X041037Y020035D01*
X041001Y020059D01*
X040972Y020064D01*
Y020575D01*
X039713D01*
Y020063D01*
X040231D01*
Y019956D01*
X040224Y019947D01*
X039672D01*
Y019750D01*
X040343D01*
Y019650D01*
X040443D01*
Y019353D01*
X041013D01*
Y019678D01*
X041060Y019698D01*
X041539Y019218D01*
Y017700D01*
X041539Y017700D01*
X041547Y017658D01*
X041571Y017622D01*
X043083Y016110D01*
Y015991D01*
X042279Y015186D01*
X041996D01*
X041996Y015186D01*
X041954Y015178D01*
X041917Y015154D01*
X041917Y015154D01*
X041316Y014552D01*
X041270Y014572D01*
Y015738D01*
X041268Y015742D01*
X041269Y015746D01*
X041259Y015823D01*
X041255Y015831D01*
Y015839D01*
X041215Y015935D01*
X041209Y015941D01*
X041207Y015950D01*
X041144Y016032D01*
X041136Y016036D01*
X041132Y016044D01*
X041050Y016107D01*
X041041Y016109D01*
X041035Y016115D01*
X040939Y016155D01*
X040931D01*
X040923Y016159D01*
X040846Y016169D01*
X040842Y016168D01*
X040838Y016170D01*
X039336D01*
X039291Y016151D01*
X039272Y016106D01*
Y010979D01*
X038254Y009961D01*
X029740D01*
X028509Y011192D01*
X028528Y011239D01*
X028600D01*
Y011750D01*
X027498D01*
Y011239D01*
X027571D01*
X027590Y011192D01*
X027209Y010811D01*
X019746D01*
X019517Y011040D01*
X019545Y011107D01*
X019557Y011200D01*
X019545Y011293D01*
X019510Y011379D01*
X019453Y011453D01*
X019379Y011510D01*
X019293Y011545D01*
X019200Y011557D01*
X019108Y011545D01*
X019021Y011510D01*
X018947Y011453D01*
X018890Y011379D01*
X018855Y011293D01*
X018843Y011200D01*
X018855Y011107D01*
X018890Y011021D01*
X018947Y010947D01*
X019021Y010890D01*
X019108Y010855D01*
X019200Y010843D01*
X019293Y010855D01*
X019360Y010883D01*
X019621Y010621D01*
X019621Y010621D01*
X019657Y010597D01*
X019700Y010589D01*
X019700Y010589D01*
X027255D01*
X027255Y010589D01*
X027297Y010597D01*
X027333Y010621D01*
X027951Y011239D01*
X028148D01*
X029615Y009771D01*
X029615Y009771D01*
X029651Y009747D01*
X029694Y009739D01*
X038300D01*
X038300Y009739D01*
X038343Y009747D01*
X038379Y009771D01*
X039226Y010618D01*
X039272Y010599D01*
Y010594D01*
X039291Y010549D01*
X039336Y010530D01*
X040838D01*
X040842Y010532D01*
X040846Y010531D01*
X040923Y010541D01*
X040931Y010545D01*
X040939D01*
X041035Y010585D01*
X041041Y010591D01*
X041050Y010593D01*
X041132Y010656D01*
X041136Y010664D01*
X041144Y010668D01*
X041207Y010750D01*
X041209Y010759D01*
X041215Y010765D01*
X041255Y010861D01*
Y010869D01*
X041259Y010877D01*
X041269Y010954D01*
X041268Y010958D01*
X041270Y010962D01*
Y012128D01*
X041316Y012148D01*
X041842Y011622D01*
X041830Y011606D01*
X041799Y011531D01*
X041788Y011450D01*
X041799Y011369D01*
X041830Y011294D01*
X041880Y011230D01*
X041944Y011180D01*
X042019Y011149D01*
X042100Y011138D01*
X042181Y011149D01*
X042256Y011180D01*
X042320Y011230D01*
X042370Y011294D01*
X042401Y011369D01*
X042412Y011450D01*
X042401Y011531D01*
X042370Y011606D01*
X042320Y011670D01*
X042256Y011720D01*
X042181Y011751D01*
X042100Y011762D01*
X042026Y011752D01*
X041656Y012122D01*
X041682Y012163D01*
X041684Y012165D01*
X041800Y012149D01*
X041917Y012165D01*
X041939Y012174D01*
X042031Y012081D01*
X042088Y012038D01*
X042154Y012010D01*
X042225Y012001D01*
X042946D01*
Y011626D01*
X043654D01*
Y012001D01*
X044411D01*
X045199Y011213D01*
X045166Y011175D01*
X045127Y011206D01*
X045050Y011237D01*
Y011000D01*
X045287D01*
X045256Y011077D01*
X045225Y011116D01*
X045263Y011149D01*
X046628Y009784D01*
X046685Y009741D01*
X046751Y009713D01*
X046822Y009704D01*
X057678D01*
X057749Y009713D01*
X057815Y009741D01*
X057872Y009784D01*
X058294Y010206D01*
X058337Y010263D01*
X058365Y010329D01*
X058374Y010400D01*
Y010826D01*
X058699D01*
Y010650D01*
X058715Y010573D01*
X058758Y010508D01*
X059208Y010058D01*
X059273Y010015D01*
X059350Y009999D01*
X066800Y009999D01*
X066877Y010015D01*
X066942Y010058D01*
X067392Y010508D01*
X067435Y010573D01*
X067451Y010650D01*
X067451Y012700D01*
X067435Y012777D01*
X067392Y012842D01*
X067327Y012885D01*
X067250Y012901D01*
X063800Y012901D01*
X063723Y012885D01*
X063675Y012853D01*
X063325D01*
X063277Y012885D01*
X063200Y012901D01*
X058900D01*
X058823Y012885D01*
X058775Y012853D01*
X058374D01*
Y013742D01*
X058532Y013899D01*
X067150Y013899D01*
X067227Y013915D01*
X067244Y013926D01*
X067283D01*
Y013952D01*
X067292Y013958D01*
X067335Y014023D01*
X067351Y014100D01*
Y023100D01*
X067335Y023177D01*
X067292Y023242D01*
X064651Y025883D01*
X064651Y028450D01*
X064635Y028527D01*
X064592Y028592D01*
X064527Y028635D01*
X064450Y028651D01*
X062902D01*
Y028748D01*
X065222D01*
X065253Y028710D01*
X065249Y028690D01*
Y027981D01*
X065265Y027904D01*
X065308Y027839D01*
X065339Y027819D01*
Y027300D01*
X065339Y027300D01*
X065347Y027257D01*
X065371Y027221D01*
X065598Y026995D01*
X065588Y026970D01*
X065579Y026900D01*
X065588Y026830D01*
X065615Y026764D01*
X065658Y026708D01*
X065714Y026665D01*
X065780Y026638D01*
X065850Y026629D01*
X065920Y026638D01*
X065986Y026665D01*
X066042Y026708D01*
X066085Y026764D01*
X066112Y026830D01*
X066118Y026878D01*
X066130Y026887D01*
X066169Y026899D01*
X066214Y026865D01*
X066280Y026838D01*
X066350Y026829D01*
X066420Y026838D01*
X066486Y026865D01*
X066542Y026908D01*
X066585Y026964D01*
X066612Y027030D01*
X066615Y027054D01*
X066657Y027063D01*
X066667Y027062D01*
X066708Y027008D01*
X066764Y026965D01*
X066789Y026955D01*
Y026472D01*
X066690Y026372D01*
X066414D01*
Y026287D01*
X066286D01*
Y026372D01*
X065814D01*
Y025979D01*
X066286D01*
Y026064D01*
X066414D01*
Y025979D01*
X066886D01*
Y026255D01*
X066979Y026347D01*
X066979Y026347D01*
X067003Y026383D01*
X067011Y026426D01*
X067011Y026426D01*
Y026955D01*
X067036Y026965D01*
X067092Y027008D01*
X067135Y027064D01*
X067162Y027130D01*
X067171Y027200D01*
X067162Y027270D01*
X067135Y027336D01*
X067092Y027392D01*
X067036Y027435D01*
X066970Y027462D01*
X066900Y027471D01*
X066830Y027462D01*
X066805Y027452D01*
X066561Y027696D01*
Y027812D01*
X066600Y027845D01*
X066648Y027837D01*
X066658Y027812D01*
X066711Y027742D01*
X066781Y027689D01*
X066863Y027655D01*
X066950Y027644D01*
X067037Y027655D01*
X067119Y027689D01*
X067189Y027742D01*
X067242Y027812D01*
X067276Y027894D01*
X067288Y027981D01*
Y028690D01*
X067276Y028777D01*
X067242Y028859D01*
X067199Y028915D01*
X067183Y028996D01*
X067128Y029078D01*
X067028Y029178D01*
X066946Y029233D01*
X066883Y029245D01*
X066877Y029273D01*
X066878Y029297D01*
X066954Y029348D01*
X067128Y029522D01*
X067183Y029604D01*
X067199Y029685D01*
X067242Y029741D01*
X067276Y029823D01*
X067288Y029910D01*
Y030619D01*
X067276Y030706D01*
X067242Y030788D01*
X067189Y030858D01*
X067119Y030911D01*
X067037Y030945D01*
X066950Y030956D01*
X066863Y030945D01*
X066781Y030911D01*
X066711Y030858D01*
X066671Y030806D01*
X066632Y030794D01*
X066608Y030799D01*
X066550Y030838D01*
Y030265D01*
X066450D01*
Y030165D01*
X066208D01*
Y029910D01*
X066224Y029827D01*
X066197Y029777D01*
X066151Y029777D01*
X066127Y029821D01*
X066135Y029833D01*
X066151Y029910D01*
Y030619D01*
X066135Y030696D01*
X066092Y030761D01*
X066061Y030781D01*
Y031344D01*
X066121D01*
Y031856D01*
X065649D01*
Y031344D01*
X065839D01*
Y030781D01*
X065808Y030761D01*
X065765Y030696D01*
X065749Y030619D01*
Y030376D01*
X065651D01*
Y030619D01*
X065635Y030696D01*
X065592Y030761D01*
X065527Y030804D01*
X065450Y030820D01*
X065373Y030804D01*
X065308Y030761D01*
X065265Y030696D01*
X065249Y030619D01*
Y029910D01*
X065265Y029833D01*
X065273Y029821D01*
X065249Y029777D01*
X062902D01*
Y029949D01*
X064700D01*
X064777Y029965D01*
X064842Y030008D01*
X064885Y030073D01*
X064901Y030150D01*
X064901Y032500D01*
X064885Y032577D01*
X064842Y032642D01*
X064442Y033042D01*
X064377Y033085D01*
X064300Y033101D01*
D02*
G37*
G36*
X027300Y033087D02*
X027223Y033056D01*
X027150Y033000D01*
X027094Y032927D01*
X027063Y032850D01*
X027300D01*
Y033087D01*
D02*
G37*
G36*
Y032650D02*
X027063D01*
X027094Y032573D01*
X027150Y032500D01*
X027223Y032444D01*
X027300Y032413D01*
Y032650D01*
D02*
G37*
G36*
X027737D02*
X027500D01*
Y032413D01*
X027577Y032444D01*
X027650Y032500D01*
X027706Y032573D01*
X027737Y032650D01*
D02*
G37*
G36*
X031450Y030787D02*
Y030550D01*
X031687D01*
X031656Y030627D01*
X031600Y030700D01*
X031527Y030756D01*
X031450Y030787D01*
D02*
G37*
G36*
X019695Y031195D02*
X019400D01*
Y030900D01*
X019695D01*
Y031195D01*
D02*
G37*
G36*
X031250Y030787D02*
X031173Y030756D01*
X031100Y030700D01*
X031044Y030627D01*
X031013Y030550D01*
X031250D01*
Y030787D01*
D02*
G37*
G36*
X066350Y030838D02*
X066279Y030790D01*
X066226Y030712D01*
X066208Y030619D01*
Y030365D01*
X066350D01*
Y030838D01*
D02*
G37*
G36*
X019695Y030700D02*
X019400D01*
Y030405D01*
X019695D01*
Y030700D01*
D02*
G37*
G36*
X066415Y031500D02*
X066238D01*
Y031303D01*
X066415D01*
Y031500D01*
D02*
G37*
G36*
X066792D02*
X066615D01*
Y031303D01*
X066792D01*
Y031500D01*
D02*
G37*
G36*
X050887Y031150D02*
X050650D01*
Y030913D01*
X050727Y030944D01*
X050800Y031000D01*
X050856Y031073D01*
X050887Y031150D01*
D02*
G37*
G36*
X020750Y031195D02*
Y030900D01*
X021045D01*
Y031195D01*
X020750D01*
D02*
G37*
G36*
X050450Y031150D02*
X050213D01*
X050244Y031073D01*
X050300Y031000D01*
X050373Y030944D01*
X050450Y030913D01*
Y031150D01*
D02*
G37*
G36*
X041950Y020787D02*
X041873Y020756D01*
X041800Y020700D01*
X041744Y020627D01*
X041713Y020550D01*
X041950D01*
Y020787D01*
D02*
G37*
G36*
X044787Y021350D02*
X044550D01*
Y021113D01*
X044627Y021144D01*
X044700Y021200D01*
X044756Y021273D01*
X044787Y021350D01*
D02*
G37*
G36*
X031700Y020487D02*
X031623Y020456D01*
X031550Y020400D01*
X031494Y020327D01*
X031463Y020250D01*
X031700D01*
Y020487D01*
D02*
G37*
G36*
X033150Y020287D02*
Y020050D01*
X033387D01*
X033356Y020127D01*
X033300Y020200D01*
X033227Y020256D01*
X033150Y020287D01*
D02*
G37*
G36*
X044550Y021787D02*
Y021550D01*
X044787D01*
X044756Y021627D01*
X044700Y021700D01*
X044627Y021756D01*
X044550Y021787D01*
D02*
G37*
G36*
X031500Y023287D02*
X031423Y023256D01*
X031350Y023200D01*
X031294Y023127D01*
X031263Y023050D01*
X031500D01*
Y023287D01*
D02*
G37*
G36*
X044350Y021787D02*
X044273Y021756D01*
X044200Y021700D01*
X044144Y021627D01*
X044113Y021550D01*
X044350D01*
Y021787D01*
D02*
G37*
G36*
X049800Y020650D02*
X049563D01*
X049594Y020573D01*
X049650Y020500D01*
X049723Y020444D01*
X049800Y020413D01*
Y020650D01*
D02*
G37*
G36*
X042150Y020787D02*
Y020550D01*
X042387D01*
X042356Y020627D01*
X042300Y020700D01*
X042227Y020756D01*
X042150Y020787D01*
D02*
G37*
G36*
X042387Y020350D02*
X042150D01*
Y020113D01*
X042227Y020144D01*
X042300Y020200D01*
X042356Y020273D01*
X042387Y020350D01*
D02*
G37*
G36*
X040243Y020889D02*
X039672D01*
Y020692D01*
X040243D01*
Y020889D01*
D02*
G37*
G36*
X049800Y021087D02*
X049723Y021056D01*
X049650Y021000D01*
X049594Y020927D01*
X049563Y020850D01*
X049800D01*
Y021087D01*
D02*
G37*
G36*
X041013Y020889D02*
X040443D01*
Y020692D01*
X041013D01*
Y020889D01*
D02*
G37*
G36*
X052150Y020337D02*
Y020100D01*
X052387D01*
X052356Y020177D01*
X052300Y020250D01*
X052227Y020306D01*
X052150Y020337D01*
D02*
G37*
G36*
X051950D02*
X051873Y020306D01*
X051800Y020250D01*
X051744Y020177D01*
X051713Y020100D01*
X051950D01*
Y020337D01*
D02*
G37*
G36*
X044350Y021350D02*
X044113D01*
X044144Y021273D01*
X044200Y021200D01*
X044273Y021144D01*
X044350Y021113D01*
Y021350D01*
D02*
G37*
G36*
X041950Y020350D02*
X041713D01*
X041744Y020273D01*
X041800Y020200D01*
X041873Y020144D01*
X041950Y020113D01*
Y020350D01*
D02*
G37*
G36*
X031900Y020487D02*
Y020250D01*
X032137D01*
X032106Y020327D01*
X032050Y020400D01*
X031977Y020456D01*
X031900Y020487D01*
D02*
G37*
G36*
X066600Y024987D02*
X066523Y024956D01*
X066450Y024900D01*
X066394Y024827D01*
X066363Y024750D01*
X066600D01*
Y024987D01*
D02*
G37*
G36*
X067037Y024550D02*
X066800D01*
Y024313D01*
X066877Y024344D01*
X066950Y024400D01*
X067006Y024473D01*
X067037Y024550D01*
D02*
G37*
G36*
X032950Y020287D02*
X032873Y020256D01*
X032800Y020200D01*
X032744Y020127D01*
X032713Y020050D01*
X032950D01*
Y020287D01*
D02*
G37*
G36*
X033025Y010691D02*
X032553D01*
Y010179D01*
X033025D01*
Y010691D01*
D02*
G37*
G36*
X066373Y025862D02*
X066327D01*
X066323Y025862D01*
X066150D01*
Y025624D01*
Y025387D01*
X066323D01*
X066327Y025387D01*
X066373D01*
X066377Y025387D01*
X066550D01*
Y025624D01*
Y025862D01*
X066377D01*
X066373Y025862D01*
D02*
G37*
G36*
X032137Y020050D02*
X031900D01*
Y019813D01*
X031977Y019844D01*
X032050Y019900D01*
X032106Y019973D01*
X032137Y020050D01*
D02*
G37*
G36*
X027950Y010587D02*
X027873Y010556D01*
X027800Y010500D01*
X027744Y010427D01*
X027713Y010350D01*
X027950D01*
Y010587D01*
D02*
G37*
G36*
X066800Y024987D02*
Y024750D01*
X067037D01*
X067006Y024827D01*
X066950Y024900D01*
X066877Y024956D01*
X066800Y024987D01*
D02*
G37*
G36*
X066600Y024550D02*
X066363D01*
X066394Y024473D01*
X066450Y024400D01*
X066523Y024344D01*
X066600Y024313D01*
Y024550D01*
D02*
G37*
G36*
X031700Y023287D02*
Y023050D01*
X031937D01*
X031906Y023127D01*
X031850Y023200D01*
X031777Y023256D01*
X031700Y023287D01*
D02*
G37*
G36*
X045350Y025421D02*
X045280Y025412D01*
X045214Y025385D01*
X045158Y025342D01*
X045115Y025286D01*
X045088Y025220D01*
X045079Y025150D01*
X045088Y025080D01*
X045115Y025014D01*
X045158Y024958D01*
X045213Y024916D01*
Y024681D01*
X045224Y024629D01*
X045253Y024584D01*
X045526Y024312D01*
Y023481D01*
X046136D01*
Y024918D01*
X045572D01*
X045561Y024933D01*
X045550Y024969D01*
X045585Y025014D01*
X045612Y025080D01*
X045621Y025150D01*
X045612Y025220D01*
X045585Y025286D01*
X045542Y025342D01*
X045486Y025385D01*
X045420Y025412D01*
X045350Y025421D01*
D02*
G37*
G36*
X033950Y021047D02*
X033860Y021035D01*
X033776Y021001D01*
X033705Y020945D01*
X033649Y020874D01*
X033615Y020790D01*
X033603Y020700D01*
X033615Y020610D01*
X033649Y020526D01*
X033705Y020455D01*
X033776Y020399D01*
X033860Y020365D01*
X033950Y020353D01*
X034040Y020365D01*
X034124Y020399D01*
X034195Y020455D01*
X034251Y020526D01*
X034285Y020610D01*
X034297Y020700D01*
X034285Y020790D01*
X034251Y020874D01*
X034195Y020945D01*
X034124Y021001D01*
X034040Y021035D01*
X033950Y021047D01*
D02*
G37*
G36*
X028387Y010150D02*
X028150D01*
Y009913D01*
X028227Y009944D01*
X028300Y010000D01*
X028356Y010073D01*
X028387Y010150D01*
D02*
G37*
G36*
X032353Y010691D02*
X031880D01*
Y010179D01*
X032353D01*
Y010691D01*
D02*
G37*
G36*
X021738Y024139D02*
Y023945D01*
X021932D01*
X021909Y024002D01*
X021859Y024066D01*
X021794Y024116D01*
X021738Y024139D01*
D02*
G37*
G36*
X021932Y023745D02*
X021738D01*
Y023551D01*
X021794Y023574D01*
X021859Y023624D01*
X021909Y023689D01*
X021932Y023745D01*
D02*
G37*
%LPD*%
G36*
X064450Y025800D02*
X067150Y023100D01*
Y014100D01*
X058000Y014100D01*
Y017650D01*
X062000D01*
X062600Y018250D01*
Y018900D01*
X060850Y018900D01*
X060850Y028450D01*
X064450D01*
X064450Y025800D01*
D02*
G37*
G36*
X036108Y031614D02*
X036454D01*
Y031414D01*
X036108D01*
Y031405D01*
X036100Y031400D01*
X036044Y031327D01*
X036013Y031250D01*
X036350D01*
Y031050D01*
X036013D01*
X036044Y030973D01*
X036100Y030900D01*
X036108Y030895D01*
Y030781D01*
X034441D01*
X034397Y030796D01*
Y032171D01*
X036108D01*
Y031614D01*
D02*
G37*
G36*
X060400Y022800D02*
X059400Y021800D01*
Y018000D01*
X055900D01*
Y022200D01*
X057300D01*
X057900Y022800D01*
Y025000D01*
X060400D01*
Y022800D01*
D02*
G37*
G36*
X020021Y020321D02*
X020057Y020297D01*
X020100Y020289D01*
X020100Y020289D01*
X028204D01*
X030337Y018155D01*
X030309Y018113D01*
X030250Y018137D01*
Y017900D01*
X030487D01*
X030463Y017959D01*
X030505Y017987D01*
X032641Y015852D01*
X032615Y015790D01*
X032605Y015716D01*
X032557Y015693D01*
X032471Y015779D01*
X032435Y015803D01*
X032393Y015811D01*
X032393Y015811D01*
X032276D01*
X032251Y015874D01*
X032195Y015945D01*
X032124Y016001D01*
X032040Y016035D01*
X031950Y016047D01*
X031860Y016035D01*
X031776Y016001D01*
X031705Y015945D01*
X031649Y015874D01*
X031615Y015790D01*
X031603Y015700D01*
X031615Y015610D01*
X031649Y015526D01*
X031705Y015455D01*
X031776Y015399D01*
X031860Y015365D01*
X031950Y015353D01*
X032040Y015365D01*
X032124Y015399D01*
X032195Y015455D01*
X032251Y015526D01*
X032276Y015589D01*
X032347D01*
X032708Y015227D01*
X032744Y015203D01*
X032787Y015195D01*
X032787Y015195D01*
X033113D01*
X033113Y015195D01*
X033156Y015203D01*
X033192Y015227D01*
X033569Y015604D01*
X033620Y015589D01*
X033636Y015543D01*
X033104Y015011D01*
X021239D01*
X020984Y015266D01*
X021002Y015319D01*
X021051Y015325D01*
X021144Y015364D01*
X021225Y015425D01*
X021286Y015506D01*
X021325Y015599D01*
X021325Y015600D01*
X020950D01*
Y015700D01*
X020850D01*
Y016075D01*
X020849Y016075D01*
X020756Y016036D01*
X020675Y015975D01*
X020614Y015894D01*
X020575Y015801D01*
X020569Y015752D01*
X020516Y015734D01*
X018720Y017530D01*
Y017831D01*
X018721Y017881D01*
X019199D01*
Y018319D01*
X019170D01*
X019153Y018364D01*
X019153Y018369D01*
X019195Y018424D01*
X019222Y018490D01*
X019231Y018560D01*
X019222Y018630D01*
X019195Y018696D01*
X019152Y018752D01*
X019096Y018795D01*
X019030Y018822D01*
X018960Y018831D01*
X018890Y018822D01*
X018824Y018795D01*
X018770Y018754D01*
X018760Y018755D01*
X018720Y018772D01*
Y021557D01*
X018766Y021576D01*
X020021Y020321D01*
D02*
G37*
G36*
X067250Y010650D02*
X066800Y010200D01*
X059350Y010200D01*
X058900Y010650D01*
X058900Y012700D01*
X063200D01*
Y010950D01*
X063800D01*
X063800Y012700D01*
X067250Y012700D01*
X067250Y010650D01*
D02*
G37*
G36*
X051100Y011300D02*
X050000D01*
X050000Y016900D01*
X050000Y018250D01*
X051100Y018250D01*
X051100Y011300D01*
D02*
G37*
G36*
X046761Y016425D02*
Y015500D01*
X048039D01*
Y015738D01*
X048086Y015757D01*
X048121Y015721D01*
X048121Y015721D01*
X048157Y015697D01*
X048200Y015689D01*
X048296D01*
Y015380D01*
Y015124D01*
Y014843D01*
X048289Y014839D01*
X048289Y014839D01*
X048167Y014717D01*
X048143Y014681D01*
X048134Y014638D01*
X048134Y014638D01*
Y014113D01*
X048130Y014112D01*
X048085Y014093D01*
X048040Y014125D01*
X048039Y014126D01*
Y015300D01*
X047500D01*
Y014105D01*
X048008D01*
X048025Y014055D01*
X048008Y014042D01*
X047965Y013986D01*
X047938Y013920D01*
X047929Y013850D01*
X047938Y013780D01*
X047965Y013714D01*
X048008Y013658D01*
X048064Y013615D01*
X048130Y013588D01*
X048200Y013579D01*
X048270Y013588D01*
X048336Y013615D01*
X048392Y013658D01*
X048400Y013669D01*
X048450Y013652D01*
Y013483D01*
X048140Y013172D01*
X047864D01*
Y013087D01*
X047636D01*
Y013172D01*
X047164D01*
Y012779D01*
X047636D01*
Y012864D01*
X047864D01*
Y012779D01*
X048336D01*
Y013055D01*
X048640Y013358D01*
X048640Y013358D01*
X048664Y013394D01*
X048673Y013437D01*
Y014101D01*
X048827D01*
Y014316D01*
X048868D01*
Y014404D01*
X048561D01*
Y014604D01*
X048868D01*
Y014649D01*
X048997D01*
X049030Y014611D01*
X049029Y014600D01*
X049038Y014530D01*
X049065Y014464D01*
X049108Y014408D01*
X049164Y014365D01*
X049230Y014338D01*
X049300Y014329D01*
X049370Y014338D01*
X049436Y014365D01*
X049492Y014408D01*
X049535Y014464D01*
X049562Y014530D01*
X049571Y014600D01*
X049562Y014670D01*
X049535Y014736D01*
X049492Y014792D01*
X049436Y014835D01*
X049371Y014862D01*
X049370Y014865D01*
X049362Y014914D01*
X049385Y014929D01*
X049496Y015040D01*
X049496Y015040D01*
X049779Y015323D01*
X049779Y015323D01*
X049803Y015359D01*
X049811Y015401D01*
Y015555D01*
X049836Y015565D01*
X049886Y015604D01*
X049910Y015598D01*
X049936Y015584D01*
X049936Y013211D01*
X049349D01*
X049306Y013203D01*
X049270Y013179D01*
X049270Y013179D01*
X049140Y013048D01*
X048864D01*
Y012654D01*
X049336D01*
Y012930D01*
X049395Y012989D01*
X049936D01*
X049936Y011300D01*
X049955Y011255D01*
X050000Y011236D01*
X050013D01*
X050033Y011190D01*
X049604Y010761D01*
X047046D01*
X046863Y010945D01*
X046891Y010987D01*
X046950Y010963D01*
Y011200D01*
X046713D01*
X046737Y011141D01*
X046695Y011113D01*
X045940Y011867D01*
Y012209D01*
X045990Y012234D01*
X046014Y012215D01*
X046080Y012188D01*
X046150Y012179D01*
X046220Y012188D01*
X046286Y012215D01*
X046342Y012258D01*
X046385Y012314D01*
X046412Y012380D01*
X046414Y012392D01*
X046464Y012389D01*
Y012228D01*
X046936D01*
Y012313D01*
X047164D01*
Y012228D01*
X047636D01*
Y012621D01*
X047164D01*
Y012536D01*
X046936D01*
Y012621D01*
X046464D01*
Y012511D01*
X046414Y012508D01*
X046412Y012520D01*
X046385Y012586D01*
X046342Y012642D01*
X046286Y012685D01*
X046261Y012695D01*
Y013314D01*
X046272D01*
Y013627D01*
X046322Y013647D01*
X046364Y013615D01*
X046430Y013588D01*
X046500Y013579D01*
X046570Y013588D01*
X046636Y013615D01*
X046692Y013658D01*
X046735Y013714D01*
X046762Y013780D01*
X046771Y013850D01*
X046762Y013920D01*
X046735Y013986D01*
X046692Y014042D01*
X046666Y014062D01*
Y015528D01*
X046657Y015570D01*
X046633Y015607D01*
X046597Y015631D01*
X046554Y015639D01*
X046545D01*
Y015684D01*
X046239D01*
Y015884D01*
X046545D01*
Y015972D01*
X046504D01*
Y016440D01*
X046663D01*
X046663Y016440D01*
X046706Y016449D01*
X046711Y016452D01*
X046761Y016425D01*
D02*
G37*
G36*
X031242Y028921D02*
X031215Y028886D01*
X031188Y028820D01*
X031179Y028750D01*
X031188Y028680D01*
X031215Y028614D01*
X031258Y028558D01*
X031314Y028515D01*
X031326Y028510D01*
Y027531D01*
X031326Y027531D01*
X031326D01*
X031323Y027483D01*
X031294Y027471D01*
X031229Y027421D01*
X031179Y027356D01*
X031156Y027300D01*
X031450D01*
Y027100D01*
X031156D01*
X031179Y027044D01*
X031204Y027011D01*
X031179Y026961D01*
X028015D01*
X027998Y027011D01*
X028021Y027029D01*
X028071Y027094D01*
X028094Y027150D01*
X027506D01*
X027529Y027094D01*
X027579Y027029D01*
X027602Y027011D01*
X027585Y026961D01*
X026689D01*
X026668Y027011D01*
X026855Y027198D01*
X026880Y027188D01*
X026950Y027179D01*
X027020Y027188D01*
X027086Y027215D01*
X027142Y027258D01*
X027185Y027314D01*
X027212Y027380D01*
X027221Y027450D01*
X027212Y027520D01*
X027185Y027586D01*
X027142Y027642D01*
X027086Y027685D01*
X027020Y027712D01*
X026950Y027721D01*
X026880Y027712D01*
X026814Y027685D01*
X026758Y027642D01*
X026715Y027586D01*
X026688Y027520D01*
X026679Y027450D01*
X026688Y027380D01*
X026698Y027355D01*
X026504Y027161D01*
X025258D01*
X024576Y027843D01*
X024595Y027889D01*
X026650D01*
X026650Y027889D01*
X026693Y027897D01*
X026729Y027921D01*
X027500Y028693D01*
X027553Y028675D01*
X027559Y028630D01*
X027586Y028564D01*
X027626Y028512D01*
X027623Y028497D01*
X027604Y028464D01*
X027550Y028471D01*
X027480Y028462D01*
X027414Y028435D01*
X027358Y028392D01*
X027315Y028336D01*
X027288Y028270D01*
X027279Y028200D01*
X027288Y028130D01*
X027315Y028064D01*
X027358Y028008D01*
X027414Y027965D01*
X027480Y027938D01*
X027550Y027929D01*
X027607Y027936D01*
X027642Y027915D01*
X027657Y027899D01*
Y027526D01*
X027644Y027521D01*
X027579Y027471D01*
X027529Y027406D01*
X027506Y027350D01*
X028094D01*
X028071Y027406D01*
X028024Y027467D01*
X028029Y027496D01*
X028037Y027517D01*
X028095D01*
Y027951D01*
X028145Y027972D01*
X028411Y027706D01*
Y027517D01*
X028494D01*
X028504Y027468D01*
X028533Y027423D01*
X028582Y027375D01*
X028579Y027350D01*
X028588Y027280D01*
X028615Y027214D01*
X028658Y027158D01*
X028714Y027115D01*
X028780Y027088D01*
X028850Y027079D01*
X028920Y027088D01*
X028986Y027115D01*
X029042Y027158D01*
X029085Y027214D01*
X029112Y027280D01*
X029121Y027350D01*
X029112Y027420D01*
X029087Y027481D01*
X029100Y027518D01*
X029106Y027531D01*
X029574D01*
Y028969D01*
X029623Y028971D01*
X031217D01*
X031242Y028921D01*
D02*
G37*
G36*
X022529Y029205D02*
X022528Y029201D01*
Y028877D01*
X022536Y028834D01*
X022542Y028826D01*
Y028791D01*
X022550Y028796D01*
X022591Y028768D01*
X022887Y028471D01*
X022923Y028447D01*
X022966Y028439D01*
X022966Y028439D01*
X023505D01*
X023515Y028414D01*
X023558Y028358D01*
X023614Y028315D01*
X023680Y028288D01*
X023750Y028279D01*
X023820Y028288D01*
X023886Y028315D01*
X023942Y028358D01*
X023985Y028414D01*
X024012Y028480D01*
X024021Y028550D01*
X024012Y028620D01*
X023985Y028686D01*
X023942Y028742D01*
X023941Y028743D01*
X023938Y028808D01*
X023950Y028817D01*
X023952Y028817D01*
X023975Y028802D01*
X024017Y028794D01*
X024059Y028802D01*
X024095Y028826D01*
X024119Y028862D01*
X024127Y028904D01*
Y029158D01*
X027580D01*
X027601Y029108D01*
X026604Y028111D01*
X024521D01*
X024520Y028111D01*
X024478Y028120D01*
X024478Y028120D01*
X023463D01*
X023420Y028111D01*
X023418Y028110D01*
X023382Y028103D01*
X023346Y028079D01*
X022787Y027520D01*
X022763Y027484D01*
X022759Y027462D01*
X022560Y027264D01*
X022536Y027228D01*
X022528Y027185D01*
X022528Y027185D01*
Y027029D01*
X022494Y027005D01*
X022478Y026999D01*
X022442Y027006D01*
X022400Y026998D01*
X022377Y026983D01*
X022344Y026977D01*
X022310Y026983D01*
X022288Y026998D01*
X022245Y027006D01*
X022203Y026998D01*
X022167Y026974D01*
X022126D01*
X022091Y026998D01*
X022048Y027006D01*
X022006Y026998D01*
X021984Y026983D01*
X021950Y026977D01*
X021916Y026983D01*
X021894Y026998D01*
X021852Y027006D01*
X021809Y026998D01*
X021787Y026983D01*
X021753Y026977D01*
X021719Y026983D01*
X021697Y026998D01*
X021655Y027006D01*
X021612Y026998D01*
X021577Y026974D01*
X021536D01*
X021500Y026998D01*
X021458Y027006D01*
X021416Y026998D01*
X021393Y026983D01*
X021359Y026977D01*
X021326Y026983D01*
X021303Y026998D01*
X021261Y027006D01*
X021219Y026998D01*
X021183Y026974D01*
X021142D01*
X021106Y026998D01*
X021064Y027006D01*
X021022Y026998D01*
X021000Y026983D01*
X020966Y026977D01*
X020932Y026983D01*
X020910Y026998D01*
X020867Y027006D01*
X020825Y026998D01*
X020803Y026983D01*
X020769Y026977D01*
X020735Y026983D01*
X020713Y026998D01*
X020670Y027006D01*
X020628Y026998D01*
X020592Y026974D01*
X020552D01*
X020516Y026998D01*
X020474Y027006D01*
X020431Y026998D01*
X020409Y026983D01*
X020375Y026977D01*
X020341Y026983D01*
X020319Y026998D01*
X020277Y027006D01*
X020235Y026998D01*
X020212Y026983D01*
X020178Y026977D01*
X020145Y026983D01*
X020122Y026998D01*
X020080Y027006D01*
X020038Y026998D01*
X020015Y026983D01*
X020010Y026982D01*
X019986Y026999D01*
X019981Y027060D01*
X020479Y027558D01*
X020479Y027558D01*
X020503Y027594D01*
X020511Y027637D01*
X020511Y027637D01*
Y027805D01*
X020536Y027815D01*
X020592Y027858D01*
X020635Y027914D01*
X020662Y027980D01*
X020671Y028050D01*
X020662Y028120D01*
X020635Y028186D01*
X020592Y028242D01*
X020585Y028247D01*
Y028771D01*
X020619Y028795D01*
X020635Y028801D01*
X020670Y028794D01*
X020706Y028801D01*
X020722Y028795D01*
X020756Y028771D01*
Y028283D01*
X020756Y028283D01*
X020765Y028240D01*
X020789Y028204D01*
X020848Y028145D01*
X020838Y028120D01*
X020829Y028050D01*
X020838Y027980D01*
X020865Y027914D01*
X020908Y027858D01*
X020964Y027815D01*
X021030Y027788D01*
X021100Y027779D01*
X021170Y027788D01*
X021236Y027815D01*
X021292Y027858D01*
X021335Y027914D01*
X021362Y027980D01*
X021371Y028050D01*
X021362Y028120D01*
X021335Y028186D01*
X021292Y028242D01*
X021236Y028285D01*
X021170Y028312D01*
X021100Y028321D01*
X021030Y028312D01*
X021020Y028308D01*
X020979Y028341D01*
Y028594D01*
X021029Y028614D01*
X021498Y028145D01*
X021488Y028120D01*
X021479Y028050D01*
X021488Y027980D01*
X021515Y027914D01*
X021558Y027858D01*
X021614Y027815D01*
X021680Y027788D01*
X021750Y027779D01*
X021820Y027788D01*
X021886Y027815D01*
X021942Y027858D01*
X021985Y027914D01*
X022012Y027980D01*
X022016Y028007D01*
X022069Y028025D01*
X022123Y027971D01*
X022159Y027947D01*
X022201Y027939D01*
X022201Y027939D01*
X022255D01*
X022265Y027914D01*
X022308Y027858D01*
X022364Y027815D01*
X022430Y027788D01*
X022500Y027779D01*
X022570Y027788D01*
X022636Y027815D01*
X022692Y027858D01*
X022735Y027914D01*
X022762Y027980D01*
X022771Y028050D01*
X022762Y028120D01*
X022735Y028186D01*
X022692Y028242D01*
X022636Y028285D01*
X022570Y028312D01*
X022500Y028321D01*
X022430Y028312D01*
X022364Y028285D01*
X022308Y028242D01*
X022277Y028202D01*
X022227Y028192D01*
X022214Y028194D01*
X021961Y028448D01*
X021925Y028472D01*
X021882Y028480D01*
X021882Y028480D01*
X021702D01*
X021504Y028679D01*
Y028746D01*
X021504Y028746D01*
X021502Y028751D01*
X021500Y028802D01*
X021523Y028817D01*
X021556Y028823D01*
X021590Y028817D01*
X021612Y028802D01*
X021655Y028794D01*
X021697Y028802D01*
X021719Y028817D01*
X021753Y028823D01*
X021787Y028817D01*
X021809Y028802D01*
X021852Y028794D01*
X021894Y028802D01*
X021916Y028817D01*
X021950Y028823D01*
X021984Y028817D01*
X022006Y028802D01*
X022048Y028794D01*
X022091Y028802D01*
X022113Y028817D01*
X022147Y028823D01*
X022181Y028817D01*
X022203Y028802D01*
X022245Y028794D01*
X022288Y028802D01*
X022292Y028805D01*
X022335Y028796D01*
X022342Y028791D01*
Y028854D01*
X022347Y028862D01*
X022356Y028904D01*
Y029225D01*
X022356Y029229D01*
X022529D01*
Y029205D01*
D02*
G37*
G36*
X064700Y032500D02*
X064700Y030150D01*
X058426Y030150D01*
X058311Y030243D01*
X058008Y030566D01*
X057828Y030819D01*
X057678Y031091D01*
X057559Y031377D01*
X057460Y031743D01*
X057441Y031868D01*
X058179Y032900D01*
X064300Y032900D01*
X064700Y032500D01*
D02*
G37*
G36*
X040915Y016096D02*
X041011Y016056D01*
X041093Y015993D01*
X041156Y015911D01*
X041196Y015815D01*
X041206Y015738D01*
Y015712D01*
Y010988D01*
Y010962D01*
X041196Y010885D01*
X041156Y010789D01*
X041093Y010707D01*
X041011Y010644D01*
X040915Y010604D01*
X040838Y010594D01*
X039336D01*
Y016106D01*
X040838D01*
X040915Y016096D01*
D02*
G37*
G36*
X037564Y010594D02*
X036062D01*
X035985Y010604D01*
X035889Y010644D01*
X035807Y010707D01*
X035744Y010789D01*
X035704Y010885D01*
X035694Y010962D01*
Y010988D01*
Y015712D01*
Y015738D01*
X035704Y015815D01*
X035744Y015911D01*
X035807Y015993D01*
X035889Y016056D01*
X035985Y016096D01*
X036062Y016106D01*
X037564D01*
Y010594D01*
D02*
G37*
%LPC*%
G36*
X046600Y012876D02*
X046423D01*
Y012738D01*
X046600D01*
Y012876D01*
D02*
G37*
G36*
X046977D02*
X046800D01*
Y012738D01*
X046977D01*
Y012876D01*
D02*
G37*
G36*
X049000Y011438D02*
X048823D01*
Y011300D01*
X049000D01*
Y011438D01*
D02*
G37*
G36*
X049377D02*
X049200D01*
Y011300D01*
X049377D01*
Y011438D01*
D02*
G37*
G36*
X046950Y011637D02*
X046873Y011606D01*
X046800Y011550D01*
X046744Y011477D01*
X046713Y011400D01*
X046950D01*
Y011637D01*
D02*
G37*
G36*
X047387Y011200D02*
X047150D01*
Y010963D01*
X047227Y010994D01*
X047300Y011050D01*
X047356Y011123D01*
X047387Y011200D01*
D02*
G37*
G36*
X049377Y011100D02*
X049200D01*
Y010962D01*
X049377D01*
Y011100D01*
D02*
G37*
G36*
X049000D02*
X048823D01*
Y010962D01*
X049000D01*
Y011100D01*
D02*
G37*
G36*
X048377Y012324D02*
X048200D01*
Y012187D01*
X048377D01*
Y012324D01*
D02*
G37*
G36*
X048000Y012662D02*
X047823D01*
Y012524D01*
X048000D01*
Y012662D01*
D02*
G37*
G36*
X048377D02*
X048200D01*
Y012524D01*
X048377D01*
Y012662D01*
D02*
G37*
G36*
X047150Y011637D02*
Y011400D01*
X047387D01*
X047356Y011477D01*
X047300Y011550D01*
X047227Y011606D01*
X047150Y011637D01*
D02*
G37*
G36*
X049336Y012497D02*
X048864D01*
Y012103D01*
X048989D01*
Y011948D01*
X048864D01*
Y011862D01*
X048751D01*
X048751Y011862D01*
X048709Y011854D01*
X048673Y011830D01*
X048673Y011830D01*
X048445Y011602D01*
X048420Y011612D01*
X048350Y011621D01*
X048280Y011612D01*
X048214Y011585D01*
X048158Y011542D01*
X048115Y011486D01*
X048088Y011420D01*
X048079Y011350D01*
X048088Y011280D01*
X048115Y011214D01*
X048158Y011158D01*
X048214Y011115D01*
X048280Y011088D01*
X048350Y011079D01*
X048420Y011088D01*
X048486Y011115D01*
X048542Y011158D01*
X048585Y011214D01*
X048612Y011280D01*
X048621Y011350D01*
X048612Y011420D01*
X048602Y011445D01*
X048797Y011640D01*
X048864D01*
Y011554D01*
X049336D01*
Y011948D01*
X049211D01*
Y012103D01*
X049336D01*
Y012497D01*
D02*
G37*
G36*
X048000Y012324D02*
X047823D01*
Y012187D01*
X048000D01*
Y012324D01*
D02*
G37*
G36*
X021350Y018787D02*
X021273Y018756D01*
X021200Y018700D01*
X021144Y018627D01*
X021113Y018550D01*
X021350D01*
Y018787D01*
D02*
G37*
G36*
X020074Y018380D02*
X019894D01*
Y018220D01*
X020074D01*
Y018380D01*
D02*
G37*
G36*
X019694Y018740D02*
X019514D01*
Y018580D01*
X019694D01*
Y018740D01*
D02*
G37*
G36*
X021550Y018787D02*
Y018550D01*
X021787D01*
X021756Y018627D01*
X021700Y018700D01*
X021627Y018756D01*
X021550Y018787D01*
D02*
G37*
G36*
X019694Y018380D02*
X019514D01*
Y018220D01*
X019694D01*
Y018380D01*
D02*
G37*
G36*
X030050Y018137D02*
X029973Y018106D01*
X029900Y018050D01*
X029844Y017977D01*
X029813Y017900D01*
X030050D01*
Y018137D01*
D02*
G37*
G36*
X030487Y017700D02*
X030250D01*
Y017463D01*
X030327Y017494D01*
X030400Y017550D01*
X030456Y017623D01*
X030487Y017700D01*
D02*
G37*
G36*
X021787Y018350D02*
X021550D01*
Y018113D01*
X021627Y018144D01*
X021700Y018200D01*
X021756Y018273D01*
X021787Y018350D01*
D02*
G37*
G36*
X021350D02*
X021113D01*
X021144Y018273D01*
X021200Y018200D01*
X021273Y018144D01*
X021350Y018113D01*
Y018350D01*
D02*
G37*
G36*
X020074Y018740D02*
X019894D01*
Y018580D01*
X020074D01*
Y018740D01*
D02*
G37*
G36*
X026637Y028450D02*
X026400D01*
Y028213D01*
X026477Y028244D01*
X026550Y028300D01*
X026606Y028373D01*
X026637Y028450D01*
D02*
G37*
G36*
X026200D02*
X025963D01*
X025994Y028373D01*
X026050Y028300D01*
X026123Y028244D01*
X026200Y028213D01*
Y028450D01*
D02*
G37*
G36*
X026400Y028887D02*
Y028650D01*
X026637D01*
X026606Y028727D01*
X026550Y028800D01*
X026477Y028856D01*
X026400Y028887D01*
D02*
G37*
G36*
X026200D02*
X026123Y028856D01*
X026050Y028800D01*
X025994Y028727D01*
X025963Y028650D01*
X026200D01*
Y028887D01*
D02*
G37*
G36*
X019400Y020537D02*
Y020300D01*
X019637D01*
X019606Y020377D01*
X019550Y020450D01*
X019477Y020506D01*
X019400Y020537D01*
D02*
G37*
G36*
X019200Y020100D02*
X018963D01*
X018994Y020023D01*
X019050Y019950D01*
X019123Y019894D01*
X019200Y019863D01*
Y020100D01*
D02*
G37*
G36*
X024850Y019962D02*
X024769Y019951D01*
X024694Y019920D01*
X024630Y019870D01*
X024580Y019806D01*
X024549Y019731D01*
X024538Y019650D01*
X024549Y019569D01*
X024567Y019525D01*
X022880Y017837D01*
X020033D01*
Y017945D01*
X019555D01*
Y017507D01*
X020033D01*
Y017615D01*
X022926D01*
X022926Y017615D01*
X022969Y017623D01*
X023005Y017647D01*
X024725Y019367D01*
X024769Y019349D01*
X024850Y019338D01*
X024931Y019349D01*
X025006Y019380D01*
X025070Y019430D01*
X025120Y019494D01*
X025151Y019569D01*
X025162Y019650D01*
X025151Y019731D01*
X025120Y019806D01*
X025070Y019870D01*
X025006Y019920D01*
X024931Y019951D01*
X024850Y019962D01*
D02*
G37*
G36*
X019200Y020537D02*
X019123Y020506D01*
X019050Y020450D01*
X018994Y020377D01*
X018963Y020300D01*
X019200D01*
Y020537D01*
D02*
G37*
G36*
X019637Y020100D02*
X019400D01*
Y019863D01*
X019477Y019894D01*
X019550Y019950D01*
X019606Y020023D01*
X019637Y020100D01*
D02*
G37*
G36*
X024950Y016047D02*
X024860Y016035D01*
X024776Y016001D01*
X024705Y015945D01*
X024649Y015874D01*
X024615Y015790D01*
X024603Y015700D01*
X024615Y015610D01*
X024649Y015526D01*
X024705Y015455D01*
X024776Y015399D01*
X024860Y015365D01*
X024950Y015353D01*
X025040Y015365D01*
X025124Y015399D01*
X025195Y015455D01*
X025251Y015526D01*
X025285Y015610D01*
X025297Y015700D01*
X025285Y015790D01*
X025251Y015874D01*
X025195Y015945D01*
X025124Y016001D01*
X025040Y016035D01*
X024950Y016047D01*
D02*
G37*
G36*
X023950D02*
X023860Y016035D01*
X023776Y016001D01*
X023705Y015945D01*
X023649Y015874D01*
X023615Y015790D01*
X023603Y015700D01*
X023615Y015610D01*
X023649Y015526D01*
X023705Y015455D01*
X023776Y015399D01*
X023860Y015365D01*
X023950Y015353D01*
X024040Y015365D01*
X024124Y015399D01*
X024195Y015455D01*
X024251Y015526D01*
X024285Y015610D01*
X024297Y015700D01*
X024285Y015790D01*
X024251Y015874D01*
X024195Y015945D01*
X024124Y016001D01*
X024040Y016035D01*
X023950Y016047D01*
D02*
G37*
G36*
X026950D02*
X026860Y016035D01*
X026776Y016001D01*
X026705Y015945D01*
X026649Y015874D01*
X026615Y015790D01*
X026603Y015700D01*
X026615Y015610D01*
X026649Y015526D01*
X026705Y015455D01*
X026776Y015399D01*
X026860Y015365D01*
X026950Y015353D01*
X027040Y015365D01*
X027124Y015399D01*
X027195Y015455D01*
X027251Y015526D01*
X027285Y015610D01*
X027297Y015700D01*
X027285Y015790D01*
X027251Y015874D01*
X027195Y015945D01*
X027124Y016001D01*
X027040Y016035D01*
X026950Y016047D01*
D02*
G37*
G36*
X025950D02*
X025860Y016035D01*
X025776Y016001D01*
X025705Y015945D01*
X025649Y015874D01*
X025615Y015790D01*
X025603Y015700D01*
X025615Y015610D01*
X025649Y015526D01*
X025705Y015455D01*
X025776Y015399D01*
X025860Y015365D01*
X025950Y015353D01*
X026040Y015365D01*
X026124Y015399D01*
X026195Y015455D01*
X026251Y015526D01*
X026285Y015610D01*
X026297Y015700D01*
X026285Y015790D01*
X026251Y015874D01*
X026195Y015945D01*
X026124Y016001D01*
X026040Y016035D01*
X025950Y016047D01*
D02*
G37*
G36*
X022950D02*
X022860Y016035D01*
X022776Y016001D01*
X022705Y015945D01*
X022649Y015874D01*
X022615Y015790D01*
X022603Y015700D01*
X022615Y015610D01*
X022649Y015526D01*
X022705Y015455D01*
X022776Y015399D01*
X022860Y015365D01*
X022950Y015353D01*
X023040Y015365D01*
X023124Y015399D01*
X023195Y015455D01*
X023251Y015526D01*
X023285Y015610D01*
X023297Y015700D01*
X023285Y015790D01*
X023251Y015874D01*
X023195Y015945D01*
X023124Y016001D01*
X023040Y016035D01*
X022950Y016047D01*
D02*
G37*
G36*
X046977Y013213D02*
X046800D01*
Y013076D01*
X046977D01*
Y013213D01*
D02*
G37*
G36*
X046600D02*
X046423D01*
Y013076D01*
X046600D01*
Y013213D01*
D02*
G37*
G36*
X021950Y016047D02*
X021860Y016035D01*
X021776Y016001D01*
X021705Y015945D01*
X021649Y015874D01*
X021615Y015790D01*
X021603Y015700D01*
X021615Y015610D01*
X021649Y015526D01*
X021705Y015455D01*
X021776Y015399D01*
X021860Y015365D01*
X021950Y015353D01*
X022040Y015365D01*
X022124Y015399D01*
X022195Y015455D01*
X022251Y015526D01*
X022285Y015610D01*
X022297Y015700D01*
X022285Y015790D01*
X022251Y015874D01*
X022195Y015945D01*
X022124Y016001D01*
X022040Y016035D01*
X021950Y016047D01*
D02*
G37*
G36*
X047300Y015300D02*
X046761D01*
Y014105D01*
X047300D01*
Y015300D01*
D02*
G37*
G36*
X027950Y016047D02*
X027860Y016035D01*
X027776Y016001D01*
X027705Y015945D01*
X027649Y015874D01*
X027615Y015790D01*
X027603Y015700D01*
X027615Y015610D01*
X027649Y015526D01*
X027705Y015455D01*
X027776Y015399D01*
X027860Y015365D01*
X027950Y015353D01*
X028040Y015365D01*
X028124Y015399D01*
X028195Y015455D01*
X028251Y015526D01*
X028285Y015610D01*
X028297Y015700D01*
X028285Y015790D01*
X028251Y015874D01*
X028195Y015945D01*
X028124Y016001D01*
X028040Y016035D01*
X027950Y016047D01*
D02*
G37*
G36*
X025000Y017637D02*
X024923Y017606D01*
X024850Y017550D01*
X024794Y017477D01*
X024763Y017400D01*
X025000D01*
Y017637D01*
D02*
G37*
G36*
X025437Y017200D02*
X025200D01*
Y016963D01*
X025277Y016994D01*
X025350Y017050D01*
X025406Y017123D01*
X025437Y017200D01*
D02*
G37*
G36*
X030050Y017700D02*
X029813D01*
X029844Y017623D01*
X029900Y017550D01*
X029973Y017494D01*
X030050Y017463D01*
Y017700D01*
D02*
G37*
G36*
X025200Y017637D02*
Y017400D01*
X025437D01*
X025406Y017477D01*
X025350Y017550D01*
X025277Y017606D01*
X025200Y017637D01*
D02*
G37*
G36*
X025000Y017200D02*
X024763D01*
X024794Y017123D01*
X024850Y017050D01*
X024923Y016994D01*
X025000Y016963D01*
Y017200D01*
D02*
G37*
G36*
X030950Y016047D02*
X030860Y016035D01*
X030776Y016001D01*
X030705Y015945D01*
X030649Y015874D01*
X030615Y015790D01*
X030603Y015700D01*
X030615Y015610D01*
X030649Y015526D01*
X030705Y015455D01*
X030776Y015399D01*
X030860Y015365D01*
X030950Y015353D01*
X031040Y015365D01*
X031124Y015399D01*
X031195Y015455D01*
X031251Y015526D01*
X031285Y015610D01*
X031297Y015700D01*
X031285Y015790D01*
X031251Y015874D01*
X031195Y015945D01*
X031124Y016001D01*
X031040Y016035D01*
X030950Y016047D01*
D02*
G37*
G36*
X029950D02*
X029860Y016035D01*
X029776Y016001D01*
X029705Y015945D01*
X029649Y015874D01*
X029615Y015790D01*
X029603Y015700D01*
X029615Y015610D01*
X029649Y015526D01*
X029705Y015455D01*
X029776Y015399D01*
X029860Y015365D01*
X029950Y015353D01*
X030040Y015365D01*
X030124Y015399D01*
X030195Y015455D01*
X030251Y015526D01*
X030285Y015610D01*
X030297Y015700D01*
X030285Y015790D01*
X030251Y015874D01*
X030195Y015945D01*
X030124Y016001D01*
X030040Y016035D01*
X029950Y016047D01*
D02*
G37*
G36*
X029900Y016962D02*
X029819Y016951D01*
X029744Y016920D01*
X029680Y016870D01*
X029630Y016806D01*
X029599Y016731D01*
X029588Y016650D01*
X029599Y016569D01*
X029617Y016525D01*
X029102Y016009D01*
X029040Y016035D01*
X028950Y016047D01*
X028860Y016035D01*
X028776Y016001D01*
X028705Y015945D01*
X028649Y015874D01*
X028615Y015790D01*
X028603Y015700D01*
X028615Y015610D01*
X028649Y015526D01*
X028705Y015455D01*
X028776Y015399D01*
X028860Y015365D01*
X028950Y015353D01*
X029040Y015365D01*
X029124Y015399D01*
X029195Y015455D01*
X029251Y015526D01*
X029285Y015610D01*
X029297Y015700D01*
X029285Y015790D01*
X029259Y015852D01*
X029775Y016367D01*
X029819Y016349D01*
X029900Y016338D01*
X029981Y016349D01*
X030056Y016380D01*
X030120Y016430D01*
X030170Y016494D01*
X030201Y016569D01*
X030212Y016650D01*
X030201Y016731D01*
X030170Y016806D01*
X030120Y016870D01*
X030056Y016920D01*
X029981Y016951D01*
X029900Y016962D01*
D02*
G37*
G36*
X021050Y016075D02*
Y015800D01*
X021325D01*
X021325Y015801D01*
X021286Y015894D01*
X021225Y015975D01*
X021144Y016036D01*
X021051Y016075D01*
X021050Y016075D01*
D02*
G37*
%LPD*%
D10*
X028250Y028590D02*
D03*
X028630Y027756D02*
D03*
X027876D02*
D03*
X032626D02*
D03*
X033380D02*
D03*
X033000Y028590D02*
D03*
X042076Y023706D02*
D03*
X042830D02*
D03*
X042450Y024540D02*
D03*
X037700D02*
D03*
X038080Y023706D02*
D03*
X037326D02*
D03*
X028250Y024540D02*
D03*
X028630Y023706D02*
D03*
X027876D02*
D03*
X023176Y023606D02*
D03*
X023930D02*
D03*
X023550Y024440D02*
D03*
X032576Y023706D02*
D03*
X033330D02*
D03*
X032950Y024540D02*
D03*
X037399Y031020D02*
D03*
X038153D02*
D03*
X037773Y031854D02*
D03*
X042473D02*
D03*
X042853Y031020D02*
D03*
X042099D02*
D03*
X033073Y031854D02*
D03*
X033453Y031020D02*
D03*
X032699D02*
D03*
X042099Y027770D02*
D03*
X042853D02*
D03*
X042473Y028604D02*
D03*
X037700Y028590D02*
D03*
X038080Y027756D02*
D03*
X037326D02*
D03*
D11*
X043300Y010425D02*
D03*
Y012275D02*
D03*
Y014200D02*
D03*
Y016050D02*
D03*
D12*
X050250Y022600D02*
D03*
Y029000D02*
D03*
D13*
X053994Y017850D02*
D03*
X052706D02*
D03*
D14*
X020809Y024350D02*
D03*
X019391D02*
D03*
D15*
X032453Y013311D02*
D03*
Y010791D02*
D03*
D16*
X028049Y013306D02*
D03*
Y012400D02*
D03*
Y011494D02*
D03*
D17*
X030451Y012400D02*
D03*
D18*
X031631Y028250D02*
D03*
X029269D02*
D03*
X036454Y031514D02*
D03*
X034092D02*
D03*
X041154D02*
D03*
X038792D02*
D03*
X045854D02*
D03*
X043492D02*
D03*
X045854Y028264D02*
D03*
X043492D02*
D03*
X041081Y028250D02*
D03*
X038719D02*
D03*
X036381D02*
D03*
X034019D02*
D03*
X045831Y024200D02*
D03*
X043469D02*
D03*
X041081D02*
D03*
X038719D02*
D03*
X026931Y024000D02*
D03*
X024569D02*
D03*
X031631Y024100D02*
D03*
X029269D02*
D03*
X036331D02*
D03*
X033969D02*
D03*
D19*
X066050Y026176D02*
D03*
Y025624D02*
D03*
X066650Y026176D02*
D03*
Y025624D02*
D03*
X048100Y012976D02*
D03*
Y012424D02*
D03*
X049100Y012300D02*
D03*
Y012851D02*
D03*
X047400Y012976D02*
D03*
Y012424D02*
D03*
X046700Y012976D02*
D03*
Y012424D02*
D03*
X049100Y011751D02*
D03*
Y011200D02*
D03*
D20*
X045524Y013550D02*
D03*
X046076D02*
D03*
D21*
X060100Y015855D02*
D03*
X065000D02*
D03*
D22*
X061600Y011839D02*
D03*
X061100D02*
D03*
X060600D02*
D03*
X059600D02*
D03*
X059100D02*
D03*
X058600D02*
D03*
X066500D02*
D03*
X066000D02*
D03*
X065500D02*
D03*
X064500D02*
D03*
X064000D02*
D03*
X063500D02*
D03*
D23*
X034550Y012987D02*
D03*
Y011413D02*
D03*
D24*
X036661Y019650D02*
D03*
D25*
X040343Y020989D02*
D03*
Y020319D02*
D03*
Y019650D02*
D03*
Y018981D02*
D03*
Y018311D02*
D03*
D26*
X065885Y031600D02*
D03*
X066515D02*
D03*
D27*
X046604Y017940D02*
D03*
X046860D02*
D03*
X047116D02*
D03*
X047372D02*
D03*
X047628D02*
D03*
X047884D02*
D03*
X048140D02*
D03*
X048396D02*
D03*
Y020160D02*
D03*
X048140D02*
D03*
X047884D02*
D03*
X047628D02*
D03*
X047372D02*
D03*
X047116D02*
D03*
X046860D02*
D03*
X046604D02*
D03*
D28*
X036629Y013350D02*
D03*
X040271D02*
D03*
D29*
X062650Y031575D02*
D03*
Y027325D02*
D03*
D30*
X043450Y018415D02*
D03*
Y021485D02*
D03*
D31*
X050550Y011900D02*
D03*
X055044D02*
D03*
X050550Y014310D02*
D03*
X055044D02*
D03*
D32*
X019794Y017726D02*
D03*
Y018480D02*
D03*
X018960Y018100D02*
D03*
D33*
X019883Y026571D02*
D03*
X020080D02*
D03*
X020277D02*
D03*
X020474D02*
D03*
X020670D02*
D03*
X020867D02*
D03*
X021064D02*
D03*
X021261D02*
D03*
X021458D02*
D03*
X021655D02*
D03*
X021852D02*
D03*
X022048D02*
D03*
X022245D02*
D03*
X022442D02*
D03*
X022639D02*
D03*
X022836D02*
D03*
X023033D02*
D03*
X023230D02*
D03*
X023426D02*
D03*
X023623D02*
D03*
X023820D02*
D03*
X024017D02*
D03*
X019883Y029229D02*
D03*
X020080D02*
D03*
X020277D02*
D03*
X020474D02*
D03*
X020670D02*
D03*
X020867D02*
D03*
X021064D02*
D03*
X021261D02*
D03*
X021458D02*
D03*
X021655D02*
D03*
X021852D02*
D03*
X022048D02*
D03*
X022245D02*
D03*
X022442D02*
D03*
X022639D02*
D03*
X022836D02*
D03*
X023033D02*
D03*
X023230D02*
D03*
X023426D02*
D03*
X023623D02*
D03*
X023820D02*
D03*
X024017D02*
D03*
D34*
X065450Y028335D02*
D03*
X065950D02*
D03*
X066450D02*
D03*
X066950D02*
D03*
X065450Y030265D02*
D03*
X065950D02*
D03*
X066450D02*
D03*
X066950D02*
D03*
D35*
X050550Y018064D02*
D03*
Y019836D02*
D03*
D36*
X046239Y016552D02*
D03*
Y016296D02*
D03*
Y016040D02*
D03*
Y015784D02*
D03*
Y015528D02*
D03*
Y015272D02*
D03*
Y015016D02*
D03*
Y014760D02*
D03*
Y014504D02*
D03*
Y014248D02*
D03*
X048561Y016552D02*
D03*
Y016296D02*
D03*
Y016040D02*
D03*
Y015784D02*
D03*
Y015528D02*
D03*
Y015272D02*
D03*
Y015016D02*
D03*
Y014760D02*
D03*
Y014504D02*
D03*
Y014248D02*
D03*
D37*
X047400Y015400D02*
D03*
D38*
X059685Y027550D02*
D03*
X056615D02*
D03*
D39*
X057645Y020100D02*
D03*
D40*
X061661Y021600D02*
D03*
Y021100D02*
D03*
Y020600D02*
D03*
Y019600D02*
D03*
Y019100D02*
D03*
Y018600D02*
D03*
D41*
X056566Y024802D02*
D03*
Y022998D02*
D03*
D42*
X059145Y023900D02*
D03*
D43*
X058100Y013855D02*
X060100Y015855D01*
X058100Y010400D02*
Y013855D01*
X057678Y009978D02*
X058100Y010400D01*
X022850Y024550D02*
X022900Y024500D01*
X028590Y028250D02*
X029269D01*
X028250Y028590D02*
X028590Y028250D01*
X028850Y027350D02*
X028937Y027437D01*
X028800Y027350D02*
X028850D01*
X042568Y031305D02*
X042853Y031020D01*
X042492Y031305D02*
X042568D01*
X033228Y031020D02*
X033453D01*
X032455Y031794D02*
X033228Y031020D01*
X038043D02*
X038153D01*
X033156Y027756D02*
X033380D01*
X032842Y027442D02*
X033156Y027756D01*
X037110Y027442D02*
X037766D01*
X038080Y027756D01*
X042628Y027770D02*
X042853D01*
X042314Y027456D02*
X042628Y027770D01*
X041860Y023392D02*
X042516D01*
X042830Y023706D01*
X037110Y023392D02*
X037766D01*
X038080Y023706D01*
X027539Y023392D02*
X028316D01*
X028630Y023706D01*
X032360Y023392D02*
X033016D01*
X033330Y023706D01*
X023950Y024040D02*
X024569D01*
X023256Y024204D02*
X023930Y023530D01*
X031450Y028800D02*
X031631Y028619D01*
X036060Y028740D02*
X036381Y028419D01*
X036060Y028740D02*
Y028750D01*
X030346Y031300D02*
X031346Y032300D01*
X031631Y028222D02*
X032410Y027442D01*
X032842D01*
X028554Y027756D02*
X028630D01*
X027850Y028460D02*
X028554Y027756D01*
X033380Y027520D02*
X033600Y027300D01*
X041800Y012600D02*
X041900D01*
X042225Y012275D01*
X043300D01*
X044525D02*
X044600Y012200D01*
X043300Y012275D02*
X044525D01*
X052406Y018150D02*
X052706Y017850D01*
X050636Y018150D02*
X052406D01*
X043450Y021485D02*
X044600Y020335D01*
Y012200D02*
Y020335D01*
Y012200D02*
X046822Y009978D01*
X038080Y027520D02*
Y027756D01*
X033380Y027520D02*
Y027756D01*
X028630Y027520D02*
Y027756D01*
X042830Y023470D02*
X043000Y023300D01*
X042830Y023470D02*
Y023706D01*
X038080Y023520D02*
X038300Y023300D01*
X038080Y023520D02*
Y023706D01*
X042853Y027534D02*
X043023Y027364D01*
X042853Y027534D02*
Y027770D01*
Y030784D02*
Y031020D01*
X038153Y030834D02*
X038323Y030664D01*
X038153Y030834D02*
Y031020D01*
X033453Y030784D02*
X033623Y030614D01*
X033453Y030784D02*
Y031020D01*
X024569Y024000D02*
Y024040D01*
X028690Y024100D02*
X029269D01*
X028250Y024540D02*
X028690Y024100D01*
X033390D02*
X033969D01*
X032950Y024540D02*
X033390Y024100D01*
X038040Y028250D02*
X038719D01*
X037700Y028590D02*
X038040Y028250D01*
X042790Y024200D02*
X043469D01*
X042450Y024540D02*
X042790Y024200D01*
X038040D02*
X038719D01*
X037700Y024540D02*
X038040Y024200D01*
X042813Y028264D02*
X043492D01*
X042473Y028604D02*
X042813Y028264D01*
X038113Y031514D02*
X038792D01*
X037773Y031854D02*
X038113Y031514D01*
X033413D02*
X034092D01*
X033073Y031854D02*
X033413Y031514D01*
X044615D02*
X045854D01*
X038360Y030701D02*
X039218D01*
X038323Y030664D02*
X038360Y030701D01*
X038172Y030300D02*
X039940D01*
X038300Y027300D02*
X038437Y027437D01*
X038080Y027520D02*
X038300Y027300D01*
X031631Y024100D02*
X031653D01*
X036331D02*
X036403D01*
X037110Y023392D01*
X033330Y023420D02*
Y023706D01*
X041081Y024172D02*
Y024200D01*
Y024172D02*
X041860Y023392D01*
X023930Y023320D02*
X024100Y023150D01*
X028630Y023706D02*
X028700Y023636D01*
Y023400D02*
Y023636D01*
Y023400D02*
X028900Y023200D01*
Y023150D02*
Y023200D01*
X031631Y028222D02*
Y028250D01*
X036381Y028172D02*
Y028250D01*
Y028172D02*
X037110Y027442D01*
X041081Y028250D02*
X041090D01*
X041883Y027456D01*
X042314D01*
X045350Y024681D02*
X045831Y024200D01*
X028630Y027520D02*
X028800Y027350D01*
X026931Y024000D02*
X027539Y023392D01*
X045500Y029200D02*
X045854Y028846D01*
Y028264D02*
Y028846D01*
X033330Y023420D02*
X033500Y023250D01*
X031653Y024100D02*
X032360Y023392D01*
X031631Y024100D02*
Y024619D01*
X031350Y024900D02*
X031631Y024619D01*
X031300Y024900D02*
X031350D01*
X036331Y024100D02*
Y024669D01*
X035800Y025200D02*
X036331Y024669D01*
X041081Y024200D02*
Y024719D01*
X040550Y025250D02*
X041081Y024719D01*
X027850Y028460D02*
Y028671D01*
X027821Y028700D02*
X027850Y028671D01*
X031631Y028250D02*
Y028619D01*
X031450Y028750D02*
Y028800D01*
X036381Y028250D02*
Y028419D01*
X036060Y028750D02*
X036100D01*
X041081Y028250D02*
Y028569D01*
X040750Y028900D02*
X041081Y028569D01*
X033000Y028590D02*
X033340Y028250D01*
X034019D01*
X033623Y030614D02*
X033653Y030644D01*
X037829D02*
X038172Y030300D01*
X031806Y031794D02*
X032455D01*
X031800Y031800D02*
X031806Y031794D01*
X031636Y031800D02*
X031800D01*
X031136Y031300D02*
X031636Y031800D01*
X033653Y030644D02*
X037829D01*
X036756Y032308D02*
X038043Y031020D01*
X033790Y032308D02*
X036756D01*
X033782Y032300D02*
X033790Y032308D01*
X031346Y032300D02*
X033782D01*
X039940Y030300D02*
X041154Y031514D01*
X042473Y031854D02*
X042813Y031514D01*
X043492D01*
X042853Y030784D02*
X043023Y030614D01*
X041900Y031897D02*
Y032300D01*
Y031897D02*
X042492Y031305D01*
X039218Y030701D02*
X041167Y032650D01*
X043479D01*
X044615Y031514D01*
X045350Y024681D02*
Y025150D01*
X046822Y009978D02*
X057678D01*
X022900Y024500D02*
X023036D01*
X023256Y024280D01*
Y024204D02*
Y024280D01*
X023550Y024440D02*
Y024540D01*
Y024440D02*
X023950Y024040D01*
X023930Y023320D02*
Y023530D01*
D44*
X020400Y028050D02*
X020474Y028124D01*
X018927Y026164D02*
X020400Y027637D01*
X020474Y028124D02*
Y029229D01*
X020400Y027637D02*
Y028050D01*
X021064Y025586D02*
Y026571D01*
X020868Y025557D02*
Y026571D01*
X020670Y025530D02*
Y026571D01*
X020474Y026024D02*
Y026571D01*
X019950Y025500D02*
X020474Y026024D01*
X021458Y025642D02*
Y026571D01*
X021655Y025670D02*
Y026571D01*
X021852Y025698D02*
Y026571D01*
X021064Y025586D02*
X021731Y024919D01*
X020868Y025557D02*
X022225Y024200D01*
X020670Y025530D02*
X022081Y024119D01*
X021655Y025670D02*
X021929Y025396D01*
X023130D01*
X021852Y025698D02*
X021995Y025555D01*
X023196D01*
X022186Y025714D02*
X023262D01*
X022048Y025852D02*
X022186Y025714D01*
X022048Y025852D02*
Y026571D01*
X022245Y026005D02*
Y026571D01*
Y026005D02*
X022377Y025873D01*
X023327D01*
X022518Y026032D02*
X023393D01*
X022442Y026108D02*
X022518Y026032D01*
X022442Y026108D02*
Y026571D01*
X021731Y024919D02*
X022932D01*
X021261Y025614D02*
X021797Y025078D01*
X022998D01*
X022225Y024200D02*
X022400D01*
X022081Y024068D02*
X022999Y023150D01*
X022081Y024068D02*
Y024119D01*
X028550Y029050D02*
X028650Y028950D01*
X024280Y030189D02*
X024564Y029905D01*
X024498Y029746D02*
X029080D01*
X024214Y030030D02*
X024498Y029746D01*
X024148Y029871D02*
X024432Y029587D01*
X024366Y029428D02*
X028948D01*
X024082Y029712D02*
X024366Y029428D01*
X024057Y029269D02*
X028782D01*
X024017Y029229D02*
X024057Y029269D01*
X024432Y029587D02*
X029014D01*
X024564Y029905D02*
X029146D01*
X024594Y030100D02*
X029176D01*
X024346Y030348D02*
X024594Y030100D01*
X029176D02*
X029276Y030000D01*
X028787Y029264D02*
X028887D01*
X028782Y029269D02*
X028787Y029264D01*
X028887D02*
X029069Y029082D01*
X028948Y029428D02*
X029135Y029241D01*
X029014Y029587D02*
X029201Y029400D01*
X029080Y029746D02*
X029267Y029559D01*
X029146Y029905D02*
X029251Y029800D01*
X023803Y024782D02*
X027209D01*
X023744Y024841D02*
X023803Y024782D01*
X027209D02*
X027446Y024545D01*
X041021Y014100D02*
X041996Y015075D01*
X041021Y013350D02*
Y014100D01*
X041996Y015075D02*
X042325D01*
X041617Y026273D02*
X042544Y027199D01*
X039350Y021450D02*
X043450D01*
X030361Y012403D02*
Y012490D01*
X020765Y029900D02*
X021282Y030417D01*
X044000Y022200D02*
X044442D01*
X043980D02*
X044000D01*
X042000Y023782D02*
X042100Y023882D01*
X027800Y023782D02*
X027900Y023882D01*
X019391Y024350D02*
Y025009D01*
Y024309D02*
Y024350D01*
X050550Y011900D02*
Y013100D01*
Y011550D02*
Y011900D01*
X039621Y011950D02*
X040646Y012975D01*
X026550Y027050D02*
X026950Y027450D01*
X025212Y027050D02*
X026550D01*
X031850Y026850D02*
X032150Y027150D01*
X025187Y026850D02*
X031850D01*
X033031Y027150D02*
X033100D01*
X032572Y026691D02*
X033031Y027150D01*
X032550Y027832D02*
Y028250D01*
X033054Y026273D02*
X041617D01*
X040687Y026114D02*
X041519Y025282D01*
X033119Y026114D02*
X040687D01*
X040395Y025955D02*
X041200Y025150D01*
X033185Y025955D02*
X040395D01*
X040682Y026432D02*
X041500Y027250D01*
X032988Y026432D02*
X040682D01*
X037241Y026591D02*
X037700Y027050D01*
X066950Y029700D02*
Y030265D01*
X066776Y029526D02*
X066950Y029700D01*
X062650Y029526D02*
X066776D01*
X062650D02*
Y031575D01*
X021261Y028877D02*
Y029229D01*
Y028877D02*
X021392Y028746D01*
X020080Y028831D02*
Y029229D01*
X019431Y028182D02*
X020080Y028831D01*
X019883Y028933D02*
Y029229D01*
X019000Y028050D02*
X019883Y028933D01*
X019750Y028050D02*
X020277Y028577D01*
Y029229D01*
X042100Y011450D02*
Y011521D01*
X040646Y012975D02*
X042100Y011521D01*
X033600Y013150D02*
Y014200D01*
X034533Y015133D01*
X021150Y014650D02*
X033457D01*
X021193Y014900D02*
X033150D01*
X033950Y015700D01*
X027350Y012800D02*
X029200D01*
X027250Y012700D02*
X027350Y012800D01*
X026900Y013200D02*
X027800Y014100D01*
X026900Y012500D02*
Y013200D01*
Y012500D02*
X027306Y012094D01*
X029106D01*
X026541Y011709D02*
Y013100D01*
X031542Y012400D02*
X032453Y013311D01*
X030451Y012400D02*
X031542D01*
X030361Y012490D02*
Y012714D01*
Y012490D02*
X030404Y012446D01*
X030358Y012400D02*
X030361Y012403D01*
X041650Y017700D02*
X043300Y016050D01*
X042325Y015075D02*
X043300Y016050D01*
X041650Y017700D02*
Y019264D01*
X055250Y017800D02*
X055345D01*
X057645Y020100D01*
X041050Y018097D02*
Y018526D01*
X040959Y018006D02*
X041050Y018097D01*
X040656Y018006D02*
X040959D01*
X036629Y013979D02*
X040656Y018006D01*
X036629Y013350D02*
Y013979D01*
X045799Y021991D02*
X047372Y020418D01*
X044651Y021991D02*
X045799D01*
X046719Y020559D02*
X046860Y020418D01*
Y020160D02*
Y020418D01*
X047116Y020160D02*
Y020418D01*
X047117Y021441D02*
X048140Y020418D01*
Y020160D02*
Y020418D01*
X045929Y022117D02*
X047628Y020418D01*
X045929Y022117D02*
Y022371D01*
X046109Y022191D02*
Y022699D01*
Y022191D02*
X046859Y021441D01*
X046084Y021450D02*
X047116Y020418D01*
X045250Y021450D02*
X046084D01*
X046859Y021441D02*
X047117D01*
X047628Y020160D02*
Y020418D01*
X047372Y020160D02*
Y020418D01*
X045000Y016550D02*
X045700Y017250D01*
X045000Y014449D02*
Y016550D01*
Y014449D02*
X045524Y013924D01*
X045191Y016516D02*
X045734Y017059D01*
X045191Y014709D02*
Y016516D01*
Y014709D02*
X045450Y014450D01*
X045350Y015150D02*
X045740Y014760D01*
X045350Y015150D02*
Y016450D01*
X045800Y016900D01*
X040271Y013350D02*
X040646Y012975D01*
X045734Y017059D02*
X047773D01*
X045700Y017250D02*
X047708D01*
X045800Y016900D02*
X048150D01*
X048200Y015800D02*
X048545D01*
X048048Y015952D02*
X048200Y015800D01*
X048048Y015952D02*
Y016640D01*
X047985Y016704D02*
X048048Y016640D01*
X046815Y016704D02*
X047985D01*
X046663Y016552D02*
X046815Y016704D01*
X046239Y016552D02*
X046663D01*
X034692Y011413D02*
X036629Y013350D01*
X034550Y011413D02*
X034692D01*
X046489Y020559D02*
X046719D01*
X046130Y020200D02*
X046489Y020559D01*
X046100Y020200D02*
X046130D01*
X048140Y017682D02*
Y017940D01*
X047708Y017250D02*
X048140Y017682D01*
X048396Y017682D02*
Y017940D01*
X047773Y017059D02*
X048396Y017682D01*
X050550Y019300D02*
Y019836D01*
X048150Y016900D02*
X050550Y019300D01*
X042635Y022300D02*
X043450Y021485D01*
X022159Y022300D02*
X042635D01*
X044442Y022200D02*
X044651Y021991D01*
X050164Y018064D02*
X050550D01*
X049500Y017400D02*
X050164Y018064D01*
X020809Y023650D02*
Y024350D01*
X038300Y009850D02*
X039621Y011171D01*
X029694Y009850D02*
X038300D01*
X028049Y011494D02*
X029694Y009850D01*
X033450Y010750D02*
Y012313D01*
X032453Y013311D02*
X033450Y012313D01*
X039621Y011171D02*
Y011950D01*
X022582Y030719D02*
X022819Y030482D01*
X021469Y030719D02*
X022582D01*
X022639Y028877D02*
X022966Y028550D01*
X040959Y018617D02*
X041050Y018526D01*
X025121Y026691D02*
X032572D01*
X025055Y026532D02*
X032638D01*
X024989Y026373D02*
X032704D01*
X024923Y026214D02*
X032770D01*
X024857Y026055D02*
X032835D01*
X024264Y025896D02*
X032901D01*
X024198Y025737D02*
X032967D01*
X024132Y025578D02*
X033033D01*
X024067Y025419D02*
X033099D01*
X031541Y025259D02*
X032200Y024600D01*
X024001Y025259D02*
X031541D01*
X035963Y025637D02*
X036550Y025050D01*
X036256Y025796D02*
X036869Y025182D01*
X033251Y025796D02*
X036256D01*
X032922Y026591D02*
X037241D01*
X036650Y026750D02*
X036850Y026950D01*
X032856Y026750D02*
X036650D01*
X023010Y024841D02*
X023744D01*
X023810Y025000D02*
X023869Y024941D01*
X023076Y025000D02*
X023810D01*
X023876Y025159D02*
X023935Y025100D01*
X023142Y025159D02*
X023876D01*
X023942Y025318D02*
X024001Y025259D01*
X023208Y025318D02*
X023942D01*
X024008Y025477D02*
X024067Y025419D01*
X023274Y025477D02*
X024008D01*
X024074Y025636D02*
X024132Y025578D01*
X023340Y025636D02*
X024074D01*
X024140Y025795D02*
X024198Y025737D01*
X023406Y025795D02*
X024140D01*
X024206Y025954D02*
X024264Y025896D01*
X023935Y025100D02*
X028201D01*
X023869Y024941D02*
X027594D01*
X027800Y023782D02*
X027876Y023706D01*
X032500Y023782D02*
X032576Y023706D01*
X037250Y027832D02*
Y028250D01*
Y027832D02*
X037326Y027756D01*
X032550Y027832D02*
X032626Y027756D01*
X037250Y024200D02*
X037326Y024124D01*
Y023706D02*
Y024124D01*
X042023Y027846D02*
Y028264D01*
Y027846D02*
X042099Y027770D01*
X023550Y023150D02*
X023600Y023100D01*
X036869Y024565D02*
X036903Y024531D01*
X036869Y024565D02*
Y025182D01*
X042000Y023782D02*
X042076Y023706D01*
X042100Y023882D02*
Y024100D01*
X041519Y024581D02*
X041650Y024450D01*
X041519Y024581D02*
Y025282D01*
X024017Y026571D02*
X024047Y026541D01*
X024371D01*
X028370Y024931D02*
X028814D01*
X027900Y023882D02*
Y024150D01*
X027594Y024941D02*
X027807Y024729D01*
X028201Y025100D02*
X028370Y024931D01*
X024478Y028009D02*
X024486Y028000D01*
X042500Y030428D02*
Y030500D01*
X041500Y029428D02*
X042500Y030428D01*
X043486Y029269D02*
X044773Y030556D01*
X039269Y029269D02*
X043486D01*
X037650Y030209D02*
Y030250D01*
X020867Y028283D02*
Y029229D01*
X020670D02*
Y029581D01*
X020821Y029731D01*
X020832D01*
X021019Y029918D01*
Y029929D01*
X022836Y029229D02*
Y029581D01*
X021064Y028736D02*
Y029229D01*
X021490Y030400D02*
X021601D01*
X021282Y030417D02*
Y030532D01*
X021469Y030719D01*
X021392Y028633D02*
Y028746D01*
X023943Y027046D02*
X023951Y027054D01*
X024082D01*
X023792Y027213D02*
X024148D01*
X023726Y027372D02*
X024214D01*
X023660Y027531D02*
X024280D01*
X023594Y027691D02*
X024346D01*
X023528Y027850D02*
X024412D01*
X023463Y028009D02*
X024478D01*
X022966Y028550D02*
X023750D01*
X021392Y028633D02*
X021656Y028369D01*
X022201Y028050D02*
X022500D01*
X021656Y028369D02*
X021882D01*
X022201Y028050D01*
X020867Y028283D02*
X021100Y028050D01*
X021064Y028736D02*
X021750Y028050D01*
X019100Y029650D02*
Y030255D01*
X018896Y030460D02*
X019100Y030255D01*
X018896Y030460D02*
Y031396D01*
X019300Y031800D01*
X020119Y029918D02*
Y031269D01*
X020650Y031800D01*
X019750Y027212D02*
Y028050D01*
X020100Y020400D02*
X028250D01*
X032950Y015700D01*
X019431Y027118D02*
Y028182D01*
X019000Y026912D02*
Y028050D01*
X033556Y015749D02*
Y015863D01*
X033113Y015306D02*
X033556Y015749D01*
X032787Y015306D02*
X033113D01*
X032393Y015700D02*
X032787Y015306D01*
X031950Y015700D02*
X032393D01*
X033556Y015863D02*
X033787Y016094D01*
X034113D01*
X034344Y015863D01*
Y015556D02*
Y015863D01*
Y015556D02*
X034354Y015546D01*
X033457Y014650D02*
X034354Y015546D01*
X019391Y024309D02*
X020100Y023600D01*
X028049Y012400D02*
X030358D01*
X040343Y019956D02*
X040959D01*
X040343D02*
Y020319D01*
X038950Y019050D02*
Y021050D01*
Y019050D02*
X039650Y018350D01*
X040304D01*
X040343Y018311D01*
Y018981D02*
X040706Y018617D01*
X040959D01*
Y019956D02*
X041650Y019264D01*
X019200Y014600D02*
X019600D01*
X020100Y015100D01*
X038950Y021050D02*
X039350Y021450D01*
X032509Y022141D02*
X032950Y021700D01*
X022093Y022141D02*
X032509D01*
X021953Y022281D02*
X022093Y022141D01*
X022639Y026571D02*
Y027185D01*
X022836Y026571D02*
Y027157D01*
X023033Y026571D02*
Y027129D01*
X023230Y026571D02*
Y027101D01*
X023426Y026571D02*
Y027073D01*
X023623Y026571D02*
Y027045D01*
X023820Y026571D02*
Y027046D01*
X023943D01*
X023623Y027045D02*
X023661Y027082D01*
Y027112D01*
X023754Y027205D01*
X023783D01*
X023792Y027213D01*
X023426Y027073D02*
X023502Y027148D01*
Y027177D01*
X023688Y027364D01*
X023717D01*
X023726Y027372D01*
X023230Y027101D02*
X023343Y027214D01*
Y027243D01*
X023622Y027523D01*
X023652D01*
X023660Y027531D01*
X023033Y027129D02*
X023184Y027280D01*
Y027309D01*
X023557Y027682D01*
X023586D01*
X023594Y027691D01*
X022836Y027157D02*
X023025Y027346D01*
Y027375D01*
X023491Y027841D01*
X023520D01*
X023528Y027850D01*
X022639Y027185D02*
X022866Y027412D01*
Y027441D01*
X023425Y028000D01*
X023454D01*
X023463Y028009D01*
X021458Y025642D02*
X021863Y025237D01*
X022999Y023150D02*
X023550D01*
X022900Y023982D02*
X023191Y023691D01*
X022048Y029898D02*
X022049Y029899D01*
X021730Y030031D02*
X021968Y030269D01*
X022419D01*
X021019Y029929D02*
X021490Y030400D01*
X023754Y030189D02*
X024280D01*
X023688Y030348D02*
X024346D01*
X023885Y029871D02*
X024148D01*
X023150Y030250D02*
Y030300D01*
X022049Y029899D02*
X022049D01*
X022419Y030269D02*
X022500Y030350D01*
X024412Y027850D02*
X025212Y027050D01*
X024346Y027691D02*
X025187Y026850D01*
X027446Y024412D02*
Y024545D01*
X032500Y023782D02*
Y024200D01*
X024280Y027531D02*
X025121Y026691D01*
X032638Y026532D02*
X032856Y026750D01*
X032704Y026373D02*
X032922Y026591D01*
X032770Y026214D02*
X032988Y026432D01*
X032835Y026055D02*
X033054Y026273D01*
X032901Y025896D02*
X033119Y026114D01*
X032967Y025737D02*
X033185Y025955D01*
X033033Y025578D02*
X033251Y025796D01*
X033099Y025419D02*
X033317Y025637D01*
X035963D01*
X024214Y027372D02*
X025055Y026532D01*
X024148Y027213D02*
X024989Y026373D01*
X024082Y027054D02*
X024923Y026214D01*
X024371Y026541D02*
X024857Y026055D01*
X024486Y028000D02*
X026650D01*
X027700Y029050D01*
X028550D01*
X027550Y028200D02*
X027876Y027874D01*
Y027756D02*
Y027874D01*
X038950Y029400D02*
X039300Y029750D01*
X037000Y029559D02*
X037650Y030209D01*
X039016Y029241D02*
X039203Y029428D01*
X041500D01*
X039082Y029082D02*
X039269Y029269D01*
X029276Y030000D02*
X032600D01*
X033050Y030450D01*
Y030550D01*
X029251Y029800D02*
X033800D01*
X034300Y030300D01*
X034400D01*
X032269Y031450D02*
X032699Y031020D01*
X029069Y029082D02*
X039082D01*
X029135Y029241D02*
X039016D01*
X029201Y029400D02*
X038950D01*
X029267Y029559D02*
X037000D01*
Y031419D02*
X037399Y031020D01*
X042099D02*
Y031201D01*
X041700Y031600D02*
X042099Y031201D01*
X019794Y017726D02*
X022926D01*
X024850Y019650D01*
X045740Y014760D02*
X046239D01*
X045934Y015016D02*
X046239D01*
X045700Y015250D02*
X045934Y015016D01*
X045700Y015250D02*
Y015350D01*
X047000Y010650D02*
X049650D01*
X045829Y011821D02*
X047000Y010650D01*
X046234Y014500D02*
X046239Y014504D01*
X045450Y014450D02*
X045500Y014500D01*
X049349Y013100D02*
X050550D01*
X049100Y012851D02*
X049349Y013100D01*
X049100Y011751D02*
Y012300D01*
X047400Y012976D02*
X048100D01*
X048533Y015300D02*
X048561Y015272D01*
X048751Y011751D02*
X049100D01*
X048350Y011350D02*
X048751Y011751D01*
X034533Y015133D02*
Y016674D01*
X033901Y017306D02*
X034533Y016674D01*
X033787Y017306D02*
X033901D01*
X048561Y015016D02*
X048620Y015074D01*
X046239Y016296D02*
Y016552D01*
Y016040D02*
Y016296D01*
X048545Y015800D02*
X048561Y015784D01*
X046076Y013550D02*
X046150Y013476D01*
Y012450D02*
Y013476D01*
X045524Y013550D02*
Y013924D01*
X046700Y012424D02*
X047400D01*
X047400Y012424D01*
X065950Y030265D02*
Y031535D01*
X065885Y031600D02*
X065950Y031535D01*
X066450Y031535D02*
X066515Y031600D01*
X066950Y028335D02*
Y028900D01*
X065450Y030265D02*
X065950D01*
X066450Y027650D02*
Y028335D01*
Y027650D02*
X066900Y027200D01*
X065950Y027500D02*
Y028335D01*
Y027500D02*
X066350Y027100D01*
X065450Y027300D02*
X065850Y026900D01*
X066900Y026426D02*
Y027200D01*
X066650Y026176D02*
X066900Y026426D01*
X066050Y026176D02*
X066650D01*
X065450Y027300D02*
Y028335D01*
X020809Y023650D02*
X022159Y022300D01*
X023471Y025954D02*
X024206D01*
X023393Y026032D02*
X023471Y025954D01*
X023327Y025873D02*
X023406Y025795D01*
X023262Y025714D02*
X023340Y025636D01*
X023196Y025555D02*
X023274Y025477D01*
X023130Y025396D02*
X023208Y025318D01*
X021863Y025237D02*
X023064D01*
X023142Y025159D01*
X022998Y025078D02*
X023076Y025000D01*
X022932Y024919D02*
X023010Y024841D01*
X046500Y013850D02*
X046554Y013904D01*
X048620Y015074D02*
X048944D01*
X049120Y015272D02*
X049174Y015326D01*
X049306Y015007D02*
X049418Y015119D01*
X048944Y015074D02*
X049011Y015007D01*
X049306D01*
X049418Y015119D02*
X049418D01*
X048561Y015272D02*
X049120D01*
X048561Y016552D02*
X048800Y016790D01*
Y016950D01*
X062650Y027325D02*
Y029000D01*
X066850D01*
X066950Y028900D01*
X049650Y010650D02*
X050550Y011550D01*
X048100Y012976D02*
X048561Y013437D01*
Y014248D01*
X048200Y013850D02*
X048246Y013896D01*
X048561Y014760D02*
X049169D01*
X048246Y014638D02*
X048368Y014760D01*
X048246Y013896D02*
Y014638D01*
X048368Y014760D02*
X048561D01*
X049300Y014600D02*
Y014630D01*
X049169Y014760D02*
X049300Y014630D01*
X045923Y015578D02*
Y015918D01*
Y015578D02*
X045973Y015528D01*
X046239D01*
X046554D01*
Y013904D02*
Y015528D01*
X045923Y015918D02*
X046045Y016040D01*
X046239D01*
X049418Y015119D02*
X049700Y015401D01*
X048561Y016296D02*
X048755D01*
X049700Y015401D02*
Y015800D01*
X048561Y016040D02*
X048990D01*
X049150Y016200D01*
X049046Y015645D02*
X049700Y016299D01*
Y016300D01*
X048561Y015528D02*
X048924D01*
X049042Y015645D01*
X049046D01*
X027255Y010700D02*
X028049Y011494D01*
X019200Y011200D02*
X019700Y010700D01*
X027255D01*
X026541Y011709D02*
X026950Y011300D01*
X029106Y012094D02*
X029250Y011950D01*
X028950Y015700D02*
X029900Y016650D01*
X044800Y022350D02*
X045042D01*
X045601Y022909D01*
X045899D01*
X046109Y022699D01*
X031200Y019893D02*
X033787Y017306D01*
X031200Y019893D02*
Y021450D01*
X030950Y021700D02*
X031200Y021450D01*
X046076Y013550D02*
Y014085D01*
X046239Y014248D01*
X045829Y011821D02*
Y014500D01*
X045500D02*
X045829D01*
X046234D01*
X021261Y025614D02*
Y026571D01*
X023623Y029229D02*
Y029609D01*
X023885Y029871D01*
X022650Y029766D02*
X022836Y029581D01*
X023820Y029229D02*
Y029581D01*
X023951Y029712D01*
X024082D01*
X023426Y029229D02*
Y029637D01*
X023820Y030030D01*
X024214D01*
X023230Y029229D02*
Y029665D01*
X023754Y030189D01*
X023033Y029229D02*
Y029786D01*
X023127Y029881D01*
X023221D01*
X023688Y030348D01*
X022650Y029766D02*
X022666D01*
X023150Y030250D01*
X022584Y029947D02*
X022623D01*
X022819Y030144D01*
Y030482D01*
X021458Y029229D02*
Y030257D01*
X021571Y030369D02*
X021601Y030400D01*
X021730Y029767D02*
Y030031D01*
X021571Y029701D02*
Y030369D01*
X022639Y028877D02*
Y029201D01*
X022442Y029229D02*
Y029581D01*
X022650Y029788D01*
X022245Y029229D02*
Y029609D01*
X022584Y029947D01*
X022048Y029229D02*
Y029898D01*
X021852Y029229D02*
Y029645D01*
X021655Y029229D02*
Y029617D01*
X021571Y029701D02*
X021655Y029617D01*
X021730Y029767D02*
X021852Y029645D01*
X019950Y025200D02*
Y025500D01*
X048755Y016296D02*
X049500Y017041D01*
Y017400D01*
X019300Y025100D02*
X019391Y025009D01*
X019031Y022281D02*
X021953D01*
X018450Y017350D02*
X021150Y014650D01*
X018450Y026362D02*
X019000Y026912D01*
X018609Y017484D02*
X021193Y014900D01*
X018768Y021732D02*
Y026230D01*
Y021732D02*
X020100Y020400D01*
X018927Y022385D02*
X019031Y022281D01*
X018927Y022385D02*
Y026164D01*
X018609Y017484D02*
Y026296D01*
X018768Y026230D02*
X019750Y027212D01*
X018609Y026296D02*
X019431Y027118D01*
X018960Y018100D02*
Y018560D01*
X018450Y017350D02*
Y026362D01*
X023176Y023606D02*
X023191Y023621D01*
Y023691D01*
D45*
X049436Y031200D02*
Y031736D01*
Y030648D02*
Y031200D01*
X050250Y029000D02*
Y029834D01*
X049436Y030648D02*
X050250Y029834D01*
Y022300D02*
X050550Y022000D01*
Y019836D02*
Y022000D01*
D46*
X020809Y024350D02*
D03*
X019391D02*
D03*
D47*
X050550Y013100D02*
D03*
D48*
X056625Y025250D02*
D03*
D49*
X056550Y023875D02*
D03*
D50*
X031131Y031300D02*
D03*
X027194D02*
D03*
X027981D02*
D03*
X028768D02*
D03*
X029558D02*
D03*
X030348D02*
D03*
X025624D02*
D03*
X024834D02*
D03*
X024044D02*
D03*
X023257D02*
D03*
X022469D02*
D03*
X026406D02*
D03*
X021140Y012900D02*
D03*
X021928D02*
D03*
X025865D02*
D03*
X025077D02*
D03*
X024290D02*
D03*
X023500D02*
D03*
X022710D02*
D03*
D51*
X020650Y031800D02*
D03*
X019300D02*
D03*
X019200Y011200D02*
D03*
Y015600D02*
D03*
D52*
X020650Y030800D02*
D03*
X019300D02*
D03*
X019200Y012200D02*
D03*
Y014600D02*
D03*
D53*
X052800Y011900D02*
D03*
Y013700D02*
D03*
D54*
X020950Y015700D02*
D03*
X021950D02*
D03*
X022950D02*
D03*
X023950D02*
D03*
X024950D02*
D03*
X025950D02*
D03*
X026950D02*
D03*
X027950D02*
D03*
X028950D02*
D03*
X029950D02*
D03*
X030950D02*
D03*
X031950D02*
D03*
X032950D02*
D03*
X033950D02*
D03*
Y016700D02*
D03*
Y017700D02*
D03*
Y018700D02*
D03*
Y019700D02*
D03*
Y020700D02*
D03*
Y021700D02*
D03*
X032950D02*
D03*
X031950D02*
D03*
X030950D02*
D03*
X029950D02*
D03*
X028950D02*
D03*
X027950D02*
D03*
X026950D02*
D03*
X025950D02*
D03*
X024950D02*
D03*
X023950D02*
D03*
X022950D02*
D03*
X021950D02*
D03*
X020950D02*
D03*
D55*
X020400Y028050D02*
D03*
X022400Y024200D02*
D03*
X022850Y024550D02*
D03*
X028650Y028950D02*
D03*
X028850Y027350D02*
D03*
X042544Y027199D02*
D03*
X026950Y027450D02*
D03*
X031450Y027200D02*
D03*
X032150Y027150D02*
D03*
X027800Y027250D02*
D03*
X033100Y027150D02*
D03*
X033600Y027300D02*
D03*
X032550Y028250D02*
D03*
X021638Y023845D02*
D03*
X033600Y013150D02*
D03*
X029200Y012800D02*
D03*
X027250Y012700D02*
D03*
X033450Y010750D02*
D03*
X037250Y028250D02*
D03*
Y024200D02*
D03*
X042023Y028264D02*
D03*
X043000Y023300D02*
D03*
X038300D02*
D03*
X043023Y027364D02*
D03*
X038323Y030664D02*
D03*
X033623Y030614D02*
D03*
X038300Y027300D02*
D03*
X024100Y023150D02*
D03*
X023600Y023100D02*
D03*
X028900Y023150D02*
D03*
X036550Y025050D02*
D03*
X036903Y024531D02*
D03*
X041200Y025150D02*
D03*
X028814Y024931D02*
D03*
X042100Y024100D02*
D03*
X041650Y024450D02*
D03*
X041500Y027250D02*
D03*
X037700Y027050D02*
D03*
X036850Y026950D02*
D03*
X027446Y024412D02*
D03*
X027900Y024150D02*
D03*
X027807Y024729D02*
D03*
X045500Y029200D02*
D03*
X044773Y030556D02*
D03*
X042500Y030500D02*
D03*
X039300Y029750D02*
D03*
X037650Y030250D02*
D03*
X019950Y025200D02*
D03*
X020700Y030050D02*
D03*
X019000Y028050D02*
D03*
X019750D02*
D03*
X021601Y030400D02*
D03*
X023750Y028550D02*
D03*
X022500Y028050D02*
D03*
X021100D02*
D03*
X021750D02*
D03*
X019100Y029650D02*
D03*
X020119Y029918D02*
D03*
X020100Y023600D02*
D03*
X023150Y030300D02*
D03*
X022049Y029899D02*
D03*
X022500Y030350D02*
D03*
X026900Y024000D02*
D03*
X033500Y023250D02*
D03*
X032500Y024200D02*
D03*
X032200Y024600D02*
D03*
X031300Y024900D02*
D03*
X035800Y025200D02*
D03*
X040550Y025250D02*
D03*
X027550Y028200D02*
D03*
X027821Y028700D02*
D03*
X031450Y028750D02*
D03*
X036100D02*
D03*
X040750Y028900D02*
D03*
X033050Y030550D02*
D03*
X034400Y030300D02*
D03*
X032269Y031450D02*
D03*
X037000Y031419D02*
D03*
X043023Y030614D02*
D03*
X041900Y032300D02*
D03*
X041700Y031600D02*
D03*
X056350Y027050D02*
D03*
X056900D02*
D03*
Y026500D02*
D03*
X056350D02*
D03*
X045700Y015350D02*
D03*
X045450Y014450D02*
D03*
X048350Y011350D02*
D03*
X046150Y012450D02*
D03*
X066900Y027200D02*
D03*
X066350Y027100D02*
D03*
X065850Y026900D02*
D03*
X045350Y025150D02*
D03*
X022900Y024050D02*
D03*
X046500Y013850D02*
D03*
X049174Y015326D02*
D03*
X048800Y016950D02*
D03*
X063500Y011850D02*
D03*
X048200Y013850D02*
D03*
X049300Y014600D02*
D03*
X049700Y015800D02*
D03*
Y016300D02*
D03*
X049150Y016200D02*
D03*
X019300Y025100D02*
D03*
X018960Y018560D02*
D03*
X058600Y011850D02*
D03*
D56*
X050550Y031250D02*
D03*
X027400Y032750D02*
D03*
X033050Y019950D02*
D03*
X019300Y020200D02*
D03*
X044450Y021450D02*
D03*
X042100Y011450D02*
D03*
X026541Y013100D02*
D03*
X030361Y012714D02*
D03*
X041800Y012600D02*
D03*
X055250Y017800D02*
D03*
X064850Y018950D02*
D03*
X065750Y018050D02*
D03*
X049436Y031736D02*
D03*
Y031200D02*
D03*
X049900Y020750D02*
D03*
X041850Y013850D02*
D03*
X038100Y016950D02*
D03*
X030150Y017800D02*
D03*
X049436Y030648D02*
D03*
X047050Y011300D02*
D03*
X053700Y016200D02*
D03*
X052050Y020000D02*
D03*
X049000Y019100D02*
D03*
X046100Y020200D02*
D03*
X044000Y022200D02*
D03*
X056500Y015750D02*
D03*
X051750Y017350D02*
D03*
X050650Y017400D02*
D03*
X065300Y018500D02*
D03*
X066750Y010950D02*
D03*
X066150D02*
D03*
X066750Y011550D02*
D03*
X066150D02*
D03*
X020100Y015100D02*
D03*
X024850Y019650D02*
D03*
X042500Y025900D02*
D03*
X042050Y020450D02*
D03*
X026300Y028550D02*
D03*
X047400Y014600D02*
D03*
X045550Y026850D02*
D03*
X031350Y030450D02*
D03*
X036350Y031150D02*
D03*
X062550Y013400D02*
D03*
X061650Y018550D02*
D03*
X026950Y011300D02*
D03*
X025100Y017300D02*
D03*
X021450Y018450D02*
D03*
X029250Y011950D02*
D03*
X027800Y014100D02*
D03*
X029900Y016650D02*
D03*
X045750Y022550D02*
D03*
X044800Y022350D02*
D03*
X045250Y021450D02*
D03*
X031600Y022950D02*
D03*
X031800Y020150D02*
D03*
X044950Y010900D02*
D03*
X066700Y024650D02*
D03*
X028050Y010250D02*
D03*
X041000Y016700D02*
D03*
M02*
