M48
;Layer_Color=9474304
;FILE_FORMAT=2:4
INCH
;TYPE=PLATED
T1F00S00C0.0118
T2F00S00C0.0130
T3F00S00C0.0150
T4F00S00C0.0315
T5F00S00C0.1220
%
T01
X046978Y050044
X047411
X047844
X048277
X048710
Y050478
Y050911
X048277
Y050478
X047844
Y050911
X047411
X046978
Y050478
X047411
T02
X050456Y046755
X055128Y046710
Y046310
X055572Y046755
X055972
X057400Y046700
X057900
Y046400
X058400
Y046700
X058900
Y046400
X059400
Y046700
X059900
Y046400
X060363Y046386
Y046686
X060863
Y046386
X061400Y046400
Y046700
X061900
Y046400
X062363Y046386
Y046686
X062863
Y046386
Y046986
Y047286
Y047586
Y052786
Y053086
Y053386
Y053686
Y053986
X062363
Y053686
Y053386
Y053086
Y052786
X061863
Y053086
Y053386
Y053686
Y053986
X061363
Y053686
Y053386
Y053086
Y052786
X060863
Y053086
Y053386
Y053686
Y053986
X060363
Y053686
Y053386
Y053086
Y052786
X059863
Y053086
Y053386
Y053686
Y053986
X059400Y054000
Y053700
Y053400
Y053100
Y052800
X058863Y052786
Y053086
Y053386
Y053686
Y053986
X058363
Y053686
Y053386
Y053086
Y052786
X057863
Y053086
Y053386
Y053686
Y053986
X057363
Y053686
X057715Y055200
X059015
X060415
X060176Y058000
X059700Y057600
X059900Y058700
X059500Y059100
X057900
Y060000
X054600
X052500Y059300
X051100Y059122
X050700Y059100
X050200Y059000
X049600Y058900
X049100Y058333
X049900Y058000
X050300Y058100
X051000Y057000
X051800Y055400
X052000Y054800
X052200Y054300
X051400Y053800
X051456Y053055
X049856Y051755
Y051355
X049863Y050924
X049793Y050069
X049063Y049239
X046956Y048955
X047256Y052155
X047963Y052024
X048363
X047385Y055700
X048100Y057100
X049000Y060100
X050600Y060300
X050900Y060100
X053500Y056800
X053400Y054500
X053856Y054255
X053863Y053986
X054163
X054156Y054255
X054400Y050700
Y050400
Y050100
Y049800
Y049500
Y049200
Y048900
Y048600
X054863Y048586
Y048886
Y049186
Y049486
X053900Y049500
Y049800
Y050100
Y050400
Y050700
Y049200
Y048900
Y048600
X055128Y047510
Y047110
X055572Y047155
Y047555
X055928Y047510
X055972Y047155
X057400Y047300
Y047000
X057900
Y047300
Y047600
X058400
Y047300
Y047000
X058900
Y047300
Y047600
X059400
Y047300
Y047000
X059900
X060363Y046986
Y047286
Y047586
X060863
Y047286
Y046986
X061400Y047000
Y047300
Y047600
X061900
Y047300
Y047000
X062363Y046986
Y047286
Y047586
X059400Y049100
X059763Y050545
Y051224
X057400Y047600
X051100Y049800
X056215Y056100
X046756Y051955
X045800Y051100
X046575Y062685
X046775Y066385
X048175
X049675
X051175
X052675
X054175
X055675
X057175
X058700Y066400
X060200
X061600
X061700Y063700
X061400Y062700
X059960
X060260Y063700
X058760
X058460Y062700
X056975Y062685
X057275Y063685
X055775
X055475Y062685
X053975
X054275Y063685
X052775
X052475Y062685
X050975
X051275Y063685
X049775
X049475Y062685
X047975
X048275Y063685
X046875
X063180Y063706
X062500Y062700
X063080Y066406
T03
X044900Y042700
Y043100
X046300Y044800
X045800Y045500
X047100Y046400
X047556Y046555
X048500Y045700
Y045300
Y044900
Y044500
Y044100
Y043700
X051400Y045000
X052900Y045100
Y044800
X053100Y046600
X057700Y045841
X057400Y045400
X060700Y045500
X058000Y041400
X053700Y041000
X063300Y054900
X063500Y056800
Y057100
Y057400
Y058100
X063200Y058109
X062900Y058100
Y059300
X063200
X063500
X062100
X058500Y059700
X053538Y058266
X052500Y058700
X050090Y060008
X049340Y060022
X048008Y060750
X048500Y056300
X051000Y055700
X050000Y054500
X049500Y053800
X049700Y053000
X053300Y053100
X053400Y049800
X051700
X051800Y048200
X059900Y047600
Y047300
X054700Y056800
X046400Y056700
X046656Y049355
T04
X045400Y044100
Y044887
X047700Y044900
Y045687
Y044113
X047300Y060700
X049013
X049800
X051500
X052287
X046513
X045725
X045500Y054887
Y054100
X048300Y067700
X049284
X050269
X051253
X052237
X053221
X054206
X055190
X056174
X057158
X058143
X059127
X060111
T05
X045650Y041650
X062700Y041500
X045800Y068000
X062600
M30
