G04 Layer_Physical_Order=2*
G04 Layer_Color=16711680*
%FSAX24Y24*%
%MOIN*%
G70*
G01*
G75*
%ADD14R,0.0354X0.0276*%
%ADD34R,0.0276X0.0354*%
%ADD36C,0.0100*%
%ADD37C,0.0200*%
%ADD38C,0.0150*%
%ADD39C,0.0500*%
%ADD41C,0.0570*%
%ADD42C,0.0591*%
%ADD43R,0.0591X0.0591*%
%ADD44C,0.0630*%
%ADD45R,0.0591X0.0591*%
%ADD46C,0.2010*%
%ADD47C,0.0500*%
%ADD48C,0.0420*%
%ADD49C,0.0236*%
%ADD50R,0.0470X0.0220*%
%ADD51R,0.1319X0.0492*%
%ADD52R,0.0394X0.0354*%
%ADD53R,0.0906X0.0906*%
%ADD54R,0.0354X0.0394*%
%ADD55R,0.0453X0.1063*%
%ADD56R,0.0748X0.0532*%
%ADD57R,0.0571X0.0453*%
%ADD58R,0.0360X0.0320*%
%ADD59R,0.0394X0.0984*%
%ADD60R,0.1299X0.0984*%
%ADD61R,0.0374X0.0669*%
%ADD62R,0.0850X0.1080*%
%ADD63R,0.1024X0.0413*%
%ADD64R,0.0248X0.0327*%
%ADD65R,0.0433X0.0433*%
%ADD66R,0.0358X0.0480*%
%ADD67C,0.1400*%
%ADD68R,0.1220X0.1732*%
G36*
X047087Y017755D02*
X047059Y017713D01*
X047000Y017737D01*
Y017500D01*
X047237D01*
X047213Y017559D01*
X047255Y017587D01*
X048789Y016054D01*
Y015619D01*
X048488D01*
X048464Y015669D01*
X048506Y015723D01*
X048537Y015800D01*
X047863D01*
X047894Y015723D01*
X047950Y015650D01*
X048023Y015594D01*
X048109Y015559D01*
X048099Y015511D01*
X047914D01*
X047733Y015692D01*
Y015993D01*
X047255D01*
Y015555D01*
X047556D01*
X047687Y015423D01*
X047668Y015377D01*
X047117D01*
Y014663D01*
X047242D01*
Y013567D01*
X046685D01*
X046608Y013552D01*
X046543Y013508D01*
X046500Y013443D01*
X046484Y013366D01*
Y011634D01*
X046500Y011557D01*
X046537Y011502D01*
X046520Y011452D01*
X043809D01*
Y012450D01*
X043211D01*
Y013750D01*
X043356D01*
Y014852D01*
X043211D01*
Y015344D01*
X043451D01*
Y015557D01*
X043489Y015590D01*
X043500Y015588D01*
X043581Y015599D01*
X043656Y015630D01*
X043720Y015680D01*
X043770Y015744D01*
X043801Y015819D01*
X043812Y015900D01*
X043801Y015981D01*
X043770Y016056D01*
X043720Y016120D01*
X043656Y016170D01*
X043581Y016201D01*
X043500Y016212D01*
X043419Y016201D01*
X043344Y016170D01*
X043280Y016120D01*
X043230Y016056D01*
X043199Y015981D01*
X043188Y015900D01*
X043189Y015893D01*
X043156Y015856D01*
X042979D01*
Y015344D01*
X042989D01*
Y015088D01*
X042939Y015078D01*
X042917Y015130D01*
X042868Y015194D01*
X042803Y015244D01*
X042781Y015253D01*
X042791Y015303D01*
X042862D01*
Y015500D01*
X042585D01*
X042308D01*
Y015371D01*
X042017D01*
Y015800D01*
X041691D01*
Y015900D01*
X041591D01*
Y016531D01*
X041364D01*
Y016437D01*
X041314Y016425D01*
X041256Y016470D01*
X041181Y016501D01*
X041100Y016512D01*
X041019Y016501D01*
X040944Y016470D01*
X040880Y016420D01*
X040845Y016375D01*
X040795Y016392D01*
Y016491D01*
X040621D01*
Y016909D01*
X040795D01*
Y018091D01*
X040224D01*
Y017555D01*
X040174Y017530D01*
X040146Y017552D01*
X040131Y017558D01*
Y018380D01*
X040169Y018413D01*
X040200Y018409D01*
X040275Y018419D01*
X040346Y018448D01*
X040406Y018494D01*
X040452Y018554D01*
X040481Y018625D01*
X040491Y018700D01*
X040481Y018775D01*
X040452Y018846D01*
X040406Y018906D01*
X040346Y018952D01*
X040275Y018981D01*
X040200Y018991D01*
X040125Y018981D01*
X040054Y018952D01*
X039994Y018906D01*
X039948Y018846D01*
X039919Y018775D01*
X039909Y018700D01*
X039919Y018625D01*
X039925Y018610D01*
X039907Y018593D01*
X039879Y018550D01*
X039869Y018500D01*
Y017558D01*
X039854Y017552D01*
X039794Y017506D01*
X039748Y017446D01*
X039719Y017375D01*
X039709Y017300D01*
X039719Y017225D01*
X039748Y017154D01*
X039794Y017094D01*
X039854Y017048D01*
X039925Y017019D01*
X040000Y017009D01*
X040075Y017019D01*
X040146Y017048D01*
X040174Y017070D01*
X040224Y017045D01*
Y016909D01*
X040398D01*
Y016491D01*
X040224D01*
Y016399D01*
X040178Y016379D01*
X039279Y017279D01*
X039243Y017303D01*
X039200Y017311D01*
X039195Y017315D01*
X039194Y017328D01*
X039206Y017372D01*
X039274Y017399D01*
X039345Y017455D01*
X039401Y017526D01*
X039435Y017610D01*
X039447Y017700D01*
X039435Y017790D01*
X039401Y017874D01*
X039345Y017945D01*
X039274Y018001D01*
X039190Y018035D01*
X039100Y018047D01*
X039010Y018035D01*
X038926Y018001D01*
X038855Y017945D01*
X038799Y017874D01*
X038765Y017790D01*
X038755Y017716D01*
X038707Y017693D01*
X036386Y020014D01*
X036350Y020038D01*
X036345Y020039D01*
X036350Y020089D01*
X039034D01*
X039038Y020039D01*
X039010Y020035D01*
X038926Y020001D01*
X038855Y019945D01*
X038799Y019874D01*
X038765Y019790D01*
X038753Y019700D01*
X038765Y019610D01*
X038799Y019526D01*
X038855Y019455D01*
X038926Y019399D01*
X039010Y019365D01*
X039100Y019353D01*
X039190Y019365D01*
X039274Y019399D01*
X039345Y019455D01*
X039401Y019526D01*
X039435Y019610D01*
X039447Y019700D01*
X039435Y019790D01*
X039401Y019874D01*
X039345Y019945D01*
X039274Y020001D01*
X039190Y020035D01*
X039162Y020039D01*
X039166Y020089D01*
X039454D01*
X039721Y019821D01*
X039757Y019797D01*
X039800Y019789D01*
X043712D01*
X043730Y019744D01*
X043780Y019680D01*
X043844Y019630D01*
X043919Y019599D01*
X044000Y019588D01*
X044081Y019599D01*
X044156Y019630D01*
X044220Y019680D01*
X044270Y019744D01*
X044301Y019819D01*
X044312Y019900D01*
X044301Y019981D01*
X044270Y020056D01*
X044220Y020120D01*
X044156Y020170D01*
X044081Y020201D01*
X044000Y020212D01*
X043919Y020201D01*
X043844Y020170D01*
X043780Y020120D01*
X043730Y020056D01*
X043712Y020011D01*
X039846D01*
X039579Y020279D01*
X039543Y020303D01*
X039500Y020311D01*
X039500Y020311D01*
X039166D01*
X039162Y020361D01*
X039190Y020365D01*
X039274Y020399D01*
X039345Y020455D01*
X039401Y020526D01*
X039435Y020610D01*
X039447Y020700D01*
X039435Y020790D01*
X039401Y020874D01*
X039345Y020945D01*
X039274Y021001D01*
X039190Y021035D01*
X039162Y021039D01*
X039166Y021089D01*
X043754D01*
X047087Y017755D01*
D02*
G37*
G36*
X055600Y020300D02*
X054100D01*
X053900Y020100D01*
Y019300D01*
X053200D01*
Y021400D01*
X053900Y022100D01*
X055600D01*
Y020300D01*
D02*
G37*
G36*
X060200Y021700D02*
Y019400D01*
X059900Y019100D01*
X056000Y019100D01*
X056000Y019900D01*
X059100Y019900D01*
X059300Y020100D01*
X059300Y020700D01*
X059200Y020800D01*
X058700D01*
Y022100D01*
X059800D01*
X060200Y021700D01*
D02*
G37*
G36*
X056526Y032685D02*
X056562Y032661D01*
X056604Y032653D01*
X056604Y032653D01*
X057396D01*
X057396Y032653D01*
X057438Y032661D01*
X057474Y032685D01*
X057587Y032798D01*
X058498D01*
X058500Y032800D01*
X062117Y032800D01*
X062118Y032798D01*
X062120D01*
X065089Y029829D01*
Y024845D01*
X065064Y024835D01*
X065008Y024792D01*
X064965Y024736D01*
X064938Y024670D01*
X064929Y024600D01*
X064938Y024530D01*
X064965Y024464D01*
X065008Y024408D01*
X065017Y024401D01*
X065000Y024351D01*
X064844D01*
Y023879D01*
X065356D01*
Y023964D01*
X065444D01*
Y023879D01*
X065956D01*
X065956Y023879D01*
X066001Y023877D01*
X066000Y023821D01*
X065965Y023786D01*
X065950Y023762D01*
X065800D01*
Y023485D01*
Y023208D01*
X065950D01*
X065965Y023184D01*
X066131Y023018D01*
X066129Y023000D01*
X066138Y022930D01*
X066165Y022864D01*
X066208Y022808D01*
X066264Y022765D01*
X066330Y022738D01*
X066400Y022729D01*
X066470Y022738D01*
X066536Y022765D01*
X066592Y022808D01*
X066635Y022864D01*
X066662Y022930D01*
X066671Y023000D01*
X066662Y023070D01*
X066635Y023136D01*
X066618Y023158D01*
X066623Y023168D01*
X066647Y023208D01*
X066653D01*
Y023208D01*
X066850D01*
Y023485D01*
X067050D01*
Y023208D01*
X067193D01*
X067203Y023158D01*
X067164Y023142D01*
X067108Y023099D01*
X067065Y023042D01*
X067038Y022977D01*
X067029Y022907D01*
X067038Y022837D01*
X067065Y022771D01*
X067108Y022715D01*
X067164Y022672D01*
X067230Y022645D01*
X067300Y022635D01*
X067370Y022645D01*
X067436Y022672D01*
X067492Y022715D01*
X067506Y022733D01*
X067556Y022716D01*
Y012301D01*
X066199Y010944D01*
X052667D01*
X052647Y010990D01*
X056149Y014492D01*
X057691D01*
X057768Y014502D01*
X057841Y014532D01*
X057894Y014509D01*
X057910Y014488D01*
X057966Y014445D01*
X057989Y014436D01*
Y014145D01*
X057964Y014135D01*
X057908Y014092D01*
X057865Y014036D01*
X057838Y013970D01*
X057829Y013900D01*
X057838Y013830D01*
X057865Y013764D01*
X057908Y013708D01*
X057964Y013665D01*
X058030Y013638D01*
X058100Y013629D01*
X058170Y013638D01*
X058236Y013665D01*
X058292Y013708D01*
X058335Y013764D01*
X058362Y013830D01*
X058371Y013900D01*
X058362Y013970D01*
X058335Y014036D01*
X058292Y014092D01*
X058236Y014135D01*
X058211Y014145D01*
Y014434D01*
X058238Y014445D01*
X058294Y014488D01*
X058337Y014544D01*
X058364Y014610D01*
X058373Y014680D01*
X058364Y014750D01*
X058337Y014816D01*
X058294Y014872D01*
X058268Y014892D01*
X058265Y014941D01*
X062712Y019388D01*
X062759Y019450D01*
X062772Y019480D01*
X062789Y019523D01*
X062799Y019600D01*
Y024815D01*
X062789Y024893D01*
X062759Y024965D01*
X062712Y025027D01*
X061355Y026384D01*
X061388Y026422D01*
X061423Y026394D01*
X061500Y026363D01*
Y026600D01*
X061263D01*
X061294Y026523D01*
X061322Y026488D01*
X061284Y026455D01*
X060957Y026781D01*
X060985Y026823D01*
X061001Y026900D01*
Y027400D01*
X060985Y027477D01*
X060942Y027542D01*
X060909Y027575D01*
Y027689D01*
X060794D01*
X059442Y029042D01*
X059377Y029085D01*
X059300Y029101D01*
X058960D01*
Y030454D01*
X058959Y030462D01*
X058959Y030470D01*
X058951Y030520D01*
X058944Y030571D01*
X058941Y030578D01*
X058940Y030586D01*
X058919Y030633D01*
X058899Y030680D01*
X058895Y030686D01*
X058891Y030693D01*
X058868Y030722D01*
X058872Y030728D01*
X058631Y030969D01*
X058623Y030964D01*
X058322Y031245D01*
X058226Y031313D01*
X058116Y031354D01*
X058043Y031361D01*
X058035Y031417D01*
X057990Y031525D01*
X057919Y031619D01*
X057825Y031690D01*
X057717Y031735D01*
X057600Y031751D01*
X057483Y031735D01*
X057375Y031690D01*
X057281Y031619D01*
X057210Y031525D01*
X057165Y031417D01*
X057149Y031300D01*
X057165Y031183D01*
X057210Y031075D01*
X057281Y030981D01*
X057375Y030910D01*
X057483Y030865D01*
X057555Y030855D01*
X057565Y030783D01*
X057610Y030675D01*
X057681Y030581D01*
X057775Y030510D01*
X057800Y030499D01*
X057881Y030424D01*
X057863Y030377D01*
X057587D01*
Y030200D01*
X057824D01*
Y030100D01*
X057924D01*
Y029823D01*
X058041D01*
Y029726D01*
X058058D01*
Y029101D01*
X057700D01*
X057623Y029085D01*
X057558Y029042D01*
X057515Y028977D01*
X057499Y028900D01*
Y028841D01*
X057484Y028766D01*
Y028638D01*
X057438Y028619D01*
X057329Y028729D01*
X057299Y028748D01*
Y028819D01*
X056711D01*
Y028738D01*
X056665Y028719D01*
X056527Y028857D01*
Y028957D01*
X056419D01*
X056377Y028985D01*
X056300Y029001D01*
X054800D01*
X054723Y028985D01*
X054658Y028942D01*
X054615Y028877D01*
X054611Y028860D01*
X054600Y028843D01*
X054584Y028766D01*
Y028638D01*
X054538Y028619D01*
X054429Y028729D01*
X054399Y028748D01*
Y028819D01*
X053811D01*
Y028481D01*
X054362D01*
X054433Y028410D01*
X054412Y028360D01*
X054205D01*
Y028150D01*
Y027940D01*
X054439D01*
X054440Y027940D01*
X054489Y027937D01*
Y027863D01*
X054440Y027860D01*
X054439Y027860D01*
X054205D01*
Y027650D01*
Y027440D01*
X054439D01*
X054440Y027440D01*
X054489Y027437D01*
Y027363D01*
X054440Y027360D01*
X054439Y027360D01*
X054205D01*
Y027150D01*
Y026940D01*
X054388D01*
X054405Y026900D01*
X054406Y026890D01*
X054365Y026836D01*
X054338Y026770D01*
X054329Y026700D01*
X054338Y026630D01*
X054365Y026564D01*
X054408Y026508D01*
X054464Y026465D01*
X054530Y026438D01*
X054600Y026429D01*
X054670Y026438D01*
X054736Y026465D01*
X054792Y026508D01*
X054835Y026564D01*
X054862Y026630D01*
X054871Y026700D01*
X054865Y026749D01*
X054899Y026799D01*
X056365D01*
X056398Y026762D01*
X056390Y026700D01*
X056393Y026674D01*
X056360Y026637D01*
X056008D01*
Y025163D01*
X057252D01*
Y026499D01*
X057302Y026516D01*
X057308Y026508D01*
X057364Y026465D01*
X057430Y026438D01*
X057500Y026429D01*
X057570Y026438D01*
X057636Y026465D01*
X057692Y026508D01*
X057698Y026516D01*
X057748Y026499D01*
Y025163D01*
X058414D01*
X058446Y025125D01*
X058439Y025091D01*
Y023217D01*
X058458Y023121D01*
X058513Y023039D01*
X059342Y022210D01*
X059323Y022164D01*
X058700D01*
X058655Y022145D01*
X058636Y022100D01*
Y020800D01*
X058655Y020755D01*
X058700Y020736D01*
X059174D01*
X059236Y020674D01*
Y020619D01*
X058668D01*
Y020313D01*
X058498Y020143D01*
X056078D01*
X056059Y020189D01*
X056150Y020281D01*
X056456D01*
Y020583D01*
X056506Y020603D01*
X056636Y020474D01*
Y020334D01*
X056655Y020289D01*
X056700Y020270D01*
X058300D01*
X058345Y020289D01*
X058364Y020334D01*
Y022400D01*
X058345Y022445D01*
X058300Y022464D01*
X055900D01*
X055855Y022445D01*
X055836Y022400D01*
Y020800D01*
X055855Y020755D01*
X055900Y020736D01*
X056374D01*
X056440Y020669D01*
X056420Y020619D01*
X055868D01*
Y020313D01*
X055857Y020302D01*
X055664D01*
Y022100D01*
X055645Y022145D01*
X055600Y022164D01*
X053900D01*
X053855Y022145D01*
X053155Y021445D01*
X053136Y021400D01*
Y019300D01*
X053155Y019255D01*
X053164Y019251D01*
X053176Y019192D01*
X053094Y019110D01*
X053041Y019128D01*
X053034Y019181D01*
X053003Y019256D01*
X052953Y019320D01*
X052889Y019370D01*
X052864Y019380D01*
Y020100D01*
X052845Y020145D01*
X052800Y020164D01*
X050800D01*
X050755Y020145D01*
X049955Y019345D01*
X049936Y019300D01*
Y018500D01*
X049945Y018478D01*
X049937Y018400D01*
Y016865D01*
X049880Y016820D01*
X049830Y016756D01*
X049799Y016681D01*
X049788Y016600D01*
X049799Y016519D01*
X049811Y016491D01*
X049770Y016459D01*
X049756Y016470D01*
X049681Y016501D01*
X049600Y016512D01*
X049519Y016501D01*
X049444Y016470D01*
X049380Y016420D01*
X049330Y016356D01*
X049299Y016281D01*
X049288Y016200D01*
X049299Y016119D01*
X049317Y016075D01*
X049315Y016072D01*
X049291Y016036D01*
X049283Y015994D01*
X049235Y015993D01*
X049155D01*
Y015555D01*
X049633D01*
Y015893D01*
X049681Y015899D01*
X049756Y015930D01*
X049820Y015980D01*
X049870Y016044D01*
X049887Y016086D01*
X049937Y016076D01*
Y014700D01*
Y014185D01*
X049891Y014166D01*
X049479Y014579D01*
X049443Y014603D01*
X049436Y014604D01*
Y014697D01*
X049011D01*
Y016100D01*
X049003Y016143D01*
X048979Y016179D01*
X048979Y016179D01*
X044013Y021145D01*
X044041Y021187D01*
X044100Y021163D01*
Y021400D01*
X043863D01*
X043892Y021330D01*
X043889Y021326D01*
X043843Y021303D01*
X043800Y021311D01*
X043800Y021311D01*
X039166D01*
X039162Y021361D01*
X039190Y021365D01*
X039274Y021399D01*
X039345Y021455D01*
X039401Y021526D01*
X039435Y021610D01*
X039447Y021700D01*
X039435Y021790D01*
X039401Y021874D01*
X039345Y021945D01*
X039274Y022001D01*
X039190Y022035D01*
X039100Y022047D01*
X039010Y022035D01*
X038926Y022001D01*
X038855Y021945D01*
X038799Y021874D01*
X038765Y021790D01*
X038753Y021700D01*
X038765Y021610D01*
X038799Y021526D01*
X038855Y021455D01*
X038926Y021399D01*
X039010Y021365D01*
X039038Y021361D01*
X039034Y021311D01*
X038166D01*
X038162Y021361D01*
X038190Y021365D01*
X038274Y021399D01*
X038345Y021455D01*
X038401Y021526D01*
X038435Y021610D01*
X038447Y021700D01*
X038435Y021790D01*
X038401Y021874D01*
X038345Y021945D01*
X038274Y022001D01*
X038190Y022035D01*
X038100Y022047D01*
X038010Y022035D01*
X037926Y022001D01*
X037855Y021945D01*
X037799Y021874D01*
X037765Y021790D01*
X037753Y021700D01*
X037765Y021610D01*
X037799Y021526D01*
X037855Y021455D01*
X037926Y021399D01*
X038010Y021365D01*
X038038Y021361D01*
X038034Y021311D01*
X037166D01*
X037162Y021361D01*
X037190Y021365D01*
X037274Y021399D01*
X037345Y021455D01*
X037401Y021526D01*
X037435Y021610D01*
X037447Y021700D01*
X037435Y021790D01*
X037401Y021874D01*
X037345Y021945D01*
X037274Y022001D01*
X037190Y022035D01*
X037100Y022047D01*
X037010Y022035D01*
X036926Y022001D01*
X036855Y021945D01*
X036799Y021874D01*
X036765Y021790D01*
X036753Y021700D01*
X036765Y021610D01*
X036799Y021526D01*
X036855Y021455D01*
X036926Y021399D01*
X037010Y021365D01*
X037038Y021361D01*
X037034Y021311D01*
X036646D01*
X036409Y021548D01*
X036435Y021610D01*
X036447Y021700D01*
X036435Y021790D01*
X036401Y021874D01*
X036345Y021945D01*
X036274Y022001D01*
X036190Y022035D01*
X036100Y022047D01*
X036010Y022035D01*
X035926Y022001D01*
X035855Y021945D01*
X035799Y021874D01*
X035765Y021790D01*
X035753Y021700D01*
X035765Y021610D01*
X035799Y021526D01*
X035855Y021455D01*
X035926Y021399D01*
X036010Y021365D01*
X036100Y021353D01*
X036190Y021365D01*
X036252Y021391D01*
X036521Y021121D01*
X036521Y021121D01*
X036557Y021097D01*
X036600Y021089D01*
X036600Y021089D01*
X037199D01*
X037209Y021041D01*
X037123Y021006D01*
X037050Y020950D01*
X036994Y020877D01*
X036963Y020800D01*
X037637D01*
X037606Y020877D01*
X037550Y020950D01*
X037477Y021006D01*
X037391Y021041D01*
X037401Y021089D01*
X039034D01*
X039038Y021039D01*
X039010Y021035D01*
X038926Y021001D01*
X038855Y020945D01*
X038799Y020874D01*
X038765Y020790D01*
X038753Y020700D01*
X038765Y020610D01*
X038799Y020526D01*
X038855Y020455D01*
X038926Y020399D01*
X039010Y020365D01*
X039038Y020361D01*
X039034Y020311D01*
X037401D01*
X037391Y020359D01*
X037477Y020394D01*
X037550Y020450D01*
X037606Y020523D01*
X037637Y020600D01*
X036963D01*
X036994Y020523D01*
X037050Y020450D01*
X037123Y020394D01*
X037209Y020359D01*
X037199Y020311D01*
X031646D01*
X030409Y021548D01*
X030435Y021610D01*
X030447Y021700D01*
X030435Y021790D01*
X030401Y021874D01*
X030345Y021945D01*
X030274Y022001D01*
X030190Y022035D01*
X030100Y022047D01*
X030010Y022035D01*
X029926Y022001D01*
X029855Y021945D01*
X029799Y021874D01*
X029765Y021790D01*
X029756Y021723D01*
X029706Y021726D01*
Y022005D01*
X029706Y022005D01*
X029697Y022048D01*
X029673Y022084D01*
X029673Y022084D01*
X029379Y022379D01*
X029343Y022403D01*
X029300Y022411D01*
X029300Y022411D01*
X026100D01*
X026100Y022411D01*
X026057Y022403D01*
X026021Y022379D01*
X025488Y021845D01*
X025212D01*
X025126Y021932D01*
X025159Y021969D01*
X025164Y021965D01*
X025230Y021938D01*
X025300Y021929D01*
X025370Y021938D01*
X025436Y021965D01*
X025492Y022008D01*
X025535Y022064D01*
X025562Y022130D01*
X025571Y022200D01*
X025562Y022270D01*
X025535Y022336D01*
X025492Y022392D01*
X025436Y022435D01*
X025411Y022445D01*
Y025029D01*
X025436Y025049D01*
X025452Y025047D01*
X025493Y025035D01*
X025503Y025020D01*
X025504Y025016D01*
X025531Y024950D01*
X025574Y024894D01*
X025630Y024851D01*
X025655Y024841D01*
Y024758D01*
X025529D01*
Y024365D01*
X025897D01*
X025917Y024318D01*
X025805Y024207D01*
X025529D01*
Y023813D01*
X025655D01*
Y023558D01*
X025529D01*
Y023165D01*
X026002D01*
Y023558D01*
X025877D01*
Y023813D01*
X026002D01*
Y024089D01*
X026412Y024500D01*
X026412Y024500D01*
X026476Y024506D01*
X026484Y024500D01*
Y024253D01*
X026463Y024222D01*
X026455Y024180D01*
X026455Y024180D01*
Y023831D01*
X026430Y023821D01*
X026374Y023778D01*
X026331Y023722D01*
X026304Y023656D01*
X026294Y023586D01*
X026304Y023516D01*
X026331Y023450D01*
X026374Y023394D01*
X026430Y023351D01*
X026495Y023324D01*
X026566Y023314D01*
X026636Y023324D01*
X026701Y023351D01*
X026758Y023394D01*
X026801Y023450D01*
X026828Y023516D01*
X026837Y023586D01*
X026828Y023656D01*
X026801Y023722D01*
X026758Y023778D01*
X026701Y023821D01*
X026677Y023831D01*
Y024037D01*
X026960D01*
Y024635D01*
X026495D01*
X026484Y024635D01*
X026445Y024662D01*
Y024889D01*
X026479Y024923D01*
X026486Y024924D01*
X026551Y024951D01*
X026608Y024994D01*
X026651Y025050D01*
X026678Y025116D01*
X026687Y025186D01*
X026678Y025256D01*
X026651Y025322D01*
X026608Y025378D01*
X026551Y025421D01*
X026486Y025448D01*
X026416Y025457D01*
X026345Y025448D01*
X026280Y025421D01*
X026224Y025378D01*
X026181Y025322D01*
X026154Y025256D01*
X026144Y025186D01*
X026154Y025116D01*
X026181Y025050D01*
X026224Y024994D01*
X026236Y024985D01*
X026231Y024978D01*
X026223Y024935D01*
X026223Y024935D01*
Y024624D01*
X026048Y024450D01*
X026002Y024469D01*
Y024758D01*
X025877D01*
Y024841D01*
X025901Y024851D01*
X025958Y024894D01*
X026001Y024950D01*
X026028Y025016D01*
X026037Y025086D01*
X026028Y025156D01*
X026001Y025222D01*
X025958Y025278D01*
X025901Y025321D01*
X025836Y025348D01*
X025783Y025355D01*
X025761Y025404D01*
X025779Y025421D01*
X025779Y025421D01*
X025803Y025457D01*
X025811Y025500D01*
Y026000D01*
X025811Y026000D01*
X025803Y026043D01*
X025779Y026079D01*
X025099Y026758D01*
Y027429D01*
X025145Y027448D01*
X025229Y027364D01*
Y027088D01*
X025702D01*
Y027173D01*
X025929D01*
Y027063D01*
X026402D01*
Y027149D01*
X026629D01*
Y027063D01*
X027102D01*
Y027149D01*
X027329D01*
Y027063D01*
X027802D01*
Y027149D01*
X028029D01*
Y027063D01*
X028502D01*
Y027149D01*
X028729D01*
Y027063D01*
X029202D01*
Y027457D01*
X028729D01*
Y027371D01*
X028502D01*
Y027457D01*
X028029D01*
Y027371D01*
X027802D01*
Y027457D01*
X027329D01*
Y027371D01*
X027102D01*
Y027457D01*
X026629D01*
Y027371D01*
X026402D01*
Y027457D01*
X025929D01*
Y027396D01*
X025702D01*
Y027482D01*
X025426D01*
X025315Y027593D01*
X025334Y027639D01*
X025702D01*
Y027903D01*
X025728Y027966D01*
X025737Y028036D01*
X025728Y028106D01*
X025701Y028172D01*
X025695Y028179D01*
X025720Y028229D01*
X025962D01*
X025986Y028179D01*
X025981Y028172D01*
X025954Y028106D01*
X025947Y028052D01*
X025929Y028008D01*
X025929Y028008D01*
X025929Y028008D01*
Y027615D01*
X026402D01*
Y027840D01*
X026408Y027844D01*
X026451Y027900D01*
X026478Y027966D01*
X026487Y028036D01*
X026478Y028106D01*
X026451Y028172D01*
X026414Y028220D01*
X026427Y028270D01*
X026654D01*
X026668Y028220D01*
X026631Y028172D01*
X026604Y028106D01*
X026594Y028036D01*
X026604Y027966D01*
X026629Y027903D01*
Y027615D01*
X027102D01*
Y027903D01*
X027128Y027966D01*
X027137Y028036D01*
X027128Y028106D01*
X027101Y028172D01*
X027058Y028228D01*
X027001Y028271D01*
X026936Y028298D01*
X026866Y028307D01*
X026822Y028301D01*
X026772Y028338D01*
Y028395D01*
X027110D01*
Y028270D01*
X027354D01*
X027368Y028220D01*
X027331Y028172D01*
X027304Y028106D01*
X027294Y028036D01*
X027304Y027966D01*
X027329Y027903D01*
Y027615D01*
X027802D01*
Y027903D01*
X027828Y027966D01*
X027837Y028036D01*
X027828Y028106D01*
X027801Y028172D01*
X027758Y028228D01*
X027701Y028271D01*
X027636Y028298D01*
X027622Y028300D01*
Y028350D01*
X027637Y028395D01*
X027680Y028403D01*
X027716Y028427D01*
X027823Y028534D01*
X027869Y028515D01*
Y028229D01*
X027962D01*
X027986Y028179D01*
X027981Y028172D01*
X027954Y028106D01*
X027944Y028036D01*
X027954Y027966D01*
X027981Y027900D01*
X028024Y027844D01*
X028029Y027840D01*
Y027615D01*
X028502D01*
Y028008D01*
X028502D01*
X028485Y028051D01*
X028478Y028106D01*
X028451Y028172D01*
X028445Y028179D01*
X028463Y028229D01*
X028463D01*
Y028406D01*
X028166D01*
Y028606D01*
X028463D01*
Y028696D01*
X028719D01*
Y028621D01*
X029313D01*
Y028696D01*
X029372D01*
X029372Y028696D01*
X029419Y028654D01*
Y028621D01*
X029616D01*
Y028798D01*
X029586D01*
X029566Y028844D01*
X029637Y028915D01*
X029972D01*
Y029387D01*
X029827D01*
Y029635D01*
X029818Y029677D01*
X029794Y029713D01*
X029580Y029927D01*
X029604Y029975D01*
X029616Y029973D01*
X029697Y029984D01*
X029772Y030015D01*
X029837Y030065D01*
X029886Y030129D01*
X029918Y030205D01*
X029919Y030213D01*
X029966Y030229D01*
X030423Y029772D01*
Y028779D01*
X030373Y028754D01*
X030351Y028771D01*
X030286Y028798D01*
X030216Y028807D01*
X030145Y028798D01*
X030080Y028771D01*
X030063Y028757D01*
X030013Y028782D01*
Y028798D01*
X029816D01*
Y028521D01*
Y028244D01*
X030013D01*
Y028290D01*
X030063Y028314D01*
X030080Y028301D01*
X030105Y028291D01*
Y027888D01*
X030039Y027823D01*
X029993Y027842D01*
Y028049D01*
X029816D01*
Y027811D01*
X029716D01*
Y027711D01*
X029439D01*
Y027574D01*
X029725D01*
X029744Y027527D01*
X029673Y027457D01*
X029479D01*
Y027063D01*
X029605D01*
Y025732D01*
X028437Y024564D01*
X028413Y024528D01*
X028405Y024486D01*
X028405Y024486D01*
Y024030D01*
X028355Y024013D01*
X028325Y024052D01*
X028289Y024080D01*
Y024236D01*
X028009D01*
X027730D01*
Y023996D01*
X027782D01*
X027816Y023946D01*
X027810Y023931D01*
X028104D01*
Y023731D01*
X027810D01*
X027833Y023675D01*
X027883Y023610D01*
X027947Y023560D01*
X028023Y023529D01*
X028074Y023522D01*
X028092Y023469D01*
X027544Y022921D01*
X026002D01*
Y023007D01*
X025529D01*
Y022613D01*
X026002D01*
Y022699D01*
X027590D01*
X027590Y022699D01*
X027633Y022708D01*
X027669Y022732D01*
X028594Y023657D01*
X028618Y023693D01*
X028627Y023736D01*
X028627Y023736D01*
Y023973D01*
X028663Y023989D01*
X028677Y023992D01*
X028730Y023951D01*
X028795Y023924D01*
X028824Y023920D01*
X029137Y023607D01*
X029137Y023607D01*
X029173Y023583D01*
X029216Y023575D01*
X029216Y023575D01*
X029960D01*
Y023335D01*
X029960Y023335D01*
X029960D01*
X029942Y023327D01*
X029930Y023321D01*
X029919Y023312D01*
X029919Y023312D01*
X029918Y023311D01*
X029874Y023278D01*
X029831Y023222D01*
X029804Y023156D01*
X029794Y023086D01*
X029804Y023016D01*
X029831Y022950D01*
X029874Y022894D01*
X029930Y022851D01*
X029995Y022824D01*
X030066Y022814D01*
X030136Y022824D01*
X030201Y022851D01*
X030225Y022869D01*
X030355Y022738D01*
X030355Y022738D01*
X030391Y022714D01*
X030434Y022706D01*
X030698D01*
X030698Y022706D01*
X030740Y022714D01*
X030776Y022738D01*
X031368Y023330D01*
X031767D01*
Y023420D01*
X032040D01*
Y023256D01*
X032591D01*
Y023807D01*
X032191D01*
X032120Y023877D01*
X032139Y023924D01*
X032216D01*
Y024240D01*
X032416D01*
Y023924D01*
X032632D01*
Y024046D01*
X032678Y024065D01*
X033155Y023588D01*
X033155Y023588D01*
X033191Y023564D01*
X033234Y023556D01*
X033234Y023556D01*
X033601D01*
X033601Y023556D01*
X033643Y023564D01*
X033679Y023588D01*
X033866Y023775D01*
X034334Y023306D01*
X034334Y023306D01*
X034370Y023282D01*
X034413Y023273D01*
X035077D01*
X035111Y023223D01*
X035104Y023206D01*
X035094Y023136D01*
X035104Y023066D01*
X035131Y023000D01*
X035174Y022944D01*
X035230Y022901D01*
X035295Y022874D01*
X035366Y022864D01*
X035436Y022874D01*
X035501Y022901D01*
X035558Y022944D01*
X035601Y023000D01*
X035628Y023066D01*
X035637Y023136D01*
X035628Y023205D01*
X035697Y023274D01*
X035727Y023319D01*
X035737Y023371D01*
Y023430D01*
X035837D01*
Y023855D01*
X035838Y023902D01*
X035880Y023911D01*
X035916Y023935D01*
X036125Y024144D01*
X036172Y024125D01*
Y024063D01*
X036427D01*
X036647Y023843D01*
X036628Y023797D01*
X036467D01*
Y023942D01*
X035994D01*
Y023430D01*
X036467D01*
Y023575D01*
X036740D01*
Y023356D01*
X037291D01*
Y023907D01*
X036897D01*
X036827Y023977D01*
X036846Y024024D01*
X036916D01*
Y024340D01*
X037116D01*
Y024024D01*
X037332D01*
Y024388D01*
X037378Y024407D01*
X037479Y024307D01*
X037515Y024283D01*
X037557Y024275D01*
X038014D01*
X038014Y024275D01*
X038057Y024283D01*
X038093Y024307D01*
X038347Y024561D01*
X038400Y024543D01*
X038404Y024516D01*
X038431Y024450D01*
X038474Y024394D01*
X038530Y024351D01*
X038535Y024349D01*
Y024054D01*
X038535Y024054D01*
X038544Y024011D01*
X038568Y023975D01*
X038755Y023788D01*
X038791Y023764D01*
X038834Y023756D01*
X039229D01*
X039229Y023756D01*
X039271Y023764D01*
X039305Y023787D01*
X039342D01*
X039360Y023770D01*
Y023435D01*
X039716D01*
X039741Y023385D01*
X039731Y023372D01*
X039704Y023306D01*
X039694Y023236D01*
X039704Y023166D01*
X039731Y023100D01*
X039774Y023044D01*
X039830Y023001D01*
X039895Y022974D01*
X039966Y022964D01*
X040036Y022974D01*
X040101Y023001D01*
X040158Y023044D01*
X040201Y023100D01*
X040228Y023166D01*
X040237Y023236D01*
X040228Y023305D01*
X040353Y023430D01*
X040513D01*
X040537Y023394D01*
X040704Y023227D01*
X040704Y023227D01*
X040740Y023203D01*
X040782Y023195D01*
X040782Y023195D01*
X041977D01*
X041977Y023195D01*
X042020Y023203D01*
X042056Y023227D01*
X042120Y023291D01*
X042120Y023291D01*
X042144Y023327D01*
X042152Y023370D01*
Y023621D01*
X043051Y024520D01*
X043100Y024498D01*
X043107Y024447D01*
X043134Y024381D01*
X043177Y024325D01*
X043233Y024282D01*
X043285Y024260D01*
Y024054D01*
X043285Y024054D01*
X043294Y024011D01*
X043318Y023975D01*
X043505Y023788D01*
X043541Y023764D01*
X043584Y023756D01*
X043903D01*
X043903Y023756D01*
X043946Y023764D01*
X043982Y023788D01*
X044054Y023860D01*
X044067Y023862D01*
X044110Y023836D01*
Y023535D01*
X044566D01*
X044583Y023485D01*
X044574Y023478D01*
X044531Y023422D01*
X044504Y023356D01*
X044494Y023286D01*
X044504Y023216D01*
X044531Y023150D01*
X044574Y023094D01*
X044630Y023051D01*
X044695Y023024D01*
X044766Y023014D01*
X044836Y023024D01*
X044901Y023051D01*
X044958Y023094D01*
X045001Y023150D01*
X045028Y023216D01*
X045037Y023286D01*
X045028Y023356D01*
X045001Y023422D01*
X044958Y023478D01*
X044957Y023493D01*
X044992Y023530D01*
X045253D01*
X045258Y023523D01*
X045454Y023327D01*
X045454Y023327D01*
X045490Y023303D01*
X045532Y023295D01*
X046727D01*
X046727Y023295D01*
X046770Y023303D01*
X046806Y023327D01*
X046870Y023391D01*
X046870Y023391D01*
X046894Y023427D01*
X046902Y023470D01*
Y023530D01*
X047796Y024423D01*
X047848Y024405D01*
X047854Y024366D01*
X047881Y024300D01*
X047924Y024244D01*
X047980Y024201D01*
X048045Y024174D01*
X048116Y024164D01*
X048135Y024147D01*
Y023954D01*
X048135Y023954D01*
X048144Y023911D01*
X048168Y023875D01*
X048355Y023688D01*
X048391Y023664D01*
X048434Y023656D01*
X048860D01*
Y023535D01*
X049266D01*
X049283Y023485D01*
X049274Y023478D01*
X049231Y023422D01*
X049204Y023356D01*
X049194Y023286D01*
X049204Y023216D01*
X049231Y023150D01*
X049274Y023094D01*
X049330Y023051D01*
X049395Y023024D01*
X049466Y023014D01*
X049536Y023024D01*
X049601Y023051D01*
X049658Y023094D01*
X049701Y023150D01*
X049728Y023216D01*
X049737Y023286D01*
X049728Y023355D01*
X049897Y023524D01*
X049901Y023530D01*
X050036D01*
X050042Y023501D01*
X050066Y023465D01*
X050204Y023327D01*
X050204Y023327D01*
X050240Y023303D01*
X050282Y023295D01*
X050282Y023295D01*
X051477D01*
X051477Y023295D01*
X051520Y023303D01*
X051556Y023327D01*
X052213Y023985D01*
X052213Y023985D01*
X052237Y024021D01*
X052246Y024063D01*
Y025917D01*
X052237Y025959D01*
X052213Y025995D01*
X052213Y025995D01*
X051494Y026714D01*
X051458Y026739D01*
X051416Y026747D01*
X051416Y026747D01*
X044302D01*
X044292Y026797D01*
X044301Y026801D01*
X044358Y026844D01*
X044401Y026900D01*
X044428Y026966D01*
X044437Y027036D01*
X044428Y027106D01*
X044418Y027131D01*
X044444Y027157D01*
X044444Y027157D01*
X044462Y027184D01*
X044497Y027187D01*
X044517Y027183D01*
X044531Y027150D01*
X044574Y027094D01*
X044630Y027051D01*
X044695Y027024D01*
X044766Y027014D01*
X044836Y027024D01*
X044901Y027051D01*
X044958Y027094D01*
X045001Y027150D01*
X045028Y027216D01*
X045037Y027286D01*
X045028Y027355D01*
X045147Y027474D01*
X045177Y027519D01*
X045187Y027571D01*
Y027580D01*
X045287D01*
Y028002D01*
X045337Y028022D01*
X045444Y027915D01*
Y027580D01*
X045917D01*
Y027725D01*
X046190D01*
Y027506D01*
X046741D01*
Y028057D01*
X046347D01*
X046277Y028127D01*
X046296Y028174D01*
X046366D01*
Y028490D01*
X046566D01*
Y028174D01*
X046782D01*
Y028538D01*
X046828Y028557D01*
X047249Y028137D01*
X047285Y028113D01*
X047327Y028105D01*
X047855D01*
Y027481D01*
X047830Y027471D01*
X047774Y027428D01*
X047731Y027372D01*
X047704Y027306D01*
X047694Y027236D01*
X047704Y027166D01*
X047731Y027100D01*
X047774Y027044D01*
X047830Y027001D01*
X047895Y026974D01*
X047966Y026964D01*
X048036Y026974D01*
X048101Y027001D01*
X048158Y027044D01*
X048201Y027100D01*
X048228Y027166D01*
X048237Y027236D01*
X048228Y027306D01*
X048201Y027372D01*
X048158Y027428D01*
X048101Y027471D01*
X048077Y027481D01*
Y028170D01*
X048174Y028267D01*
X048218Y028240D01*
X048226Y028180D01*
X048254Y028114D01*
X048297Y028058D01*
X048353Y028015D01*
X048418Y027988D01*
X048489Y027979D01*
X048559Y027988D01*
X048624Y028015D01*
X048680Y028058D01*
X048724Y028114D01*
X048734Y028139D01*
X048924D01*
X048924Y028139D01*
X048966Y028147D01*
X049002Y028171D01*
X049060Y028229D01*
X049340D01*
X049342Y028221D01*
X049366Y028185D01*
X049473Y028077D01*
X049473Y028077D01*
X049509Y028053D01*
X049552Y028045D01*
X049587D01*
Y027648D01*
X049549Y027613D01*
X049489Y027621D01*
X049444Y027616D01*
X049394Y027652D01*
Y028071D01*
X048883D01*
Y027599D01*
X049027D01*
Y027472D01*
X049009Y027456D01*
X048939Y027447D01*
X048874Y027420D01*
X048818Y027377D01*
X048774Y027321D01*
X048747Y027255D01*
X048738Y027185D01*
X048747Y027115D01*
X048774Y027049D01*
X048818Y026993D01*
X048874Y026950D01*
X048939Y026923D01*
X049009Y026914D01*
X049080Y026923D01*
X049145Y026950D01*
X049201Y026993D01*
X049244Y027049D01*
X049272Y027115D01*
X049325Y027136D01*
X049353Y027115D01*
X049418Y027088D01*
X049489Y027079D01*
X049559Y027088D01*
X049624Y027115D01*
X049680Y027158D01*
X049724Y027214D01*
X049751Y027280D01*
X049760Y027350D01*
X049751Y027419D01*
X049920Y027588D01*
X049924Y027594D01*
X050060D01*
Y027729D01*
X050110Y027756D01*
X050123Y027747D01*
X050166Y027739D01*
X050217D01*
Y027594D01*
X050690D01*
Y027784D01*
X050963D01*
Y027620D01*
X051514D01*
Y028171D01*
X051120D01*
X051050Y028242D01*
X051069Y028288D01*
X051139D01*
Y028504D01*
X050922D01*
Y028435D01*
X050876Y028416D01*
X050763Y028529D01*
X050761Y028530D01*
Y028672D01*
X050394D01*
Y028228D01*
X050749D01*
X050920Y028057D01*
X050899Y028007D01*
X050690D01*
Y028106D01*
X050250D01*
X050244Y028115D01*
X050244Y028115D01*
X050125Y028235D01*
X050088Y028259D01*
X050046Y028267D01*
X050046Y028267D01*
X049883D01*
Y028476D01*
X050226Y028819D01*
X050922D01*
Y028704D01*
X051239D01*
X051555D01*
Y028749D01*
X051563Y028756D01*
X052098D01*
X052098Y028756D01*
X052140Y028764D01*
X052176Y028788D01*
X052363Y028975D01*
X052387Y029011D01*
X052396Y029054D01*
Y029496D01*
X052387Y029538D01*
X052363Y029574D01*
X052363Y029574D01*
X051491Y030447D01*
X051501Y030472D01*
X051510Y030542D01*
X051501Y030612D01*
X051474Y030678D01*
X051441Y030720D01*
X051460Y030770D01*
X051514D01*
Y031321D01*
X051114D01*
X051043Y031392D01*
X051062Y031438D01*
X051139D01*
Y031654D01*
X050922D01*
Y031578D01*
X050876Y031559D01*
X050761Y031674D01*
Y031922D01*
X050394D01*
Y031478D01*
X050643D01*
X050913Y031207D01*
X050893Y031157D01*
X050690D01*
Y031356D01*
X050217D01*
Y030844D01*
X050690D01*
Y030934D01*
X050963D01*
Y030770D01*
X051017D01*
X051036Y030720D01*
X051004Y030678D01*
X050976Y030612D01*
X050967Y030542D01*
X050976Y030472D01*
X050999Y030416D01*
X050957Y030388D01*
X050648Y030697D01*
X050604Y030726D01*
X050552Y030737D01*
X049884D01*
X049865Y030783D01*
X049920Y030838D01*
X049924Y030844D01*
X050060D01*
Y031356D01*
X049587D01*
Y030898D01*
X049549Y030863D01*
X049489Y030871D01*
X049444Y030866D01*
X049394Y030902D01*
Y031321D01*
X048883D01*
Y030984D01*
X048863Y030955D01*
X048855Y030912D01*
X048855Y030912D01*
Y030731D01*
X048830Y030721D01*
X048774Y030678D01*
X048731Y030622D01*
X048704Y030556D01*
X048694Y030486D01*
X048704Y030416D01*
X048731Y030350D01*
X048774Y030294D01*
X048830Y030251D01*
X048895Y030224D01*
X048966Y030214D01*
X049036Y030224D01*
X049101Y030251D01*
X049158Y030294D01*
X049201Y030350D01*
X049228Y030416D01*
X049228Y030416D01*
X049280Y030430D01*
X049297Y030408D01*
X049353Y030365D01*
X049418Y030338D01*
X049489Y030329D01*
X049559Y030338D01*
X049624Y030365D01*
X049680Y030408D01*
X049723Y030463D01*
X050495D01*
X051703Y029255D01*
X051694Y029186D01*
X051704Y029116D01*
X051731Y029050D01*
X051748Y029028D01*
X051723Y028978D01*
X051609D01*
X051579Y029009D01*
X051543Y029033D01*
X051500Y029041D01*
X051500Y029041D01*
X050179D01*
X050179Y029041D01*
X050137Y029033D01*
X050101Y029009D01*
X050101Y029009D01*
X049765Y028672D01*
X049556D01*
Y028687D01*
X049547Y028730D01*
X049523Y028766D01*
X049395Y028894D01*
X049359Y028918D01*
X049316Y028927D01*
X049316Y028927D01*
X048566D01*
X048523Y028918D01*
X048487Y028894D01*
X047920Y028327D01*
X047373D01*
X047122Y028579D01*
X047144Y028620D01*
X047148Y028623D01*
X047216Y028614D01*
X047286Y028624D01*
X047351Y028651D01*
X047408Y028694D01*
X047451Y028750D01*
X047478Y028816D01*
X047487Y028886D01*
X047478Y028956D01*
X047451Y029022D01*
X047408Y029078D01*
X047351Y029121D01*
X047286Y029148D01*
X047216Y029157D01*
X047145Y029148D01*
X047080Y029121D01*
X047024Y029078D01*
X047009Y029058D01*
X046943Y029054D01*
X046900Y029096D01*
X046856Y029126D01*
X046804Y029136D01*
X042959D01*
X042457Y029638D01*
X042413Y029668D01*
X042360Y029678D01*
X039380D01*
X039108Y029951D01*
X039063Y029980D01*
X039011Y029991D01*
X036725D01*
X035768Y030948D01*
X035801Y030986D01*
X035836Y030959D01*
X035927Y030921D01*
X036024Y030909D01*
X036122Y030921D01*
X036213Y030959D01*
X036291Y031019D01*
X036351Y031097D01*
X036389Y031188D01*
X036394Y031229D01*
X036444D01*
X036450Y031188D01*
X036487Y031097D01*
X036547Y031019D01*
X036626Y030959D01*
X036717Y030921D01*
X036814Y030909D01*
X036912Y030921D01*
X037003Y030959D01*
X037081Y031019D01*
X037141Y031097D01*
X037179Y031188D01*
X037180Y031199D01*
X037231D01*
X037232Y031188D01*
X037270Y031097D01*
X037330Y031019D01*
X037408Y030959D01*
X037499Y030921D01*
X037596Y030909D01*
X037694Y030921D01*
X037785Y030959D01*
X037863Y031019D01*
X037923Y031097D01*
X037961Y031188D01*
X037974Y031286D01*
X037961Y031383D01*
X037923Y031474D01*
X037863Y031553D01*
X037785Y031613D01*
X037694Y031650D01*
X037596Y031663D01*
X037499Y031650D01*
X037408Y031613D01*
X037330Y031553D01*
X037270Y031474D01*
X037232Y031383D01*
X037231Y031372D01*
X037180D01*
X037179Y031383D01*
X037141Y031474D01*
X037081Y031553D01*
X037003Y031613D01*
X036912Y031650D01*
X036814Y031663D01*
X036717Y031650D01*
X036626Y031613D01*
X036591Y031586D01*
X036558Y031624D01*
X037333Y032399D01*
X048059D01*
X048103Y032355D01*
X048094Y032286D01*
X048104Y032216D01*
X048131Y032150D01*
X048164Y032107D01*
X048146Y032057D01*
X047438D01*
X047396Y032048D01*
X047360Y032024D01*
X047360Y032024D01*
X046901Y031566D01*
X046855Y031585D01*
Y031654D01*
X046539D01*
X046222D01*
Y031585D01*
X046176Y031566D01*
X046061Y031681D01*
Y031922D01*
X045694D01*
Y031478D01*
X045949D01*
X046170Y031257D01*
X046150Y031211D01*
X045990D01*
Y031356D01*
X045517D01*
Y030844D01*
X045990D01*
Y030989D01*
X046263D01*
Y030770D01*
X046427D01*
Y030555D01*
X045860Y029988D01*
X045836Y029998D01*
X045766Y030007D01*
X045695Y029998D01*
X045630Y029971D01*
X045574Y029928D01*
X045531Y029872D01*
X045504Y029806D01*
X045494Y029736D01*
X045504Y029666D01*
X045531Y029600D01*
X045574Y029544D01*
X045630Y029501D01*
X045695Y029474D01*
X045766Y029464D01*
X045836Y029474D01*
X045901Y029501D01*
X045958Y029544D01*
X046001Y029600D01*
X046028Y029666D01*
X046037Y029736D01*
X046028Y029806D01*
X046018Y029831D01*
X046617Y030430D01*
X046641Y030466D01*
X046650Y030509D01*
X046650Y030509D01*
Y030770D01*
X046814D01*
Y031164D01*
X047484Y031834D01*
X047965D01*
X047982Y031784D01*
X047974Y031778D01*
X047931Y031722D01*
X047904Y031656D01*
X047894Y031586D01*
X047904Y031516D01*
X047931Y031450D01*
X047974Y031394D01*
X048030Y031351D01*
X048095Y031324D01*
X048166Y031314D01*
X048236Y031324D01*
X048301Y031351D01*
X048358Y031394D01*
X048392Y031439D01*
X048974D01*
X048974Y031439D01*
X049016Y031447D01*
X049052Y031471D01*
X049060Y031479D01*
X049394D01*
Y031560D01*
X049444Y031593D01*
X049464Y031589D01*
X049516D01*
Y031478D01*
X049883D01*
Y031922D01*
X049575D01*
Y031945D01*
X049567Y031988D01*
X049543Y032024D01*
X049507Y032048D01*
X049487Y032052D01*
X049459Y032080D01*
X049423Y032104D01*
X049381Y032112D01*
X049381Y032112D01*
X048897D01*
X048854Y032104D01*
X048818Y032080D01*
X048795Y032057D01*
X048585D01*
X048567Y032107D01*
X048601Y032150D01*
X048628Y032216D01*
X048637Y032286D01*
X048628Y032356D01*
X048601Y032422D01*
X048558Y032478D01*
X048501Y032521D01*
X048436Y032548D01*
X048366Y032557D01*
X048297Y032548D01*
X048212Y032632D01*
X048168Y032662D01*
X048116Y032673D01*
X037277D01*
X037225Y032662D01*
X037180Y032632D01*
X036176Y031628D01*
X036122Y031650D01*
X036024Y031663D01*
X035927Y031650D01*
X035836Y031613D01*
X035757Y031553D01*
X035697Y031474D01*
X035660Y031383D01*
X035654Y031343D01*
X035604D01*
X035599Y031383D01*
X035561Y031474D01*
X035501Y031553D01*
X035423Y031613D01*
X035332Y031650D01*
X035234Y031663D01*
X035137Y031650D01*
X035046Y031613D01*
X034967Y031553D01*
X034907Y031474D01*
X034870Y031383D01*
X034866Y031353D01*
X034815D01*
X034811Y031383D01*
X034774Y031474D01*
X034714Y031553D01*
X034635Y031613D01*
X034544Y031650D01*
X034447Y031663D01*
X034349Y031650D01*
X034258Y031613D01*
X034180Y031553D01*
X034120Y031474D01*
X034082Y031383D01*
X034078Y031353D01*
X034028D01*
X034024Y031383D01*
X033986Y031474D01*
X033926Y031553D01*
X033848Y031613D01*
X033757Y031650D01*
X033659Y031663D01*
X033562Y031650D01*
X033471Y031613D01*
X033393Y031553D01*
X033333Y031474D01*
X033295Y031383D01*
X033291Y031353D01*
X033240D01*
X033236Y031383D01*
X033199Y031474D01*
X033139Y031553D01*
X033061Y031613D01*
X032970Y031650D01*
X032872Y031663D01*
X032774Y031650D01*
X032683Y031613D01*
X032605Y031553D01*
X032545Y031474D01*
X032508Y031383D01*
X032506Y031372D01*
X032456D01*
X032454Y031383D01*
X032417Y031474D01*
X032357Y031553D01*
X032278Y031613D01*
X032187Y031650D01*
X032090Y031663D01*
X031992Y031650D01*
X031901Y031613D01*
X031823Y031553D01*
X031763Y031474D01*
X031725Y031383D01*
X031720Y031343D01*
X031670D01*
X031664Y031383D01*
X031627Y031474D01*
X031567Y031553D01*
X031488Y031613D01*
X031397Y031650D01*
X031300Y031663D01*
X031202Y031650D01*
X031111Y031613D01*
X031033Y031553D01*
X030973Y031474D01*
X030935Y031383D01*
X030930Y031343D01*
X030880D01*
X030874Y031383D01*
X030837Y031474D01*
X030777Y031553D01*
X030698Y031613D01*
X030607Y031650D01*
X030510Y031663D01*
X030412Y031650D01*
X030321Y031613D01*
X030243Y031553D01*
X030183Y031474D01*
X030145Y031383D01*
X030141Y031353D01*
X030091D01*
X030087Y031383D01*
X030049Y031474D01*
X029989Y031553D01*
X029911Y031613D01*
X029820Y031650D01*
X029722Y031663D01*
X029625Y031650D01*
X029534Y031613D01*
X029456Y031553D01*
X029396Y031474D01*
X029358Y031383D01*
X029354Y031353D01*
X029303D01*
X029299Y031383D01*
X029262Y031474D01*
X029202Y031553D01*
X029124Y031613D01*
X029033Y031650D01*
X028935Y031663D01*
X028837Y031650D01*
X028746Y031613D01*
X028668Y031553D01*
X028608Y031474D01*
X028571Y031383D01*
X028558Y031286D01*
X028571Y031188D01*
X028608Y031097D01*
X028668Y031019D01*
X028746Y030959D01*
X028837Y030921D01*
X028935Y030909D01*
X029033Y030921D01*
X029085Y030943D01*
X029431Y030597D01*
X029426Y030531D01*
X029395Y030507D01*
X029345Y030442D01*
X029314Y030367D01*
X029304Y030293D01*
X029283Y030279D01*
X029255Y030270D01*
X029231Y030291D01*
X029237Y030336D01*
X029228Y030406D01*
X029201Y030472D01*
X029158Y030528D01*
X029101Y030571D01*
X029036Y030598D01*
X028966Y030607D01*
X028895Y030598D01*
X028830Y030571D01*
X028774Y030528D01*
X028731Y030472D01*
X028704Y030406D01*
X028700Y030378D01*
X028647Y030360D01*
X028543Y030464D01*
X028507Y030489D01*
X028464Y030497D01*
X028464Y030497D01*
X028312D01*
X028302Y030522D01*
X028259Y030578D01*
X028203Y030621D01*
X028137Y030648D01*
X028067Y030657D01*
X027997Y030648D01*
X027931Y030621D01*
X027875Y030578D01*
X027832Y030522D01*
X027820Y030493D01*
X027511D01*
Y030686D01*
X027116D01*
Y030786D01*
D01*
Y030686D01*
X026720D01*
Y030493D01*
X026386D01*
X026386Y030493D01*
X026344Y030484D01*
X026317Y030466D01*
X026161D01*
Y030686D01*
X025766D01*
X025370D01*
Y030391D01*
X025548D01*
X025567Y030344D01*
X025145Y029922D01*
X025099Y029941D01*
Y031642D01*
X025388Y031931D01*
X025431Y031903D01*
X025420Y031878D01*
X025408Y031786D01*
X025420Y031693D01*
X025456Y031607D01*
X025513Y031533D01*
X025587Y031476D01*
X025673Y031441D01*
X025766Y031428D01*
X025858Y031441D01*
X025944Y031476D01*
X026018Y031533D01*
X026075Y031607D01*
X026111Y031693D01*
X026123Y031786D01*
X026111Y031878D01*
X026075Y031965D01*
X026018Y032039D01*
X025944Y032095D01*
X025858Y032131D01*
X025766Y032143D01*
X025673Y032131D01*
X025649Y032121D01*
X025621Y032163D01*
X026346Y032889D01*
X056322D01*
X056526Y032685D01*
D02*
G37*
G36*
X067008Y028585D02*
Y025788D01*
X066963Y025766D01*
X066956Y025771D01*
X066900Y025794D01*
Y025500D01*
X066700D01*
Y025794D01*
X066644Y025771D01*
X066579Y025721D01*
X066529Y025656D01*
X066498Y025581D01*
X066492Y025536D01*
X066439Y025518D01*
X066070Y025888D01*
X066071Y025900D01*
X066062Y025970D01*
X066035Y026036D01*
X065992Y026092D01*
X065936Y026135D01*
X065870Y026162D01*
X065800Y026171D01*
X065743Y026164D01*
X065629Y026278D01*
Y029898D01*
X065676Y029917D01*
X067008Y028585D01*
D02*
G37*
G36*
X055936Y019900D02*
X055936Y019329D01*
X055419Y018811D01*
X054480D01*
X054437Y018803D01*
X054401Y018779D01*
X053223Y017601D01*
X053177Y017620D01*
Y017713D01*
X053000D01*
Y017476D01*
Y017216D01*
X053010Y017192D01*
X052940Y017121D01*
X052664D01*
Y017036D01*
X052435D01*
X052400Y017086D01*
X052403Y017100D01*
X052394Y017143D01*
X052370Y017179D01*
X052354Y017189D01*
X052335Y017236D01*
X052292Y017292D01*
X052273Y017306D01*
Y017357D01*
X052302Y017379D01*
X052352Y017444D01*
X052375Y017500D01*
X052081D01*
Y017600D01*
X051981D01*
Y017894D01*
X051925Y017871D01*
X051861Y017822D01*
X051843Y017825D01*
X051811Y017835D01*
Y018154D01*
X052287Y018630D01*
X052882D01*
X052882Y018630D01*
X052924Y018638D01*
X052953Y018657D01*
X053003Y018643D01*
Y018527D01*
X052928Y018452D01*
X052903Y018462D01*
X052833Y018471D01*
X052763Y018462D01*
X052697Y018435D01*
X052641Y018392D01*
X052598Y018336D01*
X052571Y018270D01*
X052562Y018200D01*
X052571Y018130D01*
X052598Y018064D01*
X052641Y018008D01*
X052697Y017965D01*
X052763Y017938D01*
X052833Y017929D01*
X052903Y017938D01*
X052969Y017965D01*
X053025Y018008D01*
X053068Y018064D01*
X053095Y018130D01*
X053104Y018200D01*
X053095Y018270D01*
X053085Y018295D01*
X053187Y018397D01*
X053207Y018402D01*
X053249Y018402D01*
X053251Y018400D01*
X053297Y018365D01*
X053363Y018338D01*
X053433Y018329D01*
X053503Y018338D01*
X053569Y018365D01*
X053625Y018408D01*
X053668Y018464D01*
X053695Y018530D01*
X053704Y018600D01*
X053695Y018670D01*
X053668Y018736D01*
X053625Y018792D01*
X053607Y018806D01*
X053604Y018856D01*
X053669Y018921D01*
X054011D01*
X054011Y018921D01*
X054054Y018929D01*
X054090Y018953D01*
X054247Y019110D01*
X054247Y019110D01*
X054257Y019125D01*
X054265Y019130D01*
X054312Y019137D01*
X054319Y019136D01*
X054373Y019094D01*
X054450Y019063D01*
Y019150D01*
X054300Y019300D01*
X054300Y019500D01*
X054700Y019900D01*
X055400D01*
Y019800D01*
X055594D01*
X055571Y019856D01*
X055556Y019876D01*
X055578Y019921D01*
X055922D01*
X055936Y019900D01*
D02*
G37*
G36*
X051584Y015163D02*
X051579Y015156D01*
X051556Y015100D01*
X051850D01*
Y014900D01*
X051556D01*
X051579Y014844D01*
X051629Y014779D01*
X051684Y014737D01*
X051694Y014718D01*
X051695Y014675D01*
X051665Y014636D01*
X051638Y014570D01*
X051629Y014500D01*
X051638Y014430D01*
X051665Y014364D01*
X051708Y014308D01*
X051764Y014265D01*
X051789Y014255D01*
Y012046D01*
X051454Y011711D01*
X049946D01*
X048996Y012661D01*
X049017Y012711D01*
X049262D01*
X049269Y012700D01*
X049500D01*
Y012915D01*
X049500Y012915D01*
X049477Y012930D01*
Y013187D01*
X049300D01*
Y012949D01*
X049200D01*
Y012849D01*
X048923D01*
Y012758D01*
X048900Y012711D01*
X048900Y012711D01*
X048845Y012711D01*
X048835Y012736D01*
X048792Y012792D01*
X048736Y012835D01*
X048670Y012862D01*
X048600Y012871D01*
X048530Y012862D01*
X048477Y012840D01*
X048427Y012863D01*
Y013495D01*
X048521Y013590D01*
X048874D01*
Y014052D01*
X048920Y014071D01*
X048964Y014028D01*
Y013752D01*
X049089D01*
Y013697D01*
X048964D01*
Y013303D01*
X049436D01*
Y013697D01*
X049311D01*
Y013752D01*
X049436D01*
Y014146D01*
X049160D01*
X049053Y014253D01*
X049074Y014303D01*
X049436D01*
X049436Y014303D01*
Y014303D01*
X049471Y014272D01*
X049937Y013805D01*
Y013803D01*
X049936Y013800D01*
X049936Y012729D01*
X049886Y012719D01*
X049871Y012756D01*
X049821Y012821D01*
X049756Y012871D01*
X049700Y012894D01*
Y012600D01*
Y012306D01*
X049756Y012329D01*
X049821Y012379D01*
X049871Y012444D01*
X049886Y012481D01*
X049936Y012471D01*
Y012100D01*
X049955Y012055D01*
X050155Y011855D01*
X050200Y011836D01*
X051200D01*
X051245Y011855D01*
X051445Y012055D01*
X051464Y012100D01*
X051464Y013800D01*
X051463Y013803D01*
Y014055D01*
Y014700D01*
Y015208D01*
X051562D01*
X051584Y015163D01*
D02*
G37*
G36*
X025331Y029500D02*
X025374Y029444D01*
X025424Y029406D01*
X025460Y029372D01*
Y028900D01*
X025972D01*
Y028929D01*
X026018Y028948D01*
X026195Y028771D01*
X026231Y028747D01*
X026260Y028741D01*
Y028339D01*
X026222Y028306D01*
X026216Y028307D01*
X026145Y028298D01*
X026080Y028271D01*
X026063Y028257D01*
X026013Y028282D01*
Y028406D01*
X025419D01*
Y028301D01*
X025395Y028298D01*
X025330Y028271D01*
X025308Y028254D01*
X025258Y028278D01*
Y029545D01*
X025308Y029555D01*
X025331Y029500D01*
D02*
G37*
G36*
X032508Y031188D02*
X032545Y031097D01*
X032605Y031019D01*
X032683Y030959D01*
X032774Y030921D01*
X032872Y030909D01*
X032970Y030921D01*
X033022Y030943D01*
X034150Y029815D01*
Y028920D01*
X034095Y028878D01*
X034052Y028822D01*
X034025Y028756D01*
X034015Y028686D01*
X034025Y028616D01*
X034052Y028550D01*
X034092Y028498D01*
X034089Y028483D01*
X034070Y028450D01*
X034016Y028457D01*
X033945Y028448D01*
X033880Y028421D01*
X033824Y028378D01*
X033781Y028322D01*
X033754Y028256D01*
X033744Y028186D01*
X033754Y028116D01*
X033781Y028050D01*
X033824Y027994D01*
X033839Y027982D01*
X033822Y027932D01*
X033801D01*
X033801Y027932D01*
X033758Y027924D01*
X033722Y027899D01*
X033722Y027899D01*
X033510Y027688D01*
X033486Y027698D01*
X033416Y027707D01*
X033345Y027698D01*
X033280Y027671D01*
X033224Y027628D01*
X033181Y027572D01*
X033154Y027506D01*
X033144Y027436D01*
X033154Y027366D01*
X033181Y027300D01*
X033224Y027244D01*
X033280Y027201D01*
X033345Y027174D01*
X033416Y027164D01*
X033486Y027174D01*
X033551Y027201D01*
X033608Y027244D01*
X033651Y027300D01*
X033678Y027366D01*
X033687Y027436D01*
X033678Y027506D01*
X033668Y027531D01*
X033847Y027710D01*
X034660D01*
Y027585D01*
X035116D01*
X035133Y027535D01*
X035124Y027528D01*
X035081Y027472D01*
X035054Y027406D01*
X035044Y027336D01*
X035054Y027266D01*
X035081Y027200D01*
X035124Y027144D01*
X035180Y027101D01*
X035245Y027074D01*
X035316Y027064D01*
X035385Y027074D01*
X036122Y026336D01*
X036167Y026306D01*
X036219Y026296D01*
X043524D01*
X043540Y026299D01*
X050459D01*
X051553Y025205D01*
X051544Y025136D01*
X051554Y025066D01*
X051581Y025000D01*
X051624Y024944D01*
X051680Y024901D01*
X051745Y024874D01*
X051816Y024864D01*
X051886Y024874D01*
X051951Y024901D01*
X051974Y024918D01*
X052024Y024893D01*
Y024109D01*
X051537Y023623D01*
X051491Y023642D01*
Y024007D01*
X051091D01*
X051020Y024077D01*
X051039Y024124D01*
X051116D01*
Y024340D01*
X050899D01*
Y024264D01*
X050853Y024245D01*
X050738Y024360D01*
Y024608D01*
X050372D01*
Y024497D01*
X050164D01*
X049790Y024872D01*
X049754Y024896D01*
X049711Y024904D01*
X049711Y024904D01*
X048055D01*
X047918Y025041D01*
X047928Y025066D01*
X047937Y025136D01*
X047928Y025206D01*
X047901Y025272D01*
X047858Y025328D01*
X047801Y025371D01*
X047736Y025398D01*
X047666Y025407D01*
X047595Y025398D01*
X047530Y025371D01*
X047474Y025328D01*
X047431Y025272D01*
X047404Y025206D01*
X047394Y025136D01*
X047404Y025066D01*
X047431Y025000D01*
X047474Y024944D01*
X047530Y024901D01*
X047595Y024874D01*
X047666Y024864D01*
X047736Y024874D01*
X047760Y024884D01*
X047851Y024793D01*
X046787Y023729D01*
X046741Y023748D01*
Y024007D01*
X046347D01*
X046277Y024077D01*
X046296Y024124D01*
X046366D01*
Y024340D01*
X046149D01*
Y024271D01*
X046103Y024251D01*
X045988Y024367D01*
Y024608D01*
X045622D01*
Y024497D01*
X045414D01*
X044997Y024914D01*
X044961Y024939D01*
X044918Y024947D01*
X044918Y024947D01*
X043320D01*
X043282Y024997D01*
X043287Y025036D01*
X043278Y025106D01*
X043251Y025172D01*
X043208Y025228D01*
X043151Y025271D01*
X043086Y025298D01*
X043016Y025307D01*
X042945Y025298D01*
X042880Y025271D01*
X042824Y025228D01*
X042781Y025172D01*
X042754Y025106D01*
X042744Y025036D01*
X042754Y024966D01*
X042781Y024900D01*
X042824Y024844D01*
X042880Y024801D01*
X042927Y024781D01*
X042944Y024728D01*
X042037Y023821D01*
X041991Y023840D01*
Y023907D01*
X041597D01*
X041527Y023977D01*
X041546Y024024D01*
X041616D01*
Y024240D01*
X041399D01*
Y024171D01*
X041353Y024151D01*
X041238Y024267D01*
Y024508D01*
X040872D01*
Y024397D01*
X040692D01*
X040325Y024764D01*
X040289Y024789D01*
X040246Y024797D01*
X040246Y024797D01*
X039063D01*
X038876Y024984D01*
X038853Y024999D01*
X038868Y025049D01*
X042031D01*
X042074Y024994D01*
X042130Y024951D01*
X042195Y024924D01*
X042266Y024914D01*
X042336Y024924D01*
X042401Y024951D01*
X042458Y024994D01*
X042501Y025050D01*
X042528Y025116D01*
X042537Y025186D01*
X042528Y025256D01*
X042501Y025322D01*
X042458Y025378D01*
X042401Y025421D01*
X042336Y025448D01*
X042266Y025457D01*
X042195Y025448D01*
X042130Y025421D01*
X042074Y025378D01*
X042031Y025323D01*
X038009D01*
X037824Y025507D01*
X037843Y025553D01*
X046505D01*
X046753Y025305D01*
X046744Y025236D01*
X046754Y025166D01*
X046781Y025100D01*
X046824Y025044D01*
X046880Y025001D01*
X046945Y024974D01*
X047016Y024964D01*
X047086Y024974D01*
X047151Y025001D01*
X047208Y025044D01*
X047251Y025100D01*
X047278Y025166D01*
X047287Y025236D01*
X047278Y025306D01*
X047251Y025372D01*
X047208Y025428D01*
X047151Y025471D01*
X047086Y025498D01*
X047016Y025507D01*
X046947Y025498D01*
X046658Y025787D01*
X046614Y025816D01*
X046562Y025827D01*
X032826D01*
X032226Y026427D01*
Y030938D01*
X032278Y030959D01*
X032357Y031019D01*
X032417Y031097D01*
X032454Y031188D01*
X032456Y031199D01*
X032506D01*
X032508Y031188D01*
D02*
G37*
G36*
X060548Y021696D02*
Y019304D01*
X057830Y016586D01*
X057806Y016596D01*
X057700Y016610D01*
X057594Y016596D01*
X057495Y016555D01*
X057458Y016527D01*
X057210D01*
Y016650D01*
X056541D01*
Y016586D01*
X056491Y016553D01*
X056470Y016562D01*
X056400Y016571D01*
X056330Y016562D01*
X056264Y016534D01*
X056235Y016512D01*
X056128D01*
Y016387D01*
X056036D01*
Y016472D01*
X055564D01*
Y016079D01*
X056036D01*
Y016164D01*
X056128D01*
Y016062D01*
X056128Y016039D01*
X056128D01*
Y016012D01*
X056128D01*
Y015931D01*
X056108Y015916D01*
X056086Y015888D01*
X056036Y015905D01*
Y015921D01*
X055564D01*
Y015623D01*
X055526Y015590D01*
X055508Y015593D01*
X055437Y015583D01*
X055372Y015556D01*
X055316Y015513D01*
X055277Y015463D01*
X055258Y015451D01*
X055223Y015442D01*
X055205Y015455D01*
X055106Y015496D01*
X055000Y015510D01*
X054894Y015496D01*
X054795Y015455D01*
X054710Y015390D01*
X054645Y015305D01*
X054604Y015206D01*
X054590Y015100D01*
X054604Y014994D01*
X054645Y014895D01*
X054710Y014810D01*
X054748Y014780D01*
Y014670D01*
X054698Y014653D01*
X054692Y014661D01*
X054636Y014704D01*
X054570Y014731D01*
X054500Y014740D01*
X054430Y014731D01*
X054364Y014704D01*
X054308Y014661D01*
X054280Y014625D01*
X054274Y014622D01*
X054226D01*
X054220Y014625D01*
X054192Y014661D01*
X054136Y014704D01*
X054070Y014731D01*
X054000Y014740D01*
X053930Y014731D01*
X053864Y014704D01*
X053808Y014661D01*
X053765Y014605D01*
X053753Y014576D01*
X053706Y014581D01*
X053702Y014582D01*
X053671Y014656D01*
X053621Y014721D01*
X053556Y014771D01*
X053500Y014794D01*
Y014500D01*
Y014206D01*
X053556Y014229D01*
X053621Y014279D01*
X053671Y014344D01*
X053678Y014360D01*
X053728Y014350D01*
Y014064D01*
X053728D01*
X053728Y014036D01*
X053728D01*
Y013564D01*
X054121D01*
X054141Y013522D01*
Y013426D01*
X054171D01*
X054190Y013380D01*
X052142Y011331D01*
X051904D01*
X051885Y011378D01*
X052457Y011950D01*
X052457Y011950D01*
X052481Y011986D01*
X052489Y012028D01*
X052489Y012028D01*
Y014132D01*
X052805Y014448D01*
X052830Y014438D01*
X052900Y014429D01*
X052970Y014438D01*
X053036Y014465D01*
X053041Y014469D01*
X053094Y014447D01*
X053098Y014419D01*
X053129Y014344D01*
X053179Y014279D01*
X053244Y014229D01*
X053300Y014206D01*
Y014500D01*
Y014794D01*
X053244Y014771D01*
X053215Y014749D01*
X053162Y014770D01*
X053135Y014836D01*
X053092Y014892D01*
X053036Y014935D01*
X052970Y014962D01*
X052900Y014971D01*
X052830Y014962D01*
X052764Y014935D01*
X052708Y014892D01*
X052680Y014856D01*
X052674Y014853D01*
X052626D01*
X052620Y014856D01*
X052592Y014892D01*
X052536Y014935D01*
X052470Y014962D01*
X052440Y014966D01*
X052433Y015015D01*
X052433Y015017D01*
X052489Y015060D01*
X052532Y015116D01*
X052559Y015182D01*
X052568Y015252D01*
X052559Y015322D01*
X052532Y015388D01*
X052489Y015444D01*
X052433Y015487D01*
X052367Y015514D01*
X052297Y015523D01*
X052227Y015514D01*
X052161Y015487D01*
X052105Y015444D01*
X052094Y015430D01*
X051463D01*
Y016215D01*
X051509Y016234D01*
X051548Y016195D01*
X051538Y016170D01*
X051529Y016100D01*
X051538Y016030D01*
X051565Y015964D01*
X051608Y015908D01*
X051664Y015865D01*
X051730Y015838D01*
X051800Y015829D01*
X051870Y015838D01*
X051936Y015865D01*
X051992Y015908D01*
X052035Y015964D01*
X052062Y016030D01*
X052071Y016100D01*
X052062Y016170D01*
X052035Y016236D01*
X051992Y016292D01*
X051991Y016292D01*
X051999Y016350D01*
X052036Y016365D01*
X052092Y016408D01*
X052135Y016464D01*
X052162Y016530D01*
X052171Y016600D01*
X052162Y016670D01*
X052135Y016736D01*
X052101Y016781D01*
X052113Y016820D01*
X052122Y016832D01*
X052170Y016838D01*
X052195Y016848D01*
X052197Y016846D01*
X052197Y016846D01*
X052233Y016822D01*
X052276Y016813D01*
X052276Y016813D01*
X052664D01*
Y016728D01*
X053136D01*
Y017003D01*
X053303Y017171D01*
X053326Y017161D01*
X053331Y017105D01*
X053310Y017090D01*
X053271Y017033D01*
X053467D01*
Y016833D01*
X053271D01*
X053310Y016776D01*
X053353Y016747D01*
Y016686D01*
X053310Y016657D01*
X053271Y016600D01*
X053467D01*
Y016400D01*
X053271D01*
X053310Y016343D01*
X053353Y016314D01*
Y016253D01*
X053310Y016224D01*
X053271Y016167D01*
X053467D01*
Y015967D01*
X053271D01*
X053310Y015910D01*
X053353Y015880D01*
Y015820D01*
X053310Y015791D01*
X053271Y015734D01*
X053467D01*
Y015634D01*
X053567D01*
Y015438D01*
X053624Y015477D01*
X053653Y015520D01*
X053714D01*
X053743Y015477D01*
X053800Y015438D01*
Y015634D01*
X054000D01*
Y015438D01*
X054057Y015477D01*
X054086Y015520D01*
X054147D01*
X054176Y015477D01*
X054233Y015438D01*
Y015634D01*
X054333D01*
Y015734D01*
X054529D01*
X054490Y015791D01*
X054447Y015820D01*
Y015880D01*
X054490Y015910D01*
X054529Y015967D01*
X054333D01*
Y016167D01*
X054529D01*
X054490Y016224D01*
X054447Y016253D01*
Y016314D01*
X054490Y016343D01*
X054529Y016400D01*
X054333D01*
Y016600D01*
X054529D01*
X054490Y016657D01*
X054447Y016686D01*
Y016747D01*
X054490Y016776D01*
X054529Y016833D01*
X054333D01*
Y017033D01*
X054529D01*
X054490Y017090D01*
X054447Y017120D01*
Y017180D01*
X054490Y017209D01*
X054529Y017266D01*
X054333D01*
Y017366D01*
X054233D01*
Y017562D01*
X054176Y017523D01*
X054147Y017480D01*
X054086D01*
X054057Y017523D01*
X054000Y017562D01*
Y017366D01*
X053800D01*
Y017562D01*
X053743Y017523D01*
X053714Y017480D01*
X053653D01*
X053624Y017523D01*
X053568Y017561D01*
X053555Y017618D01*
X054526Y018589D01*
X055465D01*
X055465Y018589D01*
X055507Y018597D01*
X055543Y018621D01*
X055745Y018823D01*
X055776Y018808D01*
X055790Y018797D01*
X055804Y018694D01*
X055845Y018595D01*
X055910Y018510D01*
X055948Y018480D01*
Y018020D01*
X055910Y017990D01*
X055845Y017905D01*
X055804Y017806D01*
X055790Y017700D01*
X055802Y017603D01*
X055783Y017579D01*
X055762Y017563D01*
X055700Y017571D01*
X055630Y017562D01*
X055564Y017535D01*
X055508Y017492D01*
X055465Y017436D01*
X055428D01*
Y016964D01*
X055821D01*
Y017059D01*
X055836Y017065D01*
X055892Y017108D01*
X055929Y017156D01*
X055961Y017152D01*
X055979Y017143D01*
Y016964D01*
X056372D01*
Y017089D01*
X056528D01*
Y016964D01*
X056921D01*
Y017436D01*
X056573D01*
X056549Y017486D01*
X056555Y017495D01*
X056596Y017594D01*
X056610Y017700D01*
X056596Y017806D01*
X056555Y017905D01*
X056490Y017990D01*
X056452Y018020D01*
Y018480D01*
X056490Y018510D01*
X056555Y018595D01*
X056596Y018694D01*
X056610Y018800D01*
X056596Y018906D01*
X056563Y018986D01*
X056590Y019036D01*
X059900Y019036D01*
X059945Y019055D01*
X060245Y019355D01*
X060264Y019400D01*
Y021700D01*
X060245Y021745D01*
X059988Y022002D01*
X060007Y022048D01*
X060196D01*
X060548Y021696D01*
D02*
G37*
G36*
X024880Y021214D02*
X024880Y021202D01*
X024830Y021137D01*
X024799Y021062D01*
X024788Y020982D01*
X024799Y020901D01*
X024830Y020826D01*
X024880Y020761D01*
X024881Y020746D01*
X024662Y020527D01*
X024638Y020491D01*
X024630Y020449D01*
X024630Y020449D01*
Y015859D01*
X024630Y015859D01*
X024638Y015817D01*
X024662Y015780D01*
X025480Y014962D01*
X025480Y014962D01*
X025517Y014938D01*
X025559Y014930D01*
X034758D01*
X034768Y014880D01*
X034744Y014870D01*
X034680Y014820D01*
X034630Y014756D01*
X034599Y014681D01*
X034588Y014600D01*
X034599Y014519D01*
X034630Y014444D01*
X034680Y014380D01*
X034744Y014330D01*
X034763Y014322D01*
X034764Y014272D01*
X034764D01*
Y013879D01*
X035236D01*
Y013964D01*
X035564D01*
Y013879D01*
X035932D01*
X035951Y013833D01*
X035840Y013721D01*
X035564D01*
Y013328D01*
X036036D01*
Y013603D01*
X036422Y013989D01*
X036746D01*
Y013746D01*
X037454D01*
Y014454D01*
X036746D01*
Y014211D01*
X036376D01*
X036333Y014203D01*
X036297Y014179D01*
X036297Y014179D01*
X036082Y013964D01*
X036036Y013983D01*
Y014272D01*
X035564D01*
Y014187D01*
X035236D01*
Y014272D01*
X035111D01*
Y014373D01*
X035120Y014380D01*
X035170Y014444D01*
X035201Y014519D01*
X035212Y014600D01*
X035201Y014681D01*
X035170Y014756D01*
X035120Y014820D01*
X035056Y014870D01*
X035032Y014880D01*
X035042Y014930D01*
X038441D01*
X038441Y014930D01*
X038484Y014938D01*
X038520Y014962D01*
X038948Y015391D01*
X039010Y015365D01*
X039100Y015353D01*
X039190Y015365D01*
X039274Y015399D01*
X039345Y015455D01*
X039401Y015526D01*
X039435Y015610D01*
X039447Y015700D01*
X039435Y015790D01*
X039401Y015874D01*
X039441Y015902D01*
X039689Y015654D01*
Y013932D01*
X039643Y013913D01*
X039580Y013976D01*
X039596Y014100D01*
X039579Y014228D01*
X039530Y014348D01*
X039451Y014451D01*
X039348Y014530D01*
X039228Y014579D01*
X039100Y014596D01*
X038972Y014579D01*
X038852Y014530D01*
X038749Y014451D01*
X038670Y014348D01*
X038621Y014228D01*
X038604Y014100D01*
X038621Y013972D01*
X038670Y013852D01*
X038749Y013749D01*
X038852Y013670D01*
X038972Y013621D01*
X039100Y013604D01*
X039224Y013620D01*
X039348Y013496D01*
Y012913D01*
X039303Y012890D01*
X039279Y012910D01*
X039193Y012945D01*
X039100Y012957D01*
X039007Y012945D01*
X038921Y012910D01*
X038847Y012853D01*
X038790Y012779D01*
X038755Y012693D01*
X038743Y012600D01*
X038755Y012507D01*
X038790Y012421D01*
X038847Y012347D01*
X038921Y012290D01*
X039007Y012255D01*
X039100Y012243D01*
X039193Y012255D01*
X039279Y012290D01*
X039303Y012309D01*
X039348Y012287D01*
Y011800D01*
X039367Y011704D01*
X039422Y011622D01*
X040022Y011022D01*
X040064Y010994D01*
X040049Y010944D01*
X025501D01*
X024344Y012101D01*
Y021685D01*
X024390Y021704D01*
X024880Y021214D01*
D02*
G37*
G36*
X052800Y019300D02*
X051900D01*
X051400Y018800D01*
Y018500D01*
X050000D01*
Y019300D01*
X050800Y020100D01*
X052800D01*
Y019300D01*
D02*
G37*
G36*
X042449Y028237D02*
X042449Y028237D01*
X042485Y028213D01*
X042527Y028205D01*
X042527Y028205D01*
X043205D01*
Y027181D01*
X043180Y027171D01*
X043124Y027128D01*
X043081Y027072D01*
X043054Y027006D01*
X043044Y026936D01*
X043054Y026866D01*
X043081Y026800D01*
X043098Y026778D01*
X043073Y026728D01*
X037681D01*
X037127Y027282D01*
Y027506D01*
X037291D01*
Y028057D01*
X036897D01*
X036827Y028127D01*
X036846Y028174D01*
X036916D01*
Y028490D01*
X037116D01*
Y028174D01*
X037332D01*
Y028538D01*
X037378Y028557D01*
X037649Y028287D01*
X037685Y028263D01*
X037727Y028255D01*
X038505D01*
Y027381D01*
X038480Y027371D01*
X038424Y027328D01*
X038381Y027272D01*
X038354Y027206D01*
X038344Y027136D01*
X038354Y027066D01*
X038381Y027000D01*
X038424Y026944D01*
X038480Y026901D01*
X038545Y026874D01*
X038616Y026864D01*
X038686Y026874D01*
X038751Y026901D01*
X038808Y026944D01*
X038851Y027000D01*
X038878Y027066D01*
X038887Y027136D01*
X038878Y027206D01*
X038851Y027272D01*
X038808Y027328D01*
X038751Y027371D01*
X038727Y027381D01*
Y028099D01*
X038777Y028109D01*
X038781Y028100D01*
X038824Y028044D01*
X038880Y028001D01*
X038945Y027974D01*
X039016Y027964D01*
X039086Y027974D01*
X039151Y028001D01*
X039208Y028044D01*
X039251Y028100D01*
X039261Y028125D01*
X039451D01*
X039451Y028125D01*
X039493Y028133D01*
X039529Y028157D01*
X039587Y028215D01*
X039885D01*
X039891Y028185D01*
X039915Y028149D01*
X039979Y028085D01*
X039979Y028085D01*
X040015Y028061D01*
X040058Y028052D01*
X040115D01*
Y027601D01*
X040074Y027556D01*
X040066Y027557D01*
X039995Y027548D01*
X039930Y027521D01*
X039874Y027478D01*
X039831Y027422D01*
X039827Y027412D01*
X039777Y027422D01*
Y027585D01*
X039922D01*
Y028057D01*
X039410D01*
Y027585D01*
X039555D01*
Y027406D01*
X039495Y027398D01*
X039430Y027371D01*
X039374Y027328D01*
X039331Y027272D01*
X039304Y027206D01*
X039294Y027136D01*
X039304Y027066D01*
X039331Y027000D01*
X039374Y026944D01*
X039430Y026901D01*
X039495Y026874D01*
X039566Y026864D01*
X039636Y026874D01*
X039701Y026901D01*
X039758Y026944D01*
X039801Y027000D01*
X039828Y027066D01*
X039829Y027071D01*
X039851Y027082D01*
X039881Y027088D01*
X039930Y027051D01*
X039995Y027024D01*
X040066Y027014D01*
X040136Y027024D01*
X040201Y027051D01*
X040258Y027094D01*
X040301Y027150D01*
X040328Y027216D01*
X040337Y027286D01*
X040328Y027355D01*
X040447Y027474D01*
X040477Y027519D01*
X040487Y027571D01*
Y027580D01*
X040587D01*
Y028002D01*
X040637Y028022D01*
X040744Y027915D01*
Y027580D01*
X041217D01*
Y027725D01*
X041490D01*
Y027506D01*
X042041D01*
Y028057D01*
X041647D01*
X041577Y028127D01*
X041596Y028174D01*
X041666D01*
Y028490D01*
X041866D01*
Y028174D01*
X042082D01*
Y028538D01*
X042128Y028557D01*
X042449Y028237D01*
D02*
G37*
G36*
X060800Y025100D02*
X060500Y024800D01*
Y023100D01*
X059600D01*
X058800Y023900D01*
X058800Y024300D01*
X059400Y024300D01*
X059400D01*
Y024383D01*
Y024400D01*
X059500Y024400D01*
X060200Y024400D01*
X060300Y024500D01*
Y025100D01*
X059700Y025100D01*
X059400Y024800D01*
X059400Y024383D01*
X059400Y024300D01*
X058800D01*
X058800Y025000D01*
X059600Y025800D01*
X060800D01*
Y025100D01*
D02*
G37*
G36*
X056800Y028300D02*
X057300D01*
Y027000D01*
X054800D01*
Y028800D01*
X056300D01*
X056800Y028300D01*
D02*
G37*
G36*
X051400Y012100D02*
X051200Y011900D01*
X050200D01*
X050000Y012100D01*
X050000Y013800D01*
X051400D01*
X051400Y012100D01*
D02*
G37*
G36*
X058300Y020334D02*
X056700D01*
Y020500D01*
X056400Y020800D01*
X055900D01*
Y022400D01*
X058300D01*
Y020334D01*
D02*
G37*
G36*
X025781Y020736D02*
X025781Y020736D01*
X025818Y020712D01*
X025860Y020704D01*
X025860Y020704D01*
X026944D01*
Y020579D01*
X027456D01*
Y020704D01*
X027644D01*
Y020579D01*
X028156D01*
Y020704D01*
X028344D01*
Y020579D01*
X028856D01*
Y020704D01*
X029044D01*
Y020579D01*
X029556D01*
Y020622D01*
X029602Y020641D01*
X030095Y020147D01*
X030091Y020133D01*
X030069Y020103D01*
X030000Y020112D01*
X029919Y020101D01*
X029844Y020070D01*
X029780Y020020D01*
X029730Y019956D01*
X029699Y019881D01*
X029688Y019800D01*
X029693Y019761D01*
X029650Y019711D01*
X026288D01*
X026270Y019756D01*
X026220Y019820D01*
X026156Y019870D01*
X026081Y019901D01*
X026000Y019912D01*
X025919Y019901D01*
X025844Y019870D01*
X025780Y019820D01*
X025730Y019756D01*
X025699Y019681D01*
X025688Y019600D01*
X025699Y019519D01*
X025730Y019444D01*
X025780Y019380D01*
X025844Y019330D01*
X025919Y019299D01*
X026000Y019288D01*
X026081Y019299D01*
X026156Y019330D01*
X026220Y019380D01*
X026270Y019444D01*
X026288Y019489D01*
X029800D01*
X029800Y019489D01*
X029843Y019497D01*
X029873Y019518D01*
X029919Y019499D01*
X030000Y019488D01*
X030081Y019499D01*
X030156Y019530D01*
X030220Y019580D01*
X030270Y019644D01*
X030301Y019719D01*
X030312Y019800D01*
X030303Y019869D01*
X030333Y019891D01*
X030347Y019895D01*
X031821Y018421D01*
X031821Y018421D01*
X031857Y018397D01*
X031900Y018389D01*
X036530D01*
X037764Y017155D01*
Y016879D01*
X038040D01*
X038151Y016767D01*
X038132Y016721D01*
X037764D01*
Y016328D01*
X038040D01*
X038746Y015621D01*
X038746Y015621D01*
X038766Y015608D01*
X038791Y015548D01*
X038395Y015152D01*
X036775D01*
X036756Y015198D01*
X036948Y015391D01*
X037010Y015365D01*
X037100Y015353D01*
X037190Y015365D01*
X037274Y015399D01*
X037345Y015455D01*
X037401Y015526D01*
X037435Y015610D01*
X037447Y015700D01*
X037435Y015790D01*
X037401Y015874D01*
X037345Y015945D01*
X037274Y016001D01*
X037190Y016035D01*
X037100Y016047D01*
X037010Y016035D01*
X036926Y016001D01*
X036855Y015945D01*
X036799Y015874D01*
X036765Y015790D01*
X036753Y015700D01*
X036765Y015610D01*
X036791Y015548D01*
X036554Y015311D01*
X036166D01*
X036162Y015361D01*
X036190Y015365D01*
X036274Y015399D01*
X036345Y015455D01*
X036401Y015526D01*
X036435Y015610D01*
X036447Y015700D01*
X036435Y015790D01*
X036401Y015874D01*
X036345Y015945D01*
X036274Y016001D01*
X036190Y016035D01*
X036100Y016047D01*
X036010Y016035D01*
X035926Y016001D01*
X035855Y015945D01*
X035799Y015874D01*
X035765Y015790D01*
X035753Y015700D01*
X035765Y015610D01*
X035799Y015526D01*
X035855Y015455D01*
X035926Y015399D01*
X036010Y015365D01*
X036038Y015361D01*
X036034Y015311D01*
X035166D01*
X035162Y015361D01*
X035190Y015365D01*
X035274Y015399D01*
X035345Y015455D01*
X035401Y015526D01*
X035435Y015610D01*
X035447Y015700D01*
X035435Y015790D01*
X035401Y015874D01*
X035345Y015945D01*
X035274Y016001D01*
X035190Y016035D01*
X035100Y016047D01*
X035010Y016035D01*
X034926Y016001D01*
X034855Y015945D01*
X034799Y015874D01*
X034765Y015790D01*
X034753Y015700D01*
X034765Y015610D01*
X034799Y015526D01*
X034855Y015455D01*
X034926Y015399D01*
X035010Y015365D01*
X035038Y015361D01*
X035034Y015311D01*
X034166D01*
X034162Y015361D01*
X034190Y015365D01*
X034274Y015399D01*
X034345Y015455D01*
X034401Y015526D01*
X034435Y015610D01*
X034447Y015700D01*
X034435Y015790D01*
X034401Y015874D01*
X034345Y015945D01*
X034274Y016001D01*
X034190Y016035D01*
X034100Y016047D01*
X034010Y016035D01*
X033926Y016001D01*
X033855Y015945D01*
X033799Y015874D01*
X033765Y015790D01*
X033753Y015700D01*
X033765Y015610D01*
X033799Y015526D01*
X033855Y015455D01*
X033926Y015399D01*
X034010Y015365D01*
X034038Y015361D01*
X034034Y015311D01*
X033166D01*
X033162Y015361D01*
X033190Y015365D01*
X033274Y015399D01*
X033345Y015455D01*
X033401Y015526D01*
X033435Y015610D01*
X033447Y015700D01*
X033435Y015790D01*
X033401Y015874D01*
X033345Y015945D01*
X033274Y016001D01*
X033190Y016035D01*
X033100Y016047D01*
X033010Y016035D01*
X032926Y016001D01*
X032855Y015945D01*
X032799Y015874D01*
X032765Y015790D01*
X032753Y015700D01*
X032765Y015610D01*
X032799Y015526D01*
X032855Y015455D01*
X032926Y015399D01*
X033010Y015365D01*
X033038Y015361D01*
X033034Y015311D01*
X032166D01*
X032162Y015361D01*
X032190Y015365D01*
X032274Y015399D01*
X032345Y015455D01*
X032401Y015526D01*
X032435Y015610D01*
X032447Y015700D01*
X032435Y015790D01*
X032401Y015874D01*
X032345Y015945D01*
X032274Y016001D01*
X032190Y016035D01*
X032100Y016047D01*
X032010Y016035D01*
X031926Y016001D01*
X031855Y015945D01*
X031799Y015874D01*
X031765Y015790D01*
X031753Y015700D01*
X031765Y015610D01*
X031799Y015526D01*
X031855Y015455D01*
X031926Y015399D01*
X032010Y015365D01*
X032038Y015361D01*
X032034Y015311D01*
X031166D01*
X031162Y015361D01*
X031190Y015365D01*
X031274Y015399D01*
X031345Y015455D01*
X031401Y015526D01*
X031435Y015610D01*
X031447Y015700D01*
X031435Y015790D01*
X031401Y015874D01*
X031345Y015945D01*
X031274Y016001D01*
X031190Y016035D01*
X031100Y016047D01*
X031010Y016035D01*
X030926Y016001D01*
X030855Y015945D01*
X030799Y015874D01*
X030765Y015790D01*
X030753Y015700D01*
X030765Y015610D01*
X030799Y015526D01*
X030855Y015455D01*
X030926Y015399D01*
X031010Y015365D01*
X031038Y015361D01*
X031034Y015311D01*
X030166D01*
X030162Y015361D01*
X030190Y015365D01*
X030274Y015399D01*
X030345Y015455D01*
X030401Y015526D01*
X030435Y015610D01*
X030447Y015700D01*
X030435Y015790D01*
X030401Y015874D01*
X030345Y015945D01*
X030274Y016001D01*
X030190Y016035D01*
X030100Y016047D01*
X030010Y016035D01*
X029926Y016001D01*
X029855Y015945D01*
X029799Y015874D01*
X029765Y015790D01*
X029753Y015700D01*
X029765Y015610D01*
X029799Y015526D01*
X029855Y015455D01*
X029926Y015399D01*
X030010Y015365D01*
X030038Y015361D01*
X030034Y015311D01*
X029166D01*
X029162Y015361D01*
X029190Y015365D01*
X029274Y015399D01*
X029345Y015455D01*
X029401Y015526D01*
X029435Y015610D01*
X029447Y015700D01*
X029435Y015790D01*
X029401Y015874D01*
X029345Y015945D01*
X029274Y016001D01*
X029190Y016035D01*
X029100Y016047D01*
X029010Y016035D01*
X028926Y016001D01*
X028855Y015945D01*
X028799Y015874D01*
X028765Y015790D01*
X028753Y015700D01*
X028765Y015610D01*
X028799Y015526D01*
X028855Y015455D01*
X028926Y015399D01*
X029010Y015365D01*
X029038Y015361D01*
X029034Y015311D01*
X028166D01*
X028162Y015361D01*
X028190Y015365D01*
X028274Y015399D01*
X028345Y015455D01*
X028401Y015526D01*
X028435Y015610D01*
X028447Y015700D01*
X028435Y015790D01*
X028401Y015874D01*
X028345Y015945D01*
X028274Y016001D01*
X028190Y016035D01*
X028100Y016047D01*
X028010Y016035D01*
X027926Y016001D01*
X027855Y015945D01*
X027799Y015874D01*
X027765Y015790D01*
X027753Y015700D01*
X027765Y015610D01*
X027799Y015526D01*
X027855Y015455D01*
X027926Y015399D01*
X028010Y015365D01*
X028038Y015361D01*
X028034Y015311D01*
X027166D01*
X027162Y015361D01*
X027190Y015365D01*
X027274Y015399D01*
X027345Y015455D01*
X027401Y015526D01*
X027435Y015610D01*
X027447Y015700D01*
X027435Y015790D01*
X027401Y015874D01*
X027345Y015945D01*
X027274Y016001D01*
X027190Y016035D01*
X027100Y016047D01*
X027010Y016035D01*
X026926Y016001D01*
X026855Y015945D01*
X026799Y015874D01*
X026765Y015790D01*
X026753Y015700D01*
X026765Y015610D01*
X026799Y015526D01*
X026855Y015455D01*
X026926Y015399D01*
X027010Y015365D01*
X027038Y015361D01*
X027034Y015311D01*
X026298D01*
X026288Y015361D01*
X026294Y015364D01*
X026375Y015425D01*
X026436Y015506D01*
X026475Y015599D01*
X026475Y015600D01*
X026100D01*
X025725D01*
X025725Y015599D01*
X025764Y015506D01*
X025825Y015425D01*
X025906Y015364D01*
X025912Y015361D01*
X025902Y015311D01*
X025846D01*
X025211Y015946D01*
Y020012D01*
X025256Y020030D01*
X025320Y020080D01*
X025370Y020144D01*
X025401Y020219D01*
X025412Y020300D01*
X025401Y020381D01*
X025370Y020456D01*
X025320Y020520D01*
X025256Y020570D01*
X025181Y020601D01*
X025168Y020603D01*
X025143Y020656D01*
X025157Y020677D01*
X025181Y020681D01*
X025256Y020712D01*
X025320Y020761D01*
X025370Y020826D01*
X025401Y020901D01*
X025412Y020982D01*
X025404Y021044D01*
X025451Y021067D01*
X025781Y020736D01*
D02*
G37*
G36*
X060800Y027400D02*
Y026900D01*
X057700D01*
Y028900D01*
X059300D01*
X060800Y027400D01*
D02*
G37*
G36*
X067556Y032399D02*
Y028870D01*
X067545Y028862D01*
X067506Y028851D01*
X063113Y033245D01*
X063141Y033287D01*
X063200Y033263D01*
Y033600D01*
X063300D01*
Y033700D01*
X063637D01*
X063606Y033777D01*
X063583Y033806D01*
X063608Y033856D01*
X066099D01*
X067556Y032399D01*
D02*
G37*
G36*
X040224Y016019D02*
Y015309D01*
X040795D01*
Y015989D01*
X040841Y016018D01*
X040852Y016015D01*
X040880Y015980D01*
X040944Y015930D01*
X040989Y015912D01*
Y015578D01*
X040989Y015578D01*
X040997Y015536D01*
X041021Y015500D01*
X041340Y015181D01*
X041340Y015181D01*
X041376Y015157D01*
X041419Y015148D01*
X041419Y015148D01*
X041618D01*
X041637Y015098D01*
X041592Y015039D01*
X041560Y014963D01*
X041898D01*
Y014763D01*
X041560D01*
X041592Y014686D01*
X041648Y014613D01*
X041721Y014557D01*
X041806Y014522D01*
X041898Y014510D01*
Y014401D01*
X042194D01*
X042491D01*
Y014650D01*
X042541Y014683D01*
X042567Y014673D01*
X042647Y014662D01*
X042728Y014673D01*
X042794Y014700D01*
X042844Y014680D01*
Y013750D01*
X042989D01*
Y012450D01*
X042391D01*
Y011611D01*
X040346D01*
X039911Y012046D01*
Y015700D01*
X039911Y015700D01*
X039903Y015743D01*
X039879Y015779D01*
X039879Y015779D01*
X039379Y016279D01*
X039343Y016303D01*
X039300Y016311D01*
X039300Y016311D01*
X039166D01*
X039162Y016361D01*
X039190Y016365D01*
X039274Y016399D01*
X039345Y016455D01*
X039401Y016526D01*
X039435Y016610D01*
X039447Y016700D01*
X039443Y016729D01*
X039491Y016752D01*
X040224Y016019D01*
D02*
G37*
%LPC*%
G36*
X057513Y017477D02*
X057376D01*
Y017300D01*
X057513D01*
Y017477D01*
D02*
G37*
G36*
X042700Y016936D02*
X042326D01*
Y016670D01*
X042700D01*
Y016936D01*
D02*
G37*
G36*
X057176Y017477D02*
X057038D01*
Y017300D01*
X057176D01*
Y017477D01*
D02*
G37*
G36*
X043900Y017472D02*
X043615D01*
Y017246D01*
X043900D01*
Y017472D01*
D02*
G37*
G36*
X035837Y016500D02*
X035600D01*
Y016263D01*
X035677Y016294D01*
X035750Y016350D01*
X035806Y016423D01*
X035837Y016500D01*
D02*
G37*
G36*
X027200Y017737D02*
Y017500D01*
X027437D01*
X027406Y017577D01*
X027350Y017650D01*
X027277Y017706D01*
X027200Y017737D01*
D02*
G37*
G36*
X046800D02*
X046723Y017706D01*
X046650Y017650D01*
X046594Y017577D01*
X046563Y017500D01*
X046800D01*
Y017737D01*
D02*
G37*
G36*
X027000D02*
X026923Y017706D01*
X026850Y017650D01*
X026794Y017577D01*
X026763Y017500D01*
X027000D01*
Y017737D01*
D02*
G37*
G36*
X045100Y016537D02*
Y016300D01*
X045337D01*
X045306Y016377D01*
X045250Y016450D01*
X045177Y016506D01*
X045100Y016537D01*
D02*
G37*
G36*
X054433Y017562D02*
Y017466D01*
X054529D01*
X054490Y017523D01*
X054433Y017562D01*
D02*
G37*
G36*
X052800Y017376D02*
X052623D01*
Y017238D01*
X052800D01*
Y017376D01*
D02*
G37*
G36*
X035600Y016937D02*
Y016700D01*
X035837D01*
X035806Y016777D01*
X035750Y016850D01*
X035677Y016906D01*
X035600Y016937D01*
D02*
G37*
G36*
X035400D02*
X035323Y016906D01*
X035250Y016850D01*
X035194Y016777D01*
X035163Y016700D01*
X035400D01*
Y016937D01*
D02*
G37*
G36*
X043274Y016936D02*
X042900D01*
Y016670D01*
X043274D01*
Y016936D01*
D02*
G37*
G36*
X041591Y017400D02*
X041364D01*
Y016868D01*
X041591D01*
Y017400D01*
D02*
G37*
G36*
X042017D02*
X041791D01*
Y016868D01*
X042017D01*
Y017400D01*
D02*
G37*
G36*
X043900Y017046D02*
X043615D01*
Y016819D01*
X043900D01*
Y017046D01*
D02*
G37*
G36*
X057176Y017100D02*
X057038D01*
Y016923D01*
X057176D01*
Y017100D01*
D02*
G37*
G36*
X046800Y017300D02*
X046563D01*
X046594Y017223D01*
X046650Y017150D01*
X046723Y017094D01*
X046800Y017063D01*
Y017300D01*
D02*
G37*
G36*
X047237D02*
X047000D01*
Y017063D01*
X047077Y017094D01*
X047150Y017150D01*
X047206Y017223D01*
X047237Y017300D01*
D02*
G37*
G36*
X033119Y017813D02*
X033039Y017802D01*
X032963Y017771D01*
X032899Y017722D01*
X032849Y017657D01*
X032818Y017582D01*
X032808Y017501D01*
X032818Y017420D01*
X032849Y017345D01*
X032899Y017281D01*
X032963Y017231D01*
X033039Y017200D01*
X033119Y017189D01*
X033200Y017200D01*
X033275Y017231D01*
X033340Y017281D01*
X033389Y017345D01*
X033408Y017390D01*
X035611D01*
X035630Y017344D01*
X035680Y017280D01*
X035744Y017230D01*
X035819Y017199D01*
X035900Y017188D01*
X035981Y017199D01*
X036056Y017230D01*
X036120Y017280D01*
X036170Y017344D01*
X036201Y017419D01*
X036212Y017500D01*
X036201Y017581D01*
X036170Y017656D01*
X036120Y017720D01*
X036056Y017770D01*
X035981Y017801D01*
X035900Y017812D01*
X035819Y017801D01*
X035744Y017770D01*
X035680Y017720D01*
X035630Y017656D01*
X035612Y017612D01*
X033408D01*
X033389Y017657D01*
X033340Y017722D01*
X033275Y017771D01*
X033200Y017802D01*
X033119Y017813D01*
D02*
G37*
G36*
X057513Y017100D02*
X057376D01*
Y016923D01*
X057513D01*
Y017100D01*
D02*
G37*
G36*
X027000Y017300D02*
X026763D01*
X026794Y017223D01*
X026850Y017150D01*
X026923Y017094D01*
X027000Y017063D01*
Y017300D01*
D02*
G37*
G36*
X027437D02*
X027200D01*
Y017063D01*
X027277Y017094D01*
X027350Y017150D01*
X027406Y017223D01*
X027437Y017300D01*
D02*
G37*
G36*
X052800Y017713D02*
X052623D01*
Y017576D01*
X052800D01*
Y017713D01*
D02*
G37*
G36*
X027497Y020085D02*
X027300D01*
Y019908D01*
X027497D01*
Y020085D01*
D02*
G37*
G36*
X027100D02*
X026903D01*
Y019908D01*
X027100D01*
Y020085D01*
D02*
G37*
G36*
X028197D02*
X028000D01*
Y019908D01*
X028197D01*
Y020085D01*
D02*
G37*
G36*
X027800D02*
X027603D01*
Y019908D01*
X027800D01*
Y020085D01*
D02*
G37*
G36*
X054734Y019100D02*
X054650D01*
Y019063D01*
X054727Y019094D01*
X054734Y019100D01*
D02*
G37*
G36*
X043600Y019237D02*
Y019000D01*
X043837D01*
X043806Y019077D01*
X043750Y019150D01*
X043677Y019206D01*
X043600Y019237D01*
D02*
G37*
G36*
X055594Y019600D02*
X055400D01*
Y019100D01*
X055302D01*
Y019065D01*
X055489D01*
Y019454D01*
X055521Y019479D01*
X055571Y019544D01*
X055594Y019600D01*
D02*
G37*
G36*
X055102Y019100D02*
X054915Y019100D01*
Y019065D01*
X055102D01*
Y019100D01*
D02*
G37*
G36*
X052737Y020500D02*
X052500D01*
Y020263D01*
X052577Y020294D01*
X052650Y020350D01*
X052706Y020423D01*
X052737Y020500D01*
D02*
G37*
G36*
X052300D02*
X052063D01*
X052094Y020423D01*
X052150Y020350D01*
X052223Y020294D01*
X052300Y020263D01*
Y020500D01*
D02*
G37*
G36*
X027497Y020462D02*
X027300D01*
Y020285D01*
X027497D01*
Y020462D01*
D02*
G37*
G36*
X027100D02*
X026903D01*
Y020285D01*
X027100D01*
Y020462D01*
D02*
G37*
G36*
X028897Y020085D02*
X028700D01*
Y019908D01*
X028897D01*
Y020085D01*
D02*
G37*
G36*
X028500D02*
X028303D01*
Y019908D01*
X028500D01*
Y020085D01*
D02*
G37*
G36*
X029597D02*
X029400D01*
Y019908D01*
X029597D01*
Y020085D01*
D02*
G37*
G36*
X029200D02*
X029003D01*
Y019908D01*
X029200D01*
Y020085D01*
D02*
G37*
G36*
X029900Y018300D02*
X029663D01*
X029694Y018223D01*
X029750Y018150D01*
X029823Y018094D01*
X029900Y018063D01*
Y018300D01*
D02*
G37*
G36*
X048037Y018200D02*
X047800D01*
Y017963D01*
X047877Y017994D01*
X047950Y018050D01*
X048006Y018123D01*
X048037Y018200D01*
D02*
G37*
G36*
X065300Y021351D02*
X065183Y021335D01*
X065075Y021290D01*
X064981Y021219D01*
X064910Y021125D01*
X064865Y021017D01*
X064849Y020900D01*
X064865Y020783D01*
X064910Y020675D01*
X064981Y020581D01*
X065075Y020510D01*
X065183Y020465D01*
X065260Y020455D01*
X065270Y020378D01*
X065315Y020270D01*
X065386Y020176D01*
X065480Y020105D01*
X065588Y020060D01*
X065665Y020050D01*
X065675Y019973D01*
X065720Y019865D01*
X065791Y019771D01*
X065811Y019756D01*
Y018857D01*
X065733D01*
Y018143D01*
X066487D01*
Y018857D01*
X066409D01*
Y019756D01*
X066429Y019771D01*
X066500Y019865D01*
X066545Y019973D01*
X066561Y020090D01*
X066545Y020207D01*
X066500Y020315D01*
X066429Y020409D01*
X066335Y020480D01*
X066227Y020525D01*
X066150Y020535D01*
X066140Y020612D01*
X066095Y020720D01*
X066024Y020814D01*
X065930Y020885D01*
X065822Y020930D01*
X065745Y020940D01*
X065735Y021017D01*
X065690Y021125D01*
X065619Y021219D01*
X065525Y021290D01*
X065417Y021335D01*
X065300Y021351D01*
D02*
G37*
G36*
X030337Y018300D02*
X030100D01*
Y018063D01*
X030177Y018094D01*
X030250Y018150D01*
X030306Y018223D01*
X030337Y018300D01*
D02*
G37*
G36*
X042017Y018132D02*
X041791D01*
Y017600D01*
X042017D01*
Y018132D01*
D02*
G37*
G36*
X041591D02*
X041364D01*
Y017600D01*
X041591D01*
Y018132D01*
D02*
G37*
G36*
X047600Y018200D02*
X047363D01*
X047394Y018123D01*
X047450Y018050D01*
X047523Y017994D01*
X047600Y017963D01*
Y018200D01*
D02*
G37*
G36*
X052181Y017894D02*
Y017700D01*
X052375D01*
X052352Y017756D01*
X052302Y017821D01*
X052237Y017871D01*
X052181Y017894D01*
D02*
G37*
G36*
X043400Y018800D02*
X043163D01*
X043194Y018723D01*
X043250Y018650D01*
X043323Y018594D01*
X043400Y018563D01*
Y018800D01*
D02*
G37*
G36*
X030100Y018737D02*
Y018500D01*
X030337D01*
X030306Y018577D01*
X030250Y018650D01*
X030177Y018706D01*
X030100Y018737D01*
D02*
G37*
G36*
X043400Y019237D02*
X043323Y019206D01*
X043250Y019150D01*
X043194Y019077D01*
X043163Y019000D01*
X043400D01*
Y019237D01*
D02*
G37*
G36*
X043837Y018800D02*
X043600D01*
Y018563D01*
X043677Y018594D01*
X043750Y018650D01*
X043806Y018723D01*
X043837Y018800D01*
D02*
G37*
G36*
X047600Y018637D02*
X047523Y018606D01*
X047450Y018550D01*
X047394Y018477D01*
X047363Y018400D01*
X047600D01*
Y018637D01*
D02*
G37*
G36*
X039100Y019047D02*
X039010Y019035D01*
X038926Y019001D01*
X038855Y018945D01*
X038799Y018874D01*
X038765Y018790D01*
X038753Y018700D01*
X038765Y018610D01*
X038799Y018526D01*
X038855Y018455D01*
X038926Y018399D01*
X039010Y018365D01*
X039100Y018353D01*
X039190Y018365D01*
X039274Y018399D01*
X039345Y018455D01*
X039401Y018526D01*
X039435Y018610D01*
X039447Y018700D01*
X039435Y018790D01*
X039401Y018874D01*
X039345Y018945D01*
X039274Y019001D01*
X039190Y019035D01*
X039100Y019047D01*
D02*
G37*
G36*
X029900Y018737D02*
X029823Y018706D01*
X029750Y018650D01*
X029694Y018577D01*
X029663Y018500D01*
X029900D01*
Y018737D01*
D02*
G37*
G36*
X047800Y018637D02*
Y018400D01*
X048037D01*
X048006Y018477D01*
X047950Y018550D01*
X047877Y018606D01*
X047800Y018637D01*
D02*
G37*
G36*
X035400Y016500D02*
X035163D01*
X035194Y016423D01*
X035250Y016350D01*
X035323Y016294D01*
X035400Y016263D01*
Y016500D01*
D02*
G37*
G36*
X034300Y013437D02*
Y013200D01*
X034537D01*
X034506Y013277D01*
X034450Y013350D01*
X034377Y013406D01*
X034300Y013437D01*
D02*
G37*
G36*
X034100D02*
X034023Y013406D01*
X033950Y013350D01*
X033894Y013277D01*
X033863Y013200D01*
X034100D01*
Y013437D01*
D02*
G37*
G36*
X035277Y013424D02*
X035100D01*
Y013287D01*
X035277D01*
Y013424D01*
D02*
G37*
G36*
X034900D02*
X034723D01*
Y013287D01*
X034900D01*
Y013424D01*
D02*
G37*
G36*
X049100Y013187D02*
X048923D01*
Y013049D01*
X049100D01*
Y013187D01*
D02*
G37*
G36*
X067306Y015262D02*
X065594D01*
Y014376D01*
X065599D01*
Y013200D01*
X065615Y013123D01*
X065658Y013058D01*
X065808Y012908D01*
X065873Y012865D01*
X065950Y012849D01*
X066950D01*
X067027Y012865D01*
X067092Y012908D01*
X067242Y013058D01*
X067285Y013123D01*
X067301Y013200D01*
Y014376D01*
X067306D01*
Y015262D01*
D02*
G37*
G36*
X053637Y013400D02*
X053400D01*
Y013163D01*
X053477Y013194D01*
X053550Y013250D01*
X053606Y013323D01*
X053637Y013400D01*
D02*
G37*
G36*
X053200D02*
X052963D01*
X052994Y013323D01*
X053050Y013250D01*
X053123Y013194D01*
X053200Y013163D01*
Y013400D01*
D02*
G37*
G36*
X042094Y014201D02*
X041898D01*
Y013709D01*
X042094D01*
Y014201D01*
D02*
G37*
G36*
X041312Y014698D02*
X040288D01*
Y013674D01*
X041312D01*
Y014698D01*
D02*
G37*
G36*
X038100Y014477D02*
X038002Y014464D01*
X037911Y014427D01*
X037833Y014367D01*
X037773Y014289D01*
X037736Y014198D01*
X037723Y014100D01*
X037736Y014002D01*
X037773Y013911D01*
X037833Y013833D01*
X037911Y013773D01*
X038002Y013736D01*
X038100Y013723D01*
X038198Y013736D01*
X038289Y013773D01*
X038367Y013833D01*
X038427Y013911D01*
X038464Y014002D01*
X038477Y014100D01*
X038464Y014198D01*
X038427Y014289D01*
X038367Y014367D01*
X038289Y014427D01*
X038198Y014464D01*
X038100Y014477D01*
D02*
G37*
G36*
X042491Y014201D02*
X042294D01*
Y013709D01*
X042491D01*
Y014201D01*
D02*
G37*
G36*
X053400Y013837D02*
Y013600D01*
X053637D01*
X053606Y013677D01*
X053550Y013750D01*
X053477Y013806D01*
X053400Y013837D01*
D02*
G37*
G36*
X053200D02*
X053123Y013806D01*
X053050Y013750D01*
X052994Y013677D01*
X052963Y013600D01*
X053200D01*
Y013837D01*
D02*
G37*
G36*
X035277Y013762D02*
X035100D01*
Y013624D01*
X035277D01*
Y013762D01*
D02*
G37*
G36*
X034900D02*
X034723D01*
Y013624D01*
X034900D01*
Y013762D01*
D02*
G37*
G36*
X034537Y013000D02*
X034300D01*
Y012763D01*
X034377Y012794D01*
X034450Y012850D01*
X034506Y012923D01*
X034537Y013000D01*
D02*
G37*
G36*
X040700Y012314D02*
X040247D01*
Y011861D01*
X040700D01*
Y012314D01*
D02*
G37*
G36*
X042237Y012000D02*
X042000D01*
Y011763D01*
X042077Y011794D01*
X042150Y011850D01*
X042206Y011923D01*
X042237Y012000D01*
D02*
G37*
G36*
X038454Y012954D02*
X037746D01*
Y012403D01*
X037254Y011911D01*
X035988D01*
X035970Y011956D01*
X035920Y012020D01*
X035856Y012070D01*
X035781Y012101D01*
X035700Y012112D01*
X035619Y012101D01*
X035544Y012070D01*
X035480Y012020D01*
X035430Y011956D01*
X035399Y011881D01*
X035388Y011800D01*
X035399Y011719D01*
X035430Y011644D01*
X035480Y011580D01*
X035544Y011530D01*
X035619Y011499D01*
X035700Y011488D01*
X035781Y011499D01*
X035856Y011530D01*
X035920Y011580D01*
X035970Y011644D01*
X035988Y011689D01*
X037300D01*
X037300Y011689D01*
X037343Y011697D01*
X037379Y011721D01*
X037903Y012246D01*
X038454D01*
Y012954D01*
D02*
G37*
G36*
X041353Y012314D02*
X040900D01*
Y011861D01*
X041353D01*
Y012314D01*
D02*
G37*
G36*
X044900Y011900D02*
X044663D01*
X044694Y011823D01*
X044750Y011750D01*
X044823Y011694D01*
X044900Y011663D01*
Y011900D01*
D02*
G37*
G36*
X025800Y013467D02*
X025633Y013454D01*
X025470Y013415D01*
X025315Y013351D01*
X025173Y013263D01*
X025045Y013155D01*
X024936Y013027D01*
X024849Y012885D01*
X024785Y012730D01*
X024746Y012567D01*
X024733Y012400D01*
X024746Y012233D01*
X024785Y012070D01*
X024849Y011915D01*
X024936Y011773D01*
X025045Y011645D01*
X025173Y011537D01*
X025315Y011449D01*
X025470Y011385D01*
X025633Y011346D01*
X025800Y011333D01*
X025967Y011346D01*
X026130Y011385D01*
X026285Y011449D01*
X026427Y011537D01*
X026555Y011645D01*
X026663Y011773D01*
X026751Y011915D01*
X026815Y012070D01*
X026854Y012233D01*
X026867Y012400D01*
X026854Y012567D01*
X026815Y012730D01*
X026751Y012885D01*
X026663Y013027D01*
X026555Y013155D01*
X026427Y013263D01*
X026285Y013351D01*
X026130Y013415D01*
X025967Y013454D01*
X025800Y013467D01*
D02*
G37*
G36*
X041800Y012000D02*
X041563D01*
X041594Y011923D01*
X041650Y011850D01*
X041723Y011794D01*
X041800Y011763D01*
Y012000D01*
D02*
G37*
G36*
X045337Y011900D02*
X045100D01*
Y011663D01*
X045177Y011694D01*
X045250Y011750D01*
X045306Y011823D01*
X045337Y011900D01*
D02*
G37*
G36*
X040700Y012967D02*
X040247D01*
Y012514D01*
X040700D01*
Y012967D01*
D02*
G37*
G36*
X049500Y012500D02*
X049306D01*
X049329Y012444D01*
X049379Y012379D01*
X049444Y012329D01*
X049500Y012306D01*
Y012500D01*
D02*
G37*
G36*
X034100Y013000D02*
X033863D01*
X033894Y012923D01*
X033950Y012850D01*
X034023Y012794D01*
X034100Y012763D01*
Y013000D01*
D02*
G37*
G36*
X041353Y012967D02*
X040900D01*
Y012514D01*
X041353D01*
Y012967D01*
D02*
G37*
G36*
X045100Y012337D02*
Y012100D01*
X045337D01*
X045306Y012177D01*
X045250Y012250D01*
X045177Y012306D01*
X045100Y012337D01*
D02*
G37*
G36*
X044900D02*
X044823Y012306D01*
X044750Y012250D01*
X044694Y012177D01*
X044663Y012100D01*
X044900D01*
Y012337D01*
D02*
G37*
G36*
X042000Y012437D02*
Y012200D01*
X042237D01*
X042206Y012277D01*
X042150Y012350D01*
X042077Y012406D01*
X042000Y012437D01*
D02*
G37*
G36*
X041800D02*
X041723Y012406D01*
X041650Y012350D01*
X041594Y012277D01*
X041563Y012200D01*
X041800D01*
Y012437D01*
D02*
G37*
G36*
X044261Y014852D02*
X043750D01*
Y014472D01*
X043744Y014470D01*
X043680Y014420D01*
X043630Y014356D01*
X043599Y014281D01*
X043588Y014200D01*
X043599Y014119D01*
X043630Y014044D01*
X043680Y013980D01*
X043744Y013930D01*
X043750Y013928D01*
Y013750D01*
X044261D01*
Y014852D01*
D02*
G37*
G36*
X026000Y016075D02*
X026000Y016075D01*
X025906Y016036D01*
X025825Y015975D01*
X025764Y015894D01*
X025725Y015801D01*
X025725Y015800D01*
X026000D01*
Y016075D01*
D02*
G37*
G36*
X042862Y015897D02*
X042685D01*
Y015700D01*
X042862D01*
Y015897D01*
D02*
G37*
G36*
X043253Y018174D02*
X042347D01*
Y017988D01*
X042334Y017982D01*
X042266Y017930D01*
X042213Y017861D01*
X042180Y017781D01*
X042168Y017695D01*
X042180Y017609D01*
X042213Y017529D01*
X042266Y017461D01*
X042334Y017408D01*
X042414Y017375D01*
X042500Y017364D01*
X042586Y017375D01*
X042666Y017408D01*
X042734Y017461D01*
X042753Y017485D01*
X043253D01*
Y017723D01*
X043636D01*
Y017549D01*
X044116D01*
X044142Y017518D01*
X044122Y017472D01*
X044100D01*
Y017146D01*
Y016819D01*
X044385D01*
Y017218D01*
X044432Y017237D01*
X044469Y017200D01*
Y014100D01*
X044479Y014050D01*
X044507Y014007D01*
X044694Y013820D01*
X044680Y013786D01*
X044668Y013700D01*
X044680Y013614D01*
X044713Y013534D01*
X044766Y013466D01*
X044834Y013413D01*
X044914Y013380D01*
X045000Y013368D01*
X045052Y013375D01*
X045691Y012736D01*
Y012561D01*
X045823D01*
Y012439D01*
X045691D01*
Y012061D01*
X045823D01*
Y011939D01*
X045691D01*
Y011561D01*
X046319D01*
Y011939D01*
X046187D01*
Y012061D01*
X046319D01*
Y012439D01*
X046187D01*
Y012561D01*
X046319D01*
Y012939D01*
X046003D01*
X045908Y013035D01*
X045927Y013081D01*
X046299D01*
Y013419D01*
X046111D01*
Y013712D01*
X046156Y013730D01*
X046220Y013780D01*
X046270Y013844D01*
X046301Y013919D01*
X046312Y014000D01*
X046301Y014081D01*
X046270Y014156D01*
X046220Y014220D01*
X046156Y014270D01*
X046081Y014301D01*
X046000Y014312D01*
X045919Y014301D01*
X045844Y014270D01*
X045780Y014220D01*
X045730Y014156D01*
X045699Y014081D01*
X045688Y014000D01*
X045699Y013919D01*
X045730Y013844D01*
X045780Y013780D01*
X045844Y013730D01*
X045889Y013712D01*
Y013419D01*
X045711D01*
Y013297D01*
X045665Y013278D01*
X045321Y013621D01*
X045332Y013700D01*
X045320Y013786D01*
X045306Y013820D01*
X046647Y015161D01*
X046919D01*
Y015639D01*
X046401D01*
Y015287D01*
X045120Y014006D01*
X045086Y014020D01*
X045000Y014032D01*
X044914Y014020D01*
X044880Y014006D01*
X044731Y014154D01*
Y015902D01*
X044781Y015927D01*
X044823Y015894D01*
X044900Y015863D01*
Y016200D01*
Y016537D01*
X044823Y016506D01*
X044781Y016473D01*
X044731Y016498D01*
Y017254D01*
X044721Y017305D01*
X044693Y017347D01*
X044364Y017676D01*
Y018159D01*
X043636D01*
Y017986D01*
X043253D01*
Y018174D01*
D02*
G37*
G36*
X026200Y016075D02*
Y015800D01*
X026475D01*
X026475Y015801D01*
X026436Y015894D01*
X026375Y015975D01*
X026294Y016036D01*
X026200Y016075D01*
X026200Y016075D01*
D02*
G37*
G36*
X062937Y015800D02*
X062700D01*
Y015563D01*
X062777Y015594D01*
X062850Y015650D01*
X062906Y015723D01*
X062937Y015800D01*
D02*
G37*
G36*
X062500D02*
X062263D01*
X062294Y015723D01*
X062350Y015650D01*
X062423Y015594D01*
X062500Y015563D01*
Y015800D01*
D02*
G37*
G36*
X042485Y015897D02*
X042308D01*
Y015700D01*
X042485D01*
Y015897D01*
D02*
G37*
G36*
X067183Y019093D02*
X066705D01*
Y018655D01*
X067006D01*
X067122Y018539D01*
Y018477D01*
X066567D01*
Y017763D01*
X066577D01*
X066598Y017713D01*
X066509Y017624D01*
X065594D01*
Y016738D01*
X067122D01*
Y016231D01*
X067100Y016212D01*
X067019Y016201D01*
X066944Y016170D01*
X066880Y016120D01*
X066830Y016056D01*
X066799Y015981D01*
X066788Y015900D01*
X066799Y015819D01*
X066830Y015744D01*
X066880Y015680D01*
X066944Y015630D01*
X067019Y015599D01*
X067100Y015588D01*
X067181Y015599D01*
X067256Y015630D01*
X067320Y015680D01*
X067370Y015744D01*
X067401Y015819D01*
X067412Y015900D01*
X067401Y015981D01*
X067370Y016056D01*
X067344Y016090D01*
Y018585D01*
X067344Y018585D01*
X067335Y018628D01*
X067311Y018664D01*
X067311Y018664D01*
X067183Y018792D01*
Y019093D01*
D02*
G37*
G36*
X062700Y016237D02*
Y016000D01*
X062937D01*
X062906Y016077D01*
X062850Y016150D01*
X062777Y016206D01*
X062700Y016237D01*
D02*
G37*
G36*
X062500D02*
X062423Y016206D01*
X062350Y016150D01*
X062294Y016077D01*
X062263Y016000D01*
X062500D01*
Y016237D01*
D02*
G37*
G36*
X043274Y016470D02*
X042900D01*
Y016204D01*
X043274D01*
Y016470D01*
D02*
G37*
G36*
X042700D02*
X042326D01*
Y016204D01*
X042700D01*
Y016470D01*
D02*
G37*
G36*
X042017Y016531D02*
X041791D01*
Y016000D01*
X042017D01*
Y016531D01*
D02*
G37*
G36*
X045337Y016100D02*
X045100D01*
Y015863D01*
X045177Y015894D01*
X045250Y015950D01*
X045306Y016023D01*
X045337Y016100D01*
D02*
G37*
G36*
X048300Y016237D02*
Y016000D01*
X048537D01*
X048506Y016077D01*
X048450Y016150D01*
X048377Y016206D01*
X048300Y016237D01*
D02*
G37*
G36*
X048100D02*
X048023Y016206D01*
X047950Y016150D01*
X047894Y016077D01*
X047863Y016000D01*
X048100D01*
Y016237D01*
D02*
G37*
G36*
X054529Y015534D02*
X054433D01*
Y015438D01*
X054490Y015477D01*
X054529Y015534D01*
D02*
G37*
G36*
X063500Y014521D02*
X063430Y014512D01*
X063364Y014485D01*
X063308Y014442D01*
X063265Y014386D01*
X063255Y014361D01*
X058845D01*
X058835Y014386D01*
X058792Y014442D01*
X058736Y014485D01*
X058670Y014512D01*
X058600Y014521D01*
X058530Y014512D01*
X058464Y014485D01*
X058408Y014442D01*
X058365Y014386D01*
X058338Y014320D01*
X058329Y014250D01*
X058338Y014180D01*
X058365Y014114D01*
X058408Y014058D01*
X058464Y014015D01*
X058530Y013988D01*
X058600Y013979D01*
X058670Y013988D01*
X058736Y014015D01*
X058792Y014058D01*
X058835Y014114D01*
X058845Y014139D01*
X063255D01*
X063265Y014114D01*
X063308Y014058D01*
X063364Y014015D01*
X063430Y013988D01*
X063500Y013979D01*
X063570Y013988D01*
X063636Y014015D01*
X063692Y014058D01*
X063735Y014114D01*
X063762Y014180D01*
X063771Y014250D01*
X063762Y014320D01*
X063735Y014386D01*
X063692Y014442D01*
X063636Y014485D01*
X063570Y014512D01*
X063500Y014521D01*
D02*
G37*
G36*
X026100Y014537D02*
Y014300D01*
X026337D01*
X026306Y014377D01*
X026250Y014450D01*
X026177Y014506D01*
X026100Y014537D01*
D02*
G37*
G36*
X049674Y014920D02*
X049494D01*
Y014760D01*
X049674D01*
Y014920D01*
D02*
G37*
G36*
X049294D02*
X049114D01*
Y014760D01*
X049294D01*
Y014920D01*
D02*
G37*
G36*
X026337Y014100D02*
X026100D01*
Y013863D01*
X026177Y013894D01*
X026250Y013950D01*
X026306Y014023D01*
X026337Y014100D01*
D02*
G37*
G36*
X025900D02*
X025663D01*
X025694Y014023D01*
X025750Y013950D01*
X025823Y013894D01*
X025900Y013863D01*
Y014100D01*
D02*
G37*
G36*
Y014537D02*
X025823Y014506D01*
X025750Y014450D01*
X025694Y014377D01*
X025663Y014300D01*
X025900D01*
Y014537D01*
D02*
G37*
G36*
X033065Y014477D02*
X032967Y014464D01*
X032876Y014427D01*
X032798Y014367D01*
X032738Y014289D01*
X032700Y014198D01*
X032696Y014167D01*
X032646D01*
X032642Y014198D01*
X032604Y014289D01*
X032544Y014367D01*
X032466Y014427D01*
X032375Y014464D01*
X032277Y014477D01*
X032180Y014464D01*
X032089Y014427D01*
X032011Y014367D01*
X031951Y014289D01*
X031913Y014198D01*
X031909Y014167D01*
X031858D01*
X031854Y014198D01*
X031817Y014289D01*
X031757Y014367D01*
X031679Y014427D01*
X031588Y014464D01*
X031490Y014477D01*
X031392Y014464D01*
X031301Y014427D01*
X031223Y014367D01*
X031163Y014289D01*
X031126Y014198D01*
X031120Y014157D01*
X031070D01*
X031064Y014198D01*
X031027Y014289D01*
X030967Y014367D01*
X030889Y014427D01*
X030798Y014464D01*
X030700Y014477D01*
X030602Y014464D01*
X030511Y014427D01*
X030433Y014367D01*
X030373Y014289D01*
X030336Y014198D01*
X030330Y014157D01*
X030280D01*
X030274Y014198D01*
X030237Y014289D01*
X030177Y014367D01*
X030099Y014427D01*
X030008Y014464D01*
X029910Y014477D01*
X029812Y014464D01*
X029721Y014427D01*
X029643Y014367D01*
X029583Y014289D01*
X029546Y014198D01*
X029544Y014187D01*
X029494D01*
X029492Y014198D01*
X029455Y014289D01*
X029395Y014367D01*
X029316Y014427D01*
X029225Y014464D01*
X029128Y014477D01*
X029030Y014464D01*
X028939Y014427D01*
X028861Y014367D01*
X028801Y014289D01*
X028763Y014198D01*
X028759Y014167D01*
X028709D01*
X028705Y014198D01*
X028667Y014289D01*
X028607Y014367D01*
X028529Y014427D01*
X028438Y014464D01*
X028340Y014477D01*
X028243Y014464D01*
X028152Y014427D01*
X028074Y014367D01*
X028014Y014289D01*
X027976Y014198D01*
X027963Y014100D01*
X027976Y014002D01*
X028014Y013911D01*
X028074Y013833D01*
X028152Y013773D01*
X028243Y013736D01*
X028340Y013723D01*
X028438Y013736D01*
X028529Y013773D01*
X028607Y013833D01*
X028667Y013911D01*
X028705Y014002D01*
X028709Y014033D01*
X028759D01*
X028763Y014002D01*
X028801Y013911D01*
X028861Y013833D01*
X028939Y013773D01*
X029030Y013736D01*
X029128Y013723D01*
X029225Y013736D01*
X029316Y013773D01*
X029395Y013833D01*
X029455Y013911D01*
X029492Y014002D01*
X029494Y014013D01*
X029544D01*
X029546Y014002D01*
X029583Y013911D01*
X029643Y013833D01*
X029721Y013773D01*
X029812Y013736D01*
X029910Y013723D01*
X030008Y013736D01*
X030099Y013773D01*
X030177Y013833D01*
X030237Y013911D01*
X030274Y014002D01*
X030280Y014043D01*
X030330D01*
X030336Y014002D01*
X030373Y013911D01*
X030433Y013833D01*
X030511Y013773D01*
X030602Y013736D01*
X030700Y013723D01*
X030798Y013736D01*
X030889Y013773D01*
X030967Y013833D01*
X031027Y013911D01*
X031064Y014002D01*
X031070Y014043D01*
X031120D01*
X031126Y014002D01*
X031163Y013911D01*
X031223Y013833D01*
X031301Y013773D01*
X031392Y013736D01*
X031490Y013723D01*
X031588Y013736D01*
X031679Y013773D01*
X031757Y013833D01*
X031817Y013911D01*
X031854Y014002D01*
X031858Y014033D01*
X031909D01*
X031913Y014002D01*
X031951Y013911D01*
X032011Y013833D01*
X032089Y013773D01*
X032180Y013736D01*
X032277Y013723D01*
X032375Y013736D01*
X032466Y013773D01*
X032544Y013833D01*
X032604Y013911D01*
X032642Y014002D01*
X032646Y014033D01*
X032696D01*
X032700Y014002D01*
X032738Y013911D01*
X032798Y013833D01*
X032876Y013773D01*
X032967Y013736D01*
X033065Y013723D01*
X033162Y013736D01*
X033253Y013773D01*
X033332Y013833D01*
X033392Y013911D01*
X033429Y014002D01*
X033442Y014100D01*
X033429Y014198D01*
X033392Y014289D01*
X033332Y014367D01*
X033253Y014427D01*
X033162Y014464D01*
X033065Y014477D01*
D02*
G37*
G36*
X043900Y015637D02*
X043823Y015606D01*
X043750Y015550D01*
X043694Y015477D01*
X043663Y015400D01*
X043900D01*
Y015637D01*
D02*
G37*
G36*
X038100Y016047D02*
X038010Y016035D01*
X037926Y016001D01*
X037855Y015945D01*
X037799Y015874D01*
X037765Y015790D01*
X037753Y015700D01*
X037765Y015610D01*
X037799Y015526D01*
X037855Y015455D01*
X037926Y015399D01*
X038010Y015365D01*
X038100Y015353D01*
X038190Y015365D01*
X038274Y015399D01*
X038345Y015455D01*
X038401Y015526D01*
X038435Y015610D01*
X038447Y015700D01*
X038435Y015790D01*
X038401Y015874D01*
X038345Y015945D01*
X038274Y016001D01*
X038190Y016035D01*
X038100Y016047D01*
D02*
G37*
G36*
X053367Y015534D02*
X053271D01*
X053310Y015477D01*
X053367Y015438D01*
Y015534D01*
D02*
G37*
G36*
X044100Y015637D02*
Y015400D01*
X044337D01*
X044306Y015477D01*
X044250Y015550D01*
X044177Y015606D01*
X044100Y015637D01*
D02*
G37*
G36*
X044337Y015200D02*
X044100D01*
Y014963D01*
X044177Y014994D01*
X044250Y015050D01*
X044306Y015123D01*
X044337Y015200D01*
D02*
G37*
G36*
X043900D02*
X043663D01*
X043694Y015123D01*
X043750Y015050D01*
X043823Y014994D01*
X043900Y014963D01*
Y015200D01*
D02*
G37*
G36*
X049674Y015280D02*
X049494D01*
Y015120D01*
X049674D01*
Y015280D01*
D02*
G37*
G36*
X049294D02*
X049114D01*
Y015120D01*
X049294D01*
Y015280D01*
D02*
G37*
G36*
X027800Y020462D02*
X027603D01*
Y020285D01*
X027800D01*
Y020462D01*
D02*
G37*
G36*
X051555Y028504D02*
X051339D01*
Y028288D01*
X051555D01*
Y028504D01*
D02*
G37*
G36*
X054005Y028360D02*
X053770D01*
Y028250D01*
X054005D01*
Y028360D01*
D02*
G37*
G36*
X026013Y028783D02*
X025816D01*
Y028606D01*
X026013D01*
Y028783D01*
D02*
G37*
G36*
X025616D02*
X025419D01*
Y028606D01*
X025616D01*
Y028783D01*
D02*
G37*
G36*
X032666Y028436D02*
X032428D01*
X032460Y028359D01*
X032516Y028286D01*
X032589Y028230D01*
X032666Y028198D01*
Y028436D01*
D02*
G37*
G36*
X054005Y028050D02*
X053770D01*
Y027940D01*
X054005D01*
Y028050D01*
D02*
G37*
G36*
X029616Y028421D02*
X029419D01*
Y028244D01*
X029616D01*
Y028421D01*
D02*
G37*
G36*
X033103Y028436D02*
X032866D01*
Y028198D01*
X032942Y028230D01*
X033015Y028286D01*
X033071Y028359D01*
X033103Y028436D01*
D02*
G37*
G36*
X032666Y028873D02*
X032589Y028842D01*
X032516Y028785D01*
X032460Y028712D01*
X032428Y028636D01*
X032666D01*
Y028873D01*
D02*
G37*
G36*
X067337Y030663D02*
X067100D01*
Y030425D01*
X067177Y030457D01*
X067250Y030513D01*
X067306Y030586D01*
X067337Y030663D01*
D02*
G37*
G36*
X066900D02*
X066663D01*
X066694Y030586D01*
X066750Y030513D01*
X066823Y030457D01*
X066900Y030425D01*
Y030663D01*
D02*
G37*
G36*
X037916Y030773D02*
Y030536D01*
X038153D01*
X038121Y030612D01*
X038065Y030685D01*
X037992Y030742D01*
X037916Y030773D01*
D02*
G37*
G36*
X037716D02*
X037639Y030742D01*
X037566Y030685D01*
X037510Y030612D01*
X037478Y030536D01*
X037716D01*
Y030773D01*
D02*
G37*
G36*
X057724Y030000D02*
X057587D01*
Y029823D01*
X057724D01*
Y030000D01*
D02*
G37*
G36*
X032866Y028873D02*
Y028636D01*
X033103D01*
X033071Y028712D01*
X033015Y028785D01*
X032942Y028842D01*
X032866Y028873D01*
D02*
G37*
G36*
X038153Y030336D02*
X037916D01*
Y030098D01*
X037992Y030130D01*
X038065Y030186D01*
X038121Y030259D01*
X038153Y030336D01*
D02*
G37*
G36*
X037716D02*
X037478D01*
X037510Y030259D01*
X037566Y030186D01*
X037639Y030130D01*
X037716Y030098D01*
Y030336D01*
D02*
G37*
G36*
X054005Y027360D02*
X053770D01*
Y027250D01*
X054005D01*
Y027360D01*
D02*
G37*
G36*
X034560Y027136D02*
X034366D01*
Y026942D01*
X034422Y026965D01*
X034487Y027015D01*
X034536Y027079D01*
X034560Y027136D01*
D02*
G37*
G36*
X038016Y027480D02*
Y027286D01*
X038210D01*
X038186Y027342D01*
X038137Y027407D01*
X038072Y027457D01*
X038016Y027480D01*
D02*
G37*
G36*
X037816D02*
X037759Y027457D01*
X037695Y027407D01*
X037645Y027342D01*
X037622Y027286D01*
X037816D01*
Y027480D01*
D02*
G37*
G36*
X066497Y027115D02*
X066300D01*
Y026938D01*
X066497D01*
Y027115D01*
D02*
G37*
G36*
X066100D02*
X065903D01*
Y026938D01*
X066100D01*
Y027115D01*
D02*
G37*
G36*
X034166Y027136D02*
X033972D01*
X033995Y027079D01*
X034045Y027015D01*
X034109Y026965D01*
X034166Y026942D01*
Y027136D01*
D02*
G37*
G36*
X054005Y027050D02*
X053770D01*
Y026940D01*
X054005D01*
Y027050D01*
D02*
G37*
G36*
X066537Y027400D02*
X065863D01*
X065894Y027323D01*
X065901Y027315D01*
X066200D01*
X066499D01*
X066506Y027323D01*
X066537Y027400D01*
D02*
G37*
G36*
X029313Y028421D02*
X028719D01*
Y028244D01*
X028723D01*
X028748Y028194D01*
X028731Y028172D01*
X028704Y028106D01*
X028694Y028036D01*
X028704Y027966D01*
X028729Y027903D01*
Y027615D01*
X029202D01*
Y027903D01*
X029228Y027966D01*
X029237Y028036D01*
X029228Y028106D01*
X029201Y028172D01*
X029184Y028194D01*
X029208Y028244D01*
X029313D01*
Y028421D01*
D02*
G37*
G36*
X066300Y027837D02*
Y027600D01*
X066537D01*
X066506Y027677D01*
X066450Y027750D01*
X066377Y027806D01*
X066300Y027837D01*
D02*
G37*
G36*
X029616Y028049D02*
X029439D01*
Y027911D01*
X029616D01*
Y028049D01*
D02*
G37*
G36*
X054005Y027860D02*
X053770D01*
Y027750D01*
X054005D01*
Y027860D01*
D02*
G37*
G36*
X034366Y027530D02*
Y027336D01*
X034560D01*
X034536Y027392D01*
X034487Y027457D01*
X034422Y027507D01*
X034366Y027530D01*
D02*
G37*
G36*
X034166D02*
X034109Y027507D01*
X034045Y027457D01*
X033995Y027392D01*
X033972Y027336D01*
X034166D01*
Y027530D01*
D02*
G37*
G36*
X066100Y027837D02*
X066023Y027806D01*
X065950Y027750D01*
X065894Y027677D01*
X065863Y027600D01*
X066100D01*
Y027837D01*
D02*
G37*
G36*
X054005Y027550D02*
X053770D01*
Y027440D01*
X054005D01*
Y027550D01*
D02*
G37*
G36*
X051139Y032071D02*
X050922D01*
Y031854D01*
X051139D01*
Y032071D01*
D02*
G37*
G36*
X046439D02*
X046222D01*
Y031854D01*
X046439D01*
Y032071D01*
D02*
G37*
G36*
X046855D02*
X046639D01*
Y031854D01*
X046855D01*
Y032071D01*
D02*
G37*
G36*
X041739D02*
X041522D01*
Y031854D01*
X041739D01*
Y032071D01*
D02*
G37*
G36*
X033637Y032000D02*
X033400D01*
Y031763D01*
X033477Y031794D01*
X033550Y031850D01*
X033606Y031923D01*
X033637Y032000D01*
D02*
G37*
G36*
X033200D02*
X032963D01*
X032994Y031923D01*
X033050Y031850D01*
X033123Y031794D01*
X033200Y031763D01*
Y032000D01*
D02*
G37*
G36*
X040524Y031963D02*
X040400D01*
Y031800D01*
X040524D01*
Y031963D01*
D02*
G37*
G36*
X040200D02*
X040076D01*
Y031800D01*
X040200D01*
Y031963D01*
D02*
G37*
G36*
X051555Y032071D02*
X051339D01*
Y031854D01*
X051555D01*
Y032071D01*
D02*
G37*
G36*
X053700Y032637D02*
X053623Y032606D01*
X053550Y032550D01*
X053494Y032477D01*
X053463Y032400D01*
X053700D01*
Y032637D01*
D02*
G37*
G36*
X033400Y032437D02*
Y032200D01*
X033637D01*
X033606Y032277D01*
X033550Y032350D01*
X033477Y032406D01*
X033400Y032437D01*
D02*
G37*
G36*
X063637Y033500D02*
X063400D01*
Y033263D01*
X063477Y033294D01*
X063550Y033350D01*
X063606Y033423D01*
X063637Y033500D01*
D02*
G37*
G36*
X053900Y032637D02*
Y032400D01*
X054137D01*
X054106Y032477D01*
X054050Y032550D01*
X053977Y032606D01*
X053900Y032637D01*
D02*
G37*
G36*
X053700Y032200D02*
X053463D01*
X053494Y032123D01*
X053550Y032050D01*
X053623Y031994D01*
X053700Y031963D01*
Y032200D01*
D02*
G37*
G36*
X042155Y032071D02*
X041939D01*
Y031854D01*
X042155D01*
Y032071D01*
D02*
G37*
G36*
X033200Y032437D02*
X033123Y032406D01*
X033050Y032350D01*
X032994Y032277D01*
X032963Y032200D01*
X033200D01*
Y032437D01*
D02*
G37*
G36*
X054137Y032200D02*
X053900D01*
Y031963D01*
X053977Y031994D01*
X054050Y032050D01*
X054106Y032123D01*
X054137Y032200D01*
D02*
G37*
G36*
X027016Y031181D02*
X026720D01*
Y030886D01*
X027016D01*
Y031181D01*
D02*
G37*
G36*
X025666D02*
X025370D01*
Y030886D01*
X025666D01*
Y031181D01*
D02*
G37*
G36*
X027511D02*
X027216D01*
Y030886D01*
X027511D01*
Y031181D01*
D02*
G37*
G36*
X026161D02*
X025866D01*
Y030886D01*
X026161D01*
Y031181D01*
D02*
G37*
G36*
X043153Y031036D02*
X042916D01*
Y030798D01*
X042992Y030830D01*
X043065Y030886D01*
X043121Y030959D01*
X043153Y031036D01*
D02*
G37*
G36*
X042716D02*
X042478D01*
X042510Y030959D01*
X042566Y030886D01*
X042639Y030830D01*
X042716Y030798D01*
Y031036D01*
D02*
G37*
G36*
X067100Y031100D02*
Y030863D01*
X067337D01*
X067306Y030939D01*
X067250Y031012D01*
X067177Y031068D01*
X067100Y031100D01*
D02*
G37*
G36*
X066900D02*
X066823Y031068D01*
X066750Y031012D01*
X066694Y030939D01*
X066663Y030863D01*
X066900D01*
Y031100D01*
D02*
G37*
G36*
X045360Y031356D02*
X044887D01*
Y031042D01*
X044763Y030918D01*
X044744Y030916D01*
X044694Y030952D01*
Y031321D01*
X044183D01*
Y030986D01*
X044037Y030841D01*
X044013Y030805D01*
X044005Y030762D01*
X044005Y030762D01*
Y030481D01*
X043980Y030471D01*
X043924Y030428D01*
X043881Y030372D01*
X043854Y030306D01*
X043844Y030236D01*
X043854Y030166D01*
X043881Y030100D01*
X043924Y030044D01*
X043980Y030001D01*
X044045Y029974D01*
X044116Y029964D01*
X044186Y029974D01*
X044251Y030001D01*
X044308Y030044D01*
X044351Y030100D01*
X044378Y030166D01*
X044387Y030236D01*
X044378Y030306D01*
X044351Y030372D01*
X044308Y030428D01*
X044251Y030471D01*
X044227Y030481D01*
Y030716D01*
X044360Y030849D01*
X044539D01*
X044564Y030799D01*
X044554Y030786D01*
X044526Y030720D01*
X044517Y030650D01*
X044526Y030580D01*
X044554Y030514D01*
X044597Y030458D01*
X044653Y030415D01*
X044718Y030388D01*
X044789Y030379D01*
X044859Y030388D01*
X044924Y030415D01*
X044980Y030458D01*
X045024Y030514D01*
X045051Y030580D01*
X045060Y030650D01*
X045051Y030720D01*
X045024Y030786D01*
X045021Y030789D01*
X045076Y030844D01*
X045360D01*
Y031356D01*
D02*
G37*
G36*
X051555Y031654D02*
X051339D01*
Y031438D01*
X051555D01*
Y031654D01*
D02*
G37*
G36*
X040524Y031600D02*
X040400D01*
Y031437D01*
X040524D01*
Y031600D01*
D02*
G37*
G36*
X044689Y032132D02*
X044689Y032132D01*
X042814D01*
X042771Y032124D01*
X042735Y032099D01*
X042735Y032099D01*
X042201Y031566D01*
X042155Y031585D01*
Y031654D01*
X041839D01*
X041522D01*
Y031585D01*
X041476Y031566D01*
X041361Y031681D01*
Y031922D01*
X040994D01*
Y031478D01*
X041249D01*
X041520Y031207D01*
X041499Y031157D01*
X041290D01*
Y031356D01*
X040817D01*
Y030844D01*
X040942D01*
Y030620D01*
X040878Y030556D01*
X040866Y030557D01*
X040795Y030548D01*
X040730Y030521D01*
X040674Y030478D01*
X040631Y030422D01*
X040604Y030356D01*
X040594Y030286D01*
X040604Y030216D01*
X040631Y030150D01*
X040674Y030094D01*
X040730Y030051D01*
X040795Y030024D01*
X040866Y030014D01*
X040936Y030024D01*
X041001Y030051D01*
X041058Y030094D01*
X041101Y030150D01*
X041128Y030216D01*
X041137Y030286D01*
X041128Y030356D01*
X041101Y030422D01*
X041082Y030445D01*
X041132Y030495D01*
X041132Y030495D01*
X041156Y030531D01*
X041165Y030574D01*
X041165Y030574D01*
Y030844D01*
X041290D01*
Y030934D01*
X041563D01*
Y030770D01*
X042114D01*
Y031164D01*
X042860Y031910D01*
X044183D01*
Y031826D01*
X044004D01*
X044004Y031826D01*
X043961Y031818D01*
X043925Y031794D01*
X043925Y031794D01*
X043715Y031584D01*
X043665Y031587D01*
X043658Y031597D01*
X043601Y031640D01*
X043536Y031667D01*
X043466Y031676D01*
X043395Y031667D01*
X043330Y031640D01*
X043274Y031597D01*
X043231Y031541D01*
X043204Y031475D01*
X043194Y031405D01*
X043204Y031335D01*
X043231Y031269D01*
X043274Y031213D01*
X043330Y031170D01*
X043395Y031143D01*
X043466Y031134D01*
X043536Y031143D01*
X043601Y031170D01*
X043658Y031213D01*
X043701Y031269D01*
X043712Y031298D01*
X043736Y031302D01*
X043772Y031326D01*
X044050Y031604D01*
X044183D01*
Y031479D01*
X044694D01*
Y031560D01*
X044744Y031593D01*
X044764Y031589D01*
X044816D01*
Y031478D01*
X045183D01*
Y031922D01*
X044915D01*
X044875Y031945D01*
X044867Y031988D01*
X044843Y032024D01*
X044767Y032099D01*
X044731Y032124D01*
X044689Y032132D01*
D02*
G37*
G36*
X039994Y031951D02*
X039483D01*
Y031616D01*
X039413Y031547D01*
X038980D01*
X038970Y031572D01*
X038927Y031628D01*
X038871Y031671D01*
X038805Y031698D01*
X038735Y031707D01*
X038665Y031698D01*
X038599Y031671D01*
X038543Y031628D01*
X038500Y031572D01*
X038473Y031506D01*
X038464Y031436D01*
X038473Y031366D01*
X038500Y031300D01*
X038543Y031244D01*
X038599Y031201D01*
X038665Y031174D01*
X038735Y031164D01*
X038805Y031174D01*
X038871Y031201D01*
X038927Y031244D01*
X038970Y031300D01*
X038980Y031325D01*
X039434D01*
X039460Y031323D01*
X039483Y031278D01*
Y030849D01*
X039483D01*
X039475Y030802D01*
X039445Y030798D01*
X039380Y030771D01*
X039324Y030728D01*
X039281Y030672D01*
X039254Y030606D01*
X039244Y030536D01*
X039254Y030466D01*
X039281Y030400D01*
X039324Y030344D01*
X039380Y030301D01*
X039445Y030274D01*
X039516Y030264D01*
X039586Y030274D01*
X039651Y030301D01*
X039708Y030344D01*
X039751Y030400D01*
X039778Y030466D01*
X039783Y030504D01*
X039834Y030511D01*
X039854Y030464D01*
X039897Y030408D01*
X039953Y030365D01*
X040018Y030338D01*
X040089Y030329D01*
X040159Y030338D01*
X040224Y030365D01*
X040280Y030408D01*
X040324Y030464D01*
X040351Y030530D01*
X040360Y030600D01*
X040351Y030669D01*
X040520Y030838D01*
X040524Y030844D01*
X040660D01*
Y031356D01*
X040187D01*
Y030898D01*
X040149Y030863D01*
X040089Y030871D01*
X040044Y030866D01*
X039994Y030902D01*
Y031321D01*
X039572D01*
X039552Y031371D01*
X039660Y031479D01*
X039994D01*
Y031951D01*
D02*
G37*
G36*
X042916Y031473D02*
Y031236D01*
X043153D01*
X043121Y031312D01*
X043065Y031385D01*
X042992Y031442D01*
X042916Y031473D01*
D02*
G37*
G36*
X042716D02*
X042639Y031442D01*
X042566Y031385D01*
X042510Y031312D01*
X042478Y031236D01*
X042716D01*
Y031473D01*
D02*
G37*
G36*
X040200Y031600D02*
X040076D01*
Y031437D01*
X040200D01*
Y031600D01*
D02*
G37*
G36*
X027116Y032143D02*
X027023Y032131D01*
X026937Y032095D01*
X026863Y032039D01*
X026806Y031965D01*
X026770Y031878D01*
X026758Y031786D01*
X026770Y031693D01*
X026806Y031607D01*
X026863Y031533D01*
X026937Y031476D01*
X027023Y031441D01*
X027116Y031428D01*
X027208Y031441D01*
X027294Y031476D01*
X027368Y031533D01*
X027425Y031607D01*
X027461Y031693D01*
X027473Y031786D01*
X027461Y031878D01*
X027425Y031965D01*
X027368Y032039D01*
X027294Y032095D01*
X027208Y032131D01*
X027116Y032143D01*
D02*
G37*
G36*
X040100Y022137D02*
X040023Y022106D01*
X039950Y022050D01*
X039894Y021977D01*
X039863Y021900D01*
X040100D01*
Y022137D01*
D02*
G37*
G36*
X051400Y021837D02*
Y021600D01*
X051637D01*
X051606Y021677D01*
X051550Y021750D01*
X051477Y021806D01*
X051400Y021837D01*
D02*
G37*
G36*
X066600Y022250D02*
X066363D01*
X066394Y022173D01*
X066450Y022100D01*
X066523Y022044D01*
X066600Y022013D01*
Y022250D01*
D02*
G37*
G36*
X040300Y022137D02*
Y021900D01*
X040537D01*
X040506Y021977D01*
X040450Y022050D01*
X040377Y022106D01*
X040300Y022137D01*
D02*
G37*
G36*
X044100Y021837D02*
X044023Y021806D01*
X043950Y021750D01*
X043894Y021677D01*
X043863Y021600D01*
X044100D01*
Y021837D01*
D02*
G37*
G36*
X040537Y021700D02*
X040300D01*
Y021463D01*
X040377Y021494D01*
X040450Y021550D01*
X040506Y021623D01*
X040537Y021700D01*
D02*
G37*
G36*
X051200Y021837D02*
X051123Y021806D01*
X051050Y021750D01*
X050994Y021677D01*
X050963Y021600D01*
X051200D01*
Y021837D01*
D02*
G37*
G36*
X044300D02*
Y021600D01*
X044537D01*
X044506Y021677D01*
X044450Y021750D01*
X044377Y021806D01*
X044300Y021837D01*
D02*
G37*
G36*
X067037Y022250D02*
X066800D01*
Y022013D01*
X066877Y022044D01*
X066950Y022100D01*
X067006Y022173D01*
X067037Y022250D01*
D02*
G37*
G36*
X047300Y022737D02*
Y022500D01*
X047537D01*
X047506Y022577D01*
X047450Y022650D01*
X047377Y022706D01*
X047300Y022737D01*
D02*
G37*
G36*
X047100D02*
X047023Y022706D01*
X046950Y022650D01*
X046894Y022577D01*
X046863Y022500D01*
X047100D01*
Y022737D01*
D02*
G37*
G36*
X038403Y022836D02*
X038166D01*
Y022598D01*
X038242Y022630D01*
X038315Y022686D01*
X038371Y022759D01*
X038403Y022836D01*
D02*
G37*
G36*
X037966D02*
X037728D01*
X037760Y022759D01*
X037816Y022686D01*
X037889Y022630D01*
X037966Y022598D01*
Y022836D01*
D02*
G37*
G36*
X047537Y022300D02*
X047300D01*
Y022063D01*
X047377Y022094D01*
X047450Y022150D01*
X047506Y022223D01*
X047537Y022300D01*
D02*
G37*
G36*
X047100D02*
X046863D01*
X046894Y022223D01*
X046950Y022150D01*
X047023Y022094D01*
X047100Y022063D01*
Y022300D01*
D02*
G37*
G36*
X066800Y022687D02*
Y022450D01*
X067037D01*
X067006Y022527D01*
X066950Y022600D01*
X066877Y022656D01*
X066800Y022687D01*
D02*
G37*
G36*
X066600D02*
X066523Y022656D01*
X066450Y022600D01*
X066394Y022527D01*
X066363Y022450D01*
X066600D01*
Y022687D01*
D02*
G37*
G36*
X031100Y022047D02*
X031010Y022035D01*
X030926Y022001D01*
X030855Y021945D01*
X030799Y021874D01*
X030765Y021790D01*
X030753Y021700D01*
X030765Y021610D01*
X030799Y021526D01*
X030855Y021455D01*
X030926Y021399D01*
X031010Y021365D01*
X031100Y021353D01*
X031190Y021365D01*
X031252Y021391D01*
X031560Y021082D01*
X031541Y021036D01*
X031528D01*
Y020564D01*
X031921D01*
Y021036D01*
X031836D01*
Y021076D01*
X031827Y021118D01*
X031803Y021154D01*
X031409Y021548D01*
X031435Y021610D01*
X031447Y021700D01*
X031435Y021790D01*
X031401Y021874D01*
X031345Y021945D01*
X031274Y022001D01*
X031190Y022035D01*
X031100Y022047D01*
D02*
G37*
G36*
X029597Y020462D02*
X029400D01*
Y020285D01*
X029597D01*
Y020462D01*
D02*
G37*
G36*
X052500Y020937D02*
Y020700D01*
X052737D01*
X052706Y020777D01*
X052650Y020850D01*
X052577Y020906D01*
X052500Y020937D01*
D02*
G37*
G36*
X052300D02*
X052223Y020906D01*
X052150Y020850D01*
X052094Y020777D01*
X052063Y020700D01*
X052300D01*
Y020937D01*
D02*
G37*
G36*
X028500Y020462D02*
X028303D01*
Y020285D01*
X028500D01*
Y020462D01*
D02*
G37*
G36*
X028197D02*
X028000D01*
Y020285D01*
X028197D01*
Y020462D01*
D02*
G37*
G36*
X029200D02*
X029003D01*
Y020285D01*
X029200D01*
Y020462D01*
D02*
G37*
G36*
X028897D02*
X028700D01*
Y020285D01*
X028897D01*
Y020462D01*
D02*
G37*
G36*
X032900Y021112D02*
X032819Y021101D01*
X032744Y021070D01*
X032680Y021020D01*
X032630Y020956D01*
X032612Y020911D01*
X032472D01*
Y021036D01*
X032079D01*
Y020564D01*
X032472D01*
Y020689D01*
X032612D01*
X032630Y020644D01*
X032680Y020580D01*
X032744Y020530D01*
X032819Y020499D01*
X032900Y020488D01*
X032981Y020499D01*
X033056Y020530D01*
X033120Y020580D01*
X033170Y020644D01*
X033201Y020719D01*
X033212Y020800D01*
X033201Y020881D01*
X033170Y020956D01*
X033120Y021020D01*
X033056Y021070D01*
X032981Y021101D01*
X032900Y021112D01*
D02*
G37*
G36*
X034100Y022047D02*
X034010Y022035D01*
X033926Y022001D01*
X033855Y021945D01*
X033799Y021874D01*
X033765Y021790D01*
X033753Y021700D01*
X033765Y021610D01*
X033799Y021526D01*
X033855Y021455D01*
X033926Y021399D01*
X034010Y021365D01*
X034100Y021353D01*
X034190Y021365D01*
X034274Y021399D01*
X034345Y021455D01*
X034401Y021526D01*
X034435Y021610D01*
X034447Y021700D01*
X034435Y021790D01*
X034401Y021874D01*
X034345Y021945D01*
X034274Y022001D01*
X034190Y022035D01*
X034100Y022047D01*
D02*
G37*
G36*
X033100D02*
X033010Y022035D01*
X032926Y022001D01*
X032855Y021945D01*
X032799Y021874D01*
X032765Y021790D01*
X032753Y021700D01*
X032765Y021610D01*
X032799Y021526D01*
X032855Y021455D01*
X032926Y021399D01*
X033010Y021365D01*
X033100Y021353D01*
X033190Y021365D01*
X033274Y021399D01*
X033345Y021455D01*
X033401Y021526D01*
X033435Y021610D01*
X033447Y021700D01*
X033435Y021790D01*
X033401Y021874D01*
X033345Y021945D01*
X033274Y022001D01*
X033190Y022035D01*
X033100Y022047D01*
D02*
G37*
G36*
X040100Y021700D02*
X039863D01*
X039894Y021623D01*
X039950Y021550D01*
X040023Y021494D01*
X040100Y021463D01*
Y021700D01*
D02*
G37*
G36*
X035100Y022047D02*
X035010Y022035D01*
X034926Y022001D01*
X034855Y021945D01*
X034799Y021874D01*
X034765Y021790D01*
X034753Y021700D01*
X034765Y021610D01*
X034799Y021526D01*
X034855Y021455D01*
X034926Y021399D01*
X035010Y021365D01*
X035100Y021353D01*
X035190Y021365D01*
X035274Y021399D01*
X035345Y021455D01*
X035401Y021526D01*
X035435Y021610D01*
X035447Y021700D01*
X035435Y021790D01*
X035401Y021874D01*
X035345Y021945D01*
X035274Y022001D01*
X035190Y022035D01*
X035100Y022047D01*
D02*
G37*
G36*
X051200Y021400D02*
X050963D01*
X050994Y021323D01*
X051050Y021250D01*
X051123Y021194D01*
X051200Y021163D01*
Y021400D01*
D02*
G37*
G36*
X044537D02*
X044300D01*
Y021163D01*
X044377Y021194D01*
X044450Y021250D01*
X044506Y021323D01*
X044537Y021400D01*
D02*
G37*
G36*
X032100Y022047D02*
X032010Y022035D01*
X031926Y022001D01*
X031855Y021945D01*
X031799Y021874D01*
X031765Y021790D01*
X031753Y021700D01*
X031765Y021610D01*
X031799Y021526D01*
X031855Y021455D01*
X031926Y021399D01*
X032010Y021365D01*
X032100Y021353D01*
X032190Y021365D01*
X032274Y021399D01*
X032345Y021455D01*
X032401Y021526D01*
X032435Y021610D01*
X032447Y021700D01*
X032435Y021790D01*
X032401Y021874D01*
X032345Y021945D01*
X032274Y022001D01*
X032190Y022035D01*
X032100Y022047D01*
D02*
G37*
G36*
X051637Y021400D02*
X051400D01*
Y021163D01*
X051477Y021194D01*
X051550Y021250D01*
X051606Y021323D01*
X051637Y021400D01*
D02*
G37*
G36*
X066456Y026821D02*
X065944D01*
Y026349D01*
X066103D01*
X066121Y026321D01*
X066248Y026195D01*
X066238Y026170D01*
X066229Y026100D01*
X066238Y026030D01*
X066265Y025964D01*
X066308Y025908D01*
X066364Y025865D01*
X066430Y025838D01*
X066500Y025829D01*
X066570Y025838D01*
X066636Y025865D01*
X066692Y025908D01*
X066735Y025964D01*
X066762Y026030D01*
X066771Y026100D01*
X066762Y026170D01*
X066735Y026236D01*
X066692Y026292D01*
X066636Y026335D01*
X066570Y026362D01*
X066500Y026371D01*
X066494Y026371D01*
X066456Y026403D01*
Y026821D01*
D02*
G37*
G36*
X049303Y025786D02*
X049066D01*
Y025548D01*
X049142Y025580D01*
X049215Y025636D01*
X049271Y025709D01*
X049303Y025786D01*
D02*
G37*
G36*
X049066Y026223D02*
Y025986D01*
X049303D01*
X049271Y026062D01*
X049215Y026135D01*
X049142Y026192D01*
X049066Y026223D01*
D02*
G37*
G36*
X048866D02*
X048789Y026192D01*
X048716Y026135D01*
X048660Y026062D01*
X048628Y025986D01*
X048866D01*
Y026223D01*
D02*
G37*
G36*
X046782Y024757D02*
X046566D01*
Y024540D01*
X046782D01*
Y024757D01*
D02*
G37*
G36*
X051116D02*
X050899D01*
Y024540D01*
X051116D01*
Y024757D01*
D02*
G37*
G36*
X048866Y025786D02*
X048628D01*
X048660Y025709D01*
X048716Y025636D01*
X048789Y025580D01*
X048866Y025548D01*
Y025786D01*
D02*
G37*
G36*
X051532Y024757D02*
X051316D01*
Y024540D01*
X051532D01*
Y024757D01*
D02*
G37*
G36*
X061937Y026600D02*
X061700D01*
Y026363D01*
X061777Y026394D01*
X061850Y026450D01*
X061906Y026523D01*
X061937Y026600D01*
D02*
G37*
G36*
X038210Y027086D02*
X038016D01*
Y026892D01*
X038072Y026915D01*
X038137Y026965D01*
X038186Y027029D01*
X038210Y027086D01*
D02*
G37*
G36*
X037816D02*
X037622D01*
X037645Y027029D01*
X037695Y026965D01*
X037759Y026915D01*
X037816Y026892D01*
Y027086D01*
D02*
G37*
G36*
X052116Y027173D02*
Y026936D01*
X052353D01*
X052321Y027012D01*
X052265Y027085D01*
X052192Y027142D01*
X052116Y027173D01*
D02*
G37*
G36*
X051916D02*
X051839Y027142D01*
X051766Y027085D01*
X051710Y027012D01*
X051678Y026936D01*
X051916D01*
Y027173D01*
D02*
G37*
G36*
X052353Y026736D02*
X052116D01*
Y026498D01*
X052192Y026530D01*
X052265Y026586D01*
X052321Y026659D01*
X052353Y026736D01*
D02*
G37*
G36*
X051916D02*
X051678D01*
X051710Y026659D01*
X051766Y026586D01*
X051839Y026530D01*
X051916Y026498D01*
Y026736D01*
D02*
G37*
G36*
X061700Y027037D02*
Y026800D01*
X061937D01*
X061906Y026877D01*
X061850Y026950D01*
X061777Y027006D01*
X061700Y027037D01*
D02*
G37*
G36*
X061500D02*
X061423Y027006D01*
X061350Y026950D01*
X061294Y026877D01*
X061263Y026800D01*
X061500D01*
Y027037D01*
D02*
G37*
G36*
X046366Y024757D02*
X046149D01*
Y024540D01*
X046366D01*
Y024757D01*
D02*
G37*
G36*
X042032Y024240D02*
X041816D01*
Y024024D01*
X042032D01*
Y024240D01*
D02*
G37*
G36*
X065000Y023762D02*
X064803D01*
Y023585D01*
X065000D01*
Y023762D01*
D02*
G37*
G36*
X054937Y024300D02*
X054700D01*
Y024063D01*
X054777Y024094D01*
X054850Y024150D01*
X054906Y024223D01*
X054937Y024300D01*
D02*
G37*
G36*
X054500D02*
X054263D01*
X054294Y024223D01*
X054350Y024150D01*
X054423Y024094D01*
X054500Y024063D01*
Y024300D01*
D02*
G37*
G36*
X038166Y023273D02*
Y023036D01*
X038403D01*
X038371Y023112D01*
X038315Y023185D01*
X038242Y023242D01*
X038166Y023273D01*
D02*
G37*
G36*
X037966D02*
X037889Y023242D01*
X037816Y023185D01*
X037760Y023112D01*
X037728Y023036D01*
X037966D01*
Y023273D01*
D02*
G37*
G36*
X065000Y023385D02*
X064803D01*
Y023208D01*
X065000D01*
Y023385D01*
D02*
G37*
G36*
X065403Y023762D02*
X065353Y023762D01*
X065200D01*
Y023485D01*
Y023208D01*
X065353D01*
X065397Y023208D01*
X065447Y023208D01*
X065600D01*
Y023485D01*
Y023762D01*
X065447D01*
X065403Y023762D01*
D02*
G37*
G36*
X046782Y024340D02*
X046566D01*
Y024124D01*
X046782D01*
Y024340D01*
D02*
G37*
G36*
X041616Y024657D02*
X041399D01*
Y024440D01*
X041616D01*
Y024657D01*
D02*
G37*
G36*
X042032D02*
X041816D01*
Y024440D01*
X042032D01*
Y024657D01*
D02*
G37*
G36*
X054500Y024737D02*
X054423Y024706D01*
X054350Y024650D01*
X054294Y024577D01*
X054263Y024500D01*
X054500D01*
Y024737D01*
D02*
G37*
G36*
X054700D02*
Y024500D01*
X054937D01*
X054906Y024577D01*
X054850Y024650D01*
X054777Y024706D01*
X054700Y024737D01*
D02*
G37*
G36*
X051532Y024340D02*
X051316D01*
Y024124D01*
X051532D01*
Y024340D01*
D02*
G37*
G36*
X027909Y024676D02*
X027730D01*
Y024436D01*
X027909D01*
Y024676D01*
D02*
G37*
G36*
X028289D02*
X028109D01*
Y024436D01*
X028289D01*
Y024676D01*
D02*
G37*
%LPD*%
G36*
X067100Y013200D02*
X066950Y013050D01*
X065950D01*
X065800Y013200D01*
Y015050D01*
X067100D01*
Y013200D01*
D02*
G37*
D14*
X035000Y013524D02*
D03*
Y014076D02*
D03*
X035800Y014076D02*
D03*
Y013524D02*
D03*
X038000Y016524D02*
D03*
Y017076D02*
D03*
X049200Y014500D02*
D03*
Y013949D02*
D03*
Y013500D02*
D03*
Y012949D02*
D03*
X052900Y016924D02*
D03*
Y017476D02*
D03*
X055800Y015724D02*
D03*
Y016276D02*
D03*
X048500Y014476D02*
D03*
Y013924D02*
D03*
X025766Y023361D02*
D03*
Y022810D02*
D03*
Y024561D02*
D03*
Y024010D02*
D03*
X029716Y027260D02*
D03*
Y027811D02*
D03*
X028966Y027811D02*
D03*
Y027260D02*
D03*
X028266Y027811D02*
D03*
Y027260D02*
D03*
X027566Y027811D02*
D03*
Y027260D02*
D03*
X026866Y027811D02*
D03*
Y027260D02*
D03*
X026166Y027811D02*
D03*
Y027260D02*
D03*
X025466Y027836D02*
D03*
Y027285D02*
D03*
D34*
X032276Y020800D02*
D03*
X031724D02*
D03*
X054476Y014300D02*
D03*
X053924D02*
D03*
X054476Y013800D02*
D03*
X053924D02*
D03*
X056876Y016276D02*
D03*
X056324D02*
D03*
X056876Y015776D02*
D03*
X056324D02*
D03*
X055624Y017200D02*
D03*
X056176D02*
D03*
X057276D02*
D03*
X056724D02*
D03*
X058376Y030100D02*
D03*
X057824D02*
D03*
D36*
X061800Y019200D02*
Y021300D01*
X057600Y015000D02*
X061800Y019200D01*
X061400Y019101D02*
Y022200D01*
X057680Y015381D02*
X061400Y019101D01*
X061100Y019100D02*
Y022000D01*
X057776Y015776D02*
X061100Y019100D01*
X047445Y011200D02*
X047995Y011750D01*
X040200Y011200D02*
X047445D01*
X044000Y017854D02*
X044600Y017254D01*
Y014100D02*
X045000Y013700D01*
X044600Y014100D02*
Y017254D01*
X045000Y013700D02*
X046600Y015300D01*
X046660D01*
X046000Y013245D02*
Y014000D01*
Y013245D02*
X046005Y013250D01*
X039600Y011800D02*
X040200Y011200D01*
X039600Y011800D02*
Y013600D01*
X039100Y014100D02*
X039600Y013600D01*
X047494Y012406D02*
X047600Y012300D01*
X047945D01*
X047494Y012406D02*
Y014920D01*
X047995Y013250D02*
Y013419D01*
X048500Y013924D01*
X054476Y013800D02*
X055000Y014324D01*
Y015100D01*
X060200Y027115D02*
Y027286D01*
X055100Y015000D02*
X057600D01*
X055000Y015100D02*
X055100Y015000D01*
X055567Y015381D02*
X057680D01*
X056876Y015776D02*
X057776D01*
X049394Y015994D02*
X049600Y016200D01*
X049394Y015774D02*
Y015994D01*
X039800Y019900D02*
X044000D01*
X039500Y020200D02*
X039800Y019900D01*
X031600Y020200D02*
X039500D01*
X030100Y021700D02*
X031600Y020200D01*
X051541Y018541D02*
X052100Y019100D01*
X051541Y016359D02*
X051800Y016100D01*
X051541Y016359D02*
Y018541D01*
X049900Y011600D02*
X051500D01*
X034900Y014600D02*
X035000Y014500D01*
Y014176D02*
Y014500D01*
Y014176D02*
X035100Y014076D01*
X035800D01*
X036376Y014100D02*
X037100D01*
X035900Y013624D02*
X036376Y014100D01*
X035900Y013524D02*
Y013624D01*
X047868Y015400D02*
X048560D01*
X047594Y015674D02*
X047868Y015400D01*
X047494Y015674D02*
X047594D01*
X065518Y026232D02*
Y030007D01*
Y026232D02*
X065800Y025950D01*
X065359Y025890D02*
X065768Y025481D01*
X065359Y025890D02*
Y029941D01*
X062232Y033068D02*
X065359Y029941D01*
X062166Y032909D02*
X065200Y029875D01*
Y024600D02*
Y029875D01*
X025860Y020815D02*
X027200D01*
X024510Y022165D02*
Y031935D01*
Y022165D02*
X025860Y020815D01*
X025166Y021734D02*
X025534D01*
X024669Y022231D02*
X025166Y021734D01*
X024669Y022231D02*
Y031869D01*
X025559Y015041D02*
X038441D01*
X024741Y015859D02*
X025559Y015041D01*
X038441D02*
X039100Y015700D01*
X024741Y015859D02*
Y020449D01*
X025100Y020808D01*
Y020982D01*
X036600Y015200D02*
X037100Y015700D01*
X025800Y015200D02*
X036600D01*
X025100Y015900D02*
X025800Y015200D01*
X025100Y015900D02*
Y020300D01*
Y020982D02*
Y020988D01*
X025182Y021070D01*
X024351Y021900D02*
X025182Y021070D01*
X038876Y016200D02*
X039300D01*
X038000Y017076D02*
X038876Y016200D01*
X038000Y016524D02*
X038824Y015700D01*
X039100D01*
X036576Y018500D02*
X038000Y017076D01*
X031900Y018500D02*
X036576D01*
X026000Y019600D02*
X029800D01*
X030000Y019800D01*
X033119Y017501D02*
X035899D01*
X035900Y017500D01*
X043800Y021200D02*
X048900Y016100D01*
X036600Y021200D02*
X043800D01*
X036100Y021700D02*
X036600Y021200D01*
X048900Y014249D02*
Y016100D01*
Y014249D02*
X049200Y013949D01*
Y013500D02*
Y013949D01*
X029600Y020800D02*
X031900Y018500D01*
X057541Y032909D02*
X062166D01*
X057475Y033068D02*
X062232D01*
X057409Y033227D02*
X062298D01*
X057343Y033386D02*
X062364D01*
X057277Y033545D02*
X062430D01*
X057015Y033704D02*
X062496D01*
X024829Y031753D02*
X026234Y033159D01*
X024669Y031869D02*
X026118Y033318D01*
X024510Y031935D02*
X026052Y033477D01*
X024351Y032001D02*
X025986Y033636D01*
X026118Y033318D02*
X056500D01*
X026052Y033477D02*
X056566D01*
X056632Y033636D02*
X056868Y033400D01*
X025986Y033636D02*
X056632D01*
X057396Y032764D02*
X057541Y032909D01*
X056604Y032764D02*
X057396D01*
X056368Y033000D02*
X056604Y032764D01*
X026300Y033000D02*
X056368D01*
X057330Y032923D02*
X057475Y033068D01*
X056670Y032923D02*
X057330D01*
X056434Y033159D02*
X056670Y032923D01*
X026234Y033159D02*
X056434D01*
X057264Y033082D02*
X057409Y033227D01*
X056736Y033082D02*
X057264D01*
X056500Y033318D02*
X056736Y033082D01*
X057198Y033241D02*
X057343Y033386D01*
X056802Y033241D02*
X057198D01*
X056566Y033477D02*
X056802Y033241D01*
X057132Y033400D02*
X057277Y033545D01*
X056868Y033400D02*
X057132D01*
X024988Y031688D02*
X026300Y033000D01*
X057000Y033719D02*
X057015Y033704D01*
X044689Y032021D02*
X044764Y031945D01*
X042814Y032021D02*
X044689D01*
X041839Y031046D02*
X042814Y032021D01*
X024829Y026271D02*
Y031753D01*
X024988Y026712D02*
Y031688D01*
X025147Y027604D02*
Y029767D01*
Y027604D02*
X025466Y027285D01*
X025147Y029767D02*
X025735Y030355D01*
X024988Y026712D02*
X025700Y026000D01*
X024829Y026271D02*
X025381Y025719D01*
X024351Y021900D02*
Y032001D01*
X025381Y025700D02*
Y025719D01*
X025700Y025500D02*
Y026000D01*
X025300Y025100D02*
X025700Y025500D01*
X025300Y022200D02*
Y025100D01*
X025590Y025086D02*
X025766Y024910D01*
Y024561D02*
Y024910D01*
X025590Y025086D02*
X025766D01*
X026416Y025017D02*
Y025186D01*
X041184Y031700D02*
X041839Y031046D01*
X025766Y023361D02*
Y024010D01*
X026334Y024578D01*
X026566Y023586D02*
Y024180D01*
X031150Y019935D02*
X036308D01*
X029595Y021491D02*
X031150Y019935D01*
X029595Y021491D02*
Y022005D01*
X029300Y022300D02*
X029595Y022005D01*
X026100Y022300D02*
X029300D01*
X025534Y021734D02*
X026100Y022300D01*
X027590Y022810D02*
X028516Y023736D01*
X025766Y022810D02*
X027590D01*
X039200Y017200D02*
X040500Y015900D01*
X039043Y017200D02*
X039200D01*
X036308Y019935D02*
X039043Y017200D01*
X040500Y015900D02*
X040509D01*
X042362Y015259D02*
X042647Y014974D01*
X041419Y015259D02*
X042362D01*
X035838Y024013D02*
X036232Y024408D01*
X028266Y027811D02*
Y028036D01*
X048913Y023767D02*
Y023973D01*
X055800Y016276D02*
X056445D01*
X025716Y029486D02*
X026452Y030222D01*
X028413Y029383D02*
Y029889D01*
X042500Y017530D02*
X042800Y017830D01*
X026386Y030382D02*
X028071D01*
X056876Y016276D02*
X057700D01*
X053924Y014424D02*
X054000Y014500D01*
X059100Y024300D02*
X060005D01*
X035700Y011800D02*
X037300D01*
X042500Y017530D02*
Y017695D01*
X056630Y025900D02*
Y026530D01*
Y025800D02*
Y025900D01*
X067233Y016033D02*
Y018585D01*
X066944Y018874D02*
X067233Y018585D01*
X067100Y015900D02*
X067233Y016033D01*
X029315Y020800D02*
X029600D01*
X031100Y021700D02*
X031724Y021076D01*
Y020800D02*
Y021076D01*
X032276Y020800D02*
X032900D01*
X032900Y020800D01*
X041100Y015578D02*
X041419Y015259D01*
X051000Y013500D02*
Y013755D01*
X050400Y012900D02*
Y013051D01*
X050276Y013176D02*
X050400Y013051D01*
X058100Y013900D02*
Y014500D01*
X027900Y021500D02*
X028100Y021700D01*
X027900Y020815D02*
Y021500D01*
X028600Y020815D02*
X029300D01*
X027900D02*
X028600D01*
X027200D02*
X027900D01*
X029300D02*
X029315Y020800D01*
X059100Y023033D02*
Y024300D01*
Y023033D02*
X059633Y022500D01*
X059700Y024700D02*
X059750Y024750D01*
X058691Y025091D02*
X060200Y026600D01*
X048500Y014476D02*
X048560Y014536D01*
Y015400D01*
X042800Y017830D02*
X042824Y017854D01*
X044000D01*
X043500Y015885D02*
Y015900D01*
X043215Y015600D02*
X043500Y015885D01*
X043100Y015485D02*
X043215Y015600D01*
X043100Y014301D02*
Y015485D01*
Y011899D02*
Y014301D01*
X041100Y015578D02*
Y016200D01*
X040509Y015900D02*
X040809Y016200D01*
X041100D01*
X047945Y012300D02*
X047995Y012250D01*
X054168Y019189D02*
Y019768D01*
X054011Y019032D02*
X054168Y019189D01*
X054009Y019255D02*
Y020055D01*
X053945Y019191D02*
X054009Y019255D01*
X053557Y019191D02*
X053945D01*
X054432Y020032D02*
X058544D01*
X054145Y020191D02*
X055903D01*
X054168Y019768D02*
X054432Y020032D01*
X056200Y017700D02*
Y018800D01*
X055465Y018700D02*
X056265Y019500D01*
X054000Y014469D02*
Y014500D01*
X053924Y014300D02*
Y014424D01*
Y014300D02*
X053924Y014300D01*
Y013800D02*
Y014300D01*
X054476Y014300D02*
Y014445D01*
X054500Y014469D01*
X060800Y019200D02*
Y021800D01*
X057876Y016276D02*
X060800Y019200D01*
X060600Y022500D02*
X061100Y022000D01*
X059897Y022500D02*
X060600D01*
X060300Y022300D02*
X060800Y021800D01*
X059608Y022300D02*
X060300D01*
X058691Y023217D02*
X059608Y022300D01*
X059897Y022500D02*
X059897Y022500D01*
X059633Y022500D02*
X059897D01*
X058691Y023217D02*
Y025091D01*
X060200Y026600D02*
Y027286D01*
X060781Y022819D02*
X061400Y022200D01*
X059765Y022819D02*
X060781D01*
X055508Y015321D02*
X055567Y015381D01*
X060200Y027286D02*
X060200Y027286D01*
X056400Y016299D02*
X056421D01*
X056445Y016276D01*
X056176Y017200D02*
X056724D01*
X059750Y024750D02*
X060005D01*
X058544Y020032D02*
X058962Y020450D01*
X055903Y020191D02*
X056162Y020450D01*
X052205Y017476D02*
X052900D01*
X052081Y017600D02*
X052205Y017476D01*
X054324Y018900D02*
X055000D01*
X052900Y017476D02*
X054324Y018900D01*
X053623Y019032D02*
X054011D01*
X052100Y017100D02*
X052276Y016924D01*
X052900D01*
X053114Y018748D02*
X053557Y019191D01*
X053114Y018481D02*
Y018748D01*
X055000Y018900D02*
X055200Y019100D01*
X052882Y018741D02*
X053665Y019524D01*
X052241Y018741D02*
X052882D01*
X055200Y019100D02*
Y019498D01*
X053433Y018600D02*
Y018842D01*
X053623Y019032D01*
X053665Y019524D02*
Y019700D01*
X054009Y020055D02*
X054145Y020191D01*
X052833Y018200D02*
X053114Y018481D01*
X052100Y019100D02*
X052733D01*
Y019291D01*
X058370Y027025D02*
X058995Y027650D01*
X058370Y026000D02*
Y027025D01*
X056630Y026530D02*
X056800Y026700D01*
X057005Y027150D02*
Y027650D01*
Y026905D02*
Y027150D01*
X056800Y026700D02*
X057005Y026905D01*
X054600Y026700D02*
Y028400D01*
X054350Y028650D02*
X054600Y028400D01*
X054105Y028650D02*
X054350D01*
X057500Y026700D02*
Y028400D01*
X057250Y028650D02*
X057500Y028400D01*
X057005Y028650D02*
X057250D01*
X055200Y019498D02*
X055202Y019500D01*
X051700Y018200D02*
X052241Y018741D01*
X051700Y016800D02*
Y018200D01*
X052100Y017100D02*
X052291D01*
X051700Y016800D02*
X051900Y016600D01*
X052602Y019422D02*
X052733Y019291D01*
X052602Y019422D02*
Y019700D01*
X025716Y028315D02*
Y028506D01*
Y028315D02*
X025879Y028151D01*
X025943Y027565D02*
X027788D01*
X026866Y027260D02*
X027566D01*
X028516Y024486D02*
X029716Y025686D01*
X028866Y024036D02*
Y024186D01*
X035244Y028227D02*
Y028808D01*
X035116Y028936D02*
X035244Y028808D01*
Y028227D02*
X035308Y028163D01*
X035477Y028436D02*
X035913D01*
X036293Y028816D01*
X035988Y028163D02*
X036231Y027921D01*
X035308Y028163D02*
X035988D01*
X032506Y024585D02*
X032525Y024566D01*
X031585Y024585D02*
X032506D01*
X032525Y024566D02*
X032577D01*
X031185Y024186D02*
X031585Y024585D01*
X039994Y028227D02*
Y028651D01*
X039066Y028816D02*
X039829D01*
X039994Y028651D01*
X050046Y028156D02*
X050166Y028036D01*
Y027850D02*
Y028036D01*
Y027850D02*
X050453D01*
X050144Y023544D02*
Y024107D01*
X049866Y024385D02*
X050144Y024107D01*
X049677Y024385D02*
X049866D01*
X049677Y024386D02*
X049677Y024385D01*
X040321Y024386D02*
X040616Y024091D01*
Y023473D02*
Y024091D01*
Y023473D02*
X040782Y023306D01*
X035266Y023879D02*
X035400Y024013D01*
X035266Y023493D02*
Y023879D01*
X035158Y023385D02*
X035266Y023493D01*
X049009Y027185D02*
X049139Y027314D01*
X033866Y023932D02*
X033912Y023978D01*
X033601Y023667D02*
X033866Y023932D01*
X033801Y027821D02*
X034916D01*
X033416Y027436D02*
X033801Y027821D01*
X037635Y026617D02*
X043448D01*
X037016Y027236D02*
X037635Y026617D01*
X037016Y027236D02*
Y027782D01*
X038616Y027136D02*
Y028366D01*
X039566Y027136D02*
Y027167D01*
X039547Y027186D02*
X039566Y027167D01*
X039547Y027186D02*
X039666Y027305D01*
Y027821D01*
X039016Y028236D02*
X039451D01*
X028516Y023736D02*
Y024486D01*
X043448Y026617D02*
X043467Y026636D01*
X051416D01*
X052135Y025917D01*
X029716Y027342D02*
X030216Y027842D01*
X029716Y027260D02*
Y027342D01*
X052135Y024063D02*
Y025917D01*
X051477Y023406D02*
X052135Y024063D01*
X050282Y023406D02*
X051477D01*
X050555Y024386D02*
X051209Y023732D01*
X050485D02*
X051209D01*
X051239Y030542D02*
X052285Y029496D01*
Y029054D02*
Y029496D01*
X052098Y028867D02*
X052285Y029054D01*
X051563Y028867D02*
X052098D01*
X048913Y023973D02*
X049116Y023771D01*
X048434Y023767D02*
X048913D01*
X050118Y024386D02*
X050555D01*
X049711Y024793D02*
X050118Y024386D01*
X048009Y024793D02*
X049711D01*
X050499Y027896D02*
X051239D01*
X046791Y023576D02*
X048009Y024793D01*
X049444Y028263D02*
X049552Y028156D01*
X049444Y028263D02*
Y028687D01*
X049316Y028816D02*
X049444Y028687D01*
X048566Y028816D02*
X049316D01*
X029716Y029151D02*
Y029635D01*
X029016Y029151D02*
Y029835D01*
X028464Y030386D02*
X029016Y029835D01*
X028067Y030386D02*
X028464D01*
X031585Y023531D02*
X032309D01*
X031531Y023586D02*
X031585Y023531D01*
X036355Y024286D02*
X036361D01*
X034751Y024136D02*
X034916Y024301D01*
X041055Y024286D02*
X041061D01*
X041661Y023686D01*
X040931D02*
X041661D01*
X039501Y024186D02*
X039616Y024301D01*
X045805Y028436D02*
X045811D01*
X046411Y027836D01*
X045681D02*
X046411D01*
X044151Y028236D02*
X044366Y028451D01*
X043716Y028236D02*
X044151D01*
X041105Y028436D02*
X041111D01*
X040981Y027836D02*
X041711D01*
X039451Y028236D02*
X039666Y028451D01*
X036355Y028436D02*
X036361D01*
X036231Y027836D02*
X036961D01*
X034751Y028286D02*
X034916Y028451D01*
X045805Y024386D02*
X045811D01*
X046411Y023786D01*
X045681D02*
X046411D01*
X043931Y024401D02*
X044366D01*
X043716Y024186D02*
X043931Y024401D01*
X041178Y031700D02*
X041184D01*
X041108Y031046D02*
X041839D01*
X041053Y031100D02*
X041108Y031046D01*
X045878Y031700D02*
X045884D01*
X045753Y031100D02*
X046484D01*
X044004Y031715D02*
X044439D01*
X050578Y031700D02*
X051232Y031046D01*
X050508D02*
X051232D01*
X050453Y031100D02*
X050508Y031046D01*
X048974Y031550D02*
X049139Y031715D01*
X050578Y028450D02*
X050684D01*
X051239Y027896D01*
X050453Y027850D02*
X050499Y027896D01*
X048924Y028250D02*
X049139Y028465D01*
X048489Y028250D02*
X048924D01*
X049464Y031700D02*
X049700D01*
X049464D02*
Y031945D01*
X044764Y031700D02*
X045000D01*
X040857Y023686D02*
X040931D01*
X030777Y024186D02*
X031185D01*
X036157Y023686D02*
X036231D01*
X040646Y024286D02*
X041055D01*
X040177D02*
X040257D01*
X035477D02*
X035885D01*
X034413Y023385D02*
X035158D01*
X035400Y024013D02*
X035838D01*
X045368Y024386D02*
X045805D01*
X044927D02*
X045143D01*
Y024221D02*
Y024386D01*
Y024221D02*
X045337Y024028D01*
Y023601D02*
Y024028D01*
Y023601D02*
X045532Y023406D01*
X030066Y023086D02*
X030164D01*
X030434Y022817D01*
X030698D01*
X031467Y023586D01*
X031531D01*
X034916Y023671D02*
Y023836D01*
X035158Y024015D02*
X035222Y024078D01*
Y024523D01*
X039389Y023898D02*
X039616Y023671D01*
X039260Y023898D02*
X039389D01*
X039229Y023867D02*
X039260Y023898D01*
X038834Y023867D02*
X039229D01*
X038647Y024054D02*
X038834Y023867D01*
X043016Y025030D02*
Y025036D01*
X035477Y024286D02*
Y024575D01*
X035279Y024772D02*
X035477Y024575D01*
X043016Y025030D02*
X043210Y024836D01*
X044918D02*
X045368Y024386D01*
X041977Y023306D02*
X042041Y023370D01*
Y023667D01*
X043210Y024836D01*
X044139Y023998D02*
X044366Y023771D01*
X044035Y023998D02*
X044139D01*
X043903Y023867D02*
X044035Y023998D01*
X043584Y023867D02*
X043903D01*
X043397Y024054D02*
X043584Y023867D01*
X043397Y024054D02*
Y024489D01*
X043369Y024517D02*
X043397Y024489D01*
X043210Y024836D02*
X044918D01*
X047666Y025136D02*
X048009Y024793D01*
X035279Y024772D02*
Y024917D01*
X045532Y023406D02*
X046727D01*
X046791Y023470D01*
Y023576D01*
X048566Y024086D02*
X048801D01*
X049116Y024401D01*
X048247Y023954D02*
X048434Y023767D01*
X048247Y023954D02*
Y024305D01*
X048116Y024436D02*
X048247Y024305D01*
X049552Y028156D02*
X050046D01*
X045266Y028786D02*
X046174D01*
X045266Y028775D02*
Y028786D01*
X044927Y028436D02*
X045266Y028775D01*
X044529Y028816D02*
X044694Y028651D01*
Y028227D02*
Y028651D01*
Y028227D02*
X044758Y028163D01*
X045353D01*
X045681Y027836D01*
X049139Y027314D02*
Y027835D01*
X047966Y027236D02*
Y028216D01*
X048566Y028816D01*
X044166Y027036D02*
X044366Y027236D01*
Y027821D01*
X043316Y026936D02*
Y028316D01*
X043816Y028816D02*
X044529D01*
X039994Y028227D02*
X040058Y028163D01*
X040653D01*
X040981Y027836D01*
X033866Y023932D02*
X034413Y023385D01*
X034759Y024986D02*
X035222Y024523D01*
X034409Y024636D02*
X034759Y024986D01*
X034330Y024715D02*
X034409Y024636D01*
X034366Y024136D02*
X034751D01*
X034854Y024015D02*
X035158D01*
X034817Y023977D02*
X034854Y024015D01*
X034775Y023977D02*
X034817D01*
X034775D02*
X034916Y023836D01*
X034272Y024715D02*
X034330D01*
X033912Y023978D02*
Y024398D01*
X036231Y027836D02*
Y027921D01*
X049700Y028450D02*
X050179Y028930D01*
X051500D01*
X051563Y028867D01*
X051239Y030542D02*
Y031046D01*
X048966Y030486D02*
Y030912D01*
X049139Y031085D01*
X045766Y029736D02*
X046539Y030509D01*
Y031046D01*
X044116Y030236D02*
Y030762D01*
X044439Y031085D01*
X041053Y030574D02*
Y031100D01*
X039739Y030659D02*
Y031085D01*
X026334Y024578D02*
Y024935D01*
X026416Y025017D01*
X025466Y027285D02*
X026141D01*
X026166Y027260D01*
X026866D01*
X027566D02*
X028266D01*
X028966D01*
X029716Y027811D02*
Y028521D01*
X029716Y028521D01*
X029016D02*
X029716D01*
X028166Y028506D02*
X028181Y028521D01*
X026516Y028506D02*
X027366D01*
X027637D01*
X027939Y028807D01*
X029372D02*
X029716Y029151D01*
X027894Y029136D02*
X028166D01*
X027044D02*
X027366D01*
X026758Y028850D02*
X027044Y029136D01*
X026274Y028850D02*
X026758D01*
X025987Y029136D02*
X026274Y028850D01*
X028966Y027811D02*
Y028036D01*
X027566Y027811D02*
Y028036D01*
X026166Y027811D02*
X026216Y027861D01*
X025866Y029136D02*
X025987D01*
X027366D02*
X027366Y029136D01*
X026516D02*
X026802Y029422D01*
X025466Y027836D02*
Y028036D01*
X026216Y027861D02*
Y028036D01*
X028181Y028521D02*
X029016D01*
X027608Y029422D02*
X027894Y029136D01*
X029716Y028521D02*
Y028865D01*
X030216Y027842D02*
Y028536D01*
X028966Y028036D02*
X028966Y028036D01*
X027566Y028036D02*
X027566Y028036D01*
X028216Y028036D02*
X028266D01*
X028166Y029136D02*
X028413Y029383D01*
X027939Y028807D02*
X029372D01*
X026802Y029422D02*
X027608D01*
X028413Y029889D02*
X028459Y029936D01*
X025566Y029636D02*
X025716Y029486D01*
Y029136D02*
Y029486D01*
X025735Y030355D02*
X026360D01*
X026516Y029136D02*
Y029835D01*
X026584Y029903D01*
X028009Y024336D02*
X028109Y024237D01*
X026566Y024180D02*
X026722Y024336D01*
X025879Y027628D02*
Y028151D01*
Y027628D02*
X025943Y027565D01*
X027788D02*
X027885Y027661D01*
Y028506D02*
X028166D01*
X027885Y027661D02*
Y028506D01*
X030101Y023686D02*
X030216Y023571D01*
X030001Y024201D02*
X030216D01*
X029566Y024236D02*
X029966D01*
X030001Y024201D01*
X028459Y029936D02*
X028511Y029885D01*
X029014Y030336D02*
X029716Y029635D01*
X029616Y030286D02*
X029666D01*
X028511Y029885D02*
X028514D01*
X028966Y030336D02*
X029014D01*
X031655Y024186D02*
X032309Y023531D01*
X032641Y024259D02*
X033234Y023667D01*
X033601D01*
X036231Y023686D02*
X036961D01*
X038647Y024054D02*
Y024567D01*
X038966Y024186D02*
X039501D01*
X038647Y024567D02*
X038666Y024586D01*
X036361Y024286D02*
X036961Y023686D01*
X036232Y024408D02*
X036355Y024286D01*
X036265Y024666D02*
X037277D01*
X035885Y024286D02*
X036265Y024666D01*
X037277D02*
X037557Y024386D01*
X032577Y024566D02*
X032641Y024502D01*
Y024259D02*
Y024502D01*
X029716Y028865D02*
X029958D01*
X030022Y028928D01*
X029666Y030286D02*
X030022Y029930D01*
Y028928D02*
Y029930D01*
X034316Y028286D02*
X034751D01*
X034216Y028186D02*
X034316Y028286D01*
X034016Y028186D02*
X034216D01*
X036361Y028436D02*
X036961Y027836D01*
X038616Y028366D02*
X039066Y028816D01*
X037727Y028366D02*
X038616D01*
X037277Y028816D02*
X037727Y028366D01*
X036293Y028816D02*
X037277D01*
X041111Y028436D02*
X041711Y027836D01*
X043316Y028316D02*
X043816Y028816D01*
X042527Y028316D02*
X043316D01*
X042027Y028816D02*
X042527Y028316D01*
X047327Y028216D02*
X047966D01*
X046727Y028816D02*
X047327Y028216D01*
X046204Y028816D02*
X046727D01*
X046174Y028786D02*
X046204Y028816D01*
X039616Y030536D02*
X039739Y030659D01*
X039516Y030536D02*
X039616D01*
X040227Y028436D02*
X040663D01*
X041043Y028816D01*
X042027D01*
X040866Y030386D02*
X041053Y030574D01*
X040866Y030286D02*
Y030386D01*
X043694Y031405D02*
X044004Y031715D01*
X043466Y031405D02*
X043694D01*
X048202Y031550D02*
X048974D01*
X048897Y032001D02*
X049381D01*
X049436Y031945D01*
X049464D01*
X048166Y031586D02*
X048202Y031550D01*
X050431Y023786D02*
X050485Y023732D01*
X050144Y023544D02*
X050282Y023406D01*
X028866Y024036D02*
X029216Y023686D01*
X030101D01*
X029366Y024036D02*
X029566Y024236D01*
X029716Y025686D02*
Y027260D01*
X040782Y023306D02*
X041977D01*
X037557Y024386D02*
X038014D01*
X040177Y024286D02*
X040277Y024386D01*
X040321D01*
X038014D02*
X038534Y024905D01*
X038798D01*
X039017Y024686D01*
X040246D01*
X040646Y024286D01*
X045884Y031700D02*
X046484Y031100D01*
X038735Y031436D02*
X039459D01*
X039739Y031715D01*
X048841Y031945D02*
X048897Y032001D01*
X046539Y031046D02*
X047438Y031945D01*
X048841D01*
X044764Y031700D02*
Y031945D01*
X026979Y030222D02*
X027166Y030036D01*
X028067Y030386D02*
X028071Y030382D01*
X026360Y030355D02*
X026386Y030382D01*
X026452Y030222D02*
X026979D01*
X058600Y014250D02*
X063500D01*
X065100Y024076D02*
X065600D01*
X051319Y015319D02*
X052230D01*
X049200Y014500D02*
X049400D01*
X050400Y013500D01*
X050378Y014378D02*
X050700Y014055D01*
X051000Y013755D01*
X050378Y014378D02*
X050700Y014700D01*
X051319Y015319D01*
X052219Y014519D02*
X052400Y014700D01*
X052378Y014178D02*
X052900Y014700D01*
X051900Y012000D02*
Y014500D01*
X052378Y012028D02*
Y014178D01*
X052219Y012094D02*
Y014519D01*
X037300Y011800D02*
X038100Y012600D01*
X040509Y015900D02*
Y017500D01*
X040000Y017300D02*
Y018500D01*
X040200Y018700D01*
X052230Y015319D02*
X052297Y015252D01*
X066400Y024154D02*
X066950D01*
X062298Y033227D02*
X065518Y030007D01*
X066044Y023263D02*
X066307Y023000D01*
X066400D01*
X066044Y023707D02*
X066108Y023771D01*
X066044Y023263D02*
Y023707D01*
X066108Y023771D02*
X067135D01*
X065700Y024400D02*
X065719Y024419D01*
X066219D01*
X065800Y025900D02*
Y025950D01*
X066274Y024974D02*
X066300Y025000D01*
X065768Y025481D02*
X066274Y024974D01*
X065768Y025481D02*
Y025481D01*
X065800Y025900D02*
X065900D01*
X066200Y026400D02*
Y026585D01*
Y026400D02*
X066500Y026100D01*
X066619Y024819D02*
Y025181D01*
X066219Y024419D02*
X066619Y024819D01*
X065900Y025900D02*
X066619Y025181D01*
X062430Y033545D02*
X067278Y028697D01*
X067119Y024323D02*
Y028631D01*
X062364Y033386D02*
X067119Y028631D01*
X062496Y033704D02*
X067437Y028763D01*
Y023044D02*
Y028763D01*
X067278Y023915D02*
Y028697D01*
X066950Y024154D02*
X067119Y024323D01*
X067135Y023771D02*
X067278Y023915D01*
X067300Y022907D02*
X067437Y023044D01*
X051591Y011241D02*
X052378Y012028D01*
X051525Y011400D02*
X052219Y012094D01*
X051500Y011600D02*
X051900Y012000D01*
X039300Y016200D02*
X039800Y015700D01*
Y012000D02*
Y015700D01*
Y012000D02*
X040300Y011500D01*
X042701D01*
X043100Y011899D01*
X055800Y015724D02*
X056300D01*
X052900Y016924D02*
X053244Y017268D01*
Y017268D01*
X053240Y017272D02*
X053244Y017268D01*
X053240Y017272D02*
Y017460D01*
X054480Y018700D01*
X055465D01*
X048600Y012600D02*
X048900D01*
X049900Y011600D01*
X049259Y011241D02*
X051591D01*
X048700Y011800D02*
X049259Y011241D01*
X049200Y011800D02*
X049600Y011400D01*
X051525D01*
D37*
X065705Y020495D02*
X066110Y020090D01*
X065300Y020900D02*
X065705Y020495D01*
X065300Y020900D02*
X066110Y020090D01*
X062500Y019600D02*
Y024815D01*
X057691Y014791D02*
X062500Y019600D01*
X060200Y027115D02*
X062500Y024815D01*
X052266Y011032D02*
X056025Y014791D01*
X057691D01*
X048713Y011032D02*
X052266D01*
X047995Y011750D02*
X048713Y011032D01*
X046005Y011750D02*
Y012250D01*
Y012750D01*
X045000Y013685D02*
X045935Y012750D01*
X045000Y013685D02*
Y013700D01*
X045935Y012750D02*
X046005D01*
X066350Y023485D02*
X066950D01*
X066450Y017142D02*
X066944Y017635D01*
X066110Y018500D02*
Y020090D01*
X066944Y017635D02*
Y018120D01*
X049200Y012949D02*
X049549D01*
X049600Y013000D01*
X049200Y012600D02*
Y012949D01*
X066200Y027215D02*
Y027500D01*
D38*
X030866Y026538D02*
Y030143D01*
X029722Y031286D02*
X030866Y030143D01*
X031075Y026777D02*
Y030721D01*
X030510Y031286D02*
X031075Y030721D01*
X034287Y028686D02*
Y029871D01*
X032872Y031286D02*
X034287Y029871D01*
X035509Y029436D02*
X037216D01*
X033659Y031286D02*
X035509Y029436D01*
X048116Y032536D02*
X048366Y032286D01*
X037277Y032536D02*
X048116D01*
X036027Y031286D02*
X037277Y032536D01*
X029316Y024536D02*
Y025026D01*
X035316Y027336D02*
X035366D01*
X035316D02*
X036219Y026433D01*
X030866Y026538D02*
X033366Y024038D01*
X040066Y027286D02*
X040351Y027571D01*
X036219Y026433D02*
X043524D01*
X043527Y026436D02*
X050516D01*
X043524Y026433D02*
X043527Y026436D01*
X050516D02*
X051816Y025136D01*
X028935Y031286D02*
X029591Y030630D01*
X029758D01*
X045051Y027571D02*
Y027836D01*
X040351Y027571D02*
Y027836D01*
X035601Y027571D02*
Y027836D01*
X035366Y027336D02*
X035601Y027571D01*
X049801Y023621D02*
Y023786D01*
X049466Y023286D02*
X049801Y023621D01*
X044766Y023501D02*
X045051Y023786D01*
X044766Y023286D02*
Y023501D01*
X049824Y030935D02*
Y031100D01*
X045124Y031085D02*
Y031100D01*
X044789Y030750D02*
X045124Y031085D01*
X044789Y030650D02*
Y030750D01*
X040424Y030935D02*
Y031100D01*
X040089Y030600D02*
X040424Y030935D01*
X049489Y027350D02*
X049824Y027685D01*
Y027850D01*
X049801Y023786D02*
X049864Y023850D01*
X044766Y027286D02*
X045051Y027571D01*
X040301Y023571D02*
Y023686D01*
X030566Y023251D02*
X030901Y023586D01*
X030566Y023136D02*
Y023251D01*
X035366Y023136D02*
X035601Y023371D01*
Y023686D01*
X050552Y030600D02*
X051966Y029186D01*
X039966Y023236D02*
X040301Y023571D01*
X033366Y023986D02*
Y024038D01*
X029758Y030630D02*
X030560Y029828D01*
Y027344D02*
Y029828D01*
X031075Y026777D02*
X032666Y025186D01*
X035062D01*
X035147Y025271D01*
X037952Y025186D02*
X042266D01*
X037658Y025480D02*
X037952Y025186D01*
X032684Y025480D02*
X037658D01*
X031305Y026859D02*
X032684Y025480D01*
X031289Y026859D02*
X031305D01*
X031289D02*
Y031275D01*
X031300Y031286D01*
X032090Y026370D02*
Y031286D01*
X037216Y029436D02*
X037916Y028736D01*
X042368D02*
X042566D01*
X042104Y029000D02*
X042368Y028736D01*
X037615Y029645D02*
X038260Y029000D01*
X036088Y029645D02*
X037615D01*
X034447Y031286D02*
X036088Y029645D01*
X046918Y028886D02*
X047216D01*
X046804Y029000D02*
X046918Y028886D01*
X042902Y029000D02*
X046804D01*
X042360Y029542D02*
X042902Y029000D01*
X035237Y031286D02*
X036669Y029854D01*
X039011D01*
X038260Y029000D02*
X042104D01*
X039011Y029854D02*
X039323Y029542D01*
X042360D01*
X049489Y030600D02*
X049824Y030935D01*
X049489Y030600D02*
X050552D01*
X029316Y025026D02*
X029900Y025610D01*
Y026684D01*
X030560Y027344D01*
X035147Y025271D02*
X037381D01*
X037766Y024886D01*
X032090Y026370D02*
X032770Y025690D01*
X046562D02*
X047016Y025236D01*
X032770Y025690D02*
X046562D01*
D39*
X058015Y030915D02*
X058509Y030454D01*
Y028766D02*
Y030454D01*
D41*
X026100Y015700D02*
D03*
X027100D02*
D03*
X028100D02*
D03*
X029100D02*
D03*
X030100D02*
D03*
X031100D02*
D03*
X032100D02*
D03*
X033100D02*
D03*
X034100D02*
D03*
X035100D02*
D03*
X036100D02*
D03*
X037100D02*
D03*
X038100D02*
D03*
X039100D02*
D03*
Y016700D02*
D03*
Y017700D02*
D03*
Y018700D02*
D03*
Y019700D02*
D03*
Y020700D02*
D03*
Y021700D02*
D03*
X038100D02*
D03*
X037100D02*
D03*
X036100D02*
D03*
X035100D02*
D03*
X034100D02*
D03*
X033100D02*
D03*
X032100D02*
D03*
X031100D02*
D03*
X030100D02*
D03*
X029100D02*
D03*
X028100D02*
D03*
X027100D02*
D03*
X026100D02*
D03*
D42*
X027116Y031786D02*
D03*
X025766D02*
D03*
X039100Y012600D02*
D03*
Y014100D02*
D03*
X038100D02*
D03*
D43*
X027116Y030786D02*
D03*
X025766D02*
D03*
D44*
X029910Y014100D02*
D03*
X030700D02*
D03*
X031490D02*
D03*
X032277D02*
D03*
X033065D02*
D03*
X029128D02*
D03*
X028340D02*
D03*
X032872Y031286D02*
D03*
X028935D02*
D03*
X029722D02*
D03*
X030510D02*
D03*
X031300D02*
D03*
X032090D02*
D03*
X036814D02*
D03*
X036024D02*
D03*
X035234D02*
D03*
X034447D02*
D03*
X033659D02*
D03*
X037596D02*
D03*
D45*
X038100Y012600D02*
D03*
X037100Y014100D02*
D03*
D46*
X025800Y012400D02*
D03*
D47*
X065705Y020495D02*
D03*
X066110Y020090D02*
D03*
X061800Y021300D02*
D03*
X045000Y013700D02*
D03*
X046000Y014000D02*
D03*
X061600Y026700D02*
D03*
X049600Y016200D02*
D03*
X053800Y032300D02*
D03*
X026000Y014200D02*
D03*
X040200Y021800D02*
D03*
X054600Y024400D02*
D03*
X044200Y021500D02*
D03*
X047200Y022400D02*
D03*
X043500Y018900D02*
D03*
X037300Y020700D02*
D03*
X030000Y018400D02*
D03*
X027100Y017400D02*
D03*
X034900Y014600D02*
D03*
X025100Y020982D02*
D03*
Y020300D02*
D03*
X026000Y019600D02*
D03*
X033119Y017501D02*
D03*
X035900Y017500D02*
D03*
X030000Y019800D02*
D03*
X063300Y033600D02*
D03*
X067000Y030763D02*
D03*
X035700Y011800D02*
D03*
X042500Y017695D02*
D03*
X045000Y012000D02*
D03*
X055300Y012800D02*
D03*
Y012200D02*
D03*
Y011600D02*
D03*
X056000Y013400D02*
D03*
Y011600D02*
D03*
Y012200D02*
D03*
Y012800D02*
D03*
X061400Y032300D02*
D03*
X060800D02*
D03*
X060200D02*
D03*
X059600D02*
D03*
X059000D02*
D03*
X062600Y015900D02*
D03*
X067100D02*
D03*
X056700Y011600D02*
D03*
X060800Y031700D02*
D03*
X060200D02*
D03*
X059000D02*
D03*
X059600D02*
D03*
X060200Y031100D02*
D03*
X059600D02*
D03*
X056700Y012200D02*
D03*
X057400D02*
D03*
Y012800D02*
D03*
X056700D02*
D03*
Y013400D02*
D03*
X057400D02*
D03*
X032900Y020800D02*
D03*
X044000Y019900D02*
D03*
X045000Y016200D02*
D03*
X041898Y014863D02*
D03*
X041900Y012100D02*
D03*
X051000Y013500D02*
D03*
X050400D02*
D03*
X051000Y012900D02*
D03*
X050400D02*
D03*
Y012300D02*
D03*
X051000D02*
D03*
X050100Y016600D02*
D03*
X040900Y014300D02*
D03*
X043500Y015900D02*
D03*
X043900Y014200D02*
D03*
X042647Y014974D02*
D03*
X041100Y016200D02*
D03*
X051300Y021500D02*
D03*
X052400Y020600D02*
D03*
X054550Y019400D02*
D03*
X057600Y031300D02*
D03*
X062000Y024500D02*
D03*
X061500D02*
D03*
X061000D02*
D03*
X062000Y024000D02*
D03*
X061500D02*
D03*
X061000D02*
D03*
X062000Y023500D02*
D03*
X061500D02*
D03*
X061000D02*
D03*
X052733Y019100D02*
D03*
X055800Y028500D02*
D03*
X055200D02*
D03*
X056400Y027900D02*
D03*
X055800D02*
D03*
X055200D02*
D03*
X056400Y027300D02*
D03*
X055800D02*
D03*
X055200D02*
D03*
X033300Y032100D02*
D03*
X065300Y020900D02*
D03*
X066750Y013350D02*
D03*
X066150D02*
D03*
X066750Y013950D02*
D03*
X066150D02*
D03*
X048966Y025886D02*
D03*
X032766Y028536D02*
D03*
X052016Y026836D02*
D03*
X037816Y030436D02*
D03*
X042816Y031136D02*
D03*
X038066Y022936D02*
D03*
X066700Y022350D02*
D03*
X053300Y013500D02*
D03*
X066200Y027500D02*
D03*
X057000Y027900D02*
D03*
Y027300D02*
D03*
X056200Y021400D02*
D03*
Y022000D02*
D03*
X056800D02*
D03*
Y021400D02*
D03*
Y020800D02*
D03*
X057400D02*
D03*
Y021400D02*
D03*
Y022000D02*
D03*
X058000D02*
D03*
Y021400D02*
D03*
X034200Y013100D02*
D03*
X048200Y015900D02*
D03*
X047700Y018300D02*
D03*
X046900Y017400D02*
D03*
X035500Y016600D02*
D03*
X044000Y015300D02*
D03*
X058000Y030900D02*
D03*
X059000Y031100D02*
D03*
D48*
X053400Y014500D02*
D03*
X049600Y012600D02*
D03*
X067300Y022907D02*
D03*
X057000Y033719D02*
D03*
X025381Y025700D02*
D03*
X025766Y025086D02*
D03*
X026416Y025186D02*
D03*
X026566Y023586D02*
D03*
X025300Y022200D02*
D03*
X040200Y018700D02*
D03*
X058102Y014680D02*
D03*
X058100Y013900D02*
D03*
X059700Y024700D02*
D03*
X055300Y019700D02*
D03*
X057700Y016200D02*
D03*
X056200Y018800D02*
D03*
X054000Y014469D02*
D03*
X054500D02*
D03*
X055000Y015100D02*
D03*
X055508Y015321D02*
D03*
X056400Y016299D02*
D03*
X055700Y017300D02*
D03*
X059765Y022819D02*
D03*
X056200Y017700D02*
D03*
X052081Y017600D02*
D03*
X053433Y018600D02*
D03*
X052833Y018200D02*
D03*
X056800Y026700D02*
D03*
X054600D02*
D03*
X057500D02*
D03*
X052100Y017100D02*
D03*
X051900Y016600D02*
D03*
X026866Y028036D02*
D03*
X028866Y024186D02*
D03*
X029316Y024536D02*
D03*
X035116Y028936D02*
D03*
X035316Y027336D02*
D03*
X049009Y027185D02*
D03*
X033416Y027436D02*
D03*
X037916Y027186D02*
D03*
X038616Y027136D02*
D03*
X034266Y027236D02*
D03*
X039566Y027136D02*
D03*
X040066Y027286D02*
D03*
X039016Y028236D02*
D03*
X028104Y023831D02*
D03*
X043716Y028236D02*
D03*
Y024186D02*
D03*
X048489Y028250D02*
D03*
X049466Y023286D02*
D03*
X044766D02*
D03*
X049489Y027350D02*
D03*
X044789Y030650D02*
D03*
X040089Y030600D02*
D03*
X044766Y027286D02*
D03*
X030566Y023136D02*
D03*
X030066Y023086D02*
D03*
X035366Y023136D02*
D03*
X043016Y025036D02*
D03*
X043369Y024517D02*
D03*
X047666Y025136D02*
D03*
X035279Y024917D02*
D03*
X048566Y024086D02*
D03*
X048116Y024436D02*
D03*
X047966Y027236D02*
D03*
X044166Y027036D02*
D03*
X043316Y026936D02*
D03*
X033912Y024398D02*
D03*
X034366Y024136D02*
D03*
X034272Y024715D02*
D03*
X051966Y029186D02*
D03*
X051239Y030542D02*
D03*
X048966Y030486D02*
D03*
X045766Y029736D02*
D03*
X044116Y030236D02*
D03*
X027166Y030036D02*
D03*
X025466Y028036D02*
D03*
X026216D02*
D03*
X028067Y030386D02*
D03*
X030216Y028536D02*
D03*
X028966Y028036D02*
D03*
X027566D02*
D03*
X028216D02*
D03*
X025566Y029636D02*
D03*
X026584Y029903D02*
D03*
X029616Y030286D02*
D03*
X028514Y029885D02*
D03*
X028966Y030336D02*
D03*
X033366Y023986D02*
D03*
X039966Y023236D02*
D03*
X038966Y024186D02*
D03*
X038666Y024586D02*
D03*
X037766Y024886D02*
D03*
X042266Y025186D02*
D03*
X047016Y025236D02*
D03*
X034016Y028186D02*
D03*
X034287Y028686D02*
D03*
X037916Y028736D02*
D03*
X042566D02*
D03*
X047216Y028886D02*
D03*
X039516Y030536D02*
D03*
X040866Y030286D02*
D03*
X038735Y031436D02*
D03*
X043466Y031405D02*
D03*
X049489Y030600D02*
D03*
X048366Y032286D02*
D03*
X048166Y031586D02*
D03*
X051816Y025136D02*
D03*
X029366Y024036D02*
D03*
X063500Y014250D02*
D03*
X058600D02*
D03*
X052400Y014700D02*
D03*
X052900D02*
D03*
X051900Y014500D02*
D03*
X040000Y017300D02*
D03*
X051800Y016100D02*
D03*
X052297Y015252D02*
D03*
X051850Y015000D02*
D03*
X066400Y023000D02*
D03*
X065200Y024600D02*
D03*
X066200Y024100D02*
D03*
X065700Y024400D02*
D03*
X066300Y025000D02*
D03*
X065800Y025900D02*
D03*
X066500Y026100D02*
D03*
X066800Y025500D02*
D03*
X056300Y015724D02*
D03*
X048600Y012600D02*
D03*
X049200Y011800D02*
D03*
X048700D02*
D03*
D49*
X054333Y015634D02*
D03*
X053900D02*
D03*
X053467D02*
D03*
X054333Y016067D02*
D03*
X053900D02*
D03*
X053467D02*
D03*
X054333Y016500D02*
D03*
X053900D02*
D03*
X053467D02*
D03*
X054333Y016933D02*
D03*
X053900D02*
D03*
X053467D02*
D03*
X054333Y017366D02*
D03*
X053900D02*
D03*
X053467D02*
D03*
D50*
X046005Y011750D02*
D03*
Y012250D02*
D03*
Y012750D02*
D03*
Y013250D02*
D03*
X047995Y011750D02*
D03*
Y012250D02*
D03*
Y012750D02*
D03*
Y013250D02*
D03*
X056162Y021950D02*
D03*
Y021450D02*
D03*
Y020950D02*
D03*
Y020450D02*
D03*
X054172Y021950D02*
D03*
Y021450D02*
D03*
Y020950D02*
D03*
Y020450D02*
D03*
X056972D02*
D03*
Y020950D02*
D03*
Y021450D02*
D03*
Y021950D02*
D03*
X058962Y020450D02*
D03*
Y020950D02*
D03*
Y021450D02*
D03*
Y021950D02*
D03*
X054105Y027150D02*
D03*
Y027650D02*
D03*
Y028150D02*
D03*
Y028650D02*
D03*
X056095Y027150D02*
D03*
Y027650D02*
D03*
Y028150D02*
D03*
Y028650D02*
D03*
X057005Y027150D02*
D03*
Y027650D02*
D03*
Y028150D02*
D03*
Y028650D02*
D03*
X058995Y027150D02*
D03*
Y027650D02*
D03*
Y028150D02*
D03*
Y028650D02*
D03*
X061995Y024750D02*
D03*
Y024250D02*
D03*
Y023750D02*
D03*
Y023250D02*
D03*
X060005Y024750D02*
D03*
Y024250D02*
D03*
Y023750D02*
D03*
Y023250D02*
D03*
D51*
X066450Y017181D02*
D03*
Y014819D02*
D03*
D52*
X027200Y020815D02*
D03*
Y020185D02*
D03*
X027900Y020815D02*
D03*
Y020185D02*
D03*
X028600Y020815D02*
D03*
Y020185D02*
D03*
X029300Y020815D02*
D03*
Y020185D02*
D03*
X065100Y024115D02*
D03*
Y023485D02*
D03*
X065700Y024115D02*
D03*
Y023485D02*
D03*
X039739Y031085D02*
D03*
Y031715D02*
D03*
X034916Y027821D02*
D03*
Y028451D02*
D03*
X039666Y027821D02*
D03*
Y028451D02*
D03*
X044366Y027821D02*
D03*
Y028451D02*
D03*
X049139Y027835D02*
D03*
Y028465D02*
D03*
Y031085D02*
D03*
Y031715D02*
D03*
X044439Y031085D02*
D03*
Y031715D02*
D03*
X049116Y023771D02*
D03*
Y024401D02*
D03*
X030216Y023571D02*
D03*
Y024201D02*
D03*
X034916Y023671D02*
D03*
Y024301D02*
D03*
X039616Y023671D02*
D03*
Y024301D02*
D03*
X044366Y023771D02*
D03*
Y024401D02*
D03*
X029716Y029151D02*
D03*
Y028521D02*
D03*
X029016Y029151D02*
D03*
Y028521D02*
D03*
X028166Y029136D02*
D03*
Y028506D02*
D03*
X027366Y029136D02*
D03*
Y028506D02*
D03*
X026516Y029136D02*
D03*
Y028506D02*
D03*
X025716Y029136D02*
D03*
Y028506D02*
D03*
X066950Y024115D02*
D03*
Y023485D02*
D03*
X066350Y024115D02*
D03*
Y023485D02*
D03*
X066200Y026585D02*
D03*
Y027215D02*
D03*
D53*
X040800Y012414D02*
D03*
Y014186D02*
D03*
D54*
X042585Y015600D02*
D03*
X043215D02*
D03*
X036231Y027836D02*
D03*
X035601D02*
D03*
X045681D02*
D03*
X045051D02*
D03*
X050453Y027850D02*
D03*
X049824D02*
D03*
X050453Y031100D02*
D03*
X049824D02*
D03*
X045753D02*
D03*
X045124D02*
D03*
X041053D02*
D03*
X040424D02*
D03*
X031531Y023586D02*
D03*
X030901D02*
D03*
X036231Y023686D02*
D03*
X035601D02*
D03*
X050431Y023786D02*
D03*
X049801D02*
D03*
X040981Y027836D02*
D03*
X040351D02*
D03*
X040931Y023686D02*
D03*
X040301D02*
D03*
X045681Y023786D02*
D03*
X045051D02*
D03*
D55*
X040509Y017500D02*
D03*
X041691D02*
D03*
X040509Y015900D02*
D03*
X041691D02*
D03*
D56*
X042800Y017830D02*
D03*
Y016570D02*
D03*
D57*
X044000Y017146D02*
D03*
Y017854D02*
D03*
D58*
X047494Y015774D02*
D03*
Y015020D02*
D03*
X046660Y015400D02*
D03*
X049394Y015774D02*
D03*
Y015020D02*
D03*
X048560Y015400D02*
D03*
X066944Y018874D02*
D03*
Y018120D02*
D03*
X066110Y018500D02*
D03*
D59*
X042194Y014301D02*
D03*
X043100D02*
D03*
X044006D02*
D03*
D60*
X043100Y011899D02*
D03*
D61*
X053665Y019700D02*
D03*
X052602D02*
D03*
X055202Y019500D02*
D03*
X056265D02*
D03*
D62*
X058370Y025900D02*
D03*
X056630D02*
D03*
D63*
X060200Y025514D02*
D03*
Y027286D02*
D03*
D64*
X041105Y028436D02*
D03*
X040227D02*
D03*
X045805D02*
D03*
X044927D02*
D03*
X050578Y028450D02*
D03*
X049700D02*
D03*
X050578Y031700D02*
D03*
X049700D02*
D03*
X045878D02*
D03*
X045000D02*
D03*
X041178D02*
D03*
X040300D02*
D03*
X031655Y024186D02*
D03*
X030777D02*
D03*
X050555Y024386D02*
D03*
X049677D02*
D03*
X036355Y028436D02*
D03*
X035477D02*
D03*
X036355Y024286D02*
D03*
X035477D02*
D03*
X041055D02*
D03*
X040177D02*
D03*
X045805Y024386D02*
D03*
X044927D02*
D03*
D65*
X046466Y027782D02*
D03*
Y028490D02*
D03*
X051239Y027896D02*
D03*
Y028604D02*
D03*
Y031046D02*
D03*
Y031754D02*
D03*
X046539Y031046D02*
D03*
Y031754D02*
D03*
X041839Y031046D02*
D03*
Y031754D02*
D03*
X032316Y023531D02*
D03*
Y024240D02*
D03*
X037016Y023631D02*
D03*
Y024340D02*
D03*
X051216Y023732D02*
D03*
Y024440D02*
D03*
X037016Y027782D02*
D03*
Y028490D02*
D03*
X041766Y027782D02*
D03*
Y028490D02*
D03*
X041716Y023631D02*
D03*
Y024340D02*
D03*
X046466Y023732D02*
D03*
Y024440D02*
D03*
D66*
X028009Y024336D02*
D03*
X026722D02*
D03*
D67*
X050700Y014700D02*
Y018400D01*
Y014055D02*
Y014700D01*
Y013300D02*
Y014055D01*
D68*
X047295Y012500D02*
D03*
X054872Y021200D02*
D03*
X057672D02*
D03*
X055395Y027900D02*
D03*
X058295D02*
D03*
X061295Y024000D02*
D03*
M02*
