G04 Layer_Color=16711935*
%FSAX24Y24*%
%MOIN*%
G70*
G01*
G75*
%ADD79R,0.0434X0.0356*%
%ADD99R,0.0356X0.0434*%
%ADD102C,0.0650*%
%ADD103C,0.0671*%
%ADD104R,0.0671X0.0671*%
%ADD105C,0.0710*%
%ADD106R,0.0671X0.0671*%
%ADD107C,0.2090*%
%ADD108C,0.0360*%
%ADD109C,0.0280*%
%ADD110C,0.0198*%
%ADD111R,0.0550X0.0300*%
%ADD112R,0.1399X0.0572*%
%ADD113R,0.0474X0.0434*%
%ADD114R,0.0986X0.0986*%
%ADD115R,0.0434X0.0474*%
%ADD116R,0.0533X0.1143*%
%ADD117R,0.0828X0.0612*%
%ADD118R,0.0651X0.0533*%
%ADD119R,0.0440X0.0400*%
%ADD120R,0.0474X0.1064*%
%ADD121R,0.1379X0.1064*%
%ADD122R,0.0454X0.0749*%
%ADD123R,0.0930X0.1160*%
%ADD124R,0.1104X0.0493*%
%ADD125R,0.0328X0.0407*%
%ADD126R,0.0513X0.0513*%
%ADD127R,0.0438X0.0560*%
%ADD128R,0.1300X0.1812*%
D79*
X035000Y013524D02*
D03*
Y014076D02*
D03*
X035800Y014076D02*
D03*
Y013524D02*
D03*
X038000Y016524D02*
D03*
Y017076D02*
D03*
X049200Y014500D02*
D03*
Y013949D02*
D03*
Y013500D02*
D03*
Y012949D02*
D03*
X052900Y016924D02*
D03*
Y017476D02*
D03*
X055800Y015724D02*
D03*
Y016276D02*
D03*
X048500Y014476D02*
D03*
Y013924D02*
D03*
X025766Y023361D02*
D03*
Y022810D02*
D03*
Y024561D02*
D03*
Y024010D02*
D03*
X029716Y027260D02*
D03*
Y027811D02*
D03*
X028966Y027811D02*
D03*
Y027260D02*
D03*
X028266Y027811D02*
D03*
Y027260D02*
D03*
X027566Y027811D02*
D03*
Y027260D02*
D03*
X026866Y027811D02*
D03*
Y027260D02*
D03*
X026166Y027811D02*
D03*
Y027260D02*
D03*
X025466Y027836D02*
D03*
Y027285D02*
D03*
D99*
X032276Y020800D02*
D03*
X031724D02*
D03*
X054476Y014300D02*
D03*
X053924D02*
D03*
X054476Y013800D02*
D03*
X053924D02*
D03*
X056876Y016276D02*
D03*
X056324D02*
D03*
X056876Y015776D02*
D03*
X056324D02*
D03*
X055624Y017200D02*
D03*
X056176D02*
D03*
X057276D02*
D03*
X056724D02*
D03*
X058376Y030100D02*
D03*
X057824D02*
D03*
D102*
X026100Y015700D02*
D03*
X027100D02*
D03*
X028100D02*
D03*
X029100D02*
D03*
X030100D02*
D03*
X031100D02*
D03*
X032100D02*
D03*
X033100D02*
D03*
X034100D02*
D03*
X035100D02*
D03*
X036100D02*
D03*
X037100D02*
D03*
X038100D02*
D03*
X039100D02*
D03*
Y016700D02*
D03*
Y017700D02*
D03*
Y018700D02*
D03*
Y019700D02*
D03*
Y020700D02*
D03*
Y021700D02*
D03*
X038100D02*
D03*
X037100D02*
D03*
X036100D02*
D03*
X035100D02*
D03*
X034100D02*
D03*
X033100D02*
D03*
X032100D02*
D03*
X031100D02*
D03*
X030100D02*
D03*
X029100D02*
D03*
X028100D02*
D03*
X027100D02*
D03*
X026100D02*
D03*
D103*
X027116Y031786D02*
D03*
X025766D02*
D03*
X039100Y012600D02*
D03*
Y014100D02*
D03*
X038100D02*
D03*
D104*
X027116Y030786D02*
D03*
X025766D02*
D03*
D105*
X029910Y014100D02*
D03*
X030700D02*
D03*
X031490D02*
D03*
X032277D02*
D03*
X033065D02*
D03*
X029128D02*
D03*
X028340D02*
D03*
X032872Y031286D02*
D03*
X028935D02*
D03*
X029722D02*
D03*
X030510D02*
D03*
X031300D02*
D03*
X032090D02*
D03*
X036814D02*
D03*
X036024D02*
D03*
X035234D02*
D03*
X034447D02*
D03*
X033659D02*
D03*
X037596D02*
D03*
D106*
X038100Y012600D02*
D03*
X037100Y014100D02*
D03*
D107*
X025800Y012400D02*
D03*
D108*
X065705Y020495D02*
D03*
X066110Y020090D02*
D03*
X061800Y021300D02*
D03*
X045000Y013700D02*
D03*
X046000Y014000D02*
D03*
X061600Y026700D02*
D03*
X049600Y016200D02*
D03*
X053800Y032300D02*
D03*
X026000Y014200D02*
D03*
X040200Y021800D02*
D03*
X054600Y024400D02*
D03*
X044200Y021500D02*
D03*
X047200Y022400D02*
D03*
X043500Y018900D02*
D03*
X037300Y020700D02*
D03*
X030000Y018400D02*
D03*
X027100Y017400D02*
D03*
X034900Y014600D02*
D03*
X025100Y020982D02*
D03*
Y020300D02*
D03*
X026000Y019600D02*
D03*
X033119Y017501D02*
D03*
X035900Y017500D02*
D03*
X030000Y019800D02*
D03*
X063300Y033600D02*
D03*
X067000Y030763D02*
D03*
X035700Y011800D02*
D03*
X042500Y017695D02*
D03*
X045000Y012000D02*
D03*
X055300Y012800D02*
D03*
Y012200D02*
D03*
Y011600D02*
D03*
X056000Y013400D02*
D03*
Y011600D02*
D03*
Y012200D02*
D03*
Y012800D02*
D03*
X061400Y032300D02*
D03*
X060800D02*
D03*
X060200D02*
D03*
X059600D02*
D03*
X059000D02*
D03*
X062600Y015900D02*
D03*
X067100D02*
D03*
X056700Y011600D02*
D03*
X060800Y031700D02*
D03*
X060200D02*
D03*
X059000D02*
D03*
X059600D02*
D03*
X060200Y031100D02*
D03*
X059600D02*
D03*
X056700Y012200D02*
D03*
X057400D02*
D03*
Y012800D02*
D03*
X056700D02*
D03*
Y013400D02*
D03*
X057400D02*
D03*
X032900Y020800D02*
D03*
X044000Y019900D02*
D03*
X045000Y016200D02*
D03*
X041898Y014863D02*
D03*
X041900Y012100D02*
D03*
X051000Y013500D02*
D03*
X050400D02*
D03*
X051000Y012900D02*
D03*
X050400D02*
D03*
Y012300D02*
D03*
X051000D02*
D03*
X050100Y016600D02*
D03*
X040900Y014300D02*
D03*
X043500Y015900D02*
D03*
X043900Y014200D02*
D03*
X042647Y014974D02*
D03*
X041100Y016200D02*
D03*
X051300Y021500D02*
D03*
X052400Y020600D02*
D03*
X054550Y019400D02*
D03*
X057600Y031300D02*
D03*
X062000Y024500D02*
D03*
X061500D02*
D03*
X061000D02*
D03*
X062000Y024000D02*
D03*
X061500D02*
D03*
X061000D02*
D03*
X062000Y023500D02*
D03*
X061500D02*
D03*
X061000D02*
D03*
X052733Y019100D02*
D03*
X055800Y028500D02*
D03*
X055200D02*
D03*
X056400Y027900D02*
D03*
X055800D02*
D03*
X055200D02*
D03*
X056400Y027300D02*
D03*
X055800D02*
D03*
X055200D02*
D03*
X033300Y032100D02*
D03*
X065300Y020900D02*
D03*
X066750Y013350D02*
D03*
X066150D02*
D03*
X066750Y013950D02*
D03*
X066150D02*
D03*
X048966Y025886D02*
D03*
X032766Y028536D02*
D03*
X052016Y026836D02*
D03*
X037816Y030436D02*
D03*
X042816Y031136D02*
D03*
X038066Y022936D02*
D03*
X066700Y022350D02*
D03*
X053300Y013500D02*
D03*
X066200Y027500D02*
D03*
X057000Y027900D02*
D03*
Y027300D02*
D03*
X056200Y021400D02*
D03*
Y022000D02*
D03*
X056800D02*
D03*
Y021400D02*
D03*
Y020800D02*
D03*
X057400D02*
D03*
Y021400D02*
D03*
Y022000D02*
D03*
X058000D02*
D03*
Y021400D02*
D03*
X034200Y013100D02*
D03*
X048200Y015900D02*
D03*
X047700Y018300D02*
D03*
X046900Y017400D02*
D03*
X035500Y016600D02*
D03*
X044000Y015300D02*
D03*
X058000Y030900D02*
D03*
X059000Y031100D02*
D03*
D109*
X053400Y014500D02*
D03*
X049600Y012600D02*
D03*
X067300Y022907D02*
D03*
X057000Y033719D02*
D03*
X025381Y025700D02*
D03*
X025766Y025086D02*
D03*
X026416Y025186D02*
D03*
X026566Y023586D02*
D03*
X025300Y022200D02*
D03*
X040200Y018700D02*
D03*
X058102Y014680D02*
D03*
X058100Y013900D02*
D03*
X059700Y024700D02*
D03*
X055300Y019700D02*
D03*
X057700Y016200D02*
D03*
X056200Y018800D02*
D03*
X054000Y014469D02*
D03*
X054500D02*
D03*
X055000Y015100D02*
D03*
X055508Y015321D02*
D03*
X056400Y016299D02*
D03*
X055700Y017300D02*
D03*
X059765Y022819D02*
D03*
X056200Y017700D02*
D03*
X052081Y017600D02*
D03*
X053433Y018600D02*
D03*
X052833Y018200D02*
D03*
X056800Y026700D02*
D03*
X054600D02*
D03*
X057500D02*
D03*
X052100Y017100D02*
D03*
X051900Y016600D02*
D03*
X026866Y028036D02*
D03*
X028866Y024186D02*
D03*
X029316Y024536D02*
D03*
X035116Y028936D02*
D03*
X035316Y027336D02*
D03*
X049009Y027185D02*
D03*
X033416Y027436D02*
D03*
X037916Y027186D02*
D03*
X038616Y027136D02*
D03*
X034266Y027236D02*
D03*
X039566Y027136D02*
D03*
X040066Y027286D02*
D03*
X039016Y028236D02*
D03*
X028104Y023831D02*
D03*
X043716Y028236D02*
D03*
Y024186D02*
D03*
X048489Y028250D02*
D03*
X049466Y023286D02*
D03*
X044766D02*
D03*
X049489Y027350D02*
D03*
X044789Y030650D02*
D03*
X040089Y030600D02*
D03*
X044766Y027286D02*
D03*
X030566Y023136D02*
D03*
X030066Y023086D02*
D03*
X035366Y023136D02*
D03*
X043016Y025036D02*
D03*
X043369Y024517D02*
D03*
X047666Y025136D02*
D03*
X035279Y024917D02*
D03*
X048566Y024086D02*
D03*
X048116Y024436D02*
D03*
X047966Y027236D02*
D03*
X044166Y027036D02*
D03*
X043316Y026936D02*
D03*
X033912Y024398D02*
D03*
X034366Y024136D02*
D03*
X034272Y024715D02*
D03*
X051966Y029186D02*
D03*
X051239Y030542D02*
D03*
X048966Y030486D02*
D03*
X045766Y029736D02*
D03*
X044116Y030236D02*
D03*
X027166Y030036D02*
D03*
X025466Y028036D02*
D03*
X026216D02*
D03*
X028067Y030386D02*
D03*
X030216Y028536D02*
D03*
X028966Y028036D02*
D03*
X027566D02*
D03*
X028216D02*
D03*
X025566Y029636D02*
D03*
X026584Y029903D02*
D03*
X029616Y030286D02*
D03*
X028514Y029885D02*
D03*
X028966Y030336D02*
D03*
X033366Y023986D02*
D03*
X039966Y023236D02*
D03*
X038966Y024186D02*
D03*
X038666Y024586D02*
D03*
X037766Y024886D02*
D03*
X042266Y025186D02*
D03*
X047016Y025236D02*
D03*
X034016Y028186D02*
D03*
X034287Y028686D02*
D03*
X037916Y028736D02*
D03*
X042566D02*
D03*
X047216Y028886D02*
D03*
X039516Y030536D02*
D03*
X040866Y030286D02*
D03*
X038735Y031436D02*
D03*
X043466Y031405D02*
D03*
X049489Y030600D02*
D03*
X048366Y032286D02*
D03*
X048166Y031586D02*
D03*
X051816Y025136D02*
D03*
X029366Y024036D02*
D03*
X063500Y014250D02*
D03*
X058600D02*
D03*
X052400Y014700D02*
D03*
X052900D02*
D03*
X051900Y014500D02*
D03*
X040000Y017300D02*
D03*
X051800Y016100D02*
D03*
X052297Y015252D02*
D03*
X051850Y015000D02*
D03*
X066400Y023000D02*
D03*
X065200Y024600D02*
D03*
X066200Y024100D02*
D03*
X065700Y024400D02*
D03*
X066300Y025000D02*
D03*
X065800Y025900D02*
D03*
X066500Y026100D02*
D03*
X066800Y025500D02*
D03*
X056300Y015724D02*
D03*
X048600Y012600D02*
D03*
X049200Y011800D02*
D03*
X048700D02*
D03*
D110*
X054333Y015634D02*
D03*
X053900D02*
D03*
X053467D02*
D03*
X054333Y016067D02*
D03*
X053900D02*
D03*
X053467D02*
D03*
X054333Y016500D02*
D03*
X053900D02*
D03*
X053467D02*
D03*
X054333Y016933D02*
D03*
X053900D02*
D03*
X053467D02*
D03*
X054333Y017366D02*
D03*
X053900D02*
D03*
X053467D02*
D03*
D111*
X046005Y011750D02*
D03*
Y012250D02*
D03*
Y012750D02*
D03*
Y013250D02*
D03*
X047995Y011750D02*
D03*
Y012250D02*
D03*
Y012750D02*
D03*
Y013250D02*
D03*
X056162Y021950D02*
D03*
Y021450D02*
D03*
Y020950D02*
D03*
Y020450D02*
D03*
X054172Y021950D02*
D03*
Y021450D02*
D03*
Y020950D02*
D03*
Y020450D02*
D03*
X056972D02*
D03*
Y020950D02*
D03*
Y021450D02*
D03*
Y021950D02*
D03*
X058962Y020450D02*
D03*
Y020950D02*
D03*
Y021450D02*
D03*
Y021950D02*
D03*
X054105Y027150D02*
D03*
Y027650D02*
D03*
Y028150D02*
D03*
Y028650D02*
D03*
X056095Y027150D02*
D03*
Y027650D02*
D03*
Y028150D02*
D03*
Y028650D02*
D03*
X057005Y027150D02*
D03*
Y027650D02*
D03*
Y028150D02*
D03*
Y028650D02*
D03*
X058995Y027150D02*
D03*
Y027650D02*
D03*
Y028150D02*
D03*
Y028650D02*
D03*
X061995Y024750D02*
D03*
Y024250D02*
D03*
Y023750D02*
D03*
Y023250D02*
D03*
X060005Y024750D02*
D03*
Y024250D02*
D03*
Y023750D02*
D03*
Y023250D02*
D03*
D112*
X066450Y017181D02*
D03*
Y014819D02*
D03*
D113*
X027200Y020815D02*
D03*
Y020185D02*
D03*
X027900Y020815D02*
D03*
Y020185D02*
D03*
X028600Y020815D02*
D03*
Y020185D02*
D03*
X029300Y020815D02*
D03*
Y020185D02*
D03*
X065100Y024115D02*
D03*
Y023485D02*
D03*
X065700Y024115D02*
D03*
Y023485D02*
D03*
X039739Y031085D02*
D03*
Y031715D02*
D03*
X034916Y027821D02*
D03*
Y028451D02*
D03*
X039666Y027821D02*
D03*
Y028451D02*
D03*
X044366Y027821D02*
D03*
Y028451D02*
D03*
X049139Y027835D02*
D03*
Y028465D02*
D03*
Y031085D02*
D03*
Y031715D02*
D03*
X044439Y031085D02*
D03*
Y031715D02*
D03*
X049116Y023771D02*
D03*
Y024401D02*
D03*
X030216Y023571D02*
D03*
Y024201D02*
D03*
X034916Y023671D02*
D03*
Y024301D02*
D03*
X039616Y023671D02*
D03*
Y024301D02*
D03*
X044366Y023771D02*
D03*
Y024401D02*
D03*
X029716Y029151D02*
D03*
Y028521D02*
D03*
X029016Y029151D02*
D03*
Y028521D02*
D03*
X028166Y029136D02*
D03*
Y028506D02*
D03*
X027366Y029136D02*
D03*
Y028506D02*
D03*
X026516Y029136D02*
D03*
Y028506D02*
D03*
X025716Y029136D02*
D03*
Y028506D02*
D03*
X066950Y024115D02*
D03*
Y023485D02*
D03*
X066350Y024115D02*
D03*
Y023485D02*
D03*
X066200Y026585D02*
D03*
Y027215D02*
D03*
D114*
X040800Y012414D02*
D03*
Y014186D02*
D03*
D115*
X042585Y015600D02*
D03*
X043215D02*
D03*
X036231Y027836D02*
D03*
X035601D02*
D03*
X045681D02*
D03*
X045051D02*
D03*
X050453Y027850D02*
D03*
X049824D02*
D03*
X050453Y031100D02*
D03*
X049824D02*
D03*
X045753D02*
D03*
X045124D02*
D03*
X041053D02*
D03*
X040424D02*
D03*
X031531Y023586D02*
D03*
X030901D02*
D03*
X036231Y023686D02*
D03*
X035601D02*
D03*
X050431Y023786D02*
D03*
X049801D02*
D03*
X040981Y027836D02*
D03*
X040351D02*
D03*
X040931Y023686D02*
D03*
X040301D02*
D03*
X045681Y023786D02*
D03*
X045051D02*
D03*
D116*
X040509Y017500D02*
D03*
X041691D02*
D03*
X040509Y015900D02*
D03*
X041691D02*
D03*
D117*
X042800Y017830D02*
D03*
Y016570D02*
D03*
D118*
X044000Y017146D02*
D03*
Y017854D02*
D03*
D119*
X047494Y015774D02*
D03*
Y015020D02*
D03*
X046660Y015400D02*
D03*
X049394Y015774D02*
D03*
Y015020D02*
D03*
X048560Y015400D02*
D03*
X066944Y018874D02*
D03*
Y018120D02*
D03*
X066110Y018500D02*
D03*
D120*
X042194Y014301D02*
D03*
X043100D02*
D03*
X044006D02*
D03*
D121*
X043100Y011899D02*
D03*
D122*
X053665Y019700D02*
D03*
X052602D02*
D03*
X055202Y019500D02*
D03*
X056265D02*
D03*
D123*
X058370Y025900D02*
D03*
X056630D02*
D03*
D124*
X060200Y025514D02*
D03*
Y027286D02*
D03*
D125*
X041105Y028436D02*
D03*
X040227D02*
D03*
X045805D02*
D03*
X044927D02*
D03*
X050578Y028450D02*
D03*
X049700D02*
D03*
X050578Y031700D02*
D03*
X049700D02*
D03*
X045878D02*
D03*
X045000D02*
D03*
X041178D02*
D03*
X040300D02*
D03*
X031655Y024186D02*
D03*
X030777D02*
D03*
X050555Y024386D02*
D03*
X049677D02*
D03*
X036355Y028436D02*
D03*
X035477D02*
D03*
X036355Y024286D02*
D03*
X035477D02*
D03*
X041055D02*
D03*
X040177D02*
D03*
X045805Y024386D02*
D03*
X044927D02*
D03*
D126*
X046466Y027782D02*
D03*
Y028490D02*
D03*
X051239Y027896D02*
D03*
Y028604D02*
D03*
Y031046D02*
D03*
Y031754D02*
D03*
X046539Y031046D02*
D03*
Y031754D02*
D03*
X041839Y031046D02*
D03*
Y031754D02*
D03*
X032316Y023531D02*
D03*
Y024240D02*
D03*
X037016Y023631D02*
D03*
Y024340D02*
D03*
X051216Y023732D02*
D03*
Y024440D02*
D03*
X037016Y027782D02*
D03*
Y028490D02*
D03*
X041766Y027782D02*
D03*
Y028490D02*
D03*
X041716Y023631D02*
D03*
Y024340D02*
D03*
X046466Y023732D02*
D03*
Y024440D02*
D03*
D127*
X028009Y024336D02*
D03*
X026722D02*
D03*
D128*
X047295Y012500D02*
D03*
X054872Y021200D02*
D03*
X057672D02*
D03*
X055395Y027900D02*
D03*
X058295D02*
D03*
X061295Y024000D02*
D03*
M02*
